<?xml version="1.0" standalone="no"?>
<!DOCTYPE svg PUBLIC "-//W3C//DTD SVG 20010904//EN"
 "http://www.w3.org/TR/2001/REC-SVG-20010904/DTD/svg10.dtd">
<svg version="1.0" xmlns="http://www.w3.org/2000/svg"
 width="3307.000000pt" height="2339.000000pt" viewBox="0 0 3307.000000 2339.000000"
 preserveAspectRatio="xMidYMid meet">

<g transform="translate(0.000000,2339.000000) scale(0.100000,-0.100000)"
fill="#000000" stroke="none">
<path d="M0 11695 l0 -11695 16535 0 16535 0 0 11695 0 11695 -16535 0 -16535
0 0 -11695z m33060 0 l0 -11685 -16525 0 -16525 0 0 11685 0 11685 16525 0
16525 0 0 -11685z"/>
<path d="M1170 11695 l0 -11305 15758 2 15757 3 0 11300 0 11300 -15757 3
-15758 2 0 -11305z m31490 0 l0 -11285 -15730 0 -15730 0 0 11285 0 11285
15730 0 15730 0 0 -11285z"/>
<path d="M3446 22482 c-3 -5 -42 -95 -86 -198 -56 -131 -89 -196 -108 -211
l-27 -23 70 0 c68 1 69 1 43 16 -34 18 -34 18 -7 83 l22 51 82 0 83 0 21 -49
c26 -62 26 -66 -1 -85 -21 -15 -17 -16 66 -16 l89 0 -33 23 c-28 19 -45 51
-112 212 -81 194 -91 214 -102 197z m10 -129 c8 -21 24 -59 35 -85 l19 -48
-74 0 -74 0 36 85 c20 47 38 85 39 85 2 0 10 -17 19 -37z"/>
<path d="M5402 22474 c-25 -17 -52 -64 -52 -91 0 -14 3 -13 17 7 9 14 24 30
33 37 16 13 68 17 95 7 20 -8 45 -56 45 -86 0 -48 -50 -128 -131 -213 l-82
-86 133 3 133 3 13 38 c13 38 6 48 -16 22 -9 -11 -34 -15 -97 -15 l-84 0 70
80 c83 94 111 144 111 201 0 33 -6 47 -34 75 -29 29 -41 34 -83 34 -28 0 -58
-7 -71 -16z"/>
<path d="M5732 22474 c-25 -17 -52 -64 -52 -91 0 -14 3 -13 17 7 9 14 24 30
33 37 16 13 68 17 95 7 20 -8 45 -56 45 -86 0 -48 -50 -128 -131 -213 l-82
-86 133 3 133 3 13 38 c13 38 6 48 -16 22 -9 -11 -34 -15 -97 -15 l-84 0 70
80 c83 94 111 144 111 201 0 33 -6 47 -34 75 -29 29 -41 34 -83 34 -28 0 -58
-7 -71 -16z"/>
<path d="M1740 22471 l25 -7 3 -192 2 -193 -32 -14 c-31 -13 -27 -14 78 -15
140 0 168 6 205 42 24 24 29 38 29 77 0 79 -58 121 -167 121 l-43 0 0 85 0 85
65 0 c67 0 82 -7 112 -56 11 -18 12 -17 12 6 1 14 -2 35 -5 48 -6 22 -9 22
-158 21 -83 -1 -140 -4 -126 -8z m207 -229 c11 -6 23 -19 27 -28 9 -24 7 -73
-4 -95 -14 -25 -62 -49 -100 -49 l-30 0 0 94 c0 67 4 96 13 99 15 5 66 -6 94
-21z"/>
<path d="M4418 22473 c13 -3 27 -16 33 -29 10 -28 12 -315 3 -352 -4 -14 -18
-25 -38 -31 -22 -6 20 -9 141 -10 l171 -1 16 47 c22 65 20 74 -9 31 -28 -41
-67 -58 -136 -58 -79 0 -79 0 -79 106 l0 94 48 0 c70 0 93 -9 108 -44 13 -29
13 -27 13 49 0 63 -2 75 -10 55 -14 -35 -26 -40 -96 -40 l-63 0 0 85 0 85 78
0 c86 0 100 -6 118 -47 12 -28 12 -27 13 20 l1 47 -167 -1 c-93 -1 -158 -4
-145 -6z"/>
<path d="M2503 22330 c-63 -38 -88 -129 -55 -203 26 -58 62 -82 123 -82 82 0
140 63 141 153 0 90 -55 152 -137 152 -22 0 -54 -9 -72 -20z m111 -24 c52 -52
54 -195 3 -231 -29 -21 -41 -19 -76 10 -54 46 -67 179 -20 226 26 26 65 24 93
-5z"/>
<path d="M2973 22338 c-12 -6 -30 -31 -39 -55 -17 -44 -38 -63 -69 -63 -13 0
-16 9 -13 47 2 39 7 50 28 60 22 11 17 13 -50 12 -56 0 -69 -3 -52 -9 22 -9
23 -13 20 -132 -3 -119 -4 -123 -28 -135 -22 -11 -16 -13 55 -13 71 0 77 2 55
13 -22 11 -25 20 -28 76 -4 83 13 80 71 -14 l42 -70 50 -2 c44 -2 47 -1 27 9
-13 7 -45 44 -72 84 l-47 73 21 38 c19 33 26 38 54 35 36 -4 52 18 32 43 -14
17 -26 18 -57 3z"/>
<path d="M2148 22330 c18 -8 22 -18 23 -52 4 -146 -8 -215 -35 -188 -24 24
-60 4 -49 -27 8 -21 68 -15 89 8 16 17 20 40 23 135 l3 114 49 0 49 0 0 -104
c0 -119 -9 -153 -42 -159 -13 -2 13 -5 57 -5 64 -1 76 1 58 10 -22 11 -23 16
-23 135 0 119 1 124 23 133 15 6 -23 9 -113 9 -90 0 -128 -3 -112 -9z"/>
<path d="M3898 22330 c22 -9 23 -13 20 -132 -3 -119 -4 -123 -28 -135 -22 -11
-17 -13 49 -13 l73 0 -23 19 c-21 17 -22 21 -11 42 8 13 38 51 68 84 l54 60
-2 -90 c-3 -84 -4 -90 -28 -102 -22 -11 -16 -13 55 -13 71 0 77 2 55 13 -24
12 -25 17 -28 117 -3 126 1 147 31 153 12 2 -12 4 -53 4 -41 1 -67 -1 -58 -4
38 -10 31 -42 -21 -102 -83 -96 -81 -95 -81 -5 0 86 5 99 35 107 11 2 -14 5
-55 5 -55 1 -69 -2 -52 -8z"/>
<path d="M6018 22330 c22 -9 23 -13 20 -132 -3 -119 -4 -123 -28 -135 -21 -11
16 -13 220 -12 184 0 239 3 223 11 -22 11 -23 16 -23 135 0 119 1 124 23 133
16 6 2 9 -53 9 -55 0 -69 -3 -52 -9 21 -9 22 -14 22 -135 l0 -126 -52 3 -53 3
-3 123 c-3 119 -2 123 20 132 17 6 4 9 -52 9 -67 1 -72 -1 -50 -12 24 -12 25
-17 28 -112 4 -144 3 -147 -61 -143 l-52 3 -3 105 c-3 126 1 147 31 153 12 2
-12 5 -53 5 -55 1 -69 -2 -52 -8z"/>
<path d="M6501 22298 c0 -24 3 -36 6 -28 12 32 37 50 70 50 l33 0 0 -112 c0
-118 -3 -128 -35 -146 -16 -9 -3 -11 65 -11 47 1 76 4 65 6 -42 10 -45 21 -45
144 l0 119 35 0 c29 0 39 -6 55 -32 16 -26 20 -29 20 -13 0 11 -3 30 -6 43 -6
21 -10 22 -135 22 l-129 0 1 -42z"/>
<path d="M4970 22195 c0 -25 1 -25 80 -25 79 0 80 0 80 25 0 25 -1 25 -80 25
-79 0 -80 0 -80 -25z"/>
<path d="M6837 22104 c-15 -16 -7 -53 14 -59 30 -10 58 19 43 43 -12 18 -45
28 -57 16z"/>
<path d="M14922 14393 l3 -4538 393 -3 392 -2 0 -670 0 -670 1389 0 1390 0 3
-52 3 -53 1913 -1 1912 -1 -2 4301 -3 4301 -57 3 -58 3 0 109 0 109 -52 -3
c-29 -2 -83 -4 -120 -5 l-68 -1 0 -110 0 -110 -55 0 -55 0 0 -260 0 -260 -200
0 c-153 0 -200 3 -200 13 0 6 7 47 15 90 18 97 18 97 0 97 -13 0 -15 78 -15
640 l0 640 140 0 c123 0 140 -2 140 -16 0 -13 7 -15 28 -11 15 3 62 11 105 17
42 7 77 16 77 19 0 4 -35 13 -77 20 -43 7 -90 15 -105 18 -21 4 -28 2 -28 -11
0 -14 -17 -16 -140 -16 l-140 0 0 240 0 240 250 0 250 0 0 -300 c0 -193 4
-300 10 -300 6 0 10 82 10 228 l0 227 61 -3 c34 -2 86 -1 116 3 l53 6 -2 292
-3 292 -1515 6 c-833 4 -2470 9 -3638 13 l-2122 7 2 -4538z m1434 4497 c-715
-3 -1325 -2 -1355 1 -31 3 554 6 1299 5 l1355 0 -1299 -6z m-1013 -17 c-24 -2
-62 -2 -85 0 -24 2 -5 4 42 4 47 0 66 -2 43 -4z m175 -10 c-21 -2 -57 -2 -80
0 -24 2 -7 4 37 4 44 0 63 -2 43 -4z m175 -10 c-24 -2 -62 -2 -85 0 -24 2 -5
4 42 4 47 0 66 -2 43 -4z m170 -10 c-24 -2 -62 -2 -85 0 -24 2 -5 4 42 4 47 0
66 -2 43 -4z m175 -10 c-21 -2 -57 -2 -80 0 -24 2 -7 4 37 4 44 0 63 -2 43 -4z
m170 -10 c-21 -2 -57 -2 -80 0 -24 2 -7 4 37 4 44 0 63 -2 43 -4z m175 -10
c-24 -2 -62 -2 -85 0 -24 2 -5 4 42 4 47 0 66 -2 43 -4z m170 -10 c-24 -2 -62
-2 -85 0 -24 2 -5 4 42 4 47 0 66 -2 43 -4z m175 -10 c-21 -2 -57 -2 -80 0
-24 2 -7 4 37 4 44 0 63 -2 43 -4z m170 -10 c-21 -2 -57 -2 -80 0 -24 2 -7 4
37 4 44 0 63 -2 43 -4z m175 -10 c-24 -2 -62 -2 -85 0 -24 2 -5 4 42 4 47 0
66 -2 43 -4z m170 -10 c-24 -2 -62 -2 -85 0 -24 2 -5 4 42 4 47 0 66 -2 43 -4z
m175 -10 c-21 -2 -57 -2 -80 0 -24 2 -7 4 37 4 44 0 63 -2 43 -4z m170 -10
c-21 -2 -57 -2 -80 0 -24 2 -7 4 37 4 44 0 63 -2 43 -4z m175 -10 c-24 -2 -62
-2 -85 0 -24 2 -5 4 42 4 47 0 66 -2 43 -4z m170 -10 c-24 -2 -62 -2 -85 0
-24 2 -5 4 42 4 47 0 66 -2 43 -4z m175 -10 c-21 -2 -57 -2 -80 0 -24 2 -7 4
37 4 44 0 63 -2 43 -4z m175 -10 c-24 -2 -62 -2 -85 0 -24 2 -5 4 42 4 47 0
66 -2 43 -4z m170 -10 c-24 -2 -62 -2 -85 0 -24 2 -5 4 42 4 47 0 66 -2 43 -4z
m175 -10 c-21 -2 -57 -2 -80 0 -24 2 -7 4 37 4 44 0 63 -2 43 -4z m170 -10
c-21 -2 -57 -2 -80 0 -24 2 -7 4 37 4 44 0 63 -2 43 -4z m175 -10 c-24 -2 -62
-2 -85 0 -24 2 -5 4 42 4 47 0 66 -2 43 -4z m170 -10 c-24 -2 -62 -2 -85 0
-24 2 -5 4 42 4 47 0 66 -2 43 -4z m175 -10 c-21 -2 -57 -2 -80 0 -24 2 -7 4
37 4 44 0 63 -2 43 -4z m170 -10 c-21 -2 -57 -2 -80 0 -24 2 -7 4 37 4 44 0
63 -2 43 -4z m175 -10 c-24 -2 -62 -2 -85 0 -24 2 -5 4 42 4 47 0 66 -2 43 -4z
m170 -10 c-24 -2 -62 -2 -85 0 -24 2 -5 4 42 4 47 0 66 -2 43 -4z m175 -10
c-21 -2 -57 -2 -80 0 -24 2 -7 4 37 4 44 0 63 -2 43 -4z m175 -10 c-24 -2 -62
-2 -85 0 -24 2 -5 4 42 4 47 0 66 -2 43 -4z m170 -10 c-24 -2 -62 -2 -85 0
-24 2 -5 4 42 4 47 0 66 -2 43 -4z m170 -10 c-24 -2 -62 -2 -85 0 -24 2 -5 4
42 4 47 0 66 -2 43 -4z m175 -10 c-21 -2 -57 -2 -80 0 -24 2 -7 4 37 4 44 0
63 -2 43 -4z m175 -10 c-24 -2 -62 -2 -85 0 -24 2 -5 4 42 4 47 0 66 -2 43 -4z
m170 -10 c-24 -2 -62 -2 -85 0 -24 2 -5 4 42 4 47 0 66 -2 43 -4z m175 -10
c-21 -2 -57 -2 -80 0 -24 2 -7 4 37 4 44 0 63 -2 43 -4z m170 -10 c-21 -2 -57
-2 -80 0 -24 2 -7 4 37 4 44 0 63 -2 43 -4z m180 -10 c-21 -2 -57 -2 -80 0
-24 2 -7 4 37 4 44 0 63 -2 43 -4z m165 -10 c-24 -2 -62 -2 -85 0 -24 2 -5 4
42 4 47 0 66 -2 43 -4z m175 -10 c-21 -2 -57 -2 -80 0 -24 2 -7 4 37 4 44 0
63 -2 43 -4z m218 -10 c45 -7 42 -8 -46 -13 l-95 -5 90 -57 c50 -32 86 -58 81
-58 -6 0 -46 24 -90 52 -116 76 -122 88 -42 88 29 0 75 -3 102 -7z m-6858 -10
c-60 -2 -156 -2 -215 0 -60 1 -11 3 107 3 118 0 167 -2 108 -3z m346 -94 c87
-33 166 -64 176 -69 15 -8 130 -291 130 -320 0 -6 -61 -10 -155 -10 -134 0
-155 2 -155 16 0 10 -6 14 -17 10 -10 -2 -53 -10 -96 -17 -43 -6 -79 -15 -82
-19 -2 -4 31 -12 73 -19 42 -6 87 -14 98 -17 16 -4 23 0 27 15 5 21 10 21 159
19 l153 -3 3 -32 3 -33 -265 0 -266 0 0 280 0 280 28 -11 c15 -6 98 -38 186
-70z m476 -159 l0 -240 -50 0 -50 0 0 240 0 240 50 0 50 0 0 -240z m1469 105
c-1 -74 1 -138 4 -142 4 -3 7 -53 7 -110 0 -95 -2 -104 -17 -99 -19 5 -192 36
-205 36 -5 0 -8 -7 -8 -15 0 -13 -74 -15 -610 -15 l-610 0 0 240 0 240 721 0
720 0 -2 -135z m131 15 l0 -120 -50 0 -50 0 0 120 0 120 50 0 50 0 0 -120z
m3740 -120 l0 -240 -34 0 c-18 0 -49 6 -68 14 -30 13 -38 13 -62 0 -32 -16
-86 -19 -86 -4 0 6 -7 10 -15 10 -8 0 -15 -4 -15 -10 0 -7 -502 -10 -1486 -10
l-1486 0 21 36 c26 44 27 64 2 64 -13 0 -29 -17 -47 -50 l-27 -50 -104 0 c-85
0 -103 3 -103 15 0 8 -4 15 -9 15 -9 0 -129 -24 -178 -35 -23 -5 -23 -4 -23
98 0 57 3 107 7 110 3 4 5 68 4 142 l-2 135 1855 0 1856 0 0 -240z m-6246
-133 c104 -164 186 -300 184 -302 -3 -3 -411 640 -416 659 -7 21 44 -58 232
-357z m2518 -74 c1 -87 3 -134 5 -105 5 61 2 60 120 37 96 -18 93 -18 93 0 0
12 17 15 96 15 53 0 94 -4 92 -8 -1 -5 -95 -171 -208 -370 l-205 -361 -68 -3
-68 -3 1 -367 1 -368 -811 0 c-445 0 -810 2 -810 4 0 2 7 40 15 83 19 98 19
113 0 113 -13 0 -15 66 -15 530 l0 529 88 3 87 3 3 108 3 107 609 0 c536 0
610 -2 610 -15 0 -19 6 -19 103 0 125 24 125 24 130 -37 2 -29 4 18 5 105 l2
157 60 0 60 0 2 -157z m-1612 -143 l0 -100 -75 0 -75 0 0 54 c0 49 2 55 23 58
18 2 23 10 25 46 l3 42 50 0 49 0 0 -100z m5060 82 c0 -11 16 -26 45 -40 41
-20 45 -20 45 -4 0 10 7 28 16 40 13 19 24 22 57 20 l42 -3 -2 -42 c-1 -24 2
-43 7 -43 14 0 21 36 14 64 -7 27 -3 29 34 20 l22 -6 0 -639 c0 -561 -2 -639
-15 -639 -18 0 -18 3 0 -93 8 -43 15 -85 15 -93 0 -12 -60 -14 -385 -14 l-385
0 0 -67 0 -68 -428 -249 c-405 -237 -441 -260 -442 -279 0 -29 76 10 473 242
l446 261 361 0 c336 0 360 -1 360 -17 0 -10 -7 -56 -15 -103 -18 -104 -18
-100 0 -100 13 0 15 -288 15 -2535 l0 -2535 -1179 0 c-849 0 -1180 3 -1183 11
-3 8 -31 8 -101 -1 -54 -7 -100 -11 -102 -8 -3 3 -8 4676 -5 5276 0 11 80 12
420 10 l420 -3 0 83 0 82 -507 -2 -508 -3 -5 -69 -5 -68 -425 -248 c-304 -178
-425 -253 -425 -266 0 -9 5 -19 10 -21 6 -2 199 107 430 242 l420 246 3 -2627
c1 -1445 0 -2629 -3 -2632 -2 -2 -48 1 -102 8 -70 9 -98 9 -101 1 -3 -8 -359
-11 -1273 -11 l-1269 0 0 2285 0 2285 90 0 90 0 0 360 0 360 803 0 802 -1 -4
425 -3 425 223 395 224 395 1480 3 c814 2 1486 4 1493 6 6 1 12 -6 12 -16z
m70 -1 c0 -11 -5 -23 -11 -27 -15 -9 -33 12 -26 30 9 23 37 20 37 -3z m-5273
-43 c-3 -8 -6 -5 -6 6 -1 11 2 17 5 13 3 -3 4 -12 1 -19z m-17 -83 l0 -55
-265 0 -265 0 0 55 0 55 265 0 265 0 0 -55z m-662 -72 c-60 -2 -156 -2 -215 0
-60 1 -11 3 107 3 118 0 167 -2 108 -3z m662 -543 c0 -525 0 -530 -20 -530
-16 0 -19 -5 -16 -22 3 -13 10 -50 16 -83 6 -33 14 -68 16 -77 5 -17 -12 -18
-260 -18 l-266 0 0 630 0 630 265 0 265 0 0 -530z m-944 393 c-5 -5 -36 86
-35 101 0 6 9 -13 20 -43 10 -30 17 -56 15 -58z m44 -108 c16 -49 28 -90 26
-92 -2 -3 -16 33 -31 79 -16 46 -30 90 -33 98 -3 8 -2 12 2 9 3 -3 20 -46 36
-94z m134 -384 c53 -151 95 -276 93 -278 -4 -3 -197 541 -197 554 0 19 17 -27
104 -276z m6911 0 c52 -52 94 -96 92 -97 -2 -2 -48 42 -103 99 -122 124 -117
124 11 -2z m-4467 -91 c0 -22 -1 -22 -8 5 -4 17 -8 41 -8 55 0 22 1 22 8 -5 4
-16 8 -41 8 -55z m4515 -27 c-29 -2 -77 -2 -105 0 -29 2 -6 3 52 3 58 0 81 -1
53 -3z m-4495 -83 c0 -22 -1 -22 -8 5 -4 17 -8 41 -8 55 0 22 1 22 8 -5 4 -16
8 -41 8 -55z m4347 -50 c49 -58 141 -165 203 -238 63 -73 113 -135 110 -137
-4 -4 -411 473 -417 489 -5 15 0 10 104 -114z m-4327 -60 c0 -22 -1 -22 -8 5
-4 17 -8 41 -8 55 0 22 1 22 8 -5 4 -16 8 -41 8 -55z m-2329 -129 c28 -79 51
-149 50 -155 0 -6 -22 50 -48 124 -55 155 -66 187 -58 180 3 -3 29 -70 56
-149z m2349 19 c0 -22 -1 -22 -8 5 -4 17 -8 41 -8 55 0 22 1 22 8 -5 4 -16 8
-41 8 -55z m20 -110 c0 -22 -1 -22 -8 5 -4 17 -8 41 -8 55 0 22 1 22 8 -5 4
-16 8 -41 8 -55z m-2472 -122 c-101 -6 -179 -6 -215 0 -44 7 -10 9 159 9 l215
0 -159 -9z m2447 5 c-13 -2 -35 -2 -50 0 -16 2 -5 4 22 4 28 0 40 -2 28 -4z
m4525 0 c-60 -2 -156 -2 -215 0 -60 1 -11 3 107 3 118 0 167 -2 108 -3z
m-6830 -20 c-26 -2 -71 -2 -100 0 -29 2 -8 3 47 3 55 0 79 -1 53 -3z m3500 0
c-10 -2 -26 -2 -35 0 -10 3 -2 5 17 5 19 0 27 -2 18 -5z m2080 0 c-15 -2 -42
-2 -60 0 -18 2 -6 4 27 4 33 0 48 -2 33 -4z m-5370 -10 c-26 -2 -71 -2 -100 0
-29 2 -8 3 47 3 55 0 79 -1 53 -3z m3360 0 c-10 -2 -26 -2 -35 0 -10 3 -2 5
17 5 19 0 27 -2 18 -5z m2130 0 c-15 -2 -42 -2 -60 0 -18 2 -6 4 27 4 33 0 48
-2 33 -4z m-5280 -10 c-26 -2 -71 -2 -100 0 -29 2 -8 3 47 3 55 0 79 -1 53 -3z
m3272 -2 c33 -6 37 -9 15 -9 -16 0 -50 3 -75 7 -33 6 -37 9 -15 9 17 0 50 -3
75 -7z m2128 2 c-15 -2 -42 -2 -60 0 -18 2 -6 4 27 4 33 0 48 -2 33 -4z
m-5190 -10 c-26 -2 -71 -2 -100 0 -29 2 -8 3 47 3 55 0 79 -1 53 -3z m5310 0
c-15 -2 -42 -2 -60 0 -18 2 -6 4 27 4 33 0 48 -2 33 -4z m-5110 -10 c-26 -2
-71 -2 -100 0 -29 2 -8 3 47 3 55 0 79 -1 53 -3z m2960 0 c-10 -2 -26 -2 -35
0 -10 3 -2 5 17 5 19 0 27 -2 18 -5z m2270 0 c-15 -2 -42 -2 -60 0 -18 2 -6 4
27 4 33 0 48 -2 33 -4z m-5020 -10 c-26 -2 -71 -2 -100 0 -29 2 -8 3 47 3 55
0 79 -1 53 -3z m2872 -2 c33 -6 37 -9 15 -9 -16 0 -50 3 -75 7 -33 6 -37 9
-15 9 17 0 50 -3 75 -7z m2268 2 c-15 -2 -42 -2 -60 0 -18 2 -6 4 27 4 33 0
48 -2 33 -4z m-4930 -10 c-26 -2 -71 -2 -100 0 -29 2 -8 3 47 3 55 0 79 -1 53
-3z m5060 0 c-15 -2 -42 -2 -60 0 -18 2 -6 4 27 4 33 0 48 -2 33 -4z m-4850
-10 c-26 -2 -71 -2 -100 0 -29 2 -8 3 47 3 55 0 79 -1 53 -3z m2550 0 c-10 -2
-26 -2 -35 0 -10 3 -2 5 17 5 19 0 27 -2 18 -5z m2420 0 c-15 -2 -42 -2 -60 0
-18 2 -6 4 27 4 33 0 48 -2 33 -4z m-4760 -10 c-26 -2 -71 -2 -100 0 -29 2 -8
3 47 3 55 0 79 -1 53 -3z m2462 -2 c33 -6 37 -9 15 -9 -16 0 -50 3 -75 7 -33
6 -37 9 -15 9 17 0 50 -3 75 -7z m2418 2 c-15 -2 -42 -2 -60 0 -18 2 -6 4 27
4 33 0 48 -2 33 -4z m-4680 -10 c-27 -2 -69 -2 -95 0 -27 2 -5 3 47 3 52 0 74
-1 48 -3z m4800 0 c-15 -2 -42 -2 -60 0 -18 2 -6 4 27 4 33 0 48 -2 33 -4z
m125 -10 c-18 -2 -48 -2 -65 0 -18 2 -4 4 32 4 36 0 50 -2 33 -4z m110 -10
c-13 -2 -35 -2 -50 0 -16 2 -5 4 22 4 28 0 40 -2 28 -4z m-7106 -134 c182
-112 256 -161 193 -129 -34 18 -382 231 -394 242 -28 24 21 -4 201 -113z
m6683 -2524 c0 -2512 -1 -2645 -17 -2645 -10 0 -58 5 -108 11 -65 8 -90 8 -93
0 -2 -7 -35 -11 -88 -11 l-84 0 0 2535 c0 2247 2 2535 15 2535 18 0 18 -4 0
100 -8 47 -15 93 -15 103 0 16 16 17 195 17 l195 0 0 -2645z m37 2343 c-2 -18
-4 -4 -4 32 0 36 2 50 4 33 2 -18 2 -48 0 -65z m-6139 -176 c67 -41 121 -77
119 -79 -6 -5 -456 271 -457 279 0 4 48 -22 108 -59 59 -36 162 -100 230 -141z
m6149 56 c-2 -18 -4 -6 -4 27 0 33 2 48 4 33 2 -15 2 -42 0 -60z m10 -130 c-2
-18 -4 -6 -4 27 0 33 2 48 4 33 2 -15 2 -42 0 -60z m10 -130 c-2 -18 -4 -4 -4
32 0 36 2 50 4 33 2 -18 2 -48 0 -65z m-3180 -235 c-1 -60 -3 -11 -3 107 0
118 2 167 3 108 2 -60 2 -156 0 -215z m-2716 271 c33 -19 59 -38 59 -41 0 -5
-76 37 -115 64 -41 28 0 11 56 -23z m-83 -2361 l2 -2283 -159 0 c-103 0 -161
4 -163 11 -2 7 -28 7 -88 0 -46 -6 -92 -11 -102 -11 -17 0 -18 103 -18 2285
l0 2285 263 -2 262 -3 3 -2282z m5989 2195 c-2 -18 -4 -4 -4 32 0 36 2 50 4
33 2 -18 2 -48 0 -65z m10 -120 c-2 -18 -4 -6 -4 27 0 33 2 48 4 33 2 -15 2
-42 0 -60z m-6970 -60 c-2 -18 -4 -6 -4 27 0 33 2 48 4 33 2 -15 2 -42 0 -60z
m6980 -70 c-2 -18 -4 -6 -4 27 0 33 2 48 4 33 2 -15 2 -42 0 -60z m-6970 -45
c-2 -16 -4 -3 -4 27 0 30 2 43 4 28 2 -16 2 -40 0 -55z m3770 -260 c-1 -60 -3
-11 -3 107 0 118 2 167 3 108 2 -60 2 -156 0 -215z m3210 175 c-2 -18 -4 -6
-4 27 0 33 2 48 4 33 2 -15 2 -42 0 -60z m-6970 -35 c-2 -16 -4 -3 -4 27 0 30
2 43 4 28 2 -16 2 -40 0 -55z m6980 -95 c-2 -18 -4 -4 -4 32 0 36 2 50 4 33 2
-18 2 -48 0 -65z m-6970 -20 c-2 -18 -4 -6 -4 27 0 33 2 48 4 33 2 -15 2 -42
0 -60z m6980 -110 c-2 -18 -4 -4 -4 32 0 36 2 50 4 33 2 -18 2 -48 0 -65z
m-6970 -5 c-2 -16 -4 -3 -4 27 0 30 2 43 4 28 2 -16 2 -40 0 -55z m6980 -115
c-2 -18 -4 -6 -4 27 0 33 2 48 4 33 2 -15 2 -42 0 -60z m-6970 -5 c-2 -16 -4
-3 -4 27 0 30 2 43 4 28 2 -16 2 -40 0 -55z m3740 -240 c-1 -59 -3 -13 -3 102
0 116 2 164 3 108 2 -56 2 -151 0 -210z m-3730 125 c-2 -18 -4 -6 -4 27 0 33
2 48 4 33 2 -15 2 -42 0 -60z m6970 -10 c-2 -18 -4 -6 -4 27 0 33 2 48 4 33 2
-15 2 -42 0 -60z m-6960 -110 c-2 -18 -4 -6 -4 27 0 33 2 48 4 33 2 -15 2 -42
0 -60z m6970 -20 c-2 -18 -4 -6 -4 27 0 33 2 48 4 33 2 -15 2 -42 0 -60z
m-6960 -95 c-2 -16 -4 -3 -4 27 0 30 2 43 4 28 2 -16 2 -40 0 -55z m6970 -35
c-2 -18 -4 -4 -4 32 0 36 2 50 4 33 2 -18 2 -48 0 -65z m-6960 -80 c-2 -18 -4
-6 -4 27 0 33 2 48 4 33 2 -15 2 -42 0 -60z m3710 -235 c-1 -60 -3 -11 -3 107
0 118 2 167 3 108 2 -60 2 -156 0 -215z m3260 185 c-2 -18 -4 -4 -4 32 0 36 2
50 4 33 2 -18 2 -48 0 -65z m-6960 -70 c-2 -18 -4 -6 -4 27 0 33 2 48 4 33 2
-15 2 -42 0 -60z m6970 -50 c-2 -18 -4 -6 -4 27 0 33 2 48 4 33 2 -15 2 -42 0
-60z m-6960 -65 c-2 -16 -4 -3 -4 27 0 30 2 43 4 28 2 -16 2 -40 0 -55z m6970
-65 c-2 -18 -4 -6 -4 27 0 33 2 48 4 33 2 -15 2 -42 0 -60z m-6960 -55 c-2
-16 -4 -3 -4 27 0 30 2 43 4 28 2 -16 2 -40 0 -55z m6970 -75 c-2 -18 -4 -6
-4 27 0 33 2 48 4 33 2 -15 2 -42 0 -60z m-3280 -255 c-1 -60 -3 -11 -3 107 0
118 2 167 3 108 2 -60 2 -156 0 -215z m-3680 215 c-2 -18 -4 -6 -4 27 0 33 2
48 4 33 2 -15 2 -42 0 -60z m6970 -90 c-2 -18 -4 -4 -4 32 0 36 2 50 4 33 2
-18 2 -48 0 -65z m-6960 -25 c-2 -16 -4 -3 -4 27 0 30 2 43 4 28 2 -16 2 -40
0 -55z m6970 -105 c-2 -18 -4 -4 -4 32 0 36 2 50 4 33 2 -18 2 -48 0 -65z
m-6960 -15 c-2 -16 -4 -3 -4 27 0 30 2 43 4 28 2 -16 2 -40 0 -55z m6970 -105
c-2 -18 -4 -6 -4 27 0 33 2 48 4 33 2 -15 2 -42 0 -60z m-6960 -10 c-2 -18 -4
-6 -4 27 0 33 2 48 4 33 2 -15 2 -42 0 -60z m3660 -315 c-1 -60 -3 -11 -3 107
0 118 2 167 3 108 2 -60 2 -156 0 -215z m-3650 195 c-2 -18 -4 -6 -4 27 0 33
2 48 4 33 2 -15 2 -42 0 -60z m6960 0 c-2 -18 -4 -6 -4 27 0 33 2 48 4 33 2
-15 2 -42 0 -60z m-6950 -115 c-2 -16 -4 -3 -4 27 0 30 2 43 4 28 2 -16 2 -40
0 -55z m6960 -15 c-2 -18 -4 -6 -4 27 0 33 2 48 4 33 2 -15 2 -42 0 -60z
m-6950 -105 c-2 -16 -4 -3 -4 27 0 30 2 43 4 28 2 -16 2 -40 0 -55z m6960 -25
c-2 -18 -4 -4 -4 32 0 36 2 50 4 33 2 -18 2 -48 0 -65z m-6950 -90 c-2 -18 -4
-6 -4 27 0 33 2 48 4 33 2 -15 2 -42 0 -60z m6960 -30 c-2 -18 -4 -6 -4 27 0
33 2 48 4 33 2 -15 2 -42 0 -60z m-3330 -265 c-1 -60 -3 -11 -3 107 0 118 2
167 3 108 2 -60 2 -156 0 -215z m-3620 180 c-2 -16 -4 -3 -4 27 0 30 2 43 4
28 2 -16 2 -40 0 -55z m6960 -45 c-2 -18 -4 -6 -4 27 0 33 2 48 4 33 2 -15 2
-42 0 -60z m-6950 -75 c-2 -16 -4 -3 -4 27 0 30 2 43 4 28 2 -16 2 -40 0 -55z
m6960 -55 c-2 -18 -4 -4 -4 32 0 36 2 50 4 33 2 -18 2 -48 0 -65z m-6950 -60
c-2 -18 -4 -6 -4 27 0 33 2 48 4 33 2 -15 2 -42 0 -60z m6960 -70 c-2 -18 -4
-4 -4 32 0 36 2 50 4 33 2 -18 2 -48 0 -65z m-6950 -45 c-2 -16 -4 -3 -4 27 0
30 2 43 4 28 2 -16 2 -40 0 -55z m3600 -280 c-1 -60 -3 -11 -3 107 0 118 2
167 3 108 2 -60 2 -156 0 -215z m3360 195 c-2 -18 -4 -4 -4 32 0 36 2 50 4 33
2 -18 2 -48 0 -65z m-6950 -35 c-2 -16 -4 -3 -4 27 0 30 2 43 4 28 2 -16 2
-40 0 -55z m6960 -85 c-2 -18 -4 -6 -4 27 0 33 2 48 4 33 2 -15 2 -42 0 -60z
m-6950 -30 c-2 -18 -4 -6 -4 27 0 33 2 48 4 33 2 -15 2 -42 0 -60z m6960 -100
c-2 -18 -4 -6 -4 27 0 33 2 48 4 33 2 -15 2 -42 0 -60z m-6950 -20 c-2 -18 -4
-6 -4 27 0 33 2 48 4 33 2 -15 2 -42 0 -60z m6960 -110 c-2 -18 -4 -6 -4 27 0
33 2 48 4 33 2 -15 2 -42 0 -60z m-6950 -5 c-2 -16 -4 -3 -4 27 0 30 2 43 4
28 2 -16 2 -40 0 -55z m3570 -255 c-1 -57 -3 -11 -3 102 0 113 2 159 3 103 2
-57 2 -149 0 -205z m3390 130 c-2 -18 -4 -4 -4 32 0 36 2 50 4 33 2 -18 2 -48
0 -65z m-6950 5 c-2 -16 -4 -3 -4 27 0 30 2 43 4 28 2 -16 2 -40 0 -55z m10
-115 c-2 -18 -4 -6 -4 27 0 33 2 48 4 33 2 -15 2 -42 0 -60z m6950 -20 c-2
-18 -4 -4 -4 32 0 36 2 50 4 33 2 -18 2 -48 0 -65z m-6940 -100 c-2 -18 -4 -6
-4 27 0 33 2 48 4 33 2 -15 2 -42 0 -60z m6950 -20 c-2 -18 -4 -6 -4 27 0 33
2 48 4 33 2 -15 2 -42 0 -60z m-6940 -95 c-2 -16 -4 -3 -4 27 0 30 2 43 4 28
2 -16 2 -40 0 -55z m3540 -240 c-1 -59 -3 -13 -3 102 0 116 2 164 3 108 2 -56
2 -151 0 -210z m3410 205 c-2 -18 -4 -6 -4 27 0 33 2 48 4 33 2 -15 2 -42 0
-60z m-6940 -80 c-2 -18 -4 -6 -4 27 0 33 2 48 4 33 2 -15 2 -42 0 -60z m6950
-50 c-2 -18 -4 -6 -4 27 0 33 2 48 4 33 2 -15 2 -42 0 -60z m-6940 -70 c-2
-18 -4 -6 -4 27 0 33 2 48 4 33 2 -15 2 -42 0 -60z m6950 -60 c-2 -18 -4 -4
-4 32 0 36 2 50 4 33 2 -18 2 -48 0 -65z m-6940 -55 c-2 -16 -4 -3 -4 27 0 30
2 43 4 28 2 -16 2 -40 0 -55z m6950 -65 c-2 -18 -4 -6 -4 27 0 33 2 48 4 33 2
-15 2 -42 0 -60z m-6940 -50 c-2 -18 -4 -6 -4 27 0 33 2 48 4 33 2 -15 2 -42
0 -60z m6950 -80 c-2 -18 -4 -6 -4 27 0 33 2 48 4 33 2 -15 2 -42 0 -60z
m-6940 -40 c-2 -18 -4 -6 -4 27 0 33 2 48 4 33 2 -15 2 -42 0 -60z m178 2 c33
-6 70 -13 82 -15 15 -4 23 1 28 15 6 19 15 20 161 20 l154 0 0 -245 c0 -239 0
-245 -20 -245 -16 0 -19 -5 -15 -22 2 -13 9 -52 15 -88 6 -36 13 -73 16 -82 5
-17 -12 -18 -260 -18 l-266 0 0 350 0 350 23 -4 c12 -3 49 -10 82 -16z m2975
0 c0 -16 5 -19 23 -15 12 2 51 9 87 15 36 6 73 13 83 16 16 5 17 -16 17 -345
l0 -351 -467 -2 -468 -3 -3 -92 c-3 -91 -3 -93 -27 -93 -19 0 -24 -6 -27 -32
-2 -25 -9 -34 -28 -38 l-25 -6 -3 -432 c-2 -403 -3 -432 -20 -432 -34 0 -149
31 -232 62 -167 62 -355 218 -435 361 -44 80 -88 224 -106 350 -7 48 -16 90
-21 93 -4 3 -8 21 -8 40 l0 34 -305 0 -304 0 -3 93 -3 92 -132 3 c-73 1 -133
7 -133 11 0 5 7 45 15 88 19 98 19 113 0 113 -13 0 -15 34 -15 245 l0 245
1270 0 c1267 0 1270 0 1270 -20z m588 -20 c1 0 2 9 2 20 0 20 7 20 1180 20
l1180 0 0 -1025 c0 -904 -2 -1025 -15 -1025 -18 0 -18 6 2 -107 9 -51 14 -96
11 -99 -11 -11 -1206 -17 -1880 -9 l-688 7 0 1128 0 1127 103 -18 c56 -10 103
-19 105 -19z m2552 26 c0 -28 -3 -28 193 8 l27 6 0 -1130 0 -1130 -195 0
c-224 0 -204 -12 -180 113 18 97 18 97 0 97 -13 0 -15 121 -15 1025 l0 1025
85 0 c67 0 85 -3 85 -14z m657 -98 c-2 -18 -4 -6 -4 27 0 33 2 48 4 33 2 -15
2 -42 0 -60z m-6940 -25 c-2 -16 -4 -3 -4 27 0 30 2 43 4 28 2 -16 2 -40 0
-55z m6950 -105 c-2 -18 -4 -6 -4 27 0 33 2 48 4 33 2 -15 2 -42 0 -60z
m-6940 -15 c-2 -16 -4 -3 -4 27 0 30 2 43 4 28 2 -16 2 -40 0 -55z m10 -115
c-2 -18 -4 -6 -4 27 0 33 2 48 4 33 2 -15 2 -42 0 -60z m10 -90 c-2 -13 -4 -5
-4 17 -1 22 1 32 4 23 2 -10 2 -28 0 -40z m6510 -120 c-3 -8 -6 -5 -6 6 -1 11
2 17 5 13 3 -3 4 -12 1 -19z m10 -40 c-3 -8 -6 -5 -6 6 -1 11 2 17 5 13 3 -3
4 -12 1 -19z m10 -40 c-3 -8 -6 -5 -6 6 -1 11 2 17 5 13 3 -3 4 -12 1 -19z
m10 -40 c-3 -8 -6 -5 -6 6 -1 11 2 17 5 13 3 -3 4 -12 1 -19z m-6736 -18
l-205 -5 73 -23 c40 -13 71 -26 69 -28 -7 -7 -158 47 -158 57 0 5 90 8 213 7
l212 -2 -204 -6z m6804 -229 c31 -123 54 -225 52 -228 -4 -3 -117 436 -117
454 0 24 15 -29 65 -226z m-3674 17 c274 -112 496 -205 494 -207 -2 -2 -205
79 -452 179 -547 224 -560 229 -548 230 5 0 233 -91 506 -202z m-3043 107 c62
-21 110 -40 108 -42 -4 -5 -238 75 -245 84 -4 3 1 4 9 1 8 -3 66 -22 128 -43z
m235 -81 c43 -14 77 -28 74 -30 -2 -2 -41 9 -88 25 -46 16 -80 30 -74 30 5 1
45 -11 88 -25z m747 -29 c0 -16 -6 -25 -15 -25 -15 0 -21 31 -8 43 13 14 23 6
23 -18z m508 -2 l3 -23 -240 0 -241 0 0 25 0 25 238 -2 237 -3 3 -22z m52 2
c0 -16 -6 -25 -15 -25 -15 0 -21 31 -8 43 13 14 23 6 23 -18z m948 -3 c2 -15
-2 -22 -12 -22 -11 0 -16 9 -16 26 0 31 23 28 28 -4z m-2045 -42 c54 -17 97
-34 94 -36 -4 -5 -208 63 -216 72 -3 4 1 5 9 2 8 -3 59 -20 113 -38z m1127
-87 c18 -135 57 -259 107 -348 86 -153 268 -306 442 -373 97 -38 257 -75 304
-70 l32 3 3 438 c2 379 4 437 17 437 12 0 15 -18 15 -95 l0 -95 370 0 370 0 0
-605 0 -605 -1327 2 -1328 3 -3 603 -2 602 190 0 190 0 0 95 0 95 304 0 304 0
12 -87z m870 72 c0 -8 -9 -15 -20 -15 -11 0 -20 7 -20 15 0 8 9 15 20 15 11 0
20 -7 20 -15z m-1708 -85 c86 -30 155 -56 153 -58 -4 -5 -327 106 -335 115 -6
7 -16 11 182 -57z m1708 -330 c0 -363 0 -370 -20 -370 -20 0 -20 7 -20 370 0
363 0 370 20 370 20 0 20 -7 20 -370z m-1930 -395 l0 -635 1360 0 1360 0 0
-25 0 -25 -1380 0 -1380 0 0 660 c0 653 0 660 20 660 20 0 20 -7 20 -635z m50
25 l0 -610 1335 0 c1328 0 1335 0 1335 -20 0 -20 -7 -20 -1355 -20 l-1355 0 0
630 c0 623 0 630 20 630 20 0 20 -7 20 -610z m6217 568 c-3 -8 -6 -5 -6 6 -1
11 2 17 5 13 3 -3 4 -12 1 -19z m-3510 -10 c-3 -8 -6 -5 -6 6 -1 11 2 17 5 13
3 -3 4 -12 1 -19z m3520 -30 c-3 -8 -6 -5 -6 6 -1 11 2 17 5 13 3 -3 4 -12 1
-19z m-3489 -68 c0 -8 -6 1 -13 20 -7 19 -13 42 -13 50 0 8 6 -1 13 -20 7 -19
13 -42 13 -50z m3499 28 c-3 -8 -6 -5 -6 6 -1 11 2 17 5 13 3 -3 4 -12 1 -19z
m10 -40 c-3 -8 -6 -5 -6 6 -1 11 2 17 5 13 3 -3 4 -12 1 -19z m-3462 -136 c20
-68 35 -126 32 -128 -3 -4 -77 235 -77 252 0 19 11 -10 45 -124z m3535 -131
c33 -134 59 -245 57 -248 -4 -3 -127 476 -127 494 0 25 16 -32 70 -246z
m-3472 -91 c0 -8 -6 1 -13 20 -7 19 -13 42 -13 50 0 8 6 -1 13 -20 7 -19 13
-42 13 -50z m62 -198 c28 -96 50 -176 47 -178 -3 -4 -107 335 -107 351 0 21
12 -13 60 -173z m-1032 66 c-3 -7 -11 -13 -18 -13 -7 0 -15 6 -17 13 -3 7 4
12 17 12 13 0 20 -5 18 -12z m4509 -60 c-3 -8 -6 -5 -6 6 -1 11 2 17 5 13 3
-3 4 -12 1 -19z m10 -40 c-3 -8 -6 -5 -6 6 -1 11 2 17 5 13 3 -3 4 -12 1 -19z
m10 -40 c-3 -8 -6 -5 -6 6 -1 11 2 17 5 13 3 -3 4 -12 1 -19z m10 -40 c-3 -8
-6 -5 -6 6 -1 11 2 17 5 13 3 -3 4 -12 1 -19z m32 -105 c12 -45 21 -87 20 -95
-1 -13 -48 158 -49 176 0 23 10 -6 29 -81z m-3450 -88 c0 -11 -9 7 -19 40 -11
33 -19 65 -19 70 1 17 37 -89 38 -110z m-133 -85 l-139 -5 151 -50 c83 -27
150 -51 147 -53 -6 -6 -325 102 -325 110 0 5 69 7 153 6 l152 -2 -139 -6z
m3502 3 c-60 -2 -156 -2 -215 0 -60 1 -11 3 107 3 118 0 167 -2 108 -3z
m-1108 -48 l0 -45 -765 0 -765 0 0 45 0 45 765 0 765 0 0 -45z m145 16 c79
-25 59 -26 -25 -2 -36 11 -58 20 -50 20 8 0 42 -8 75 -18z m150 -42 c14 -6 9
-7 -15 -3 -19 4 -44 11 -55 15 -14 6 -9 7 15 3 19 -4 44 -11 55 -15z m110 -30
c14 -6 9 -7 -15 -3 -19 4 -44 11 -55 15 -14 6 -9 7 15 3 19 -4 44 -11 55 -15z
m-2420 -73 c105 -36 185 -65 180 -65 -6 -1 -96 28 -200 63 -105 36 -185 65
-180 65 6 1 96 -28 200 -63z m2015 14 l0 -50 -765 0 -765 0 0 50 0 50 765 0
765 0 0 -50z m515 29 c14 -6 9 -7 -15 -3 -19 4 -44 11 -55 15 -14 6 -9 7 15 3
19 -4 44 -11 55 -15z m140 -39 c33 -11 47 -17 30 -14 -16 2 -57 13 -90 24 -33
11 -46 17 -30 14 17 -2 57 -13 90 -24z m150 -41 c14 -6 9 -7 -15 -3 -19 4 -44
11 -55 15 -14 6 -9 7 15 3 19 -4 44 -11 55 -15z m110 -30 c14 -6 9 -7 -15 -3
-19 4 -44 11 -55 15 -14 6 -9 7 15 3 19 -4 44 -11 55 -15z m-915 -34 l0 -45
-765 0 -765 0 0 45 0 45 765 0 765 0 0 -45z m-1705 1 c55 -19 95 -35 90 -35
-6 -1 -56 14 -110 33 -55 19 -95 35 -90 35 6 1 56 -14 110 -33z m2756 -3 c54
-14 97 -28 95 -30 -4 -5 -198 46 -205 53 -8 8 11 4 110 -23z"/>
<path d="M16156 18261 c-18 -7 -18 -8 -3 -14 26 -10 25 -171 0 -186 -14 -8 -8
-10 27 -10 35 0 41 2 28 10 -15 8 -18 25 -18 109 0 55 -3 100 -7 99 -5 0 -17
-4 -27 -8z"/>
<path d="M16295 18250 c-26 -28 -25 -88 1 -107 11 -8 30 -12 47 -9 15 3 27 3
27 0 0 -16 -36 -64 -54 -73 -16 -7 -17 -10 -5 -10 23 -1 66 35 84 69 25 48 15
119 -19 142 -21 14 -63 8 -81 -12z m75 -10 c6 -12 10 -35 8 -53 -3 -28 -7 -32
-33 -32 -26 0 -31 5 -39 37 -7 27 -6 41 4 52 18 22 47 20 60 -4z"/>
<path d="M16496 18249 c-57 -45 -73 -125 -35 -173 39 -50 119 -17 119 50 0 37
-36 67 -71 60 -39 -7 -37 8 5 50 37 37 25 47 -18 13z m48 -110 c14 -41 0 -79
-29 -79 -28 0 -45 25 -45 68 0 36 8 44 39 40 17 -2 29 -12 35 -29z"/>
<path d="M16634 18249 c-15 -16 -19 -36 -19 -89 0 -78 19 -110 66 -110 41 0
64 40 64 110 0 70 -23 110 -64 110 -16 0 -36 -9 -47 -21z m71 1 c13 -21 17
-107 6 -147 -9 -32 -17 -43 -32 -43 -25 0 -39 36 -39 100 0 64 14 100 39 100
11 0 23 -4 26 -10z"/>
<path d="M19531 18257 c-8 -11 -5 -13 17 -9 41 6 60 -20 38 -53 -9 -14 -22
-25 -29 -25 -6 0 3 -9 21 -20 59 -36 36 -97 -32 -84 -24 4 -36 2 -36 -5 0 -20
78 -13 100 9 24 24 27 85 5 97 -12 7 -13 14 -3 40 9 25 9 35 -1 47 -16 19 -64
21 -80 3z"/>
<path d="M19697 18252 c-22 -24 -21 -34 3 -65 l21 -26 -21 -21 c-11 -11 -20
-28 -20 -38 0 -22 30 -52 51 -52 10 1 9 3 -3 11 -20 11 -25 73 -8 84 16 10 49
-14 56 -42 5 -19 2 -30 -11 -40 -17 -11 -17 -13 -2 -13 23 0 50 44 42 69 -3
12 -26 37 -51 57 -46 38 -55 66 -26 83 14 9 15 10 1 11 -9 0 -23 -8 -32 -18z"/>
<path d="M19766 18256 c17 -13 18 -18 7 -46 -9 -24 -9 -30 0 -27 7 2 16 15 21
30 11 29 -5 57 -32 57 -13 0 -12 -3 4 -14z"/>
<path d="M19855 18250 c-10 -11 -16 -22 -13 -25 3 -3 11 1 18 10 18 22 47 18
65 -9 21 -32 7 -68 -53 -129 l-47 -48 69 3 c43 2 71 8 73 15 3 9 -9 11 -48 6
l-53 -6 47 57 c49 60 61 108 35 134 -19 19 -73 14 -93 -8z"/>
<path d="M20034 18249 c-15 -16 -19 -36 -19 -89 0 -78 19 -110 66 -110 41 0
64 40 64 110 0 70 -23 110 -64 110 -16 0 -36 -9 -47 -21z m71 1 c13 -21 17
-107 6 -147 -9 -32 -17 -43 -32 -43 -25 0 -39 36 -39 100 0 64 14 100 39 100
11 0 23 -4 26 -10z"/>
<path d="M16631 17489 c-157 -62 -226 -251 -145 -399 57 -106 152 -156 275
-148 101 8 186 65 235 161 25 48 30 154 10 214 -50 149 -227 230 -375 172z
m191 -15 c58 -19 123 -74 150 -127 30 -59 35 -155 13 -214 -24 -63 -85 -126
-147 -153 -42 -18 -65 -21 -118 -18 -112 8 -195 71 -233 175 -74 206 127 408
335 337z"/>
<path d="M16711 17294 c-45 -63 -81 -124 -81 -135 0 -17 7 -19 70 -19 l70 0 0
-45 c0 -41 2 -45 25 -45 23 0 25 4 25 45 0 41 2 45 25 45 18 0 25 5 25 20 0
15 -7 20 -25 20 l-25 0 0 115 c0 93 -3 115 -14 115 -8 0 -51 -52 -95 -116z
m61 -37 c6 -78 4 -80 -66 -75 l-46 3 52 72 c28 40 52 72 54 70 1 -1 4 -33 6
-70z"/>
<path d="M21205 17841 c-36 -15 -58 -48 -51 -75 18 -71 199 -75 221 -6 8 27
-18 68 -51 80 -30 12 -91 12 -119 1z m154 -46 c15 -15 14 -18 -8 -36 -32 -26
-139 -27 -171 -1 -45 36 3 64 99 58 42 -3 69 -10 80 -21z"/>
<path d="M19815 17672 c-70 -23 -146 -100 -170 -171 -21 -64 -17 -169 9 -219
26 -50 85 -111 130 -134 59 -30 161 -36 226 -12 148 53 226 220 170 366 -55
147 -213 221 -365 170z m225 -38 c64 -35 102 -80 124 -146 54 -167 -55 -332
-229 -345 -119 -10 -212 45 -262 154 -48 104 -19 232 68 307 85 73 199 84 299
30z"/>
<path d="M19940 17565 c-42 -22 -43 -24 -17 -25 l27 0 0 -145 c0 -142 -1 -146
-22 -155 -17 -6 -5 -9 47 -9 52 0 64 3 48 9 -23 9 -23 12 -23 180 0 93 -3 170
-7 170 -5 -1 -28 -12 -53 -25z"/>
<path d="M21348 17628 l5 -51 -53 42 c-28 22 -62 44 -75 47 -32 8 -63 -11 -71
-43 -8 -30 2 -50 37 -72 24 -15 24 -15 7 5 -25 29 -23 71 3 79 34 11 68 -4
120 -52 l49 -46 0 66 c0 45 -4 66 -13 70 -11 4 -13 -6 -9 -45z"/>
<path d="M21348 17458 l4 -53 -39 36 c-45 44 -73 59 -106 59 -29 0 -57 -29
-57 -58 0 -24 32 -62 52 -62 7 0 6 5 -4 13 -26 21 -29 46 -8 67 11 11 26 20
33 20 18 0 97 -52 122 -79 16 -18 20 -20 25 -7 9 26 -1 116 -13 116 -8 0 -11
-18 -9 -52z"/>
<path d="M16975 14202 c-70 -23 -146 -100 -170 -171 -21 -64 -17 -169 9 -219
26 -50 85 -111 130 -134 59 -30 161 -36 226 -12 149 54 226 220 170 368 -55
146 -213 218 -365 168z m225 -38 c64 -35 102 -80 124 -146 54 -167 -55 -332
-229 -346 -82 -6 -144 15 -202 71 -61 58 -87 125 -81 207 6 80 33 136 89 184
85 73 199 84 299 30z"/>
<path d="M17058 14115 c-24 -14 -48 -43 -48 -60 0 -3 14 4 30 17 24 18 35 20
57 12 59 -20 49 -101 -15 -125 l-27 -11 40 -14 c22 -7 41 -14 41 -14 1 0 7
-13 14 -30 28 -68 -18 -114 -90 -90 -32 11 -43 11 -53 1 -16 -17 16 -41 55
-41 112 0 181 119 110 189 -28 28 -28 28 -9 54 54 71 -26 156 -105 112z"/>
<path d="M19855 13911 c-63 -17 -106 -41 -147 -84 -138 -142 -87 -383 97 -462
60 -26 158 -24 223 5 97 42 172 155 172 260 0 103 -75 218 -168 258 -56 24
-134 34 -177 23z m161 -36 c45 -18 112 -81 137 -129 17 -32 22 -58 22 -116 0
-88 -21 -136 -84 -193 -55 -50 -104 -69 -178 -69 -151 -1 -264 114 -263 266 2
188 191 312 366 241z"/>
<path d="M19885 13811 c-26 -11 -51 -40 -59 -68 -10 -30 1 -29 26 2 24 31 77
34 101 7 32 -35 22 -93 -26 -158 -24 -33 -60 -73 -80 -91 -20 -18 -37 -35 -37
-38 0 -3 47 -5 103 -5 101 0 104 1 115 25 18 39 14 47 -12 30 -17 -11 -42 -15
-82 -13 l-59 3 57 62 c66 71 88 110 88 153 0 44 -16 70 -55 86 -38 16 -51 16
-80 5z"/>
<path d="M21205 12841 c-36 -15 -58 -48 -51 -75 18 -71 199 -75 221 -6 8 27
-18 68 -51 80 -30 12 -91 12 -119 1z m154 -46 c15 -15 14 -18 -8 -36 -32 -26
-139 -27 -171 -1 -45 36 3 64 99 58 42 -3 69 -10 80 -21z"/>
<path d="M21175 12655 c-32 -31 -32 -58 1 -84 74 -58 218 -19 200 53 -9 35
-54 56 -121 56 -46 0 -60 -4 -80 -25z m180 -21 c9 -9 14 -21 12 -28 -15 -46
-207 -38 -207 9 0 24 32 34 107 35 53 0 76 -4 88 -16z"/>
<path d="M21167 12492 c-35 -38 -9 -102 40 -102 11 0 40 22 66 50 48 52 66 60
87 35 30 -36 -11 -77 -60 -58 -33 12 -41 0 -11 -17 29 -15 56 -12 74 8 21 23
22 51 1 80 -19 28 -53 28 -87 2 l-26 -21 -21 21 c-25 25 -42 25 -63 2z m70
-28 c8 -21 -30 -59 -51 -51 -20 8 -30 32 -22 52 7 20 65 20 73 -1z"/>
<path d="M21261 12334 c-18 -13 -22 -24 -19 -50 2 -19 2 -34 0 -34 -20 0 -66
38 -77 63 -12 26 -14 28 -15 10 0 -26 42 -79 81 -98 78 -41 175 18 139 85 -11
20 -47 40 -73 40 -7 0 -23 -7 -36 -16z m103 -37 c9 -15 7 -22 -13 -38 -56 -46
-134 -4 -85 46 22 21 83 16 98 -8z"/>
<path d="M16745 11290 c-10 -11 -16 -22 -13 -25 3 -3 11 1 18 10 17 20 43 19
64 -4 25 -28 11 -67 -47 -128 l-50 -53 66 0 c56 0 68 3 77 20 10 18 9 19 -15
10 -15 -6 -40 -10 -56 -10 l-30 0 45 56 c48 58 60 106 34 132 -19 19 -73 14
-93 -8z"/>
<path d="M16915 11290 c-26 -28 -25 -88 1 -107 11 -8 30 -12 47 -9 15 3 27 3
27 0 0 -16 -36 -64 -54 -73 -16 -7 -17 -10 -5 -10 23 -1 66 35 84 69 25 48 15
119 -19 142 -21 14 -63 8 -81 -12z m75 -10 c6 -12 10 -35 8 -53 -3 -28 -7 -32
-33 -32 -26 0 -31 5 -39 37 -7 27 -6 41 4 52 18 22 47 20 60 -4z"/>
<path d="M17082 11298 c-17 -17 -15 -49 4 -76 15 -21 15 -25 0 -41 -19 -21
-21 -62 -4 -79 7 -7 27 -12 44 -12 60 0 84 53 43 96 l-21 23 21 27 c11 15 21
30 21 35 0 14 -31 39 -48 39 -15 -1 -15 -2 1 -11 21 -12 22 -52 3 -68 -12 -10
-19 -8 -35 8 -26 26 -27 47 -3 60 14 9 14 10 2 11 -9 0 -21 -5 -28 -12z m67
-132 c30 -32 24 -60 -13 -64 -31 -4 -46 10 -46 44 0 19 17 44 30 44 4 0 17
-11 29 -24z"/>
<path d="M17254 11289 c-15 -16 -19 -36 -19 -89 0 -78 19 -110 66 -110 41 0
64 40 64 110 0 70 -23 110 -64 110 -16 0 -36 -9 -47 -21z m71 1 c13 -21 17
-107 6 -147 -9 -32 -17 -43 -32 -43 -25 0 -39 36 -39 100 0 64 14 100 39 100
11 0 23 -4 26 -10z"/>
<path d="M20035 11290 c-10 -11 -16 -22 -13 -25 3 -3 11 1 18 10 17 20 43 19
64 -4 25 -28 11 -67 -47 -128 l-50 -53 66 0 c56 0 68 3 77 20 10 18 9 19 -15
10 -15 -6 -40 -10 -56 -10 l-30 0 45 56 c48 58 60 106 34 132 -19 19 -73 14
-93 -8z"/>
<path d="M20200 11291 c-14 -26 -13 -38 2 -23 7 7 31 12 54 12 l43 0 -31 -91
c-17 -49 -27 -93 -24 -96 9 -9 10 -6 49 110 l36 107 -59 0 c-48 0 -61 -4 -70
-19z"/>
<path d="M20374 11283 c-12 -19 -18 -46 -18 -83 0 -69 24 -110 64 -110 44 0
70 40 70 110 0 43 -5 64 -21 84 -28 36 -71 35 -95 -1z m76 -2 c5 -11 10 -47
10 -81 0 -34 -5 -70 -10 -81 -16 -29 -48 -24 -57 9 -11 40 -6 141 7 158 17 20
37 18 50 -5z"/>
<path d="M20544 11289 c-15 -16 -19 -36 -19 -89 0 -78 19 -110 66 -110 41 0
64 40 64 110 0 70 -23 110 -64 110 -16 0 -36 -9 -47 -21z m71 1 c13 -21 17
-107 6 -147 -9 -32 -17 -43 -32 -43 -25 0 -39 36 -39 100 0 64 14 100 39 100
11 0 23 -4 26 -10z"/>
<path d="M15630 17695 c0 -30 5 -37 41 -55 23 -12 42 -20 43 -18 1 2 9 20 19
40 19 42 52 57 87 38 19 -10 21 -17 16 -52 -5 -30 -3 -39 6 -36 27 9 21 57
-11 88 -47 48 -104 35 -131 -30 -10 -24 -15 -28 -26 -19 -8 6 -14 27 -14 45 0
24 -5 34 -15 34 -10 0 -15 -11 -15 -35z"/>
<path d="M15685 17571 c-36 -15 -58 -48 -51 -75 18 -71 199 -75 221 -6 8 27
-18 68 -51 80 -30 12 -91 12 -119 1z m154 -46 c15 -15 14 -18 -8 -36 -32 -26
-139 -27 -171 -1 -45 36 3 64 99 58 42 -3 69 -10 80 -21z"/>
<path d="M15647 17382 c-34 -38 -9 -102 39 -102 11 0 42 23 68 50 51 53 66 59
86 35 30 -36 -11 -77 -60 -58 -33 12 -41 0 -11 -17 29 -15 56 -12 74 8 21 23
22 51 1 80 -19 28 -53 28 -87 2 l-26 -21 -21 21 c-25 25 -42 25 -63 2z m70
-28 c8 -21 -30 -59 -51 -51 -20 8 -30 32 -22 52 7 20 65 20 73 -1z"/>
<path d="M15630 17183 c1 -5 7 -19 15 -33 11 -19 14 -21 15 -7 0 15 11 17 90
17 74 0 91 -3 100 -17 11 -17 11 -17 6 0 -3 10 -6 25 -6 33 0 11 -22 14 -110
14 -60 0 -110 -3 -110 -7z"/>
<path d="M15685 13611 c-36 -15 -58 -48 -51 -75 18 -71 199 -75 221 -6 8 27
-18 68 -51 80 -30 12 -91 12 -119 1z m154 -46 c15 -15 14 -18 -8 -36 -32 -26
-139 -27 -171 -1 -45 36 3 64 99 58 42 -3 69 -10 80 -21z"/>
<path d="M15655 13425 c-32 -31 -32 -58 1 -84 74 -58 218 -19 200 53 -9 35
-54 56 -121 56 -46 0 -60 -4 -80 -25z m180 -21 c9 -9 14 -21 12 -28 -15 -46
-207 -38 -207 9 0 24 32 34 107 35 53 0 76 -4 88 -16z"/>
<path d="M15770 13275 c0 -12 -14 -15 -70 -15 -38 0 -70 -4 -70 -9 0 -10 144
-111 159 -111 6 0 11 19 11 45 0 41 2 45 25 45 16 0 25 6 25 15 0 9 -9 15 -25
15 -16 0 -25 6 -25 15 0 8 -7 15 -15 15 -8 0 -15 -7 -15 -15z m0 -80 l0 -36
-45 31 c-25 17 -45 33 -45 35 0 3 20 5 45 5 45 0 45 0 45 -35z"/>
<path d="M15760 13102 c-24 -8 -52 -35 -61 -60 -13 -34 -33 -22 -37 21 -4 48
-32 52 -32 4 0 -29 5 -36 45 -55 43 -21 45 -21 45 -3 0 31 39 71 70 71 38 0
54 -22 46 -65 -8 -40 10 -50 20 -11 12 50 -50 114 -96 98z"/>
<path d="M16537 9446 c-144 -40 -237 -188 -207 -331 32 -153 185 -256 335
-225 152 32 256 185 225 334 -33 162 -198 266 -353 222z m186 -38 c126 -54
185 -212 127 -345 -68 -158 -279 -208 -410 -96 -78 67 -110 168 -85 266 26
100 88 165 186 191 62 17 113 13 182 -16z"/>
<path d="M16582 9285 c-18 -36 -32 -67 -32 -69 0 -2 18 -6 39 -10 76 -12 125
-78 101 -137 -17 -40 -59 -55 -100 -34 -26 13 -34 14 -47 4 -13 -12 -12 -15 7
-31 29 -23 61 -23 110 2 45 23 72 67 72 118 0 45 -27 81 -83 110 -24 12 -44
27 -43 32 1 6 2 15 3 20 0 6 26 10 56 10 43 0 56 4 65 19 16 30 14 31 -53 31
l-63 0 -32 -65z"/>
<path d="M3717 9043 c-4 -3 -20 -6 -37 -5 -29 1 -30 0 -29 -46 0 -26 3 -40 6
-32 11 30 57 70 89 76 61 11 124 -49 124 -120 0 -24 -3 -25 -62 -29 l-63 -3
63 -2 c60 -2 62 -3 62 -28 0 -98 -102 -155 -186 -103 -19 11 -34 18 -34 15 0
-18 70 -46 115 -46 95 0 155 62 155 161 0 65 -24 109 -79 146 -33 22 -109 32
-124 16z"/>
<path d="M8740 9022 c0 -20 38 -42 71 -42 34 0 78 29 79 53 0 17 -29 5 -44
-18 -9 -14 -25 -25 -36 -25 -12 0 -25 10 -32 25 -13 29 -38 33 -38 7z"/>
<path d="M3968 8930 c20 -9 22 -16 22 -92 0 -86 -4 -101 -30 -111 -8 -3 12 -5
45 -6 46 0 55 2 38 9 -19 8 -23 17 -23 55 0 62 21 59 60 -10 28 -48 35 -55 63
-55 27 0 29 2 15 13 -9 6 -32 35 -50 63 -33 49 -34 51 -18 80 11 19 25 29 41
29 15 0 25 7 27 18 2 12 -3 17 -17 17 -22 0 -30 -7 -64 -60 -12 -19 -30 -36
-40 -38 -14 -3 -17 4 -17 38 0 33 4 42 23 50 17 7 8 9 -38 9 -46 0 -55 -2 -37
-9z"/>
<path d="M4244 8925 c-50 -34 -57 -134 -13 -181 34 -36 89 -33 123 7 14 17 26
35 26 41 0 6 -9 -1 -21 -16 -38 -49 -95 -29 -120 42 -15 44 4 100 37 108 33 8
54 -2 54 -26 0 -13 7 -20 20 -20 26 0 27 36 1 50 -28 15 -83 12 -107 -5z"/>
<path d="M4428 8930 c20 -9 22 -16 22 -92 0 -86 -4 -101 -30 -111 -8 -3 10 -6
40 -6 42 0 51 2 38 10 -15 8 -18 25 -18 104 l0 95 50 0 50 0 0 -95 c0 -79 -3
-96 -17 -104 -14 -8 -5 -10 37 -10 30 1 47 3 38 6 -16 4 -18 18 -18 103 0 85
2 99 18 103 9 3 -39 5 -108 5 -84 1 -118 -2 -102 -8z"/>
<path d="M4713 8933 c16 -4 17 -15 15 -96 -2 -54 -7 -91 -13 -90 -5 1 -18 5
-27 8 -14 5 -18 2 -18 -14 0 -15 6 -21 24 -21 37 0 48 24 54 120 l5 90 33 0
34 0 0 -99 c0 -95 -1 -100 -22 -104 -13 -2 4 -5 37 -5 45 -1 56 1 43 9 -15 8
-18 25 -18 99 0 74 3 91 18 99 12 8 -11 10 -83 10 -55 -1 -92 -3 -82 -6z"/>
<path d="M4938 8930 c20 -9 22 -16 22 -92 0 -86 -4 -101 -30 -111 -8 -3 10 -6
40 -6 42 0 51 2 38 10 -27 15 -22 29 32 89 l49 55 1 -67 c0 -54 -4 -69 -17
-77 -14 -8 -5 -10 37 -10 30 1 47 3 38 6 -16 4 -18 18 -18 103 0 85 2 99 18
103 9 3 -8 5 -38 6 -42 0 -51 -2 -37 -10 26 -16 21 -31 -33 -90 l-49 -54 -1
67 c0 54 4 69 18 77 13 8 4 10 -38 10 -43 0 -50 -2 -32 -9z"/>
<path d="M5208 8930 c20 -9 22 -16 22 -92 0 -86 -4 -101 -30 -111 -8 -3 12 -5
45 -6 46 0 55 2 38 9 -19 8 -23 17 -23 55 0 62 21 59 60 -10 28 -48 35 -55 63
-55 27 0 29 2 15 13 -9 6 -32 35 -50 63 -33 49 -34 51 -18 80 11 19 25 29 41
29 15 0 25 7 27 18 2 12 -3 17 -17 17 -22 0 -30 -7 -64 -60 -12 -19 -30 -36
-40 -38 -14 -3 -17 4 -17 38 0 33 4 42 23 50 17 7 8 9 -38 9 -46 0 -55 -2 -37
-9z"/>
<path d="M5455 8920 c-9 -10 -15 -26 -12 -35 10 -24 24 -17 31 16 5 27 9 30
38 27 29 -3 33 -7 36 -33 3 -28 -1 -32 -47 -52 -60 -25 -81 -58 -63 -98 14
-30 50 -33 87 -9 23 15 25 15 31 0 9 -23 38 -20 60 6 12 14 13 18 3 10 -24
-18 -29 -5 -29 79 0 93 -11 109 -74 109 -30 0 -48 -6 -61 -20z m95 -115 c0
-39 -4 -47 -25 -57 -57 -26 -78 48 -22 82 17 11 35 20 40 20 4 0 7 -20 7 -45z"/>
<path d="M5658 8930 c20 -9 22 -16 22 -92 0 -86 -4 -101 -30 -111 -8 -3 30 -6
86 -6 100 -1 125 -8 137 -41 3 -8 6 0 6 18 1 22 -4 32 -14 32 -12 0 -15 18
-15 99 0 86 2 100 18 104 9 3 -8 5 -38 5 -30 0 -47 -2 -37 -5 16 -4 17 -15 15
-101 l-3 -97 -45 0 -45 0 -3 90 c-2 76 0 92 14 102 15 11 10 13 -37 12 -42 0
-49 -2 -31 -9z"/>
<path d="M5928 8930 c20 -9 22 -16 22 -92 0 -86 -4 -101 -30 -111 -8 -3 10 -6
40 -6 42 0 51 2 38 10 -27 15 -22 29 32 89 l49 55 1 -67 c0 -54 -4 -69 -17
-77 -14 -8 -5 -10 37 -10 30 1 47 3 38 6 -16 4 -18 18 -18 103 0 85 2 99 18
103 9 3 -8 5 -38 6 -42 0 -51 -2 -37 -10 26 -16 21 -31 -33 -90 l-49 -54 -1
67 c0 54 4 69 18 77 13 8 4 10 -38 10 -43 0 -50 -2 -32 -9z"/>
<path d="M6223 8928 c-43 -20 -38 -79 8 -93 20 -7 19 -7 -7 -43 -15 -21 -36
-45 -46 -54 -20 -18 -20 -18 8 -18 24 0 35 10 62 50 34 53 62 65 62 28 0 -39
-11 -67 -29 -71 -9 -3 9 -5 39 -6 42 0 51 2 38 10 -15 8 -18 25 -18 99 0 74 3
91 18 99 24 15 -105 13 -135 -1z m85 -42 c4 -48 -8 -62 -39 -45 -44 22 -48 40
-18 70 31 31 53 21 57 -25z"/>
<path d="M6538 8930 c20 -9 22 -16 22 -92 0 -86 -4 -101 -30 -111 -8 -3 10 -6
40 -6 42 0 51 2 38 10 -15 8 -18 25 -18 104 l0 95 50 0 50 0 0 -95 c0 -79 -3
-96 -17 -104 -14 -8 -5 -10 37 -10 30 1 47 3 38 6 -16 4 -18 18 -18 103 0 85
2 99 18 103 9 3 -39 5 -108 5 -84 1 -118 -2 -102 -8z"/>
<path d="M6835 8916 c-69 -69 -28 -196 63 -196 99 0 144 117 74 193 -35 37
-101 38 -137 3z m99 -1 c25 -26 40 -88 30 -130 -25 -104 -124 -53 -124 62 0
69 54 108 94 68z"/>
<path d="M7048 8930 c20 -9 22 -16 22 -92 0 -86 -4 -101 -30 -111 -8 -3 5 -6
30 -6 35 0 41 2 28 10 -15 8 -18 24 -17 92 0 92 -3 95 57 -42 l28 -64 39 94
40 94 3 -80 c2 -66 0 -82 -14 -92 -15 -11 -10 -13 37 -12 30 1 46 3 37 6 -18
4 -20 14 -20 98 0 93 2 104 20 108 9 3 -1 5 -22 4 -39 -2 -40 -3 -69 -72 -16
-38 -32 -73 -36 -78 -4 -4 -22 29 -40 73 l-33 80 -42 -1 c-35 0 -37 -2 -18 -9z"/>
<path d="M7393 8925 c-51 -36 -54 -147 -6 -185 46 -36 105 -25 130 24 l16 31
-25 -22 c-13 -13 -34 -23 -46 -23 -31 0 -71 40 -78 78 l-6 32 76 0 c67 0 76 2
76 18 0 10 -9 28 -20 40 -25 26 -85 30 -117 7z m81 -17 c24 -34 20 -38 -39
-38 -30 0 -55 3 -55 8 0 20 34 52 55 52 13 0 31 -10 39 -22z"/>
<path d="M7578 8930 c20 -9 22 -16 22 -92 0 -86 -4 -101 -30 -111 -8 -3 57 -6
146 -6 169 -1 180 -4 197 -51 3 -8 6 1 6 21 1 29 -3 38 -19 42 -18 5 -20 14
-20 96 0 75 3 92 18 100 13 8 6 10 -32 11 -43 0 -47 -2 -32 -13 14 -10 16 -26
14 -102 l-3 -90 -40 0 -40 0 -3 97 c-2 86 -1 97 15 101 10 3 -7 5 -37 5 -30 0
-47 -2 -37 -5 16 -4 17 -15 15 -101 l-3 -97 -40 0 -40 0 -3 90 c-2 76 0 92 14
102 15 11 10 13 -37 12 -42 0 -49 -2 -31 -9z"/>
<path d="M7993 8925 c-51 -36 -54 -147 -6 -185 46 -36 105 -25 130 24 l16 31
-25 -22 c-13 -13 -34 -23 -46 -23 -31 0 -71 40 -78 78 l-6 32 76 0 c67 0 76 2
76 18 0 10 -9 28 -20 40 -25 26 -85 30 -117 7z m81 -17 c24 -34 20 -38 -39
-38 -30 0 -55 3 -55 8 0 20 34 52 55 52 13 0 31 -10 39 -22z"/>
<path d="M8178 8930 c20 -9 22 -16 22 -92 0 -86 -4 -101 -30 -111 -8 -3 10 -6
40 -6 42 0 51 2 38 10 -13 7 -18 23 -18 54 l0 45 50 0 50 0 0 -45 c0 -31 -5
-47 -17 -54 -14 -8 -5 -10 37 -10 30 1 47 3 38 6 -16 4 -18 18 -18 103 0 85 2
99 18 103 9 3 -8 5 -38 5 -30 0 -47 -2 -37 -5 13 -3 17 -15 17 -49 l0 -44 -50
0 -50 0 0 40 c0 27 6 42 18 49 13 8 4 10 -38 10 -43 0 -50 -2 -32 -9z"/>
<path d="M8438 8930 c20 -9 22 -16 22 -92 0 -86 -4 -101 -30 -111 -8 -3 10 -6
40 -6 42 0 51 2 38 10 -27 15 -22 29 32 89 l49 55 1 -67 c0 -54 -4 -69 -17
-77 -14 -8 -5 -10 37 -10 30 1 47 3 38 6 -16 4 -18 18 -18 103 0 85 2 99 18
103 9 3 -8 5 -38 6 -42 0 -51 -2 -37 -10 26 -16 21 -31 -33 -90 l-49 -54 -1
67 c0 54 4 69 18 77 13 8 4 10 -38 10 -43 0 -50 -2 -32 -9z"/>
<path d="M8708 8930 c20 -9 22 -16 22 -92 0 -86 -4 -101 -30 -111 -8 -3 10 -6
40 -6 42 0 51 2 38 10 -27 15 -22 29 32 89 l49 55 1 -67 c0 -54 -4 -69 -17
-77 -14 -8 -5 -10 37 -10 30 1 47 3 38 6 -16 4 -18 18 -18 103 0 85 2 99 18
103 9 3 -8 5 -38 6 -42 0 -51 -2 -37 -10 26 -16 21 -31 -33 -90 l-49 -54 -1
67 c0 54 4 69 18 77 13 8 4 10 -38 10 -43 0 -50 -2 -32 -9z"/>
<path d="M1497 8383 c-4 -3 -7 -1585 -7 -3515 l0 -3508 3973 -2 c2184 -2 4349
-2 4810 0 l837 2 0 3515 0 3515 -4803 0 c-2642 0 -4807 -3 -4810 -7z m1243
-843 l0 -830 -615 0 -615 0 0 830 0 830 615 0 615 0 0 -830z m6680 0 l0 -830
-3330 0 -3330 0 0 823 c0 453 3 827 7 830 3 4 1502 7 3330 7 l3323 0 0 -830z
m1670 0 l0 -830 -825 0 -825 0 0 823 c0 453 3 827 7 830 3 4 375 7 825 7 l818
0 0 -830z m0 -1835 l0 -995 -825 0 -825 0 0 671 c0 444 -3 668 -10 664 -7 -4
-10 -238 -10 -671 l0 -664 -3330 0 -3330 0 0 671 c0 444 -3 668 -10 664 -7 -4
-10 -238 -10 -671 l0 -664 -615 0 -615 0 0 995 0 995 4790 0 4790 0 0 -995z
m-8350 -1335 l0 -330 -615 0 -615 0 0 330 0 330 615 0 615 0 0 -330z m6680 0
l0 -330 -3330 0 -3330 0 0 330 0 330 3330 0 3330 0 0 -330z m1670 0 l0 -330
-825 0 -825 0 0 330 0 330 825 0 825 0 0 -330z m-8350 -670 l0 -330 -615 0
-615 0 0 330 0 330 615 0 615 0 0 -330z m6680 0 l0 -330 -3330 0 -3330 0 0
330 0 330 3330 0 3330 0 0 -330z m1670 0 l0 -330 -825 0 -825 0 0 330 0 330
825 0 825 0 0 -330z m-8350 -676 c0 -230 3 -335 11 -332 7 2 10 111 9 336 l-1
332 3331 0 3330 0 0 -995 0 -995 -3955 0 -3955 0 0 995 0 995 615 0 615 0 0
-336z m8350 -659 l0 -995 -825 0 -825 0 0 995 0 995 825 0 825 0 0 -995z"/>
<path d="M1668 7903 c3 -93 1 -109 -14 -120 -15 -11 -11 -13 32 -13 38 1 45 3
32 11 -13 7 -18 23 -18 60 l0 50 58 -3 c55 -3 57 -4 60 -32 5 -41 -5 -74 -26
-79 -9 -3 8 -5 38 -5 30 0 47 2 37 5 -16 4 -18 16 -15 119 l3 114 -29 0 c-23
0 -27 -3 -18 -12 7 -7 12 -31 12 -55 l0 -43 -61 0 -61 0 4 55 c3 50 1 55 -17
55 -19 0 -20 -6 -17 -107z"/>
<path d="M1935 7915 c-49 -48 -18 -145 46 -145 44 0 66 15 78 53 28 85 -64
153 -124 92z m79 -7 c16 -23 21 -83 10 -112 -8 -20 -48 -21 -64 -1 -21 26 -25
99 -5 118 22 23 41 21 59 -5z"/>
<path d="M2395 7928 c45 -26 40 -48 -11 -48 -36 0 -44 15 -21 40 6 8 2 6 -10
-4 -30 -25 -33 -104 -4 -130 27 -25 79 -18 100 13 l16 25 -28 -19 c-27 -18
-29 -18 -55 2 -15 11 -28 30 -30 42 -3 19 1 21 52 21 49 0 56 3 56 19 0 23
-36 51 -65 51 -20 -1 -20 -1 0 -12z"/>
<path d="M2510 7933 c-13 -3 -14 -22 -12 -115 3 -85 1 -113 -10 -119 -8 -6 3
-9 32 -9 35 1 41 3 28 11 -11 6 -18 22 -18 42 0 32 1 32 39 29 34 -3 42 0 57
24 24 36 24 96 0 123 -23 25 -44 27 -73 6 -17 -12 -22 -12 -25 -2 -2 7 -10 11
-18 10z m98 -56 c10 -22 11 -35 2 -62 -10 -29 -16 -35 -40 -35 -16 0 -30 7
-34 16 -10 27 -7 89 6 102 20 20 52 10 66 -21z"/>
<path d="M2110 7856 c0 -50 -4 -76 -12 -79 -7 -3 3 -6 22 -6 22 0 30 2 22 8
-9 5 -12 25 -10 62 l3 54 25 -62 c13 -35 28 -59 31 -55 4 4 19 34 33 67 l25
60 1 -62 c0 -40 -4 -63 -12 -66 -7 -3 5 -6 27 -6 26 0 35 2 27 8 -10 6 -13 28
-10 80 3 62 1 71 -15 71 -11 0 -26 -19 -43 -57 l-26 -58 -25 58 c-18 40 -31
57 -44 57 -17 0 -19 -8 -19 -74z"/>
<path d="M1884 7496 c-33 -28 -38 -79 -11 -120 25 -37 87 -37 116 0 29 37 27
89 -4 119 -31 31 -66 32 -101 1z m62 6 c45 -30 43 -142 -3 -142 -32 0 -53 31
-53 80 0 58 23 84 56 62z"/>
<path d="M2345 7508 c45 -26 40 -48 -11 -48 -36 0 -44 15 -21 40 6 8 2 6 -10
-4 -30 -25 -33 -104 -4 -130 27 -25 79 -18 100 13 l16 25 -28 -19 c-27 -18
-29 -18 -55 2 -15 11 -28 30 -30 42 -3 19 1 21 52 21 49 0 56 3 56 19 0 23
-36 51 -65 51 -20 -1 -20 -1 0 -12z"/>
<path d="M1670 7436 c0 -50 -4 -76 -12 -79 -7 -3 5 -6 27 -6 30 -1 36 2 27 11
-16 16 -16 135 1 141 6 3 0 6 -15 6 l-28 1 0 -74z"/>
<path d="M1778 7447 c3 -49 0 -68 -13 -80 -15 -16 -13 -17 26 -17 38 0 41 2
25 13 -15 11 -17 25 -14 80 2 54 0 67 -12 67 -12 0 -14 -12 -12 -63z"/>
<path d="M2058 7439 c3 -52 0 -74 -10 -80 -9 -6 -3 -8 17 -8 17 0 24 3 18 6
-9 3 -13 26 -12 66 l0 62 33 -70 32 -69 24 59 c32 84 40 88 40 22 0 -43 -4
-58 -17 -66 -14 -8 -9 -10 25 -11 41 0 42 1 27 17 -14 13 -16 30 -13 80 3 53
1 63 -12 63 -11 0 -26 -21 -42 -57 l-25 -58 -26 58 c-18 39 -32 57 -44 57 -16
0 -18 -8 -15 -71z"/>
<path d="M2440 7436 c0 -12 11 -16 46 -16 59 0 55 24 -4 28 -33 2 -42 0 -42
-12z"/>
<path d="M1638 7091 c10 -6 13 -28 10 -80 l-3 -71 92 0 c101 0 139 -10 146
-37 3 -12 5 -8 6 10 0 15 -3 27 -9 27 -15 0 -13 147 3 153 6 3 -6 6 -27 6 -31
1 -37 -2 -28 -11 7 -7 12 -39 12 -75 l0 -63 -35 0 -35 0 0 69 c0 46 4 71 13
74 6 3 -6 5 -28 5 -22 0 -34 -2 -27 -5 8 -3 12 -28 12 -74 l0 -69 -30 0 -30 0
0 69 c0 46 4 71 13 74 6 3 -6 6 -28 6 -26 0 -35 -2 -27 -8z"/>
<path d="M1936 7078 c-9 -12 -16 -42 -16 -65 0 -73 63 -108 108 -60 25 26 30
47 6 23 -34 -34 -94 -4 -94 46 0 15 9 18 55 18 41 0 55 4 55 14 0 46 -86 64
-114 24z m74 -8 c10 -18 8 -20 -30 -20 -41 0 -49 7 -28 28 18 18 46 14 58 -8z"/>
<path d="M2088 7093 c8 -3 12 -29 12 -79 0 -64 2 -74 18 -74 13 0 17 8 17 37
0 37 1 38 35 38 34 0 35 -1 34 -37 -1 -29 3 -38 15 -38 13 0 15 11 13 67 -3
55 -1 69 14 80 16 11 12 13 -27 13 -35 -1 -40 -3 -26 -11 9 -5 17 -21 17 -34
0 -22 -4 -25 -40 -25 -35 0 -40 3 -40 23 0 13 5 28 12 35 9 9 3 12 -27 11 -22
0 -34 -3 -27 -6z"/>
<path d="M2288 7091 c10 -6 13 -28 10 -80 -3 -67 -2 -71 19 -71 15 0 20 5 17
18 -2 10 11 34 32 57 l36 40 -4 -58 c-3 -52 -1 -57 17 -57 18 0 20 5 17 71 -3
52 0 74 10 80 8 6 -1 8 -27 8 -22 0 -34 -3 -27 -6 20 -8 14 -25 -23 -67 l-35
-39 0 51 c0 31 5 52 13 55 6 3 -6 6 -28 6 -26 0 -35 -2 -27 -8z"/>
<path d="M2496 7081 c-14 -15 -15 -24 -7 -39 6 -11 16 -22 23 -24 9 -3 4 -16
-15 -41 -24 -32 -26 -37 -10 -37 10 0 29 16 42 35 30 45 44 45 39 0 -3 -29 -1
-35 14 -35 16 0 18 9 18 74 0 50 4 76 13 79 6 3 -13 6 -44 6 -43 1 -60 -3 -73
-18z m74 -27 c0 -28 -4 -35 -16 -32 -40 8 -44 68 -4 68 16 0 20 -6 20 -36z"/>
<path d="M4630 7703 c34 -12 40 -36 40 -158 0 -122 -6 -146 -40 -158 -8 -3 19
-5 60 -5 46 0 65 3 50 7 -23 6 -25 12 -28 79 l-3 72 76 0 75 0 0 -70 c0 -64
-2 -72 -22 -80 -17 -6 -5 -9 47 -9 52 0 64 3 48 9 -22 9 -23 13 -23 153 0 139
1 144 23 155 18 9 9 11 -48 11 -57 0 -66 -2 -47 -11 20 -10 22 -18 22 -80 l0
-68 -75 0 -75 0 0 64 c0 56 3 67 22 80 21 15 19 16 -47 15 -39 0 -63 -3 -55
-6z"/>
<path d="M5033 7595 c-25 -11 -33 -20 -33 -40 0 -35 26 -32 39 5 17 52 71 37
71 -19 0 -10 -13 -22 -34 -29 -54 -20 -86 -50 -86 -81 0 -15 5 -32 12 -39 16
-16 59 -15 85 3 19 13 22 13 27 0 8 -21 40 -19 60 4 17 19 17 19 -3 14 -20 -5
-21 -2 -21 74 0 48 -5 85 -12 95 -19 23 -68 30 -105 13z m77 -128 c0 -37 -4
-46 -26 -56 -58 -26 -77 45 -21 79 17 11 35 20 40 20 4 0 7 -20 7 -43z"/>
<path d="M5855 7601 c-43 -18 -60 -50 -60 -112 0 -49 4 -62 25 -83 24 -23 43
-30 83 -27 22 1 67 45 67 65 0 11 -7 8 -25 -9 -38 -39 -82 -29 -110 25 -28 55
-23 60 60 60 61 0 75 3 75 16 0 28 -19 52 -51 63 -36 13 -37 13 -64 2z m53
-23 c7 -7 12 -20 12 -30 0 -15 -9 -18 -50 -18 -54 0 -58 4 -34 38 17 24 53 29
72 10z"/>
<path d="M6343 7595 c-75 -32 -86 -157 -17 -201 84 -56 186 34 155 137 -18 61
-80 89 -138 64z m71 -24 c45 -50 38 -165 -10 -177 -61 -15 -111 108 -70 171
20 30 56 33 80 6z"/>
<path d="M6793 7595 c-25 -11 -33 -20 -33 -40 0 -35 26 -32 39 5 17 52 71 37
71 -19 0 -10 -13 -22 -34 -29 -54 -20 -86 -50 -86 -81 0 -15 5 -32 12 -39 16
-16 59 -15 85 3 19 13 22 13 27 0 8 -21 40 -19 60 4 17 19 17 19 -3 14 -20 -5
-21 -2 -21 74 0 48 -5 85 -12 95 -19 23 -68 30 -105 13z m77 -128 c0 -37 -4
-46 -26 -56 -58 -26 -77 45 -21 79 17 11 35 20 40 20 4 0 7 -20 7 -43z"/>
<path d="M7555 7601 c-43 -18 -60 -50 -60 -112 0 -49 4 -62 25 -83 24 -23 43
-30 83 -27 22 1 67 45 67 65 0 11 -7 8 -25 -9 -38 -39 -82 -29 -110 25 -28 55
-23 60 60 60 61 0 75 3 75 16 0 28 -19 52 -51 63 -36 13 -37 13 -64 2z m53
-23 c7 -7 12 -20 12 -30 0 -15 -9 -18 -50 -18 -54 0 -58 4 -34 38 17 24 53 29
72 10z"/>
<path d="M5210 7593 c25 -10 30 -25 30 -93 0 -80 -7 -108 -29 -113 -9 -3 8 -5
37 -6 49 -1 52 0 38 15 -9 8 -16 18 -16 22 0 4 23 32 50 62 l49 55 1 -67 c0
-53 -4 -69 -17 -77 -14 -8 -5 -10 37 -10 42 0 51 2 38 10 -15 8 -18 25 -18 99
0 74 3 91 18 99 13 8 4 10 -38 10 -42 0 -51 -2 -37 -10 26 -15 21 -29 -33 -89
l-49 -55 -1 68 c0 61 2 69 23 77 17 7 8 9 -38 9 -33 -1 -53 -3 -45 -6z"/>
<path d="M5480 7593 c25 -10 30 -25 30 -93 0 -80 -7 -108 -29 -113 -9 -3 4 -5
28 -6 39 -1 42 1 27 12 -14 10 -16 26 -14 91 l3 78 39 -92 c21 -50 42 -88 46
-83 4 4 22 46 41 92 l34 85 3 -79 c2 -66 0 -82 -14 -92 -15 -11 -10 -13 37
-12 30 1 46 3 37 6 -16 4 -18 18 -18 103 0 85 2 99 18 103 9 3 0 5 -21 6 -37
1 -39 -1 -64 -56 -14 -32 -30 -69 -35 -83 -9 -23 -12 -19 -45 58 l-35 82 -42
-1 c-22 0 -34 -3 -26 -6z"/>
<path d="M6010 7593 c25 -10 30 -25 30 -93 0 -80 -7 -108 -29 -113 -9 -3 11
-5 44 -5 33 0 52 2 43 5 -20 5 -31 38 -26 74 3 21 9 24 51 27 l47 3 0 -45 c0
-32 -5 -48 -17 -55 -14 -8 -5 -10 37 -10 42 0 51 2 38 10 -15 8 -18 25 -18 99
0 74 3 91 18 99 13 8 4 10 -38 10 -42 0 -51 -2 -37 -10 11 -7 17 -22 17 -49
l0 -40 -50 0 -50 0 0 40 c0 33 4 42 23 50 17 7 8 9 -38 9 -33 -1 -53 -3 -45
-6z"/>
<path d="M6520 7593 c25 -10 30 -25 30 -93 0 -80 -7 -108 -29 -113 -9 -3 18
-5 59 -6 96 -1 125 13 125 59 0 25 -6 37 -22 45 -21 11 -21 11 -2 23 26 16 24
57 -3 76 -16 11 -45 16 -98 15 -41 0 -68 -3 -60 -6z m114 -13 c47 -17 23 -80
-30 -80 -21 0 -24 4 -24 38 0 54 8 60 54 42z m14 -106 c29 -20 26 -54 -6 -70
-40 -20 -62 -7 -62 35 0 21 3 41 7 44 11 12 38 8 61 -9z"/>
<path d="M6970 7593 c25 -10 30 -25 30 -93 0 -80 -7 -108 -29 -113 -9 -3 11
-5 44 -5 33 0 52 2 43 5 -20 5 -31 38 -26 74 3 21 9 24 51 27 l47 3 0 -45 c0
-32 -5 -48 -17 -55 -14 -8 -5 -10 37 -10 42 0 51 2 38 10 -15 8 -18 25 -18 99
0 74 3 91 18 99 13 8 4 10 -38 10 -42 0 -51 -2 -37 -10 11 -7 17 -22 17 -49
l0 -40 -50 0 -50 0 0 40 c0 33 4 42 23 50 17 7 8 9 -38 9 -33 -1 -53 -3 -45
-6z"/>
<path d="M7230 7593 c25 -10 30 -25 30 -93 0 -80 -7 -108 -29 -113 -9 -3 8 -5
37 -6 49 -1 52 0 38 15 -9 8 -16 18 -16 22 0 4 23 32 50 62 l49 55 1 -67 c0
-53 -4 -69 -17 -77 -14 -8 -5 -10 37 -10 42 0 51 2 38 10 -15 8 -18 25 -18 99
0 74 3 91 18 99 13 8 4 10 -38 10 -42 0 -51 -2 -37 -10 26 -15 21 -29 -33 -89
l-49 -55 -1 68 c0 61 2 69 23 77 17 7 8 9 -38 9 -33 -1 -53 -3 -45 -6z"/>
<path d="M10000 7752 c-13 -10 -23 -33 -27 -57 -13 -100 115 -137 146 -42 27
80 -57 149 -119 99z m74 -14 c16 -23 21 -83 10 -112 -8 -20 -48 -21 -64 -1
-21 26 -25 99 -5 118 22 23 41 21 59 -5z"/>
<path d="M10468 7759 c-10 -5 -18 -19 -18 -29 0 -29 17 -24 24 6 9 33 49 30
54 -4 3 -17 -4 -26 -31 -37 -45 -19 -61 -39 -53 -70 7 -26 37 -34 65 -16 9 6
21 5 32 -2 15 -9 22 -8 36 6 17 17 17 18 1 11 -16 -5 -18 1 -18 60 0 54 -3 67
-19 76 -25 13 -51 12 -73 -1z m58 -126 c-9 -22 -50 -12 -54 14 -2 15 5 26 25
37 27 14 28 14 31 -11 2 -13 1 -31 -2 -40z"/>
<path d="M9600 7686 c0 -50 -4 -76 -12 -79 -7 -3 4 -6 26 -6 33 -1 37 1 26 14
-7 9 -10 38 -8 80 3 57 1 65 -14 65 -16 0 -18 -10 -18 -74z"/>
<path d="M9698 7753 c19 -7 16 -118 -4 -137 -14 -15 -12 -16 27 -16 38 0 41 2
25 13 -15 11 -17 25 -14 80 3 66 3 67 -22 66 -14 0 -19 -3 -12 -6z"/>
<path d="M9820 7690 c0 -63 -2 -70 -19 -67 -11 1 -20 -2 -20 -8 -1 -5 9 -10
21 -10 19 0 24 7 30 40 10 59 9 115 -2 115 -6 0 -10 -30 -10 -70z"/>
<path d="M9890 7686 c0 -63 -3 -75 -17 -79 -10 -3 2 -5 27 -6 28 0 40 2 32 8
-10 6 -13 28 -10 80 3 62 1 71 -14 71 -16 0 -18 -10 -18 -74z"/>
<path d="M10170 7686 c0 -50 -4 -76 -12 -79 -7 -3 48 -6 122 -6 77 0 129 3
122 8 -10 6 -13 28 -10 80 3 66 1 71 -17 71 -19 0 -20 -6 -17 -75 l4 -75 -31
0 -31 0 0 75 c0 65 -2 75 -17 75 -16 0 -18 -10 -18 -72 l0 -73 -30 0 -30 0 0
73 c0 62 -2 72 -17 72 -16 0 -18 -10 -18 -74z"/>
<path d="M10648 7722 c4 -41 -20 -112 -37 -112 -6 0 -11 -10 -11 -22 1 -21 2
-21 11 -5 8 13 23 17 69 17 49 0 61 -4 74 -22 l16 -22 0 22 c0 13 -7 31 -16
39 -12 13 -15 31 -12 80 4 62 4 63 -22 63 -17 0 -21 -3 -12 -9 9 -5 12 -27 10
-72 l-3 -64 -43 -3 c-42 -3 -43 -2 -32 19 18 32 29 129 16 129 -7 0 -10 -15
-8 -38z"/>
<path d="M10808 7689 c3 -52 0 -74 -10 -80 -8 -6 4 -9 32 -9 67 0 89 9 97 38
7 30 -17 52 -59 52 -25 0 -28 3 -28 35 0 27 -4 35 -17 35 -16 0 -18 -9 -15
-71z m85 -31 c13 -20 -6 -48 -34 -48 -15 0 -19 7 -19 36 0 31 3 35 21 32 12
-2 27 -10 32 -20z"/>
<path d="M10307 7412 c-24 -26 -21 -46 3 -22 23 23 33 24 61 10 14 -8 19 -21
19 -50 0 -33 -8 -47 -56 -99 l-56 -61 71 0 c61 0 72 3 81 21 10 19 10 20 -9
10 -11 -6 -38 -11 -60 -11 l-41 0 50 62 c55 68 65 112 32 141 -25 22 -75 21
-95 -1z"/>
<path d="M10058 7341 c10 -6 13 -28 10 -80 -2 -43 1 -71 7 -71 6 0 9 26 8 62
l-2 63 31 -65 31 -65 30 65 c33 69 42 65 35 -16 -2 -35 0 -44 12 -44 13 0 15
11 12 63 -3 50 -1 67 13 80 15 16 15 17 -12 17 -25 0 -31 -6 -53 -62 l-24 -62
-28 62 c-25 54 -31 62 -56 62 -18 0 -23 -3 -14 -9z"/>
<path d="M3501 6511 c-31 -16 -32 -18 -12 -24 20 -5 21 -11 21 -121 0 -112 -1
-117 -22 -126 -17 -7 -8 -9 37 -8 33 0 52 2 43 5 -16 4 -18 20 -18 149 0 79
-3 144 -7 144 -5 -1 -23 -9 -42 -19z"/>
<path d="M3803 6416 c13 -11 17 -29 17 -89 0 -62 -3 -78 -17 -86 -14 -8 -5
-10 37 -10 30 1 47 3 38 6 -14 3 -18 15 -18 51 1 46 1 47 18 26 9 -12 25 -36
34 -53 14 -25 23 -31 50 -31 26 1 30 3 16 10 -9 6 -28 31 -43 56 -23 39 -25
50 -16 70 7 16 19 24 37 24 19 0 25 4 22 18 -2 9 -13 18 -25 20 -17 3 -27 -6
-42 -36 -11 -22 -27 -42 -36 -45 -23 -9 -21 59 3 72 13 8 4 10 -38 10 -48 0
-53 -1 -37 -13z"/>
<path d="M4045 6404 c-32 -35 -39 -74 -21 -117 20 -48 56 -71 100 -63 61 12
97 78 76 141 -15 44 -44 65 -93 65 -28 0 -44 -7 -62 -26z m90 -9 c20 -19 25
-34 25 -74 0 -78 -40 -105 -79 -55 -26 33 -29 109 -4 136 21 24 29 23 58 -7z"/>
<path d="M4243 6417 c13 -11 17 -30 17 -90 0 -62 -3 -78 -17 -86 -14 -8 -8
-10 27 -10 25 1 37 3 28 6 -15 4 -18 16 -18 71 l1 67 31 -72 c17 -40 34 -73
38 -73 4 0 20 32 35 70 15 39 30 70 32 70 1 0 3 -29 3 -64 0 -53 -3 -65 -17
-69 -10 -3 7 -5 37 -6 42 0 51 2 38 10 -15 8 -18 24 -18 89 0 65 3 81 18 89
14 8 10 10 -19 11 -36 0 -38 -2 -64 -65 -16 -36 -31 -65 -35 -65 -3 0 -18 28
-32 63 -25 60 -27 62 -64 65 -35 2 -37 1 -21 -11z"/>
<path d="M4513 6419 c14 -8 17 -25 17 -94 0 -71 -3 -84 -17 -88 -10 -3 7 -5
37 -6 42 0 51 2 38 10 -12 6 -18 22 -18 44 0 34 1 35 40 35 40 0 40 0 40 -39
0 -29 -5 -41 -17 -44 -10 -3 7 -5 37 -6 42 0 51 2 38 10 -15 8 -18 24 -18 86
0 60 4 78 18 89 15 12 10 13 -38 13 -42 0 -51 -2 -37 -10 11 -6 17 -22 17 -44
0 -34 -1 -35 -40 -35 -38 0 -40 1 -40 31 0 19 7 37 18 45 15 12 10 13 -38 13
-42 0 -51 -2 -37 -10z"/>
<path d="M4778 6419 c-21 -12 -24 -59 -4 -59 8 0 19 14 25 30 11 34 35 39 51
11 16 -30 13 -38 -20 -51 -79 -33 -103 -84 -56 -115 22 -14 28 -15 53 -2 24
13 30 13 41 0 12 -12 17 -12 35 0 26 17 35 39 13 31 -14 -5 -16 4 -16 64 0 51
-4 75 -16 86 -17 18 -80 21 -106 5z m82 -114 c0 -40 -31 -65 -56 -44 -22 18
-16 47 14 63 39 22 42 20 42 -19z"/>
<path d="M4936 6404 c-9 -34 -1 -42 14 -15 6 13 21 21 35 21 24 0 25 -2 25
-72 0 -76 -5 -91 -30 -101 -8 -3 12 -5 45 -5 33 0 52 2 43 5 -15 4 -18 17 -18
89 0 77 2 84 20 84 10 0 24 -9 30 -21 15 -27 24 -17 16 16 -6 24 -9 25 -90 25
-82 0 -84 -1 -90 -26z"/>
<path d="M5143 6419 c14 -8 17 -25 17 -94 0 -71 -3 -84 -17 -88 -10 -3 7 -5
37 -6 42 0 51 2 38 10 -12 6 -18 22 -18 44 0 34 1 35 40 35 40 0 40 0 40 -39
0 -29 -5 -41 -17 -44 -10 -3 7 -5 37 -6 42 0 51 2 38 10 -15 8 -18 24 -18 86
0 60 4 78 18 89 15 12 10 13 -38 13 -42 0 -51 -2 -37 -10 11 -6 17 -22 17 -44
0 -34 -1 -35 -40 -35 -38 0 -40 1 -40 31 0 19 7 37 18 45 15 12 10 13 -38 13
-42 0 -51 -2 -37 -10z"/>
<path d="M5383 6419 c14 -8 17 -24 17 -89 0 -65 -3 -81 -17 -89 -14 -8 0 -10
55 -11 59 0 76 4 92 20 41 41 10 90 -57 90 -31 0 -33 2 -33 35 0 22 6 38 18
44 13 8 4 10 -38 10 -42 0 -51 -2 -37 -10z m112 -134 c0 -25 -4 -30 -27 -33
-26 -3 -28 -1 -28 33 0 34 2 36 28 33 23 -3 27 -8 27 -33z"/>
<path d="M5563 6419 c14 -8 17 -24 17 -89 0 -65 -3 -81 -17 -89 -14 -8 -5 -10
37 -10 30 1 47 3 38 6 -15 4 -18 17 -18 88 0 69 3 86 18 94 13 8 4 10 -38 10
-42 0 -51 -2 -37 -10z"/>
<path d="M5695 6398 c-23 -28 -27 -39 -22 -81 5 -56 27 -83 74 -93 27 -5 37
-1 63 24 16 17 30 38 30 48 0 13 -5 12 -25 -10 -13 -14 -33 -26 -45 -26 -20 0
-60 32 -60 49 0 5 -3 16 -6 25 -5 14 4 16 65 16 79 0 86 8 50 54 -31 39 -88
37 -124 -6z m85 8 c0 -2 3 -11 6 -20 5 -13 -2 -16 -35 -16 -39 0 -53 14 -34
33 7 8 63 10 63 3z"/>
<path d="M5983 6419 c14 -8 17 -25 17 -94 0 -71 -3 -84 -17 -88 -10 -3 7 -5
37 -6 42 0 51 2 38 10 -12 7 -18 22 -18 49 0 22 4 40 8 40 4 0 21 -22 37 -50
26 -45 33 -50 65 -50 28 1 32 3 18 10 -9 6 -30 31 -47 55 -26 39 -29 49 -19
70 6 15 21 25 37 27 32 4 35 32 4 36 -17 2 -28 -5 -42 -30 -41 -68 -61 -76
-61 -23 0 22 6 38 18 44 13 8 4 10 -38 10 -42 0 -51 -2 -37 -10z"/>
<path d="M6203 6419 c14 -8 17 -24 17 -89 0 -65 -3 -81 -17 -89 -14 -8 1 -10
57 -10 47 0 82 5 93 13 23 18 22 62 -3 79 -18 12 -18 15 -5 20 23 9 18 53 -7
71 -15 11 -44 16 -88 16 -49 -1 -61 -3 -47 -11z m101 -15 c32 -12 11 -64 -26
-64 -14 0 -18 8 -18 35 0 36 10 42 44 29z m16 -99 c20 -24 3 -55 -31 -55 -27
0 -29 3 -29 35 0 30 3 35 24 35 13 0 29 -7 36 -15z"/>
<path d="M6425 6410 c-19 -21 -14 -54 8 -48 6 3 13 14 15 25 6 42 62 39 62 -3
0 -18 -10 -28 -44 -43 -48 -21 -71 -51 -61 -81 10 -33 41 -43 75 -27 24 13 31
13 40 2 9 -11 17 -11 35 -3 30 14 41 38 14 31 -17 -5 -19 1 -19 69 0 44 -5 79
-12 86 -20 20 -92 15 -113 -8z m85 -105 c0 -24 -6 -37 -19 -45 -26 -14 -29
-13 -41 10 -9 17 -6 25 14 45 34 34 46 31 46 -10z"/>
<path d="M6600 6418 c-21 -9 -22 -12 -7 -15 15 -4 17 -19 17 -129 0 -104 -2
-124 -15 -124 -8 0 -15 -4 -15 -10 0 -5 23 -10 50 -10 28 0 50 5 50 10 0 6 -7
10 -15 10 -11 0 -15 11 -15 40 0 39 1 39 30 34 85 -17 144 122 79 187 -23 23
-66 25 -91 2 -17 -15 -18 -15 -18 0 0 19 -14 21 -50 5z m122 -35 c20 -18 25
-91 8 -124 -12 -21 -50 -25 -68 -7 -7 7 -12 38 -12 70 0 44 4 59 18 67 24 14
33 13 54 -6z"/>
<path d="M6801 6398 c0 -31 1 -32 11 -10 7 13 20 22 35 22 22 0 23 -3 23 -80
0 -65 -3 -81 -17 -89 -14 -8 -3 -10 42 -10 46 0 55 2 38 9 -21 9 -23 16 -23
90 0 79 0 80 25 80 17 0 29 -7 35 -22 8 -21 9 -20 9 10 l1 32 -90 0 -90 0 1
-32z"/>
<path d="M7003 6419 c14 -8 17 -25 17 -94 0 -71 -3 -84 -17 -88 -10 -3 6 -5
36 -6 49 -1 53 1 36 13 -18 13 -18 14 2 42 12 16 30 38 42 48 l21 19 0 -56 c0
-44 -3 -56 -17 -60 -10 -3 7 -5 37 -6 42 0 51 2 38 10 -15 8 -18 24 -18 86 0
60 4 78 18 89 15 12 11 13 -31 14 -44 0 -46 -1 -35 -19 10 -17 6 -26 -28 -68
l-39 -48 -3 55 c-3 43 1 57 14 67 15 11 10 13 -37 13 -41 -1 -50 -3 -36 -11z"/>
<path d="M7240 6418 c-21 -9 -22 -12 -7 -15 15 -4 17 -19 17 -129 0 -104 -2
-124 -15 -124 -8 0 -15 -4 -15 -10 0 -5 23 -10 50 -10 28 0 50 5 50 10 0 6 -7
10 -15 10 -11 0 -15 11 -15 40 0 39 1 39 30 34 85 -17 144 122 79 187 -23 23
-66 25 -91 2 -17 -15 -18 -15 -18 0 0 19 -14 21 -50 5z m122 -35 c20 -18 25
-91 8 -124 -12 -21 -50 -25 -68 -7 -7 7 -12 38 -12 70 0 44 4 59 18 67 24 14
33 13 54 -6z"/>
<path d="M7453 6419 c14 -8 17 -25 17 -94 0 -71 -3 -84 -17 -88 -10 -3 14 -5
52 -6 80 -1 115 15 115 54 0 30 -35 55 -77 55 -31 0 -33 2 -33 35 0 28 5 38
23 45 17 7 8 9 -38 9 -45 0 -56 -2 -42 -10z m118 -115 c18 -21 0 -48 -35 -52
-24 -3 -26 0 -26 32 0 31 3 36 24 36 13 0 29 -7 37 -16z"/>
<path d="M7633 6419 c14 -8 17 -25 17 -94 0 -71 -3 -84 -17 -88 -10 -3 7 -5
37 -6 42 0 51 2 38 10 -15 8 -18 24 -18 86 0 60 4 78 18 89 15 12 10 13 -38
13 -42 0 -51 -2 -37 -10z"/>
<path d="M3650 6330 c0 -19 5 -21 58 -18 43 2 57 7 57 18 0 11 -14 16 -57 18
-53 3 -58 1 -58 -18z"/>
<path d="M9975 5800 c-29 -12 -82 -70 -94 -103 -48 -127 55 -242 140 -158 73
73 5 197 -82 151 -23 -13 -24 -8 -5 28 19 37 58 71 92 82 l29 8 -30 1 c-16 0
-39 -4 -50 -9z m15 -140 c29 -29 28 -103 -2 -124 -28 -20 -52 -7 -67 35 -16
47 -14 86 7 98 25 15 40 13 62 -9z"/>
<path d="M10211 5779 c-15 -42 -14 -43 11 -25 23 16 118 23 118 8 0 -4 -18
-62 -40 -127 -22 -65 -40 -120 -40 -122 0 -2 6 -3 13 -3 10 0 107 265 107 293
0 4 -36 7 -79 7 l-79 0 -11 -31z"/>
<path d="M10478 5794 c-32 -17 -36 -26 -10 -22 15 3 17 -9 20 -119 2 -105 0
-123 -13 -123 -8 0 -15 -4 -15 -10 0 -5 25 -10 56 -10 34 0 53 4 49 10 -3 6
-13 10 -21 10 -11 0 -14 25 -14 140 0 151 -1 152 -52 124z"/>
<path d="M2128 5784 c-29 -15 -39 -30 -14 -21 21 8 26 -14 26 -128 0 -95 -2
-104 -22 -118 -22 -15 -21 -16 35 -16 32 -1 57 3 57 9 0 6 -7 10 -15 10 -13 0
-15 22 -15 140 0 151 -1 152 -52 124z"/>
<path d="M3358 5788 c21 -11 22 -16 22 -138 0 -123 -1 -128 -22 -135 -21 -7
-20 -8 9 -12 18 -2 50 -2 70 0 33 3 35 5 16 12 -22 7 -23 12 -23 136 l0 129
65 0 65 0 0 -126 c0 -117 -1 -126 -20 -131 -40 -11 -18 -23 40 -23 33 0 60 4
60 10 0 6 -7 10 -15 10 -20 0 -28 52 -24 159 3 76 7 93 24 105 18 14 5 15
-135 15 -119 0 -150 -3 -132 -11z"/>
<path d="M3688 5697 c-28 -11 -39 -29 -15 -24 9 1 13 -28 15 -118 2 -104 0
-121 -15 -132 -14 -11 -9 -13 38 -13 41 1 50 3 37 11 -12 7 -18 22 -18 47 l0
38 40 -4 c32 -3 43 1 63 22 45 48 44 131 -1 166 -32 25 -57 25 -82 0 l-20 -20
0 20 c0 22 -3 23 -42 7z m122 -46 c5 -11 10 -40 10 -65 0 -34 -5 -48 -21 -60
-22 -15 -48 -11 -61 8 -12 18 -9 111 4 124 18 18 56 14 68 -7z"/>
<path d="M4401 5696 c-58 -32 -69 -119 -22 -167 48 -47 116 -38 146 21 29 55
12 121 -36 146 -34 17 -57 17 -88 0z m72 -24 c40 -44 29 -152 -16 -152 -33 0
-55 27 -63 78 -11 72 39 119 79 74z"/>
<path d="M4571 5696 c-14 -16 3 -32 29 -28 8 1 23 -11 32 -28 9 -16 13 -30 8
-30 -5 0 -19 -18 -30 -40 -12 -23 -27 -43 -35 -47 -25 -9 -16 -23 15 -23 26 0
33 7 55 50 14 28 30 50 35 50 17 0 12 -70 -5 -76 -30 -12 -14 -24 30 -24 25 0
45 5 45 10 0 6 -4 10 -10 10 -5 0 -10 18 -10 40 0 22 3 40 8 40 4 0 18 -21 32
-48 19 -36 31 -48 53 -50 31 -4 33 1 11 26 -8 9 -26 33 -38 53 -21 33 -22 38
-9 63 10 20 19 25 34 21 22 -7 39 22 19 35 -21 13 -45 0 -65 -37 -27 -50 -45
-54 -45 -10 0 25 5 37 18 40 9 3 -7 5 -36 6 -49 1 -52 0 -38 -15 20 -20 21
-64 1 -64 -8 0 -23 17 -34 39 -11 21 -27 41 -36 45 -22 8 -21 8 -34 -8z"/>
<path d="M4899 5689 c-22 -22 -21 -42 4 -47 10 -2 17 5 19 20 5 34 52 33 56
-2 2 -21 -4 -28 -37 -41 -21 -9 -47 -28 -56 -43 -16 -24 -16 -28 -1 -51 18
-27 45 -32 77 -12 17 10 23 10 26 0 7 -20 38 -15 59 8 19 21 19 22 -3 15 -22
-7 -23 -6 -23 68 0 54 -4 79 -16 90 -22 23 -80 20 -105 -5z m69 -150 c-21 -13
-45 -10 -52 6 -8 23 3 44 33 59 26 14 26 14 29 -21 2 -22 -2 -39 -10 -44z"/>
<path d="M5532 5703 c-7 -3 -24 -23 -38 -44 -30 -48 -44 -50 -44 -5 0 24 5 36
18 39 9 3 -8 5 -38 6 -42 0 -51 -2 -37 -10 24 -14 26 -169 2 -169 -8 0 -15 -4
-15 -10 0 -5 24 -10 53 -10 45 1 50 2 35 14 -18 13 -26 86 -10 86 4 0 20 -23
35 -50 24 -42 33 -50 58 -50 16 0 29 5 29 10 0 6 -4 10 -9 10 -5 0 -24 21 -43
48 -31 42 -33 49 -21 72 8 15 21 25 35 25 13 0 24 7 26 16 3 18 -15 29 -36 22z"/>
<path d="M5651 5696 c-58 -32 -69 -119 -22 -167 48 -47 116 -38 146 21 29 55
12 121 -36 146 -34 17 -57 17 -88 0z m72 -24 c40 -44 29 -152 -16 -152 -33 0
-55 27 -63 78 -11 72 39 119 79 74z"/>
<path d="M5838 5698 c-25 -9 -26 -11 -13 -25 11 -11 15 -40 15 -121 0 -109 -4
-125 -30 -135 -8 -3 12 -5 45 -5 33 0 52 2 43 5 -14 3 -18 15 -18 46 l0 43 38
-4 c29 -3 42 2 60 21 25 27 38 82 28 122 -14 55 -77 85 -106 50 -11 -13 -14
-13 -24 -1 -8 10 -18 11 -38 4z m116 -50 c42 -60 0 -157 -55 -128 -16 9 -19
22 -19 74 0 34 3 66 7 69 14 15 53 6 67 -15z"/>
<path d="M6537 5690 c-54 -43 -56 -138 -4 -175 33 -23 90 -19 115 8 50 54 51
119 0 162 -36 30 -76 32 -111 5z m88 -30 c19 -37 20 -114 1 -130 -22 -18 -59
-8 -73 20 -15 30 -17 94 -3 121 17 30 57 24 75 -11z"/>
<path d="M6728 5697 c-28 -11 -39 -29 -15 -24 9 1 13 -28 15 -118 2 -104 0
-121 -15 -132 -14 -11 -9 -13 38 -13 41 1 50 3 37 11 -12 7 -18 22 -18 47 l0
38 40 -4 c32 -3 43 1 63 22 45 48 44 131 -1 166 -32 25 -57 25 -82 0 l-20 -20
0 20 c0 22 -3 23 -42 7z m122 -46 c5 -11 10 -40 10 -65 0 -34 -5 -48 -21 -60
-22 -15 -48 -11 -61 8 -12 18 -9 111 4 124 18 18 56 14 68 -7z"/>
<path d="M3903 5689 c23 -14 26 -156 2 -165 -30 -12 -14 -24 30 -24 25 0 45 5
45 10 0 6 -4 10 -10 10 -21 0 -9 30 30 75 l40 46 0 -56 c0 -40 -4 -57 -15 -61
-30 -12 -14 -24 30 -24 25 0 45 5 45 10 0 6 -4 10 -10 10 -6 0 -10 35 -10 84
0 72 3 85 18 89 9 3 -7 5 -37 6 -49 1 -53 -1 -36 -13 18 -13 17 -16 -19 -60
-21 -25 -40 -46 -42 -46 -2 0 -4 24 -4 54 0 44 4 55 18 59 9 3 -8 5 -38 6 -42
0 -51 -2 -37 -10z"/>
<path d="M4162 5658 c21 -23 38 -46 38 -52 0 -5 -18 -31 -41 -58 l-40 -48 37
0 c31 0 35 2 24 14 -9 12 -7 21 11 45 l23 31 18 -28 c10 -15 15 -35 12 -44 -5
-15 1 -18 40 -18 25 0 46 5 46 10 0 6 -4 10 -10 10 -10 0 -80 88 -80 101 0 4
15 24 34 43 l33 36 -32 0 c-27 0 -32 -3 -28 -18 2 -10 -2 -24 -11 -31 -12 -10
-17 -9 -26 9 -6 11 -8 25 -5 30 4 6 -12 10 -38 10 l-44 0 39 -42z"/>
<path d="M5097 5682 c-23 -26 -21 -48 7 -69 l23 -18 -26 -35 c-14 -19 -29 -36
-33 -38 -16 -7 -7 -22 12 -22 11 0 33 18 52 45 18 24 36 44 41 45 15 0 7 -63
-10 -76 -16 -12 -11 -13 37 -13 48 0 53 1 38 13 -15 11 -18 29 -18 94 0 68 3
81 18 85 9 3 -15 5 -54 6 -57 1 -74 -3 -87 -17z m83 -38 c0 -21 -5 -34 -13
-34 -35 0 -52 65 -19 73 26 6 32 -1 32 -39z"/>
<path d="M6043 5693 c14 -4 17 -17 17 -89 0 -49 -4 -84 -10 -84 -5 0 -10 -4
-10 -10 0 -5 18 -10 40 -10 41 0 49 7 29 27 -8 8 -1 24 27 58 l39 46 3 -53 c2
-31 -1 -54 -7 -56 -27 -9 -7 -22 34 -22 44 0 60 12 30 24 -24 9 -21 151 3 165
13 8 6 10 -33 10 -27 0 -44 -3 -37 -6 22 -9 13 -35 -28 -79 l-40 -44 0 55 c0
41 4 56 18 64 13 8 4 10 -38 10 -30 -1 -47 -3 -37 -6z"/>
<path d="M6313 5689 c34 -20 14 -138 -28 -165 -17 -11 -25 -26 -25 -45 0 -35
11 -38 25 -6 9 20 17 22 85 22 68 0 76 -2 85 -22 14 -32 25 -29 25 7 0 18 -6
33 -15 36 -20 8 -22 169 -2 177 6 3 -28 6 -78 6 -66 0 -85 -2 -72 -10z m92
-84 l0 -80 -42 -3 c-24 -2 -43 -2 -43 0 0 2 7 25 15 52 8 27 15 65 15 83 0 32
2 34 28 31 27 -3 27 -3 27 -83z"/>
<path d="M10104 5545 c-4 -9 -2 -21 4 -27 15 -15 44 -1 40 19 -4 23 -36 29
-44 8z"/>
<path d="M9898 5124 c-29 -15 -39 -30 -14 -21 21 8 26 -14 26 -128 0 -95 -2
-104 -22 -118 -22 -15 -21 -16 35 -16 32 -1 57 3 57 9 0 6 -7 10 -15 10 -13 0
-15 22 -15 140 0 151 -1 152 -52 124z"/>
<path d="M10080 5113 c-25 -31 -20 -65 13 -101 l21 -22 -27 -28 c-34 -35 -34
-66 -2 -97 49 -50 145 -17 145 49 0 14 -13 41 -30 59 l-29 34 24 23 c51 48 22
110 -53 110 -32 0 -45 -6 -62 -27z m91 7 c25 -14 25 -62 -1 -85 -20 -18 -21
-18 -45 5 -29 27 -33 65 -7 79 22 13 29 13 53 1z m-2 -175 c38 -43 39 -59 6
-81 -23 -15 -27 -15 -50 0 -27 18 -34 61 -15 97 15 27 23 24 59 -16z"/>
<path d="M10412 5117 c-29 -31 -28 -41 3 -21 31 20 71 12 80 -17 8 -25 -17
-65 -46 -74 -21 -7 -20 -8 12 -22 41 -17 49 -28 49 -71 0 -43 -34 -61 -80 -42
-22 9 -34 10 -42 2 -32 -32 62 -45 112 -15 54 32 66 98 24 140 -24 24 -24 26
-8 44 22 24 21 69 -2 86 -28 21 -78 16 -102 -10z"/>
<path d="M10693 5120 c-61 -37 -102 -126 -88 -190 21 -98 127 -123 170 -40 23
44 19 87 -11 117 -21 21 -32 25 -65 20 -21 -3 -39 -2 -39 1 0 24 47 76 83 92
41 19 41 20 12 20 -16 0 -44 -9 -62 -20z m29 -127 c48 -54 21 -159 -35 -137
-37 14 -52 124 -19 143 25 15 37 13 54 -6z"/>
<path d="M2142 5123 c-12 -4 -42 -54 -42 -68 0 -4 14 5 31 19 37 32 53 32 80
5 16 -16 20 -29 16 -56 -6 -37 -62 -118 -107 -156 -16 -14 -26 -28 -23 -31 4
-3 43 -6 89 -6 l82 0 11 30 c9 28 0 42 -14 20 -3 -5 -32 -10 -63 -10 l-56 0
36 38 c86 89 106 146 67 196 -16 20 -29 26 -57 25 -20 0 -43 -3 -50 -6z"/>
<path d="M3419 5115 c-82 -45 -97 -172 -30 -247 24 -27 36 -32 87 -36 49 -3
63 0 87 18 15 12 32 31 39 43 9 17 3 14 -26 -10 -41 -37 -79 -42 -125 -18 -39
20 -54 63 -49 135 5 75 35 112 91 112 46 0 71 -15 90 -54 l17 -33 0 50 0 50
-78 2 c-52 2 -85 -2 -103 -12z"/>
<path d="M3899 5019 c-22 -22 -21 -42 4 -47 10 -2 17 5 19 20 5 34 52 33 56
-2 2 -21 -4 -28 -37 -41 -21 -9 -47 -28 -56 -43 -16 -24 -16 -28 -1 -51 18
-27 45 -32 77 -12 17 10 23 10 26 0 6 -18 38 -16 54 3 11 14 13 14 21 0 11
-20 42 -21 58 -1 6 8 14 50 17 95 l6 80 28 0 29 0 0 -79 c0 -70 -2 -80 -22
-94 -22 -15 -21 -16 30 -16 28 -1 52 4 52 9 0 6 -4 10 -10 10 -6 0 -10 35 -10
84 0 72 3 85 18 89 9 3 -25 5 -76 6 -85 1 -92 0 -78 -15 10 -10 16 -33 16 -62
0 -80 -5 -87 -56 -87 l-44 0 0 72 c0 52 -4 76 -16 87 -22 23 -80 20 -105 -5z
m69 -150 c-21 -13 -45 -10 -52 6 -8 23 3 44 33 59 26 14 26 14 29 -21 2 -22
-2 -39 -10 -44z"/>
<path d="M3643 5023 c14 -4 17 -17 17 -89 0 -49 -4 -84 -10 -84 -5 0 -10 -4
-10 -10 0 -5 20 -10 45 -10 25 0 45 5 45 10 0 6 -7 10 -15 10 -12 0 -15 16
-15 85 l0 85 40 0 40 0 0 -85 c0 -50 -4 -85 -10 -85 -5 0 -10 -4 -10 -10 0 -5
20 -10 45 -10 44 0 60 12 30 24 -24 9 -21 151 3 165 12 8 -15 10 -98 10 -63
-1 -107 -3 -97 -6z"/>
<path d="M4293 5019 c23 -14 26 -156 2 -165 -8 -4 -15 -11 -15 -16 0 -19 136
-5 159 16 41 38 19 80 -49 91 -37 6 -40 9 -40 40 0 24 5 35 18 38 9 3 -8 5
-38 6 -42 0 -51 -2 -37 -10z m105 -101 c17 -17 15 -55 -4 -62 -35 -13 -44 -7
-44 34 0 32 4 40 18 40 10 0 23 -5 30 -12z"/>
<path d="M4503 5019 c23 -14 26 -156 2 -165 -30 -12 -14 -24 30 -24 25 0 45 5
45 10 0 6 -4 10 -10 10 -5 0 -10 18 -10 40 l0 40 40 0 c39 0 40 -1 40 -35 0
-22 -6 -38 -15 -41 -30 -12 -14 -24 30 -24 25 0 45 5 45 10 0 6 -4 10 -10 10
-6 0 -10 35 -10 84 0 72 3 85 18 89 9 3 -8 5 -38 6 -42 0 -51 -2 -37 -10 10
-6 17 -22 17 -39 0 -28 -2 -30 -40 -30 -39 0 -40 1 -40 34 0 24 5 36 18 39 9
3 -8 5 -38 6 -42 0 -51 -2 -37 -10z"/>
<path d="M4752 5018 c-19 -19 -14 -64 8 -79 20 -14 20 -14 -5 -51 -14 -21 -30
-38 -35 -38 -6 0 -10 -4 -10 -10 0 -5 10 -10 23 -10 16 0 34 14 56 45 18 25
37 45 43 45 13 0 2 -64 -12 -68 -26 -9 -5 -22 35 -22 49 0 53 4 30 26 -21 22
-21 137 1 158 14 15 9 16 -53 16 -40 0 -74 -5 -81 -12z m86 -41 c3 -39 -5 -45
-39 -27 -24 13 -25 46 -1 59 27 16 37 8 40 -32z"/>
<path d="M10293 4879 c-15 -15 -5 -39 17 -39 22 0 32 24 17 39 -6 6 -14 11
-17 11 -3 0 -11 -5 -17 -11z"/>
<path d="M2122 4437 c-29 -31 -28 -41 3 -21 31 20 71 12 80 -17 8 -25 -17 -65
-46 -74 -21 -7 -20 -8 12 -22 41 -17 49 -28 49 -71 0 -43 -34 -61 -80 -42 -22
9 -34 10 -42 2 -32 -32 62 -45 112 -15 54 32 66 98 24 140 -24 24 -24 26 -8
44 22 24 21 69 -2 86 -28 21 -78 16 -102 -10z"/>
<path d="M3358 4448 c21 -11 22 -16 22 -138 0 -123 -1 -128 -22 -135 -21 -7
-20 -8 9 -12 18 -2 50 -2 70 0 33 3 35 5 16 12 -20 6 -23 14 -23 66 0 33 4 59
10 59 9 0 67 -69 100 -119 12 -18 22 -22 55 -19 38 4 39 4 15 15 -14 6 -45 38
-69 72 -25 33 -49 61 -54 61 -6 0 -1 10 10 23 12 12 28 39 37 59 13 34 17 37
39 29 28 -11 49 3 40 25 -9 24 -60 17 -82 -12 -12 -15 -21 -33 -21 -41 0 -17
-53 -73 -69 -73 -7 0 -11 23 -11 58 0 51 3 60 23 70 18 9 9 11 -48 11 -57 0
-66 -2 -47 -11z"/>
<path d="M3638 4353 c7 -3 31 -41 54 -86 35 -71 39 -86 32 -117 -8 -31 -13
-35 -42 -36 -38 -1 -47 -7 -39 -29 10 -24 53 -18 75 10 11 14 39 73 62 132 24
60 50 114 58 121 13 10 10 12 -24 12 -27 0 -35 -3 -25 -9 12 -8 11 -19 -10
-71 l-24 -62 -29 62 c-24 51 -26 64 -15 71 9 6 -4 8 -36 8 -27 0 -44 -3 -37
-6z"/>
<path d="M3868 4353 c7 -2 25 -24 42 -47 l29 -43 -32 -39 c-17 -21 -35 -40
-39 -42 -19 -9 -5 -22 23 -22 25 0 30 3 25 16 -6 17 18 64 32 64 4 0 15 -13
24 -28 13 -22 14 -32 6 -40 -9 -9 -1 -12 35 -12 26 0 47 5 47 10 0 6 -4 10
-10 10 -12 0 -70 84 -70 102 0 7 13 28 29 46 l30 32 -30 0 c-18 0 -28 -4 -24
-10 3 -5 0 -19 -8 -30 -12 -18 -16 -19 -27 -5 -7 8 -10 22 -6 30 4 12 -4 15
-42 14 -26 0 -41 -3 -34 -6z"/>
<path d="M4093 4349 c23 -14 26 -156 2 -165 -30 -12 -14 -24 30 -24 25 0 45 5
45 10 0 6 -4 10 -10 10 -5 0 -10 18 -10 40 l0 40 40 0 c39 0 40 -1 40 -35 0
-22 -6 -38 -15 -41 -30 -12 -14 -24 30 -24 25 0 45 5 45 10 0 6 -4 10 -10 10
-6 0 -10 35 -10 84 0 72 3 85 18 89 9 3 -8 5 -38 6 -42 0 -51 -2 -37 -10 10
-6 17 -22 17 -39 0 -28 -2 -30 -40 -30 -39 0 -40 1 -40 34 0 24 5 36 18 39 9
3 -8 5 -38 6 -42 0 -51 -2 -37 -10z"/>
<path d="M4347 4342 c-23 -26 -21 -48 7 -69 l23 -18 -26 -35 c-14 -19 -29 -36
-33 -38 -16 -7 -7 -22 12 -22 11 0 33 18 52 45 18 24 36 44 41 45 15 0 7 -63
-10 -76 -16 -12 -11 -13 37 -13 48 0 53 1 38 13 -15 11 -18 29 -18 94 0 68 3
81 18 85 9 3 -15 5 -54 6 -57 1 -74 -3 -87 -17z m83 -38 c0 -21 -5 -34 -13
-34 -35 0 -52 65 -19 73 26 6 32 -1 32 -39z"/>
<path d="M9898 4454 c-29 -15 -39 -30 -14 -21 21 8 26 -14 26 -128 0 -95 -2
-104 -22 -118 -22 -15 -21 -16 35 -16 32 -1 57 3 57 9 0 6 -7 10 -15 10 -13 0
-15 22 -15 140 0 151 -1 152 -52 124z"/>
<path d="M10143 4450 c-61 -37 -102 -126 -88 -190 21 -98 127 -123 170 -40 23
44 19 87 -11 117 -21 21 -32 25 -65 20 -21 -3 -39 -2 -39 1 0 24 47 76 83 92
41 19 41 20 12 20 -16 0 -44 -9 -62 -20z m29 -127 c48 -54 21 -159 -35 -137
-37 14 -52 124 -19 143 25 15 37 13 54 -6z"/>
<path d="M10422 4448 c-29 -32 -42 -71 -42 -128 0 -119 73 -185 143 -130 29
23 47 74 47 137 0 81 -41 143 -95 143 -20 0 -39 -8 -53 -22z m90 -27 c12 -33
12 -170 -1 -205 -8 -19 -18 -26 -36 -26 -36 0 -47 37 -43 148 2 77 6 96 21
107 24 18 46 9 59 -24z"/>
<path d="M10644 4455 c-30 -21 -47 -68 -40 -110 9 -46 44 -70 91 -62 19 3 35
3 35 -1 0 -24 -46 -76 -83 -92 -41 -19 -41 -20 -12 -20 60 0 134 72 150 148
15 72 -31 152 -89 152 -17 0 -41 -7 -52 -15z m62 -3 c20 -13 34 -50 34 -92 0
-34 -4 -42 -25 -52 -22 -10 -29 -9 -48 10 -30 30 -31 107 -3 128 22 16 27 17
42 6z"/>
<path d="M10293 4209 c-15 -15 -5 -39 17 -39 22 0 32 24 17 39 -6 6 -14 11
-17 11 -3 0 -11 -5 -17 -11z"/>
<path d="M2157 3695 c-37 -52 -67 -101 -67 -110 0 -12 13 -15 59 -15 l60 0 3
-37 c2 -27 8 -39 21 -41 14 -3 17 4 17 37 0 34 3 41 20 41 11 0 20 7 20 15 0
8 -9 15 -20 15 -19 0 -20 7 -20 95 0 73 -3 95 -13 95 -8 0 -44 -43 -80 -95z
m53 -30 l0 -65 -46 0 c-25 0 -44 3 -42 8 6 14 81 122 84 122 2 0 4 -29 4 -65z"/>
<path d="M3720 3768 c-54 -152 -90 -263 -90 -275 0 -38 23 11 66 141 46 138
49 143 70 134 26 -12 137 -202 132 -226 -2 -11 -13 -17 -33 -17 -42 0 -59 -13
-44 -31 6 -8 20 -14 30 -14 35 0 70 46 119 159 27 63 51 115 52 116 2 1 12 7
23 13 17 10 11 11 -34 12 -47 0 -52 -2 -37 -13 16 -12 16 -16 -4 -67 -12 -30
-26 -66 -32 -80 -9 -24 -12 -21 -53 55 -41 73 -43 81 -28 93 14 10 7 12 -45
12 -35 0 -62 4 -62 10 0 22 -19 8 -30 -22z"/>
<path d="M3434 3776 c-85 -37 -114 -155 -60 -238 20 -31 73 -58 111 -58 38 0
91 27 110 56 8 13 11 24 6 24 -5 0 -12 -7 -15 -15 -9 -24 -70 -46 -106 -39
-17 4 -42 20 -55 36 -21 24 -25 40 -25 91 0 81 24 123 75 133 47 8 80 -7 105
-48 l20 -33 0 53 c0 48 -12 70 -22 40 -4 -10 -10 -10 -32 0 -34 15 -73 15
-112 -2z"/>
<path d="M9901 3784 c-17 -14 -31 -31 -31 -36 0 -6 9 -3 20 7 23 21 69 23 81
4 21 -33 -4 -89 -39 -89 -24 0 -11 -16 20 -25 65 -19 62 -115 -2 -115 -17 0
-40 5 -51 10 -15 9 -21 7 -26 -6 -3 -9 0 -20 8 -25 17 -12 82 -3 109 13 48 30
57 109 16 144 -24 22 -25 22 -5 40 25 22 24 59 -1 84 -27 27 -62 25 -99 -6z"/>
<path d="M10474 3714 c-36 -53 -67 -104 -68 -113 -1 -13 11 -17 62 -19 l62 -3
0 -34 c0 -28 4 -35 20 -35 16 0 20 7 20 34 0 25 5 35 20 39 11 3 20 12 20 21
0 9 -8 16 -20 16 -19 0 -20 7 -20 95 0 76 -3 95 -14 95 -8 0 -45 -43 -82 -96z
m56 -29 l0 -65 -45 0 c-25 0 -45 3 -45 6 0 7 81 124 86 124 2 0 4 -29 4 -65z"/>
<path d="M10237 3746 l-26 -55 22 -6 c56 -16 79 -30 93 -57 31 -60 -24 -119
-82 -87 -19 10 -27 10 -37 0 -9 -10 -8 -15 7 -27 25 -18 38 -18 81 0 36 15 75
67 75 99 0 38 -32 79 -75 98 -56 25 -52 49 9 49 39 0 66 13 66 32 0 4 -24 8
-53 8 l-53 0 -27 -54z"/>
<path d="M10104 3535 c-4 -9 -2 -21 4 -27 15 -15 44 -1 40 19 -4 23 -36 29
-44 8z"/>
<path d="M2205 3116 c-41 -18 -92 -77 -106 -125 -15 -49 -6 -97 25 -135 48
-61 139 -26 153 57 10 65 -46 118 -103 97 -23 -9 -25 -8 -19 12 10 32 65 88
86 88 10 0 21 5 24 10 9 14 -24 12 -60 -4z m25 -174 c13 -38 13 -46 -1 -70
-34 -62 -89 -25 -89 59 0 50 8 59 50 56 20 -2 28 -11 40 -45z"/>
<path d="M3368 3110 c21 -9 22 -14 22 -127 0 -120 -3 -136 -30 -146 -8 -3 22
-6 68 -6 106 -1 151 21 152 76 0 52 -40 83 -110 83 l-40 0 0 55 0 55 49 0 c39
0 52 -4 64 -22 16 -23 16 -23 16 10 l1 32 -107 -1 c-75 0 -101 -3 -85 -9z
m142 -160 c11 -11 20 -29 20 -40 0 -29 -36 -60 -70 -60 l-30 0 0 60 0 60 30 0
c17 0 39 -9 50 -20z"/>
<path d="M3638 3019 c-21 -12 -24 -59 -4 -59 8 0 19 14 25 30 11 34 35 39 51
11 16 -30 13 -38 -20 -51 -79 -33 -103 -84 -56 -115 22 -14 28 -15 53 -2 24
13 30 13 41 0 12 -12 17 -12 37 1 15 10 26 12 30 6 11 -17 54 -11 65 9 5 11
10 51 10 90 l0 71 30 0 30 0 0 -84 c0 -72 -3 -85 -17 -89 -10 -3 7 -5 37 -6
42 0 51 2 38 10 -15 8 -18 24 -18 89 0 65 3 81 18 89 12 8 -9 10 -78 10 -81 0
-92 -2 -77 -13 13 -10 17 -28 17 -83 l0 -70 -45 1 -45 0 0 67 c0 48 -5 72 -16
83 -17 18 -80 21 -106 5z m82 -114 c0 -40 -31 -65 -56 -44 -22 18 -16 47 14
63 39 22 42 20 42 -19z"/>
<path d="M4033 3019 c14 -8 17 -24 17 -89 0 -65 -3 -81 -17 -89 -14 -8 -5 -10
37 -10 30 1 47 3 38 6 -14 3 -18 15 -18 51 1 46 1 47 18 26 9 -12 25 -36 34
-53 14 -25 23 -31 50 -31 26 1 30 3 16 10 -9 6 -28 31 -43 56 -23 39 -25 50
-16 70 7 16 19 24 37 24 19 0 25 4 22 18 -2 9 -13 18 -25 20 -17 3 -27 -6 -42
-36 -11 -22 -27 -42 -36 -45 -23 -9 -21 59 3 72 13 8 4 10 -38 10 -42 0 -51
-2 -37 -10z"/>
<path d="M4266 2999 c-58 -69 -12 -179 75 -179 12 0 36 15 55 34 44 44 47 99
8 145 -21 26 -33 31 -69 31 -36 0 -48 -5 -69 -31z m84 11 c20 -11 40 -60 40
-99 0 -34 -26 -71 -50 -71 -49 0 -78 135 -36 166 23 17 22 17 46 4z"/>
<path d="M4463 3016 c13 -11 17 -29 17 -89 0 -62 -3 -78 -17 -86 -14 -8 -5
-10 37 -10 30 1 47 3 38 6 -13 3 -18 15 -18 44 0 39 0 39 40 39 39 0 40 -1 40
-35 0 -22 -6 -38 -17 -44 -14 -8 -5 -10 37 -10 30 1 47 3 38 6 -15 4 -18 17
-18 88 0 69 3 86 18 94 13 8 4 10 -38 10 -48 0 -53 -1 -37 -13 10 -8 17 -26
17 -45 0 -30 -2 -31 -40 -31 -39 0 -40 1 -40 35 0 22 6 38 18 44 13 8 4 10
-38 10 -48 0 -53 -1 -37 -13z"/>
<path d="M1683 2444 c-8 -21 16 -35 38 -23 26 13 26 13 44 -41 9 -27 21 -52
25 -55 14 -8 -63 -128 -88 -140 -34 -15 -26 -27 16 -23 34 3 40 8 68 61 17 32
38 65 47 75 16 15 17 12 17 -47 0 -54 -3 -64 -20 -68 -40 -11 -18 -23 40 -23
33 0 60 4 60 10 0 6 -6 10 -14 10 -16 0 -26 30 -26 83 0 58 23 46 64 -33 35
-66 39 -70 72 -70 37 0 46 15 15 25 -11 3 -36 33 -56 67 -29 50 -34 66 -26 82
5 12 17 38 25 59 13 32 18 37 34 28 23 -12 47 2 39 23 -8 20 -51 21 -70 1 -9
-8 -23 -37 -32 -64 -16 -48 -36 -68 -57 -55 -17 11 -3 103 18 119 17 13 13 14
-46 14 -62 0 -64 -1 -42 -16 18 -13 22 -25 22 -69 0 -30 -3 -54 -6 -54 -20 0
-44 25 -54 57 -20 63 -37 83 -71 83 -18 0 -32 -6 -36 -16z"/>
<path d="M2569 2349 c-22 -22 -21 -42 4 -47 10 -2 17 5 19 20 5 34 52 33 56
-2 2 -21 -4 -28 -37 -41 -21 -9 -47 -28 -56 -43 -16 -24 -16 -28 -1 -51 18
-27 45 -32 77 -12 17 10 23 10 26 0 7 -20 38 -15 59 8 19 21 19 22 -3 15 -22
-7 -23 -6 -23 68 0 54 -4 79 -16 90 -22 23 -80 20 -105 -5z m69 -150 c-21 -13
-45 -10 -52 6 -8 23 3 44 33 59 26 14 26 14 29 -21 2 -22 -2 -39 -10 -44z"/>
<path d="M3557 2350 c-54 -43 -56 -138 -4 -175 33 -23 90 -19 115 8 50 54 51
119 0 162 -36 30 -76 32 -111 5z m88 -30 c19 -37 20 -114 1 -130 -22 -18 -59
-8 -73 20 -16 32 -17 112 -1 128 22 22 57 14 73 -18z"/>
<path d="M4102 2354 c-27 -19 -30 -57 -4 -52 9 2 18 13 20 26 4 30 48 31 57 1
8 -25 7 -27 -53 -59 -36 -19 -48 -31 -50 -53 -6 -51 40 -75 83 -43 17 12 21
12 30 -1 13 -18 50 -10 59 12 3 9 0 12 -10 8 -11 -4 -14 8 -14 66 0 58 -4 75
-20 91 -24 24 -67 26 -98 4z m67 -150 c-16 -19 -48 -18 -56 2 -8 21 7 46 38
61 23 12 24 11 27 -18 2 -17 -2 -37 -9 -45z"/>
<path d="M4952 2363 c-7 -3 -24 -23 -38 -44 -30 -48 -44 -50 -44 -5 0 24 5 36
18 39 9 3 -8 5 -38 6 -42 0 -51 -2 -37 -10 23 -14 26 -156 2 -165 -31 -12 -13
-24 38 -24 45 1 50 2 35 14 -18 13 -26 86 -10 86 4 0 20 -23 35 -50 24 -42 33
-50 58 -50 16 0 29 5 29 10 0 6 -4 10 -9 10 -5 0 -24 21 -43 48 -31 42 -33 49
-21 72 8 15 21 25 35 25 13 0 24 7 26 16 3 18 -15 29 -36 22z"/>
<path d="M5249 2349 c-22 -22 -21 -42 4 -47 10 -2 17 5 19 20 5 34 52 33 56
-2 2 -21 -4 -28 -37 -41 -21 -9 -47 -28 -56 -43 -16 -24 -16 -28 -1 -51 18
-27 45 -32 77 -12 17 10 23 10 26 0 7 -20 38 -15 59 8 19 21 19 22 -3 15 -22
-7 -23 -6 -23 68 0 54 -4 79 -16 90 -22 23 -80 20 -105 -5z m69 -150 c-21 -13
-45 -10 -52 6 -8 23 3 44 33 59 26 14 26 14 29 -21 2 -22 -2 -39 -10 -44z"/>
<path d="M5438 2358 c-25 -9 -26 -11 -13 -25 11 -11 15 -40 15 -121 0 -109 -4
-125 -30 -135 -8 -3 12 -5 45 -5 33 0 52 2 43 5 -14 3 -18 15 -18 46 l0 43 38
-4 c29 -3 42 2 60 21 25 27 38 82 28 122 -14 55 -77 85 -106 50 -11 -13 -14
-13 -24 -1 -8 10 -18 11 -38 4z m116 -50 c42 -60 0 -157 -55 -128 -16 9 -19
22 -19 74 0 34 3 66 7 69 14 15 53 6 67 -15z"/>
<path d="M6081 2361 c-7 -5 -43 -6 -80 -4 -60 5 -64 4 -47 -10 19 -14 18 -16
-18 -61 -21 -25 -40 -46 -42 -46 -2 0 -4 24 -4 54 0 44 4 55 18 59 9 3 -8 5
-38 6 -42 0 -51 -2 -37 -10 23 -14 26 -156 2 -165 -30 -12 -14 -24 30 -24 25
0 45 5 45 10 0 6 -4 10 -10 10 -21 0 -9 30 30 75 l40 46 0 -56 c0 -40 -4 -57
-15 -61 -30 -12 -14 -24 30 -24 25 0 45 5 45 10 0 6 -4 10 -10 10 -6 0 -10 35
-10 85 0 69 3 85 15 85 8 0 15 -4 15 -10 0 -5 6 -9 13 -7 9 1 13 -28 15 -118
2 -104 0 -121 -15 -132 -14 -11 -9 -13 38 -13 41 1 50 3 37 11 -12 7 -18 22
-18 47 l0 38 40 -4 c32 -3 43 1 63 22 33 35 42 86 23 130 -23 56 -70 72 -106
36 l-20 -20 0 20 c0 22 -7 25 -29 11z m109 -50 c5 -11 10 -40 10 -65 0 -34 -5
-48 -21 -60 -22 -15 -48 -11 -61 8 -12 18 -9 111 4 124 18 18 56 14 68 -7z"/>
<path d="M2093 2353 c14 -4 17 -17 17 -89 0 -49 -4 -84 -10 -84 -5 0 -10 -4
-10 -10 0 -5 18 -10 40 -10 41 0 49 7 29 27 -8 8 -1 24 27 58 l39 46 3 -53 c2
-31 -1 -54 -7 -56 -27 -9 -7 -22 34 -22 44 0 60 12 30 24 -24 9 -21 151 3 165
13 8 6 10 -33 10 -27 0 -44 -3 -37 -6 22 -9 13 -35 -28 -79 l-40 -44 0 55 c0
41 4 56 18 64 13 8 4 10 -38 10 -30 -1 -47 -3 -37 -6z"/>
<path d="M2353 2353 c15 -4 17 -15 15 -81 l-3 -77 -28 3 c-23 3 -28 0 -25 -15
5 -24 35 -28 59 -7 16 14 19 31 19 96 l0 78 30 0 30 0 0 -85 c0 -69 -3 -85
-15 -85 -8 0 -15 -4 -15 -10 0 -5 23 -10 50 -10 28 0 50 5 50 10 0 6 -7 10
-15 10 -24 0 -22 155 3 169 12 8 -9 10 -78 10 -52 -1 -87 -3 -77 -6z"/>
<path d="M2772 2348 c-19 -19 -14 -64 8 -79 20 -14 20 -14 -5 -51 -14 -21 -30
-38 -35 -38 -6 0 -10 -4 -10 -10 0 -5 10 -10 23 -10 16 0 34 14 56 45 18 25
37 45 43 45 13 0 2 -64 -12 -68 -26 -9 -5 -22 35 -22 49 0 53 4 30 26 -21 22
-21 137 1 158 14 15 9 16 -53 16 -40 0 -74 -5 -81 -12z m86 -41 c3 -39 -5 -45
-39 -27 -24 13 -25 46 -1 59 27 16 37 8 40 -32z"/>
<path d="M3063 2349 c23 -14 26 -156 2 -165 -30 -12 -14 -24 30 -24 25 0 45 5
45 10 0 6 -4 10 -10 10 -6 0 -10 35 -10 85 l0 85 40 0 40 0 0 -80 c0 -62 -3
-82 -15 -86 -30 -12 -14 -24 30 -24 25 0 45 5 45 10 0 6 -4 10 -10 10 -6 0
-10 35 -10 84 0 72 3 85 18 89 9 3 -35 5 -98 6 -83 0 -110 -2 -97 -10z"/>
<path d="M3323 2353 c15 -4 17 -15 15 -81 l-3 -77 -28 3 c-23 3 -28 0 -25 -15
5 -24 35 -28 59 -7 16 14 19 31 19 96 l0 78 30 0 30 0 0 -85 c0 -69 -3 -85
-15 -85 -8 0 -15 -4 -15 -10 0 -5 23 -10 50 -10 28 0 50 5 50 10 0 6 -7 10
-15 10 -24 0 -22 155 3 169 12 8 -9 10 -78 10 -52 -1 -87 -3 -77 -6z"/>
<path d="M3743 2349 c23 -14 26 -156 2 -165 -43 -17 1 -24 148 -24 137 1 159
3 145 14 -14 11 -18 29 -18 89 0 62 3 78 18 86 13 8 4 10 -38 10 -30 -1 -47
-3 -37 -6 14 -4 17 -17 17 -89 l0 -84 -35 0 -35 0 0 84 c0 58 4 86 13 89 6 3
-10 5 -38 5 -27 0 -42 -2 -32 -5 14 -4 17 -17 17 -89 l0 -84 -35 0 -35 0 0 84
c0 72 3 85 18 89 9 3 -8 5 -38 6 -42 0 -51 -2 -37 -10z"/>
<path d="M4302 2353 c25 -6 30 -34 18 -88 -13 -60 -27 -85 -45 -85 -11 0 -15
-11 -15 -37 l1 -38 15 28 c14 26 18 27 89 27 71 0 75 -1 89 -27 l15 -28 1 38
c0 26 -4 37 -15 37 -24 0 -22 155 3 169 12 8 -9 10 -78 10 -52 -1 -87 -3 -78
-6z m98 -88 l0 -85 -44 0 -45 0 15 35 c7 19 14 50 14 69 0 50 9 66 36 66 23 0
24 -2 24 -85z"/>
<path d="M4503 2349 c23 -14 26 -156 2 -165 -8 -4 -15 -11 -15 -16 0 -19 136
-5 159 16 41 38 18 82 -50 92 -36 6 -39 9 -39 40 0 23 5 34 18 37 9 3 -8 5
-38 6 -42 0 -51 -2 -37 -10z m105 -101 c17 -17 15 -55 -4 -62 -35 -13 -44 -7
-44 34 0 32 4 40 18 40 10 0 23 -5 30 -12z"/>
<path d="M5023 2353 c14 -4 17 -17 17 -89 0 -49 -4 -84 -10 -84 -5 0 -10 -4
-10 -10 0 -13 99 -13 139 1 42 15 53 55 22 81 -21 16 -21 19 -7 34 43 43 2 74
-95 73 -41 -1 -66 -3 -56 -6z m95 -9 c18 -5 22 -13 20 -33 -2 -20 -9 -27 -30
-29 -26 -3 -28 -1 -28 32 0 38 2 39 38 30z m13 -94 c23 -13 25 -55 3 -64 -41
-16 -54 -7 -54 34 0 43 13 50 51 30z"/>
<path d="M5625 2340 c-10 -31 2 -36 23 -10 12 15 25 21 35 17 24 -9 25 -155 2
-163 -31 -12 -13 -24 35 -24 28 0 50 5 50 10 0 6 -7 10 -15 10 -12 0 -15 16
-15 85 0 93 10 106 50 63 l22 -23 -4 25 c-3 24 -6 25 -90 28 -80 3 -87 1 -93
-18z"/>
<path d="M6283 2349 c23 -14 26 -156 2 -165 -8 -4 -15 -11 -15 -16 0 -19 136
-5 159 16 41 37 17 79 -51 91 -35 7 -38 10 -38 40 0 24 5 35 18 38 9 3 -8 5
-38 6 -42 0 -51 -2 -37 -10z m111 -111 c14 -23 -3 -52 -33 -56 -19 -3 -21 1
-21 38 0 37 2 41 21 38 12 -2 27 -11 33 -20z"/>
<path d="M6463 2349 c24 -14 26 -169 2 -169 -8 0 -15 -4 -15 -10 0 -5 20 -10
45 -10 25 0 45 5 45 10 0 6 -4 10 -10 10 -6 0 -10 35 -10 84 0 72 3 85 18 89
9 3 -8 5 -38 6 -42 0 -51 -2 -37 -10z"/>
<path d="M2130 1821 c-69 -8 -78 -14 -102 -68 -48 -108 -11 -233 69 -233 45 0
69 14 88 50 29 56 10 125 -40 148 -37 17 -59 15 -89 -9 -25 -20 -26 -20 -26
-1 0 11 9 31 21 46 16 21 29 26 63 26 40 0 86 21 86 41 0 5 -3 8 -7 8 -5 -1
-33 -5 -63 -8z m4 -133 c36 -58 25 -148 -17 -148 -30 0 -44 11 -56 43 -32 84
30 173 73 105z"/>
<path d="M1740 1794 c-41 -35 -60 -74 -60 -124 0 -84 61 -150 138 -150 64 0
108 29 134 86 29 67 19 126 -32 176 -34 35 -42 38 -93 38 -45 0 -61 -5 -87
-26z m125 0 c60 -24 60 -224 0 -248 -9 -3 -32 -6 -50 -6 -59 0 -96 77 -80 170
13 75 65 109 130 84z"/>
<path d="M2602 1714 c-27 -19 -30 -57 -4 -52 9 2 18 13 20 26 4 30 48 31 57 1
8 -25 7 -27 -53 -59 -36 -19 -48 -31 -50 -53 -6 -51 40 -75 83 -43 17 12 21
12 30 -1 13 -18 50 -10 59 12 3 9 0 12 -10 8 -11 -4 -14 8 -14 66 0 58 -4 75
-20 91 -24 24 -67 26 -98 4z m67 -150 c-16 -19 -48 -18 -56 2 -8 21 7 46 38
61 23 12 24 11 27 -18 2 -17 -2 -37 -9 -45z"/>
<path d="M3577 1710 c-54 -43 -56 -138 -4 -175 33 -23 90 -19 115 8 50 54 51
119 0 162 -36 30 -76 32 -111 5z m88 -30 c19 -37 20 -114 1 -130 -22 -18 -59
-8 -73 20 -15 30 -17 94 -3 121 17 30 57 24 75 -11z"/>
<path d="M4119 1709 c-22 -22 -21 -42 4 -47 10 -2 17 5 19 20 5 34 52 33 56
-2 2 -21 -4 -28 -37 -41 -21 -9 -47 -28 -56 -43 -16 -24 -16 -28 -1 -51 18
-27 45 -32 77 -12 17 10 23 10 26 0 7 -20 38 -15 59 8 19 21 19 22 -3 15 -22
-7 -23 -6 -23 68 0 54 -4 79 -16 90 -22 23 -80 20 -105 -5z m69 -150 c-21 -13
-45 -10 -52 6 -8 23 3 44 33 59 26 14 26 14 29 -21 2 -22 -2 -39 -10 -44z"/>
<path d="M4971 1721 c-8 -5 -22 -24 -30 -43 -22 -45 -51 -50 -51 -9 0 18 7 34
18 40 13 8 4 10 -38 10 -30 -1 -47 -3 -37 -6 14 -4 17 -17 17 -89 0 -49 -4
-84 -10 -84 -5 0 -10 -4 -10 -10 0 -5 20 -10 45 -10 25 0 45 5 45 10 0 6 -7
10 -15 10 -11 0 -15 11 -15 40 0 22 4 40 9 40 4 0 22 -22 39 -50 27 -44 35
-50 64 -50 33 0 33 1 12 18 -12 9 -33 36 -48 59 -22 37 -24 46 -14 68 8 17 18
25 29 22 9 -3 23 -1 30 3 10 7 10 11 0 24 -15 18 -21 19 -40 7z"/>
<path d="M5282 1714 c-27 -19 -30 -57 -4 -52 9 2 18 13 20 26 4 30 48 31 57 1
8 -25 7 -27 -53 -59 -36 -19 -48 -31 -50 -53 -6 -51 40 -75 83 -43 17 12 21
12 30 -1 13 -18 50 -10 59 12 3 9 0 12 -10 8 -11 -4 -14 8 -14 66 0 58 -4 75
-20 91 -24 24 -67 26 -98 4z m67 -150 c-16 -19 -48 -18 -56 2 -8 21 7 46 38
61 23 12 24 11 27 -18 2 -17 -2 -37 -9 -45z"/>
<path d="M5458 1717 c-28 -11 -39 -29 -15 -24 9 1 13 -28 15 -118 2 -104 0
-121 -15 -132 -14 -11 -9 -13 38 -13 41 1 50 3 37 11 -12 7 -18 22 -18 47 l0
38 40 -4 c32 -3 43 1 63 22 45 48 44 131 -1 166 -32 25 -57 25 -82 0 l-20 -20
0 20 c0 22 -3 23 -42 7z m122 -46 c5 -11 10 -40 10 -65 0 -34 -5 -48 -21 -60
-22 -15 -48 -11 -61 8 -12 18 -9 111 4 124 18 18 56 14 68 -7z"/>
<path d="M6098 1718 c-25 -9 -26 -11 -13 -25 11 -11 15 -40 15 -121 0 -109 -4
-125 -30 -135 -8 -3 12 -5 45 -5 33 0 52 2 43 5 -14 3 -18 15 -18 46 l0 43 38
-4 c29 -3 42 2 60 21 25 27 38 82 28 122 -14 55 -77 85 -106 50 -11 -13 -14
-13 -24 -1 -8 10 -18 11 -38 4z m116 -50 c42 -60 0 -157 -55 -128 -16 9 -19
22 -19 74 0 34 3 66 7 69 14 15 53 6 67 -15z"/>
<path d="M2233 1709 c23 -14 26 -156 2 -165 -43 -17 1 -24 148 -24 137 1 159
3 145 14 -14 11 -18 29 -18 89 0 62 3 78 18 86 13 8 4 10 -38 10 -30 -1 -47
-3 -37 -6 14 -4 17 -17 17 -89 l0 -84 -35 0 -35 0 0 84 c0 58 4 86 13 89 6 3
-10 5 -38 5 -27 0 -42 -2 -32 -5 14 -4 17 -17 17 -89 l0 -84 -35 0 -35 0 0 84
c0 72 3 85 18 89 9 3 -8 5 -38 6 -42 0 -51 -2 -37 -10z"/>
<path d="M2792 1708 c-19 -19 -14 -64 8 -79 20 -14 20 -14 -5 -51 -14 -21 -30
-38 -35 -38 -6 0 -10 -4 -10 -10 0 -5 10 -10 23 -10 16 0 34 14 56 45 18 25
37 45 43 45 13 0 2 -64 -12 -68 -26 -9 -5 -22 35 -22 49 0 53 4 30 26 -21 22
-21 137 1 158 14 15 9 16 -53 16 -40 0 -74 -5 -81 -12z m86 -41 c3 -39 -5 -45
-39 -27 -24 13 -25 46 -1 59 27 16 37 8 40 -32z"/>
<path d="M3083 1709 c23 -14 26 -156 2 -165 -30 -12 -14 -24 30 -24 25 0 45 5
45 10 0 6 -4 10 -10 10 -6 0 -10 35 -10 85 l0 85 40 0 40 0 0 -80 c0 -62 -3
-82 -15 -86 -30 -12 -14 -24 30 -24 25 0 45 5 45 10 0 6 -4 10 -10 10 -6 0
-10 35 -10 84 0 72 3 85 18 89 9 3 -35 5 -98 6 -83 0 -110 -2 -97 -10z"/>
<path d="M3343 1713 c15 -4 17 -15 15 -81 l-3 -77 -28 3 c-23 3 -28 0 -25 -15
5 -24 35 -28 59 -7 16 14 19 31 19 96 l0 78 30 0 30 0 0 -85 c0 -69 -3 -85
-15 -85 -8 0 -15 -4 -15 -10 0 -5 23 -10 50 -10 28 0 50 5 50 10 0 6 -7 10
-15 10 -24 0 -22 155 3 169 12 8 -9 10 -78 10 -52 -1 -87 -3 -77 -6z"/>
<path d="M3763 1709 c23 -14 26 -156 2 -165 -43 -17 1 -24 148 -24 137 1 159
3 145 14 -14 11 -18 29 -18 89 0 62 3 78 18 86 13 8 4 10 -38 10 -30 -1 -47
-3 -37 -6 14 -4 17 -17 17 -89 l0 -84 -35 0 -35 0 0 84 c0 58 4 86 13 89 6 3
-10 5 -38 5 -27 0 -42 -2 -32 -5 14 -4 17 -17 17 -89 l0 -84 -35 0 -35 0 0 84
c0 72 3 85 18 89 9 3 -8 5 -38 6 -42 0 -51 -2 -37 -10z"/>
<path d="M4322 1713 c25 -6 30 -34 18 -88 -13 -60 -27 -85 -45 -85 -11 0 -15
-11 -15 -37 l1 -38 15 28 c14 26 18 27 89 27 71 0 75 -1 89 -27 l15 -28 1 38
c0 26 -4 37 -15 37 -24 0 -22 155 3 169 12 8 -9 10 -78 10 -52 -1 -87 -3 -78
-6z m98 -88 l0 -85 -44 0 -45 0 15 35 c7 19 14 50 14 69 0 50 9 66 36 66 23 0
24 -2 24 -85z"/>
<path d="M4523 1713 c14 -4 17 -17 17 -89 0 -49 -4 -84 -10 -84 -5 0 -10 -5
-10 -11 0 -16 135 -6 155 11 18 15 20 64 2 78 -7 6 -32 14 -55 18 -38 6 -42 9
-42 36 0 20 6 31 23 38 16 7 7 9 -38 8 -33 0 -52 -2 -42 -5z m108 -103 c37
-20 17 -70 -28 -70 -20 0 -23 5 -23 40 0 43 13 50 51 30z"/>
<path d="M5053 1709 c23 -14 26 -156 2 -165 -8 -4 -15 -11 -15 -16 0 -15 145
-4 165 12 21 17 19 67 -2 79 -15 8 -16 12 -5 22 18 19 15 57 -7 69 -27 14
-163 13 -138 -1z m92 -9 c37 -14 32 -54 -7 -58 -26 -3 -28 -1 -28 32 0 40 -1
40 35 26z m16 -90 c37 -20 17 -70 -28 -70 -20 0 -23 5 -23 40 0 43 13 50 51
30z"/>
<path d="M5650 1695 l0 -25 20 20 c40 40 50 28 50 -65 0 -69 -3 -85 -15 -85
-8 0 -15 -4 -15 -10 0 -5 25 -10 56 -10 34 0 53 4 49 10 -3 6 -13 10 -21 10
-11 0 -14 18 -14 85 0 93 10 105 50 65 26 -26 28 -25 22 5 -4 24 -6 25 -93 25
-88 0 -89 0 -89 -25z"/>
<path d="M5853 1713 c14 -4 17 -17 17 -89 0 -49 -4 -84 -10 -84 -5 0 -10 -4
-10 -10 0 -5 18 -10 40 -10 41 0 49 7 29 27 -8 8 -1 24 27 58 l39 46 3 -53 c2
-31 -1 -54 -7 -56 -27 -9 -7 -22 34 -22 44 0 60 12 30 24 -24 9 -21 151 3 165
13 8 6 10 -33 10 -27 0 -44 -3 -37 -6 22 -9 13 -35 -28 -79 l-40 -44 0 55 c0
41 4 56 18 64 13 8 4 10 -38 10 -30 -1 -47 -3 -37 -6z"/>
<path d="M6303 1709 c23 -14 26 -156 2 -165 -8 -4 -15 -11 -15 -16 0 -19 136
-5 159 16 41 37 17 79 -51 91 -35 7 -38 10 -38 40 0 24 5 35 18 38 9 3 -8 5
-38 6 -42 0 -51 -2 -37 -10z m111 -111 c14 -23 -3 -52 -33 -56 -19 -3 -21 1
-21 38 0 37 2 41 21 38 12 -2 27 -11 33 -20z"/>
<path d="M6483 1709 c24 -14 26 -169 2 -169 -8 0 -15 -4 -15 -10 0 -5 20 -10
45 -10 25 0 45 5 45 10 0 6 -4 10 -10 10 -6 0 -10 35 -10 84 0 72 3 85 18 89
9 3 -8 5 -38 6 -42 0 -51 -2 -37 -10z"/>
<path d="M9891 3113 c-25 -31 -19 -44 8 -19 23 21 60 18 74 -5 15 -25 0 -67
-31 -83 l-27 -14 28 -7 c53 -14 74 -76 37 -110 -18 -16 -25 -17 -61 -6 -45 14
-55 10 -45 -15 9 -22 98 -15 126 11 41 37 42 112 3 140 -15 11 -15 14 0 36 36
51 9 99 -56 99 -27 0 -41 -7 -56 -27z"/>
<path d="M10235 3114 c-33 -35 -48 -111 -34 -173 20 -95 88 -130 142 -73 28
29 50 107 42 147 -3 14 -7 35 -10 48 -14 70 -95 100 -140 51z m79 1 c30 -30
34 -206 6 -240 -22 -27 -50 -18 -67 22 -28 69 -3 233 37 233 4 0 15 -7 24 -15z"/>
<path d="M10455 3114 c-33 -35 -48 -111 -34 -173 20 -95 88 -130 142 -73 28
29 50 107 42 147 -3 14 -7 35 -10 48 -14 70 -95 100 -140 51z m79 1 c30 -30
34 -206 6 -240 -22 -27 -50 -18 -67 22 -28 69 -3 233 37 233 4 0 15 -7 24 -15z"/>
<path d="M10104 2875 c-4 -9 -2 -21 4 -27 15 -15 44 -1 40 19 -4 23 -36 29
-44 8z"/>
<path d="M9898 2454 c-29 -15 -39 -30 -14 -21 22 9 26 -14 26 -134 0 -88 -3
-109 -14 -109 -8 0 -18 -4 -21 -10 -4 -6 16 -10 52 -10 50 1 56 2 41 14 -16
11 -18 31 -18 150 0 147 -1 148 -52 120z"/>
<path d="M10080 2443 c-25 -31 -20 -65 13 -101 l21 -22 -27 -28 c-34 -35 -34
-66 -2 -97 49 -50 145 -17 145 49 0 14 -13 41 -30 59 l-29 34 24 23 c51 48 22
110 -53 110 -32 0 -45 -6 -62 -27z m91 7 c25 -14 25 -62 -1 -85 -20 -18 -21
-18 -45 5 -29 27 -33 65 -7 79 22 13 29 13 53 1z m-2 -175 c17 -20 31 -42 31
-50 0 -15 -37 -45 -57 -45 -36 0 -56 67 -33 111 15 27 23 24 59 -16z"/>
<path d="M10410 2445 c-13 -14 -21 -27 -18 -30 3 -3 11 1 18 10 18 22 67 19
80 -5 15 -29 4 -58 -32 -79 l-29 -19 25 -6 c37 -9 56 -33 56 -72 0 -45 -33
-63 -80 -44 -24 10 -34 10 -43 1 -17 -17 8 -31 57 -31 30 0 45 7 72 34 43 43
46 85 8 123 -22 22 -24 27 -11 42 61 68 -40 143 -103 76z"/>
<path d="M10688 2445 c-88 -60 -112 -173 -51 -245 61 -73 167 -5 149 95 -9 46
-44 70 -91 62 -40 -7 -40 -6 -21 31 19 36 48 61 82 72 l29 8 -30 1 c-17 1 -46
-10 -67 -24z m35 -122 c35 -39 34 -113 -2 -133 -40 -21 -71 19 -71 90 0 55 40
78 73 43z"/>
<path d="M10297 2214 c-16 -16 -7 -44 14 -44 15 0 20 5 17 22 -3 22 -19 33
-31 22z"/>
<path d="M9988 1783 c-38 -45 -128 -185 -123 -194 4 -5 33 -9 66 -9 l59 0 0
-40 c0 -33 3 -40 20 -40 17 0 20 7 20 40 0 33 3 40 20 40 11 0 20 7 20 15 0 8
-9 15 -20 15 -19 0 -20 7 -20 95 0 100 -9 116 -42 78z m2 -103 l0 -70 -51 0
-50 0 48 70 c26 38 49 70 51 70 1 0 2 -31 2 -70z"/>
<path d="M10111 1768 c-13 -36 -9 -45 9 -23 13 16 120 22 120 7 0 -4 -18 -62
-40 -127 -22 -65 -40 -120 -40 -122 0 -2 6 -3 13 -3 10 0 107 265 107 293 0 4
-36 7 -79 7 l-79 0 -11 -32z"/>
<path d="M10441 1768 c-13 -36 -9 -45 9 -23 13 16 120 22 120 7 0 -4 -18 -62
-40 -127 -22 -65 -40 -120 -40 -122 0 -2 6 -3 13 -3 10 0 107 265 107 293 0 4
-36 7 -79 7 l-79 0 -11 -32z"/>
<path d="M10686 1774 c-53 -53 -52 -195 1 -248 77 -77 171 39 142 176 -20 92
-88 126 -143 72z m78 1 c20 -20 30 -93 23 -166 -6 -64 -19 -89 -47 -89 -35 0
-45 29 -45 130 0 82 3 101 19 119 23 25 30 26 50 6z"/>
<path d="M10334 1535 c-4 -9 -2 -21 4 -27 15 -15 44 -1 40 19 -4 23 -36 29
-44 8z"/>
</g>
</svg>
