<?xml version="1.0" standalone="no"?>
<!DOCTYPE svg PUBLIC "-//W3C//DTD SVG 20010904//EN"
 "http://www.w3.org/TR/2001/REC-SVG-20010904/DTD/svg10.dtd">
<svg version="1.0" xmlns="http://www.w3.org/2000/svg"
 width="3307.000000pt" height="2339.000000pt" viewBox="0 0 3307.000000 2339.000000"
 preserveAspectRatio="xMidYMid meet">

<g transform="translate(0.000000,2339.000000) scale(0.100000,-0.100000)"
fill="#000000" stroke="none">
<path d="M0 11695 l0 -11695 16535 0 16535 0 0 11695 0 11695 -16535 0 -16535
0 0 -11695z m33060 0 l0 -11685 -16525 0 -16525 0 0 11685 0 11685 16525 0
16525 0 0 -11685z"/>
<path d="M1170 11695 l0 -11305 15758 2 15757 3 0 11300 0 11300 -15757 3
-15758 2 0 -11305z m31490 0 l0 -11285 -15730 0 -15730 0 0 11285 0 11285
15730 0 15730 0 0 -11285z"/>
<path d="M3446 22482 c-3 -5 -42 -95 -86 -198 -56 -131 -89 -196 -108 -211
l-27 -23 70 0 c68 1 69 1 43 16 -33 18 -34 26 -5 84 l22 45 81 3 81 3 22 -50
c26 -62 26 -66 -1 -85 -21 -15 -17 -16 67 -16 85 1 89 2 63 16 -34 18 -42 33
-129 243 -71 169 -82 190 -93 173z m10 -129 c8 -21 24 -59 35 -85 l19 -48 -74
0 -74 0 36 85 c20 47 38 85 39 85 2 0 10 -17 19 -37z"/>
<path d="M5402 22474 c-25 -17 -52 -64 -52 -91 0 -14 3 -13 17 7 9 14 24 30
33 37 16 13 68 17 95 7 20 -8 45 -56 45 -86 0 -48 -50 -128 -131 -213 l-82
-86 133 3 133 3 13 38 c13 38 6 48 -16 22 -9 -11 -34 -15 -97 -15 l-84 0 70
80 c83 94 111 144 111 201 0 33 -6 47 -34 75 -29 29 -41 34 -83 34 -28 0 -58
-7 -71 -16z"/>
<path d="M5732 22474 c-25 -17 -52 -64 -52 -91 0 -14 3 -13 17 7 9 14 24 30
33 37 16 13 68 17 95 7 20 -8 45 -56 45 -86 0 -48 -50 -128 -131 -213 l-82
-86 133 3 133 3 13 38 c13 38 6 48 -16 22 -9 -11 -34 -15 -97 -15 l-84 0 70
80 c83 94 111 144 111 201 0 33 -6 47 -34 75 -29 29 -41 34 -83 34 -28 0 -58
-7 -71 -16z"/>
<path d="M1740 22471 l25 -7 3 -192 2 -193 -32 -14 c-31 -13 -27 -14 78 -15
140 0 168 6 205 42 24 25 29 38 29 79 0 39 -5 55 -24 74 -27 27 -83 45 -143
45 l-43 0 0 85 0 85 65 0 c68 0 105 -20 105 -55 0 -8 5 -15 10 -15 11 0 13 33
4 68 -6 22 -9 22 -158 21 -83 -1 -140 -4 -126 -8z m207 -229 c11 -6 23 -19 27
-28 9 -24 7 -73 -4 -95 -14 -25 -62 -49 -100 -49 l-30 0 0 94 c0 67 4 96 13
99 15 5 66 -6 94 -21z"/>
<path d="M4418 22473 c35 -7 42 -41 42 -197 0 -185 -4 -204 -44 -215 -22 -6
20 -9 141 -10 l171 -1 16 47 c22 65 20 74 -9 31 -28 -41 -67 -58 -136 -58 -79
0 -79 0 -79 106 l0 94 48 0 c70 0 93 -9 108 -44 13 -29 13 -27 13 49 0 63 -2
75 -10 55 -14 -35 -26 -40 -96 -40 l-63 0 0 85 0 85 78 0 c86 0 100 -6 118
-47 12 -28 12 -27 13 20 l1 47 -167 -1 c-93 -1 -158 -4 -145 -6z"/>
<path d="M2503 22330 c-63 -38 -88 -129 -55 -203 26 -58 62 -82 123 -82 82 0
141 65 141 154 0 89 -56 151 -137 151 -22 0 -54 -9 -72 -20z m104 -15 c28 -19
46 -75 46 -142 0 -151 -130 -143 -158 10 -20 105 44 180 112 132z"/>
<path d="M2973 22338 c-12 -6 -29 -27 -37 -48 -18 -46 -41 -70 -67 -70 -18 0
-20 6 -17 47 2 39 7 50 28 60 22 11 17 13 -50 12 -56 0 -69 -3 -52 -9 22 -9
23 -13 20 -132 -3 -119 -4 -123 -28 -135 -22 -11 -16 -13 55 -13 71 0 77 2 55
13 -22 11 -25 20 -28 76 -4 83 13 80 71 -14 l42 -70 50 -2 c44 -2 47 -1 27 9
-13 7 -45 44 -72 84 l-47 73 21 38 c19 33 26 38 54 35 36 -4 52 18 32 43 -14
17 -26 18 -57 3z"/>
<path d="M2148 22330 c21 -9 22 -15 22 -118 0 -115 -8 -139 -40 -120 -18 11
-50 5 -50 -9 1 -39 60 -47 93 -14 19 19 22 35 26 136 l3 115 49 0 49 0 0 -104
c0 -119 -9 -153 -42 -159 -13 -2 13 -5 57 -5 64 -1 76 1 58 10 -22 11 -23 16
-23 135 0 119 1 124 23 133 15 6 -23 9 -113 9 -90 0 -128 -3 -112 -9z"/>
<path d="M3898 22330 c22 -9 23 -13 20 -132 -3 -119 -4 -123 -28 -135 -22 -11
-17 -13 48 -13 l72 0 -20 20 c-11 11 -20 24 -20 28 0 4 28 41 63 82 l62 74 3
-79 c3 -91 0 -102 -30 -115 -17 -6 -2 -9 57 -9 71 -1 77 1 55 12 -24 12 -25
17 -28 117 -3 126 1 147 31 153 12 2 -12 4 -53 4 -41 1 -67 -1 -58 -4 38 -10
31 -42 -21 -102 -84 -97 -82 -97 -79 0 3 78 5 84 28 96 22 11 17 13 -50 12
-56 0 -69 -3 -52 -9z"/>
<path d="M6018 22330 c22 -9 23 -13 20 -132 -3 -119 -4 -123 -28 -135 -21 -11
16 -13 220 -12 184 0 239 3 223 11 -22 11 -23 16 -23 135 0 119 1 124 23 133
16 6 2 9 -53 9 -55 0 -69 -3 -52 -9 21 -9 22 -14 22 -135 l0 -126 -52 3 -53 3
-3 123 c-3 119 -2 123 20 132 17 6 4 9 -52 9 -67 1 -72 -1 -50 -12 24 -12 25
-17 28 -112 4 -144 3 -147 -61 -143 l-52 3 0 120 c0 117 0 120 25 132 22 11
17 13 -50 12 -56 0 -69 -3 -52 -9z"/>
<path d="M6501 22298 c0 -24 3 -36 6 -28 12 32 37 50 70 50 l33 0 0 -112 c0
-118 -3 -128 -35 -146 -16 -9 -3 -11 65 -11 47 1 76 4 65 6 -42 10 -45 21 -45
144 l0 119 35 0 c29 0 39 -6 55 -32 16 -26 20 -29 20 -13 0 11 -3 30 -6 43 -6
21 -10 22 -135 22 l-129 0 1 -42z"/>
<path d="M4970 22195 c0 -25 1 -25 80 -25 79 0 80 0 80 25 0 25 -1 25 -80 25
-79 0 -80 0 -80 -25z"/>
<path d="M6837 22104 c-15 -16 -7 -53 14 -59 30 -10 58 19 43 43 -12 18 -45
28 -57 16z"/>
<path d="M15535 19501 c-3 -2 -5 -28 -5 -58 l0 -53 -1755 0 -1755 0 0 -667 c0
-368 -1 -2718 -2 -5223 l-3 -4555 3683 -3 3682 -2 0 269 c0 206 -3 270 -12
273 -7 2 -82 3 -165 3 l-153 -1 0 223 c0 142 -4 223 -10 223 -6 0 -10 -112
-10 -315 l0 -315 -2380 0 -2380 0 0 300 c0 265 -2 300 -16 300 -8 0 -12 -5 -9
-10 4 -6 -12 -10 -41 -10 -41 0 -46 2 -41 20 3 11 2 22 -3 25 -15 9 -20 -74
-20 -347 l0 -278 -520 0 c-505 0 -520 1 -520 19 0 11 7 55 15 98 18 96 18 93
0 93 -13 0 -15 23 -15 145 l0 145 415 0 c370 0 415 -2 415 -16 0 -10 6 -14 18
-10 9 3 54 10 100 17 45 7 82 15 82 19 0 3 -43 13 -96 21 -79 13 -97 13 -101
2 -4 -10 -84 -13 -419 -13 l-414 0 0 52 0 51 23 -21 c29 -27 47 -28 81 -1 19
15 26 30 26 54 0 44 -24 68 -65 63 -26 -3 -32 -1 -27 12 9 26 36 52 67 66 41
18 13 18 -30 0 -19 -8 -44 -30 -55 -48 l-20 -33 0 1123 c0 991 2 1122 15 1122
18 0 18 -8 0 87 -8 43 -15 88 -15 101 l0 22 515 0 515 0 0 -805 c0 -530 3
-805 10 -806 6 0 35 0 65 0 30 0 62 0 70 0 13 1 15 97 15 806 l0 805 230 0
c223 0 230 1 241 21 8 16 8 20 -1 14 -9 -6 -11 9 -8 56 l3 64 -832 3 -833 2 0
355 0 355 -40 0 -40 0 0 100 0 100 1254 0 c958 0 1255 -3 1258 -12 3 -9 29 -8
103 5 55 9 100 15 101 14 6 -6 8 -1045 2 -1041 -3 2 -4 -5 -1 -16 5 -20 14
-20 359 -20 350 0 353 0 365 21 8 15 8 19 0 15 -7 -5 -11 9 -11 42 0 47 1 50
31 56 17 3 56 6 86 6 34 0 52 4 48 10 -3 6 -31 10 -61 10 -62 0 -60 -7 -39
110 18 104 18 100 0 100 -13 0 -15 46 -15 350 l0 350 1109 0 c837 0 1110 -3
1113 -12 4 -11 103 -1 186 19 l22 5 0 -461 0 -461 -747 -2 -748 -3 3 -64 c3
-47 1 -62 -8 -56 -9 6 -9 2 -1 -14 l12 -21 744 0 745 0 0 -49 c0 -27 4 -51 10
-53 5 -1 38 -2 73 0 l64 4 7 81 c3 45 6 1219 6 2609 l0 2527 153 3 152 3 3
128 3 127 24 0 c20 0 25 5 25 24 0 19 6 25 28 28 l27 3 3 439 2 439 60 -6
c204 -22 437 -160 571 -340 108 -144 166 -305 176 -484 l6 -103 31 0 c17 0
153 0 303 0 l272 -1 3 -68 3 -69 512 -4 c282 -2 515 -6 517 -9 3 -3 -2 -49
-11 -104 -13 -74 -14 -100 -5 -103 9 -3 12 -81 12 -303 l0 -299 -1329 0
c-1095 0 -1330 2 -1334 13 -4 11 -22 11 -101 -2 -53 -8 -96 -18 -96 -21 0 -3
43 -13 96 -21 79 -13 97 -13 101 -2 4 11 239 13 1334 13 l1329 0 0 -2639 c0
-1947 -3 -2640 -11 -2643 -11 -4 -5 -64 17 -180 l6 -28 -1269 1 c-697 1 -1354
4 -1460 8 -125 4 -191 3 -190 -4 3 -15 -85 -19 -94 -4 -6 10 -11 10 -23 -1
-14 -11 -16 -42 -14 -239 l3 -226 58 -3 57 -3 0 -163 0 -163 175 0 175 0 0
106 c0 58 3 184 7 279 l6 172 1538 0 1538 0 3 -112 3 -113 238 -3 237 -2 -2
237 -3 238 -27 3 -28 3 0 3100 0 3099 30 0 30 0 -2 238 -3 237 -57 3 -58 3 0
714 0 715 -175 0 -175 0 0 -55 0 -55 -1545 0 -1544 0 -3 58 -3 57 -1923 1
c-1057 0 -1925 -2 -1927 -5z m2695 -56 l0 -45 -770 0 -770 0 0 45 0 45 770 0
770 0 0 -45z m-2603 29 c-3 -3 -12 -4 -19 -1 -8 3 -5 6 6 6 11 1 17 -2 13 -5z
m2718 -4 c13 -5 14 -9 5 -9 -8 0 -24 4 -35 9 -13 5 -14 9 -5 9 8 0 24 -4 35
-9z m-2630 -20 c13 -5 14 -9 5 -9 -8 0 -24 4 -35 9 -13 5 -14 9 -5 9 8 0 24
-4 35 -9z m2730 -10 c13 -5 14 -9 5 -9 -8 0 -24 4 -35 9 -13 5 -14 9 -5 9 8 0
24 -4 35 -9z m4062 -12 c-3 -8 -6 -5 -6 6 -1 11 2 17 5 13 3 -3 4 -12 1 -19z
m-6722 2 c13 -5 14 -9 5 -9 -8 0 -24 4 -35 9 -13 5 -14 9 -5 9 8 0 24 -4 35
-9z m2730 -10 c13 -5 14 -9 5 -9 -8 0 -24 4 -35 9 -13 5 -14 9 -5 9 8 0 24 -4
35 -9z m-2648 -16 c-3 -3 -12 -4 -19 -1 -8 3 -5 6 6 6 11 1 17 -2 13 -5z
m2718 -4 c13 -5 14 -9 5 -9 -8 0 -24 4 -35 9 -13 5 -14 9 -5 9 8 0 24 -4 35
-9z m3932 -22 c-3 -7 -5 -2 -5 12 0 14 2 19 5 13 2 -7 2 -19 0 -25z m-6562 2
c13 -5 14 -9 5 -9 -8 0 -24 4 -35 9 -13 5 -14 9 -5 9 8 0 24 -4 35 -9z m-425
-659 l0 -660 -52 -3 -53 -3 -3 -92 c-2 -74 -6 -93 -17 -93 -13 0 -15 61 -15
440 0 398 -2 441 -16 447 -28 10 -244 -33 -329 -66 -277 -107 -489 -359 -549
-653 -9 -42 -16 -98 -16 -123 l0 -45 -300 0 -300 0 0 95 0 95 -593 0 c-327 0
-742 3 -923 7 l-329 6 2 591 c2 325 3 619 3 654 l0 62 1745 0 1745 0 0 -659z
m2700 614 l0 -45 -770 0 -770 0 0 45 0 45 770 0 770 0 0 -45z m455 35 c13 -5
14 -9 5 -9 -8 0 -24 4 -35 9 -13 5 -14 9 -5 9 8 0 24 -4 35 -9z m3795 -650 l0
-660 -780 0 -780 0 0 -70 0 -70 -294 0 -293 0 -7 75 c-19 210 -133 440 -285
574 -165 146 -330 217 -548 237 l-73 7 0 -447 c0 -390 -2 -446 -15 -446 -13 0
-15 88 -15 730 l0 730 1545 0 1545 0 0 -660z m-6455 640 c13 -5 14 -9 5 -9 -8
0 -24 4 -35 9 -13 5 -14 9 -5 9 8 0 24 -4 35 -9z m6502 -22 c-3 -8 -6 -5 -6 6
-1 11 2 17 5 13 3 -3 4 -12 1 -19z m-3742 2 c13 -5 14 -9 5 -9 -8 0 -24 4 -35
9 -13 5 -14 9 -5 9 8 0 24 -4 35 -9z m-2660 -10 c13 -5 14 -9 5 -9 -8 0 -24 4
-35 9 -13 5 -14 9 -5 9 8 0 24 -4 35 -9z m2730 -10 c13 -5 14 -9 5 -9 -8 0
-24 4 -35 9 -13 5 -14 9 -5 9 8 0 24 -4 35 -9z m-2660 -10 c13 -5 14 -9 5 -9
-8 0 -24 4 -35 9 -13 5 -14 9 -5 9 8 0 24 -4 35 -9z m6342 -12 c-3 -8 -6 -5
-6 6 -1 11 2 17 5 13 3 -3 4 -12 1 -19z m-3582 -8 c13 -5 14 -9 5 -9 -8 0 -24
4 -35 9 -13 5 -14 9 -5 9 8 0 24 -4 35 -9z m-2660 -10 c13 -5 14 -9 5 -9 -8 0
-24 4 -35 9 -13 5 -14 9 -5 9 8 0 24 -4 35 -9z m2730 -10 c13 -5 14 -9 5 -9
-8 0 -24 4 -35 9 -13 5 -14 9 -5 9 8 0 24 -4 35 -9z m3533 -55 c0 -16 -2 -15
-8 5 -4 14 -8 34 -8 45 0 16 2 15 8 -5 4 -14 8 -34 8 -45z m-6193 45 c13 -5
14 -9 5 -9 -8 0 -24 4 -35 9 -13 5 -14 9 -5 9 8 0 24 -4 35 -9z m1865 -40 l0
-50 -770 0 -770 0 0 50 0 50 770 0 770 0 0 -50z m895 20 c13 -5 14 -9 5 -9 -8
0 -24 4 -35 9 -13 5 -14 9 -5 9 8 0 24 -4 35 -9z m-2678 -6 c-3 -3 -12 -4 -19
-1 -8 3 -5 6 6 6 11 1 17 -2 13 -5z m2748 -14 c13 -5 14 -9 5 -9 -8 0 -24 4
-35 9 -13 5 -14 9 -5 9 8 0 24 -4 35 -9z m-2660 -10 c13 -5 14 -9 5 -9 -8 0
-24 4 -35 9 -13 5 -14 9 -5 9 8 0 24 -4 35 -9z m2760 -20 c13 -5 14 -9 5 -9
-8 0 -24 4 -35 9 -13 5 -14 9 -5 9 8 0 24 -4 35 -9z m-2678 -6 c-3 -3 -12 -4
-19 -1 -8 3 -5 6 6 6 11 1 17 -2 13 -5z m5950 -16 c-3 -8 -6 -5 -6 6 -1 11 2
17 5 13 3 -3 4 -12 1 -19z m-3212 2 c4 -7 -49 -9 -152 -8 l-158 2 140 6 c77 3
145 7 152 8 6 1 15 -2 18 -8z m-3567 -7 c-43 -2 -113 -2 -155 0 -43 1 -8 3 77
3 85 0 120 -2 78 -3z m2640 -10 l602 -6 0 -539 0 -538 -49 0 c-28 0 -53 -5
-57 -12 -4 -7 -6 -1021 -5 -2255 3 -2170 2 -2243 -16 -2243 -10 0 -56 7 -102
15 -74 13 -85 13 -95 0 -10 -13 -147 -15 -1111 -13 l-1100 3 -3 2688 c-2 2384
0 2687 13 2687 18 0 18 -4 0 100 -8 47 -15 90 -15 97 0 9 31 13 103 16 213 6
1257 7 1835 0z m-1951 -25 c-20 -83 -30 -182 -19 -186 9 -3 12 -650 12 -2693
l0 -2689 -185 0 c-162 0 -185 2 -185 16 0 12 -7 14 -27 10 -41 -8 -156 -26
-170 -26 -10 0 -13 566 -13 2795 l0 2795 296 0 296 0 -5 -22z m6111 -43 c0
-16 -2 -15 -8 5 -4 14 -8 34 -8 45 0 16 2 15 8 -5 4 -14 8 -34 8 -45z m-6999
-65 c0 -9 -4 -8 -9 5 -5 11 -9 27 -9 35 0 9 4 8 9 -5 5 -11 9 -27 9 -35z
m3500 -10 c0 -9 -4 -8 -9 5 -5 11 -9 27 -9 35 0 9 4 8 9 -5 5 -11 9 -27 9 -35z
m3508 28 c-3 -8 -6 -5 -6 6 -1 11 2 17 5 13 3 -3 4 -12 1 -19z m10 -40 c-3 -8
-6 -5 -6 6 -1 11 2 17 5 13 3 -3 4 -12 1 -19z m-3489 -88 c0 -8 -6 1 -13 20
-7 19 -13 42 -13 50 0 8 6 -1 13 -20 7 -19 13 -42 13 -50z m3499 38 c-3 -7 -5
-2 -5 12 0 14 2 19 5 13 2 -7 2 -19 0 -25z m-6998 -28 c0 -9 -4 -8 -9 5 -5 11
-9 27 -9 35 0 9 4 8 9 -5 5 -11 9 -27 9 -35z m7008 -12 c-3 -8 -6 -5 -6 6 -1
11 2 17 5 13 3 -3 4 -12 1 -19z m-3479 -98 c0 -8 -6 1 -13 20 -7 19 -13 42
-13 50 0 8 6 -1 13 -20 7 -19 13 -42 13 -50z m3489 58 c-3 -8 -6 -5 -6 6 -1
11 2 17 5 13 3 -3 4 -12 1 -19z m-6988 -48 c0 -9 -4 -8 -9 5 -5 11 -9 27 -9
35 0 9 4 8 9 -5 5 -11 9 -27 9 -35z m7009 -35 c0 -16 -2 -15 -8 5 -4 14 -8 34
-8 45 0 16 2 15 8 -5 4 -14 8 -34 8 -45z m-3480 -75 c0 -8 -6 1 -13 20 -7 19
-13 42 -13 50 0 8 6 -1 13 -20 7 -19 13 -42 13 -50z m302 65 c0 -8 -9 -15 -20
-15 -11 0 -20 7 -20 15 0 8 9 15 20 15 11 0 20 -7 20 -15z m-3801 -55 c0 -9
-4 -8 -9 5 -5 11 -9 27 -9 35 0 9 4 8 9 -5 5 -11 9 -27 9 -35z m6988 18 c-3
-8 -6 -5 -6 6 -1 11 2 17 5 13 3 -3 4 -12 1 -19z m-7302 -18 c0 -8 -8 -16 -17
-18 -13 -2 -18 3 -18 18 0 15 5 20 18 18 9 -2 17 -10 17 -18z m4115 -366 c0
-243 -4 -374 -10 -374 -6 0 -10 134 -10 381 0 251 3 378 10 374 6 -4 10 -142
10 -381z m-4170 -63 l0 -440 28 -3 c21 -2 28 -9 30 -30 3 -22 9 -28 28 -28 21
0 24 -4 24 -40 l0 -40 155 0 155 0 0 -2075 c0 -1653 -3 -2075 -12 -2075 -7 0
-51 7 -98 15 -104 18 -100 18 -100 0 0 -13 -146 -15 -1255 -15 l-1255 0 0
1964 c0 1629 2 1965 13 1969 11 4 11 23 -4 104 -9 54 -16 99 -14 101 1 2 199
6 439 9 l436 6 0 38 0 39 308 2 307 3 6 110 c16 291 161 535 414 697 105 67
268 123 368 127 l27 1 0 -439z m4137 -129 c-1 -103 -2 -16 -2 193 0 209 1 293
2 187 2 -106 2 -277 0 -380z m3230 536 c-3 -8 -6 -5 -6 6 -1 11 2 17 5 13 3
-3 4 -12 1 -19z m-3469 -88 c0 -8 -6 1 -13 20 -7 19 -13 42 -13 50 0 8 6 -1
13 -20 7 -19 13 -42 13 -50z m-3838 -306 c0 -330 -2 -373 -16 -378 -9 -3 -18
-6 -20 -6 -2 0 -4 171 -4 379 0 374 0 380 20 378 20 -1 20 -8 20 -373z m7317
344 c-3 -7 -5 -2 -5 12 0 14 2 19 5 13 2 -7 2 -19 0 -25z m-6978 -28 c0 -9 -4
-8 -9 5 -5 11 -9 27 -9 35 0 9 4 8 9 -5 5 -11 9 -27 9 -35z m6988 -12 c-3 -8
-6 -5 -6 6 -1 11 2 17 5 13 3 -3 4 -12 1 -19z m-3468 -68 c0 -9 -4 -8 -9 5 -5
11 -9 27 -9 35 0 9 4 8 9 -5 5 -11 9 -27 9 -35z m3478 28 c-3 -8 -6 -5 -6 6
-1 11 2 17 5 13 3 -3 4 -12 1 -19z m-6968 -48 c0 -9 -4 -8 -9 5 -5 11 -9 27
-9 35 0 9 4 8 9 -5 5 -11 9 -27 9 -35z m6978 -2 c-3 -7 -5 -2 -5 12 0 14 2 19
5 13 2 -7 2 -19 0 -25z m10 -40 c-3 -8 -6 -5 -6 6 -1 11 2 17 5 13 3 -3 4 -12
1 -19z m-3468 -38 c0 -9 -4 -8 -9 5 -5 11 -9 27 -9 35 0 9 4 8 9 -5 5 -11 9
-27 9 -35z m-3490 -20 c0 -9 -4 -8 -9 5 -5 11 -9 27 -9 35 0 9 4 8 9 -5 5 -11
9 -27 9 -35z m6968 18 c-3 -8 -6 -5 -6 6 -1 11 2 17 5 13 3 -3 4 -12 1 -19z
m21 -83 c0 -16 -2 -15 -8 5 -4 14 -8 34 -8 45 0 16 2 15 8 -5 4 -14 8 -34 8
-45z m-3469 -15 c0 -9 -4 -8 -9 5 -5 11 -9 27 -9 35 0 9 4 8 9 -5 5 -11 9 -27
9 -35z m-3490 -20 c0 -9 -4 -8 -9 5 -5 11 -9 27 -9 35 0 9 4 8 9 -5 5 -11 9
-27 9 -35z m6968 -12 c-3 -8 -6 -5 -6 6 -1 11 2 17 5 13 3 -3 4 -12 1 -19z
m-3448 -68 c0 -9 -4 -8 -9 5 -5 11 -9 27 -9 35 0 9 4 8 9 -5 5 -11 9 -27 9
-35z m3458 28 c-3 -8 -6 -5 -6 6 -1 11 2 17 5 13 3 -3 4 -12 1 -19z m-6948
-48 c0 -9 -4 -8 -9 5 -5 11 -9 27 -9 35 0 9 4 8 9 -5 5 -11 9 -27 9 -35z
m6958 -2 c-3 -7 -5 -2 -5 12 0 14 2 19 5 13 2 -7 2 -19 0 -25z m10 -40 c-3 -8
-6 -5 -6 6 -1 11 2 17 5 13 3 -3 4 -12 1 -19z m-3448 -38 c0 -9 -4 -8 -9 5 -5
11 -9 27 -9 35 0 9 4 8 9 -5 5 -11 9 -27 9 -35z m-3490 -20 c0 -9 -4 -8 -9 5
-5 11 -9 27 -9 35 0 9 4 8 9 -5 5 -11 9 -27 9 -35z m6948 18 c-3 -8 -6 -5 -6
6 -1 11 2 17 5 13 3 -3 4 -12 1 -19z m-10260 -104 c-3 -3 -12 -4 -19 -1 -8 3
-5 6 6 6 11 1 17 -2 13 -5z m3113 -149 c178 -133 223 -168 190 -150 -25 14
-374 276 -390 293 -20 21 -22 23 200 -143z m-3417 9 c100 -75 189 -144 197
-152 19 -20 -15 4 -224 161 -93 70 -166 127 -162 127 3 0 89 -61 189 -136z
m344 130 c-3 -3 -12 -4 -19 -1 -8 3 -5 6 6 6 11 1 17 -2 13 -5z m6568 -194
c110 -110 198 -200 195 -200 -3 0 -95 90 -205 200 -110 110 -198 200 -195 200
3 0 95 -90 205 -200z m1908 193 c-7 -2 -19 -2 -25 0 -7 3 -2 5 12 5 14 0 19
-2 13 -5z m1694 -168 c89 -66 160 -121 158 -123 -3 -4 -363 263 -385 286 -19
19 25 -12 227 -163z m-10130 159 c-3 -3 -12 -4 -19 -1 -8 3 -5 6 6 6 11 1 17
-2 13 -5z m8480 0 c-3 -3 -12 -4 -19 -1 -8 3 -5 6 6 6 11 1 17 -2 13 -5z
m-8407 -14 c20 -6 21 -8 5 -8 -11 0 -31 4 -45 8 -20 6 -21 8 -5 8 11 0 31 -4
45 -8z m8453 3 c-7 -2 -19 -2 -25 0 -7 3 -2 5 12 5 14 0 19 -2 13 -5z m50 -10
c-7 -2 -19 -2 -25 0 -7 3 -2 5 12 5 14 0 19 -2 13 -5z m-8446 -9 c-3 -3 -12
-4 -19 -1 -8 3 -5 6 6 6 11 1 17 -2 13 -5z m8490 0 c-3 -3 -12 -4 -19 -1 -8 3
-5 6 6 6 11 1 17 -2 13 -5z m-8450 -10 c-3 -3 -12 -4 -19 -1 -8 3 -5 6 6 6 11
1 17 -2 13 -5z m8496 -1 c-7 -2 -19 -2 -25 0 -7 3 -2 5 12 5 14 0 19 -2 13 -5z
m-8456 -9 c-3 -3 -12 -4 -19 -1 -8 3 -5 6 6 6 11 1 17 -2 13 -5z m8506 -1 c-7
-2 -19 -2 -25 0 -7 3 -2 5 12 5 14 0 19 -2 13 -5z m-8433 -13 c20 -6 21 -8 5
-8 -11 0 -31 4 -45 8 -20 6 -21 8 -5 8 11 0 31 -4 45 -8z m6568 -13 c2 -12 -3
-17 -17 -17 -12 0 -21 6 -21 13 0 31 32 34 38 4z m1909 17 c-3 -3 -12 -4 -19
-1 -8 3 -5 6 6 6 11 1 17 -2 13 -5z m46 -11 c-7 -2 -19 -2 -25 0 -7 3 -2 5 12
5 14 0 19 -2 13 -5z m-8466 -9 c-3 -3 -12 -4 -19 -1 -8 3 -5 6 6 6 11 1 17 -2
13 -5z m8516 -1 c-7 -2 -19 -2 -25 0 -7 3 -2 5 12 5 14 0 19 -2 13 -5z m-8476
-9 c-3 -3 -12 -4 -19 -1 -8 3 -5 6 6 6 11 1 17 -2 13 -5z m8520 0 c-3 -3 -12
-4 -19 -1 -8 3 -5 6 6 6 11 1 17 -2 13 -5z m-8480 -10 c-3 -3 -12 -4 -19 -1
-8 3 -5 6 6 6 11 1 17 -2 13 -5z m8526 -1 c-7 -2 -19 -2 -25 0 -7 3 -2 5 12 5
14 0 19 -2 13 -5z m-8453 -13 c20 -6 21 -8 5 -8 -11 0 -31 4 -45 8 -20 6 -21
8 -5 8 11 0 31 -4 45 -8z m8503 3 c-7 -2 -19 -2 -25 0 -7 3 -2 5 12 5 14 0 19
-2 13 -5z m-6255 -20 c2 -8 -5 -13 -17 -13 -12 0 -21 6 -21 16 0 18 31 15 38
-3z m4052 2 c0 -8 -7 -15 -15 -15 -8 0 -15 7 -15 15 0 8 7 15 15 15 8 0 15 -7
15 -15z m940 0 c0 -8 -7 -15 -15 -15 -8 0 -15 7 -15 15 0 8 7 15 15 15 8 0 15
-7 15 -15z m388 8 c-64 -2 -172 -2 -240 0 -68 1 -15 3 117 3 132 0 187 -2 123
-3z m172 -8 c0 -8 -7 -15 -15 -15 -8 0 -15 7 -15 15 0 8 7 15 15 15 8 0 15 -7
15 -15z m747 9 c-3 -3 -12 -4 -19 -1 -8 3 -5 6 6 6 11 1 17 -2 13 -5z m-8490
-10 c-3 -3 -12 -4 -19 -1 -8 3 -5 6 6 6 11 1 17 -2 13 -5z m8536 -1 c-7 -2
-19 -2 -25 0 -7 3 -2 5 12 5 14 0 19 -2 13 -5z m-8496 -9 c-3 -3 -12 -4 -19
-1 -8 3 -5 6 6 6 11 1 17 -2 13 -5z m7531 -1 c-64 -2 -172 -2 -240 0 -68 1
-15 3 117 3 132 0 187 -2 123 -3z m1015 0 c-7 -2 -19 -2 -25 0 -7 3 -2 5 12 5
14 0 19 -2 13 -5z m-8506 -9 c-3 -3 -12 -4 -19 -1 -8 3 -5 6 6 6 11 1 17 -2
13 -5z m8550 0 c-3 -3 -12 -4 -19 -1 -8 3 -5 6 6 6 11 1 17 -2 13 -5z m-8477
-14 c20 -6 21 -8 5 -8 -11 0 -31 4 -45 8 -20 6 -21 8 -5 8 11 0 31 -4 45 -8z
m8523 3 c-7 -2 -19 -2 -25 0 -7 3 -2 5 12 5 14 0 19 -2 13 -5z m-7933 -23 c0
-11 -7 -20 -15 -20 -8 0 -15 9 -15 20 0 11 7 20 15 20 8 0 15 -9 15 -20z m495
10 c4 -7 -77 -10 -235 -10 -158 0 -239 3 -235 10 4 6 93 10 235 10 142 0 231
-4 235 -10z m63 -13 c2 -12 -3 -17 -17 -17 -12 0 -21 6 -21 13 0 31 32 34 38
4z m942 3 c0 -11 -7 -20 -15 -20 -8 0 -15 9 -15 20 0 11 7 20 15 20 8 0 15 -9
15 -20z m6483 13 c-7 -2 -19 -2 -25 0 -7 3 -2 5 12 5 14 0 19 -2 13 -5z
m-8516 -9 c-3 -3 -12 -4 -19 -1 -8 3 -5 6 6 6 11 1 17 -2 13 -5z m8560 0 c-3
-3 -12 -4 -19 -1 -8 3 -5 6 6 6 11 1 17 -2 13 -5z m-8520 -10 c-3 -3 -12 -4
-19 -1 -8 3 -5 6 6 6 11 1 17 -2 13 -5z m8566 -1 c-7 -2 -19 -2 -25 0 -7 3 -2
5 12 5 14 0 19 -2 13 -5z m-8526 -9 c-3 -3 -12 -4 -19 -1 -8 3 -5 6 6 6 11 1
17 -2 13 -5z m836 -1 c-68 -2 -178 -2 -245 0 -68 1 -13 3 122 3 135 0 190 -2
123 -3z m7740 0 c-7 -2 -19 -2 -25 0 -7 3 -2 5 12 5 14 0 19 -2 13 -5z m-8530
-10 c-7 -2 -19 -2 -25 0 -7 3 -2 5 12 5 14 0 19 -2 13 -5z m8607 -3 c20 -6 21
-8 5 -8 -11 0 -31 4 -45 8 -20 6 -21 8 -5 8 11 0 31 -4 45 -8z m-8563 -6 c-3
-3 -12 -4 -19 -1 -8 3 -5 6 6 6 11 1 17 -2 13 -5z m40 -10 c-3 -3 -12 -4 -19
-1 -8 3 -5 6 6 6 11 1 17 -2 13 -5z m8586 -1 c-7 -2 -19 -2 -25 0 -7 3 -2 5
12 5 14 0 19 -2 13 -5z m-8546 -9 c-3 -3 -12 -4 -19 -1 -8 3 -5 6 6 6 11 1 17
-2 13 -5z m8623 -4 c20 -6 21 -8 5 -8 -11 0 -31 4 -45 8 -20 6 -21 8 -5 8 11
0 31 -4 45 -8z m-8550 -10 c20 -6 21 -8 5 -8 -11 0 -31 4 -45 8 -20 6 -21 8
-5 8 11 0 31 -4 45 -8z m8613 -7 c-7 -2 -19 -2 -25 0 -7 3 -2 5 12 5 14 0 19
-2 13 -5z m-8556 -9 c-3 -3 -12 -4 -19 -1 -8 3 -5 6 6 6 11 1 17 -2 13 -5z
m8633 -4 c20 -6 21 -8 5 -8 -11 0 -31 4 -45 8 -20 6 -21 8 -5 8 11 0 31 -4 45
-8z m-8593 -6 c-3 -3 -12 -4 -19 -1 -8 3 -5 6 6 6 11 1 17 -2 13 -5z m-1547
-24 c-107 -3 -199 -2 -204 2 -6 5 82 7 195 6 l204 -2 -195 -6z m3578 3 c-16
-2 -40 -2 -55 0 -16 2 -3 4 27 4 30 0 43 -2 28 -4z m6887 -2 c-110 -4 -204 -3
-209 2 -6 4 84 6 200 5 l209 -2 -200 -5z m-9739 -14 c3 -3 -1 -48 -10 -100
-19 -114 -19 -107 -1 -107 13 0 15 -222 13 -1962 l-3 -1963 -195 -3 c-164 -2
-197 0 -206 13 -10 13 -20 13 -95 0 -46 -8 -92 -15 -101 -15 -17 0 -18 103
-18 2015 l0 2014 58 3 57 3 3 59 3 59 244 -5 c135 -2 248 -7 251 -11z m9486
-44 c3 -57 4 -58 34 -61 l30 -3 3 -3098 3 -3098 -39 -6 c-21 -4 -149 -7 -285
-7 -230 0 -248 1 -248 18 0 9 7 55 15 102 13 75 13 85 0 93 -13 7 -15 318 -15
2642 l0 2635 175 0 c152 0 175 -2 175 -16 0 -10 6 -14 18 -10 9 3 54 10 100
17 45 7 82 15 82 19 0 3 -43 13 -96 21 -79 13 -97 13 -101 2 -4 -10 -44 -13
-179 -13 l-174 0 0 300 c0 260 2 300 15 300 18 0 18 -4 0 100 -8 47 -15 90
-15 97 0 15 52 19 302 21 l197 2 3 -57z m-10345 41 c-3 -3 -12 -4 -19 -1 -8 3
-5 6 6 6 11 1 17 -2 13 -5z m3693 -36 c47 -43 29 -34 -28 14 -18 16 -29 28
-25 28 4 -1 28 -19 53 -42z m6767 36 c-3 -3 -12 -4 -19 -1 -8 3 -5 6 6 6 11 1
17 -2 13 -5z m-10420 -10 c-3 -3 -12 -4 -19 -1 -8 3 -5 6 6 6 11 1 17 -2 13
-5z m10460 0 c-3 -3 -12 -4 -19 -1 -8 3 -5 6 6 6 11 1 17 -2 13 -5z m-10420
-10 c-3 -3 -12 -4 -19 -1 -8 3 -5 6 6 6 11 1 17 -2 13 -5z m10460 0 c-3 -3
-12 -4 -19 -1 -8 3 -5 6 6 6 11 1 17 -2 13 -5z m-10420 -10 c-3 -3 -12 -4 -19
-1 -8 3 -5 6 6 6 11 1 17 -2 13 -5z m10528 -13 c39 -11 63 -19 55 -20 -8 0
-46 8 -85 18 -38 11 -63 19 -55 20 8 0 47 -8 85 -18z m-10488 3 c-3 -3 -12 -4
-19 -1 -8 3 -5 6 6 6 11 1 17 -2 13 -5z m40 -10 c-3 -3 -12 -4 -19 -1 -8 3 -5
6 6 6 11 1 17 -2 13 -5z m40 -10 c-3 -3 -12 -4 -19 -1 -8 3 -5 6 6 6 11 1 17
-2 13 -5z m3471 -31 c-16 -2 -40 -2 -55 0 -16 2 -3 4 27 4 30 0 43 -2 28 -4z
m-3791 -255 c-2 -18 -4 -6 -4 27 0 33 2 48 4 33 2 -15 2 -42 0 -60z m10520
-120 c-2 -24 -4 -7 -4 37 0 44 2 63 4 43 2 -21 2 -57 0 -80z m-10510 -10 c-2
-18 -4 -6 -4 27 0 33 2 48 4 33 2 -15 2 -42 0 -60z m10 -130 c-2 -18 -4 -6 -4
27 0 33 2 48 4 33 2 -15 2 -42 0 -60z m10510 -50 c-2 -24 -4 -7 -4 37 0 44 2
63 4 43 2 -21 2 -57 0 -80z m-10500 -75 c-2 -16 -4 -3 -4 27 0 30 2 43 4 28 2
-16 2 -40 0 -55z m10510 -115 c-2 -24 -4 -5 -4 42 0 47 2 66 4 43 2 -24 2 -62
0 -85z m-6820 -130 c-1 -46 -3 -11 -3 77 0 88 2 125 3 83 2 -42 2 -114 0 -160z
m-3680 115 c-2 -16 -4 -3 -4 27 0 30 2 43 4 28 2 -16 2 -40 0 -55z m6870 -230
c-1 -43 -3 -8 -3 77 0 85 2 120 3 78 2 -43 2 -113 0 -155z m-6860 100 c-2 -16
-4 -3 -4 27 0 30 2 43 4 28 2 -16 2 -40 0 -55z m10500 -35 c-2 -24 -4 -7 -4
37 0 44 2 63 4 43 2 -21 2 -57 0 -80z m-10490 -95 c-2 -16 -4 -3 -4 27 0 30 2
43 4 28 2 -16 2 -40 0 -55z m10500 -95 c-2 -24 -4 -5 -4 42 0 47 2 66 4 43 2
-24 2 -62 0 -85z m-6830 -135 c-1 -43 -3 -8 -3 77 0 85 2 120 3 78 2 -43 2
-113 0 -155z m-3660 105 c-2 -18 -4 -6 -4 27 0 33 2 48 4 33 2 -15 2 -42 0
-60z m6850 -220 c-1 -46 -3 -11 -3 77 0 88 2 125 3 83 2 -42 2 -114 0 -160z
m3650 70 c-2 -24 -4 -7 -4 37 0 44 2 63 4 43 2 -21 2 -57 0 -80z m-10490 25
c-2 -16 -4 -3 -4 27 0 30 2 43 4 28 2 -16 2 -40 0 -55z m10 -130 c-2 -16 -4
-3 -4 27 0 30 2 43 4 28 2 -16 2 -40 0 -55z m10490 -85 c-2 -24 -4 -7 -4 37 0
44 2 63 4 43 2 -21 2 -57 0 -80z m-6840 -140 c-1 -46 -3 -11 -3 77 0 88 2 125
3 83 2 -42 2 -114 0 -160z m-3640 95 c-2 -16 -4 -3 -4 27 0 30 2 43 4 28 2
-16 2 -40 0 -55z m6830 -210 c-1 -43 -3 -8 -3 77 0 85 2 120 3 78 2 -43 2
-113 0 -155z m3660 65 c-2 -24 -4 -7 -4 37 0 44 2 63 4 43 2 -21 2 -57 0 -80z
m-10480 15 c-2 -16 -4 -3 -4 27 0 30 2 43 4 28 2 -16 2 -40 0 -55z m10 -125
c-2 -18 -4 -6 -4 27 0 33 2 48 4 33 2 -15 2 -42 0 -60z m10480 -80 c-2 -24 -4
-5 -4 42 0 47 2 66 4 43 2 -24 2 -62 0 -85z m-6850 -135 c-1 -43 -3 -8 -3 77
0 85 2 120 3 78 2 -43 2 -113 0 -155z m-3620 85 c-2 -18 -4 -6 -4 27 0 33 2
48 4 33 2 -15 2 -42 0 -60z m6810 -200 c-1 -46 -3 -11 -3 77 0 88 2 125 3 83
2 -42 2 -114 0 -160z m3670 70 c-2 -24 -4 -7 -4 37 0 44 2 63 4 43 2 -21 2
-57 0 -80z m-10470 5 c-2 -16 -4 -3 -4 27 0 30 2 43 4 28 2 -16 2 -40 0 -55z
m10 -130 c-2 -16 -4 -3 -4 27 0 30 2 43 4 28 2 -16 2 -40 0 -55z m10470 -65
c-2 -24 -4 -7 -4 37 0 44 2 63 4 43 2 -21 2 -57 0 -80z m-6860 -135 c-1 -43
-3 -8 -3 77 0 85 2 120 3 78 2 -43 2 -113 0 -155z m-3600 70 c-2 -16 -4 -3 -4
27 0 30 2 43 4 28 2 -16 2 -40 0 -55z m6790 -190 c-1 -43 -3 -8 -3 77 0 85 2
120 3 78 2 -43 2 -113 0 -155z m3680 65 c-2 -24 -4 -7 -4 37 0 44 2 63 4 43 2
-21 2 -57 0 -80z m-10460 0 c-2 -18 -4 -6 -4 27 0 33 2 48 4 33 2 -15 2 -42 0
-60z m10 -130 c-2 -18 -4 -6 -4 27 0 33 2 48 4 33 2 -15 2 -42 0 -60z m10460
-60 c-2 -24 -4 -5 -4 42 0 47 2 66 4 43 2 -24 2 -62 0 -85z m-6870 -130 c-1
-46 -3 -11 -3 77 0 88 2 125 3 83 2 -42 2 -114 0 -160z m-3580 60 c-2 -18 -4
-6 -4 27 0 33 2 48 4 33 2 -15 2 -42 0 -60z m6770 -180 c-1 -46 -3 -11 -3 77
0 88 2 125 3 83 2 -42 2 -114 0 -160z m3690 70 c-2 -24 -4 -7 -4 37 0 44 2 63
4 43 2 -21 2 -57 0 -80z m-10450 -15 c-2 -16 -4 -3 -4 27 0 30 2 43 4 28 2
-16 2 -40 0 -55z m10 -130 c-2 -16 -4 -3 -4 27 0 30 2 43 4 28 2 -16 2 -40 0
-55z m10450 -45 c-2 -24 -4 -7 -4 37 0 44 2 63 4 43 2 -21 2 -57 0 -80z
m-6880 -135 c-1 -43 -3 -8 -3 77 0 85 2 120 3 78 2 -43 2 -113 0 -155z m-3560
50 c-2 -16 -4 -3 -4 27 0 30 2 43 4 28 2 -16 2 -40 0 -55z m6750 -175 c-1 -46
-3 -11 -3 77 0 88 2 125 3 83 2 -42 2 -114 0 -160z m3700 80 c-2 -24 -4 -7 -4
37 0 44 2 63 4 43 2 -21 2 -57 0 -80z m-10440 -30 c-2 -18 -4 -6 -4 27 0 33 2
48 4 33 2 -15 2 -42 0 -60z m10 -130 c-2 -18 -4 -6 -4 27 0 33 2 48 4 33 2
-15 2 -42 0 -60z m10440 -30 c-2 -24 -4 -7 -4 37 0 44 2 63 4 43 2 -21 2 -57
0 -80z m-6890 -135 c-1 -43 -3 -8 -3 77 0 85 2 120 3 78 2 -43 2 -113 0 -155z
m-3540 40 c-2 -16 -4 -3 -4 27 0 30 2 43 4 28 2 -16 2 -40 0 -55z m6730 -170
c-1 -43 -3 -8 -3 77 0 85 2 120 3 78 2 -43 2 -113 0 -155z m3710 75 c-2 -24
-4 -7 -4 37 0 44 2 63 4 43 2 -21 2 -57 0 -80z m-10430 -35 c-2 -16 -4 -3 -4
27 0 30 2 43 4 28 2 -16 2 -40 0 -55z m10440 -155 c-2 -24 -4 -5 -4 42 0 47 2
66 4 43 2 -24 2 -62 0 -85z m-10430 25 c-2 -16 -4 -3 -4 27 0 30 2 43 4 28 2
-16 2 -40 0 -55z m3530 -155 c-1 -46 -3 -11 -3 77 0 88 2 125 3 83 2 -42 2
-114 0 -160z m-3520 30 c-2 -18 -4 -6 -4 27 0 33 2 48 4 33 2 -15 2 -42 0 -60z
m6710 -160 c-1 -46 -3 -11 -3 77 0 88 2 125 3 83 2 -42 2 -114 0 -160z m3720
80 c-2 -24 -4 -7 -4 37 0 44 2 63 4 43 2 -21 2 -57 0 -80z m-10420 -50 c-2
-18 -4 -6 -4 27 0 33 2 48 4 33 2 -15 2 -42 0 -60z m10430 -140 c-2 -24 -4 -7
-4 37 0 44 2 63 4 43 2 -21 2 -57 0 -80z m-6910 -140 c-1 -46 -3 -11 -3 77 0
88 2 125 3 83 2 -42 2 -114 0 -160z m-3510 155 c-2 -16 -4 -5 -4 22 0 28 2 40
4 28 2 -13 2 -35 0 -50z m147 26 c61 -9 81 -10 84 -1 3 9 61 12 208 12 l205 0
-3 -97 -3 -98 -307 -3 -308 -2 0 106 c0 105 0 106 23 101 12 -3 58 -11 101
-18z m3520 0 c61 -9 81 -10 84 -1 3 9 56 12 188 12 l184 0 0 -349 c0 -258 -3
-350 -12 -353 -11 -4 -1 -103 19 -185 l5 -23 -296 0 -296 0 0 461 0 461 23 -5
c12 -3 58 -11 101 -18z m3033 -301 c-1 -46 -3 -11 -3 77 0 88 2 125 3 83 2
-42 2 -114 0 -160z m3730 70 c-2 -24 -4 -7 -4 37 0 44 2 63 4 43 2 -21 2 -57
0 -80z m-10712 14 c-3 -3 -11 0 -18 7 -9 10 -8 11 6 5 10 -3 15 -9 12 -12z
m388 1 c-7 -2 -19 -2 -25 0 -7 3 -2 5 12 5 14 0 19 -2 13 -5z m-343 -13 c8 -5
11 -10 5 -10 -5 0 -17 5 -25 10 -8 5 -10 10 -5 10 6 0 17 -5 25 -10z m403 3
c-7 -2 -21 -2 -30 0 -10 3 -4 5 12 5 17 0 24 -2 18 -5z m50 -10 c-7 -2 -19 -2
-25 0 -7 3 -2 5 12 5 14 0 19 -2 13 -5z m-403 -13 c8 -5 11 -10 5 -10 -5 0
-17 5 -25 10 -8 5 -10 10 -5 10 6 0 17 -5 25 -10z m453 3 c-7 -2 -19 -2 -25 0
-7 3 -2 5 12 5 14 0 19 -2 13 -5z m60 -10 c-7 -2 -19 -2 -25 0 -7 3 -2 5 12 5
14 0 19 -2 13 -5z m-463 -13 c8 -5 11 -10 5 -10 -5 0 -17 5 -25 10 -8 5 -10
10 -5 10 6 0 17 -5 25 -10z m513 3 c-7 -2 -19 -2 -25 0 -7 3 -2 5 12 5 14 0
19 -2 13 -5z m60 -10 c-7 -2 -21 -2 -30 0 -10 3 -4 5 12 5 17 0 24 -2 18 -5z
m-523 -13 c8 -5 11 -10 5 -10 -5 0 -17 5 -25 10 -8 5 -10 10 -5 10 6 0 17 -5
25 -10z m573 3 c-7 -2 -19 -2 -25 0 -7 3 -2 5 12 5 14 0 19 -2 13 -5z m60 -10
c-7 -2 -21 -2 -30 0 -10 3 -4 5 12 5 17 0 24 -2 18 -5z m-583 -13 c8 -5 11
-10 5 -10 -5 0 -17 5 -25 10 -8 5 -10 10 -5 10 6 0 17 -5 25 -10z m633 3 c-7
-2 -19 -2 -25 0 -7 3 -2 5 12 5 14 0 19 -2 13 -5z m9844 -115 c-2 -24 -4 -5
-4 42 0 47 2 66 4 43 2 -24 2 -62 0 -85z m-10437 92 c0 -6 -58 -9 -157 -8
l-158 2 150 6 c83 3 153 7 158 8 4 1 7 -2 7 -8z m715 0 c4 -6 -7 -10 -24 -10
-17 0 -31 5 -31 10 0 6 11 10 24 10 14 0 28 -4 31 -10z m-1005 -65 c0 -5 -5
-3 -10 5 -5 8 -10 20 -10 25 0 6 5 3 10 -5 5 -8 10 -19 10 -25z m534 -43 l188
-67 74 -194 c41 -107 73 -195 72 -197 -2 -1 -127 -4 -278 -5 l-275 -4 -3 273
c-2 258 -1 273 15 268 10 -4 103 -37 207 -74z m373 26 c-3 -7 -5 -2 -5 12 0
14 2 19 5 13 2 -7 2 -19 0 -25z m-838 -133 c0 -5 -13 15 -29 45 -16 30 -29 60
-29 65 0 6 13 -15 29 -45 16 -30 29 -59 29 -65z m848 93 c-3 -8 -6 -5 -6 6 -1
11 2 17 5 13 3 -3 4 -12 1 -19z m9820 -150 c-2 -24 -4 -7 -4 37 0 44 2 63 4
43 2 -21 2 -57 0 -80z m-10598 -93 c0 -5 -13 15 -29 45 -16 30 -29 60 -29 65
0 6 13 -15 29 -45 16 -30 29 -59 29 -65z m829 30 c0 -16 -2 -15 -8 5 -4 14 -8
34 -8 45 0 16 2 15 8 -5 4 -14 8 -34 8 -45z m9779 -127 c-2 -24 -4 -7 -4 37 0
44 2 63 4 43 2 -21 2 -57 0 -80z m-10538 -53 c0 -5 -13 15 -29 45 -16 30 -29
60 -29 65 0 6 13 -15 29 -45 16 -30 29 -59 29 -65z m789 50 c0 -16 -2 -15 -8
5 -4 14 -8 34 -8 45 0 16 2 15 8 -5 4 -14 8 -34 8 -45z m9 -47 c-3 -8 -6 -5
-6 6 -1 11 2 17 5 13 3 -3 4 -12 1 -19z m9750 -130 c-2 -24 -4 -7 -4 37 0 44
2 63 4 43 2 -21 2 -57 0 -80z m-10478 -23 c0 -5 -11 10 -24 35 -13 25 -24 50
-24 55 0 6 11 -10 24 -35 13 -25 24 -49 24 -55z m3489 73 c-25 -7 -43 -6 -55
1 -14 8 -6 10 37 10 55 -1 55 -1 18 -11z m3200 5 c-15 -2 -42 -2 -60 0 -18 2
-6 4 27 4 33 0 48 -2 33 -4z m-6250 -20 c-21 -2 -55 -2 -75 0 -21 2 -4 4 37 4
41 0 58 -2 38 -4z m3085 0 c-7 -2 -19 -2 -25 0 -7 3 -2 5 12 5 14 0 19 -2 13
-5z m1865 0 c-16 -2 -40 -2 -55 0 -16 2 -3 4 27 4 30 0 43 -2 28 -4z m-4770
-10 c-21 -2 -55 -2 -75 0 -21 2 -4 4 37 4 41 0 58 -2 38 -4z m2965 0 c-7 -2
-21 -2 -30 0 -10 3 -4 5 12 5 17 0 24 -2 18 -5z m1925 0 c-16 -2 -40 -2 -55 0
-16 2 -3 4 27 4 30 0 43 -2 28 -4z m-4710 -10 c-21 -2 -57 -2 -80 0 -24 2 -7
4 37 4 44 0 63 -2 43 -4z m2835 0 c-7 -2 -19 -2 -25 0 -7 3 -2 5 12 5 14 0 19
-2 13 -5z m1995 0 c-16 -2 -40 -2 -55 0 -16 2 -3 4 27 4 30 0 43 -2 28 -4z
m-4650 -10 c-21 -2 -57 -2 -80 0 -24 2 -7 4 37 4 44 0 63 -2 43 -4z m2705 0
c-7 -2 -19 -2 -25 0 -7 3 -2 5 12 5 14 0 19 -2 13 -5z m2065 0 c-16 -2 -40 -2
-55 0 -16 2 -3 4 27 4 30 0 43 -2 28 -4z m-4590 -10 c-21 -2 -57 -2 -80 0 -24
2 -7 4 37 4 44 0 63 -2 43 -4z m2575 0 c-7 -2 -19 -2 -25 0 -7 3 -2 5 12 5 14
0 19 -2 13 -5z m2145 0 c-16 -2 -40 -2 -55 0 -16 2 -3 4 27 4 30 0 43 -2 28
-4z m-4540 -10 c-21 -2 -57 -2 -80 0 -24 2 -7 4 37 4 44 0 63 -2 43 -4z m2445
0 c-7 -2 -19 -2 -25 0 -7 3 -2 5 12 5 14 0 19 -2 13 -5z m2215 0 c-16 -2 -40
-2 -55 0 -16 2 -3 4 27 4 30 0 43 -2 28 -4z m-4480 -10 c-21 -2 -57 -2 -80 0
-24 2 -7 4 37 4 44 0 63 -2 43 -4z m2315 0 c-7 -2 -19 -2 -25 0 -7 3 -2 5 12
5 14 0 19 -2 13 -5z m2285 0 c-16 -2 -40 -2 -55 0 -16 2 -3 4 27 4 30 0 43 -2
28 -4z m-4430 -10 c-21 -2 -55 -2 -75 0 -21 2 -4 4 37 4 41 0 58 -2 38 -4z
m2205 0 c-7 -2 -19 -2 -25 0 -7 3 -2 5 12 5 14 0 19 -2 13 -5z m2345 0 c-16
-2 -40 -2 -55 0 -16 2 -3 4 27 4 30 0 43 -2 28 -4z m-4360 -10 c-21 -2 -57 -2
-80 0 -24 2 -7 4 37 4 44 0 63 -2 43 -4z m2065 0 c-7 -2 -19 -2 -25 0 -7 3 -2
5 12 5 14 0 19 -2 13 -5z m2415 0 c-16 -2 -40 -2 -55 0 -16 2 -3 4 27 4 30 0
43 -2 28 -4z m-4310 -10 c-21 -2 -55 -2 -75 0 -21 2 -4 4 37 4 41 0 58 -2 38
-4z m1945 0 c-7 -2 -19 -2 -25 0 -7 3 -2 5 12 5 14 0 19 -2 13 -5z m2490 0
c-13 -2 -35 -2 -50 0 -16 2 -5 4 22 4 28 0 40 -2 28 -4z m226 -19 c2 -2 -20
-4 -50 -4 l-54 -1 45 -42 c46 -43 28 -33 -22 12 -44 39 -37 51 25 44 28 -3 54
-7 56 -9z m-6771 -1 c-42 -2 -114 -2 -160 0 -46 1 -11 3 77 3 88 0 125 -2 83
-3z m1960 0 c-15 -2 -42 -2 -60 0 -18 2 -6 4 27 4 33 0 48 -2 33 -4z m8589
-115 c-2 -24 -4 -7 -4 37 0 44 2 63 4 43 2 -21 2 -57 0 -80z m-10751 40 c8
-16 13 -28 10 -28 -5 0 -46 69 -46 78 0 8 15 -13 36 -50z m513 -26 l193 -67
73 -193 c50 -131 70 -195 62 -198 -7 -2 -131 -3 -277 -2 l-265 3 -3 263 c-2
206 0 262 10 262 7 0 100 -31 207 -68z m378 26 c-3 -8 -6 -5 -6 6 -1 11 2 17
5 13 3 -3 4 -12 1 -19z m10 -40 c-3 -8 -6 -5 -6 6 -1 11 2 17 5 13 3 -3 4 -12
1 -19z m-867 -18 c6 -11 8 -20 6 -20 -3 0 -10 9 -16 20 -6 11 -8 20 -6 20 3 0
10 -9 16 -20z m877 -22 c-3 -8 -6 -5 -6 6 -1 11 2 17 5 13 3 -3 4 -12 1 -19z
m-822 -73 c16 -27 24 -45 18 -40 -6 6 -23 33 -38 60 -16 28 -24 46 -18 40 6
-5 23 -32 38 -60z m843 -10 c0 -16 -2 -15 -8 5 -4 14 -8 34 -8 45 0 16 2 15 8
-5 4 -14 8 -34 8 -45z m9829 -67 c-2 -24 -4 -7 -4 37 0 44 2 63 4 43 2 -21 2
-57 0 -80z m-8670 -15 c-2 -16 -4 -5 -4 22 0 28 2 40 4 28 2 -13 2 -35 0 -50z
m-1150 35 c-3 -8 -6 -5 -6 6 -1 11 2 17 5 13 3 -3 4 -12 1 -19z m-807 -18 c6
-11 8 -20 6 -20 -3 0 -10 9 -16 20 -6 11 -8 20 -6 20 3 0 10 -9 16 -20z m817
-22 c-3 -8 -6 -5 -6 6 -1 11 2 17 5 13 3 -3 4 -12 1 -19z m-762 -73 c16 -27
24 -45 18 -40 -6 6 -23 33 -38 60 -16 28 -24 46 -18 40 6 -5 23 -32 38 -60z
m783 -10 c0 -16 -2 -15 -8 5 -4 14 -8 34 -8 45 0 16 2 15 8 -5 4 -14 8 -34 8
-45z m1129 -32 c-2 -16 -4 -3 -4 27 0 30 2 43 4 28 2 -16 2 -40 0 -55z m8670
-55 c-2 -24 -4 -5 -4 42 0 47 2 66 4 43 2 -24 2 -62 0 -85z m-9790 40 c-3 -8
-6 -5 -6 6 -1 11 2 17 5 13 3 -3 4 -12 1 -19z m-747 -18 c6 -11 8 -20 6 -20
-3 0 -10 9 -16 20 -6 11 -8 20 -6 20 3 0 10 -9 16 -20z m757 -22 c-3 -8 -6 -5
-6 6 -1 11 2 17 5 13 3 -3 4 -12 1 -19z m1120 -65 c-2 -16 -4 -3 -4 27 0 30 2
43 4 28 2 -16 2 -40 0 -55z m-1847 37 c6 -11 8 -20 6 -20 -3 0 -10 9 -16 20
-6 11 -8 20 -6 20 3 0 10 -9 16 -20z m-130 -50 l-145 -5 138 -54 c76 -30 140
-58 143 -63 3 -4 -66 -7 -153 -6 l-158 2 142 6 143 5 -140 55 c-77 30 -140 58
-140 63 0 4 71 6 158 5 l157 -2 -145 -6z m838 3 c-15 -2 -42 -2 -60 0 -18 2
-6 4 27 4 33 0 48 -2 33 -4z m9809 -105 c-2 -24 -4 -7 -4 37 0 44 2 63 4 43 2
-21 2 -57 0 -80z m-10420 96 c-3 -3 -12 -4 -19 -1 -8 3 -5 6 6 6 11 1 17 -2
13 -5z m56 -11 c-7 -2 -21 -2 -30 0 -10 3 -4 5 12 5 17 0 24 -2 18 -5z m50
-10 c-7 -2 -19 -2 -25 0 -7 3 -2 5 12 5 14 0 19 -2 13 -5z m60 -10 c-7 -2 -21
-2 -30 0 -10 3 -4 5 12 5 17 0 24 -2 18 -5z m1594 -60 c-2 -16 -4 -5 -4 22 0
28 2 40 4 28 2 -13 2 -35 0 -50z m-1544 50 c-7 -2 -19 -2 -25 0 -7 3 -2 5 12
5 14 0 19 -2 13 -5z m50 -10 c-7 -2 -19 -2 -25 0 -7 3 -2 5 12 5 14 0 19 -2
13 -5z m60 -10 c-7 -2 -19 -2 -25 0 -7 3 -2 5 12 5 14 0 19 -2 13 -5z m50 -10
c-7 -2 -19 -2 -25 0 -7 3 -2 5 12 5 14 0 19 -2 13 -5z m60 -10 c-7 -2 -21 -2
-30 0 -10 3 -4 5 12 5 17 0 24 -2 18 -5z m50 -10 c-7 -2 -19 -2 -25 0 -7 3 -2
5 12 5 14 0 19 -2 13 -5z m60 -10 c-7 -2 -21 -2 -30 0 -10 3 -4 5 12 5 17 0
24 -2 18 -5z m44 -9 c-3 -3 -12 -4 -19 -1 -8 3 -5 6 6 6 11 1 17 -2 13 -5z
m53 -994 l0 -980 -250 0 c-203 0 -250 3 -250 13 0 12 -15 12 -87 0 -49 -8 -95
-17 -103 -20 -8 -4 30 -14 85 -23 81 -13 101 -14 103 -3 3 10 56 13 253 13
l249 0 0 -145 c0 -121 -2 -145 -15 -145 -10 0 -13 -8 -9 -27 3 -16 11 -63 18
-105 l13 -78 -359 0 -358 0 2 803 3 802 55 5 55 5 3 224 c2 156 -1 228 -9 237
-7 8 -31 14 -60 14 l-49 0 0 195 0 195 355 0 355 0 0 -980z m-842 728 c56 -70
102 -130 102 -133 0 -4 -67 77 -150 179 -82 103 -150 189 -150 192 0 6 55 -60
198 -238z m1969 165 c-2 -16 -4 -5 -4 22 0 28 2 40 4 28 2 -13 2 -35 0 -50z
m8660 -75 c-2 -24 -4 -7 -4 37 0 44 2 63 4 43 2 -21 2 -57 0 -80z m-8650 -45
c-2 -16 -4 -5 -4 22 0 28 2 40 4 28 2 -13 2 -35 0 -50z m10 -120 c-2 -16 -4
-3 -4 27 0 30 2 43 4 28 2 -16 2 -40 0 -55z m10 -120 c-2 -16 -4 -3 -4 27 0
30 2 43 4 28 2 -16 2 -40 0 -55z m5371 20 c-15 -2 -42 -2 -60 0 -18 2 -6 4 27
4 33 0 48 -2 33 -4z m-7213 -353 c35 -38 17 -23 -43 35 -57 55 -149 150 -204
210 -91 99 -87 95 43 -35 79 -80 171 -174 204 -210z m6765 260 c99 -50 180
-92 180 -95 0 -5 -359 172 -369 181 -15 14 31 -7 189 -86z m588 83 c-15 -2
-42 -2 -60 0 -18 2 -6 4 27 4 33 0 48 -2 33 -4z m2972 -198 c113 -113 203
-205 200 -205 -3 0 -97 92 -210 205 -113 113 -203 205 -200 205 3 0 97 -92
210 -205z m-2832 188 c-15 -2 -42 -2 -60 0 -18 2 -6 4 27 4 33 0 48 -2 33 -4z
m140 -10 c-15 -2 -42 -2 -60 0 -18 2 -6 4 27 4 33 0 48 -2 33 -4z m140 -10
c-15 -2 -42 -2 -60 0 -18 2 -6 4 27 4 33 0 48 -2 33 -4z m140 -10 c-15 -2 -42
-2 -60 0 -18 2 -6 4 27 4 33 0 48 -2 33 -4z m140 -10 c-15 -2 -42 -2 -60 0
-18 2 -6 4 27 4 33 0 48 -2 33 -4z m-6201 -70 c-2 -16 -4 -5 -4 22 0 28 2 40
4 28 2 -13 2 -35 0 -50z m6341 60 c-15 -2 -42 -2 -60 0 -18 2 -6 4 27 4 33 0
48 -2 33 -4z m140 -10 c-15 -2 -42 -2 -60 0 -18 2 -6 4 27 4 33 0 48 -2 33 -4z
m140 -10 c-15 -2 -42 -2 -60 0 -18 2 -6 4 27 4 33 0 48 -2 33 -4z m140 -10
c-15 -2 -42 -2 -60 0 -18 2 -6 4 27 4 33 0 48 -2 33 -4z m140 -10 c-15 -2 -42
-2 -60 0 -18 2 -6 4 27 4 33 0 48 -2 33 -4z m140 -10 c-15 -2 -42 -2 -60 0
-18 2 -6 4 27 4 33 0 48 -2 33 -4z m140 -10 c-15 -2 -42 -2 -60 0 -18 2 -6 4
27 4 33 0 48 -2 33 -4z m140 -10 c-15 -2 -42 -2 -60 0 -18 2 -6 4 27 4 33 0
48 -2 33 -4z m140 -10 c-15 -2 -42 -2 -60 0 -18 2 -6 4 27 4 33 0 48 -2 33 -4z
m140 -10 c-15 -2 -42 -2 -60 0 -18 2 -6 4 27 4 33 0 48 -2 33 -4z m135 -10
c-18 -2 -48 -2 -65 0 -18 2 -4 4 32 4 36 0 50 -2 33 -4z m140 -10 c-18 -2 -48
-2 -65 0 -18 2 -4 4 32 4 36 0 50 -2 33 -4z m-7866 -70 c-2 -16 -4 -5 -4 22 0
28 2 40 4 28 2 -13 2 -35 0 -50z m8006 60 c-18 -2 -48 -2 -65 0 -18 2 -4 4 32
4 36 0 50 -2 33 -4z m-3106 -23 l-198 -5 190 -95 c105 -52 189 -96 187 -98 -7
-6 -386 188 -386 198 0 6 73 9 203 8 l202 -2 -198 -6z m58 -390 c82 -82 147
-150 145 -150 -3 0 -73 68 -155 150 -82 83 -147 150 -145 150 3 0 73 -67 155
-150z m-7168 68 c-3 -7 -5 -2 -5 12 0 14 2 19 5 13 2 -7 2 -19 0 -25z m10 -50
c-3 -7 -5 -2 -5 12 0 14 2 19 5 13 2 -7 2 -19 0 -25z m10 -40 c-3 -8 -6 -5 -6
6 -1 11 2 17 5 13 3 -3 4 -12 1 -19z m10 -50 c-3 -7 -5 -2 -5 12 0 14 2 19 5
13 2 -7 2 -19 0 -25z m10 -50 c-3 -7 -5 -2 -5 12 0 14 2 19 5 13 2 -7 2 -19 0
-25z m10 -50 c-3 -7 -5 -2 -5 12 0 14 2 19 5 13 2 -7 2 -19 0 -25z m10 -50
c-3 -7 -5 -2 -5 12 0 14 2 19 5 13 2 -7 2 -19 0 -25z m10 -50 c-3 -7 -5 -2 -5
12 0 14 2 19 5 13 2 -7 2 -19 0 -25z m10 -50 c-3 -7 -5 -2 -5 12 0 14 2 19 5
13 2 -7 2 -19 0 -25z m10 -50 c-3 -7 -5 -2 -5 12 0 14 2 19 5 13 2 -7 2 -19 0
-25z m10 -50 c-3 -7 -5 -2 -5 12 0 14 2 19 5 13 2 -7 2 -19 0 -25z m10 -50
c-3 -7 -5 -2 -5 12 0 14 2 19 5 13 2 -7 2 -19 0 -25z m10 -50 c-3 -7 -5 -2 -5
12 0 14 2 19 5 13 2 -7 2 -19 0 -25z m10 -50 c-3 -7 -5 -2 -5 12 0 14 2 19 5
13 2 -7 2 -19 0 -25z m10 -40 c-3 -8 -6 -5 -6 6 -1 11 2 17 5 13 3 -3 4 -12 1
-19z m10 -50 c-3 -7 -5 -2 -5 12 0 14 2 19 5 13 2 -7 2 -19 0 -25z m10 -50
c-3 -7 -5 -2 -5 12 0 14 2 19 5 13 2 -7 2 -19 0 -25z m10 -50 c-3 -7 -5 -2 -5
12 0 14 2 19 5 13 2 -7 2 -19 0 -25z m973 2 c28 -52 -14 -129 -46 -86 -17 24
-19 92 -1 99 24 10 36 7 47 -13z m-963 -52 c-3 -7 -5 -2 -5 12 0 14 2 19 5 13
2 -7 2 -19 0 -25z m10 -50 c-3 -7 -5 -2 -5 12 0 14 2 19 5 13 2 -7 2 -19 0
-25z m10 -50 c-3 -7 -5 -2 -5 12 0 14 2 19 5 13 2 -7 2 -19 0 -25z m10 -50
c-3 -7 -5 -2 -5 12 0 14 2 19 5 13 2 -7 2 -19 0 -25z m1920 -40 c-3 -7 -5 -2
-5 12 0 14 2 19 5 13 2 -7 2 -19 0 -25z m-1910 -10 c-3 -7 -5 -2 -5 12 0 14 2
19 5 13 2 -7 2 -19 0 -25z m1920 -45 c-3 -10 -5 -4 -5 12 0 17 2 24 5 18 2 -7
2 -21 0 -30z m-1910 -5 c-3 -7 -5 -2 -5 12 0 14 2 19 5 13 2 -7 2 -19 0 -25z
m10 -50 c-3 -7 -5 -2 -5 12 0 14 2 19 5 13 2 -7 2 -19 0 -25z m1910 -5 c-3
-10 -5 -4 -5 12 0 17 2 24 5 18 2 -7 2 -21 0 -30z m-1900 -45 c-3 -7 -5 -2 -5
12 0 14 2 19 5 13 2 -7 2 -19 0 -25z m1910 -15 c-3 -10 -5 -4 -5 12 0 17 2 24
5 18 2 -7 2 -21 0 -30z m-1900 -25 c-3 -8 -6 -5 -6 6 -1 11 2 17 5 13 3 -3 4
-12 1 -19z m1910 -35 c-3 -10 -5 -4 -5 12 0 17 2 24 5 18 2 -7 2 -21 0 -30z
m-1900 -15 c-3 -7 -5 -2 -5 12 0 14 2 19 5 13 2 -7 2 -19 0 -25z m1910 -45
c-3 -10 -5 -4 -5 12 0 17 2 24 5 18 2 -7 2 -21 0 -30z m-1900 -5 c-3 -7 -5 -2
-5 12 0 14 2 19 5 13 2 -7 2 -19 0 -25z m6823 -34 c0 -2 -13 2 -30 11 -16 9
-30 18 -30 21 0 2 14 -2 30 -11 17 -9 30 -18 30 -21z m-6813 -16 c-3 -7 -5 -2
-5 12 0 14 2 19 5 13 2 -7 2 -19 0 -25z m1900 0 c-3 -7 -5 -2 -5 12 0 14 2 19
5 13 2 -7 2 -19 0 -25z m5028 -51 c6 -6 -12 2 -40 18 -27 15 -54 32 -60 38 -5
6 13 -2 40 -18 28 -15 55 -32 60 -38z m95 -59 c0 -4 -71 -7 -157 -6 l-158 2
150 6 150 5 -32 18 c-18 10 -33 20 -33 23 0 3 18 -5 40 -17 22 -13 40 -26 40
-31z m-7045 -8 c-40 -10 -179 -10 -235 -1 -32 6 1 9 110 9 91 0 143 -4 125 -8z
m158 -17 c-23 -2 -64 -2 -90 0 -26 2 -7 3 42 3 50 0 71 -1 48 -3z m220 -10
c-23 -2 -64 -2 -90 0 -26 2 -7 3 42 3 50 0 71 -1 48 -3z m220 -10 c-23 -2 -64
-2 -90 0 -26 2 -7 3 42 3 50 0 71 -1 48 -3z m220 -10 c-23 -2 -64 -2 -90 0
-26 2 -7 3 42 3 50 0 71 -1 48 -3z m220 -10 c-23 -2 -64 -2 -90 0 -26 2 -7 3
42 3 50 0 71 -1 48 -3z m220 -10 c-23 -2 -64 -2 -90 0 -26 2 -7 3 42 3 50 0
71 -1 48 -3z m225 -10 c-27 -2 -69 -2 -95 0 -27 2 -5 3 47 3 52 0 74 -1 48 -3z
m215 -10 c-23 -2 -64 -2 -90 0 -26 2 -7 3 42 3 50 0 71 -1 48 -3z m225 -10
c-27 -2 -69 -2 -95 0 -27 2 -5 3 47 3 52 0 74 -1 48 -3z m220 -10 c-27 -2 -69
-2 -95 0 -27 2 -5 3 47 3 52 0 74 -1 48 -3z m220 -10 c-27 -2 -69 -2 -95 0
-27 2 -5 3 47 3 52 0 74 -1 48 -3z m220 -10 c-27 -2 -69 -2 -95 0 -27 2 -5 3
47 3 52 0 74 -1 48 -3z m220 -10 c-27 -2 -69 -2 -95 0 -27 2 -5 3 47 3 52 0
74 -1 48 -3z m220 -10 c-27 -2 -69 -2 -95 0 -27 2 -5 3 47 3 52 0 74 -1 48 -3z
m220 -10 c-27 -2 -69 -2 -95 0 -27 2 -5 3 47 3 52 0 74 -1 48 -3z m220 -10
c-27 -2 -69 -2 -95 0 -27 2 -5 3 47 3 52 0 74 -1 48 -3z m220 -10 c-27 -2 -69
-2 -95 0 -27 2 -5 3 47 3 52 0 74 -1 48 -3z m220 -10 c-27 -2 -69 -2 -95 0
-27 2 -5 3 47 3 52 0 74 -1 48 -3z m220 -10 c-27 -2 -69 -2 -95 0 -27 2 -5 3
47 3 52 0 74 -1 48 -3z m220 -10 c-27 -2 -69 -2 -95 0 -27 2 -5 3 47 3 52 0
74 -1 48 -3z m220 -10 c-27 -2 -69 -2 -95 0 -27 2 -5 3 47 3 52 0 74 -1 48 -3z
m220 -10 c-27 -2 -69 -2 -95 0 -27 2 -5 3 47 3 52 0 74 -1 48 -3z m220 -10
c-27 -2 -69 -2 -95 0 -27 2 -5 3 47 3 52 0 74 -1 48 -3z m220 -10 c-27 -2 -69
-2 -95 0 -27 2 -5 3 47 3 52 0 74 -1 48 -3z m220 -10 c-27 -2 -69 -2 -95 0
-27 2 -5 3 47 3 52 0 74 -1 48 -3z m220 -10 c-27 -2 -69 -2 -95 0 -27 2 -5 3
47 3 52 0 74 -1 48 -3z m225 -10 c-23 -2 -64 -2 -90 0 -26 2 -7 3 42 3 50 0
71 -1 48 -3z m220 -10 c-23 -2 -64 -2 -90 0 -26 2 -7 3 42 3 50 0 71 -1 48 -3z
m220 -10 c-23 -2 -64 -2 -90 0 -26 2 -7 3 42 3 50 0 71 -1 48 -3z m220 -10
c-23 -2 -64 -2 -90 0 -26 2 -7 3 42 3 50 0 71 -1 48 -3z"/>
<path d="M12085 18740 c0 -316 1 -446 2 -287 2 158 2 416 0 575 -1 158 -2 28
-2 -288z"/>
<path d="M12135 18720 c0 -305 1 -430 2 -277 2 152 2 402 0 555 -1 152 -2 27
-2 -278z"/>
<path d="M12860 18725 l0 -345 453 2 452 3 3 343 2 342 -455 0 -455 0 0 -345z
m870 5 l0 -300 -415 0 -415 0 0 300 0 300 415 0 415 0 0 -300z"/>
<path d="M12940 18725 l0 -265 375 0 375 0 0 265 0 265 -375 0 -375 0 0 -265z
m675 215 c-3 -5 -12 -10 -19 -10 -7 0 -21 -8 -32 -18 -11 -10 -66 -49 -124
-87 -58 -37 -108 -73 -112 -79 -7 -11 -58 11 -58 26 0 4 -4 8 -9 8 -11 0 -205
131 -209 142 -2 4 -10 8 -17 8 -8 0 -17 5 -20 10 -4 7 98 10 300 10 202 0 304
-3 300 -10z m-489 -94 c49 -32 91 -62 92 -67 2 -5 8 -9 13 -9 6 0 23 -10 39
-22 l29 -21 -107 -70 c-59 -38 -108 -73 -110 -78 -2 -5 -10 -9 -18 -9 -8 0
-14 -4 -14 -8 0 -8 -14 -16 -62 -40 -5 -2 -8 91 -8 207 l0 211 28 -18 c16 -9
69 -43 118 -76z m524 -116 c0 -115 -2 -210 -5 -210 -10 0 -116 70 -138 90 -11
11 -26 20 -33 20 -7 0 -14 4 -16 9 -1 5 -32 27 -66 49 l-64 40 142 96 c78 53
145 96 151 96 5 0 9 5 9 10 0 6 5 10 10 10 6 0 10 -77 10 -210z m-189 -111
c74 -51 143 -98 154 -105 16 -12 -28 -14 -300 -14 -306 1 -319 1 -292 18 15 9
27 20 27 24 0 5 4 8 9 8 9 0 202 128 211 140 6 8 30 18 46 19 6 1 71 -40 145
-90z"/>
<path d="M14350 19051 c-79 -26 -160 -100 -185 -171 -89 -244 163 -473 392
-357 129 66 188 219 138 357 -19 53 -83 123 -140 152 -43 23 -161 34 -205 19z
m162 -21 c89 -25 168 -122 183 -225 9 -55 -15 -138 -53 -191 -37 -50 -117 -94
-187 -101 -155 -16 -290 106 -290 262 0 109 72 215 171 250 47 17 125 19 176
5z"/>
<path d="M14404 18961 c-61 -26 -90 -105 -82 -221 5 -71 29 -109 81 -129 45
-17 81 -8 118 29 25 24 29 36 29 82 0 56 -16 86 -57 107 -34 17 -78 13 -107
-10 l-27 -21 6 28 c23 105 78 136 127 74 17 -21 29 -29 41 -24 23 9 21 19 -10
54 -30 33 -82 46 -119 31z m86 -188 c38 -48 6 -133 -50 -133 -29 0 -60 33 -66
70 -8 46 25 90 66 90 19 0 36 -9 50 -27z"/>
<path d="M21370 18725 l0 -345 453 2 452 3 3 343 2 342 -455 0 -455 0 0 -345z
m870 5 l0 -300 -415 0 -415 0 0 300 0 300 415 0 415 0 0 -300z"/>
<path d="M21450 18725 l0 -265 375 0 375 0 0 265 0 265 -375 0 -375 0 0 -265z
m675 215 c-3 -5 -12 -10 -19 -10 -7 0 -21 -8 -32 -18 -11 -10 -66 -49 -124
-87 -58 -37 -108 -73 -112 -79 -7 -11 -58 11 -58 26 0 4 -4 8 -9 8 -8 0 -223
142 -245 161 -6 5 127 9 298 9 202 0 305 -3 301 -10z m-505 -85 c58 -37 107
-72 108 -77 2 -4 8 -8 14 -8 6 0 23 -11 40 -25 18 -16 24 -25 15 -25 -9 0 -17
-3 -19 -7 -1 -5 -43 -35 -93 -67 -49 -32 -91 -63 -93 -68 -2 -4 -10 -8 -18 -8
-8 0 -14 -4 -14 -8 0 -8 -14 -16 -62 -40 -5 -2 -8 92 -8 208 0 168 3 210 13
203 6 -5 59 -40 117 -78z m540 -125 c0 -115 -3 -210 -6 -210 -3 0 -37 21 -76
48 -40 26 -79 52 -87 57 -9 6 -18 13 -21 16 -3 4 -34 25 -69 47 l-64 40 105
70 c58 38 121 81 140 96 19 14 40 26 46 26 7 0 12 5 12 10 0 6 5 10 10 10 6 0
10 -77 10 -210z m-170 -125 l154 -105 -318 0 c-282 0 -316 2 -302 15 8 8 19
15 25 15 6 0 11 5 11 10 0 6 4 10 9 10 9 0 202 128 211 140 6 8 30 18 46 19 5
1 79 -46 164 -104z"/>
<path d="M20880 18972 c-64 -24 -132 -95 -159 -165 -42 -113 -20 -208 67 -297
86 -87 185 -111 294 -70 74 28 122 70 157 142 57 113 37 233 -53 324 -81 80
-198 106 -306 66z m227 -32 c96 -48 143 -127 143 -239 0 -231 -287 -347 -450
-182 -213 216 36 556 307 421z"/>
<path d="M20880 18860 c0 -18 7 -20 85 -20 47 0 85 -2 85 -4 0 -3 -14 -26 -31
-51 -32 -48 -72 -151 -83 -217 -7 -36 -5 -38 19 -38 19 0 25 5 25 21 0 43 53
176 96 240 24 37 44 72 44 78 0 7 -38 11 -120 11 -113 0 -120 -1 -120 -20z"/>
<path d="M17270 16078 c-190 -73 -241 -318 -96 -464 91 -90 211 -110 324 -53
72 35 114 83 142 157 41 109 17 208 -70 294 -89 87 -188 109 -300 66z m195
-15 c110 -39 183 -154 172 -273 -24 -263 -388 -332 -502 -95 -10 22 -21 68
-23 103 -13 193 168 329 353 265z"/>
<path d="M17333 15986 c-34 -15 -53 -42 -53 -75 0 -33 34 -26 47 9 23 62 115
47 121 -20 3 -38 -3 -46 -111 -148 -30 -29 -60 -66 -66 -82 l-10 -30 120 0
c112 0 119 1 119 20 0 18 -7 20 -87 20 l-88 1 70 66 c39 36 78 77 87 92 60 90
-45 194 -149 147z"/>
<path d="M17110 13830 c-11 -11 -20 -25 -20 -31 0 -6 7 -3 16 6 9 9 28 15 43
13 53 -6 35 -93 -33 -157 -14 -14 -26 -28 -26 -32 0 -11 114 -6 122 6 14 18 9
20 -44 17 l-53 -4 36 39 c64 67 77 119 37 147 -30 21 -54 20 -78 -4z"/>
<path d="M17461 13776 c-28 -41 -51 -79 -51 -85 0 -6 19 -11 45 -11 41 0 45
-2 45 -25 0 -16 6 -25 15 -25 9 0 15 9 15 25 0 16 6 25 15 25 8 0 15 5 15 10
0 6 -7 13 -15 16 -11 5 -15 23 -15 75 0 38 -4 69 -9 69 -5 0 -32 -33 -60 -74z
m39 -21 c0 -45 0 -45 -36 -45 l-35 0 32 45 c18 25 34 45 36 45 2 0 3 -20 3
-45z"/>
<path d="M17615 13826 c-64 -64 -26 -221 49 -202 84 21 70 226 -15 226 -6 0
-21 -11 -34 -24z m59 -8 c23 -33 22 -139 -2 -168 -24 -29 -39 -20 -52 32 -16
57 3 158 30 158 5 0 16 -10 24 -22z"/>
<path d="M17262 13814 c-12 -25 -12 -25 10 -10 23 17 88 22 88 8 0 -5 -13 -48
-30 -97 -34 -101 -33 -95 -21 -95 5 0 24 44 42 98 17 53 34 103 37 110 3 9
-12 12 -55 12 -54 0 -61 -2 -71 -26z"/>
<path d="M16216 16179 c-52 -41 -20 -103 59 -115 74 -11 135 19 135 66 0 45
-40 70 -110 70 -43 0 -64 -5 -84 -21z m165 -19 c35 -19 24 -48 -23 -61 -87
-23 -194 19 -144 57 23 17 137 19 167 4z"/>
<path d="M16335 16028 c-11 -6 -25 -17 -32 -25 -10 -13 -14 -12 -32 6 -39 39
-81 21 -81 -34 0 -31 25 -65 47 -65 6 0 22 9 36 21 l27 20 22 -20 c12 -12 30
-21 39 -21 49 0 68 85 27 114 -26 19 -27 19 -53 4z m-70 -32 c19 -14 19 -14 0
-36 -25 -27 -59 -23 -63 9 -6 38 29 52 63 27z m130 -21 c0 -27 -4 -30 -34 -33
-48 -5 -60 12 -31 43 33 35 65 30 65 -10z"/>
<path d="M16247 15870 c-42 -12 -57 -29 -57 -61 0 -39 32 -69 73 -69 46 0 72
29 63 71 l-6 31 33 -19 c17 -11 38 -30 44 -44 7 -13 13 -18 13 -11 0 23 -31
69 -59 84 -37 21 -71 27 -104 18z m66 -50 c8 -32 -19 -51 -67 -48 -30 2 -42 8
-44 21 -6 30 17 47 63 47 34 0 44 -4 48 -20z"/>
<path d="M16190 15663 c0 -35 4 -41 35 -56 46 -22 55 -21 55 3 0 27 43 70 69
70 30 0 55 -43 42 -69 -14 -26 -14 -31 4 -31 11 0 15 11 15 35 0 44 -37 85
-75 85 -29 0 -85 -49 -85 -74 0 -32 -29 -3 -32 32 -4 50 -28 55 -28 5z"/>
<path d="M14087 16383 c-27 -9 -70 -36 -96 -59 -120 -108 -126 -291 -13 -407
62 -65 104 -82 202 -82 98 0 140 17 202 82 105 108 107 285 5 391 -75 78 -201
110 -300 75z m225 -40 c63 -35 110 -99 128 -174 25 -103 -28 -225 -124 -284
-45 -27 -57 -30 -135 -30 -76 0 -91 3 -134 28 -59 35 -102 93 -123 165 -19 66
-13 116 22 189 64 132 232 181 366 106z"/>
<path d="M14141 16186 c-50 -71 -81 -125 -81 -141 0 -25 1 -25 75 -25 l75 0 0
-40 c0 -36 3 -40 25 -40 23 0 25 4 25 40 0 33 3 40 20 40 15 0 20 7 20 25 0
18 -5 25 -20 25 -18 0 -20 8 -22 112 -4 152 -12 152 -117 4z m69 -46 l0 -70
-50 0 c-27 0 -50 2 -50 5 0 6 91 135 96 135 2 0 4 -31 4 -70z"/>
<path d="M13760 13830 c-11 -11 -20 -25 -20 -31 0 -6 7 -3 16 6 9 9 28 15 43
13 53 -6 35 -93 -33 -157 -14 -14 -26 -28 -26 -31 0 -10 102 -6 118 3 24 16
11 22 -40 19 l-53 -4 36 39 c64 67 77 119 37 147 -30 21 -54 20 -78 -4z"/>
<path d="M13942 13843 c-15 -6 -42 -56 -42 -78 0 -9 11 -27 24 -40 21 -21 29
-23 50 -15 17 6 26 6 26 -1 0 -21 -35 -62 -65 -75 -23 -10 -25 -13 -10 -14 42
0 101 56 111 107 15 78 -35 140 -94 116z m52 -25 c21 -30 21 -84 0 -92 -28
-11 -41 -6 -52 19 -16 35 -15 61 4 79 21 21 30 20 48 -6z"/>
<path d="M14111 13776 c-28 -41 -51 -79 -51 -85 0 -6 19 -11 45 -11 41 0 45
-2 45 -25 0 -16 6 -25 15 -25 9 0 15 9 15 25 0 16 6 25 15 25 8 0 15 5 15 10
0 6 -7 13 -15 16 -11 5 -15 23 -15 75 0 38 -4 69 -9 69 -5 0 -32 -33 -60 -74z
m39 -21 c0 -45 0 -45 -36 -45 l-35 0 32 45 c18 25 34 45 36 45 2 0 3 -20 3
-45z"/>
<path d="M14265 13826 c-64 -64 -26 -221 49 -202 84 21 70 226 -15 226 -6 0
-21 -11 -34 -24z m61 -11 c21 -32 16 -161 -6 -175 -22 -14 -34 -7 -47 31 -20
53 -1 169 27 169 5 0 17 -11 26 -25z"/>
<path d="M12753 15475 c-62 -26 -65 -87 -6 -114 34 -16 109 -14 143 4 105 54
-25 159 -137 110z m154 -37 c37 -30 -9 -58 -96 -58 -70 0 -115 26 -92 53 7 9
25 18 39 20 40 7 134 -2 149 -15z"/>
<path d="M12832 15295 c-29 -24 -29 -24 -47 -5 -24 27 -51 25 -71 -5 -21 -32
-11 -72 22 -87 20 -10 29 -8 52 9 28 20 28 20 52 1 30 -24 61 -20 79 13 19 34
8 73 -24 87 -33 15 -29 16 -63 -13z m-56 -19 c25 -19 9 -50 -29 -54 -30 -4
-46 30 -27 53 16 19 31 19 56 1z m142 -11 c1 -11 -2 -26 -7 -34 -11 -17 -56
-18 -76 -1 -14 12 -13 16 7 37 27 29 72 28 76 -2z"/>
<path d="M12710 15112 c0 -34 4 -40 37 -56 36 -17 52 -11 53 20 0 6 11 21 25
34 21 20 30 22 53 14 24 -9 27 -14 25 -53 -2 -47 20 -54 25 -8 2 19 -5 36 -27
57 -47 48 -101 36 -127 -27 -12 -29 -17 -33 -29 -23 -8 7 -15 25 -15 41 0 15
-4 31 -10 34 -6 4 -10 -9 -10 -33z"/>
<path d="M12840 14975 c0 -12 -14 -15 -70 -15 -38 0 -70 -3 -70 -7 1 -12 138
-103 155 -103 11 0 15 11 15 45 0 43 1 45 30 45 17 0 30 5 30 10 0 6 -13 10
-30 10 -20 0 -30 5 -30 15 0 8 -7 15 -15 15 -8 0 -15 -7 -15 -15z m0 -70 c0
-19 -3 -35 -6 -35 -5 0 -65 42 -88 62 -6 4 13 8 42 8 l52 0 0 -35z"/>
<path d="M12800 11155 c0 -30 5 -37 39 -54 l39 -20 7 27 c10 39 34 62 65 62
38 0 54 -22 46 -65 -8 -40 10 -50 20 -11 7 28 -18 81 -41 90 -37 14 -74 6 -94
-20 -12 -15 -21 -33 -21 -41 0 -8 -7 -13 -17 -11 -13 2 -19 14 -21 41 -4 47
-22 49 -22 2z"/>
<path d="M12800 10983 c0 -54 2 -61 26 -71 25 -12 25 -12 10 10 -17 23 -22 88
-8 88 5 0 48 -13 97 -30 101 -34 95 -33 95 -21 0 5 -44 24 -97 42 -54 17 -104
34 -110 37 -10 3 -13 -12 -13 -55z"/>
<path d="M12922 10855 c-29 -24 -29 -24 -47 -5 -24 27 -51 25 -71 -5 -21 -32
-11 -72 22 -87 20 -10 29 -8 52 9 28 20 28 20 52 1 30 -24 61 -20 79 13 19 34
8 73 -24 87 -33 15 -29 16 -63 -13z m-56 -19 c25 -19 9 -50 -29 -54 -30 -4
-46 30 -27 53 16 19 31 19 56 1z m139 -5 c12 -38 -9 -58 -55 -51 -35 5 -42 22
-19 47 27 28 65 30 74 4z"/>
<path d="M12988 10658 l5 -51 -53 42 c-28 22 -62 44 -75 47 -54 13 -92 -44
-61 -91 9 -14 21 -25 27 -25 8 0 8 5 -1 14 -15 19 -9 56 11 69 26 16 68 -1
120 -50 27 -25 50 -44 50 -42 1 2 2 30 3 62 2 45 -2 60 -15 67 -14 8 -15 3
-11 -42z"/>
<path d="M12984 10097 c-19 -10 -20 -14 -8 -25 21 -19 19 -155 -2 -176 -14
-15 -13 -16 13 -16 l28 0 -3 92 c-4 142 -3 139 -28 125z"/>
<path d="M20522 17173 c-7 -2 -17 -14 -23 -25 -10 -19 -10 -19 15 -3 21 14 29
15 41 5 21 -17 19 -58 -4 -72 -19 -12 -19 -12 1 -22 60 -31 46 -82 -22 -79
-48 2 -52 -20 -4 -25 66 -7 110 73 67 120 -13 14 -14 21 -5 30 38 38 -12 93
-66 71z"/>
<path d="M20699 17167 c-58 -44 -50 -193 11 -212 77 -24 120 136 55 201 -27
27 -42 29 -66 11z m52 -13 c9 -10 13 -43 13 -89 0 -72 -12 -105 -39 -105 -34
0 -49 145 -19 188 18 26 27 27 45 6z"/>
<path d="M20852 17164 c-35 -24 -27 -53 30 -111 44 -44 51 -56 42 -71 -14 -22
-54 -22 -68 0 -8 13 -7 26 1 48 13 34 11 37 -11 14 -21 -21 -20 -57 2 -77 23
-21 51 -22 80 -1 37 25 28 59 -28 111 -27 25 -50 52 -50 58 0 20 28 37 50 30
22 -7 26 -35 9 -66 -9 -18 -8 -19 9 -10 49 26 27 91 -32 91 -6 0 -22 -7 -34
-16z"/>
<path d="M21015 17156 c-64 -64 -26 -221 49 -202 84 21 70 226 -15 226 -6 0
-21 -11 -34 -24z m61 -11 c21 -32 16 -161 -6 -175 -22 -14 -34 -7 -47 31 -20
53 -1 169 27 169 5 0 17 -11 26 -25z"/>
<path d="M20404 16239 c-71 -27 -147 -108 -168 -179 -21 -72 -20 -118 5 -187
73 -193 318 -246 465 -99 112 112 113 283 4 396 -81 83 -200 110 -306 69z
m188 -15 c105 -35 178 -137 178 -249 -1 -106 -50 -189 -142 -234 -173 -87
-368 20 -385 209 -8 82 18 152 76 210 74 74 175 98 273 64z"/>
<path d="M20466 16145 c-35 -18 -55 -43 -56 -67 0 -27 39 -23 49 6 22 57 111
41 111 -21 0 -25 -30 -53 -58 -53 -15 0 -22 -6 -22 -19 0 -15 8 -21 32 -23 44
-4 74 -46 61 -84 -21 -62 -104 -71 -126 -14 -11 29 -39 40 -52 20 -12 -19 26
-72 62 -87 79 -33 163 18 163 99 0 34 -6 50 -25 68 l-24 23 19 25 c27 34 25
66 -7 102 -34 38 -85 48 -127 25z"/>
<path d="M21696 14839 c-69 -54 14 -135 117 -114 52 11 77 32 77 65 0 45 -40
70 -110 70 -43 0 -64 -5 -84 -21z m165 -19 c35 -19 24 -48 -23 -61 -87 -23
-194 19 -144 57 23 17 137 19 167 4z"/>
<path d="M21712 14683 c-35 -17 -52 -56 -35 -82 16 -25 54 -41 103 -41 76 0
119 34 106 84 -12 50 -108 72 -174 39z m152 -29 c25 -10 19 -43 -10 -54 -14
-6 -47 -10 -74 -10 -64 0 -100 14 -100 39 0 14 10 23 33 30 31 10 120 7 151
-5z"/>
<path d="M21815 14518 c-11 -6 -25 -17 -32 -25 -10 -13 -14 -12 -32 6 -39 39
-81 21 -81 -34 0 -31 25 -65 47 -65 6 0 22 9 36 21 l27 20 22 -20 c12 -12 29
-21 38 -21 48 0 68 86 28 114 -26 19 -27 19 -53 4z m-70 -32 c19 -14 19 -14 0
-36 -25 -27 -59 -23 -63 9 -6 38 29 52 63 27z m130 -21 c0 -27 -4 -30 -34 -33
-48 -5 -60 12 -31 43 33 35 65 30 65 -10z"/>
<path d="M21670 14320 c0 -36 4 -41 40 -60 49 -25 50 -25 50 3 0 13 10 33 23
45 48 46 111 14 85 -42 -12 -27 -7 -42 11 -31 20 12 12 70 -12 93 -42 40 -105
26 -127 -28 -16 -39 -34 -34 -38 12 -5 53 -32 59 -32 8z"/>
<path d="M18231 12378 c-7 -46 -14 -91 -17 -100 -4 -12 0 -18 10 -18 14 0 16
-119 16 -1220 l0 -1220 -1880 0 c-1530 0 -1880 2 -1880 13 0 10 -19 10 -100
-2 -55 -8 -100 -17 -100 -21 0 -4 37 -12 83 -19 45 -7 90 -14 100 -17 11 -4
17 0 17 10 0 15 180 16 1880 16 l1880 0 0 -145 c0 -125 -2 -145 -16 -145 -10
0 -14 -6 -10 -17 3 -10 10 -55 17 -100 7 -46 15 -83 19 -83 4 0 12 37 19 83 7
45 14 90 17 100 4 11 0 17 -10 17 -14 0 -16 20 -16 145 l0 145 279 0 c221 0
280 -3 283 -13 2 -11 22 -10 103 3 55 9 93 19 85 23 -8 3 -54 12 -102 20 -73
12 -88 12 -88 0 0 -10 -52 -13 -280 -13 l-280 0 0 1220 c0 1101 2 1220 16
1220 10 0 14 6 10 18 -3 9 -10 54 -17 100 -7 45 -15 82 -19 82 -4 0 -12 -37
-19 -82z"/>
<path d="M19545 12050 c-33 -33 -56 -63 -52 -67 4 -4 27 12 50 35 46 45 61 51
75 27 7 -14 10 -14 24 2 14 17 13 20 -12 40 l-27 22 -58 -59z"/>
<path d="M15357 12053 c-4 -4 14 -28 40 -55 45 -46 46 -48 28 -62 -18 -13 -19
-16 -4 -31 14 -14 17 -13 39 10 l24 26 -60 60 c-33 33 -63 56 -67 52z"/>
<path d="M17047 12053 c-4 -4 14 -28 40 -55 45 -45 46 -48 30 -66 -15 -16 -15
-21 -4 -30 11 -9 19 -6 37 13 l24 26 -60 60 c-33 33 -63 56 -67 52z"/>
<path d="M19664 12019 c-3 -6 1 -18 10 -27 15 -15 12 -20 -31 -64 -31 -32 -44
-51 -37 -58 6 -6 30 10 69 50 l59 60 -24 25 c-26 28 -35 31 -46 14z"/>
<path d="M16936 11941 c-6 -9 32 -52 92 -105 21 -18 23 -18 42 -1 11 10 20 24
20 31 0 22 -21 27 -35 8 -13 -18 -17 -16 -63 29 -29 29 -52 45 -56 38z"/>
<path d="M15240 11931 c0 -11 106 -111 118 -111 12 0 42 34 42 48 0 21 -21 24
-35 6 -13 -18 -16 -17 -57 24 -41 39 -68 53 -68 33z"/>
<path d="M13604 11759 c-71 -27 -147 -108 -168 -179 -21 -72 -20 -118 5 -187
73 -193 318 -246 465 -99 112 112 113 283 4 396 -81 83 -200 110 -306 69z
m188 -15 c105 -35 178 -137 178 -249 -1 -106 -50 -189 -142 -234 -173 -87
-368 20 -385 209 -8 82 18 152 76 210 74 74 175 98 273 64z"/>
<path d="M13616 11583 c-19 -101 -13 -117 36 -89 66 40 128 10 128 -61 0 -41
-37 -83 -75 -83 -28 0 -65 32 -65 56 0 10 -7 14 -22 12 -29 -4 -31 -17 -8 -55
40 -66 145 -66 194 0 31 41 29 117 -3 151 -32 34 -80 50 -115 36 -37 -14 -37
-14 -30 18 14 65 10 62 85 62 62 0 69 2 69 20 0 19 -7 20 -89 20 l-89 0 -16
-87z"/>
<path d="M17960 11155 c0 -30 5 -37 39 -54 l39 -20 7 27 c10 39 34 62 65 62
38 0 54 -22 46 -65 -8 -40 10 -50 20 -11 7 28 -18 81 -41 90 -37 14 -74 6 -94
-20 -12 -15 -21 -33 -21 -41 0 -8 -7 -13 -17 -11 -13 2 -19 14 -21 41 -4 47
-22 49 -22 2z"/>
<path d="M17960 10983 c0 -54 2 -61 26 -71 25 -12 25 -12 10 10 -17 23 -22 88
-8 88 5 0 48 -13 97 -30 101 -34 95 -33 95 -21 0 5 -44 24 -97 42 -54 17 -104
34 -110 37 -10 3 -13 -12 -13 -55z"/>
<path d="M16427 10933 c-27 -9 -70 -36 -96 -59 -120 -108 -126 -291 -13 -407
62 -65 104 -82 202 -82 98 0 140 17 202 82 105 108 107 285 5 391 -75 78 -201
110 -300 75z m225 -40 c63 -35 110 -99 128 -174 25 -103 -28 -225 -124 -284
-45 -27 -57 -30 -135 -30 -76 0 -91 3 -134 28 -59 35 -102 93 -123 165 -19 66
-13 116 22 189 64 132 232 181 366 106z"/>
<path d="M16505 10810 c-21 -22 -47 -42 -57 -46 -19 -6 -25 -44 -7 -44 7 0 27
9 45 21 l34 21 0 -136 0 -136 25 0 25 0 -2 177 c-2 110 -7 178 -13 180 -6 2
-28 -15 -50 -37z"/>
<path d="M18082 10855 c-29 -24 -29 -24 -47 -5 -24 27 -51 25 -71 -5 -21 -32
-11 -72 22 -87 20 -10 29 -8 52 9 28 20 28 20 52 1 30 -24 61 -20 79 13 19 34
8 73 -24 87 -33 15 -29 16 -63 -13z m-56 -19 c25 -19 9 -50 -29 -54 -30 -4
-46 30 -27 53 16 19 31 19 56 1z m139 -5 c12 -38 -9 -58 -55 -51 -35 5 -42 22
-19 47 27 28 65 30 74 4z"/>
<path d="M18148 10658 l5 -52 -53 42 c-29 23 -63 45 -76 48 -53 13 -91 -44
-60 -91 9 -14 21 -25 27 -25 8 0 8 5 -1 14 -15 19 -9 56 11 69 26 16 68 -1
120 -50 27 -25 50 -44 50 -42 1 2 2 30 3 62 2 45 -2 60 -15 67 -14 8 -15 3
-11 -42z"/>
<path d="M14756 10551 c-36 -36 -56 -64 -51 -71 5 -8 23 4 57 37 46 45 50 47
63 29 14 -19 35 -14 35 8 0 7 -10 22 -23 34 l-23 22 -58 -59z"/>
<path d="M14882 10518 c-9 -9 -8 -16 4 -29 15 -16 12 -21 -30 -65 -25 -25 -43
-51 -40 -56 4 -6 34 17 68 51 l61 61 -26 25 c-19 20 -27 23 -37 13z"/>
<path d="M19816 10231 c-49 -49 -64 -71 -55 -77 9 -5 28 10 60 46 47 53 48 54
68 36 17 -15 23 -17 36 -6 12 10 13 16 4 26 -6 8 -16 11 -22 7 -5 -3 -7 -1 -4
4 4 6 1 16 -6 22 -10 8 -29 -6 -81 -58z m74 33 c0 -8 -4 -12 -10 -9 -5 3 -10
10 -10 16 0 5 5 9 10 9 6 0 10 -7 10 -16z"/>
<path d="M19951 10197 c-8 -11 -6 -18 11 -33 19 -17 21 -17 15 -1 -4 9 -2 17
3 17 5 0 9 -11 8 -24 -1 -14 -5 -23 -8 -21 -4 2 -26 -16 -50 -40 -24 -25 -40
-45 -35 -45 6 0 3 -5 -5 -10 -8 -5 -10 -10 -5 -10 6 1 39 29 75 65 l64 64 -24
26 c-27 29 -33 30 -49 12z"/>
<path d="M13299 10097 c-58 -44 -50 -193 11 -212 77 -24 120 136 55 201 -27
27 -42 29 -66 11z m52 -13 c9 -10 13 -43 13 -89 0 -72 -12 -105 -39 -105 -34
0 -49 145 -19 188 18 26 27 27 45 6z"/>
<path d="M13455 10086 c-64 -64 -26 -221 49 -202 84 21 70 226 -15 226 -6 0
-21 -11 -34 -24z m59 -8 c23 -33 22 -139 -2 -168 -24 -29 -39 -20 -52 32 -16
57 3 158 30 158 5 0 16 -10 24 -22z"/>
<path d="M16381 10036 c-28 -41 -51 -79 -51 -85 0 -6 19 -11 44 -11 41 0 45
-2 48 -27 4 -34 22 -33 26 2 2 14 10 25 18 25 19 0 18 19 -1 26 -11 5 -15 23
-15 75 0 38 -4 69 -9 69 -5 0 -32 -33 -60 -74z m39 -21 c0 -45 0 -45 -36 -45
l-35 0 32 45 c18 25 34 45 36 45 2 0 3 -20 3 -45z"/>
<path d="M16532 10094 c-12 -8 -22 -20 -22 -26 0 -7 5 -6 14 2 19 15 56 9 69
-11 16 -26 -1 -68 -48 -118 -25 -27 -45 -50 -45 -52 0 -4 100 -4 121 0 4 0 9
7 12 14 4 11 -6 13 -46 9 l-52 -5 36 44 c64 79 72 106 39 139 -24 24 -48 25
-78 4z"/>
<path d="M16702 10094 c-35 -24 -27 -53 30 -111 44 -44 51 -56 42 -71 -14 -22
-54 -22 -68 0 -8 13 -7 26 1 48 13 34 11 37 -11 14 -21 -21 -20 -57 2 -77 23
-21 51 -22 80 -1 37 25 28 59 -28 111 -27 25 -50 52 -50 58 0 20 28 37 50 30
22 -7 26 -35 9 -66 -9 -18 -8 -19 9 -10 49 26 27 91 -32 91 -6 0 -22 -7 -34
-16z"/>
<path d="M16869 10097 c-58 -44 -50 -193 11 -212 77 -24 120 136 55 201 -27
27 -42 29 -66 11z m52 -13 c9 -10 13 -43 13 -89 0 -72 -12 -105 -39 -105 -34
0 -49 145 -19 188 18 26 27 27 45 6z"/>
<path d="M1992 4911 c-1 -1845 0 -3352 4 -3349 3 3 5 155 4 337 l-1 331 3961
0 3961 0 -1 -330 c-1 -181 3 -330 7 -330 4 0 9 148 11 330 l2 330 825 0 826 0
-1 -331 c-1 -182 1 -334 4 -337 4 -3 5 1504 4 3349 -2 1845 -4 3202 -5 3017
l-3 -338 -4795 0 -4795 0 -3 338 c-1 185 -3 -1172 -5 -3017z m1248 2339 l0
-330 -620 0 -620 0 0 330 0 330 620 0 620 0 0 -330z m6680 0 l0 -330 -3330 0
-3330 0 0 330 0 330 3330 0 3330 0 0 -330z m1670 0 l0 -330 -825 0 -825 0 0
330 0 330 825 0 825 0 0 -330z m-8350 -670 l0 -330 -620 0 -620 0 0 330 0 330
620 0 620 0 0 -330z m6680 0 l0 -330 -3330 0 -3330 0 0 330 0 330 3330 0 3330
0 0 -330z m1670 0 l0 -330 -825 0 -825 0 0 330 0 330 825 0 825 0 0 -330z
m-8350 -1335 l0 -995 -620 0 -620 0 0 995 0 995 620 0 620 0 0 -995z m6680 0
l0 -995 -3330 0 -3330 0 0 995 0 995 3330 0 3330 0 0 -995z m1670 0 l0 -995
-825 0 -825 0 0 995 0 995 825 0 825 0 0 -995z m-8350 -1335 l0 -330 -620 0
-620 0 0 330 0 330 620 0 620 0 0 -330z m6680 0 l0 -330 -3330 0 -3330 0 0
330 0 330 3330 0 3330 0 0 -330z m1670 0 l0 -330 -825 0 -825 0 0 330 0 330
825 0 825 0 0 -330z m-8350 -670 l0 -330 -620 0 -620 0 0 330 0 330 620 0 620
0 0 -330z m6680 0 l0 -330 -3330 0 -3330 0 0 330 0 330 3330 0 3330 0 0 -330z
m1670 0 l0 -330 -825 0 -825 0 0 330 0 330 825 0 825 0 0 -330z m-1670 -670
l0 -330 -3960 0 -3960 0 0 330 0 330 3960 0 3960 0 0 -330z m1670 0 l0 -330
-825 0 -825 0 0 330 0 330 825 0 825 0 0 -330z"/>
<path d="M2632 7309 c-23 -17 -42 -34 -42 -38 0 -18 15 -20 37 -6 29 19 29 18
-3 -100 -24 -90 -26 -141 -5 -119 8 8 81 269 81 288 0 14 -29 4 -68 -25z"/>
<path d="M3876 7199 c-23 -89 -34 -145 -28 -151 14 -14 21 2 57 136 l32 121
63 3 c48 2 61 0 58 -10 -19 -52 -61 -238 -55 -244 14 -14 25 12 57 131 17 66
34 128 36 138 5 15 -4 17 -89 17 l-94 0 -37 -141z"/>
<path d="M6852 7328 c3 -7 21 -14 41 -16 27 -2 37 -8 37 -20 0 -29 -13 -38
-60 -40 -53 -3 -83 -31 -99 -90 -26 -92 5 -133 84 -111 42 12 51 28 86 162 28
107 23 121 -46 125 -35 2 -46 0 -43 -10z m58 -110 c-1 -20 -32 -113 -40 -124
-14 -16 -66 -19 -75 -3 -8 12 13 97 28 117 8 10 87 19 87 10z"/>
<path d="M4154 7252 c-20 -3 -23 -13 -92 -274 -3 -12 1 -18 11 -18 10 0 20 15
27 39 10 37 12 39 60 43 65 7 84 25 104 104 18 73 11 103 -27 105 -12 0 -31 2
-42 3 -11 1 -29 0 -41 -2z m83 -75 c-12 -84 -21 -97 -71 -97 -32 0 -44 4 -41
13 2 6 11 38 20 70 l16 57 41 0 41 0 -6 -43z"/>
<path d="M5340 7252 c-19 -2 -40 -8 -47 -14 -17 -14 -45 -115 -41 -151 4 -39
43 -57 87 -40 19 7 34 7 46 1 23 -14 43 5 26 26 -9 11 -8 31 8 92 11 43 19 80
17 81 -5 6 -61 8 -96 5z m60 -34 c-1 -20 -32 -113 -40 -124 -18 -21 -80 -19
-80 4 0 25 21 95 32 110 8 10 88 19 88 10z"/>
<path d="M5585 7252 c-57 -7 -87 -57 -59 -99 15 -24 15 -26 -17 -59 -22 -23
-30 -37 -23 -44 7 -7 25 5 54 35 49 50 86 61 75 23 -4 -13 -9 -30 -11 -40 -6
-21 11 -32 24 -15 12 15 57 186 50 192 -7 7 -58 11 -93 7z m53 -54 c-2 -19
-10 -24 -45 -26 -37 -3 -43 0 -43 16 0 27 8 32 52 32 35 0 39 -2 36 -22z"/>
<path d="M6388 7252 c-9 -2 -19 -11 -22 -20 -21 -68 -66 -245 -66 -257 0 -8 6
-15 14 -15 9 0 17 15 21 40 6 37 9 40 39 40 61 0 93 18 111 62 24 60 30 121
13 135 -14 12 -81 21 -110 15z m87 -69 c-4 -21 -13 -53 -20 -70 -13 -30 -18
-33 -54 -33 -23 0 -41 3 -41 6 0 3 8 35 17 70 l17 64 44 0 44 0 -7 -37z"/>
<path d="M7244 7252 c-20 -3 -23 -13 -92 -274 -3 -12 1 -18 11 -18 10 0 20 15
27 39 10 37 12 39 60 43 65 7 84 25 104 104 18 73 11 103 -27 105 -12 0 -31 2
-42 3 -11 1 -29 0 -41 -2z m83 -75 c-12 -84 -21 -97 -71 -97 -32 0 -44 4 -41
13 2 6 11 38 20 70 l16 57 41 0 41 0 -6 -43z"/>
<path d="M4335 7173 c-24 -91 -22 -111 11 -124 30 -11 84 -12 101 -1 9 6 63
177 63 200 0 2 -8 2 -17 0 -11 -2 -23 -27 -37 -83 l-21 -80 -42 -3 c-50 -4
-52 4 -28 84 18 60 19 84 2 84 -7 0 -21 -33 -32 -77z"/>
<path d="M4570 7246 c0 -2 9 -24 19 -49 l19 -45 -39 -38 c-39 -39 -50 -64 -26
-64 7 0 26 14 42 30 35 36 43 37 51 5 7 -29 30 -50 38 -37 3 6 -2 31 -11 56
l-17 46 42 43 c23 23 42 46 42 50 0 17 -27 4 -61 -29 l-38 -37 -15 37 c-8 20
-22 36 -30 36 -9 0 -16 -2 -16 -4z"/>
<path d="M4800 7230 c-28 -28 -54 -124 -40 -149 15 -29 40 -39 78 -34 42 7 68
40 83 109 11 48 10 56 -6 74 -24 27 -88 27 -115 0z m92 -48 c-1 -18 -9 -49
-17 -68 -12 -30 -18 -34 -51 -34 l-37 0 5 45 c8 66 32 97 71 93 30 -3 32 -6
29 -36z"/>
<path d="M5000 7246 c0 -2 9 -24 19 -49 l19 -45 -39 -38 c-21 -21 -39 -44 -39
-51 0 -25 29 -12 65 29 l36 43 -3 -40 c-4 -57 14 -55 31 2 l14 48 23 -54 c18
-40 27 -52 36 -43 8 8 6 22 -6 52 -18 46 -14 59 33 104 17 17 31 33 31 38 0
19 -27 5 -68 -34 -47 -46 -46 -47 -25 25 4 14 0 18 -13 15 -12 -2 -22 -17 -27
-41 -5 -20 -12 -37 -16 -37 -5 0 -15 18 -24 40 -9 23 -22 40 -31 40 -9 0 -16
-2 -16 -4z"/>
<path d="M5912 7166 c-12 -46 -22 -91 -22 -100 0 -27 19 -18 33 17 8 17 21 38
30 46 15 12 19 8 36 -32 11 -25 24 -48 29 -51 21 -13 22 13 2 59 -11 26 -20
50 -20 54 0 4 20 22 45 40 25 18 45 36 45 42 0 19 -33 8 -73 -24 -67 -54 -68
-54 -61 -8 5 32 3 41 -8 41 -9 0 -21 -28 -36 -84z"/>
<path d="M6166 7231 c-21 -23 -45 -86 -46 -118 -1 -55 35 -78 93 -62 26 7 39
19 52 46 24 49 31 119 15 138 -19 22 -93 20 -114 -4z m87 -59 c-3 -59 -25 -92
-63 -92 -39 0 -44 13 -30 68 17 62 27 74 64 70 30 -3 31 -5 29 -46z"/>
<path d="M6564 7172 c-13 -49 -18 -87 -13 -100 9 -23 55 -36 105 -30 27 3 31
8 50 78 37 130 37 132 18 128 -12 -2 -23 -26 -38 -83 l-21 -80 -42 -3 c-50 -4
-52 3 -28 82 18 60 19 86 2 86 -7 0 -21 -33 -33 -78z"/>
<path d="M7020 7230 c-28 -28 -54 -124 -40 -149 15 -29 40 -39 78 -34 42 7 68
40 83 109 11 48 10 56 -6 74 -24 27 -88 27 -115 0z m92 -48 c-1 -18 -9 -49
-17 -68 -12 -30 -18 -34 -51 -34 l-37 0 5 45 c8 66 32 97 71 93 30 -3 32 -6
29 -36z"/>
<path d="M10562 7309 c-23 -17 -42 -34 -42 -38 0 -18 15 -20 37 -6 29 19 29
18 -3 -100 -24 -90 -26 -141 -5 -119 8 8 81 269 81 288 0 14 -29 4 -68 -25z"/>
<path d="M10706 7319 c-28 -22 -35 -49 -13 -49 8 0 22 9 32 20 24 27 69 23 73
-5 2 -13 -28 -53 -88 -120 -49 -55 -88 -104 -87 -110 2 -5 35 -10 73 -10 55 0
69 3 69 15 0 10 -14 17 -42 20 l-42 5 75 84 c75 85 86 110 64 152 -15 27 -79
26 -114 -2z"/>
<path d="M11032 7317 c-33 -35 -64 -114 -69 -177 -5 -50 -3 -60 16 -79 44 -44
108 8 140 115 23 74 26 101 11 138 -13 35 -67 36 -98 3z m73 -27 c8 -26 -20
-135 -46 -177 -27 -43 -62 -43 -67 0 -4 34 21 122 48 165 22 36 55 43 65 12z"/>
<path d="M11236 7319 c-14 -11 -26 -27 -26 -35 0 -19 7 -18 37 6 31 24 69 26
77 4 8 -21 6 -24 -92 -131 -102 -112 -103 -125 -5 -121 53 2 68 6 68 18 0 11
-13 16 -48 18 l-48 3 76 82 c84 91 95 115 71 152 -21 32 -72 34 -110 4z"/>
<path d="M10844 7075 c-7 -17 4 -37 17 -30 12 8 12 45 -1 45 -6 0 -13 -7 -16
-15z"/>
<path d="M2676 6649 c-28 -22 -35 -49 -13 -49 8 0 22 9 32 20 24 27 69 23 73
-5 2 -13 -28 -53 -88 -120 -49 -55 -88 -104 -87 -110 2 -5 35 -10 73 -10 55 0
69 3 69 15 0 10 -14 17 -42 20 l-42 5 75 84 c75 85 86 110 64 152 -15 27 -79
26 -114 -2z"/>
<path d="M3912 6641 c-21 -21 -35 -53 -52 -115 -21 -80 -22 -87 -6 -110 22
-35 49 -47 85 -40 49 10 77 45 99 120 31 107 31 110 11 143 -16 27 -24 31 -63
31 -36 0 -50 -6 -74 -29z m112 -23 c8 -13 6 -35 -7 -85 -25 -93 -44 -118 -93
-118 -35 0 -39 3 -42 26 -5 41 27 151 51 177 25 27 74 27 91 0z"/>
<path d="M4140 6664 c0 -3 11 -22 25 -42 l25 -37 -31 -8 c-23 -6 -35 -18 -49
-50 -33 -77 -34 -103 -6 -132 20 -20 31 -24 58 -19 45 8 74 43 89 108 l12 55
-36 50 -36 50 51 3 c30 2 53 8 56 16 3 9 -17 12 -77 12 -45 0 -81 -2 -81 -6z
m82 -152 c-1 -18 -9 -49 -17 -68 -12 -30 -18 -34 -51 -34 l-37 0 5 45 c8 66
32 97 71 93 30 -3 32 -6 29 -36z"/>
<path d="M4670 6582 c-19 -2 -40 -8 -47 -14 -17 -14 -45 -115 -41 -151 4 -39
43 -57 87 -40 19 7 34 7 46 1 23 -14 43 5 26 26 -9 11 -8 31 8 92 11 43 19 80
17 81 -5 6 -61 8 -96 5z m60 -34 c-1 -20 -32 -113 -40 -124 -18 -21 -80 -19
-80 4 0 25 21 95 32 110 8 10 88 19 88 10z"/>
<path d="M4913 6582 c-53 -5 -84 -72 -48 -102 14 -12 12 -17 -15 -45 -16 -17
-30 -36 -30 -43 0 -24 29 -11 63 28 19 22 42 40 51 40 15 0 17 -6 11 -39 -6
-36 6 -63 19 -42 8 12 56 194 53 197 -5 6 -72 9 -104 6z m63 -48 c-3 -9 -6
-20 -6 -25 0 -5 -20 -9 -45 -9 -30 0 -45 4 -45 13 0 23 23 37 63 37 32 0 38
-3 33 -16z"/>
<path d="M6220 6582 c-19 -2 -40 -8 -47 -14 -17 -14 -45 -115 -41 -151 2 -26
9 -33 36 -41 21 -6 40 -5 55 1 16 7 29 8 41 1 24 -14 44 5 27 26 -9 11 -8 31
8 92 11 43 19 80 17 81 -5 6 -61 8 -96 5z m60 -34 c-1 -20 -32 -113 -40 -124
-18 -21 -80 -19 -80 4 0 25 21 95 32 110 8 10 88 19 88 10z"/>
<path d="M6419 6579 c-17 -10 -62 -190 -51 -201 14 -14 25 10 47 100 18 68 20
72 47 72 33 0 33 -1 8 -91 -19 -72 -18 -101 3 -80 7 7 21 46 32 89 19 70 24
77 48 80 32 4 34 -7 11 -84 -16 -55 -16 -87 0 -88 11 -1 45 118 46 161 0 17
-5 35 -11 38 -14 9 -167 12 -180 4z"/>
<path d="M6740 6582 c-19 -2 -40 -8 -47 -14 -17 -14 -45 -115 -41 -151 4 -39
43 -57 87 -40 19 7 34 7 46 1 23 -14 43 5 26 26 -9 11 -8 31 8 92 11 43 19 80
17 81 -5 6 -61 8 -96 5z m60 -34 c-1 -20 -32 -113 -40 -124 -18 -21 -80 -19
-80 4 0 25 21 95 32 110 8 10 88 19 88 10z"/>
<path d="M4325 6523 c-30 -101 -30 -118 -4 -137 24 -17 153 -23 175 -8 10 7
54 156 54 186 0 28 -27 17 -34 -14 -3 -17 -13 -55 -22 -85 -14 -50 -18 -55
-45 -55 -16 0 -29 1 -29 3 0 1 9 34 20 72 24 83 24 95 6 95 -8 0 -22 -31 -36
-85 -22 -82 -24 -85 -51 -85 -34 0 -34 -3 -9 85 24 83 24 85 6 85 -9 0 -21
-22 -31 -57z"/>
<path d="M5256 6528 c-34 -122 -38 -140 -27 -151 10 -10 19 5 35 55 3 9 14 21
25 27 17 10 21 6 37 -34 9 -25 23 -45 30 -45 19 0 17 17 -5 67 l-19 42 44 36
c24 20 44 41 44 46 0 19 -27 7 -83 -37 -40 -31 -57 -40 -53 -27 17 59 18 73 3
73 -10 0 -21 -18 -31 -52z"/>
<path d="M5496 6561 c-21 -23 -45 -86 -46 -118 -1 -55 35 -78 93 -62 26 7 39
19 52 46 24 49 31 119 15 138 -19 22 -93 20 -114 -4z m87 -59 c-3 -63 -26 -94
-66 -90 -29 3 -32 6 -31 33 1 17 9 47 18 68 14 35 19 38 48 35 32 -3 33 -4 31
-46z"/>
<path d="M5686 6528 c-34 -120 -37 -141 -28 -150 13 -13 26 11 42 80 10 45 30
80 30 55 0 -4 9 -19 19 -32 l18 -23 36 32 36 31 -18 -66 c-11 -40 -15 -68 -9
-71 16 -10 25 7 47 89 33 121 27 131 -42 72 -22 -19 -43 -35 -47 -35 -3 0 -14
16 -24 35 -11 19 -25 35 -32 35 -7 0 -19 -24 -28 -52z"/>
<path d="M5936 6528 c-30 -109 -37 -139 -31 -148 10 -17 24 -1 35 40 11 39 12
40 56 40 42 0 45 -2 39 -22 -4 -13 -9 -31 -12 -41 -4 -14 0 -18 13 -15 13 2
24 25 40 83 27 96 29 115 10 115 -8 0 -18 -16 -23 -37 -8 -37 -10 -38 -57 -41
-42 -3 -48 -1 -42 13 17 45 18 65 3 65 -10 0 -21 -18 -31 -52z"/>
<path d="M10562 6639 c-23 -17 -42 -34 -42 -38 0 -18 15 -20 37 -6 29 19 29
18 -3 -100 -23 -89 -26 -142 -5 -119 7 8 81 269 81 287 0 15 -28 5 -68 -24z"/>
<path d="M10741 6648 c-49 -33 -68 -64 -91 -141 -21 -77 -15 -112 22 -126 58
-21 115 22 124 95 7 49 -10 73 -56 78 -23 3 -34 9 -32 17 4 20 62 68 86 71 12
2 21 8 21 13 0 19 -41 16 -74 -7z m26 -143 c3 -9 -1 -32 -9 -53 -11 -29 -20
-38 -42 -40 -40 -5 -50 9 -42 62 7 46 7 46 47 46 26 0 42 -5 46 -15z"/>
<path d="M11024 6655 c-12 -8 -27 -35 -34 -60 -18 -64 -4 -93 50 -101 22 -4
40 -10 40 -13 0 -13 -55 -60 -82 -70 -28 -10 -36 -25 -20 -35 15 -9 91 35 111
63 11 15 29 61 42 103 21 73 21 79 5 103 -13 19 -25 25 -54 25 -21 0 -47 -7
-58 -15z m82 -25 c8 -8 8 -25 1 -56 l-11 -45 -40 3 c-40 3 -41 4 -38 38 1 19
10 42 19 52 18 20 53 24 69 8z"/>
<path d="M11234 6655 c-12 -8 -27 -35 -34 -60 -18 -64 -4 -93 50 -101 22 -4
40 -10 40 -13 0 -13 -55 -60 -82 -70 -28 -10 -36 -25 -20 -35 15 -9 91 35 111
63 11 15 29 61 42 103 21 73 21 79 5 103 -13 19 -25 25 -54 25 -21 0 -47 -7
-58 -15z m82 -25 c8 -8 8 -25 1 -56 l-11 -45 -40 3 c-40 3 -41 4 -38 38 1 19
10 42 19 52 18 20 53 24 69 8z"/>
<path d="M10844 6405 c-7 -17 4 -37 17 -30 12 8 12 45 -1 45 -6 0 -13 -7 -16
-15z"/>
<path d="M2667 6003 c-16 -15 -5 -23 32 -23 54 0 71 -8 71 -36 0 -29 -35 -54
-77 -54 -23 0 -33 -5 -33 -15 0 -10 10 -15 28 -15 48 0 57 -13 43 -59 -14 -48
-34 -61 -95 -61 -34 0 -46 -4 -46 -15 0 -24 100 -20 133 5 30 24 51 80 44 118
-3 17 2 35 14 51 24 30 24 73 1 94 -19 17 -102 24 -115 10z"/>
<path d="M2651 5234 c-34 -58 -61 -112 -61 -120 0 -10 14 -14 50 -14 l50 0 -6
-30 c-5 -23 -3 -30 9 -30 9 0 18 12 22 30 5 23 12 30 31 30 15 0 24 6 24 15 0
8 -9 15 -20 15 -16 0 -19 5 -13 30 4 23 2 30 -10 30 -9 0 -18 -12 -22 -30 -6
-26 -11 -30 -42 -30 l-35 0 32 58 c18 31 43 75 56 98 22 37 23 54 3 54 -4 0
-35 -48 -68 -106z"/>
<path d="M2646 4603 c-9 -36 -13 -70 -9 -74 4 -4 28 -9 53 -11 52 -4 59 -17
36 -72 -15 -35 -16 -36 -70 -36 -55 0 -77 -13 -57 -33 7 -7 28 -7 67 -1 66 10
92 37 100 100 7 49 -10 73 -54 77 -42 5 -45 9 -34 48 8 32 11 34 62 39 83 8
77 30 -8 30 l-70 0 -16 -67z"/>
<path d="M3838 6029 c-25 -14 -37 -40 -63 -136 -27 -97 -22 -127 22 -144 37
-14 88 -8 88 11 0 10 -14 17 -45 20 -54 6 -59 18 -35 104 32 122 33 122 119
128 22 2 41 9 44 16 5 15 -104 17 -130 1z"/>
<path d="M4028 5952 c-24 -5 -77 -187 -60 -204 14 -14 25 10 47 100 l19 72 43
0 c50 0 50 0 23 -94 -11 -38 -18 -72 -15 -74 14 -14 32 14 48 71 20 78 21 101
4 115 -13 11 -81 20 -109 14z"/>
<path d="M4280 5952 c-19 -2 -40 -8 -47 -14 -17 -14 -45 -115 -41 -151 2 -26
9 -33 36 -41 21 -6 40 -5 55 1 16 7 29 8 41 1 24 -14 44 5 27 26 -9 11 -8 31
8 92 11 43 19 80 17 81 -5 6 -61 8 -96 5z m60 -34 c-1 -20 -32 -113 -40 -124
-18 -21 -80 -19 -80 4 0 25 21 95 32 110 8 10 88 19 88 10z"/>
<path d="M4548 5949 c-17 -9 -118 -171 -118 -188 0 -31 30 -2 75 74 32 54 56
85 68 85 9 0 17 -1 17 -3 0 -1 -9 -36 -20 -76 -20 -71 -20 -115 0 -95 10 10
63 194 57 200 -8 9 -66 11 -79 3z"/>
<path d="M5168 5952 c-58 -5 -91 -70 -53 -102 14 -12 12 -17 -15 -45 -16 -17
-30 -36 -30 -43 0 -24 29 -11 63 28 19 22 42 40 51 40 15 0 17 -6 11 -39 -6
-36 6 -63 19 -42 7 11 56 194 53 197 -5 5 -65 9 -99 6z m58 -48 c-3 -9 -6 -20
-6 -25 0 -5 -20 -9 -45 -9 -30 0 -45 4 -45 13 0 23 23 37 63 37 32 0 38 -3 33
-16z"/>
<path d="M4676 5898 c-30 -109 -37 -139 -31 -148 8 -13 74 -13 113 1 32 11 59
57 48 84 -6 18 -47 35 -81 35 -22 0 -23 2 -14 32 12 43 12 48 -5 48 -9 0 -20
-21 -30 -52z m97 -74 c3 -4 2 -15 -4 -25 -7 -14 -21 -19 -49 -19 -40 0 -45 5
-34 34 6 16 73 23 87 10z"/>
<path d="M4880 5855 c-13 -52 -21 -97 -18 -101 12 -12 27 7 34 41 6 34 7 35
55 35 l48 0 -11 -30 c-11 -33 -3 -69 12 -54 11 11 61 196 55 202 -12 12 -33
-11 -39 -42 -7 -35 -8 -36 -52 -36 l-44 0 6 40 c5 31 3 40 -8 40 -10 0 -22
-29 -38 -95z"/>
<path d="M3917 5333 c-7 -10 -77 -271 -77 -283 0 -6 6 -10 14 -10 8 0 20 24
30 59 11 40 24 64 41 75 28 19 28 19 50 -62 10 -34 22 -65 26 -68 24 -15 25
14 2 88 l-25 82 63 56 c42 38 59 59 51 64 -8 5 -43 -18 -92 -58 -44 -36 -81
-66 -84 -66 -2 0 2 21 10 47 8 25 14 54 14 65 0 18 -15 25 -23 11z"/>
<path d="M4136 5242 c-2 -4 -13 -42 -24 -84 -24 -95 -15 -118 49 -118 41 0 46
-8 29 -41 -8 -15 -22 -19 -60 -19 -38 0 -50 -4 -50 -15 0 -22 91 -20 119 3 26
21 96 261 81 276 -15 15 -20 5 -44 -86 l-23 -83 -41 -3 c-49 -4 -50 1 -27 88
8 30 15 63 15 73 0 17 -15 23 -24 9z"/>
<path d="M4357 5244 c-3 -4 0 -22 8 -41 22 -52 19 -65 -25 -108 -27 -26 -37
-42 -30 -49 7 -7 23 3 50 29 22 21 41 37 43 34 2 -2 9 -19 16 -36 8 -18 20
-33 27 -33 18 0 18 5 -2 57 l-17 43 43 46 c31 34 39 49 31 57 -8 8 -22 1 -51
-28 l-40 -39 -15 37 c-15 36 -25 44 -38 31z"/>
<path d="M4575 5238 c-22 -59 -51 -189 -43 -194 13 -8 21 2 33 44 10 35 13 37
57 40 l47 3 -10 -33 c-12 -45 -11 -58 4 -58 14 0 70 187 61 202 -12 19 -24 5
-35 -37 -11 -45 -11 -45 -56 -45 l-44 0 7 45 c4 31 3 45 -5 45 -6 0 -14 -6
-16 -12z"/>
<path d="M4812 5243 c-7 -3 -19 -18 -28 -35 -14 -27 -14 -32 1 -55 16 -24 16
-26 -14 -57 -17 -18 -31 -37 -31 -44 0 -25 31 -10 67 33 46 55 78 61 68 13
-11 -51 -11 -53 4 -53 9 0 22 30 37 85 33 124 34 120 -33 119 -32 0 -64 -3
-71 -6z m88 -37 c0 -35 -13 -46 -51 -46 -31 0 -39 4 -39 18 0 27 20 42 57 42
22 0 33 -5 33 -14z"/>
<path d="M3928 4659 c-25 -14 -37 -40 -63 -136 -27 -97 -22 -127 22 -144 37
-14 88 -8 88 11 0 10 -14 17 -45 20 -54 6 -59 18 -35 104 32 122 33 122 119
128 22 2 41 9 44 16 5 15 -104 17 -130 1z"/>
<path d="M4147 4536 c-53 -74 -97 -139 -97 -145 0 -32 35 3 120 121 99 138
110 158 88 158 -8 0 -58 -60 -111 -134z"/>
<path d="M4325 4618 c-20 -68 -19 -75 10 -103 18 -18 35 -25 65 -25 43 0 48
-8 30 -54 -8 -22 -16 -25 -67 -28 -44 -2 -58 -7 -58 -18 0 -36 125 -17 146 22
12 23 69 224 69 246 0 6 -6 12 -14 12 -9 0 -20 -25 -31 -70 l-17 -70 -53 0
c-63 0 -70 10 -50 77 18 60 18 63 0 63 -9 0 -20 -20 -30 -52z"/>
<path d="M10560 5971 c-44 -38 -50 -68 -9 -42 12 7 23 10 25 8 3 -2 -8 -52
-23 -110 -25 -97 -27 -135 -4 -111 9 8 81 263 81 284 0 20 -26 9 -70 -29z"/>
<path d="M10697 6003 c-17 -16 -3 -23 48 -23 30 0 55 -2 55 -5 0 -19 -48 -96
-62 -101 -13 -4 -17 -12 -13 -24 3 -11 -5 -41 -20 -71 -19 -36 -23 -55 -16
-62 13 -13 12 -15 50 61 17 34 38 62 46 62 19 0 30 19 17 32 -8 8 -2 28 18 68
16 32 26 60 23 64 -8 8 -138 8 -146 -1z"/>
<path d="M11018 5980 c-25 -26 -29 -37 -26 -68 3 -26 -1 -45 -14 -62 -28 -39
-35 -96 -13 -120 26 -28 80 -26 110 4 26 26 46 85 38 114 -2 11 5 34 16 53 26
43 26 64 1 89 -30 30 -76 26 -112 -10z m91 -14 c28 -34 -29 -90 -74 -72 -21 8
-19 42 5 66 23 23 53 26 69 6z m-35 -155 c-1 -50 -23 -74 -64 -69 -22 3 -25 7
-23 43 3 45 33 78 67 73 18 -3 21 -10 20 -47z"/>
<path d="M11285 5996 c-54 -23 -91 -77 -111 -159 -16 -71 -16 -77 0 -101 22
-35 77 -36 111 -2 30 30 47 90 35 122 -9 22 -25 30 -79 36 l-24 3 27 32 c15
18 43 38 61 45 19 6 35 18 35 25 0 16 -16 16 -55 -1z m3 -164 c9 -60 -49 -115
-84 -80 -13 12 -13 23 -3 62 11 46 12 47 48 44 29 -2 37 -7 39 -26z"/>
<path d="M10840 5730 c0 -11 7 -20 15 -20 8 0 15 9 15 20 0 11 -7 20 -15 20
-8 0 -15 -9 -15 -20z"/>
<path d="M10560 5301 c-44 -38 -50 -68 -9 -42 12 7 23 10 26 8 2 -3 -8 -52
-24 -110 -25 -97 -27 -135 -4 -111 9 8 81 263 81 284 0 20 -26 9 -70 -29z"/>
<path d="M10701 5234 c-34 -58 -61 -112 -61 -120 0 -10 14 -14 50 -14 l50 0
-6 -30 c-5 -23 -3 -30 9 -30 9 0 18 12 22 30 5 23 12 30 31 30 15 0 24 6 24
15 0 8 -9 15 -20 15 -16 0 -19 5 -13 30 4 23 2 30 -10 30 -9 0 -18 -12 -22
-30 -6 -26 -11 -30 -41 -30 -40 0 -41 -7 27 112 38 65 48 98 30 98 -5 0 -37
-48 -70 -106z"/>
<path d="M11061 5315 c-56 -48 -97 -217 -62 -258 37 -45 104 1 139 96 52 138
7 232 -77 162z m63 -65 c-2 -91 -59 -197 -94 -175 -28 17 5 170 46 216 32 35
49 20 48 -41z"/>
<path d="M11236 5286 c-26 -88 -24 -94 32 -98 l47 -3 -1 -43 c-1 -55 -13 -66
-80 -72 -71 -6 -70 -24 1 -28 47 -3 58 0 79 21 30 30 48 90 36 121 -10 26 -29
36 -69 36 -28 0 -28 0 -18 45 l10 44 54 3 c77 4 71 22 -9 26 l-66 3 -16 -55z"/>
<path d="M10870 5060 c0 -11 7 -20 15 -20 8 0 15 9 15 20 0 11 -7 20 -15 20
-8 0 -15 -9 -15 -20z"/>
<path d="M10580 4560 c-33 -61 -58 -115 -55 -120 3 -6 27 -10 52 -10 42 0 45
-1 39 -24 -3 -12 -3 -26 1 -29 10 -10 33 13 33 34 0 12 9 19 27 21 33 4 41 24
13 33 -17 5 -20 12 -15 32 5 20 2 24 -12 21 -10 -2 -19 -13 -21 -26 -3 -18
-10 -22 -38 -22 -19 0 -34 2 -34 3 0 2 22 44 50 93 54 97 57 104 36 104 -8 0
-42 -50 -76 -110z"/>
<path d="M10920 4655 c0 -11 12 -15 49 -15 53 0 64 -10 50 -48 -9 -24 -18 -29
-64 -35 -18 -2 -31 -10 -33 -20 -3 -13 4 -17 32 -17 34 0 36 -2 36 -33 0 -54
-23 -76 -83 -79 -38 -2 -52 -7 -52 -18 0 -25 101 -18 129 9 30 28 50 94 37
120 -8 14 -6 22 8 35 28 25 35 64 16 92 -13 20 -23 24 -70 24 -42 0 -55 -3
-55 -15z"/>
<path d="M11156 4637 c-25 -22 -37 -38 -32 -46 6 -9 13 -8 27 5 11 9 21 15 23
13 3 -2 -9 -53 -25 -113 -19 -69 -26 -113 -20 -119 6 -6 13 -2 19 9 12 24 72
245 72 267 0 26 -21 20 -64 -16z"/>
<path d="M10754 4405 c-7 -17 4 -37 17 -30 12 8 12 45 -1 45 -6 0 -13 -7 -16
-15z"/>
<path d="M2689 3977 c-40 -26 -75 -91 -91 -171 -12 -58 -12 -58 15 -82 49 -42
113 -10 136 67 16 52 -2 84 -53 93 -20 4 -36 11 -36 16 0 17 40 51 76 66 19 8
34 19 34 24 0 18 -46 11 -81 -13z m28 -167 c-7 -52 -22 -70 -59 -70 -36 0 -42
16 -28 69 10 40 12 41 52 41 l41 0 -6 -40z"/>
<path d="M3876 3860 c-20 -78 -34 -146 -30 -152 10 -15 119 -3 150 17 14 9 32
31 41 50 13 28 14 39 4 64 -14 32 -27 40 -80 47 -44 6 -44 5 -33 45 8 33 9 34
72 39 38 3 65 10 68 18 3 9 -17 12 -76 12 l-79 0 -37 -140z m134 -30 c8 -15 7
-27 -4 -49 -18 -34 -33 -41 -88 -41 -39 0 -40 0 -33 33 16 71 21 77 69 77 35
0 48 -5 56 -20z"/>
<path d="M4180 3912 c-14 -2 -30 -8 -37 -14 -17 -14 -45 -115 -41 -151 2 -26
9 -33 36 -41 21 -6 40 -5 55 1 16 7 29 8 41 1 24 -14 44 5 27 26 -9 11 -8 31
8 92 11 43 18 80 16 82 -6 6 -74 8 -105 4z m70 -34 c-1 -20 -32 -113 -40 -124
-18 -21 -80 -19 -80 4 0 25 21 95 32 110 8 10 88 19 88 10z"/>
<path d="M4458 3909 c-17 -9 -118 -171 -118 -188 0 -31 30 -2 75 74 32 55 56
85 68 85 9 0 17 -1 17 -3 0 -1 -9 -36 -20 -76 -20 -71 -20 -115 0 -95 10 10
63 194 57 200 -8 9 -66 11 -79 3z"/>
<path d="M4591 3878 c-28 -91 -42 -161 -32 -171 10 -10 19 6 35 55 3 9 14 21
25 27 17 10 21 6 37 -34 9 -25 23 -45 30 -45 19 0 17 17 -5 67 l-19 42 44 36
c24 20 44 41 44 46 0 19 -27 7 -83 -37 -40 -31 -57 -40 -53 -27 17 59 18 73 3
73 -9 0 -20 -14 -26 -32z"/>
<path d="M4830 3890 c-28 -28 -54 -124 -40 -149 15 -29 40 -39 78 -34 42 7 68
40 83 109 11 48 10 56 -6 74 -24 27 -88 27 -115 0z m92 -48 c-1 -18 -9 -49
-17 -68 -12 -30 -18 -34 -51 -34 l-37 0 5 45 c8 66 32 97 71 93 30 -3 32 -6
29 -36z"/>
<path d="M5010 3815 c-13 -52 -21 -97 -18 -101 12 -12 27 7 34 41 6 34 8 35
50 35 l44 0 -2 -40 c-7 -91 29 -20 66 133 6 24 4 28 -11 25 -11 -2 -21 -17
-26 -41 -9 -36 -10 -37 -53 -37 l-44 0 6 40 c5 31 3 40 -8 40 -10 0 -22 -29
-38 -95z"/>
<path d="M10592 3988 c3 -7 24 -14 49 -16 53 -4 64 -13 55 -46 -6 -24 -28 -36
-71 -41 -11 -1 -24 -3 -28 -4 -22 -3 4 -27 34 -31 31 -5 34 -8 32 -38 -2 -50
-26 -71 -87 -74 -37 -2 -51 -7 -51 -18 0 -20 42 -24 94 -10 51 14 76 49 77
110 0 26 8 57 17 70 19 28 22 62 7 91 -9 16 -22 19 -71 19 -44 0 -60 -3 -57
-12z"/>
<path d="M10937 3989 c-24 -14 -66 -100 -77 -159 -19 -99 10 -143 74 -116 26
11 40 27 61 72 32 67 45 174 25 199 -14 17 -57 19 -83 4z m61 -60 c3 -41 -29
-142 -54 -170 -10 -11 -26 -19 -37 -19 -18 0 -19 5 -15 63 10 124 97 228 106
126z"/>
<path d="M11157 3989 c-24 -14 -66 -100 -77 -159 -19 -99 10 -143 74 -116 26
11 40 27 61 72 32 67 45 174 25 199 -14 17 -57 19 -83 4z m61 -60 c3 -41 -29
-142 -54 -170 -10 -11 -26 -19 -37 -19 -18 0 -19 5 -15 63 10 124 97 228 106
126z"/>
<path d="M10744 3735 c-7 -17 4 -37 17 -30 12 8 12 45 -1 45 -6 0 -13 -7 -16
-15z"/>
<path d="M2602 3318 c3 -8 26 -14 56 -16 29 -2 52 -5 52 -7 0 -3 -10 -25 -22
-50 -14 -29 -29 -45 -40 -45 -10 0 -18 -7 -18 -15 0 -8 5 -15 10 -15 6 0 -3
-27 -20 -60 -17 -34 -28 -65 -24 -71 10 -16 27 5 59 71 19 41 34 60 47 60 10
0 18 7 18 15 0 8 -5 15 -10 15 -6 0 3 27 20 60 16 33 30 62 30 65 0 3 -36 5
-81 5 -60 0 -80 -3 -77 -12z"/>
<path d="M3876 3190 c-20 -78 -34 -146 -30 -152 10 -15 119 -3 150 17 14 9 32
31 41 50 30 62 -13 114 -89 111 -30 -2 -32 6 -19 54 6 23 13 25 71 30 38 3 65
10 68 18 3 9 -17 12 -76 12 l-79 0 -37 -140z m134 -30 c8 -15 7 -27 -4 -49
-18 -34 -33 -41 -88 -41 -39 0 -40 0 -33 33 16 71 21 77 69 77 35 0 48 -5 56
-20z"/>
<path d="M4190 3242 c-19 -2 -40 -8 -47 -14 -17 -14 -45 -115 -41 -151 4 -39
43 -57 87 -40 19 7 34 7 46 1 23 -14 43 5 26 26 -9 11 -8 31 8 92 11 43 19 80
17 81 -5 6 -61 8 -96 5z m60 -34 c-1 -20 -32 -113 -40 -124 -18 -21 -80 -19
-80 4 0 25 21 95 32 110 8 10 88 19 88 10z"/>
<path d="M4458 3239 c-17 -9 -118 -171 -118 -188 0 -31 30 -2 75 74 32 54 56
85 68 85 9 0 17 -1 17 -3 0 -1 -9 -36 -20 -76 -20 -71 -20 -115 0 -95 10 10
63 194 57 200 -8 9 -66 11 -79 3z"/>
<path d="M4586 3188 c-34 -122 -38 -140 -27 -151 10 -10 19 5 35 55 3 9 14 21
25 27 17 10 21 6 37 -34 9 -25 23 -45 30 -45 19 0 17 17 -5 67 l-19 42 44 36
c24 20 44 41 44 46 0 19 -27 7 -83 -37 -40 -31 -57 -40 -53 -27 17 59 18 73 3
73 -10 0 -21 -18 -31 -52z"/>
<path d="M4830 3220 c-28 -28 -54 -124 -40 -149 15 -29 44 -42 79 -35 41 9 67
43 82 110 11 48 10 56 -6 74 -24 27 -88 27 -115 0z m92 -48 c-1 -18 -9 -49
-17 -68 -12 -30 -18 -34 -51 -34 l-37 0 5 45 c8 66 32 97 71 93 30 -3 32 -6
29 -36z"/>
<path d="M5010 3145 c-13 -52 -21 -97 -18 -101 12 -12 27 7 34 41 6 34 8 35
50 35 l44 0 -2 -40 c-7 -91 29 -20 66 133 6 24 4 28 -11 25 -11 -2 -21 -17
-26 -41 -9 -36 -10 -37 -53 -37 l-44 0 6 40 c5 31 3 40 -8 40 -10 0 -22 -29
-38 -95z"/>
<path d="M10592 3318 c3 -7 27 -15 54 -18 40 -4 50 -9 52 -26 4 -28 -23 -54
-56 -54 -62 -1 -67 -35 -7 -42 27 -3 30 -6 28 -36 -2 -50 -26 -71 -87 -74 -37
-2 -51 -7 -51 -18 0 -20 42 -24 94 -10 51 14 76 49 77 110 0 26 8 57 17 70 19
28 22 62 7 91 -9 16 -22 19 -71 19 -44 0 -60 -3 -57 -12z"/>
<path d="M10916 3309 c-28 -22 -35 -49 -13 -49 8 0 22 9 32 20 24 27 69 23 73
-5 2 -13 -28 -53 -88 -120 -49 -55 -88 -104 -87 -110 2 -5 35 -10 73 -10 55 0
69 3 69 15 0 10 -14 17 -42 20 l-42 5 75 84 c75 85 86 110 64 152 -15 27 -79
26 -114 -2z"/>
<path d="M11183 3318 c-33 -43 -114 -201 -109 -213 4 -10 20 -15 49 -15 41 0
44 -2 40 -24 -7 -36 16 -42 28 -7 6 18 19 31 31 33 28 4 35 28 11 34 -15 4
-19 12 -15 30 6 33 -24 32 -32 -1 -5 -21 -12 -25 -40 -25 l-35 0 50 88 c48 86
57 112 40 112 -5 0 -13 -6 -18 -12z"/>
<path d="M10744 3065 c-7 -17 4 -37 17 -30 12 8 12 45 -1 45 -6 0 -13 -7 -16
-15z"/>
<path d="M2176 2662 c-3 -5 15 -39 40 -75 l44 -67 -44 -67 c-42 -62 -48 -83
-26 -83 6 0 27 26 47 57 l38 57 3 -57 c2 -41 7 -57 17 -57 10 0 15 16 17 57
l3 57 38 -57 c35 -54 57 -71 57 -45 0 6 -18 40 -41 74 l-41 63 41 60 c40 58
51 91 31 91 -5 0 -27 -26 -47 -57 l-38 -57 -3 57 c-2 41 -7 57 -17 57 -10 0
-15 -16 -17 -57 l-3 -58 -39 58 c-38 56 -50 65 -60 49z"/>
<path d="M4695 2660 c-7 -12 7 -18 50 -22 24 -2 31 -8 33 -30 3 -26 1 -28 -37
-28 -31 0 -44 -6 -60 -26 -34 -43 -26 -150 13 -176 23 -16 83 -8 102 13 16 18
19 37 19 129 0 92 -3 111 -19 129 -20 22 -89 30 -101 11z m83 -182 l-3 -73
-35 0 -35 0 -3 59 c-4 77 0 86 43 86 l36 0 -3 -72z"/>
<path d="M5482 2654 c-20 -14 -22 -23 -22 -125 0 -103 1 -111 25 -134 13 -14
36 -25 50 -25 14 0 37 11 50 25 32 32 36 119 6 156 -12 16 -17 34 -14 51 3 18
-2 33 -16 47 -25 25 -49 27 -79 5z m57 -28 c12 -14 5 -46 -9 -46 -5 0 -15 -3
-24 -6 -12 -5 -16 0 -16 18 0 23 16 48 31 48 4 0 12 -6 18 -14z m25 -92 c35
-34 13 -134 -29 -134 -26 0 -45 31 -45 75 0 44 19 75 45 75 7 0 21 -7 29 -16z"/>
<path d="M2480 2492 c0 -110 9 -122 93 -122 l57 0 0 105 c0 87 -3 105 -15 105
-12 0 -15 -17 -15 -90 l0 -90 -33 0 c-49 0 -57 14 -57 102 0 63 -3 78 -15 78
-12 0 -15 -16 -15 -88z"/>
<path d="M2745 2568 c-39 -104 -62 -189 -53 -194 15 -10 23 5 53 94 36 112 55
111 55 -2 0 -83 12 -115 31 -85 6 11 7 154 0 192 -2 12 -81 8 -86 -5z"/>
<path d="M2911 2554 c-34 -43 -26 -151 13 -176 19 -13 146 -5 146 8 0 7 -5 14
-11 16 -7 2 -11 31 -11 73 1 103 0 105 -63 105 -46 0 -56 -4 -74 -26z m97 -76
l-3 -73 -35 0 -35 0 -3 59 c-4 77 0 86 43 86 l36 0 -3 -72z"/>
<path d="M3151 2553 c-24 -30 -20 -59 12 -84 20 -16 20 -16 -6 -51 -25 -32
-26 -48 -6 -48 4 0 22 20 40 45 41 57 59 58 59 6 0 -41 16 -63 30 -41 9 14 10
166 2 188 -2 7 -24 12 -57 12 -46 0 -57 -4 -74 -27z m99 -33 c0 -28 -3 -30
-35 -30 -37 0 -52 17 -41 45 3 9 19 15 41 15 32 0 35 -2 35 -30z"/>
<path d="M3524 2567 c-3 -8 -4 -54 -2 -103 2 -71 6 -89 18 -89 12 0 16 18 18
88 l3 88 37 -3 37 -3 3 -80 c2 -44 7 -84 13 -90 18 -18 28 18 26 92 -4 94 -19
113 -94 113 -35 0 -55 -5 -59 -13z"/>
<path d="M3771 2487 c-34 -102 -37 -117 -18 -117 7 0 26 39 42 87 21 61 35 89
48 91 15 3 17 -6 17 -87 0 -74 3 -91 15 -91 12 0 15 18 15 105 l0 105 -44 0
-44 0 -31 -93z"/>
<path d="M3979 2567 c-59 -45 -48 -177 16 -193 35 -9 72 3 84 25 16 30 22 98
10 127 -18 50 -73 70 -110 41z m70 -31 c18 -22 10 -117 -11 -130 -32 -19 -53
4 -56 63 -3 56 9 81 38 81 10 0 23 -6 29 -14z"/>
<path d="M4154 2566 c-3 -9 -4 -50 -2 -92 5 -97 13 -104 125 -104 l83 0 0 106
c0 80 -3 105 -12 102 -9 -3 -14 -33 -16 -91 -3 -85 -3 -87 -27 -87 -24 0 -24
2 -27 88 -2 69 -6 87 -18 87 -12 0 -16 -18 -18 -88 -3 -85 -4 -88 -25 -85 -20
3 -22 10 -27 87 -3 55 -9 86 -17 89 -7 2 -16 -3 -19 -12z"/>
<path d="M4452 2564 c-19 -13 -22 -24 -22 -88 0 -96 10 -106 108 -104 53 1 72
5 72 15 0 7 -7 13 -15 13 -12 0 -15 17 -15 90 l0 90 -53 0 c-31 0 -61 -6 -75
-16z m98 -77 c0 -67 -10 -87 -45 -87 -33 0 -45 20 -45 75 0 60 12 75 57 75
l33 0 0 -63z"/>
<path d="M4875 2568 c-3 -8 -5 -55 -3 -104 l3 -89 56 -3 c65 -3 89 12 89 57 0
37 -29 61 -73 61 -35 0 -36 1 -39 42 -3 41 -23 63 -33 36z m110 -138 c0 -22
-5 -25 -37 -28 -36 -3 -38 -2 -38 28 0 30 2 31 38 28 32 -3 37 -6 37 -28z"/>
<path d="M5260 2475 c0 -87 3 -105 15 -105 10 0 15 10 15 34 0 18 7 39 15 46
12 10 20 4 47 -34 29 -42 58 -60 58 -36 0 5 -16 32 -35 58 l-34 49 34 33 c35
34 45 60 23 60 -7 0 -34 -21 -60 -47 l-48 -47 0 47 c0 35 -4 47 -15 47 -12 0
-15 -18 -15 -105z"/>
<path d="M5692 2564 c-19 -13 -22 -24 -22 -88 0 -96 10 -106 108 -104 53 1 72
5 72 15 0 7 -7 13 -15 13 -12 0 -15 17 -15 90 l0 90 -53 0 c-31 0 -61 -6 -75
-16z m98 -77 c0 -67 -10 -87 -45 -87 -33 0 -45 20 -45 75 0 60 12 75 57 75
l33 0 0 -63z"/>
<path d="M5904 2567 c-2 -7 -3 -74 -2 -148 3 -111 6 -134 18 -134 10 0 16 13
18 43 3 41 4 42 41 42 57 0 76 27 76 105 0 85 -18 105 -92 105 -35 0 -55 -5
-59 -13z m111 -92 l0 -70 -37 -3 -38 -3 0 76 0 76 38 -3 37 -3 0 -70z"/>
<path d="M6114 2567 c-3 -8 -4 -54 -2 -103 2 -71 6 -89 18 -89 12 0 16 18 18
88 3 85 3 87 27 87 24 0 24 -2 27 -87 2 -70 6 -88 18 -88 12 0 16 18 18 88 3
85 4 88 25 85 20 -3 22 -10 27 -87 3 -55 9 -86 18 -89 9 -3 12 19 12 86 0 116
-6 122 -119 122 -59 0 -83 -4 -87 -13z"/>
<path d="M6380 2492 c0 -110 9 -122 93 -122 l57 0 0 105 c0 87 -3 105 -15 105
-12 0 -15 -17 -15 -90 l0 -90 -33 0 c-49 0 -57 14 -57 102 0 63 -3 78 -15 78
-12 0 -15 -16 -15 -88z"/>
<path d="M6590 2430 c0 -127 2 -150 15 -150 11 0 15 12 15 45 l0 45 44 0 c60
0 76 23 76 107 0 84 -18 103 -95 103 l-55 0 0 -150z m108 108 c7 -7 12 -35 12
-63 0 -60 -12 -75 -57 -75 l-33 0 0 75 0 75 33 0 c18 0 38 -5 45 -12z"/>
<path d="M6790 2475 l0 -105 43 0 c49 0 77 22 77 58 0 29 -34 62 -65 62 -23 0
-25 4 -25 45 0 33 -4 45 -15 45 -12 0 -15 -18 -15 -105z m80 -30 c16 -19 -3
-45 -31 -45 -14 0 -19 7 -19 30 0 23 5 30 19 30 10 0 24 -7 31 -15z"/>
<path d="M6940 2475 c0 -87 3 -105 15 -105 12 0 15 18 15 105 0 87 -3 105 -15
105 -12 0 -15 -18 -15 -105z"/>
<path d="M10595 2660 c-8 -13 8 -18 60 -22 35 -3 40 -6 43 -29 4 -32 -23 -56
-67 -61 -49 -4 -51 -26 -4 -30 37 -3 38 -4 37 -42 -2 -54 -30 -76 -96 -76 -35
0 -48 -4 -46 -12 7 -20 95 -22 125 -3 32 21 56 80 50 120 -3 21 1 38 14 54 26
32 25 76 -3 95 -25 18 -103 22 -113 6z"/>
<path d="M10821 2562 c-34 -60 -61 -114 -61 -120 0 -8 19 -12 50 -12 l50 0 -6
-30 c-4 -20 -2 -30 5 -30 7 0 17 14 22 30 8 22 17 30 35 30 15 0 24 6 24 15 0
8 -9 15 -20 15 -16 0 -19 5 -13 30 3 20 1 30 -6 30 -7 0 -17 -13 -22 -30 -9
-25 -16 -30 -45 -30 l-34 0 20 39 c11 22 33 63 50 91 30 51 38 80 21 80 -5 0
-37 -49 -70 -108z"/>
<path d="M11184 2658 c-28 -13 -47 -50 -46 -88 0 -17 -8 -46 -19 -64 -26 -45
-28 -105 -4 -122 64 -47 159 36 142 124 -3 17 2 35 14 51 52 65 -11 136 -87
99z m74 -46 c7 -47 -59 -83 -87 -48 -13 16 0 52 23 69 23 15 61 3 64 -21z
m-34 -135 c-2 -43 -27 -77 -59 -77 -35 0 -46 20 -34 63 11 41 32 58 69 54 22
-2 25 -6 24 -40z"/>
<path d="M11360 2633 c-5 -21 -13 -55 -16 -75 l-7 -38 45 0 c57 0 69 -12 56
-58 -13 -49 -32 -62 -90 -62 -36 0 -48 -4 -48 -15 0 -11 12 -15 51 -15 63 0
87 13 105 55 31 75 10 125 -52 125 -29 0 -34 3 -30 18 3 9 8 29 12 45 6 25 10
27 60 27 41 0 54 4 54 15 0 12 -14 15 -65 15 l-64 0 -11 -37z"/>
<path d="M10990 2389 c0 -24 23 -21 28 4 2 10 -3 17 -12 17 -10 0 -16 -9 -16
-21z"/>
<path d="M3982 8047 c-12 -13 -22 -29 -22 -35 0 -19 24 -14 38 9 16 25 60 23
76 -4 12 -19 13 -18 -69 -150 -33 -53 -45 -81 -38 -88 5 -5 39 -9 74 -7 49 2
64 7 64 18 0 11 -13 16 -47 18 -27 2 -48 5 -48 7 0 2 23 40 50 83 56 88 61
118 27 150 -31 29 -77 29 -105 -1z"/>
<path d="M6817 8052 c-14 -15 -17 -40 -17 -121 0 -56 4 -111 10 -121 16 -29
67 -42 100 -25 34 18 40 32 40 99 0 37 -5 58 -19 73 -13 13 -17 29 -14 47 11
54 -63 89 -100 48z m71 -34 c2 -11 -8 -23 -27 -33 l-31 -16 0 29 c0 16 3 32 7
36 13 12 48 2 51 -16z m20 -80 c7 -7 12 -33 12 -58 0 -50 -13 -70 -45 -70 -32
0 -45 20 -45 70 0 50 13 70 45 70 12 0 26 -5 33 -12z"/>
<path d="M5305 7982 c-43 -9 -55 -31 -55 -103 0 -73 11 -94 56 -105 14 -4 37
-1 50 5 17 8 31 8 44 1 25 -13 39 8 17 25 -13 10 -17 29 -17 94 0 70 -2 81
-17 82 -10 0 -27 2 -38 3 -11 1 -29 0 -40 -2z m63 -99 l-3 -68 -40 0 -40 0 -3
54 c-4 74 0 81 48 81 l41 0 -3 -67z"/>
<path d="M5501 7978 c-19 -7 -21 -15 -21 -103 0 -86 2 -96 18 -93 14 3 17 16
20 86 3 80 4 82 27 82 25 0 25 -1 25 -83 0 -88 5 -104 27 -86 9 8 13 37 13 91
0 77 1 79 23 76 20 -3 22 -9 27 -86 3 -45 10 -82 15 -82 6 0 11 38 13 88 2 68
-1 92 -12 101 -16 14 -145 21 -175 9z"/>
<path d="M7049 7978 c-34 -13 -39 -25 -39 -100 0 -72 11 -93 56 -104 14 -4 37
-1 50 5 17 8 31 8 44 1 25 -13 39 8 17 25 -13 10 -17 29 -17 94 0 44 -3 81 -7
82 -37 5 -85 4 -104 -3z m79 -95 l-3 -68 -40 0 -40 0 -3 54 c-4 74 0 81 48 81
l41 0 -3 -67z"/>
<path d="M7255 7976 c-23 -16 -18 -281 5 -281 10 0 16 12 18 36 3 34 5 37 44
42 61 8 73 26 73 107 0 48 -5 74 -15 84 -19 19 -104 27 -125 12z m103 -98 l3
-68 -41 0 -40 0 0 71 0 70 38 -3 37 -3 3 -67z"/>
<path d="M7460 7980 c-14 -9 -9 -200 5 -200 6 0 11 37 13 85 l3 85 29 0 29 0
3 -85 c4 -111 22 -111 26 1 l3 85 27 -3 c26 -3 27 -5 32 -86 3 -45 10 -82 15
-82 6 0 11 36 13 83 4 109 -6 120 -113 122 -41 1 -79 -2 -85 -5z"/>
<path d="M7930 7980 c-14 -9 -10 -295 5 -295 6 0 11 19 13 43 3 40 4 42 36 42
19 0 45 9 60 21 23 18 26 27 26 88 0 54 -4 71 -19 85 -20 18 -100 29 -121 16z
m105 -100 l0 -65 -42 -3 -43 -3 0 71 0 71 43 -3 42 -3 0 -65z"/>
<path d="M4377 7974 c-4 -4 -7 -50 -7 -101 0 -85 2 -94 18 -91 11 2 18 14 20
35 5 54 24 56 57 7 28 -41 55 -58 55 -33 0 6 -14 31 -32 55 l-32 44 32 33 c18
18 32 38 32 45 0 23 -26 12 -65 -29 l-40 -40 -5 37 c-5 36 -19 52 -33 38z"/>
<path d="M4604 7959 c-29 -32 -27 -131 3 -160 29 -29 77 -29 106 -1 29 30 31
130 3 161 -26 29 -86 28 -112 0z m91 -79 l0 -65 -35 0 -35 0 -3 54 c-4 73 1
83 40 79 l33 -3 0 -65z"/>
<path d="M4802 7878 c3 -120 21 -138 28 -29 l5 74 26 -37 27 -38 28 36 29 36
5 -72 c7 -108 25 -90 28 30 3 118 -5 127 -57 61 l-33 -40 -30 40 c-49 68 -59
57 -56 -61z"/>
<path d="M5037 7974 c-4 -4 -7 -50 -7 -101 0 -85 2 -94 18 -91 12 2 18 14 20
41 3 36 4 37 43 37 39 0 39 0 39 -39 0 -22 4 -42 9 -45 20 -13 29 24 28 109
-2 77 -5 90 -19 93 -15 3 -18 -4 -18 -37 l0 -41 -39 0 c-39 0 -40 1 -43 37 -3
35 -17 51 -31 37z"/>
<path d="M5762 7878 c3 -103 20 -143 26 -60 l3 42 44 0 44 0 3 -42 c6 -83 23
-43 26 60 2 86 0 102 -13 102 -11 0 -15 -11 -15 -40 l0 -40 -45 0 -45 0 0 40
c0 29 -4 40 -15 40 -13 0 -15 -16 -13 -102z"/>
<path d="M5967 7974 c-4 -4 -7 -49 -7 -100 0 -85 2 -93 21 -99 23 -8 67 1 86
17 7 6 13 25 13 43 0 36 -12 50 -52 60 -22 6 -27 13 -30 43 -3 34 -17 50 -31
36z m81 -141 c3 -19 -1 -23 -22 -23 -21 0 -26 5 -26 26 0 21 4 25 23 22 14 -2
23 -11 25 -25z"/>
<path d="M6110 7881 c0 -97 10 -130 28 -94 4 10 8 56 8 103 -1 72 -4 85 -18
88 -16 3 -18 -7 -18 -97z"/>
<path d="M6225 7960 c-12 -14 -20 -41 -23 -78 -6 -81 15 -106 89 -107 42 0 54
3 54 15 0 11 -14 16 -52 18 -49 3 -53 5 -53 28 0 22 3 24 54 24 40 0 55 4 60
16 8 21 -3 65 -22 87 -21 24 -84 23 -107 -3z m93 -37 c3 -21 -1 -23 -37 -23
-33 0 -41 4 -41 18 0 27 10 33 45 30 22 -2 31 -9 33 -25z"/>
<path d="M6592 7878 c2 -60 7 -103 13 -103 6 0 11 17 13 37 5 63 25 65 67 7
26 -37 40 -48 47 -41 8 8 1 26 -25 64 l-37 52 35 36 c19 20 35 39 35 43 0 19
-29 3 -72 -40 l-48 -47 0 47 c0 36 -4 47 -15 47 -13 0 -15 -16 -13 -102z"/>
<path d="M7720 7896 c0 -109 21 -133 111 -124 l34 3 3 103 c2 86 0 102 -13
102 -12 0 -15 -15 -15 -86 l0 -85 -42 3 -43 3 -3 83 c-2 64 -6 82 -17 82 -12
0 -15 -17 -15 -84z"/>
<path d="M8132 7878 l3 -103 31 -3 c38 -4 84 30 84 62 0 27 -25 52 -62 61 -25
6 -28 12 -28 46 0 28 -4 39 -15 39 -13 0 -15 -16 -13 -102z m83 -43 c0 -14 -8
-21 -27 -23 -24 -3 -28 0 -28 23 0 23 4 26 28 23 19 -2 27 -9 27 -23z"/>
<path d="M8282 7878 c4 -133 22 -132 26 2 2 85 0 100 -13 100 -13 0 -15 -15
-13 -102z"/>
<path d="M4170 7865 c0 -12 15 -15 75 -15 60 0 75 3 75 15 0 12 -15 15 -75 15
-60 0 -75 -3 -75 -15z"/>
<path d="M2199 2004 c-22 -23 -24 -34 -24 -120 0 -89 1 -95 27 -121 36 -35 90
-36 125 -1 43 43 38 214 -8 251 -33 26 -91 22 -120 -9z m105 -20 c20 -19 23
-183 4 -202 -16 -16 -70 -16 -86 0 -8 8 -12 46 -12 103 0 57 4 95 12 103 17
17 64 15 82 -4z"/>
<path d="M2420 2023 c0 -4 15 -22 33 -41 23 -25 28 -36 18 -40 -35 -12 -51
-42 -51 -96 0 -69 6 -83 41 -101 21 -11 35 -12 55 -5 40 16 53 39 54 93 0 56
-15 90 -60 132 l-32 30 43 5 c23 3 44 11 47 18 3 9 -16 12 -72 12 -42 0 -76
-3 -76 -7z m108 -125 c7 -7 12 -33 12 -58 0 -50 -13 -70 -45 -70 -32 0 -45 20
-45 70 0 50 13 70 45 70 12 0 26 -5 33 -12z"/>
<path d="M4695 2020 c-7 -12 7 -18 50 -22 24 -2 31 -8 33 -28 3 -23 0 -26 -39
-27 -58 -2 -72 -20 -77 -96 -5 -81 15 -112 77 -112 68 0 76 17 76 149 0 133
-6 146 -71 146 -23 0 -46 -5 -49 -10z m85 -180 l0 -70 -40 0 -40 0 0 70 0 70
40 0 40 0 0 -70z"/>
<path d="M5477 2012 c-14 -15 -17 -40 -17 -121 0 -56 4 -111 10 -121 16 -29
67 -42 100 -25 34 18 40 32 40 99 0 37 -5 58 -19 73 -13 13 -17 29 -14 47 11
54 -63 89 -100 48z m71 -34 c2 -11 -8 -23 -27 -33 l-31 -16 0 29 c0 16 3 32 7
36 13 12 48 2 51 -16z m20 -80 c7 -7 12 -33 12 -58 0 -50 -13 -70 -45 -70 -32
0 -45 20 -45 70 0 50 13 70 45 70 12 0 26 -5 33 -12z"/>
<path d="M10537 1994 c-14 -15 7 -24 54 -24 27 0 49 -5 49 -10 0 -24 -43 -93
-61 -97 -21 -6 -25 -18 -9 -28 6 -4 -2 -30 -20 -65 -21 -42 -26 -61 -18 -66 7
-4 13 -3 15 2 14 38 70 129 80 129 19 0 28 16 14 24 -10 6 -6 21 18 68 16 34
27 63 24 67 -8 8 -138 8 -146 0z"/>
<path d="M10783 1967 c-55 -42 -60 -80 -5 -41 12 8 22 13 22 11 0 -2 -13 -54
-29 -116 -18 -68 -26 -113 -20 -117 6 -3 12 -4 15 -1 7 6 74 263 74 282 0 22
-10 19 -57 -18z"/>
<path d="M11011 1892 c-34 -60 -61 -114 -61 -120 0 -8 19 -12 50 -12 l50 0 -6
-30 c-4 -20 -2 -30 5 -30 7 0 17 14 22 30 8 22 17 30 35 30 15 0 24 6 24 15 0
8 -9 15 -20 15 -16 0 -19 5 -13 30 3 20 1 30 -6 30 -7 0 -17 -13 -22 -30 -9
-25 -16 -30 -45 -30 l-34 0 20 39 c11 22 33 63 50 91 30 51 38 80 21 80 -5 0
-37 -49 -70 -108z"/>
<path d="M11247 1994 c-14 -15 7 -24 54 -24 27 0 49 -5 49 -10 0 -24 -43 -93
-61 -97 -21 -6 -25 -18 -9 -28 6 -4 -2 -30 -20 -65 -21 -42 -26 -61 -18 -66 7
-4 13 -3 15 2 14 38 70 129 80 129 19 0 28 16 14 24 -10 6 -6 21 18 68 16 34
27 63 24 67 -8 8 -138 8 -146 0z"/>
<path d="M2939 1940 c-13 -3 -29 -17 -36 -30 -18 -35 -16 -121 2 -147 18 -26
63 -37 96 -24 15 5 31 5 41 0 21 -12 34 7 19 25 -7 8 -12 48 -13 90 -1 42 -6
80 -12 83 -13 9 -66 10 -97 3z m71 -100 l0 -70 -40 0 -40 0 0 70 0 70 40 0 40
0 0 -70z"/>
<path d="M3183 1942 c-24 -4 -38 -17 -47 -49 -5 -17 -1 -29 19 -48 25 -26 25
-27 7 -53 -33 -48 -34 -52 -15 -52 10 0 31 18 46 40 37 52 57 52 57 1 0 -43
12 -58 28 -38 14 17 13 185 -1 194 -12 7 -59 10 -94 5z m67 -57 c0 -22 -4 -25
-40 -25 -36 0 -40 3 -40 25 0 23 4 25 40 25 36 0 40 -2 40 -25z"/>
<path d="M3530 1936 c-5 -5 -10 -52 -10 -104 0 -84 2 -93 18 -90 14 3 17 16
20 86 l3 83 37 -3 37 -3 3 -75 c3 -94 7 -107 27 -90 20 17 16 164 -6 185 -18
18 -114 26 -129 11z"/>
<path d="M3818 1942 c-23 -4 -85 -189 -69 -205 12 -12 26 17 57 116 13 41 23
57 35 57 16 0 19 -11 21 -85 2 -48 7 -85 13 -85 12 0 20 200 8 201 -4 0 -17 2
-28 3 -11 1 -28 0 -37 -2z"/>
<path d="M4476 1939 c-40 -11 -46 -24 -46 -101 0 -72 11 -93 56 -104 14 -4 37
-1 50 5 17 8 31 8 44 1 25 -13 39 8 17 25 -13 10 -17 29 -17 94 0 70 -2 81
-17 82 -10 0 -27 2 -38 3 -11 1 -33 -1 -49 -5z m72 -96 l-3 -68 -40 0 -40 0
-3 54 c-4 74 0 81 48 81 l41 0 -3 -67z"/>
<path d="M5725 1942 c-43 -9 -55 -31 -55 -103 0 -73 11 -94 56 -105 14 -4 37
-1 50 5 17 8 31 8 44 1 25 -13 39 8 17 25 -13 10 -17 29 -17 94 0 70 -2 81
-17 82 -10 0 -27 2 -38 3 -11 1 -29 0 -40 -2z m63 -99 l-3 -68 -40 0 -40 0 -3
54 c-4 74 0 81 48 81 l41 0 -3 -67z"/>
<path d="M5909 1934 c-6 -7 -8 -66 -7 -145 3 -111 6 -134 18 -134 10 0 16 12
18 36 3 34 5 37 44 42 60 8 71 25 72 106 1 51 -3 75 -15 86 -19 20 -115 27
-130 9z m109 -96 l3 -68 -41 0 -40 0 0 71 0 70 38 -3 37 -3 3 -67z"/>
<path d="M6120 1936 c-6 -6 -10 -52 -10 -104 0 -84 2 -93 18 -90 14 3 17 16
20 86 3 80 4 82 27 82 25 0 25 -1 25 -83 0 -88 5 -104 27 -86 9 8 13 37 13 91
0 77 1 79 23 76 20 -3 22 -9 27 -86 3 -45 10 -82 15 -82 6 0 11 38 13 88 2 70
-1 92 -12 101 -19 16 -172 21 -186 7z"/>
<path d="M6612 1942 c-22 -3 -23 -4 -20 -148 2 -87 7 -144 13 -144 6 0 11 18
13 40 3 38 5 40 36 40 19 0 45 9 60 21 23 18 26 27 26 88 0 52 -4 72 -18 84
-18 16 -69 25 -110 19z m93 -102 l0 -65 -42 -3 -43 -3 0 71 0 71 43 -3 42 -3
0 -65z"/>
<path d="M2627 1934 c-4 -4 -7 -41 -7 -81 0 -65 3 -77 25 -99 23 -23 31 -25
102 -22 l78 3 3 103 c2 86 0 102 -13 102 -12 0 -15 -15 -15 -85 0 -84 0 -85
-25 -85 -23 0 -24 2 -27 82 -3 70 -6 83 -20 86 -16 3 -18 -6 -18 -82 0 -85 0
-86 -25 -86 -23 0 -24 2 -27 82 -3 75 -12 100 -31 82z"/>
<path d="M3964 1919 c-29 -32 -27 -131 3 -160 28 -29 77 -29 106 -1 29 29 31
130 3 161 -26 29 -86 28 -112 0z m91 -79 l0 -65 -35 0 -35 0 -3 54 c-4 73 1
83 40 79 l33 -3 0 -65z"/>
<path d="M4157 1934 c-4 -4 -7 -41 -7 -81 0 -65 3 -77 25 -99 23 -23 31 -25
102 -22 l78 3 3 103 c2 86 0 102 -13 102 -12 0 -15 -15 -15 -85 0 -84 0 -85
-25 -85 -23 0 -24 2 -27 82 -3 70 -6 83 -20 86 -16 3 -18 -6 -18 -82 0 -85 0
-86 -25 -86 -23 0 -24 2 -27 82 -3 75 -12 100 -31 82z"/>
<path d="M4877 1934 c-4 -4 -7 -49 -7 -100 0 -92 0 -94 26 -100 31 -8 91 1
110 17 18 15 18 73 -1 89 -8 6 -32 14 -54 17 -37 5 -40 8 -43 41 -3 34 -17 50
-31 36z m111 -141 c3 -21 -1 -23 -37 -23 -37 0 -41 2 -41 26 0 23 3 25 38 22
30 -2 38 -7 40 -25z"/>
<path d="M5262 1838 c2 -60 7 -103 13 -103 6 0 11 17 13 37 5 63 25 65 67 7
26 -37 40 -48 47 -41 8 8 1 26 -25 64 l-37 52 35 36 c19 20 35 39 35 43 0 19
-29 3 -72 -40 l-48 -47 0 47 c0 36 -4 47 -15 47 -13 0 -15 -16 -13 -102z"/>
<path d="M6380 1856 c0 -109 21 -133 111 -124 l34 3 3 103 c2 86 0 102 -13
102 -12 0 -15 -15 -15 -86 l0 -85 -42 3 -43 3 -3 83 c-2 64 -6 82 -17 82 -12
0 -15 -17 -15 -84z"/>
<path d="M6792 1838 c3 -111 7 -118 63 -104 76 19 71 102 -7 121 -25 6 -28 12
-28 46 0 28 -4 39 -15 39 -13 0 -15 -16 -13 -102z m83 -43 c0 -14 -8 -21 -27
-23 -24 -3 -28 0 -28 23 0 23 4 26 28 23 19 -2 27 -9 27 -23z"/>
<path d="M6942 1838 c4 -133 22 -132 26 2 2 85 0 100 -13 100 -13 0 -15 -15
-13 -102z"/>
<path d="M10840 1720 c0 -24 15 -27 24 -4 9 22 8 24 -9 24 -8 0 -15 -9 -15
-20z"/>
</g>
</svg>
