<?xml version="1.0" standalone="no"?>
<!DOCTYPE svg PUBLIC "-//W3C//DTD SVG 20010904//EN"
 "http://www.w3.org/TR/2001/REC-SVG-20010904/DTD/svg10.dtd">
<svg version="1.0" xmlns="http://www.w3.org/2000/svg"
 width="3307.000000pt" height="2339.000000pt" viewBox="0 0 3307.000000 2339.000000"
 preserveAspectRatio="xMidYMid meet">

<g transform="translate(0.000000,2339.000000) scale(0.100000,-0.100000)"
fill="#000000" stroke="none">
<path d="M0 11695 l0 -11695 16533 2 16532 3 3 11693 2 11692 -16535 0 -16535
0 0 -11695z m33060 5 l0 -11680 -16525 0 -16525 0 0 11680 0 11680 16525 0
16525 0 0 -11680z"/>
<path d="M1170 11700 l0 -11310 15755 0 15755 0 0 11310 0 11310 -15755 0
-15755 0 0 -11310z m31490 0 l0 -11280 -15735 0 -15735 0 0 11280 0 11280
15735 0 15735 0 0 -11280z"/>
<path d="M3436 22492 c-3 -5 -42 -95 -86 -198 -56 -131 -89 -196 -108 -211
l-27 -23 70 0 c68 1 69 1 43 16 -33 18 -34 26 -5 84 l22 45 81 3 81 3 22 -50
c26 -62 26 -66 -1 -85 -21 -15 -17 -16 67 -16 85 1 89 2 63 16 -34 18 -41 32
-130 243 -71 170 -81 190 -92 173z m10 -129 c8 -21 24 -59 35 -85 l19 -48 -74
0 -74 0 36 85 c20 47 38 85 39 85 2 0 10 -17 19 -37z"/>
<path d="M5402 22484 c-25 -17 -52 -64 -52 -91 0 -14 3 -13 17 7 9 14 24 30
33 37 16 13 68 17 95 7 20 -8 45 -56 45 -86 0 -48 -50 -128 -131 -213 l-82
-86 133 3 133 3 13 38 c13 38 6 48 -16 22 -9 -11 -34 -15 -97 -15 l-84 0 63
70 c126 140 149 221 84 286 -29 29 -41 34 -83 34 -28 0 -58 -7 -71 -16z"/>
<path d="M5732 22484 c-25 -17 -52 -64 -52 -91 0 -14 3 -13 17 7 9 14 24 30
33 37 16 13 68 17 95 7 20 -8 45 -56 45 -86 0 -48 -50 -128 -131 -213 l-82
-86 133 3 133 3 13 38 c13 38 6 48 -16 22 -9 -11 -34 -15 -97 -15 l-84 0 63
70 c126 140 149 221 84 286 -29 29 -41 34 -83 34 -28 0 -58 -7 -71 -16z"/>
<path d="M1740 22481 l25 -7 3 -192 2 -193 -32 -14 c-31 -13 -27 -14 78 -15
140 0 168 6 205 42 24 25 29 38 29 79 0 39 -5 55 -24 74 -27 27 -83 45 -143
45 l-43 0 0 85 0 85 65 0 c68 0 105 -20 105 -55 0 -8 5 -15 10 -15 11 0 13 33
4 68 -6 22 -9 22 -158 21 -83 -1 -140 -4 -126 -8z m199 -226 c16 -8 31 -22 35
-30 9 -25 7 -74 -4 -96 -14 -25 -62 -49 -100 -49 l-30 0 0 95 0 95 35 0 c20 0
49 -7 64 -15z"/>
<path d="M4420 22481 c33 -9 38 -32 39 -206 1 -163 -7 -194 -49 -206 -14 -4
52 -7 147 -8 l171 -1 16 47 c22 65 20 74 -9 31 -28 -41 -67 -58 -136 -58 -79
0 -79 0 -79 106 l0 94 48 0 c70 0 93 -9 108 -44 13 -29 13 -27 13 49 0 63 -2
75 -10 55 -14 -35 -26 -40 -96 -40 l-63 0 0 85 0 85 78 0 c86 0 100 -6 118
-47 12 -28 12 -27 13 20 l1 47 -167 -1 c-93 -1 -157 -4 -143 -8z"/>
<path d="M2503 22340 c-63 -38 -88 -129 -55 -203 26 -58 62 -82 123 -82 82 0
141 65 141 154 0 89 -56 151 -137 151 -22 0 -54 -9 -72 -20z m104 -15 c41 -29
62 -161 34 -213 -29 -54 -93 -45 -125 16 -62 120 2 259 91 197z"/>
<path d="M2963 22348 c-12 -6 -29 -27 -37 -48 -18 -46 -41 -70 -67 -70 -18 0
-20 6 -17 47 2 39 7 50 28 60 22 11 17 13 -50 12 -56 0 -69 -3 -52 -9 22 -9
23 -13 20 -132 -3 -119 -4 -123 -28 -135 -22 -11 -16 -13 55 -13 71 0 77 2 55
13 -22 11 -25 20 -28 76 -4 83 13 80 71 -14 l42 -70 50 -2 c44 -2 47 -1 27 9
-13 7 -45 44 -72 84 l-47 73 21 38 c19 33 26 38 54 35 36 -4 52 18 32 43 -14
17 -26 18 -57 3z"/>
<path d="M2148 22340 c21 -9 22 -15 22 -118 0 -115 -8 -139 -40 -120 -18 11
-50 5 -50 -9 1 -39 60 -47 93 -14 19 19 22 35 26 136 l3 115 49 0 49 0 0 -104
c0 -119 -9 -153 -42 -159 -13 -2 13 -5 57 -5 64 -1 76 1 58 10 -22 11 -23 16
-23 135 0 119 1 124 23 133 15 6 -23 9 -113 9 -90 0 -128 -3 -112 -9z"/>
<path d="M3898 22340 c22 -9 23 -13 20 -132 -3 -119 -4 -123 -28 -135 -22 -11
-17 -13 48 -13 l72 0 -20 20 c-11 11 -20 24 -20 28 0 4 28 41 63 82 l62 74 3
-79 c3 -91 0 -102 -30 -115 -17 -6 -2 -9 57 -9 71 -1 77 1 55 12 -24 12 -25
17 -28 117 -3 126 1 147 31 153 12 2 -12 4 -53 4 -41 1 -67 -1 -58 -4 38 -10
31 -42 -21 -102 -84 -97 -82 -97 -79 0 3 78 5 84 28 96 22 11 17 13 -50 12
-56 0 -69 -3 -52 -9z"/>
<path d="M6018 22340 c22 -9 23 -13 20 -132 -3 -119 -4 -123 -28 -135 -21 -11
16 -13 220 -12 184 0 239 3 223 11 -22 11 -23 16 -23 135 0 119 1 124 23 133
16 6 2 9 -53 9 -55 0 -69 -3 -52 -9 21 -9 22 -14 22 -135 l0 -126 -52 3 -53 3
-3 123 c-3 119 -2 123 20 132 17 6 3 9 -52 9 -41 -1 -68 -3 -60 -6 33 -12 40
-36 40 -137 0 -56 -4 -107 -9 -114 -5 -9 -25 -12 -57 -10 l-49 3 0 120 c0 117
0 120 25 132 22 11 17 13 -50 12 -56 0 -69 -3 -52 -9z"/>
<path d="M6491 22308 c0 -24 3 -36 6 -28 12 32 37 50 70 50 l33 0 0 -112 c0
-118 -3 -128 -35 -146 -16 -9 -3 -11 65 -11 47 1 76 4 65 6 -42 10 -45 21 -45
144 l0 119 35 0 c29 0 39 -6 55 -32 16 -26 20 -29 20 -13 0 11 -3 30 -6 43 -6
21 -10 22 -135 22 l-129 0 1 -42z"/>
<path d="M4960 22205 c0 -25 1 -25 80 -25 79 0 80 0 80 25 0 25 -1 25 -80 25
-79 0 -80 0 -80 -25z"/>
<path d="M6827 22114 c-15 -16 -7 -53 14 -59 30 -10 58 19 43 43 -12 18 -45
28 -57 16z"/>
<path d="M15854 19615 c-3 -6 -3 -109 -2 -230 l3 -220 110 0 c61 0 134 -1 163
-3 l52 -2 0 -294 c0 -186 4 -297 10 -301 6 -4 10 14 10 47 0 29 1 189 2 355
l1 303 1616 2 c889 2 2200 2 2913 0 l1296 -2 1 -352 c1 -218 5 -356 11 -363 7
-8 9 -144 8 -375 l-3 -362 -1154 -2 c-931 -1 -1157 2 -1167 12 -11 10 -29 10
-101 -3 -48 -8 -94 -15 -100 -15 -10 0 -13 54 -13 238 l0 239 -62 -1 -63 -1
-3 250 c-2 142 -7 254 -12 259 -7 7 -10 -10 -10 -45 0 -31 -2 -58 -5 -61 -3
-3 -50 3 -105 12 -82 14 -100 14 -100 3 0 -10 -38 -13 -190 -13 l-190 0 0 185
c0 161 2 185 16 185 10 0 14 6 10 18 -3 9 -10 54 -17 100 -7 45 -16 82 -19 82
-4 0 -12 -30 -18 -67 -6 -38 -14 -83 -18 -100 -5 -27 -3 -33 10 -33 14 0 16
-21 16 -185 l0 -185 -1164 0 c-958 0 -1165 2 -1169 13 -4 11 -22 11 -101 -2
-53 -8 -96 -18 -96 -21 0 -3 43 -13 96 -21 79 -13 97 -13 101 -2 4 11 211 13
1169 13 l1164 0 0 -1140 c0 -1046 -1 -1140 -16 -1140 -13 0 -15 -6 -10 -32 4
-18 12 -63 18 -100 6 -38 14 -68 18 -68 3 0 12 37 19 83 7 45 14 90 17 100 4
11 0 17 -10 17 -14 0 -16 112 -16 1140 l0 1140 190 0 c153 0 190 -3 190 -14 0
-11 12 -11 73 0 39 7 86 13 104 13 l31 1 -1 -757 -2 -757 60 -1 c33 0 635 -1
1338 -3 l1279 -2 -1 -107 c-1 -60 2 -1286 5 -2725 l6 -2618 -1161 0 c-943 0
-1161 2 -1161 13 0 10 -19 10 -100 -2 -55 -9 -100 -18 -100 -22 0 -3 37 -11
83 -18 45 -7 90 -14 100 -17 11 -4 17 0 17 10 0 14 113 16 1160 16 l1160 0 0
-204 c0 -149 -3 -205 -12 -208 -9 -3 -8 -29 5 -103 9 -55 14 -101 12 -104 -3
-2 -157 -6 -343 -9 l-337 -3 -3 -40 -3 -39 -303 0 -303 0 -6 -107 c-9 -164
-61 -322 -150 -453 -90 -132 -265 -271 -408 -324 -70 -26 -198 -56 -240 -56
-18 0 -19 14 -19 408 0 224 0 422 0 440 0 27 -3 32 -25 32 -21 0 -25 5 -25 30
0 25 -4 30 -24 30 -22 0 -25 5 -28 41 l-3 41 -157 -1 -158 -2 0 2564 c0 2271
-2 2566 -15 2571 -8 3 -15 2 -15 -2 0 -4 -365 -7 -812 -7 l-811 0 0 -75 0 -75
746 -3 747 -2 0 -2886 0 -2886 -27 6 c-112 22 -167 28 -171 17 -3 -8 -62 -11
-198 -11 l-194 0 0 2775 c0 2513 1 2775 16 2775 10 0 14 6 10 18 -3 9 -10 54
-17 100 -7 45 -15 82 -19 82 -4 0 -12 -37 -19 -82 -7 -46 -14 -91 -17 -100 -4
-12 0 -18 10 -18 15 0 16 -262 16 -2775 l0 -2775 -1104 0 c-842 0 -1105 3
-1108 12 -3 9 -29 8 -103 -5 -55 -9 -101 -14 -103 -12 -7 6 -7 295 -4 3098 l2
2667 275 0 c269 0 275 0 286 21 8 16 8 20 -1 14 -9 -6 -11 9 -8 56 l3 64 -282
3 -282 2 -3 51 -3 51 -67 1 c-49 2 -69 -2 -73 -11 -3 -8 -5 -1158 -5 -2558 l0
-2543 -157 -3 -158 -3 -3 -224 c-2 -156 1 -228 9 -237 7 -8 31 -14 60 -14 l49
0 0 -221 0 -221 -22 5 c-83 20 -182 30 -186 19 -3 -9 -299 -12 -1213 -12
l-1209 0 0 3510 c0 3113 2 3510 15 3510 18 0 18 -4 0 100 -8 47 -15 91 -15 98
0 9 258 12 1255 12 l1255 0 0 -103 c0 -67 4 -107 12 -115 15 -15 338 -17 338
-2 0 14 97 13 102 -2 2 -6 10 -8 16 -4 9 5 12 71 12 242 l0 234 -60 0 -60 0
-2 163 -3 162 -155 1 c-85 1 -163 0 -172 -3 -16 -4 -18 -21 -18 -170 l0 -165
-1727 3 -1728 4 -3 -224 c-3 -237 0 -251 44 -251 l24 0 -2 -3042 -3 -3043 -30
-5 -30 -5 -3 -224 c-2 -156 1 -228 9 -237 7 -8 31 -14 60 -14 l49 0 2 -714 3
-715 3599 -3 3599 -3 1 55 1 55 1693 3 1692 2 0 660 c1 363 1 2246 1 4185 0
1939 0 3948 -1 4465 l0 940 -3621 2 c-2463 2 -3623 0 -3625 -7z m299 -12 c-13
-2 -33 -2 -45 0 -13 2 -3 4 22 4 25 0 35 -2 23 -4z m230 -10 c-23 -2 -64 -2
-90 0 -26 2 -7 3 42 3 50 0 71 -1 48 -3z m220 -10 c-23 -2 -64 -2 -90 0 -26 2
-7 3 42 3 50 0 71 -1 48 -3z m220 -10 c-23 -2 -64 -2 -90 0 -26 2 -7 3 42 3
50 0 71 -1 48 -3z m210 -10 c-23 -2 -64 -2 -90 0 -26 2 -7 3 42 3 50 0 71 -1
48 -3z m220 -10 c-23 -2 -64 -2 -90 0 -26 2 -7 3 42 3 50 0 71 -1 48 -3z m220
-10 c-23 -2 -64 -2 -90 0 -26 2 -7 3 42 3 50 0 71 -1 48 -3z m215 -10 c-27 -2
-69 -2 -95 0 -27 2 -5 3 47 3 52 0 74 -1 48 -3z m215 -10 c-23 -2 -64 -2 -90
0 -26 2 -7 3 42 3 50 0 71 -1 48 -3z m220 -10 c-23 -2 -64 -2 -90 0 -26 2 -7
3 42 3 50 0 71 -1 48 -3z m220 -10 c-23 -2 -64 -2 -90 0 -26 2 -7 3 42 3 50 0
71 -1 48 -3z m210 -10 c-23 -2 -64 -2 -90 0 -26 2 -7 3 42 3 50 0 71 -1 48 -3z
m220 -10 c-23 -2 -64 -2 -90 0 -26 2 -7 3 42 3 50 0 71 -1 48 -3z m220 -10
c-23 -2 -64 -2 -90 0 -26 2 -7 3 42 3 50 0 71 -1 48 -3z m215 -10 c-27 -2 -69
-2 -95 0 -27 2 -5 3 47 3 52 0 74 -1 48 -3z m215 -10 c-23 -2 -64 -2 -90 0
-26 2 -7 3 42 3 50 0 71 -1 48 -3z m220 -10 c-23 -2 -64 -2 -90 0 -26 2 -7 3
42 3 50 0 71 -1 48 -3z m220 -10 c-23 -2 -64 -2 -90 0 -26 2 -7 3 42 3 50 0
71 -1 48 -3z m215 -10 c-27 -2 -69 -2 -95 0 -27 2 -5 3 47 3 52 0 74 -1 48 -3z
m215 -10 c-23 -2 -64 -2 -90 0 -26 2 -7 3 42 3 50 0 71 -1 48 -3z m220 -10
c-23 -2 -64 -2 -90 0 -26 2 -7 3 42 3 50 0 71 -1 48 -3z m215 -10 c-27 -2 -69
-2 -95 0 -27 2 -5 3 47 3 52 0 74 -1 48 -3z m215 -10 c-23 -2 -64 -2 -90 0
-26 2 -7 3 42 3 50 0 71 -1 48 -3z m220 -10 c-23 -2 -64 -2 -90 0 -26 2 -7 3
42 3 50 0 71 -1 48 -3z m220 -10 c-23 -2 -64 -2 -90 0 -26 2 -7 3 42 3 50 0
71 -1 48 -3z m210 -10 c-23 -2 -64 -2 -90 0 -26 2 -7 3 42 3 50 0 71 -1 48 -3z
m220 -10 c-23 -2 -64 -2 -90 0 -26 2 -7 3 42 3 50 0 71 -1 48 -3z m220 -10
c-23 -2 -64 -2 -90 0 -26 2 -7 3 42 3 50 0 71 -1 48 -3z m215 -10 c-27 -2 -69
-2 -95 0 -27 2 -5 3 47 3 52 0 74 -1 48 -3z m215 -10 c-23 -2 -64 -2 -90 0
-26 2 -7 3 42 3 50 0 71 -1 48 -3z m220 -10 c-23 -2 -64 -2 -90 0 -26 2 -7 3
42 3 50 0 71 -1 48 -3z m322 -12 c85 -7 81 -8 -67 -9 -100 -1 -158 2 -158 8 0
11 90 12 225 1z m-6964 -11 l-145 -5 73 -23 c40 -13 71 -25 69 -28 -7 -6 -168
50 -168 58 0 4 71 7 158 6 l157 -2 -144 -6z m6519 -154 c34 -13 37 -18 107
-202 40 -104 73 -195 73 -201 0 -10 -63 -13 -280 -13 l-280 0 0 274 0 275 173
-61 c94 -33 188 -66 207 -72z m245 94 c9 -16 13 -30 11 -30 -3 0 -12 14 -21
30 -9 17 -13 30 -11 30 3 0 12 -13 21 -30z m40 -70 c9 -16 13 -30 11 -30 -3 0
-12 14 -21 30 -9 17 -13 30 -11 30 3 0 12 -13 21 -30z m66 -115 c18 -33 28
-55 22 -50 -5 6 -25 37 -43 70 -18 33 -28 56 -23 50 6 -5 26 -37 44 -70z
m-814 3 c-3 -8 -6 -5 -6 6 -1 11 2 17 5 13 3 -3 4 -12 1 -19z m10 -50 c-3 -7
-5 -2 -5 12 0 14 2 19 5 13 2 -7 2 -19 0 -25z m10 -40 c-3 -8 -6 -5 -6 6 -1
11 2 17 5 13 3 -3 4 -12 1 -19z m878 -60 c26 -46 50 -86 52 -90 2 -5 2 -8 -1
-8 -3 0 -37 57 -103 173 -2 4 -2 7 1 7 2 0 25 -37 51 -82z m-868 20 c-3 -8 -6
-5 -6 6 -1 11 2 17 5 13 3 -3 4 -12 1 -19z m10 -50 c-3 -7 -5 -2 -5 12 0 14 2
19 5 13 2 -7 2 -19 0 -25z m10 -40 c-3 -8 -6 -5 -6 6 -1 11 2 17 5 13 3 -3 4
-12 1 -19z m10 -40 c-3 -8 -6 -5 -6 6 -1 11 2 17 5 13 3 -3 4 -12 1 -19z m918
-28 c9 -16 13 -30 11 -30 -3 0 -12 14 -21 30 -9 17 -13 30 -11 30 3 0 12 -13
21 -30z m-940 -50 c-44 -11 -65 -11 -65 0 0 6 21 9 48 9 42 -1 44 -2 17 -9z
m910 3 c-120 -7 -265 -7 -265 0 0 4 71 6 158 5 86 -1 135 -3 107 -5z m-892
-20 c-7 -2 -19 -2 -25 0 -7 3 -2 5 12 5 14 0 19 -2 13 -5z m677 -3 c8 -5 11
-10 5 -10 -5 0 -17 5 -25 10 -8 5 -10 10 -5 10 6 0 17 -5 25 -10z m-627 -7
c-7 -2 -19 -2 -25 0 -7 3 -2 5 12 5 14 0 19 -2 13 -5z m60 -10 c-7 -2 -19 -2
-25 0 -7 3 -2 5 12 5 14 0 19 -2 13 -5z m617 -3 c8 -5 11 -10 5 -10 -5 0 -17
5 -25 10 -8 5 -10 10 -5 10 6 0 17 -5 25 -10z m-567 -7 c-7 -2 -19 -2 -25 0
-7 3 -2 5 12 5 14 0 19 -2 13 -5z m60 -10 c-7 -2 -19 -2 -25 0 -7 3 -2 5 12 5
14 0 19 -2 13 -5z m557 -3 c8 -5 11 -10 5 -10 -5 0 -17 5 -25 10 -8 5 -10 10
-5 10 6 0 17 -5 25 -10z m-507 -7 c-7 -2 -19 -2 -25 0 -7 3 -2 5 12 5 14 0 19
-2 13 -5z m60 -10 c-7 -2 -21 -2 -30 0 -10 3 -4 5 12 5 17 0 24 -2 18 -5z
m497 -3 c8 -5 11 -10 5 -10 -5 0 -17 5 -25 10 -8 5 -10 10 -5 10 6 0 17 -5 25
-10z m-447 -7 c-7 -2 -19 -2 -25 0 -7 3 -2 5 12 5 14 0 19 -2 13 -5z m60 -10
c-7 -2 -21 -2 -30 0 -10 3 -4 5 12 5 17 0 24 -2 18 -5z m457 -9 c23 -9 39 -18
37 -20 -2 -3 -24 4 -48 15 -54 24 -45 27 11 5z m-407 -1 c-7 -2 -19 -2 -25 0
-7 3 -2 5 12 5 14 0 19 -2 13 -5z m50 -10 c-7 -2 -19 -2 -25 0 -7 3 -2 5 12 5
14 0 19 -2 13 -5z m57 -398 c0 -293 -3 -375 -12 -375 -7 0 -53 7 -102 16 -73
12 -91 13 -97 2 -6 -10 -57 -13 -236 -12 l-228 0 -3 372 -2 372 340 0 340 0 0
-375z m44 315 c5 -17 4 -20 -2 -10 -5 8 -13 26 -16 40 -5 17 -4 20 2 10 5 -8
13 -26 16 -40z m26 -65 c0 -5 -5 -3 -10 5 -5 8 -10 20 -10 25 0 6 5 3 10 -5 5
-8 10 -19 10 -25z m20 -50 c0 -5 -5 -3 -10 5 -5 8 -10 20 -10 25 0 6 5 3 10
-5 5 -8 10 -19 10 -25z m20 -50 c0 -5 -5 -3 -10 5 -5 8 -10 20 -10 25 0 6 5 3
10 -5 5 -8 10 -19 10 -25z m20 -50 c0 -5 -5 -3 -10 5 -5 8 -10 20 -10 25 0 6
5 3 10 -5 5 -8 10 -19 10 -25z m20 -50 c0 -5 -5 -3 -10 5 -5 8 -10 20 -10 25
0 6 5 3 10 -5 5 -8 10 -19 10 -25z m24 -65 c5 -17 4 -20 -2 -10 -5 8 -13 26
-16 40 -5 17 -4 20 2 10 5 -8 13 -26 16 -40z m-3537 -37 c-3 -10 -5 -2 -5 17
0 19 2 27 5 18 2 -10 2 -26 0 -35z m3563 -28 c0 -5 -5 -3 -10 5 -5 8 -10 20
-10 25 0 6 5 3 10 -5 5 -8 10 -19 10 -25z m-3553 -52 c-3 -10 -5 -2 -5 17 0
19 2 27 5 18 2 -10 2 -26 0 -35z m3573 2 c0 -5 -5 -3 -10 5 -5 8 -10 20 -10
25 0 6 5 3 10 -5 5 -8 10 -19 10 -25z m-6935 -165 c82 -82 147 -150 145 -150
-3 0 -73 68 -155 150 -82 83 -147 150 -145 150 3 0 73 -67 155 -150z m6955
115 c0 -5 -5 -3 -10 5 -5 8 -10 20 -10 25 0 6 5 3 10 -5 5 -8 10 -19 10 -25z
m-3583 -22 c-3 -10 -5 -2 -5 17 0 19 2 27 5 18 2 -10 2 -26 0 -35z m3603 -28
c0 -5 -5 -3 -10 5 -5 8 -10 20 -10 25 0 6 5 3 10 -5 5 -8 10 -19 10 -25z
m-3593 -42 c-3 -10 -5 -4 -5 12 0 17 2 24 5 18 2 -7 2 -21 0 -30z m3613 -8 c0
-5 -5 -3 -10 5 -5 8 -10 20 -10 25 0 6 5 3 10 -5 5 -8 10 -19 10 -25z m24 -65
c5 -17 4 -20 -2 -10 -5 8 -13 26 -16 40 -5 17 -4 20 2 10 5 -8 13 -26 16 -40z
m-3627 -7 c-3 -10 -5 -2 -5 17 0 19 2 27 5 18 2 -10 2 -26 0 -35z m10 -70 c-3
-10 -5 -2 -5 17 0 19 2 27 5 18 2 -10 2 -26 0 -35z m3643 12 c0 -5 -5 -3 -10
5 -5 8 -10 20 -10 25 0 6 5 3 10 -5 5 -8 10 -19 10 -25z m-3446 4 c61 -9 81
-10 84 -1 3 9 289 12 1168 12 l1164 0 0 -130 c0 -107 -3 -131 -16 -138 -14 -8
-14 -17 0 -98 9 -49 16 -95 16 -101 0 -10 -261 -13 -1270 -13 l-1270 0 0 246
0 246 23 -5 c12 -3 58 -11 101 -18z m3116 -9 c0 -30 -1 -30 -55 -30 l-55 0 -2
-212 -3 -213 -289 -3 -288 -2 5 22 c18 75 28 183 18 186 -7 2 -11 49 -11 138
l0 134 234 0 c169 0 235 -3 238 -12 3 -8 27 -7 94 4 49 9 95 16 102 17 7 1 12
-11 12 -29z m-3303 -87 c-3 -10 -5 -2 -5 17 0 19 2 27 5 18 2 -10 2 -26 0 -35z
m-6309 20 c-15 -2 -42 -2 -60 0 -18 2 -6 4 27 4 33 0 48 -2 33 -4z m130 -10
c-16 -2 -40 -2 -55 0 -16 2 -3 4 27 4 30 0 43 -2 28 -4z m2847 -218 c94 -93
139 -140 100 -104 -96 90 -348 340 -306 303 19 -16 112 -105 206 -199z m6770
25 c110 -110 198 -200 195 -200 -3 0 -95 90 -205 200 -110 110 -198 200 -195
200 3 0 95 -90 205 -200z m-9477 183 c-15 -2 -42 -2 -60 0 -18 2 -6 4 27 4 33
0 48 -2 33 -4z m130 -10 c-15 -2 -42 -2 -60 0 -18 2 -6 4 27 4 33 0 48 -2 33
-4z m130 -10 c-16 -2 -40 -2 -55 0 -16 2 -3 4 27 4 30 0 43 -2 28 -4z m140
-10 c-15 -2 -42 -2 -60 0 -18 2 -6 4 27 4 33 0 48 -2 33 -4z m5649 -40 c-3
-10 -5 -2 -5 17 0 19 2 27 5 18 2 -10 2 -26 0 -35z m-5519 30 c-16 -2 -40 -2
-55 0 -16 2 -3 4 27 4 30 0 43 -2 28 -4z m140 -10 c-15 -2 -42 -2 -60 0 -18 2
-6 4 27 4 33 0 48 -2 33 -4z m130 -10 c-16 -2 -40 -2 -55 0 -16 2 -3 4 27 4
30 0 43 -2 28 -4z m130 -10 c-16 -2 -40 -2 -55 0 -16 2 -3 4 27 4 30 0 43 -2
28 -4z m140 -10 c-15 -2 -42 -2 -60 0 -18 2 -6 4 27 4 33 0 48 -2 33 -4z m130
-10 c-16 -2 -40 -2 -55 0 -16 2 -3 4 27 4 30 0 43 -2 28 -4z m140 -10 c-15 -2
-42 -2 -60 0 -18 2 -6 4 27 4 33 0 48 -2 33 -4z m130 -10 c-16 -2 -40 -2 -55
0 -16 2 -3 4 27 4 30 0 43 -2 28 -4z m4589 -30 c-3 -10 -5 -4 -5 12 0 17 2 24
5 18 2 -7 2 -21 0 -30z m-4449 20 c-15 -2 -42 -2 -60 0 -18 2 -6 4 27 4 33 0
48 -2 33 -4z m130 -10 c-15 -2 -42 -2 -60 0 -18 2 -6 4 27 4 33 0 48 -2 33 -4z
m-2322 -41 c-5 -4 -66 26 -66 33 0 3 16 -3 35 -12 19 -9 33 -18 31 -21z m2452
31 c-16 -2 -40 -2 -55 0 -16 2 -3 4 27 4 30 0 43 -2 28 -4z m140 -10 c-15 -2
-42 -2 -60 0 -18 2 -6 4 27 4 33 0 48 -2 33 -4z m130 -10 c-16 -2 -40 -2 -55
0 -16 2 -3 4 27 4 30 0 43 -2 28 -4z m135 -10 c-13 -2 -35 -2 -50 0 -16 2 -5
4 22 4 28 0 40 -2 28 -4z m3794 -50 c-3 -10 -5 -2 -5 17 0 19 2 27 5 18 2 -10
2 -26 0 -35z m-6847 -68 c102 -52 181 -94 175 -94 -5 0 -93 42 -195 94 -102
52 -180 94 -175 94 6 0 93 -42 195 -94z m687 73 c-20 -83 -30 -182 -19 -186 9
-3 12 -845 12 -3513 l0 -3509 -114 0 c-79 0 -116 4 -118 12 -3 9 -29 8 -103
-5 -55 -9 -102 -14 -105 -11 -3 3 -4 210 -2 460 l3 454 -31 0 -30 0 0 3044 0
3045 28 3 27 3 3 113 3 112 225 0 226 0 -5 -22z m6251 -195 c-32 -2 -86 -2
-120 0 -35 2 -9 3 57 3 66 0 94 -1 63 -3z m300 -10 c-32 -2 -86 -2 -120 0 -35
2 -9 3 57 3 66 0 94 -1 63 -3z m300 -10 c-32 -2 -86 -2 -120 0 -35 2 -9 3 57
3 66 0 94 -1 63 -3z m300 -10 c-32 -2 -86 -2 -120 0 -35 2 -9 3 57 3 66 0 94
-1 63 -3z m300 -10 c-32 -2 -86 -2 -120 0 -35 2 -9 3 57 3 66 0 94 -1 63 -3z
m300 -10 c-32 -2 -86 -2 -120 0 -35 2 -9 3 57 3 66 0 94 -1 63 -3z m300 -10
c-32 -2 -86 -2 -120 0 -35 2 -9 3 57 3 66 0 94 -1 63 -3z m300 -10 c-32 -2
-86 -2 -120 0 -35 2 -9 3 57 3 66 0 94 -1 63 -3z m300 -10 c-32 -2 -86 -2
-120 0 -35 2 -9 3 57 3 66 0 94 -1 63 -3z m300 -10 c-32 -2 -86 -2 -120 0 -35
2 -9 3 57 3 66 0 94 -1 63 -3z m123 -113 c111 -38 203 -71 204 -72 6 -8 145
-381 145 -389 0 -5 -115 -9 -280 -9 l-280 0 0 270 c0 149 2 270 4 270 3 0 96
-31 207 -70z m-9914 -27 c-2 -16 -4 -3 -4 27 0 30 2 43 4 28 2 -16 2 -40 0
-55z m10 -195 c-2 -24 -4 -7 -4 37 0 44 2 63 4 43 2 -21 2 -57 0 -80z m9610
70 c-3 -7 -5 -2 -5 12 0 14 2 19 5 13 2 -7 2 -19 0 -25z m690 -75 c-2 -21 -4
-4 -4 37 0 41 2 58 4 38 2 -21 2 -55 0 -75z m-680 35 c-3 -8 -6 -5 -6 6 -1 11
2 17 5 13 3 -3 4 -12 1 -19z m10 -40 c-3 -8 -6 -5 -6 6 -1 11 2 17 5 13 3 -3
4 -12 1 -19z m10 -50 c-3 -7 -5 -2 -5 12 0 14 2 19 5 13 2 -7 2 -19 0 -25z
m-9630 -120 c-2 -24 -4 -7 -4 37 0 44 2 63 4 43 2 -21 2 -57 0 -80z m9640 80
c-3 -8 -6 -5 -6 6 -1 11 2 17 5 13 3 -3 4 -12 1 -19z m660 -90 c-2 -24 -4 -7
-4 37 0 44 2 63 4 43 2 -21 2 -57 0 -80z m-650 50 c-3 -8 -6 -5 -6 6 -1 11 2
17 5 13 3 -3 4 -12 1 -19z m10 -50 c-3 -7 -5 -2 -5 12 0 14 2 19 5 13 2 -7 2
-19 0 -25z m-9650 -175 c-2 -21 -4 -4 -4 37 0 41 2 58 4 38 2 -21 2 -55 0 -75z
m10300 -5 c-2 -24 -4 -7 -4 37 0 44 2 63 4 43 2 -21 2 -57 0 -80z m-674 95
c-7 -2 -19 -2 -25 0 -7 3 -2 5 12 5 14 0 19 -2 13 -5z m60 -10 c-7 -2 -21 -2
-30 0 -10 3 -4 5 12 5 17 0 24 -2 18 -5z m50 -10 c-7 -2 -19 -2 -25 0 -7 3 -2
5 12 5 14 0 19 -2 13 -5z m50 -10 c-7 -2 -19 -2 -25 0 -7 3 -2 5 12 5 14 0 19
-2 13 -5z m50 -10 c-7 -2 -19 -2 -25 0 -7 3 -2 5 12 5 14 0 19 -2 13 -5z m60
-10 c-7 -2 -19 -2 -25 0 -7 3 -2 5 12 5 14 0 19 -2 13 -5z m50 -10 c-7 -2 -19
-2 -25 0 -7 3 -2 5 12 5 14 0 19 -2 13 -5z m50 -10 c-7 -2 -19 -2 -25 0 -7 3
-2 5 12 5 14 0 19 -2 13 -5z m60 -10 c-7 -2 -21 -2 -30 0 -10 3 -4 5 12 5 17
0 24 -2 18 -5z m50 -10 c-7 -2 -19 -2 -25 0 -7 3 -2 5 12 5 14 0 19 -2 13 -5z
m50 -10 c-7 -2 -19 -2 -25 0 -7 3 -2 5 12 5 14 0 19 -2 13 -5z m87 -2668 l0
-2635 -55 0 -55 0 0 -61 0 -62 -285 5 c-156 2 -287 7 -291 11 -3 3 1 48 10
100 19 114 19 107 1 107 -13 0 -15 29 -15 205 l0 205 240 0 c211 0 240 -2 240
-16 0 -10 6 -14 18 -10 9 3 54 10 100 17 45 7 82 16 82 19 0 4 -44 13 -97 21
-79 12 -99 12 -101 2 -3 -10 -57 -13 -243 -13 l-239 0 0 2370 0 2370 345 0
345 0 0 -2635z m-10233 2498 c-2 -21 -4 -4 -4 37 0 41 2 58 4 38 2 -21 2 -55
0 -75z m10300 -10 c-2 -21 -4 -4 -4 37 0 41 2 58 4 38 2 -21 2 -55 0 -75z
m-6567 -75 c47 -43 29 -34 -28 14 -18 16 -29 28 -25 28 4 -1 28 -19 53 -42z
m-3723 -100 c-2 -24 -4 -7 -4 37 0 44 2 63 4 43 2 -21 2 -57 0 -80z m10300
-10 c-2 -24 -4 -7 -4 37 0 44 2 63 4 43 2 -21 2 -57 0 -80z m-6569 50 c-25 -7
-43 -6 -55 1 -14 8 -6 10 37 10 55 -1 55 -1 18 -11z m35 -15 c-7 -2 -19 -2
-25 0 -7 3 -2 5 12 5 14 0 19 -2 13 -5z m1865 0 c-16 -2 -40 -2 -55 0 -16 2
-3 4 27 4 30 0 43 -2 28 -4z m-1805 -10 c-7 -2 -19 -2 -25 0 -7 3 -2 5 12 5
14 0 19 -2 13 -5z m1925 0 c-16 -2 -40 -2 -55 0 -16 2 -3 4 27 4 30 0 43 -2
28 -4z m-1875 -10 c-7 -2 -19 -2 -25 0 -7 3 -2 5 12 5 14 0 19 -2 13 -5z
m1995 0 c-16 -2 -40 -2 -55 0 -16 2 -3 4 27 4 30 0 43 -2 28 -4z m-1945 -10
c-7 -2 -19 -2 -25 0 -7 3 -2 5 12 5 14 0 19 -2 13 -5z m2070 0 c-13 -2 -35 -2
-50 0 -16 2 -5 4 22 4 28 0 40 -2 28 -4z m-2020 -10 c-7 -2 -19 -2 -25 0 -7 3
-2 5 12 5 14 0 19 -2 13 -5z m2145 0 c-16 -2 -40 -2 -55 0 -16 2 -3 4 27 4 30
0 43 -2 28 -4z m-2095 -10 c-7 -2 -19 -2 -25 0 -7 3 -2 5 12 5 14 0 19 -2 13
-5z m2215 0 c-16 -2 -40 -2 -55 0 -16 2 -3 4 27 4 30 0 43 -2 28 -4z m-2155
-10 c-7 -2 -19 -2 -25 0 -7 3 -2 5 12 5 14 0 19 -2 13 -5z m2280 0 c-13 -2
-35 -2 -50 0 -16 2 -5 4 22 4 28 0 40 -2 28 -4z m-2230 -10 c-7 -2 -19 -2 -25
0 -7 3 -2 5 12 5 14 0 19 -2 13 -5z m2355 0 c-16 -2 -40 -2 -55 0 -16 2 -3 4
27 4 30 0 43 -2 28 -4z m-2305 -10 c-7 -2 -19 -2 -25 0 -7 3 -2 5 12 5 14 0
19 -2 13 -5z m2430 0 c-13 -2 -35 -2 -50 0 -16 2 -5 4 22 4 28 0 40 -2 28 -4z
m-2380 -10 c-7 -2 -19 -2 -25 0 -7 3 -2 5 12 5 14 0 19 -2 13 -5z m2500 0
c-13 -2 -35 -2 -50 0 -16 2 -5 4 22 4 28 0 40 -2 28 -4z m-6726 -115 c-2 -24
-4 -7 -4 37 0 44 2 63 4 43 2 -21 2 -57 0 -80z m6942 96 c2 -2 -19 -4 -47 -4
-29 0 -52 4 -52 10 0 9 88 3 99 -6z m-3211 -1 c-16 -2 -40 -2 -55 0 -16 2 -3
4 27 4 30 0 43 -2 28 -4z m6569 -105 c-2 -24 -4 -7 -4 37 0 44 2 63 4 43 2
-21 2 -57 0 -80z m-10290 -170 c-2 -24 -4 -7 -4 37 0 44 2 63 4 43 2 -21 2
-57 0 -80z m10300 -15 c-2 -21 -4 -4 -4 37 0 41 2 58 4 38 2 -21 2 -55 0 -75z
m-10290 -165 c-2 -24 -4 -7 -4 37 0 44 2 63 4 43 2 -21 2 -57 0 -80z m10300
-20 c-2 -24 -4 -7 -4 37 0 44 2 63 4 43 2 -21 2 -57 0 -80z m-3470 -265 c-1
-43 -3 -10 -3 72 0 83 2 118 3 78 2 -40 2 -107 0 -150z m-6820 100 c-2 -21 -4
-4 -4 37 0 41 2 58 4 38 2 -21 2 -55 0 -75z m10300 -15 c-2 -24 -4 -7 -4 37 0
44 2 63 4 43 2 -21 2 -57 0 -80z m-6670 -200 c-1 -40 -3 -8 -3 72 0 80 2 112
3 73 2 -40 2 -106 0 -145z m-3620 35 c-2 -21 -4 -4 -4 37 0 41 2 58 4 38 2
-21 2 -55 0 -75z m10300 -25 c-2 -24 -4 -7 -4 37 0 44 2 63 4 43 2 -21 2 -57
0 -80z m-3480 -265 c-1 -43 -3 -8 -3 77 0 85 2 120 3 78 2 -43 2 -113 0 -155z
m-6810 110 c-2 -21 -4 -4 -4 37 0 41 2 58 4 38 2 -21 2 -55 0 -75z m10300 -25
c-2 -24 -4 -7 -4 37 0 44 2 63 4 43 2 -21 2 -57 0 -80z m-6680 -205 c-1 -43
-3 -10 -3 72 0 83 2 118 3 78 2 -40 2 -107 0 -150z m-3610 45 c-2 -24 -4 -7
-4 37 0 44 2 63 4 43 2 -21 2 -57 0 -80z m10300 -25 c-2 -21 -4 -4 -4 37 0 41
2 58 4 38 2 -21 2 -55 0 -75z m-10290 -155 c-2 -24 -4 -7 -4 37 0 44 2 63 4
43 2 -21 2 -57 0 -80z m6800 -115 c-1 -43 -3 -8 -3 77 0 85 2 120 3 78 2 -43
2 -113 0 -155z m3500 90 c-2 -21 -4 -4 -4 37 0 41 2 58 4 38 2 -21 2 -55 0
-75z m-6690 -210 c-1 -43 -3 -8 -3 77 0 85 2 120 3 78 2 -43 2 -113 0 -155z
m-3600 55 c-2 -24 -4 -7 -4 37 0 44 2 63 4 43 2 -21 2 -57 0 -80z m10300 -30
c-2 -24 -4 -7 -4 37 0 44 2 63 4 43 2 -21 2 -57 0 -80z m-10290 -155 c-2 -21
-4 -4 -4 37 0 41 2 58 4 38 2 -21 2 -55 0 -75z m6790 -110 c-1 -43 -3 -10 -3
72 0 83 2 118 3 78 2 -40 2 -107 0 -150z m3510 80 c-2 -21 -4 -4 -4 37 0 41 2
58 4 38 2 -21 2 -55 0 -75z m-6700 -200 c-1 -43 -3 -10 -3 72 0 83 2 118 3 78
2 -40 2 -107 0 -150z m-3590 50 c-2 -21 -4 -4 -4 37 0 41 2 58 4 38 2 -21 2
-55 0 -75z m10300 -35 c-2 -24 -4 -7 -4 37 0 44 2 63 4 43 2 -21 2 -57 0 -80z
m-10290 -145 c-2 -21 -4 -4 -4 37 0 41 2 58 4 38 2 -21 2 -55 0 -75z m6780
-120 c-1 -43 -3 -8 -3 77 0 85 2 120 3 78 2 -43 2 -113 0 -155z m3520 85 c-2
-24 -4 -7 -4 37 0 44 2 63 4 43 2 -21 2 -57 0 -80z m-6710 -205 c-1 -43 -3
-10 -3 72 0 83 2 118 3 78 2 -40 2 -107 0 -150z m-3580 55 c-2 -24 -4 -7 -4
37 0 44 2 63 4 43 2 -21 2 -57 0 -80z m10300 -35 c-2 -21 -4 -4 -4 37 0 41 2
58 4 38 2 -21 2 -55 0 -75z m-10290 -145 c-2 -24 -4 -7 -4 37 0 44 2 63 4 43
2 -21 2 -57 0 -80z m6770 -125 c-1 -43 -3 -8 -3 77 0 85 2 120 3 78 2 -43 2
-113 0 -155z m3530 85 c-2 -24 -4 -7 -4 37 0 44 2 63 4 43 2 -21 2 -57 0 -80z
m-6720 -195 c-1 -43 -3 -10 -3 72 0 83 2 118 3 78 2 -40 2 -107 0 -150z
m-3570 55 c-2 -24 -4 -7 -4 37 0 44 2 63 4 43 2 -21 2 -57 0 -80z m10300 -40
c-2 -24 -4 -7 -4 37 0 44 2 63 4 43 2 -21 2 -57 0 -80z m-10290 -145 c-2 -21
-4 -4 -4 37 0 41 2 58 4 38 2 -21 2 -55 0 -75z m6760 -120 c-1 -43 -3 -10 -3
72 0 83 2 118 3 78 2 -40 2 -107 0 -150z m3540 80 c-2 -21 -4 -4 -4 37 0 41 2
58 4 38 2 -21 2 -55 0 -75z m-6730 -200 c-1 -43 -3 -10 -3 72 0 83 2 118 3 78
2 -40 2 -107 0 -150z m-3560 60 c-2 -21 -4 -4 -4 37 0 41 2 58 4 38 2 -21 2
-55 0 -75z m10300 -45 c-2 -24 -4 -7 -4 37 0 44 2 63 4 43 2 -21 2 -57 0 -80z
m-10290 -135 c-2 -21 -4 -4 -4 37 0 41 2 58 4 38 2 -21 2 -55 0 -75z m6750
-130 c-1 -43 -3 -10 -3 72 0 83 2 118 3 78 2 -40 2 -107 0 -150z m3550 85 c-2
-24 -4 -7 -4 37 0 44 2 63 4 43 2 -21 2 -57 0 -80z m-6740 -195 c-1 -43 -3
-10 -3 72 0 83 2 118 3 78 2 -40 2 -107 0 -150z m-3550 55 c-2 -24 -4 -7 -4
37 0 44 2 63 4 43 2 -21 2 -57 0 -80z m10300 -45 c-2 -21 -4 -4 -4 37 0 41 2
58 4 38 2 -21 2 -55 0 -75z m-10290 -135 c-2 -24 -4 -7 -4 37 0 44 2 63 4 43
2 -21 2 -57 0 -80z m6740 -135 c-1 -43 -3 -8 -3 77 0 85 2 120 3 78 2 -43 2
-113 0 -155z m3560 85 c-2 -24 -4 -7 -4 37 0 44 2 63 4 43 2 -21 2 -57 0 -80z
m-6750 -195 c-1 -43 -3 -10 -3 72 0 83 2 118 3 78 2 -40 2 -107 0 -150z
m-3540 65 c-2 -24 -4 -7 -4 37 0 44 2 63 4 43 2 -21 2 -57 0 -80z m10300 -50
c-2 -24 -4 -7 -4 37 0 44 2 63 4 43 2 -21 2 -57 0 -80z m-10290 -135 c-2 -21
-4 -4 -4 37 0 41 2 58 4 38 2 -21 2 -55 0 -75z m6730 -135 c-1 -46 -3 -11 -3
77 0 88 2 125 3 83 2 -42 2 -114 0 -160z m3570 80 c-2 -24 -4 -7 -4 37 0 44 2
63 4 43 2 -21 2 -57 0 -80z m-6760 -195 c-1 -43 -3 -8 -3 77 0 85 2 120 3 78
2 -43 2 -113 0 -155z m-3530 70 c-2 -21 -4 -4 -4 37 0 41 2 58 4 38 2 -21 2
-55 0 -75z m10300 -55 c-2 -24 -4 -7 -4 37 0 44 2 63 4 43 2 -21 2 -57 0 -80z
m-10290 -125 c-2 -21 -4 -4 -4 37 0 41 2 58 4 38 2 -21 2 -55 0 -75z m10300
-60 c-2 -21 -4 -4 -4 37 0 41 2 58 4 38 2 -21 2 -55 0 -75z m-10290 -120 c-2
-21 -4 -4 -4 37 0 41 2 58 4 38 2 -21 2 -55 0 -75z m10300 -65 c-2 -24 -4 -7
-4 37 0 44 2 63 4 43 2 -21 2 -57 0 -80z m-10290 -115 c-2 -21 -4 -6 -4 32 0
39 2 55 4 38 2 -18 2 -50 0 -70z m10300 -50 c-2 -16 -4 -5 -4 22 0 28 2 40 4
28 2 -13 2 -35 0 -50z m-3652 -202 l-49 -6 49 -44 c28 -24 41 -38 30 -31 -31
22 -85 73 -85 82 0 4 24 7 53 6 l52 -1 -50 -6z m-6676 -346 l76 -80 -73 70
c-41 39 -132 133 -204 210 l-131 140 128 -130 c71 -71 163 -166 204 -210z
m3331 130 c113 -113 203 -205 200 -205 -3 0 -97 92 -210 205 -113 113 -203
205 -200 205 3 0 97 -92 210 -205z m6697 189 c-3 -3 -12 -4 -19 -1 -8 3 -5 6
6 6 11 1 17 -2 13 -5z m40 -10 c-3 -3 -12 -4 -19 -1 -8 3 -5 6 6 6 11 1 17 -2
13 -5z m40 -10 c-3 -3 -12 -4 -19 -1 -8 3 -5 6 6 6 11 1 17 -2 13 -5z m40 -10
c-3 -3 -12 -4 -19 -1 -8 3 -5 6 6 6 11 1 17 -2 13 -5z m40 -10 c-3 -3 -12 -4
-19 -1 -8 3 -5 6 6 6 11 1 17 -2 13 -5z m40 -10 c-3 -3 -12 -4 -19 -1 -8 3 -5
6 6 6 11 1 17 -2 13 -5z m88 -25 c5 -5 -77 -8 -200 -7 l-210 2 185 6 c102 3
178 8 170 11 -8 3 -1 4 15 1 17 -2 34 -8 40 -13z m-3617 -6 c-16 -2 -40 -2
-55 0 -16 2 -3 4 27 4 30 0 43 -2 28 -4z m7 -69 c41 -31 75 -59 75 -61 0 -3
-17 7 -37 23 -111 82 -125 94 -119 94 4 0 40 -25 81 -56z m1992 50 c-3 -3 -12
-4 -19 -1 -8 3 -5 6 6 6 11 1 17 -2 13 -5z m1418 -142 c174 -130 218 -165 185
-147 -19 11 -371 274 -385 288 -23 23 29 -14 200 -141z m-1360 128 c13 -5 14
-9 5 -9 -8 0 -24 4 -35 9 -13 5 -14 9 -5 9 8 0 24 -4 35 -9z m52 -16 c-3 -3
-12 -4 -19 -1 -8 3 -5 6 6 6 11 1 17 -2 13 -5z m40 -10 c-3 -3 -12 -4 -19 -1
-8 3 -5 6 6 6 11 1 17 -2 13 -5z m40 -10 c-3 -3 -12 -4 -19 -1 -8 3 -5 6 6 6
11 1 17 -2 13 -5z m40 -10 c-3 -3 -12 -4 -19 -1 -8 3 -5 6 6 6 11 1 17 -2 13
-5z m58 -14 c13 -5 14 -9 5 -9 -8 0 -24 4 -35 9 -13 5 -14 9 -5 9 8 0 24 -4
35 -9z m-1885 -20 c0 -11 -7 -20 -15 -20 -8 0 -15 9 -15 20 0 11 7 20 15 20 8
0 15 -9 15 -20z m940 0 c0 -11 -7 -20 -15 -20 -8 0 -15 9 -15 20 0 11 7 20 15
20 8 0 15 -9 15 -20z m388 13 c-64 -2 -172 -2 -240 0 -68 1 -15 3 117 3 132 0
187 -2 123 -3z m172 -13 c0 -11 -7 -20 -15 -20 -8 0 -15 9 -15 20 0 11 7 20
15 20 8 0 15 -9 15 -20z m437 4 c-3 -3 -12 -4 -19 -1 -8 3 -5 6 6 6 11 1 17
-2 13 -5z m-497 -14 c0 -6 -85 -10 -235 -10 -150 0 -235 4 -235 10 0 6 85 10
235 10 150 0 235 -4 235 -10z m537 4 c-3 -3 -12 -4 -19 -1 -8 3 -5 6 6 6 11 1
17 -2 13 -5z m40 -10 c-3 -3 -12 -4 -19 -1 -8 3 -5 6 6 6 11 1 17 -2 13 -5z
m-2306 -21 c13 -16 12 -17 -3 -4 -17 13 -22 21 -14 21 2 0 10 -8 17 -17z
m2346 11 c-3 -3 -12 -4 -19 -1 -8 3 -5 6 6 6 11 1 17 -2 13 -5z m58 -14 c13
-5 14 -9 5 -9 -8 0 -24 4 -35 9 -13 5 -14 9 -5 9 8 0 24 -4 35 -9z m-2115
-445 l0 -445 21 0 c12 0 67 7 123 16 204 32 375 122 518 273 138 146 216 309
241 509 l11 92 293 0 293 0 0 -95 0 -95 563 0 c309 0 673 -3 810 -7 l247 -6 0
-598 0 -598 -92 -4 -93 -3 95 0 95 1 3 603 2 602 50 0 50 0 0 -655 0 -655
-1685 0 -1685 0 0 50 0 50 1538 2 1537 3 -1537 2 -1538 3 0 605 0 604 53 3 52
3 3 93 c2 73 6 92 17 92 13 0 15 -61 15 -445z m50 430 c0 -8 -7 -15 -15 -15
-8 0 -15 7 -15 15 0 8 7 15 15 15 8 0 15 -7 15 -15z m-210 -75 c87 -64 118
-90 90 -75 -26 15 -200 147 -200 152 0 3 6 1 13 -4 6 -5 50 -38 97 -73z m2327
74 c-3 -3 -12 -4 -19 -1 -8 3 -5 6 6 6 11 1 17 -2 13 -5z m40 -10 c-3 -3 -12
-4 -19 -1 -8 3 -5 6 6 6 11 1 17 -2 13 -5z m40 -10 c-3 -3 -12 -4 -19 -1 -8 3
-5 6 6 6 11 1 17 -2 13 -5z m40 -10 c-3 -3 -12 -4 -19 -1 -8 3 -5 6 6 6 11 1
17 -2 13 -5z m-2260 -576 c-1 -106 -2 -20 -2 192 0 212 1 298 2 193 2 -106 2
-280 0 -385z m20 0 c-1 -106 -2 -20 -2 192 0 212 1 298 2 193 2 -106 2 -280 0
-385z m2280 566 c-3 -3 -12 -4 -19 -1 -8 3 -5 6 6 6 11 1 17 -2 13 -5z m58
-14 c13 -5 14 -9 5 -9 -8 0 -24 4 -35 9 -13 5 -14 9 -5 9 8 0 24 -4 35 -9z
m52 -16 c-3 -3 -12 -4 -19 -1 -8 3 -5 6 6 6 11 1 17 -2 13 -5z m40 -10 c-3 -3
-12 -4 -19 -1 -8 3 -5 6 6 6 11 1 17 -2 13 -5z m40 -10 c-3 -3 -12 -4 -19 -1
-8 3 -5 6 6 6 11 1 17 -2 13 -5z m40 -10 c-3 -3 -12 -4 -19 -1 -8 3 -5 6 6 6
11 1 17 -2 13 -5z m58 -14 c13 -5 14 -9 5 -9 -8 0 -24 4 -35 9 -13 5 -14 9 -5
9 8 0 24 -4 35 -9z m52 -16 c-3 -3 -12 -4 -19 -1 -8 3 -5 6 6 6 11 1 17 -2 13
-5z m40 -10 c-3 -3 -12 -4 -19 -1 -8 3 -5 6 6 6 11 1 17 -2 13 -5z m40 -10
c-3 -3 -12 -4 -19 -1 -8 3 -5 6 6 6 11 1 17 -2 13 -5z m-6598 -124 c0 -9 -4
-8 -9 5 -5 11 -9 27 -9 35 0 9 4 8 9 -5 5 -11 9 -27 9 -35z m-3450 -10 c0 -9
-4 -8 -9 5 -5 11 -9 27 -9 35 0 9 4 8 9 -5 5 -11 9 -27 9 -35z m6850 -10 c0
-9 -4 -8 -9 5 -5 11 -9 27 -9 35 0 9 4 8 9 -5 5 -11 9 -27 9 -35z m-3370 -80
c0 -9 -4 -8 -9 5 -5 11 -9 27 -9 35 0 9 4 8 9 -5 5 -11 9 -27 9 -35z m-3450
-10 c0 -9 -4 -8 -9 5 -5 11 -9 27 -9 35 0 9 4 8 9 -5 5 -11 9 -27 9 -35z
m6850 -10 c0 -9 -4 -8 -9 5 -5 11 -9 27 -9 35 0 9 4 8 9 -5 5 -11 9 -27 9 -35z
m-3370 -80 c0 -9 -4 -8 -9 5 -5 11 -9 27 -9 35 0 9 4 8 9 -5 5 -11 9 -27 9
-35z m-3450 -10 c0 -9 -4 -8 -9 5 -5 11 -9 27 -9 35 0 9 4 8 9 -5 5 -11 9 -27
9 -35z m6850 -10 c0 -9 -4 -8 -9 5 -5 11 -9 27 -9 35 0 9 4 8 9 -5 5 -11 9
-27 9 -35z m-3370 -80 c0 -9 -4 -8 -9 5 -5 11 -9 27 -9 35 0 9 4 8 9 -5 5 -11
9 -27 9 -35z m-3450 -10 c0 -9 -4 -8 -9 5 -5 11 -9 27 -9 35 0 9 4 8 9 -5 5
-11 9 -27 9 -35z m6860 -40 c0 -9 -4 -8 -9 5 -5 11 -9 27 -9 35 0 9 4 8 9 -5
5 -11 9 -27 9 -35z m-3380 -50 c0 -9 -4 -8 -9 5 -5 11 -9 27 -9 35 0 9 4 8 9
-5 5 -11 9 -27 9 -35z m-3450 -10 c0 -9 -4 -8 -9 5 -5 11 -9 27 -9 35 0 9 4 8
9 -5 5 -11 9 -27 9 -35z m301 35 c104 -18 100 -18 100 0 0 12 19 15 115 15
l115 0 0 -209 c0 -151 -3 -210 -12 -213 -11 -4 -1 -103 19 -185 l5 -23 -231 0
-231 0 0 293 c0 160 3 302 6 315 7 26 6 26 114 7z m2770 0 c0 -18 -4 -18 100
0 47 8 91 15 98 15 10 0 12 -67 10 -316 l-3 -317 -1307 -1 c-718 -1 -1309 2
-1313 6 -4 4 0 49 9 101 19 114 19 107 1 107 -13 0 -15 29 -15 203 0 112 3
207 7 210 3 4 548 7 1210 7 1063 0 1203 -2 1203 -15z m680 0 c104 -18 100 -18
100 0 0 13 129 15 1105 15 l1105 0 0 -210 c0 -184 -2 -210 -16 -210 -10 0 -14
-6 -10 -17 3 -10 10 -55 17 -100 7 -46 15 -83 19 -83 4 0 12 37 19 83 7 45 14
90 17 100 4 11 0 17 -10 17 -14 0 -16 26 -16 210 l0 210 190 0 c157 0 190 -3
197 -15 8 -13 18 -13 93 0 47 8 91 15 98 15 9 0 12 -69 12 -314 l0 -314 -745
-7 c-410 -4 -1093 -4 -1519 0 -708 7 -774 9 -771 24 2 9 4 150 4 314 1 230 4
297 14 297 6 0 50 -7 97 -15z m3109 -75 c0 -9 -4 -8 -9 5 -5 11 -9 27 -9 35 0
9 4 8 9 -5 5 -11 9 -27 9 -35z m-3380 -50 c0 -9 -4 -8 -9 5 -5 11 -9 27 -9 35
0 9 4 8 9 -5 5 -11 9 -27 9 -35z m-3450 -10 c0 -9 -4 -8 -9 5 -5 11 -9 27 -9
35 0 9 4 8 9 -5 5 -11 9 -27 9 -35z m6860 -40 c0 -9 -4 -8 -9 5 -5 11 -9 27
-9 35 0 9 4 8 9 -5 5 -11 9 -27 9 -35z m341 -10 c0 -11 -7 -20 -15 -20 -8 0
-15 9 -15 20 0 11 7 20 15 20 8 0 15 -9 15 -20z m-3721 -40 c0 -9 -4 -8 -9 5
-5 11 -9 27 -9 35 0 9 4 8 9 -5 5 -11 9 -27 9 -35z m-3462 18 c-3 -8 -6 -5 -6
6 -1 11 2 17 5 13 3 -3 4 -12 1 -19z m6872 -68 c0 -9 -4 -8 -9 5 -5 11 -9 27
-9 35 0 9 4 8 9 -5 5 -11 9 -27 9 -35z m-3380 -50 c0 -9 -4 -8 -9 5 -5 11 -9
27 -9 35 0 9 4 8 9 -5 5 -11 9 -27 9 -35z m-3462 18 c-3 -8 -6 -5 -6 6 -1 11
2 17 5 13 3 -3 4 -12 1 -19z m32 -98 c0 -9 -4 -8 -9 5 -5 11 -9 27 -9 35 0 9
4 8 9 -5 5 -11 9 -27 9 -35z m6850 0 c0 -9 -4 -8 -9 5 -5 11 -9 27 -9 35 0 9
4 8 9 -5 5 -11 9 -27 9 -35z m-3390 -20 c0 -9 -4 -8 -9 5 -5 11 -9 27 -9 35 0
9 4 8 9 -5 5 -11 9 -27 9 -35z m-3430 -80 c0 -9 -4 -8 -9 5 -5 11 -9 27 -9 35
0 9 4 8 9 -5 5 -11 9 -27 9 -35z m6850 0 c0 -9 -4 -8 -9 5 -5 11 -9 27 -9 35
0 9 4 8 9 -5 5 -11 9 -27 9 -35z m-3390 -20 c0 -9 -4 -8 -9 5 -5 11 -9 27 -9
35 0 9 4 8 9 -5 5 -11 9 -27 9 -35z m-3442 -52 c-3 -8 -6 -5 -6 6 -1 11 2 17
5 13 3 -3 4 -12 1 -19z m6850 0 c-3 -8 -6 -5 -6 6 -1 11 2 17 5 13 3 -3 4 -12
1 -19z m-6992 -58 c-82 -3 -154 -2 -159 2 -6 5 62 7 150 6 l159 -2 -150 -6z
m3523 3 c-42 -2 -114 -2 -160 0 -46 1 -11 3 77 3 88 0 125 -2 83 -3z m3400 0
c-42 -2 -114 -2 -160 0 -46 1 -11 3 77 3 88 0 125 -2 83 -3z m-4438 -48 l0
-45 -770 0 -770 0 0 45 0 45 770 0 770 0 0 -45z m3430 0 l0 -45 -765 0 -765 0
0 45 0 45 765 0 765 0 0 -45z m-5985 25 c13 -5 14 -9 5 -9 -8 0 -24 4 -35 9
-13 5 -14 9 -5 9 8 0 24 -4 35 -9z m2708 3 c-7 -2 -21 -2 -30 0 -10 3 -4 5 12
5 17 0 24 -2 18 -5z m50 -10 c-7 -2 -19 -2 -25 0 -7 3 -2 5 12 5 14 0 19 -2
13 -5z m3372 -3 c13 -5 14 -9 5 -9 -8 0 -24 4 -35 9 -13 5 -14 9 -5 9 8 0 24
-4 35 -9z m-3312 -7 c-7 -2 -21 -2 -30 0 -10 3 -4 5 12 5 17 0 24 -2 18 -5z
m50 -10 c-7 -2 -19 -2 -25 0 -7 3 -2 5 12 5 14 0 19 -2 13 -5z m-2756 -9 c-3
-3 -12 -4 -19 -1 -8 3 -5 6 6 6 11 1 17 -2 13 -5z m2816 -1 c-7 -2 -19 -2 -25
0 -7 3 -2 5 12 5 14 0 19 -2 13 -5z m60 -10 c-7 -2 -21 -2 -30 0 -10 3 -4 5
12 5 17 0 24 -2 18 -5z m3272 -3 c13 -5 14 -9 5 -9 -8 0 -24 4 -35 9 -13 5
-14 9 -5 9 8 0 24 -4 35 -9z m-6060 -10 c13 -5 14 -9 5 -9 -8 0 -24 4 -35 9
-13 5 -14 9 -5 9 8 0 24 -4 35 -9z m2838 3 c-7 -2 -19 -2 -25 0 -7 3 -2 5 12
5 14 0 19 -2 13 -5z m60 -10 c-7 -2 -21 -2 -30 0 -10 3 -4 5 12 5 17 0 24 -2
18 -5z m50 -10 c-7 -2 -19 -2 -25 0 -7 3 -2 5 12 5 14 0 19 -2 13 -5z m-2848
-13 c13 -5 14 -9 5 -9 -8 0 -24 4 -35 9 -13 5 -14 9 -5 9 8 0 24 -4 35 -9z
m2908 3 c-7 -2 -19 -2 -25 0 -7 3 -2 5 12 5 14 0 19 -2 13 -5z m3182 -3 c13
-5 14 -9 5 -9 -8 0 -24 4 -35 9 -13 5 -14 9 -5 9 8 0 24 -4 35 -9z m-3835 -50
l0 -50 -767 2 -768 3 -3 33 c-7 67 -67 62 773 62 l765 0 0 -50z m713 43 c-7
-2 -21 -2 -30 0 -10 3 -4 5 12 5 17 0 24 -2 18 -5z m2717 -43 l0 -50 -765 0
-765 0 0 50 0 50 765 0 765 0 0 -50z m-2667 33 c-7 -2 -19 -2 -25 0 -7 3 -2 5
12 5 14 0 19 -2 13 -5z m-2918 -13 c13 -5 14 -9 5 -9 -8 0 -24 4 -35 9 -13 5
-14 9 -5 9 8 0 24 -4 35 -9z m2978 3 c-7 -2 -19 -2 -25 0 -7 3 -2 5 12 5 14 0
19 -2 13 -5z m60 -10 c-7 -2 -21 -2 -30 0 -10 3 -4 5 12 5 17 0 24 -2 18 -5z
m3082 -3 c13 -5 14 -9 5 -9 -8 0 -24 4 -35 9 -13 5 -14 9 -5 9 8 0 24 -4 35
-9z m-3032 -7 c-7 -2 -19 -2 -25 0 -7 3 -2 5 12 5 14 0 19 -2 13 -5z m-2988
-13 c13 -5 14 -9 5 -9 -8 0 -24 4 -35 9 -13 5 -14 9 -5 9 8 0 24 -4 35 -9z
m3048 3 c-7 -2 -21 -2 -30 0 -10 3 -4 5 12 5 17 0 24 -2 18 -5z m50 -10 c-7
-2 -19 -2 -25 0 -7 3 -2 5 12 5 14 0 19 -2 13 -5z m60 -10 c-7 -2 -19 -2 -25
0 -7 3 -2 5 12 5 14 0 19 -2 13 -5z m2992 -3 c13 -5 14 -9 5 -9 -8 0 -24 4
-35 9 -13 5 -14 9 -5 9 8 0 24 -4 35 -9z m-6050 -10 c13 -5 14 -9 5 -9 -8 0
-24 4 -35 9 -13 5 -14 9 -5 9 8 0 24 -4 35 -9z m3118 3 c-7 -2 -21 -2 -30 0
-10 3 -4 5 12 5 17 0 24 -2 18 -5z m50 -10 c-7 -2 -19 -2 -25 0 -7 3 -2 5 12
5 14 0 19 -2 13 -5z m60 -10 c-7 -2 -19 -2 -25 0 -7 3 -2 5 12 5 14 0 19 -2
13 -5z m-3128 -13 c13 -5 14 -9 5 -9 -8 0 -24 4 -35 9 -13 5 -14 9 -5 9 8 0
24 -4 35 -9z m3188 3 c-7 -2 -21 -2 -30 0 -10 3 -4 5 12 5 17 0 24 -2 18 -5z
m2907 -8 c19 -7 28 -13 20 -13 -8 0 -31 6 -50 13 -19 7 -28 13 -20 13 8 0 31
-6 50 -13z m-4240 -40 l0 -45 -770 0 -770 0 0 45 0 45 770 0 770 0 0 -45z
m1383 38 c-7 -2 -19 -2 -25 0 -7 3 -2 5 12 5 14 0 19 -2 13 -5z m2047 -38 l0
-45 -765 0 -765 0 0 45 0 45 765 0 765 0 0 -45z m-1987 28 c-7 -2 -21 -2 -30
0 -10 3 -4 5 12 5 17 0 24 -2 18 -5z m-3198 -13 c13 -5 14 -9 5 -9 -8 0 -24 4
-35 9 -13 5 -14 9 -5 9 8 0 24 -4 35 -9z m3248 3 c-7 -2 -19 -2 -25 0 -7 3 -2
5 12 5 14 0 19 -2 13 -5z m60 -10 c-7 -2 -19 -2 -25 0 -7 3 -2 5 12 5 14 0 19
-2 13 -5z m2817 -8 c19 -7 28 -13 20 -13 -8 0 -31 6 -50 13 -19 7 -28 13 -20
13 8 0 31 -6 50 -13z m-2757 -2 c-7 -2 -21 -2 -30 0 -10 3 -4 5 12 5 17 0 24
-2 18 -5z m-3268 -13 c13 -5 14 -9 5 -9 -8 0 -24 4 -35 9 -13 5 -14 9 -5 9 8
0 24 -4 35 -9z m3318 3 c-7 -2 -19 -2 -25 0 -7 3 -2 5 12 5 14 0 19 -2 13 -5z
m60 -10 c-7 -2 -21 -2 -30 0 -10 3 -4 5 12 5 17 0 24 -2 18 -5z m60 -10 c-7
-2 -21 -2 -30 0 -10 3 -4 5 12 5 17 0 24 -2 18 -5z m2684 1 c-3 -3 -12 -4 -19
-1 -8 3 -5 6 6 6 11 1 17 -2 13 -5z"/>
<path d="M13072 13853 c-35 -17 -52 -56 -35 -82 28 -45 140 -57 187 -20 85 67
-45 155 -152 102z m152 -29 c25 -10 19 -43 -10 -54 -14 -6 -47 -10 -74 -10
-64 0 -100 14 -100 39 0 14 10 23 33 30 31 10 120 7 151 -5z"/>
<path d="M13056 13679 c-52 -41 -20 -103 59 -115 74 -11 135 19 135 66 0 45
-40 70 -110 70 -43 0 -64 -5 -84 -21z m165 -19 c22 -12 25 -45 5 -53 -30 -12
-103 -17 -135 -9 -45 10 -63 38 -37 58 23 17 137 19 167 4z"/>
<path d="M13056 13519 c-52 -41 -20 -103 59 -115 74 -11 135 19 135 66 0 45
-40 70 -110 70 -43 0 -64 -5 -84 -21z m165 -19 c22 -12 25 -45 5 -53 -30 -12
-103 -17 -135 -9 -45 10 -63 38 -37 58 23 17 137 19 167 4z"/>
<path d="M13030 13311 c0 -34 2 -61 4 -61 2 0 11 -2 19 -6 11 -4 13 4 9 45 -2
29 0 51 5 51 5 0 48 -13 96 -29 48 -17 87 -26 87 -21 0 5 -44 23 -97 41 -54
17 -104 34 -110 37 -10 3 -13 -12 -13 -57z"/>
<path d="M21602 10038 l3 -343 453 -3 452 -2 0 345 0 345 -455 0 -455 0 2
-342z m868 2 l0 -300 -410 0 -410 0 0 300 0 300 410 0 410 0 0 -300z"/>
<path d="M21680 10035 l0 -265 378 2 377 3 3 263 2 262 -380 0 -380 0 0 -265z
m680 221 c0 -2 -27 -21 -60 -42 -33 -22 -60 -42 -60 -46 0 -5 -4 -8 -9 -8 -5
0 -46 -25 -90 -55 l-80 -56 -88 58 c-48 32 -89 61 -91 66 -2 4 -10 7 -18 7 -8
0 -14 3 -14 8 0 4 -20 20 -45 35 -25 16 -45 31 -45 33 0 2 135 4 300 4 165 0
300 -2 300 -4z m-563 -51 c35 -25 68 -45 73 -45 6 0 10 -4 10 -10 0 -5 6 -10
14 -10 8 0 16 -4 18 -8 2 -5 31 -28 66 -51 l63 -43 -39 -26 c-130 -89 -272
-182 -277 -182 -3 0 -5 95 -5 210 0 116 3 210 6 210 3 0 35 -20 71 -45z m591
-269 l-3 -105 -115 76 c-63 42 -128 86 -143 99 -30 25 -57 31 -57 14 0 -5 6
-10 13 -10 6 0 25 -12 42 -26 16 -14 77 -55 134 -92 l106 -67 -153 -3 c-83 -1
-220 -1 -304 0 l-152 3 85 55 c46 30 86 58 87 62 2 4 10 8 17 8 7 0 15 4 17 9
2 5 44 35 93 66 50 32 92 61 95 64 3 3 17 12 33 20 15 8 27 18 27 23 0 4 5 8
10 8 6 0 16 5 23 11 7 5 41 29 77 53 l65 43 3 -103 c1 -57 1 -151 0 -208z"/>
<path d="M20843 10339 c-84 -16 -167 -79 -209 -159 -28 -52 -26 -191 3 -245
112 -209 403 -210 510 -1 105 205 -78 449 -304 405z m177 -47 c93 -46 148
-151 137 -260 -16 -154 -170 -267 -316 -232 -71 17 -139 65 -176 124 -25 41
-31 62 -33 125 -3 68 -1 82 25 130 71 136 223 183 363 113z"/>
<path d="M20864 10241 c-61 -26 -90 -105 -82 -221 5 -71 29 -109 81 -129 45
-17 81 -8 118 29 25 24 29 36 29 82 0 56 -16 86 -57 107 -34 17 -78 13 -107
-10 l-27 -21 6 28 c23 105 78 136 127 74 17 -21 29 -29 41 -24 23 9 21 19 -10
54 -30 33 -82 46 -119 31z m86 -188 c38 -48 6 -133 -50 -133 -29 0 -60 33 -66
70 -8 46 25 90 66 90 19 0 36 -9 50 -27z"/>
<path d="M19981 18959 c-66 -71 -60 -92 7 -26 45 44 49 46 65 30 13 -13 20
-14 29 -5 9 9 6 17 -12 37 -13 14 -26 24 -29 24 -3 -1 -30 -28 -60 -60z"/>
<path d="M17490 18960 c-26 -26 -27 -49 -1 -26 11 10 30 16 43 14 50 -7 30
-95 -36 -157 -14 -14 -26 -28 -26 -33 0 -13 105 -9 118 4 20 20 14 23 -40 20
l-53 -4 36 39 c64 67 77 119 37 147 -30 21 -54 20 -78 -4z"/>
<path d="M17660 18960 c-25 -25 -25 -41 -1 -71 18 -23 18 -24 -1 -50 -25 -33
-20 -59 13 -78 34 -19 73 -8 87 25 13 27 10 36 -20 70 -18 20 -18 21 2 39 26
24 25 50 -2 69 -30 21 -54 20 -78 -4z m70 -5 c10 -12 10 -21 2 -40 -19 -41
-62 -25 -62 21 0 33 38 45 60 19z m10 -161 c0 -24 -23 -38 -51 -29 -25 8 -29
56 -7 83 15 17 58 -23 58 -54z"/>
<path d="M17995 18956 c-64 -64 -26 -221 49 -202 84 21 70 226 -15 226 -6 0
-21 -11 -34 -24z m59 -8 c23 -33 22 -139 -2 -168 -24 -29 -39 -20 -52 32 -16
57 3 158 30 158 5 0 16 -10 24 -22z"/>
<path d="M17832 18933 l-19 -36 41 -21 c31 -16 42 -28 44 -49 5 -43 -15 -60
-60 -53 -39 6 -53 -8 -19 -19 79 -25 139 84 75 134 -15 12 -33 21 -41 21 -8 0
-13 7 -11 18 2 12 14 18 41 20 47 4 49 22 2 22 -30 0 -37 -5 -53 -37z"/>
<path d="M20102 18927 c-8 -10 -6 -16 10 -26 20 -12 19 -14 -28 -62 -26 -27
-45 -52 -41 -56 4 -4 34 20 67 52 l60 59 -22 23 c-25 26 -31 28 -46 10z"/>
<path d="M15321 18854 c-11 -14 -17 -32 -14 -40 7 -18 12 -18 35 3 18 16 21
14 72 -36 36 -36 56 -49 61 -41 9 15 -64 92 -79 83 -6 -3 -8 -2 -3 2 7 9 -30
55 -44 55 -4 0 -17 -12 -28 -26z"/>
<path d="M20665 18830 c-81 -14 -140 -49 -186 -113 -81 -111 -63 -289 38 -377
139 -122 366 -85 442 73 106 219 -61 455 -294 417z m161 -41 c51 -24 107 -83
130 -136 10 -22 17 -65 17 -103 0 -79 -27 -143 -84 -194 -55 -50 -103 -69
-179 -69 -152 0 -264 112 -263 263 0 82 26 142 82 193 86 77 194 94 297 46z"/>
<path d="M20626 18643 c-10 -54 -13 -90 -7 -96 6 -6 25 -2 51 11 76 37 134 -6
114 -85 -17 -70 -104 -85 -127 -22 -8 21 -17 29 -31 27 -27 -4 -29 -18 -6 -55
26 -44 85 -62 136 -42 53 20 79 60 79 120 0 41 -5 53 -31 79 -32 33 -77 42
-122 26 -21 -7 -22 -5 -16 21 14 66 10 63 85 63 62 0 69 2 69 20 0 19 -7 20
-89 20 l-89 0 -16 -87z"/>
<path d="M15265 18780 c3 -6 3 -15 -1 -21 -4 -7 -9 -8 -13 -1 -4 7 -13 5 -26
-4 -18 -14 -17 -16 30 -64 26 -27 53 -46 58 -43 6 3 7 1 4 -4 -9 -14 19 -37
34 -28 7 5 -6 25 -37 56 -26 26 -52 46 -57 42 -5 -3 -4 4 2 15 6 12 16 24 21
27 15 9 12 22 -6 29 -8 3 -12 2 -9 -4z"/>
<path d="M21813 18585 c-62 -26 -65 -87 -6 -114 34 -16 109 -14 143 4 105 54
-25 159 -137 110z m154 -37 c37 -30 -9 -58 -96 -58 -70 0 -115 26 -92 53 7 9
25 18 39 20 40 7 134 -2 149 -15z"/>
<path d="M21892 18405 c-29 -24 -29 -24 -47 -5 -24 27 -51 25 -71 -5 -21 -32
-11 -72 22 -87 20 -10 29 -8 52 9 28 20 28 20 52 1 30 -24 61 -20 79 13 19 34
8 73 -24 87 -33 15 -29 16 -63 -13z m-56 -19 c25 -19 9 -50 -29 -54 -30 -4
-46 30 -27 53 16 19 31 19 56 1z m139 -5 c12 -38 -9 -58 -55 -51 -35 5 -42 22
-19 47 27 28 65 30 74 4z"/>
<path d="M21770 18200 c0 -33 4 -60 9 -60 5 0 18 -3 28 -7 17 -7 17 -6 1 11
-15 14 -27 96 -15 96 2 0 43 -13 92 -30 93 -31 116 -36 100 -21 -10 8 -192 71
-208 71 -4 0 -7 -27 -7 -60z"/>
<path d="M20840 18080 c-11 -11 -20 -25 -20 -31 0 -6 7 -3 16 6 9 9 28 15 43
13 53 -6 35 -93 -33 -157 -14 -14 -26 -28 -26 -32 0 -11 103 -9 117 3 23 19
14 23 -39 20 l-53 -4 36 39 c64 67 77 119 37 147 -30 21 -54 20 -78 -4z"/>
<path d="M21022 18084 c-35 -24 -27 -53 30 -111 44 -44 51 -56 42 -71 -14 -22
-54 -22 -68 0 -8 13 -7 26 1 48 13 34 11 37 -11 14 -21 -21 -20 -57 2 -77 23
-21 51 -22 80 -1 37 25 28 59 -28 111 -27 25 -50 52 -50 58 0 20 28 37 50 30
22 -7 26 -35 9 -66 -9 -18 -8 -19 9 -10 49 26 27 91 -32 91 -6 0 -22 -7 -34
-16z"/>
<path d="M21185 18092 c-5 -4 -17 -16 -25 -26 -15 -19 -14 -19 13 -2 22 15 30
16 42 6 21 -17 19 -58 -4 -72 -19 -12 -19 -12 1 -22 60 -31 46 -82 -22 -79
-48 2 -52 -20 -4 -25 66 -7 110 73 67 120 -13 14 -14 21 -5 30 7 7 12 22 12
35 0 32 -48 55 -75 35z"/>
<path d="M21345 18076 c-64 -64 -26 -221 49 -202 84 21 70 226 -15 226 -6 0
-21 -11 -34 -24z m75 -91 c0 -65 -24 -116 -48 -101 -34 21 -37 160 -4 193 14
14 17 13 34 -7 13 -16 18 -39 18 -85z"/>
<path d="M21980 18060 c0 -6 -43 -10 -109 -10 l-109 0 11 -31 c8 -20 13 -25
15 -15 3 13 19 16 91 16 54 0 92 -5 99 -12 9 -9 12 -4 12 25 0 20 -2 37 -5 37
-3 0 -5 -4 -5 -10z"/>
<path d="M18498 18025 c-57 -31 -40 -95 31 -116 79 -23 171 20 157 74 -3 15
-19 33 -36 42 -37 19 -117 19 -152 0z m172 -35 c15 -23 7 -34 -36 -48 -45 -15
-123 -8 -151 14 -17 13 -17 15 7 35 21 18 35 20 98 17 50 -2 76 -8 82 -18z"/>
<path d="M18513 17865 c-62 -26 -65 -87 -6 -114 34 -16 109 -14 143 4 105 54
-25 159 -137 110z m154 -37 c37 -30 -9 -58 -96 -58 -70 0 -115 26 -92 53 7 9
25 18 39 20 40 7 134 -2 149 -15z"/>
<path d="M18592 17685 c-29 -24 -29 -24 -47 -5 -24 27 -51 25 -71 -5 -21 -32
-11 -72 22 -87 20 -10 29 -8 52 9 28 20 28 20 52 1 30 -24 61 -20 79 13 19 34
8 73 -24 87 -33 15 -29 16 -63 -13z m-56 -19 c25 -19 9 -50 -29 -54 -30 -4
-46 30 -27 53 16 19 31 19 56 1z m139 -5 c12 -38 -9 -58 -55 -51 -35 5 -42 22
-19 47 27 28 65 30 74 4z"/>
<path d="M18658 17488 l4 -53 -39 36 c-46 44 -73 59 -107 59 -27 0 -56 -32
-56 -62 0 -20 34 -58 51 -58 6 0 3 7 -6 16 -24 24 -16 68 14 72 39 6 65 -6
114 -48 25 -22 48 -37 50 -33 9 16 6 98 -5 110 -19 23 -23 14 -20 -39z"/>
<path d="M17493 17119 c-84 -16 -167 -79 -209 -159 -28 -52 -26 -191 3 -245
112 -209 403 -210 510 -1 105 205 -78 449 -304 405z m177 -47 c93 -46 148
-151 137 -260 -16 -154 -170 -267 -316 -232 -71 17 -139 65 -176 124 -25 41
-31 62 -33 125 -3 68 -1 82 25 130 71 136 223 183 363 113z"/>
<path d="M17525 16989 c-17 -17 -42 -38 -57 -47 -28 -16 -39 -52 -17 -52 7 0
27 9 45 21 l34 21 0 -136 0 -136 25 0 25 0 -2 177 c-2 112 -7 178 -13 180 -6
2 -24 -11 -40 -28z"/>
<path d="M16786 16961 c-36 -36 -56 -64 -51 -71 5 -8 23 3 56 36 46 46 49 47
67 31 16 -15 21 -15 30 -4 9 11 5 20 -16 40 l-28 27 -58 -59z"/>
<path d="M16912 16928 c-9 -9 -8 -16 5 -30 16 -18 14 -21 -31 -67 -27 -27 -43
-51 -38 -55 9 -5 112 92 120 113 1 4 -8 17 -21 29 -18 17 -26 19 -35 10z"/>
<path d="M19982 16847 c-29 -29 -52 -56 -52 -60 0 -18 26 -3 60 36 37 41 38
41 57 24 18 -16 21 -16 33 -2 11 13 9 19 -10 35 -13 11 -26 20 -29 20 -4 0
-30 -24 -59 -53z"/>
<path d="M20110 16815 c-11 -13 -10 -18 3 -33 14 -16 11 -21 -29 -62 -24 -25
-44 -48 -44 -52 0 -18 19 -5 75 52 l59 60 -25 26 c-23 22 -27 23 -39 9z"/>
<path d="M16290 16310 c-9 -6 -10 -10 -3 -10 6 0 15 5 18 10 8 12 4 12 -15 0z"/>
<path d="M17475 15601 c-4 -7 13 -31 40 -57 43 -43 45 -47 28 -59 -16 -13 -17
-15 -2 -30 14 -14 17 -13 39 10 l24 26 -61 60 c-38 39 -63 57 -68 50z"/>
<path d="M17360 15482 c0 -4 26 -33 58 -65 l58 -57 23 24 c20 22 22 28 11 41
-12 15 -14 15 -22 1 -14 -24 -27 -19 -65 24 -32 36 -63 52 -63 32z"/>
<path d="M21786 14399 c-52 -41 -20 -103 59 -115 74 -11 135 19 135 66 0 45
-40 70 -110 70 -43 0 -64 -5 -84 -21z m165 -19 c22 -12 25 -45 5 -53 -30 -12
-103 -17 -135 -9 -45 10 -63 38 -37 58 23 17 137 19 167 4z"/>
<path d="M21802 14243 c-35 -17 -52 -56 -35 -82 16 -25 54 -41 103 -41 76 0
119 34 106 84 -12 50 -108 72 -174 39z m152 -29 c25 -10 19 -43 -10 -54 -14
-6 -47 -10 -74 -10 -64 0 -100 14 -100 39 0 14 10 23 33 30 31 10 120 7 151
-5z"/>
<path d="M21900 14075 c0 -12 -14 -15 -70 -15 -38 0 -70 -4 -70 -8 0 -11 132
-102 148 -102 8 0 12 16 12 45 0 43 1 45 30 45 17 0 30 5 30 10 0 6 -11 10
-25 10 -14 0 -28 7 -31 15 -4 8 -10 15 -15 15 -5 0 -9 -7 -9 -15z m0 -75 l0
-40 -50 36 c-27 20 -50 38 -50 40 0 2 23 4 50 4 l50 0 0 -40z"/>
<path d="M21760 13880 c0 -36 4 -41 40 -60 49 -25 50 -25 50 3 0 13 10 33 23
45 48 46 111 14 85 -42 -12 -27 -7 -42 11 -31 20 12 12 70 -12 93 -42 40 -105
26 -127 -28 -16 -39 -34 -34 -38 12 -5 53 -32 59 -32 8z"/>
<path d="M14233 13469 c-84 -16 -167 -79 -209 -159 -28 -52 -26 -191 3 -245
112 -209 403 -210 510 -1 105 205 -78 449 -304 405z m174 -45 c221 -106 171
-444 -73 -494 -105 -22 -220 29 -279 124 -25 41 -31 62 -33 125 -3 68 -1 82
25 130 70 134 221 182 360 115z"/>
<path d="M14246 13365 c-35 -18 -55 -43 -56 -67 0 -27 39 -23 49 6 22 57 111
41 111 -21 0 -25 -30 -53 -58 -53 -15 0 -22 -6 -22 -19 0 -15 8 -21 32 -23 44
-4 74 -46 61 -84 -21 -62 -104 -71 -126 -14 -11 29 -39 40 -52 20 -12 -19 26
-72 62 -87 79 -33 163 18 163 99 0 34 -6 50 -25 68 l-24 23 19 25 c27 34 25
66 -7 102 -34 38 -85 48 -127 25z"/>
<path d="M20872 13159 c-72 -35 -114 -83 -142 -157 -41 -108 -17 -206 68 -292
89 -88 185 -111 294 -70 74 28 122 70 157 142 96 191 -41 408 -258 408 -45 0
-72 -7 -119 -31z m221 -5 c62 -21 130 -89 151 -151 22 -64 20 -148 -5 -203
-77 -172 -297 -212 -429 -80 -202 202 10 527 283 434z"/>
<path d="M20961 12976 c-50 -71 -81 -125 -81 -141 0 -25 1 -25 75 -25 l75 0 0
-40 c0 -36 3 -40 25 -40 23 0 25 4 25 40 0 33 3 40 20 40 15 0 20 7 20 25 0
18 -5 25 -20 25 -18 0 -20 8 -22 112 -4 152 -12 153 -117 4z m69 -46 l0 -70
-50 0 c-27 0 -50 2 -50 5 0 6 91 135 96 135 2 0 4 -31 4 -70z"/>
<path d="M18503 13115 c-62 -26 -65 -87 -6 -114 34 -16 109 -14 143 4 105 54
-25 159 -137 110z m154 -37 c37 -30 -9 -58 -96 -58 -70 0 -115 26 -92 53 7 9
25 18 39 20 40 7 134 -2 149 -15z"/>
<path d="M17680 13101 c-79 -26 -160 -100 -185 -171 -81 -223 126 -445 349
-375 198 62 265 317 123 463 -60 62 -109 85 -192 88 -38 2 -81 0 -95 -5z m162
-21 c21 -6 57 -25 80 -43 150 -115 133 -349 -32 -441 -48 -27 -65 -31 -130
-31 -65 0 -82 4 -130 31 -235 131 -144 491 125 494 28 0 67 -5 87 -10z"/>
<path d="M17712 12995 c-31 -14 -67 -70 -56 -87 12 -18 40 -6 51 22 24 63 115
47 121 -22 3 -32 -3 -41 -54 -89 -96 -90 -112 -108 -123 -139 l-10 -30 120 0
c112 0 119 1 119 20 0 18 -7 20 -87 20 l-88 1 69 64 c38 35 77 77 87 92 61 92
-43 196 -149 148z"/>
<path d="M18470 12940 c-24 -24 -25 -48 -4 -78 24 -35 53 -27 111 30 44 44 56
51 71 42 22 -14 22 -54 0 -68 -13 -8 -26 -7 -48 1 -34 13 -37 11 -14 -11 21
-21 57 -20 77 2 21 23 22 51 1 80 -25 37 -59 28 -111 -28 -49 -53 -63 -59 -83
-35 -30 36 15 69 60 45 16 -9 18 -8 14 5 -6 14 -34 35 -48 35 -3 0 -15 -9 -26
-20z"/>
<path d="M18460 12743 c0 -55 2 -61 27 -72 27 -12 27 -12 10 6 -17 20 -24 93
-9 93 5 0 48 -13 97 -30 101 -34 95 -33 95 -21 0 5 -44 24 -97 42 -54 17 -104
34 -110 37 -10 3 -13 -12 -13 -55z"/>
<path d="M18460 12585 c0 -30 5 -37 39 -54 l39 -20 7 27 c10 39 34 62 65 62
38 0 54 -22 46 -65 -7 -37 8 -50 19 -16 25 79 -84 139 -134 75 -12 -15 -21
-33 -21 -41 0 -8 -7 -13 -17 -11 -13 2 -19 14 -21 41 -4 47 -22 49 -22 2z"/>
<path d="M20840 11970 c-26 -26 -27 -49 -1 -26 11 10 30 16 43 14 50 -7 30
-95 -36 -157 -14 -14 -26 -27 -26 -31 0 -12 101 -11 116 1 24 20 16 24 -38 21
l-53 -4 36 39 c64 67 77 119 37 147 -30 21 -54 20 -78 -4z"/>
<path d="M21022 11974 c-35 -24 -27 -53 30 -111 44 -44 51 -56 42 -71 -14 -22
-54 -22 -68 0 -8 13 -7 26 1 48 13 34 11 37 -11 14 -21 -21 -20 -57 2 -77 23
-21 51 -22 80 -1 37 25 28 59 -28 111 -27 25 -50 52 -50 58 0 20 28 37 50 30
22 -7 26 -35 9 -66 -9 -18 -8 -19 9 -10 49 26 27 91 -32 91 -6 0 -22 -7 -34
-16z"/>
<path d="M21182 11983 c-7 -2 -17 -14 -23 -25 -10 -19 -10 -19 15 -3 21 14 29
15 41 5 21 -17 19 -58 -4 -72 -19 -12 -19 -12 1 -22 60 -31 46 -82 -22 -79
-48 2 -52 -20 -4 -25 66 -7 110 73 67 120 -13 14 -14 21 -5 30 38 38 -12 93
-66 71z"/>
<path d="M21345 11966 c-64 -64 -26 -221 49 -202 84 21 70 226 -15 226 -6 0
-21 -11 -34 -24z m59 -8 c23 -33 22 -139 -2 -168 -24 -29 -39 -20 -52 32 -16
57 3 158 30 158 5 0 16 -10 24 -22z"/>
<path d="M14117 10522 c-24 -26 -21 -46 3 -22 36 36 70 19 70 -36 0 -25 -12
-45 -51 -89 l-52 -56 69 3 c57 3 69 6 72 21 3 16 1 17 -16 8 -12 -6 -35 -11
-52 -11 l-31 0 45 56 c49 60 59 100 30 128 -21 22 -67 20 -87 -2z"/>
<path d="M14285 10520 c-26 -28 -25 -88 1 -107 11 -8 30 -12 47 -9 37 7 34 -9
-7 -50 -37 -37 -25 -47 18 -13 57 45 73 125 35 173 -25 32 -68 35 -94 6z m75
-16 c16 -40 12 -72 -10 -84 -15 -8 -24 -6 -40 10 -11 11 -20 29 -20 41 0 56
52 81 70 33z"/>
<path d="M14452 10528 c-17 -17 -15 -58 5 -80 15 -17 15 -19 0 -36 -20 -22
-22 -63 -5 -80 7 -7 27 -12 44 -12 60 0 84 53 43 96 l-21 23 21 27 c19 24 20
30 8 48 -17 24 -76 33 -95 14z m76 -26 c4 -23 -13 -52 -29 -52 -15 0 -41 49
-35 66 10 25 60 14 64 -14z m-5 -114 c25 -34 16 -58 -22 -58 -39 0 -57 50 -29
78 16 16 28 11 51 -20z"/>
<path d="M14621 10519 c-55 -59 -28 -199 39 -199 45 0 70 40 70 110 0 94 -59
142 -109 89z m69 -8 c5 -11 10 -47 10 -81 0 -70 -12 -100 -40 -100 -38 0 -52
147 -18 188 15 18 36 15 48 -7z"/>
<path d="M17543 10528 c-6 -7 -13 -22 -17 -33 -7 -18 -5 -18 14 3 24 26 43 28
64 6 32 -32 17 -71 -58 -151 l-30 -33 66 0 c51 0 67 4 72 16 9 24 8 24 -20 14
-28 -11 -74 -13 -74 -4 0 3 18 26 39 50 47 54 58 88 36 120 -17 27 -75 34 -92
12z"/>
<path d="M17700 10521 c-14 -26 -13 -38 2 -23 7 7 31 12 54 12 l43 0 -30 -87
c-31 -93 -33 -103 -21 -103 8 0 72 185 72 208 0 8 -19 12 -55 12 -43 0 -56 -4
-65 -19z"/>
<path d="M17887 10505 c-22 -46 -21 -55 3 -55 27 0 70 -43 70 -69 0 -30 -43
-55 -69 -42 -26 14 -31 14 -31 -4 0 -11 11 -15 35 -15 44 0 85 37 85 75 0 29
-49 85 -74 85 -32 0 -3 29 32 32 50 4 55 28 5 28 -35 0 -41 -4 -56 -35z"/>
<path d="M18044 10519 c-12 -14 -19 -40 -22 -82 -3 -52 0 -66 18 -89 56 -72
136 8 116 115 -13 68 -73 99 -112 56z m76 -31 c11 -38 7 -108 -7 -144 -3 -8
-14 -14 -24 -14 -25 0 -39 37 -39 100 0 64 14 100 39 100 15 0 23 -11 31 -42z"/>
<path d="M1812 4258 l-2 -3018 4805 0 4805 0 -2 3018 c-2 1659 -4 2714 -5
2345 l-3 -673 -825 0 -825 0 0 329 c0 209 -4 332 -10 336 -7 4 -10 -108 -10
-329 l0 -336 -3330 0 -3330 0 0 329 c0 209 -4 332 -10 336 -7 4 -10 -108 -10
-329 l0 -336 -620 0 -620 0 -3 673 c-1 369 -3 -686 -5 -2345z m1248 1332 l0
-330 -620 0 -620 0 0 330 0 330 620 0 620 0 0 -330z m6680 0 l0 -330 -3330 0
-3330 0 0 330 0 330 3330 0 3330 0 0 -330z m1670 0 l0 -330 -825 0 -825 0 0
330 0 330 825 0 825 0 0 -330z m-8350 -670 l0 -330 -620 0 -620 0 0 330 0 330
620 0 620 0 0 -330z m6680 0 l0 -330 -3330 0 -3330 0 0 330 0 330 3330 0 3330
0 0 -330z m1670 0 l0 -330 -825 0 -825 0 0 330 0 330 825 0 825 0 0 -330z
m-8350 -670 l0 -330 -620 0 -620 0 0 330 0 330 620 0 620 0 0 -330z m6680 0
l0 -330 -3330 0 -3330 0 0 330 0 330 3330 0 3330 0 0 -330z m1670 0 l0 -330
-825 0 -825 0 0 330 0 330 825 0 825 0 0 -330z m-8350 -1000 l0 -660 -620 0
-620 0 0 660 0 660 620 0 620 0 0 -660z m6680 0 l0 -660 -3330 0 -3330 0 0
660 0 660 3330 0 3330 0 0 -660z m1670 0 l0 -660 -825 0 -825 0 0 660 0 660
825 0 825 0 0 -660z m-1670 -1000 l0 -330 -3960 0 -3960 0 0 330 0 330 3960 0
3960 0 0 -330z m1670 0 l0 -330 -825 0 -825 0 0 178 c0 97 -2 246 -3 330 l-2
152 828 0 827 0 0 -330z m-1670 -670 l0 -330 -3960 0 -3960 0 0 330 0 330
3960 0 3960 0 0 -330z m1670 0 l0 -330 -825 0 -825 0 0 330 0 330 825 0 825 0
0 -330z"/>
<path d="M2496 5659 c-28 -22 -35 -49 -13 -49 8 0 22 9 32 20 24 27 69 23 73
-5 2 -13 -28 -53 -88 -120 -49 -55 -88 -104 -87 -110 2 -5 35 -10 73 -10 55 0
69 3 69 15 0 10 -14 17 -42 20 l-42 5 75 84 c75 85 86 110 64 152 -15 27 -79
26 -114 -2z"/>
<path d="M3732 5656 c-21 -18 -35 -46 -50 -100 -25 -84 -27 -109 -11 -137 24
-46 110 -42 148 7 20 25 48 108 58 172 12 73 -82 110 -145 58z m108 -26 c17
-32 -29 -183 -61 -200 -27 -15 -65 -12 -79 5 -18 22 16 161 47 193 28 28 78
30 93 2z"/>
<path d="M3960 5668 c0 -7 9 -24 20 -38 25 -32 25 -38 -2 -42 -44 -6 -90 -114
-73 -168 16 -51 113 -43 141 11 8 17 18 52 21 79 5 44 2 53 -26 92 l-32 43 47
5 c26 3 49 11 52 18 3 9 -16 12 -72 12 -54 0 -76 -4 -76 -12z m73 -156 c-3
-63 -26 -94 -66 -90 -29 3 -32 6 -31 33 1 17 9 47 18 68 14 35 19 38 48 35 32
-3 33 -4 31 -46z"/>
<path d="M4477 5592 c-15 -2 -34 -13 -41 -25 -23 -35 -44 -130 -35 -155 10
-26 53 -39 89 -25 18 7 33 7 45 1 24 -14 43 6 26 26 -10 12 -8 30 9 92 26 95
19 101 -93 86z m73 -34 c-1 -20 -32 -113 -40 -124 -18 -21 -80 -19 -80 4 0 25
21 95 32 110 8 10 88 19 88 10z"/>
<path d="M4728 5592 c-49 -6 -77 -74 -43 -102 14 -12 12 -17 -15 -45 -16 -17
-30 -36 -30 -43 0 -24 29 -11 63 28 19 22 42 40 51 40 15 0 17 -6 11 -39 -4
-23 -2 -42 4 -45 14 -9 18 0 46 105 18 66 21 95 13 100 -11 7 -52 8 -100 1z
m68 -48 c-3 -9 -6 -20 -6 -25 0 -5 -20 -9 -45 -9 -30 0 -45 4 -45 13 0 23 23
37 63 37 32 0 38 -3 33 -16z"/>
<path d="M6024 5593 c-32 -6 -50 -31 -68 -92 -22 -74 -20 -88 10 -108 21 -13
33 -15 64 -6 21 5 45 6 53 2 9 -6 19 -3 26 5 9 11 9 16 -3 23 -13 7 -12 17 6
81 11 40 17 79 15 87 -5 12 -56 16 -103 8z m61 -70 c-4 -21 -13 -53 -20 -70
-12 -28 -19 -33 -49 -33 -19 0 -37 4 -40 9 -5 8 19 104 31 124 2 4 22 7 45 7
l40 0 -7 -37z"/>
<path d="M6239 5593 c-18 -4 -65 -173 -55 -198 8 -23 22 -11 30 25 3 17 13 55
22 85 14 51 18 55 46 55 23 0 29 -4 24 -15 -16 -44 -37 -139 -32 -152 10 -26
23 -4 46 82 20 75 25 85 46 85 12 0 25 -4 28 -8 2 -4 -4 -39 -15 -77 -20 -75
-18 -114 5 -83 7 9 21 51 31 93 25 97 18 106 -86 110 -41 1 -81 1 -90 -2z"/>
<path d="M6549 5592 c-36 -4 -54 -27 -73 -91 -22 -74 -20 -88 10 -108 21 -13
33 -15 64 -6 21 5 45 6 53 2 9 -6 19 -3 26 5 9 11 9 16 -3 23 -13 7 -12 17 6
81 11 40 17 79 14 87 -4 13 -39 15 -97 7z m56 -69 c-4 -21 -13 -53 -20 -70
-12 -28 -19 -33 -49 -33 -19 0 -37 4 -40 9 -5 8 19 104 31 124 2 4 22 7 45 7
l40 0 -7 -37z"/>
<path d="M4135 5518 c-22 -86 -22 -108 1 -125 22 -16 170 -18 180 -2 7 11 54
178 54 191 0 5 -6 8 -14 8 -14 0 -37 -62 -52 -140 -6 -25 -11 -30 -35 -30 -33
0 -34 7 -15 70 27 93 28 102 10 98 -13 -2 -24 -26 -39 -83 -20 -73 -24 -80
-48 -83 -32 -4 -34 9 -12 82 18 61 19 86 2 86 -8 0 -21 -29 -32 -72z"/>
<path d="M5061 5500 c-22 -85 -23 -128 -1 -115 5 3 10 15 10 25 0 10 11 32 24
47 l24 28 20 -46 c11 -26 25 -50 30 -53 21 -13 22 15 3 60 -12 26 -21 50 -21
54 0 3 20 21 45 39 25 18 45 36 45 42 0 19 -34 8 -74 -24 -66 -54 -67 -54 -60
-8 5 32 3 41 -8 41 -10 0 -22 -29 -37 -90z"/>
<path d="M5310 5570 c-28 -28 -54 -124 -40 -149 15 -29 44 -42 79 -35 41 9 67
43 82 110 11 48 10 56 -6 74 -24 27 -88 27 -115 0z m92 -48 c-1 -18 -9 -49
-17 -68 -12 -30 -18 -34 -51 -34 l-37 0 5 45 c8 66 32 97 71 93 30 -3 32 -6
29 -36z"/>
<path d="M5491 5500 c-13 -49 -21 -97 -17 -106 10 -26 21 -7 41 70 l18 68 25
-32 25 -31 28 27 c16 15 31 25 33 23 3 -3 -2 -31 -10 -63 -10 -37 -12 -62 -6
-68 6 -6 12 -6 17 2 6 9 55 184 55 196 0 15 -36 -1 -69 -31 -21 -19 -41 -35
-44 -35 -3 0 -14 16 -26 35 -32 55 -45 45 -70 -55z"/>
<path d="M5741 5500 c-22 -84 -23 -128 -2 -116 5 4 12 24 16 46 7 40 7 40 51
40 l44 0 -2 -40 c-7 -91 29 -20 66 133 6 24 4 28 -11 25 -11 -2 -21 -17 -26
-41 -9 -36 -10 -37 -53 -37 l-44 0 6 40 c5 31 3 40 -8 40 -10 0 -22 -29 -37
-90z"/>
<path d="M10382 5649 c-23 -17 -42 -34 -42 -38 0 -18 15 -20 37 -6 29 19 29
16 -3 -100 -24 -87 -26 -142 -5 -119 8 8 81 269 81 288 0 14 -29 4 -68 -25z"/>
<path d="M10496 5614 c-9 -36 -14 -69 -11 -75 4 -5 26 -9 51 -9 53 0 63 -15
42 -68 -13 -36 -15 -37 -73 -42 -44 -4 -60 -9 -60 -20 0 -12 13 -15 59 -14 51
1 63 5 83 28 27 32 39 89 25 122 -8 17 -22 25 -52 30 -41 7 -43 11 -31 54 6
22 14 26 61 30 83 8 77 30 -8 30 l-70 0 -16 -66z"/>
<path d="M10844 5665 c-12 -8 -27 -35 -34 -60 -18 -64 -4 -93 50 -101 22 -4
40 -10 40 -13 0 -13 -55 -60 -82 -70 -28 -10 -36 -25 -20 -35 15 -9 91 35 111
63 11 15 29 61 42 103 21 73 21 79 5 103 -13 19 -25 25 -54 25 -21 0 -47 -7
-58 -15z m82 -25 c8 -8 8 -25 1 -56 l-11 -45 -40 3 c-40 3 -41 4 -38 38 1 19
10 42 19 52 18 20 53 24 69 8z"/>
<path d="M11063 5658 c-35 -37 -65 -116 -71 -184 -4 -58 -3 -63 21 -79 53 -34
111 23 142 140 14 49 16 76 9 103 -8 33 -13 37 -44 40 -27 2 -41 -3 -57 -20z
m71 -32 c7 -30 -19 -130 -46 -173 -26 -43 -61 -43 -66 0 -4 34 21 122 48 165
23 38 55 43 64 8z"/>
<path d="M10664 5415 c-7 -17 4 -37 17 -30 12 8 12 45 -1 45 -6 0 -13 -7 -16
-15z"/>
<path d="M2482 4998 c3 -7 27 -15 54 -18 40 -4 50 -9 52 -26 4 -27 -26 -52
-68 -56 -23 -2 -35 -8 -35 -18 0 -10 13 -17 35 -20 32 -5 35 -8 33 -38 -2 -50
-26 -71 -87 -74 -37 -2 -51 -7 -51 -18 0 -20 42 -24 94 -10 51 14 75 48 77
111 1 26 9 58 18 71 18 26 21 61 6 89 -9 16 -22 19 -71 19 -44 0 -60 -3 -57
-12z"/>
<path d="M3641 5033 c-21 -18 -61 -139 -61 -188 0 -32 39 -57 81 -53 50 5 49
28 0 28 -29 0 -44 5 -48 16 -8 21 25 160 40 173 7 5 32 11 56 13 25 2 46 9 49
16 6 20 -91 16 -117 -5z"/>
<path d="M3770 4889 c-15 -58 -19 -84 -11 -92 6 -6 11 -9 12 -6 0 2 10 38 23
79 20 69 24 75 50 78 42 5 48 -8 31 -64 -18 -60 -19 -87 -3 -82 17 6 47 132
36 152 -7 12 -24 16 -62 16 l-54 0 -22 -81z"/>
<path d="M3982 4958 c-5 -7 -18 -40 -27 -72 -17 -59 -17 -60 4 -77 16 -13 35
-17 74 -14 49 4 52 5 49 30 -2 15 4 50 13 80 8 29 15 56 15 59 0 12 -118 6
-128 -6z m84 -50 c-9 -57 -31 -88 -61 -88 -32 0 -36 9 -23 61 14 58 24 69 61
69 29 0 29 0 23 -42z"/>
<path d="M4196 4889 c-32 -54 -45 -84 -38 -91 6 -6 26 17 58 71 27 44 55 81
62 81 15 0 15 -6 -3 -66 -18 -59 -19 -87 -3 -82 11 4 47 116 48 151 0 13 -8
17 -37 17 -37 -1 -40 -3 -87 -81z"/>
<path d="M4375 4958 c-17 -50 -42 -157 -37 -162 3 -3 25 -6 49 -6 33 0 50 6
68 25 44 43 24 85 -40 85 -24 0 -25 2 -19 35 4 23 2 35 -5 35 -6 0 -14 -6 -16
-12z m75 -101 c0 -21 -22 -37 -52 -37 -29 0 -33 6 -22 34 8 20 74 22 74 3z"/>
<path d="M4541 4890 c-21 -75 -21 -107 -1 -95 4 3 11 21 14 40 7 33 9 35 46
35 l39 0 -6 -36 c-5 -28 -3 -36 8 -32 11 4 48 121 49 156 0 26 -24 6 -32 -26
-8 -29 -12 -32 -48 -32 l-39 0 10 32 c11 41 12 38 -5 38 -9 0 -22 -29 -35 -80z"/>
<path d="M4747 4952 c-20 -22 -22 -53 -5 -70 9 -9 5 -19 -17 -42 -19 -20 -26
-33 -19 -40 7 -7 23 4 49 30 51 52 65 52 58 -2 -4 -34 -3 -41 7 -31 12 11 50
134 50 160 0 22 -103 17 -123 -5z m93 -11 c0 -28 -14 -41 -46 -41 -27 0 -34 4
-34 19 0 11 6 22 13 24 21 9 67 7 67 -2z"/>
<path d="M10426 4989 c-28 -22 -35 -49 -13 -49 8 0 22 9 32 20 24 27 69 23 73
-5 2 -13 -28 -53 -88 -120 -49 -55 -88 -104 -87 -110 2 -5 35 -10 73 -10 55 0
69 3 69 15 0 10 -14 17 -42 20 l-42 5 75 84 c75 85 86 110 64 152 -15 27 -79
26 -114 -2z"/>
<path d="M10667 4999 c-42 -25 -93 -175 -80 -239 15 -75 94 -55 138 34 32 65
46 176 25 201 -14 17 -57 19 -83 4z m61 -60 c3 -41 -29 -142 -54 -170 -10 -11
-26 -19 -37 -19 -18 0 -19 5 -15 63 10 124 97 228 106 126z"/>
<path d="M11003 4998 c-33 -43 -114 -201 -109 -213 4 -10 20 -15 49 -15 41 0
44 -2 40 -24 -7 -36 16 -42 28 -7 6 18 19 31 31 33 28 4 35 28 11 34 -15 4
-19 12 -16 29 7 36 -16 41 -28 6 -9 -26 -16 -31 -44 -31 l-34 0 50 88 c48 86
57 112 40 112 -5 0 -13 -6 -18 -12z"/>
<path d="M11234 4991 c-43 -26 -61 -55 -85 -133 -24 -80 -22 -105 11 -129 37
-27 92 -11 113 34 37 81 26 121 -38 133 -19 3 -35 10 -35 15 0 16 40 50 76 65
19 8 34 19 34 24 0 16 -43 11 -76 -9z m23 -171 c-7 -52 -22 -70 -59 -70 -36 0
-42 16 -28 69 10 40 12 41 52 41 l41 0 -6 -40z"/>
<path d="M10782 4738 c2 -13 8 -23 13 -23 6 0 11 10 13 23 2 15 -2 22 -13 22
-11 0 -15 -7 -13 -22z"/>
<path d="M2471 4244 c-34 -58 -61 -112 -61 -120 0 -10 14 -14 50 -14 l50 0 -6
-30 c-5 -23 -3 -30 9 -30 9 0 18 12 22 30 5 23 12 30 31 30 15 0 24 6 24 15 0
8 -9 15 -20 15 -16 0 -19 5 -13 30 4 23 2 30 -10 30 -9 0 -18 -12 -22 -30 -6
-26 -11 -30 -42 -30 l-34 0 32 58 c18 31 43 75 56 98 21 37 22 54 2 54 -4 0
-35 -48 -68 -106z"/>
<path d="M3737 4343 c-7 -12 -77 -268 -77 -281 0 -7 6 -12 14 -12 8 0 20 24
30 59 11 40 24 64 41 75 28 19 28 19 50 -62 10 -34 22 -65 26 -68 24 -15 25
14 2 88 l-25 82 63 56 c43 38 59 59 51 64 -11 7 -141 -89 -158 -115 -15 -26
-20 -3 -8 38 8 25 14 54 14 65 0 18 -15 25 -23 11z"/>
<path d="M3956 4252 c-2 -4 -13 -42 -24 -84 -24 -95 -15 -118 49 -118 27 0 39
-4 39 -14 0 -28 -30 -46 -76 -46 -32 0 -44 -4 -44 -15 0 -22 91 -20 120 3 26
21 95 261 80 276 -15 15 -20 5 -44 -86 l-23 -83 -41 -3 c-49 -4 -50 1 -27 88
8 30 15 63 15 73 0 17 -15 23 -24 9z"/>
<path d="M4175 4250 c-3 -5 1 -23 10 -39 23 -45 19 -63 -25 -106 -27 -26 -37
-42 -30 -49 7 -7 23 3 50 29 22 21 41 37 43 34 2 -2 9 -19 16 -36 8 -18 20
-33 27 -33 18 0 18 5 -2 57 l-17 43 43 46 c31 34 39 49 31 57 -8 8 -22 1 -51
-28 l-40 -39 -15 37 c-15 37 -28 46 -40 27z"/>
<path d="M4395 4248 c-22 -59 -51 -189 -43 -194 13 -8 21 2 33 44 10 35 13 37
57 40 l47 3 -10 -33 c-12 -45 -11 -58 4 -58 14 0 70 187 61 202 -12 19 -24 5
-35 -37 -11 -45 -11 -45 -56 -45 l-44 0 7 45 c4 31 3 45 -5 45 -6 0 -14 -6
-16 -12z"/>
<path d="M4627 4249 c-30 -18 -40 -58 -21 -86 15 -24 15 -26 -15 -57 -17 -18
-31 -37 -31 -44 0 -25 30 -10 68 33 49 55 77 61 67 13 -11 -51 -11 -53 4 -53
9 0 22 30 37 85 33 123 34 120 -33 120 -32 0 -66 -5 -76 -11z m93 -33 c0 -35
-13 -46 -51 -46 -31 0 -39 4 -39 18 0 27 20 42 57 42 22 0 33 -5 33 -14z"/>
<path d="M10380 4311 c-44 -38 -50 -68 -9 -42 12 7 23 10 26 8 2 -3 -7 -47
-21 -98 -29 -105 -32 -133 -13 -127 11 4 84 241 86 281 1 27 -20 20 -69 -22z"/>
<path d="M10515 4338 c-12 -33 -35 -114 -35 -125 0 -9 15 -13 43 -13 59 0 71
-10 62 -51 -12 -55 -31 -69 -92 -69 -40 0 -53 -4 -53 -15 0 -19 86 -21 124 -4
26 12 56 72 56 113 0 31 -30 56 -68 56 -36 0 -36 0 -21 53 10 37 10 37 64 37
42 0 55 4 55 15 0 20 -128 22 -135 3z"/>
<path d="M10853 4330 c-20 -12 -33 -28 -33 -40 0 -26 6 -25 42 5 34 29 50 31
68 10 16 -19 7 -33 -98 -149 -45 -49 -79 -93 -76 -98 3 -4 39 -8 80 -8 58 0
74 3 74 14 0 11 -14 16 -50 18 l-50 3 68 75 c98 107 109 133 72 170 -25 25
-56 25 -97 0z"/>
<path d="M11048 4320 c-25 -26 -29 -37 -26 -68 3 -26 -1 -45 -14 -62 -28 -39
-35 -96 -13 -120 23 -26 75 -26 107 0 26 20 49 87 41 119 -2 10 5 33 16 52 26
43 26 64 1 89 -30 30 -76 26 -112 -10z m91 -14 c28 -34 -29 -90 -74 -72 -21 8
-19 42 5 66 23 23 53 26 69 6z m-33 -121 c11 -27 -6 -84 -27 -96 -12 -6 -32
-8 -46 -4 -23 5 -24 9 -19 43 11 57 77 98 92 57z"/>
<path d="M10660 4070 c0 -11 7 -20 15 -20 8 0 15 9 15 20 0 11 -7 20 -15 20
-8 0 -15 -9 -15 -20z"/>
<path d="M2485 3668 c-12 -33 -35 -114 -35 -125 0 -9 15 -13 43 -13 59 0 71
-10 62 -51 -12 -55 -31 -69 -92 -69 -40 0 -53 -4 -53 -15 0 -19 86 -21 124 -4
26 12 56 72 56 113 0 31 -30 56 -68 56 -36 0 -36 0 -21 53 10 37 10 37 64 37
42 0 55 4 55 15 0 20 -128 22 -135 3z"/>
<path d="M2514 2991 c-43 -26 -61 -55 -85 -133 -24 -80 -22 -105 11 -129 37
-27 92 -11 113 34 37 81 26 121 -38 133 -19 3 -35 10 -35 15 0 16 40 50 76 65
19 8 34 19 34 24 0 16 -43 11 -76 -9z m23 -171 c-7 -52 -22 -70 -59 -70 -36 0
-42 16 -28 69 10 40 12 41 52 41 l41 0 -6 -40z"/>
<path d="M3748 3665 c-27 -15 -41 -48 -72 -170 -15 -56 -15 -62 3 -85 14 -20
28 -26 70 -28 41 -2 51 0 51 12 0 12 -11 16 -45 16 -34 0 -47 4 -52 17 -9 22
33 183 52 203 8 8 38 17 65 20 28 3 52 10 53 15 3 16 -95 16 -125 0z"/>
<path d="M3987 3568 c-46 -62 -91 -124 -100 -138 -19 -27 -22 -50 -8 -50 12 0
211 271 211 288 0 30 -26 5 -103 -100z"/>
<path d="M4146 3626 c-21 -70 -20 -82 4 -106 14 -14 33 -20 66 -20 l47 0 -7
-32 c-10 -49 -23 -58 -82 -58 -41 0 -54 -4 -54 -15 0 -12 13 -15 56 -15 82 0
101 24 138 172 17 65 27 120 24 124 -14 13 -27 -9 -44 -76 l-18 -70 -47 0
c-63 0 -72 13 -54 80 8 29 12 57 9 62 -12 19 -23 5 -38 -46z"/>
<path d="M3696 2870 c-20 -78 -34 -146 -30 -152 10 -15 119 -3 150 17 14 9 32
31 41 50 29 61 -14 115 -93 115 -25 0 -27 7 -15 50 6 23 13 25 71 30 38 3 65
10 68 18 3 9 -17 12 -76 12 l-79 0 -37 -140z m132 -27 c13 -22 -4 -70 -28 -83
-10 -6 -37 -10 -60 -10 l-42 0 7 33 c16 71 21 77 69 77 32 0 48 -5 54 -17z"/>
<path d="M3997 2922 c-15 -2 -34 -13 -41 -25 -23 -35 -44 -130 -35 -155 10
-26 53 -39 89 -25 18 7 33 7 45 1 24 -14 43 6 26 26 -10 12 -8 30 9 92 26 95
19 101 -93 86z m73 -34 c-1 -20 -32 -113 -40 -124 -18 -21 -80 -19 -80 4 0 25
21 95 32 110 8 10 88 19 88 10z"/>
<path d="M4257 2898 c-36 -49 -97 -154 -97 -167 0 -31 30 -2 75 74 32 54 56
85 68 85 9 0 17 -1 17 -3 0 -1 -9 -36 -20 -76 -20 -71 -20 -115 0 -95 11 12
62 195 56 202 -3 2 -21 6 -40 9 -30 3 -38 -1 -59 -29z"/>
<path d="M4406 2868 c-34 -122 -38 -140 -27 -151 10 -10 19 5 35 55 3 9 14 21
24 27 17 9 22 5 37 -34 9 -25 23 -45 31 -45 19 0 17 17 -5 67 l-19 42 44 36
c44 36 55 55 32 55 -6 0 -35 -18 -64 -40 -29 -22 -55 -40 -58 -40 -2 0 0 15 5
32 12 43 12 48 -5 48 -9 0 -20 -21 -30 -52z"/>
<path d="M4650 2900 c-28 -28 -54 -124 -40 -149 15 -29 44 -42 79 -35 41 9 67
43 82 110 11 48 10 56 -6 74 -24 27 -88 27 -115 0z m92 -48 c-1 -18 -9 -49
-17 -68 -12 -30 -18 -34 -51 -34 l-37 0 5 45 c8 66 32 97 71 93 30 -3 32 -6
29 -36z"/>
<path d="M4831 2830 c-22 -84 -23 -128 -2 -116 5 4 12 24 16 46 7 40 7 40 51
40 l44 0 -2 -40 c-7 -91 29 -20 66 133 6 24 4 28 -11 25 -11 -2 -21 -17 -26
-41 -9 -36 -10 -37 -53 -37 l-44 0 6 40 c5 31 3 40 -8 40 -10 0 -22 -29 -37
-90z"/>
<path d="M10415 3668 c-12 -33 -35 -114 -35 -125 0 -9 15 -13 43 -13 59 0 71
-10 62 -51 -12 -55 -31 -69 -92 -69 -40 0 -53 -4 -53 -15 0 -19 86 -21 124 -4
26 12 56 72 56 113 0 31 -30 56 -68 56 -36 0 -36 0 -21 53 10 37 10 37 64 37
42 0 55 4 55 15 0 20 -128 22 -135 3z"/>
<path d="M10751 3655 c-53 -45 -95 -195 -69 -245 33 -63 107 -21 146 83 52
138 7 232 -77 162z m63 -65 c-2 -91 -59 -197 -94 -175 -28 17 5 170 46 216 32
35 49 20 48 -41z"/>
<path d="M10951 3574 c-34 -58 -61 -112 -61 -120 0 -10 14 -14 50 -14 l50 0
-6 -30 c-5 -23 -3 -30 9 -30 9 0 18 12 22 30 5 23 12 30 31 30 15 0 24 6 24
15 0 8 -9 15 -20 15 -16 0 -19 5 -13 30 4 23 2 30 -10 30 -9 0 -18 -12 -22
-30 -6 -26 -11 -30 -42 -30 l-34 0 32 58 c18 31 43 75 56 98 21 37 22 54 2 54
-4 0 -35 -48 -68 -106z"/>
<path d="M10566 3423 c-12 -12 -6 -43 9 -43 8 0 15 9 15 19 0 21 -13 34 -24
24z"/>
<path d="M10412 2998 c3 -7 27 -15 54 -18 40 -4 50 -9 52 -26 4 -27 -26 -52
-68 -56 -23 -2 -35 -8 -35 -18 0 -10 13 -17 35 -20 32 -5 35 -8 33 -38 -2 -50
-26 -71 -87 -74 -37 -2 -51 -7 -51 -18 0 -20 42 -24 94 -10 51 14 75 48 77
111 1 26 9 58 18 71 18 26 21 61 6 89 -9 16 -22 19 -71 19 -44 0 -60 -3 -57
-12z"/>
<path d="M10757 2999 c-42 -25 -93 -175 -80 -239 15 -75 94 -55 138 34 32 65
46 176 25 201 -14 17 -57 19 -83 4z m61 -60 c3 -41 -29 -142 -54 -170 -10 -11
-26 -19 -37 -19 -18 0 -19 5 -15 63 10 124 97 228 106 126z"/>
<path d="M10977 2999 c-42 -25 -93 -175 -80 -239 15 -75 94 -55 138 34 32 65
46 176 25 201 -14 17 -57 19 -83 4z m61 -60 c3 -41 -29 -142 -54 -170 -10 -11
-26 -19 -37 -19 -18 0 -19 5 -15 63 10 124 97 228 106 126z"/>
<path d="M10564 2745 c-7 -17 4 -37 17 -30 12 8 12 45 -1 45 -6 0 -13 -7 -16
-15z"/>
<path d="M2000 2328 c0 -7 18 -40 39 -72 22 -33 37 -64 33 -70 -3 -6 -23 -37
-44 -70 -36 -56 -41 -81 -15 -70 7 2 28 29 47 59 l35 55 5 -55 c6 -71 24 -71
30 0 l5 55 39 -60 c21 -33 42 -57 47 -54 15 9 10 23 -32 85 l-41 60 41 63 c23
34 41 68 41 74 0 28 -28 8 -62 -46 l-38 -57 0 58 c0 43 -4 57 -15 57 -10 0
-15 -15 -17 -57 l-3 -57 -38 57 c-36 55 -57 71 -57 45z"/>
<path d="M4515 2330 c-7 -12 7 -18 50 -22 24 -2 31 -8 33 -28 2 -23 -1 -25
-40 -27 -59 -2 -78 -27 -78 -105 0 -50 4 -63 26 -85 21 -21 32 -24 62 -20 59
10 67 25 70 140 3 131 -6 151 -70 155 -25 2 -49 -2 -53 -8z m85 -180 l0 -70
-40 0 -40 0 0 63 c0 35 3 67 7 70 3 4 21 7 40 7 l33 0 0 -70z"/>
<path d="M5297 2322 c-14 -15 -17 -40 -17 -121 0 -114 6 -133 49 -150 24 -10
34 -10 59 3 36 19 42 33 42 100 0 37 -5 58 -19 73 -13 13 -17 29 -14 47 11 54
-63 89 -100 48z m71 -34 c2 -11 -8 -23 -27 -33 l-31 -16 0 29 c0 16 3 32 7 36
13 12 48 2 51 -16z m20 -80 c7 -7 12 -33 12 -58 0 -50 -13 -70 -45 -70 -32 0
-45 20 -45 70 0 50 13 70 45 70 12 0 26 -5 33 -12z"/>
<path d="M2571 2246 c-17 -21 -71 -187 -65 -198 11 -18 28 11 55 90 17 50 31
78 42 80 15 3 17 -8 17 -81 0 -88 5 -104 27 -86 18 15 18 182 1 196 -20 15
-65 14 -77 -1z"/>
<path d="M2763 2253 c-36 -7 -53 -41 -53 -106 0 -48 4 -62 25 -82 24 -25 54
-30 90 -16 11 5 28 5 37 0 20 -11 35 8 19 24 -6 6 -11 45 -11 88 0 49 -4 80
-12 86 -14 10 -59 13 -95 6z m67 -103 l0 -70 -40 0 -40 0 0 63 c0 35 3 67 7
70 3 4 21 7 40 7 l33 0 0 -70z"/>
<path d="M3003 2253 c-24 -5 -53 -38 -53 -61 0 -7 11 -24 25 -38 l25 -25 -25
-36 c-44 -66 -8 -68 38 -3 37 52 57 52 57 2 0 -45 8 -56 27 -41 18 15 18 182
1 196 -14 10 -59 13 -95 6z m67 -58 c0 -22 -4 -25 -40 -25 -32 0 -40 4 -40 18
0 26 9 32 47 32 29 0 33 -3 33 -25z"/>
<path d="M3351 2247 c-12 -12 -16 -189 -4 -200 3 -4 12 -2 20 4 9 8 13 37 13
91 l0 79 38 -3 37 -3 3 -75 c3 -95 7 -107 28 -89 22 18 16 161 -8 185 -20 20
-110 28 -127 11z"/>
<path d="M3633 2254 c-19 -8 -77 -194 -64 -207 12 -12 26 17 57 116 13 41 23
57 35 57 16 0 19 -11 21 -85 2 -48 7 -85 13 -85 12 0 20 200 8 201 -4 0 -19 2
-33 4 -14 2 -30 1 -37 -1z"/>
<path d="M4290 2248 c-13 -5 -28 -14 -32 -21 -11 -18 -10 -135 2 -157 12 -23
71 -36 96 -22 11 6 27 7 41 1 28 -10 43 9 20 26 -13 10 -17 29 -17 94 0 44 -3
82 -7 82 -36 6 -83 5 -103 -3z m78 -95 l-3 -68 -40 0 -40 0 -3 54 c-4 74 0 81
48 81 l41 0 -3 -67z"/>
<path d="M5530 2249 c-13 -5 -28 -15 -32 -22 -11 -18 -10 -135 2 -157 12 -23
71 -36 96 -22 11 6 27 7 41 1 28 -10 43 9 20 26 -13 10 -17 29 -17 94 0 44 -1
81 -2 82 -36 7 -89 6 -108 -2z m78 -96 l-3 -68 -40 0 -40 0 -3 54 c-4 74 0 81
48 81 l41 0 -3 -67z"/>
<path d="M5732 2248 c-8 -8 -12 -56 -12 -151 0 -126 2 -138 18 -135 12 2 18
14 20 39 3 34 5 37 44 42 61 8 73 26 73 107 0 49 -4 74 -16 85 -20 20 -111 29
-127 13z m106 -100 l3 -68 -41 0 -40 0 0 71 0 70 38 -3 37 -3 3 -67z"/>
<path d="M5948 2249 c-15 -8 -18 -25 -18 -103 0 -97 4 -113 27 -95 9 8 13 37
13 90 0 78 0 79 25 79 25 0 25 -1 25 -83 0 -88 5 -104 27 -86 9 8 13 37 13 91
0 77 1 79 23 76 20 -3 22 -9 25 -78 3 -90 8 -108 24 -92 17 17 12 173 -6 191
-17 17 -153 25 -178 10z"/>
<path d="M6422 2251 c-16 -9 -13 -296 3 -296 6 0 11 19 13 43 3 40 4 42 36 42
19 0 45 9 60 21 23 18 26 27 26 88 0 53 -4 71 -18 85 -21 18 -100 30 -120 17z
m103 -101 l0 -65 -42 -3 -43 -3 0 71 0 71 43 -3 42 -3 0 -65z"/>
<path d="M2300 2167 c0 -109 9 -121 86 -122 l59 0 3 103 c2 86 0 102 -13 102
-12 0 -15 -15 -15 -86 l0 -85 -42 3 -43 3 -3 83 c-2 64 -6 82 -17 82 -12 0
-15 -17 -15 -83z"/>
<path d="M3784 2229 c-29 -32 -27 -131 3 -160 29 -29 77 -29 106 -1 29 30 31
130 3 161 -26 29 -86 28 -112 0z m84 -18 c9 -5 12 -26 10 -67 l-3 -59 -35 0
-35 0 -3 54 c-2 29 -1 60 2 67 6 15 44 18 64 5z"/>
<path d="M3977 2244 c-4 -4 -7 -41 -7 -81 0 -65 3 -77 25 -98 21 -22 33 -25
99 -25 41 0 78 4 81 10 3 5 6 38 7 72 1 114 -1 128 -17 128 -12 0 -15 -16 -15
-85 0 -84 0 -85 -25 -85 -23 0 -24 2 -27 82 -3 70 -6 83 -20 86 -16 3 -18 -6
-18 -82 0 -85 0 -86 -25 -86 -23 0 -24 2 -27 82 -3 75 -12 100 -31 82z"/>
<path d="M4695 2238 c-3 -8 -5 -55 -3 -104 l3 -89 57 0 c65 1 91 17 91 60 0
36 -22 55 -71 62 -38 5 -41 8 -44 41 -3 36 -24 55 -33 30z m113 -135 c3 -21
-1 -23 -37 -23 -37 0 -41 2 -41 26 0 23 3 25 38 22 30 -2 38 -7 40 -25z"/>
<path d="M5082 2148 c2 -60 7 -103 13 -103 6 0 11 17 13 37 5 63 25 65 67 7
26 -37 40 -48 47 -41 8 8 1 26 -25 64 l-37 52 35 36 c19 20 35 39 35 43 0 19
-29 3 -72 -40 l-48 -47 0 47 c0 36 -4 47 -15 47 -13 0 -15 -16 -13 -102z"/>
<path d="M6200 2167 c0 -109 9 -121 86 -122 l59 0 3 103 c2 86 0 102 -13 102
-12 0 -15 -15 -15 -86 l0 -85 -42 3 -43 3 -3 83 c-2 64 -6 82 -17 82 -12 0
-15 -17 -15 -83z"/>
<path d="M6612 2148 c3 -111 7 -118 63 -104 76 19 71 102 -7 121 -25 6 -28 12
-28 46 0 28 -4 39 -15 39 -13 0 -15 -16 -13 -102z m83 -43 c0 -14 -8 -21 -27
-23 -24 -3 -28 0 -28 23 0 23 4 26 28 23 19 -2 27 -9 27 -23z"/>
<path d="M6762 2148 c4 -133 22 -132 26 2 2 85 0 100 -13 100 -13 0 -15 -15
-13 -102z"/>
<path d="M10412 2328 c3 -7 27 -15 54 -18 39 -4 50 -9 52 -25 5 -32 -20 -56
-66 -62 -23 -3 -42 -9 -42 -13 0 -10 26 -20 51 -20 26 0 33 -22 19 -64 -12
-38 -47 -56 -106 -56 -33 0 -46 -13 -21 -22 22 -9 101 2 124 17 24 16 48 86
39 118 -3 12 3 31 15 45 23 30 25 75 3 96 -20 20 -128 23 -122 4z"/>
<path d="M10680 2318 c-48 -33 -67 -64 -89 -144 -24 -91 -15 -117 42 -122 22
-2 48 3 61 11 21 14 46 74 46 110 0 26 -29 47 -66 47 -22 0 -34 5 -34 14 0 20
67 76 90 76 11 0 20 7 20 15 0 22 -32 18 -70 -7z m26 -143 c10 -24 -16 -86
-40 -94 -22 -9 -47 -4 -57 11 -3 5 -1 29 4 54 10 43 11 44 49 44 25 0 41 -5
44 -15z"/>
<path d="M10942 2328 c3 -7 24 -14 49 -16 53 -4 64 -13 56 -45 -7 -26 -44 -47
-82 -47 -14 0 -25 -4 -25 -9 0 -11 25 -21 51 -21 26 0 33 -22 19 -64 -12 -38
-47 -56 -106 -56 -33 0 -46 -13 -21 -22 22 -9 101 2 124 17 24 16 48 86 39
118 -3 12 3 31 15 45 23 30 25 75 3 96 -20 20 -128 23 -122 4z"/>
<path d="M11212 2323 c-47 -23 -78 -74 -98 -159 -17 -71 -17 -74 1 -94 26 -28
85 -27 112 3 30 31 44 89 29 119 -8 17 -21 24 -49 26 -20 2 -37 8 -37 13 0 25
25 52 66 70 45 20 58 39 27 39 -10 0 -33 -8 -51 -17z m18 -164 c0 -58 -43 -98
-82 -77 -21 10 -22 19 -7 71 9 35 12 37 49 37 38 0 40 -2 40 -31z"/>
<path d="M10780 2070 c0 -13 5 -20 13 -17 6 2 12 10 12 17 0 7 -6 15 -12 18
-8 2 -13 -5 -13 -18z"/>
<path d="M2019 1684 c-22 -23 -24 -34 -24 -120 0 -89 1 -95 27 -121 37 -36 90
-36 127 1 24 25 26 32 26 122 0 92 -1 97 -28 120 -39 34 -95 33 -128 -2z m105
-20 c20 -19 23 -183 4 -202 -16 -16 -70 -16 -86 0 -8 8 -12 46 -12 103 0 57 4
95 12 103 17 17 64 15 82 -4z"/>
<path d="M2240 1703 c0 -4 15 -22 33 -41 23 -25 28 -36 18 -40 -36 -12 -51
-42 -51 -98 0 -66 10 -87 49 -103 24 -10 34 -10 59 3 36 19 42 33 42 101 0 49
-4 57 -45 103 l-46 51 42 3 c23 2 44 9 47 16 3 9 -16 12 -72 12 -42 0 -76 -3
-76 -7z m108 -125 c7 -7 12 -33 12 -58 0 -50 -13 -70 -45 -70 -32 0 -45 20
-45 70 0 50 13 70 45 70 12 0 26 -5 33 -12z"/>
<path d="M4515 1700 c-7 -12 7 -18 50 -22 22 -2 31 -9 33 -24 3 -18 -3 -22
-40 -27 -59 -8 -78 -34 -78 -109 0 -49 4 -63 25 -83 29 -30 74 -32 106 -6 22
18 24 28 27 123 3 132 -5 152 -70 156 -25 2 -49 -2 -53 -8z m85 -180 l0 -70
-40 0 -40 0 0 63 c0 35 3 67 7 70 3 4 21 7 40 7 l33 0 0 -70z"/>
<path d="M5297 1692 c-14 -15 -17 -40 -17 -121 0 -114 6 -133 49 -150 24 -10
34 -10 59 3 36 19 42 33 42 100 0 37 -5 58 -19 73 -13 13 -17 29 -14 47 11 54
-63 89 -100 48z m71 -34 c2 -11 -8 -23 -27 -33 l-31 -16 0 29 c0 16 3 32 7 36
13 12 48 2 51 -16z m20 -80 c7 -7 12 -33 12 -58 0 -50 -13 -70 -45 -70 -32 0
-45 20 -45 70 0 50 13 70 45 70 12 0 26 -5 33 -12z"/>
<path d="M2753 1620 c-31 -13 -43 -41 -43 -105 0 -46 4 -60 25 -80 25 -26 68
-32 94 -16 9 6 22 6 32 0 21 -11 37 7 20 24 -6 6 -11 45 -11 89 0 63 -3 79
-17 86 -23 12 -72 12 -100 2z m77 -100 l0 -70 -40 0 -40 0 0 63 c0 35 3 67 7
70 3 4 21 7 40 7 l33 0 0 -70z"/>
<path d="M2993 1619 c-21 -8 -43 -37 -43 -59 0 -6 11 -22 25 -36 l25 -25 -25
-36 c-44 -66 -8 -68 38 -3 37 52 57 52 57 2 0 -45 8 -56 27 -41 18 15 19 184
1 196 -18 11 -79 12 -105 2z m77 -54 c0 -22 -4 -25 -40 -25 -32 0 -40 4 -40
18 0 26 9 32 47 32 29 0 33 -3 33 -25z"/>
<path d="M3352 1618 c-16 -16 -16 -194 -1 -204 20 -12 29 19 29 99 l0 78 38
-3 37 -3 3 -75 c3 -95 7 -107 28 -89 22 18 16 161 -7 185 -20 19 -111 28 -127
12z"/>
<path d="M3633 1624 c-19 -8 -77 -194 -64 -207 12 -12 26 17 57 116 13 41 23
57 35 57 16 0 19 -11 21 -85 2 -48 7 -85 13 -85 12 0 20 200 8 201 -4 0 -19 2
-33 4 -14 2 -30 1 -37 -1z"/>
<path d="M4296 1619 c-40 -11 -46 -24 -46 -101 0 -72 11 -93 56 -104 14 -4 35
-2 47 3 13 6 32 7 44 2 28 -10 43 9 20 26 -13 10 -17 29 -17 94 0 44 -3 82 -7
82 -41 6 -73 6 -97 -2z m72 -96 l-3 -68 -40 0 -40 0 -3 54 c-4 74 0 81 48 81
l41 0 -3 -67z"/>
<path d="M5536 1619 c-40 -11 -46 -24 -46 -101 0 -72 11 -93 56 -104 14 -4 35
-2 47 3 13 6 32 7 44 2 28 -10 43 9 20 26 -13 10 -17 29 -17 94 0 44 -3 82 -7
82 -41 6 -73 6 -97 -2z m72 -96 l-3 -68 -40 0 -40 0 -3 54 c-4 74 0 81 48 81
l41 0 -3 -67z"/>
<path d="M5732 1618 c-8 -8 -12 -59 -12 -151 0 -126 2 -138 18 -135 12 2 18
14 20 41 3 35 5 37 36 37 19 0 44 9 57 19 21 17 24 28 24 90 0 52 -4 75 -16
87 -20 19 -111 28 -127 12z m106 -100 l3 -68 -41 0 -40 0 0 71 0 70 38 -3 37
-3 3 -67z"/>
<path d="M5941 1617 c-15 -15 -15 -193 0 -203 20 -12 29 19 29 99 0 75 0 77
25 77 25 0 25 -1 25 -84 0 -52 4 -88 11 -92 20 -12 29 19 29 99 0 76 1 78 23
75 20 -3 22 -9 25 -78 3 -90 8 -108 24 -92 18 18 13 172 -6 191 -19 19 -167
26 -185 8z"/>
<path d="M6422 1622 c-16 -11 -13 -297 3 -297 6 0 11 19 13 43 3 40 4 42 36
42 19 0 45 9 60 21 23 18 26 27 26 88 0 54 -4 71 -19 85 -21 19 -98 31 -119
18z m103 -102 l0 -65 -42 -3 -43 -3 0 71 0 71 43 -3 42 -3 0 -65z"/>
<path d="M2447 1614 c-4 -4 -7 -41 -7 -81 0 -65 3 -77 25 -98 21 -22 33 -25
99 -25 97 0 94 -8 87 183 -1 17 -7 27 -16 27 -12 0 -15 -16 -15 -85 0 -84 0
-85 -25 -85 -23 0 -24 2 -27 82 -3 70 -6 83 -20 86 -16 3 -18 -6 -18 -82 0
-85 0 -86 -25 -86 -23 0 -24 2 -27 82 -3 75 -12 100 -31 82z"/>
<path d="M3784 1599 c-29 -32 -27 -131 3 -160 29 -29 77 -29 106 -1 29 30 31
130 3 161 -26 29 -86 28 -112 0z m84 -18 c9 -5 12 -26 10 -67 l-3 -59 -35 0
-35 0 -3 54 c-2 29 -1 60 2 67 6 15 44 18 64 5z"/>
<path d="M3977 1614 c-4 -4 -7 -41 -7 -81 0 -65 3 -77 25 -98 21 -22 33 -25
99 -25 97 0 94 -8 87 183 -1 17 -7 27 -16 27 -12 0 -15 -16 -15 -85 0 -84 0
-85 -25 -85 -23 0 -24 2 -27 82 -3 70 -6 83 -20 86 -16 3 -18 -6 -18 -82 0
-85 0 -86 -25 -86 -23 0 -24 2 -27 82 -3 75 -12 100 -31 82z"/>
<path d="M4695 1608 c-3 -8 -5 -55 -3 -104 l3 -89 51 -3 c61 -4 97 19 97 62 0
37 -22 56 -71 63 -38 5 -41 8 -44 41 -3 36 -24 55 -33 30z m113 -135 c3 -21
-1 -23 -37 -23 -37 0 -41 2 -41 26 0 23 3 25 38 22 30 -2 38 -7 40 -25z"/>
<path d="M5082 1518 c2 -60 7 -103 13 -103 6 0 11 17 13 37 5 63 25 65 67 7
26 -37 40 -48 47 -41 8 8 1 26 -25 64 l-37 52 35 36 c19 20 35 39 35 43 0 19
-29 3 -72 -40 l-48 -47 0 47 c0 36 -4 47 -15 47 -13 0 -15 -16 -13 -102z"/>
<path d="M6200 1536 c0 -109 21 -133 111 -124 l34 3 3 103 c2 86 0 102 -13
102 -12 0 -15 -15 -15 -86 l0 -85 -42 3 -43 3 -3 83 c-2 64 -6 82 -17 82 -12
0 -15 -17 -15 -84z"/>
<path d="M6612 1518 c3 -90 5 -103 21 -106 48 -9 97 23 97 63 0 26 -42 65 -71
65 -15 0 -19 8 -19 40 0 29 -4 40 -15 40 -13 0 -15 -16 -13 -102z m83 -43 c0
-14 -8 -21 -27 -23 -24 -3 -28 0 -28 23 0 23 4 26 28 23 19 -2 27 -9 27 -23z"/>
<path d="M6762 1518 c4 -133 22 -132 26 2 2 85 0 100 -13 100 -13 0 -15 -15
-13 -102z"/>
<path d="M10450 1648 c-48 -33 -67 -64 -89 -144 -24 -90 -15 -117 41 -122 49
-4 75 11 93 55 30 71 11 113 -51 113 -22 0 -34 5 -34 14 0 20 67 76 90 76 11
0 20 7 20 15 0 22 -32 18 -70 -7z m28 -150 c5 -27 -25 -88 -45 -89 -62 -4 -69
14 -38 107 5 18 79 2 83 -18z"/>
<path d="M10622 1658 c3 -8 26 -14 56 -16 l52 -3 -25 -48 c-14 -30 -33 -51
-46 -54 -18 -5 -20 -9 -10 -21 10 -12 7 -24 -13 -65 -29 -57 -32 -71 -13 -71
7 0 27 29 45 65 20 40 38 65 48 65 12 0 15 6 11 21 -4 13 4 42 19 70 13 27 24
53 24 59 0 6 -30 10 -76 10 -56 0 -75 -3 -72 -12z"/>
<path d="M10956 1640 c-50 -38 -49 -37 -41 -50 5 -8 14 -6 31 5 31 20 31 14
-1 -100 -29 -103 -30 -115 -12 -115 8 0 25 47 45 123 17 67 35 132 38 145 9
31 -12 28 -60 -8z"/>
<path d="M11103 1655 c-26 -18 -43 -63 -33 -90 5 -13 2 -27 -10 -40 -30 -33
-42 -95 -25 -122 18 -27 78 -32 112 -8 26 18 47 77 40 113 -3 16 1 34 9 43 8
9 18 34 21 54 5 30 2 41 -12 51 -25 18 -75 18 -102 -1z m85 -42 c3 -24 -29
-63 -52 -63 -23 0 -46 29 -39 48 12 33 26 43 57 40 23 -2 32 -9 34 -25z m-32
-108 c9 -24 -16 -86 -39 -94 -26 -10 -57 -3 -58 13 -6 54 21 96 62 96 17 0 32
-6 35 -15z"/>
<path d="M10770 1399 c0 -24 23 -21 28 4 2 10 -3 17 -12 17 -10 0 -16 -9 -16
-21z"/>
<path d="M3805 7055 c-14 -13 -25 -29 -25 -34 0 -21 18 -19 40 4 13 14 29 25
36 25 16 0 44 -28 44 -44 0 -6 -27 -55 -60 -107 -33 -51 -60 -100 -60 -106 0
-9 22 -13 75 -13 60 0 75 3 75 15 0 11 -12 15 -51 15 -59 0 -60 -4 5 100 25
41 46 85 46 97 0 32 -43 73 -75 73 -14 0 -37 -11 -50 -25z"/>
<path d="M6642 7064 c-21 -14 -22 -23 -22 -128 0 -105 2 -114 23 -134 31 -29
72 -28 102 3 32 32 36 119 6 156 -12 16 -17 34 -14 51 3 18 -2 33 -16 47 -25
25 -49 27 -79 5z m57 -28 c12 -14 5 -46 -9 -46 -5 0 -15 -3 -24 -6 -12 -5 -16
0 -16 18 0 23 16 48 31 48 4 0 12 -6 18 -14z m25 -92 c35 -34 13 -134 -29
-134 -26 0 -45 31 -45 75 0 44 19 75 45 75 7 0 21 -7 29 -16z"/>
<path d="M4195 6978 c-3 -8 -5 -55 -3 -104 2 -71 6 -89 18 -89 10 0 17 13 20
39 3 22 10 41 16 43 6 2 25 -17 43 -42 18 -25 36 -45 42 -45 17 0 9 27 -21 68
-16 23 -30 46 -30 50 0 5 14 21 30 37 28 27 40 55 22 55 -4 0 -28 -20 -52 -46
l-45 -45 -5 42 c-5 42 -25 63 -35 37z"/>
<path d="M4442 6983 c-20 -8 -42 -59 -42 -98 0 -110 115 -148 149 -49 33 94
-28 179 -107 147z m67 -37 c18 -22 10 -117 -11 -130 -32 -19 -53 4 -56 63 -3
56 9 81 38 81 10 0 23 -6 29 -14z"/>
<path d="M4620 6885 c0 -87 3 -105 15 -105 12 0 15 15 15 73 l1 72 29 -35 29
-35 30 35 30 35 1 -72 c0 -58 3 -73 15 -73 12 0 15 18 15 105 0 120 -9 131
-55 65 -15 -22 -30 -40 -33 -40 -3 0 -20 18 -39 40 -19 22 -39 40 -44 40 -5 0
-9 -47 -9 -105z"/>
<path d="M4855 6978 c-3 -8 -5 -55 -3 -104 2 -71 6 -89 18 -89 10 0 16 13 18
43 3 42 3 42 42 42 39 0 39 0 42 -42 2 -30 8 -43 18 -43 12 0 15 18 15 100 0
82 -3 100 -15 100 -10 0 -16 -13 -18 -42 -3 -43 -3 -43 -42 -43 -38 0 -39 0
-42 42 -3 41 -23 63 -33 36z"/>
<path d="M5092 6974 c-19 -13 -22 -24 -22 -88 0 -96 10 -106 108 -104 53 1 72
5 72 15 0 7 -7 13 -15 13 -12 0 -15 17 -15 90 l0 90 -53 0 c-31 0 -61 -6 -75
-16z m98 -77 c0 -67 -10 -87 -45 -87 -33 0 -45 20 -45 75 0 60 12 75 57 75
l33 0 0 -63z"/>
<path d="M5304 6977 c-3 -8 -4 -54 -2 -103 2 -71 6 -89 18 -89 12 0 16 18 18
88 3 85 3 87 27 87 24 0 24 -2 27 -87 2 -70 6 -88 18 -88 12 0 16 18 18 88 3
85 4 88 25 85 20 -3 22 -10 27 -87 3 -55 9 -86 18 -89 13 -4 14 4 14 106 0 92
-12 102 -119 102 -60 0 -85 -4 -89 -13z"/>
<path d="M5580 6885 c0 -87 3 -105 15 -105 11 0 15 12 15 45 l0 45 45 0 45 0
0 -45 c0 -33 4 -45 15 -45 12 0 15 18 15 105 0 87 -3 105 -15 105 -11 0 -15
-12 -15 -45 l0 -45 -45 0 -45 0 0 45 c0 33 -4 45 -15 45 -12 0 -15 -18 -15
-105z"/>
<path d="M5785 6978 c-3 -8 -5 -55 -3 -104 l3 -89 29 -3 c47 -6 73 6 84 37 9
25 7 34 -9 56 -12 14 -31 25 -44 25 -21 0 -24 5 -27 42 -3 41 -23 63 -33 36z
m80 -138 c0 -18 -6 -26 -22 -28 -20 -3 -23 1 -23 28 0 27 3 31 23 28 16 -2 22
-10 22 -28z"/>
<path d="M5937 6983 c-12 -11 -8 -191 4 -199 20 -12 29 19 29 98 0 95 -10 125
-33 101z"/>
<path d="M6050 6970 c-11 -11 -22 -31 -26 -45 -11 -42 2 -117 22 -132 25 -19
124 -17 124 1 0 11 -15 16 -52 18 -49 3 -53 5 -56 31 -3 27 -3 27 57 27 67 0
73 8 51 66 -21 54 -82 72 -120 34z m78 -22 c7 -7 12 -20 12 -30 0 -14 -8 -18
-40 -18 -32 0 -40 4 -40 18 0 22 19 42 40 42 9 0 21 -5 28 -12z"/>
<path d="M6410 6885 c0 -87 3 -105 15 -105 10 0 15 10 15 34 0 18 7 39 15 46
12 10 20 4 47 -34 29 -42 58 -60 58 -36 0 5 -16 32 -35 58 l-34 49 34 33 c35
34 45 60 23 60 -7 0 -34 -21 -60 -47 l-48 -47 0 47 c0 35 -4 47 -15 47 -12 0
-15 -18 -15 -105z"/>
<path d="M6852 6974 c-19 -13 -22 -24 -22 -88 0 -96 10 -106 108 -104 53 1 72
5 72 15 0 7 -7 13 -15 13 -12 0 -15 17 -15 90 l0 90 -53 0 c-31 0 -61 -6 -75
-16z m98 -77 c0 -67 -10 -87 -45 -87 -33 0 -45 20 -45 75 0 60 12 75 57 75
l33 0 0 -63z"/>
<path d="M7064 6977 c-2 -7 -3 -74 -2 -148 3 -111 6 -134 18 -134 10 0 16 13
18 43 3 41 4 42 41 42 57 0 76 27 76 105 0 85 -18 105 -92 105 -35 0 -55 -5
-59 -13z m111 -92 l0 -70 -37 -3 -38 -3 0 76 0 76 38 -3 37 -3 0 -70z"/>
<path d="M7270 6885 c0 -87 3 -105 15 -105 12 0 15 17 15 90 l0 90 30 0 30 0
0 -90 c0 -73 3 -90 15 -90 12 0 15 17 15 90 0 80 2 90 18 90 33 0 42 -21 42
-102 0 -63 3 -78 15 -78 12 0 15 16 15 85 0 72 -3 88 -20 105 -17 17 -33 20
-105 20 l-85 0 0 -105z"/>
<path d="M7540 6902 c0 -110 9 -122 93 -122 l57 0 0 105 c0 87 -3 105 -15 105
-12 0 -15 -17 -15 -90 l0 -90 -33 0 c-49 0 -57 14 -57 102 0 63 -3 78 -15 78
-12 0 -15 -16 -15 -88z"/>
<path d="M7740 6840 c0 -127 2 -150 15 -150 11 0 15 12 15 45 l0 45 44 0 c60
0 76 23 76 107 0 84 -18 103 -95 103 l-55 0 0 -150z m108 108 c7 -7 12 -35 12
-63 0 -60 -12 -75 -57 -75 l-33 0 0 75 0 75 33 0 c18 0 38 -5 45 -12z"/>
<path d="M7950 6885 l0 -105 44 0 c47 0 76 24 76 62 0 26 -36 58 -65 58 -23 0
-25 4 -25 45 0 33 -4 45 -15 45 -12 0 -15 -18 -15 -105z m80 -30 c16 -19 -3
-45 -31 -45 -14 0 -19 7 -19 30 0 23 5 30 19 30 10 0 24 -7 31 -15z"/>
<path d="M8100 6885 c0 -87 3 -105 15 -105 12 0 15 18 15 105 0 87 -3 105 -15
105 -12 0 -15 -18 -15 -105z"/>
<path d="M3995 6880 c-13 -22 12 -31 76 -28 49 2 64 7 64 18 0 12 -15 16 -67
18 -41 2 -69 -1 -73 -8z"/>
<path d="M2446 6317 c-44 -38 -44 -69 1 -40 25 17 26 17 18 -6 -31 -98 -54
-206 -46 -214 6 -6 13 -2 19 9 12 24 72 245 72 267 0 26 -21 20 -64 -16z"/>
<path d="M3696 6209 c-23 -89 -34 -145 -28 -151 14 -14 21 2 57 136 l32 121
62 3 62 3 -7 -28 c-4 -15 -19 -72 -34 -125 -22 -78 -25 -100 -15 -108 15 -12
19 -2 60 155 15 55 29 108 31 118 5 15 -4 17 -89 17 l-94 0 -37 -141z"/>
<path d="M6672 6338 c3 -7 21 -14 42 -16 32 -3 37 -6 34 -25 -2 -18 -13 -24
-58 -33 -45 -8 -59 -16 -77 -42 -24 -37 -38 -101 -28 -132 16 -49 113 -43 138
8 27 54 62 212 51 230 -14 21 -109 31 -102 10z m54 -125 c-3 -10 -10 -37 -15
-59 -13 -51 -31 -66 -68 -62 -24 3 -28 7 -27 33 1 17 9 47 17 68 15 34 19 37
57 37 35 0 41 -3 36 -17z"/>
<path d="M10352 6338 c3 -8 26 -14 56 -16 29 -2 52 -5 52 -7 0 -3 -10 -25 -22
-50 -14 -29 -29 -45 -40 -45 -10 0 -18 -7 -18 -15 0 -8 5 -15 10 -15 6 0 -3
-27 -20 -60 -17 -34 -28 -65 -24 -71 10 -16 27 5 59 71 19 41 34 60 47 60 10
0 18 7 18 15 0 8 -5 15 -10 15 -6 0 3 27 20 60 16 33 30 62 30 65 0 3 -36 5
-81 5 -60 0 -80 -3 -77 -12z"/>
<path d="M10646 6284 c-9 -36 -14 -69 -11 -75 4 -5 26 -9 51 -9 53 0 63 -15
42 -68 -13 -36 -15 -37 -73 -42 -44 -4 -60 -9 -60 -20 0 -12 13 -15 59 -14 51
1 63 5 83 28 27 32 39 89 25 121 -8 16 -22 25 -51 30 -42 7 -44 11 -32 55 6
22 14 26 61 30 83 8 77 30 -8 30 l-70 0 -16 -66z"/>
<path d="M10917 6339 c-42 -25 -93 -175 -80 -239 15 -75 94 -55 138 34 32 65
46 176 25 201 -14 17 -57 19 -83 4z m61 -60 c3 -41 -29 -142 -54 -170 -10 -11
-26 -19 -37 -19 -18 0 -19 5 -15 63 10 124 97 228 106 126z"/>
<path d="M3964 6262 c-14 -9 -87 -280 -79 -293 10 -16 24 0 35 40 10 37 12 39
60 43 65 7 84 25 104 104 18 70 11 103 -22 105 -9 1 -33 3 -52 5 -20 2 -40 0
-46 -4z m93 -75 c-12 -84 -21 -97 -71 -97 l-45 0 20 67 c10 38 19 69 19 70 0
2 19 3 41 3 l42 0 -6 -43z"/>
<path d="M5147 6262 c-15 -2 -34 -13 -41 -25 -23 -35 -44 -130 -35 -155 10
-26 53 -39 89 -25 18 7 33 7 45 1 24 -14 43 6 26 26 -10 12 -8 30 9 92 26 97
22 100 -93 86z m73 -34 c-1 -20 -32 -113 -40 -124 -18 -21 -80 -19 -80 4 0 25
21 95 32 110 8 10 88 19 88 10z"/>
<path d="M5400 6263 c-53 -10 -81 -60 -54 -100 15 -24 15 -26 -17 -59 -22 -23
-30 -37 -23 -44 7 -7 25 5 54 35 49 50 86 61 75 23 -4 -13 -9 -30 -11 -40 -6
-21 11 -32 24 -15 13 17 56 186 49 193 -8 9 -66 12 -97 7z m58 -55 c-2 -19
-10 -24 -45 -26 -37 -3 -43 0 -43 16 0 27 8 32 52 32 35 0 39 -2 36 -22z"/>
<path d="M6202 6261 c-13 -8 -82 -239 -82 -273 0 -33 26 -18 36 20 7 29 14 38
34 40 72 7 98 21 114 63 26 64 31 122 12 138 -18 15 -96 24 -114 12z m93 -68
c-4 -21 -13 -53 -20 -70 -13 -30 -18 -33 -54 -33 -23 0 -41 3 -41 6 0 3 8 35
17 70 l17 64 44 0 44 0 -7 -37z"/>
<path d="M7054 6262 c-14 -9 -87 -280 -79 -293 10 -16 24 0 35 40 10 37 12 39
60 43 65 7 84 25 104 104 18 70 11 103 -22 105 -9 1 -33 3 -52 5 -20 2 -40 0
-46 -4z m93 -75 c-12 -84 -21 -97 -71 -97 l-45 0 20 67 c10 38 19 69 19 70 0
2 19 3 41 3 l42 0 -6 -43z"/>
<path d="M4154 6182 c-30 -113 -14 -138 82 -130 l39 3 21 75 c37 130 37 132
18 128 -12 -2 -23 -26 -38 -83 l-21 -80 -42 -3 c-50 -4 -52 3 -28 82 18 60 19
86 2 86 -8 0 -21 -31 -33 -78z"/>
<path d="M4390 6256 c0 -2 9 -24 19 -49 l19 -45 -39 -38 c-39 -39 -50 -64 -26
-64 7 0 26 14 42 30 35 36 43 37 51 5 7 -29 30 -50 38 -37 3 6 -2 31 -11 56
l-17 46 42 43 c23 23 42 46 42 50 0 17 -27 4 -61 -29 l-38 -37 -15 37 c-8 20
-22 36 -30 36 -9 0 -16 -2 -16 -4z"/>
<path d="M4620 6240 c-28 -28 -54 -124 -40 -149 15 -29 44 -42 79 -35 41 9 67
43 82 110 11 48 10 56 -6 74 -24 27 -88 27 -115 0z m92 -48 c-1 -18 -9 -49
-17 -68 -12 -30 -18 -34 -51 -34 l-37 0 5 45 c8 66 32 97 71 93 30 -3 32 -6
29 -36z"/>
<path d="M4820 6256 c0 -2 9 -24 19 -49 l19 -45 -39 -38 c-21 -21 -39 -44 -39
-51 0 -25 28 -13 64 27 l36 41 -2 -38 c-4 -55 15 -53 31 4 l14 48 23 -54 c18
-40 27 -52 36 -43 8 8 6 22 -6 52 -18 46 -14 59 33 104 17 17 31 33 31 38 0
19 -27 5 -68 -34 -47 -46 -46 -47 -25 25 4 14 0 18 -13 15 -12 -2 -22 -17 -27
-41 -5 -20 -12 -37 -16 -37 -5 0 -15 18 -24 40 -9 23 -22 40 -31 40 -9 0 -16
-2 -16 -4z"/>
<path d="M5731 6170 c-22 -85 -23 -128 -1 -115 5 3 10 15 10 25 0 10 11 32 24
47 l24 28 20 -46 c11 -26 25 -50 30 -53 21 -13 22 15 3 60 -12 26 -21 50 -21
54 0 3 20 21 45 39 25 18 45 36 45 42 0 19 -34 8 -74 -24 -66 -54 -67 -54 -60
-8 5 32 3 41 -8 41 -10 0 -22 -29 -37 -90z"/>
<path d="M5986 6241 c-34 -37 -54 -118 -40 -156 18 -46 113 -35 140 16 22 43
30 125 14 144 -19 22 -93 20 -114 -4z m87 -59 c-3 -63 -26 -94 -66 -90 -29 3
-32 6 -31 33 1 17 9 47 18 68 14 35 19 38 48 35 32 -3 33 -4 31 -46z"/>
<path d="M6384 6182 c-30 -113 -14 -138 82 -130 l39 3 21 75 c37 130 37 132
18 128 -12 -2 -23 -26 -38 -83 l-21 -80 -42 -3 c-50 -4 -52 3 -28 82 18 60 19
86 2 86 -8 0 -21 -31 -33 -78z"/>
<path d="M6840 6240 c-28 -28 -54 -124 -40 -149 15 -29 44 -42 79 -35 41 9 67
43 82 110 11 48 10 56 -6 74 -24 27 -88 27 -115 0z m92 -48 c-1 -18 -9 -49
-17 -68 -12 -30 -18 -34 -51 -34 l-37 0 5 45 c8 66 32 97 71 93 30 -3 32 -6
29 -36z"/>
<path d="M10504 6085 c-7 -17 4 -37 17 -30 12 8 12 45 -1 45 -6 0 -13 -7 -16
-15z"/>
</g>
</svg>
