<?xml version="1.0" standalone="no"?>
<!DOCTYPE svg PUBLIC "-//W3C//DTD SVG 20010904//EN"
 "http://www.w3.org/TR/2001/REC-SVG-20010904/DTD/svg10.dtd">
<svg version="1.0" xmlns="http://www.w3.org/2000/svg"
 width="3307.000000pt" height="2339.000000pt" viewBox="0 0 3307.000000 2339.000000"
 preserveAspectRatio="xMidYMid meet">

<g transform="translate(0.000000,2339.000000) scale(0.100000,-0.100000)"
fill="#000000" stroke="none">
<path d="M0 11695 l0 -11695 16535 0 16535 0 0 11695 0 11695 -16535 0 -16535
0 0 -11695z m33060 0 l0 -11685 -16525 0 -16525 0 0 11685 0 11685 16525 0
16525 0 0 -11685z"/>
<path d="M1170 11695 l0 -11305 15758 2 15757 3 0 11300 0 11300 -15757 3
-15758 2 0 -11305z m31490 0 l0 -11285 -15730 0 -15730 0 0 11285 0 11285
15730 0 15730 0 0 -11285z"/>
<path d="M4653 22657 c-50 -24 -54 -33 -15 -32 l27 0 3 -174 c3 -181 0 -196
-41 -204 -12 -2 19 -5 68 -5 69 -1 84 2 65 9 -13 6 -28 15 -32 22 -4 7 -8 101
-8 210 0 151 -3 197 -12 196 -7 0 -32 -10 -55 -22z"/>
<path d="M4983 22657 c-50 -24 -54 -33 -15 -32 l27 0 3 -174 c3 -181 0 -196
-41 -204 -12 -2 19 -5 68 -5 69 -1 84 2 65 9 -13 6 -28 15 -32 22 -4 7 -8 101
-8 210 0 151 -3 197 -12 196 -7 0 -32 -10 -55 -22z"/>
<path d="M2120 22661 l25 -7 3 -192 2 -193 -32 -14 c-31 -13 -27 -14 78 -15
140 0 168 6 205 42 24 25 29 38 29 79 0 39 -5 55 -24 74 -27 27 -83 45 -143
45 l-43 0 0 85 0 85 65 0 c68 0 105 -20 105 -55 0 -8 5 -15 10 -15 11 0 13 33
4 68 -6 22 -9 22 -158 21 -83 -1 -140 -4 -126 -8z m207 -229 c11 -6 23 -19 27
-28 9 -24 7 -73 -4 -95 -14 -25 -62 -49 -100 -49 l-30 0 0 94 c0 67 4 96 13
99 15 5 66 -6 94 -21z"/>
<path d="M3640 22661 l25 -7 3 -192 2 -193 -32 -14 c-31 -13 -27 -14 78 -15
140 0 168 6 205 42 24 25 29 38 29 79 0 39 -5 55 -24 74 -27 27 -83 45 -143
45 l-43 0 0 85 0 85 65 0 c68 0 105 -20 105 -55 0 -8 5 -15 10 -15 11 0 13 33
4 68 -6 22 -9 22 -158 21 -83 -1 -140 -4 -126 -8z m207 -229 c11 -6 23 -19 27
-28 9 -24 7 -73 -4 -95 -14 -25 -62 -49 -100 -49 l-30 0 0 94 c0 67 4 96 13
99 15 5 66 -6 94 -21z"/>
<path d="M2883 22520 c-63 -38 -88 -129 -55 -203 26 -58 62 -82 123 -82 82 0
140 63 141 153 0 90 -55 152 -137 152 -22 0 -54 -9 -72 -20z m104 -15 c28 -19
46 -75 46 -142 0 -151 -130 -143 -158 10 -20 105 44 180 112 132z"/>
<path d="M3353 22528 c-12 -6 -29 -27 -37 -48 -18 -46 -41 -70 -67 -70 -18 0
-20 6 -17 47 2 39 7 50 28 60 22 11 17 13 -50 12 -56 0 -69 -3 -52 -9 22 -9
23 -13 20 -132 -3 -119 -4 -123 -28 -135 -22 -11 -16 -13 55 -13 71 0 77 2 55
13 -22 11 -25 20 -28 76 -4 83 13 80 71 -14 l42 -70 50 -2 c44 -2 47 -1 27 9
-13 7 -45 44 -72 84 l-47 73 21 38 c19 33 26 38 54 35 36 -4 52 18 32 43 -14
17 -26 18 -57 3z"/>
<path d="M2528 22520 c21 -9 22 -15 22 -118 0 -82 -4 -112 -14 -121 -10 -8
-16 -9 -21 -1 -8 12 -42 13 -49 1 -13 -20 7 -41 39 -41 57 0 69 26 74 156 l3
114 49 0 49 0 0 -104 c0 -119 -9 -153 -42 -159 -13 -2 13 -5 57 -5 64 -1 76 1
58 10 -22 11 -23 16 -23 135 0 119 1 124 23 133 15 6 -23 9 -113 9 -90 0 -128
-3 -112 -9z"/>
<path d="M5228 22520 c22 -9 23 -13 20 -132 -3 -119 -4 -123 -28 -135 -21 -11
16 -13 220 -12 184 0 239 3 223 11 -22 11 -23 16 -23 135 0 119 1 124 23 133
16 6 2 9 -53 9 -55 0 -69 -3 -52 -9 21 -9 22 -14 22 -135 l0 -126 -52 3 -53 3
-3 123 c-3 119 -2 123 20 132 17 6 4 9 -52 9 -67 1 -72 -1 -50 -12 24 -12 25
-17 28 -112 4 -144 3 -147 -61 -143 l-52 3 0 120 c0 117 0 120 25 132 22 11
17 13 -50 12 -56 0 -69 -3 -52 -9z"/>
<path d="M5701 22488 c0 -24 3 -36 6 -28 12 32 37 50 70 50 l33 0 0 -112 c0
-118 -3 -128 -35 -146 -16 -9 -3 -11 65 -11 47 1 76 4 65 6 -42 10 -45 21 -45
144 l0 119 35 0 c29 0 39 -6 55 -32 16 -26 20 -29 20 -13 0 11 -3 30 -6 43 -6
21 -10 22 -135 22 l-129 0 1 -42z"/>
<path d="M4170 22385 c0 -25 1 -25 80 -25 79 0 80 0 80 25 0 25 -1 25 -80 25
-79 0 -80 0 -80 -25z"/>
<path d="M6027 22294 c-15 -16 -7 -53 14 -59 30 -10 58 19 43 43 -12 18 -45
28 -57 16z"/>
<path d="M18707 18963 c-4 -3 -7 -305 -7 -670 l0 -663 -340 0 c-220 0 -340 4
-340 10 0 15 -692 14 -708 -2 -13 -13 -1306 -17 -2745 -8 -727 5 -800 4 -810
-11 -9 -12 -12 -81 -11 -235 1 -121 2 -222 3 -226 0 -5 51 -8 111 -8 l110 0 0
-457 c0 -252 5 -1443 10 -2648 6 -1204 12 -2503 13 -2885 l2 -695 350 0 350 0
3 31 3 31 1419 7 c780 5 1423 5 1429 2 5 -4 8 -15 6 -26 -2 -10 2 -24 9 -29 9
-8 122 -10 357 -9 l344 3 3 33 3 32 626 0 c344 -1 630 3 635 8 5 5 7 86 6 181
l-3 172 -630 2 c-495 2 -630 5 -631 15 -1 6 -2 19 -3 27 -1 13 -47 15 -349 15
-368 0 -372 0 -372 -47 l0 -23 -293 0 c-162 0 -348 3 -415 7 l-121 6 -3 139
c-2 77 0 142 4 146 25 27 508 868 504 879 -7 18 -20 16 -38 -4 -9 -10 -122
-200 -253 -423 -130 -223 -242 -411 -247 -417 -6 -7 -32 -13 -59 -13 l-49 0 0
110 c0 67 -4 110 -10 110 -5 0 -10 -22 -10 -50 0 -58 7 -56 -122 -36 -73 11
-88 11 -88 -1 0 -11 -129 -13 -740 -13 l-740 0 0 68 c0 37 -3 124 -7 195 l-6
127 103 -1 c83 -1 106 1 115 14 6 9 29 17 51 19 l39 3 -42 30 c-42 30 -43 31
-43 93 l0 62 36 0 c29 0 35 3 30 16 -3 9 -6 20 -6 26 0 5 -7 2 -16 -6 -8 -9
-22 -16 -30 -16 -12 0 -14 37 -14 230 l0 230 413 0 c226 0 557 3 735 7 l323 6
-2 -121 c-1 -66 2 -125 5 -131 4 -6 37 -11 77 -11 l69 0 2 -62 2 -63 3 60 c2
33 6 67 9 75 3 8 5 66 4 128 -1 95 1 112 14 112 19 0 20 5 21 85 l0 59 415
242 c228 133 421 247 428 254 16 14 15 29 -2 36 -7 3 -210 -110 -451 -250
l-437 -256 -814 0 -814 0 -2 353 -3 352 -106 3 -106 3 -6 907 c-4 499 -7 1246
-7 1660 l0 752 1339 0 c1017 0 1340 -3 1343 -12 3 -9 26 -7 89 5 46 9 91 17
100 17 15 0 17 -85 22 -922 4 -508 8 -1416 9 -2018 l3 -1095 -25 0 c-21 0 -25
-5 -28 -35 -1 -19 1 -54 5 -78 l8 -43 728 1 729 0 -41 -58 c-23 -32 -41 -63
-41 -70 0 -8 17 -12 45 -12 41 0 45 -2 45 -25 0 -16 6 -25 15 -25 9 0 15 9 15
25 0 16 6 25 15 25 8 0 15 7 15 15 0 8 -7 15 -15 15 -12 0 -15 13 -15 55 l0
55 36 0 c25 0 33 -4 28 -12 -6 -10 -4 -10 7 0 7 6 26 12 41 12 39 0 42 -43 6
-71 -21 -16 -21 -16 5 -23 32 -8 46 -48 26 -72 -10 -12 -23 -14 -52 -10 -29 5
-38 3 -35 -6 8 -22 62 -21 91 2 32 25 36 73 10 102 -13 14 -14 21 -5 30 7 7
12 20 12 30 0 13 8 18 30 18 19 0 30 -5 30 -14 0 -7 9 -25 20 -39 l21 -26 -21
-21 c-11 -11 -20 -28 -20 -38 0 -49 85 -71 114 -30 21 30 20 42 -8 75 -24 29
-25 30 -5 46 10 9 19 24 19 32 0 9 9 15 23 15 21 0 22 -4 22 -74 0 -59 4 -78
19 -95 60 -66 136 28 109 132 l-11 40 64 -6 63 -6 3 72 3 71 430 247 c237 136
430 253 430 260 0 8 -8 15 -17 17 -9 2 -213 -110 -454 -247 l-437 -251 -654 0
-654 0 5 33 c3 17 11 61 17 96 8 51 8 66 -3 72 -11 7 -14 362 -19 1981 -4
1085 -6 1974 -5 1974 0 1 769 4 1709 7 1650 6 1707 6 1707 -12 0 -18 3 -18
102 0 56 10 102 18 104 16 1 -1 5 -939 9 -2084 l8 -2083 -662 0 -661 0 0 -34
c0 -18 3 -54 6 -80 l7 -46 148 0 c135 0 149 -2 149 -17 0 -10 -6 -57 -14 -105
-11 -73 -11 -88 1 -88 7 0 13 -11 13 -25 l0 -25 -2095 0 c-1856 0 -2095 2
-2095 15 0 18 11 19 -105 -5 -53 -11 -100 -21 -104 -21 -3 -1 39 -9 94 -19 92
-16 101 -16 113 -1 12 15 202 16 2101 19 l2088 3 7 -23 c3 -13 6 -249 6 -525
0 -496 0 -503 -20 -503 -11 0 -20 -2 -20 -4 0 -4 27 -142 36 -183 l4 -23 -237
0 -237 0 -494 280 c-272 154 -500 280 -508 280 -8 0 -14 -8 -14 -19 0 -14 117
-85 485 -292 l485 -274 0 -170 0 -170 442 2 c244 1 643 5 887 9 l444 6 -6
1872 c-4 1029 -10 2518 -14 3309 l-6 1437 99 -1 c54 -1 107 -1 117 0 16 1 17
17 15 239 l-3 237 -592 -3 -593 -3 -2 658 -3 658 -1341 3 c-737 1 -1344 -1
-1347 -5z m2666 -410 c4 -219 7 -512 7 -650 0 -246 -1 -253 -20 -253 -20 0
-20 7 -21 418 -1 229 -4 515 -8 636 l-6 219 -730 -3 c-401 -2 -979 -5 -1284
-9 l-554 -6 2 -637 3 -638 -23 0 -22 0 6 413 c4 226 7 523 7 660 l0 247 1318
0 1319 0 6 -397z m-50 -35 c4 -215 7 -499 7 -630 l0 -238 -25 0 -25 0 0 605 0
605 -1230 0 -1230 0 0 -615 0 -615 -25 0 -25 0 0 635 0 635 563 3 c309 1 882
3 1273 5 l711 2 6 -392z m-53 -268 l0 -600 -22 -1 c-13 -1 -115 -5 -228 -8
l-205 -6 3 -93 c3 -86 2 -93 -15 -90 -17 3 -18 25 -15 452 l4 448 -44 -5 c-98
-10 -218 -40 -303 -74 -276 -110 -504 -398 -546 -688 -5 -38 -12 -83 -14 -100
l-5 -30 -287 -4 c-159 -1 -291 -5 -295 -8 -5 -2 -9 6 -9 19 -1 13 -3 39 -4 58
-2 19 -4 52 -4 73 l-1 37 -225 0 -225 0 0 610 0 610 1220 0 1220 0 0 -600z
m-500 60 c0 -13 -7 -20 -20 -20 -13 0 -20 7 -20 20 0 13 7 20 20 20 13 0 20
-7 20 -20z m-58 -322 c3 -594 1 -552 28 -556 12 -2 25 -12 27 -22 3 -11 15
-20 27 -22 19 -3 21 -11 26 -88 3 -47 9 -90 13 -97 5 -8 139 -12 510 -13 276
-1 563 -5 637 -9 l135 -6 3 -197 c3 -228 17 -207 -118 -183 -47 8 -86 15 -87
15 -2 0 -3 -6 -3 -13 0 -11 -200 -15 -1142 -20 -628 -4 -1397 -7 -1710 -7
l-568 0 -2 103 -2 102 -3 -102 -4 -103 -179 0 c-153 0 -180 2 -180 15 0 18 7
18 -107 -1 -52 -9 -97 -14 -99 -11 -3 3 -8 93 -11 200 l-6 194 79 6 c43 4 351
10 684 13 374 4 610 10 618 17 8 6 12 38 12 94 l0 84 302 -2 303 -1 13 118
c24 225 88 371 232 535 145 163 329 258 563 288 4 1 8 -149 9 -331z m25 -200
c-1 -90 -3 -17 -3 162 0 179 2 252 3 163 2 -90 2 -236 0 -325z m32 320 c-1
-90 -5 -262 -8 -383 -7 -211 -7 -204 -9 163 -1 249 1 382 8 382 6 0 10 -60 9
-162z m201 -508 c20 -6 21 -8 5 -8 -11 0 -31 4 -45 8 -20 6 -21 8 -5 8 11 0
31 -4 45 -8z m-4050 -60 c0 -57 -1 -60 -25 -60 -13 0 -28 -8 -34 -17 -9 -17
-53 -18 -711 -18 -658 0 -702 1 -711 18 -6 9 -21 17 -34 17 -24 0 -25 3 -25
60 l0 60 770 0 770 0 0 -60z m133 53 c-7 -2 -19 -2 -25 0 -7 3 -2 5 12 5 14 0
19 -2 13 -5z m60 -10 c-7 -2 -21 -2 -30 0 -10 3 -4 5 12 5 17 0 24 -2 18 -5z
m3914 1 c-3 -3 -12 -4 -19 -1 -8 3 -5 6 6 6 11 1 17 -2 13 -5z m-7120 -10 c-3
-3 -12 -4 -19 -1 -8 3 -5 6 6 6 11 1 17 -2 13 -5z m3266 -1 c-7 -2 -21 -2 -30
0 -10 3 -4 5 12 5 17 0 24 -2 18 -5z m3894 1 c-3 -3 -12 -4 -19 -1 -8 3 -5 6
6 6 11 1 17 -2 13 -5z m-7120 -10 c-3 -3 -12 -4 -19 -1 -8 3 -5 6 6 6 11 1 17
-2 13 -5z m3286 -1 c-7 -2 -21 -2 -30 0 -10 3 -4 5 12 5 17 0 24 -2 18 -5z
m3874 1 c-3 -3 -12 -4 -19 -1 -8 3 -5 6 6 6 11 1 17 -2 13 -5z m-7120 -10 c-3
-3 -12 -4 -19 -1 -8 3 -5 6 6 6 11 1 17 -2 13 -5z m3296 -1 c-7 -2 -19 -2 -25
0 -7 3 -2 5 12 5 14 0 19 -2 13 -5z m3864 1 c-3 -3 -12 -4 -19 -1 -8 3 -5 6 6
6 11 1 17 -2 13 -5z m-7102 -14 c13 -5 14 -9 5 -9 -8 0 -24 4 -35 9 -13 5 -14
9 -5 9 8 0 24 -4 35 -9z m3346 -8 c-13 -2 -27 0 -32 5 -6 6 3 7 23 4 28 -4 29
-6 9 -9z m3844 4 c28 -8 43 -15 35 -15 -8 0 -37 6 -65 13 -27 8 -43 15 -35 15
8 0 38 -6 65 -13z m-7138 -12 c-3 -3 -12 -4 -19 -1 -8 3 -5 6 6 6 11 1 17 -2
13 -5z m3366 -1 c-7 -2 -21 -2 -30 0 -10 3 -4 5 12 5 17 0 24 -2 18 -5z
m-3268 -24 c14 -6 9 -7 -15 -3 -19 4 -44 11 -55 15 -14 6 -9 7 15 3 19 -4 44
-11 55 -15z m3328 14 c-7 -2 -21 -2 -30 0 -10 3 -4 5 12 5 17 0 24 -2 18 -5z
m3794 1 c-3 -3 -12 -4 -19 -1 -8 3 -5 6 6 6 11 1 17 -2 13 -5z m-3734 -11 c-7
-2 -21 -2 -30 0 -10 3 -4 5 12 5 17 0 24 -2 18 -5z m3774 1 c-3 -3 -12 -4 -19
-1 -8 3 -5 6 6 6 11 1 17 -2 13 -5z m-3724 -11 c-7 -2 -19 -2 -25 0 -7 3 -2 5
12 5 14 0 19 -2 13 -5z m3764 1 c-3 -3 -12 -4 -19 -1 -8 3 -5 6 6 6 11 1 17
-2 13 -5z m-7150 -10 c-3 -3 -12 -4 -19 -1 -8 3 -5 6 6 6 11 1 17 -2 13 -5z
m3446 -1 c-7 -2 -21 -2 -30 0 -10 3 -4 5 12 5 17 0 24 -2 18 -5z m3067 -13 c0
-19 -11 -26 -23 -14 -8 8 3 34 14 34 5 0 9 -9 9 -20z m677 14 c-3 -3 -12 -4
-19 -1 -8 3 -5 6 6 6 11 1 17 -2 13 -5z m-7150 -10 c-3 -3 -12 -4 -19 -1 -8 3
-5 6 6 6 11 1 17 -2 13 -5z m3466 -1 c-7 -2 -21 -2 -30 0 -10 3 -4 5 12 5 17
0 24 -2 18 -5z m3772 -7 c28 -8 43 -15 35 -15 -8 0 -37 6 -65 13 -27 8 -43 15
-35 15 8 0 38 -6 65 -13z m-7180 -6 c13 -5 14 -9 5 -9 -8 0 -24 4 -35 9 -13 5
-14 9 -5 9 8 0 24 -4 35 -9z m3468 3 c-7 -2 -21 -2 -30 0 -10 3 -4 5 12 5 17
0 24 -2 18 -5z m60 -10 c-7 -2 -21 -2 -30 0 -10 3 -4 5 12 5 17 0 24 -2 18 -5z
m-3476 -9 c-3 -3 -12 -4 -19 -1 -8 3 -5 6 6 6 11 1 17 -2 13 -5z m3526 -1 c-7
-2 -19 -2 -25 0 -7 3 -2 5 12 5 14 0 19 -2 13 -5z m3684 1 c-3 -3 -12 -4 -19
-1 -8 3 -5 6 6 6 11 1 17 -2 13 -5z m-3640 -10 c-3 -3 -12 -4 -19 -1 -8 3 -5
6 6 6 11 1 17 -2 13 -5z m1848 -4 c4 -6 -31 -11 -97 -12 l-103 -2 105 -6 c79
-5 46 -7 -137 -8 -209 -2 -243 0 -243 13 0 12 31 15 198 18 108 1 214 3 234 5
20 1 40 -2 43 -8z m54 1 c17 -11 7 -45 -12 -39 -13 5 -23 48 -10 48 4 0 14 -4
22 -9z m1778 3 c-3 -3 -12 -4 -19 -1 -8 3 -5 6 6 6 11 1 17 -2 13 -5z m-7112
-26 c13 -5 9 -6 -15 -2 -19 4 -42 10 -50 15 -18 11 34 1 65 -13z m4771 -5
c-10 -10 -19 5 -10 18 6 11 8 11 12 0 2 -7 1 -15 -2 -18z m1514 12 c0 -8 -4
-15 -9 -15 -5 0 -14 7 -21 15 -10 13 -9 15 9 15 12 0 21 -6 21 -15z m867 9
c-3 -3 -12 -4 -19 -1 -8 3 -5 6 6 6 11 1 17 -2 13 -5z m-6290 -51 c-3 -10 -5
-2 -5 17 0 19 2 27 5 18 2 -10 2 -26 0 -35z m1081 40 c-181 -2 -475 -2 -655 0
-181 1 -33 2 327 2 360 0 508 -1 328 -2z m1625 0 c-7 -2 -21 -2 -30 0 -10 3
-4 5 12 5 17 0 24 -2 18 -5z m3672 -7 c28 -8 43 -15 35 -15 -8 0 -37 6 -65 13
-27 8 -43 15 -35 15 8 0 38 -6 65 -13z m-3612 -3 c-7 -2 -21 -2 -30 0 -10 3
-4 5 12 5 17 0 24 -2 18 -5z m-3576 -9 c-3 -3 -12 -4 -19 -1 -8 3 -5 6 6 6 11
1 17 -2 13 -5z m3626 -1 c-7 -2 -19 -2 -25 0 -7 3 -2 5 12 5 14 0 19 -2 13 -5z
m-3528 -24 c14 -6 9 -7 -15 -3 -19 4 -44 11 -55 15 -14 6 -9 7 15 3 19 -4 44
-11 55 -15z m1188 14 c-67 -2 -179 -2 -250 0 -70 1 -15 3 122 3 138 0 195 -2
128 -3z m190 0 c-7 -2 -21 -2 -30 0 -10 3 -4 5 12 5 17 0 24 -2 18 -5z m2210
0 c-7 -2 -21 -2 -30 0 -10 3 -4 5 12 5 17 0 24 -2 18 -5z m3584 1 c-3 -3 -12
-4 -19 -1 -8 3 -5 6 6 6 11 1 17 -2 13 -5z m-3524 -11 c-7 -2 -21 -2 -30 0
-10 3 -4 5 12 5 17 0 24 -2 18 -5z m-1516 -9 c19 -4 33 -14 36 -25 4 -13 14
-19 36 -19 l31 0 0 -58 0 -59 -227 -6 c-124 -4 -468 -7 -764 -7 l-537 0 -4 60
-3 60 28 0 c20 0 30 6 34 19 3 12 11 17 19 14 8 -3 20 0 27 6 9 7 124 12 348
13 184 2 471 4 639 6 168 1 320 0 337 -4z m1576 -1 c-7 -2 -21 -2 -30 0 -10 3
-4 5 12 5 17 0 24 -2 18 -5z m-3656 -9 c-3 -3 -12 -4 -19 -1 -8 3 -5 6 6 6 11
1 17 -2 13 -5z m3716 -1 c-7 -2 -21 -2 -30 0 -10 3 -4 5 12 5 17 0 24 -2 18
-5z m3524 1 c-3 -3 -12 -4 -19 -1 -8 3 -5 6 6 6 11 1 17 -2 13 -5z m-7142 -25
c14 -6 9 -7 -15 -3 -19 4 -44 11 -55 15 -14 6 -9 7 15 3 19 -4 44 -11 55 -15z
m3668 14 c-7 -2 -19 -2 -25 0 -7 3 -2 5 12 5 14 0 19 -2 13 -5z m3562 -7 c28
-8 43 -15 35 -15 -8 0 -37 6 -65 13 -27 8 -43 15 -35 15 8 0 38 -6 65 -13z
m-3502 -3 c-7 -2 -21 -2 -30 0 -10 3 -4 5 12 5 17 0 24 -2 18 -5z m60 -10 c-7
-2 -21 -2 -30 0 -10 3 -4 5 12 5 17 0 24 -2 18 -5z m-3736 -9 c-3 -3 -12 -4
-19 -1 -8 3 -5 6 6 6 11 1 17 -2 13 -5z m3796 -1 c-7 -2 -21 -2 -30 0 -10 3
-4 5 12 5 17 0 24 -2 18 -5z m3464 1 c-3 -3 -12 -4 -19 -1 -8 3 -5 6 6 6 11 1
17 -2 13 -5z m-7220 -10 c-3 -3 -12 -4 -19 -1 -8 3 -5 6 6 6 11 1 17 -2 13 -5z
m3848 -4 c27 -7 27 -8 5 -8 -14 0 -38 4 -55 8 -27 7 -27 8 -5 8 14 0 39 -4 55
-8z m3412 4 c-3 -3 -12 -4 -19 -1 -8 3 -5 6 6 6 11 1 17 -2 13 -5z m-7202 -14
c13 -5 14 -9 5 -9 -8 0 -24 4 -35 9 -13 5 -14 9 -5 9 8 0 24 -4 35 -9z m7242
4 c-3 -3 -12 -4 -19 -1 -8 3 -5 6 6 6 11 1 17 -2 13 -5z m-3374 -11 c-7 -2
-21 -2 -30 0 -10 3 -4 5 12 5 17 0 24 -2 18 -5z m3414 1 c-3 -3 -12 -4 -19 -1
-8 3 -5 6 6 6 11 1 17 -2 13 -5z m-7230 -10 c-3 -3 -12 -4 -19 -1 -8 3 -5 6 6
6 11 1 17 -2 13 -5z m3876 -1 c-7 -2 -21 -2 -30 0 -10 3 -4 5 12 5 17 0 24 -2
18 -5z m3427 -3 c20 -6 21 -8 5 -8 -11 0 -31 4 -45 8 -20 6 -21 8 -5 8 11 0
31 -4 45 -8z m-7263 -6 c-3 -3 -12 -4 -19 -1 -8 3 -5 6 6 6 11 1 17 -2 13 -5z
m3896 -1 c-7 -2 -21 -2 -30 0 -10 3 -4 5 12 5 17 0 24 -2 18 -5z m-3798 -24
c14 -6 9 -7 -15 -3 -19 4 -44 11 -55 15 -14 6 -9 7 15 3 19 -4 44 -11 55 -15z
m3848 14 c-7 -2 -19 -2 -25 0 -7 3 -2 5 12 5 14 0 19 -2 13 -5z m3374 1 c-3
-3 -12 -4 -19 -1 -8 3 -5 6 6 6 11 1 17 -2 13 -5z m-3314 -11 c-7 -2 -19 -2
-25 0 -7 3 -2 5 12 5 14 0 19 -2 13 -5z m3354 1 c-3 -3 -12 -4 -19 -1 -8 3 -5
6 6 6 11 1 17 -2 13 -5z m-3294 -11 c-7 -2 -21 -2 -30 0 -10 3 -4 5 12 5 17 0
24 -2 18 -5z m3334 1 c-3 -3 -12 -4 -19 -1 -8 3 -5 6 6 6 11 1 17 -2 13 -5z
m-7250 -10 c-3 -3 -12 -4 -19 -1 -8 3 -5 6 6 6 11 1 17 -2 13 -5z m3966 -1
c-7 -2 -19 -2 -25 0 -7 3 -2 5 12 5 14 0 19 -2 13 -5z m3324 1 c-3 -3 -12 -4
-19 -1 -8 3 -5 6 6 6 11 1 17 -2 13 -5z m-7250 -10 c-3 -3 -12 -4 -19 -1 -8 3
-5 6 6 6 11 1 17 -2 13 -5z m40 -10 c-3 -3 -12 -4 -19 -1 -8 3 -5 6 6 6 11 1
17 -2 13 -5z m2013 -34 c0 -8 62 -10 210 -8 l210 3 0 -263 0 -262 -22 5 c-36
8 -151 25 -170 25 -11 0 -18 -8 -18 -20 0 -20 -7 -20 -1340 -20 l-1340 0 0
165 c0 155 1 165 19 165 19 0 19 2 0 87 -10 48 -19 95 -19 105 0 17 41 18 883
20 485 2 1041 4 1235 6 252 2 352 0 352 -8z m-2485 -27 c-3 -15 -9 -55 -15
-87 -13 -80 -13 -96 5 -96 13 0 15 -25 15 -165 l0 -165 -144 0 c-111 0 -145 3
-148 13 -2 11 -22 10 -105 -3 l-103 -16 0 263 0 263 53 0 c28 0 58 4 64 8 7 4
96 9 198 11 l185 3 -5 -29z m-828 -270 c-2 -16 -4 -3 -4 27 0 30 2 43 4 28 2
-16 2 -40 0 -55z m10 -105 c-2 -13 -4 -3 -4 22 0 25 2 35 4 23 2 -13 2 -33 0
-45z m8140 -101 c-2 -23 -3 -1 -3 48 0 50 1 68 3 42 2 -26 2 -67 0 -90z
m-4157 78 c106 -19 120 -19 120 0 0 13 26 15 178 15 l179 0 6 -797 c4 -438 7
-1327 7 -1975 0 -1056 -2 -1178 -15 -1178 -17 0 -17 3 5 -124 5 -33 10 -66 10
-73 0 -10 -56 -13 -283 -13 l-284 0 -6 1187 c-7 1166 -9 2973 -4 2973 1 0 40
-7 87 -15z m-3973 -82 c-2 -16 -4 -5 -4 22 0 28 2 40 4 28 2 -13 2 -35 0 -50z
m3750 -185 c-2 -35 -3 -7 -3 62 0 69 1 97 3 63 2 -35 2 -91 0 -125z m-3740 75
c-2 -16 -4 -5 -4 22 0 28 2 40 4 28 2 -13 2 -35 0 -50z m803 -1051 c0 -615 3
-1362 7 -1660 l6 -542 -250 0 -250 0 -6 1133 c-4 622 -7 1367 -7 1655 0 512 0
522 20 522 10 0 54 -5 97 -12 69 -10 78 -9 87 5 9 15 32 17 153 17 l143 0 0
-1118z m7327 965 c-2 -23 -3 -1 -3 48 0 50 1 68 3 42 2 -26 2 -67 0 -90z
m-8120 -24 c-2 -16 -4 -5 -4 22 0 28 2 40 4 28 2 -13 2 -35 0 -50z m10 -110
c-2 -16 -4 -5 -4 22 0 28 2 40 4 28 2 -13 2 -35 0 -50z m8120 -66 c-2 -23 -3
-1 -3 48 0 50 1 68 3 42 2 -26 2 -67 0 -90z m-4390 -89 c-2 -35 -3 -7 -3 62 0
69 1 97 3 63 2 -35 2 -91 0 -125z m-3720 45 c-2 -16 -4 -5 -4 22 0 28 2 40 4
28 2 -13 2 -35 0 -50z m8120 -145 c-2 -24 -4 -5 -4 42 0 47 2 66 4 43 2 -24 2
-62 0 -85z m-8110 35 c-2 -16 -4 -5 -4 22 0 28 2 40 4 28 2 -13 2 -35 0 -50z
m10 -110 c-2 -16 -4 -5 -4 22 0 28 2 40 4 28 2 -13 2 -35 0 -50z m3710 -125
c-2 -35 -3 -7 -3 62 0 69 1 97 3 63 2 -35 2 -91 0 -125z m4400 0 c-2 -24 -4
-5 -4 42 0 47 2 66 4 43 2 -24 2 -62 0 -85z m-8100 20 c-2 -13 -4 -3 -4 22 0
25 2 35 4 23 2 -13 2 -33 0 -45z m10 -105 c-2 -16 -4 -5 -4 22 0 28 2 40 4 28
2 -13 2 -35 0 -50z m8100 -115 c-2 -24 -4 -5 -4 42 0 47 2 66 4 43 2 -24 2
-62 0 -85z m-4400 -100 c-2 -35 -3 -7 -3 62 0 69 1 97 3 63 2 -35 2 -91 0
-125z m-3690 105 c-2 -16 -4 -5 -4 22 0 28 2 40 4 28 2 -13 2 -35 0 -50z m10
-110 c-2 -16 -4 -5 -4 22 0 28 2 40 4 28 2 -13 2 -35 0 -50z m8090 -95 c-2
-24 -4 -5 -4 42 0 47 2 66 4 43 2 -24 2 -62 0 -85z m-8080 -15 c-2 -16 -4 -5
-4 22 0 28 2 40 4 28 2 -13 2 -35 0 -50z m3680 -185 c-2 -35 -3 -7 -3 62 0 69
1 97 3 63 2 -35 2 -91 0 -125z m-3670 75 c-2 -16 -4 -5 -4 22 0 28 2 40 4 28
2 -13 2 -35 0 -50z m8080 -76 c-2 -23 -3 -1 -3 48 0 50 1 68 3 42 2 -26 2 -67
0 -90z m-8070 -34 c-2 -16 -4 -5 -4 22 0 28 2 40 4 28 2 -13 2 -35 0 -50z
m8080 -155 c-2 -24 -4 -5 -4 42 0 47 2 66 4 43 2 -24 2 -62 0 -85z m-8070 45
c-2 -16 -4 -5 -4 22 0 28 2 40 4 28 2 -13 2 -35 0 -50z m3660 -155 c-2 -35 -3
-7 -3 62 0 69 1 97 3 63 2 -35 2 -91 0 -125z m-3650 50 c-2 -13 -4 -3 -4 22 0
25 2 35 4 23 2 -13 2 -33 0 -45z m8070 -140 c-2 -24 -4 -5 -4 42 0 47 2 66 4
43 2 -24 2 -62 0 -85z m-8060 35 c-2 -16 -4 -5 -4 22 0 28 2 40 4 28 2 -13 2
-35 0 -50z m10 -110 c-2 -16 -4 -5 -4 22 0 28 2 40 4 28 2 -13 2 -35 0 -50z
m3640 -135 c-2 -35 -3 -7 -3 62 0 69 1 97 3 63 2 -35 2 -91 0 -125z m4420 10
c-2 -24 -4 -5 -4 42 0 47 2 66 4 43 2 -24 2 -62 0 -85z m-8050 15 c-2 -16 -4
-5 -4 22 0 28 2 40 4 28 2 -13 2 -35 0 -50z m10 -110 c-2 -16 -4 -5 -4 22 0
28 2 40 4 28 2 -13 2 -35 0 -50z m8050 -105 c-2 -24 -4 -5 -4 42 0 47 2 66 4
43 2 -24 2 -62 0 -85z m-4420 -110 c-2 -35 -3 -7 -3 62 0 69 1 97 3 63 2 -35
2 -91 0 -125z m-3620 105 c-2 -16 -4 -5 -4 22 0 28 2 40 4 28 2 -13 2 -35 0
-50z m10 -110 c-2 -16 -4 -5 -4 22 0 28 2 40 4 28 2 -13 2 -35 0 -50z m8040
-86 c-2 -23 -3 -1 -3 48 0 50 1 68 3 42 2 -26 2 -67 0 -90z m-8030 -24 c-2
-16 -4 -5 -4 22 0 28 2 40 4 28 2 -13 2 -35 0 -50z m3610 -185 c-2 -35 -3 -7
-3 62 0 69 1 97 3 63 2 -35 2 -91 0 -125z m-3600 75 c-2 -16 -4 -5 -4 22 0 28
2 40 4 28 2 -13 2 -35 0 -50z m8030 -55 c-2 -24 -4 -5 -4 42 0 47 2 66 4 43 2
-24 2 -62 0 -85z m-8020 -50 c-2 -13 -4 -3 -4 22 0 25 2 35 4 23 2 -13 2 -33
0 -45z m8030 -150 c-2 -24 -4 -5 -4 42 0 47 2 66 4 43 2 -24 2 -62 0 -85z
m-8020 45 c-2 -16 -4 -5 -4 22 0 28 2 40 4 28 2 -13 2 -35 0 -50z m3590 -165
c-2 -35 -3 -7 -3 62 0 69 1 97 3 63 2 -35 2 -91 0 -125z m-3580 55 c-2 -16 -4
-5 -4 22 0 28 2 40 4 28 2 -13 2 -35 0 -50z m8020 -135 c-2 -24 -4 -5 -4 42 0
47 2 66 4 43 2 -24 2 -62 0 -85z m-8010 25 c-2 -16 -4 -5 -4 22 0 28 2 40 4
28 2 -13 2 -35 0 -50z m10 -110 c-2 -16 -4 -5 -4 22 0 28 2 40 4 28 2 -13 2
-35 0 -50z m3570 -135 c-2 -35 -3 -7 -3 62 0 69 1 97 3 63 2 -35 2 -91 0 -125z
m4440 20 c-2 -24 -4 -5 -4 42 0 47 2 66 4 43 2 -24 2 -62 0 -85z m-8000 5 c-2
-16 -4 -5 -4 22 0 28 2 40 4 28 2 -13 2 -35 0 -50z m8010 -205 c-2 -24 -4 -5
-4 42 0 47 2 66 4 43 2 -24 2 -62 0 -85z m-4440 -120 c-2 -35 -3 -7 -3 62 0
69 1 97 3 63 2 -35 2 -91 0 -125z m-3717 105 l-154 -4 144 -96 c130 -85 213
-147 135 -98 -101 62 -285 189 -285 197 0 4 71 7 158 6 l157 -2 -155 -3z
m8167 -175 c-2 -24 -4 -5 -4 42 0 47 2 66 4 43 2 -24 2 -62 0 -85z m-7749
-209 c125 -83 232 -156 237 -162 15 -16 -26 10 -265 170 -118 79 -211 143
-207 143 4 0 110 -68 235 -151z m7759 9 c-2 -24 -4 -7 -4 37 0 44 2 63 4 43 2
-21 2 -57 0 -80z m-7326 -300 l24 -20 -31 17 c-17 10 -41 26 -55 37 l-24 20
31 -17 c17 -10 41 -26 55 -37z m2859 -28 c-20 -13 -103 -13 -95 0 3 6 30 10
58 10 37 0 48 -3 37 -10z m4428 3 c-26 -2 -71 -2 -100 0 -29 2 -8 3 47 3 55 0
79 -1 53 -3z m-7988 -13 c0 -11 -113 -11 -230 0 -64 6 -53 7 78 8 96 1 152 -2
152 -8z m3688 -7 c-21 -2 -55 -2 -75 0 -21 2 -4 4 37 4 41 0 58 -2 38 -4z
m3115 0 c-13 -2 -35 -2 -50 0 -16 2 -5 4 22 4 28 0 40 -2 28 -4z m-2935 -10
c-21 -2 -57 -2 -80 0 -24 2 -7 4 37 4 44 0 63 -2 43 -4z m3060 0 c-16 -2 -40
-2 -55 0 -16 2 -3 4 27 4 30 0 43 -2 28 -4z m-6555 -10 c-23 -2 -64 -2 -90 0
-26 2 -7 3 42 3 50 0 71 -1 48 -3z m3665 0 c-21 -2 -55 -2 -75 0 -21 2 -4 4
37 4 41 0 58 -2 38 -4z m3010 0 c-16 -2 -40 -2 -55 0 -16 2 -3 4 27 4 30 0 43
-2 28 -4z m-6475 -10 c-23 -2 -64 -2 -90 0 -26 2 -7 3 42 3 50 0 71 -1 48 -3z
m3635 0 c-21 -2 -55 -2 -75 0 -21 2 -4 4 37 4 41 0 58 -2 38 -4z m2960 0 c-16
-2 -40 -2 -55 0 -16 2 -3 4 27 4 30 0 43 -2 28 -4z m-6455 -10 c-13 -2 -33 -2
-45 0 -13 2 -3 4 22 4 25 0 35 -2 23 -4z m95 0 c-10 -2 -26 -2 -35 0 -10 3 -2
5 17 5 19 0 27 -2 18 -5z m3570 0 c-21 -2 -55 -2 -75 0 -21 2 -4 4 37 4 41 0
58 -2 38 -4z m2910 0 c-16 -2 -40 -2 -55 0 -16 2 -3 4 27 4 30 0 43 -2 28 -4z
m-6305 -10 c-23 -2 -64 -2 -90 0 -26 2 -7 3 42 3 50 0 71 -1 48 -3z m3565 0
c-21 -2 -55 -2 -75 0 -21 2 -4 4 37 4 41 0 58 -2 38 -4z m2860 0 c-16 -2 -40
-2 -55 0 -16 2 -3 4 27 4 30 0 43 -2 28 -4z m-6215 -10 c-23 -2 -64 -2 -90 0
-26 2 -7 3 42 3 50 0 71 -1 48 -3z m3525 0 c-21 -2 -55 -2 -75 0 -21 2 -4 4
37 4 41 0 58 -2 38 -4z m2810 0 c-16 -2 -40 -2 -55 0 -16 2 -3 4 27 4 30 0 43
-2 28 -4z m-6135 -10 c-23 -2 -64 -2 -90 0 -26 2 -7 3 42 3 50 0 71 -1 48 -3z
m4057 -7 c0 -13 -52 -15 -345 -15 -301 -1 -345 1 -345 14 0 13 44 15 345 15
293 0 345 -2 345 -14z m2198 7 c-16 -2 -40 -2 -55 0 -16 2 -3 4 27 4 30 0 43
-2 28 -4z m-6045 -10 c-23 -2 -64 -2 -90 0 -26 2 -7 3 42 3 50 0 71 -1 48 -3z
m6165 0 c-16 -2 -40 -2 -55 0 -16 2 -3 4 27 4 30 0 43 -2 28 -4z m-5965 -10
c-23 -2 -64 -2 -90 0 -26 2 -7 3 42 3 50 0 71 -1 48 -3z m6090 0 c-13 -2 -33
-2 -45 0 -13 2 -3 4 22 4 25 0 35 -2 23 -4z m-5880 -10 c-23 -2 -64 -2 -90 0
-26 2 -7 3 42 3 50 0 71 -1 48 -3z m5995 0 c-16 -2 -40 -2 -55 0 -16 2 -3 4
27 4 30 0 43 -2 28 -4z m-8070 -20 c-42 -2 -114 -2 -160 0 -46 1 -11 3 77 3
88 0 125 -2 83 -3z m2410 0 c-15 -2 -42 -2 -60 0 -18 2 -6 4 27 4 33 0 48 -2
33 -4z m2872 -16 c0 -7 -6 -22 -14 -32 -14 -19 -15 -19 -35 -1 -32 29 -27 46
14 46 22 0 35 -5 35 -13z m164 -9 c17 -64 -4 -158 -35 -158 -25 0 -39 36 -39
100 0 66 7 80 40 80 20 0 29 -6 34 -22z m2416 -103 c0 -93 -3 -125 -12 -125
-11 0 -46 8 -165 35 -18 4 -23 1 -23 -13 0 -18 -15 -19 -247 -25 -137 -4 -312
-7 -390 -7 l-143 0 0 25 c0 16 6 25 15 25 18 0 19 -11 -5 105 -11 53 -20 99
-20 101 0 2 223 4 495 4 l495 0 0 -125z m-7940 2 c74 -49 137 -91 140 -94 21
-22 -272 166 -295 190 -15 16 7 2 155 -96z m2424 66 c9 -18 14 -33 12 -33 -6
0 -36 55 -36 66 0 11 5 3 24 -33z m2576 -8 c0 -45 0 -45 -35 -45 l-36 0 31 45
c17 25 33 45 35 45 3 0 5 -20 5 -45z m341 -46 c30 -30 22 -64 -16 -64 -26 0
-30 4 -33 28 -7 57 13 72 49 36z m-2871 -29 c11 -22 18 -40 15 -40 -2 0 -14
18 -25 40 -11 22 -18 40 -15 40 2 0 14 -18 25 -40z m5517 3 c-3 -10 -5 -4 -5
12 0 17 2 24 5 18 2 -7 2 -21 0 -30z m10 -70 c-3 -10 -5 -2 -5 17 0 19 2 27 5
18 2 -10 2 -26 0 -35z m-5489 -8 c-3 -3 -9 2 -12 12 -6 14 -5 15 5 6 7 -7 10
-15 7 -18z m5499 -52 c-3 -10 -5 -4 -5 12 0 17 2 24 5 18 2 -7 2 -21 0 -30z
m-7352 -291 c-4 -4 -475 306 -475 312 0 3 108 -65 239 -152 132 -86 238 -158
236 -160z m7293 -303 l3 -596 -23 -7 c-13 -3 -60 -6 -105 -6 -82 0 -82 0 -85
-27 l-3 -28 -387 -3 c-365 -2 -388 -1 -388 15 0 20 17 135 25 171 4 15 1 22
-10 22 -13 0 -15 62 -15 525 l0 525 389 0 c257 0 390 -3 393 -10 2 -7 32 -6
88 4 47 8 92 13 100 12 13 -1 15 -76 18 -597z m69 524 c-3 -10 -5 -2 -5 17 0
19 2 27 5 18 2 -10 2 -26 0 -35z m10 -60 c-3 -10 -5 -4 -5 12 0 17 2 24 5 18
2 -7 2 -21 0 -30z m10 -70 c-3 -10 -5 -4 -5 12 0 17 2 24 5 18 2 -7 2 -21 0
-30z m-7167 1 c0 -10 -14 -14 -49 -14 -49 0 -79 15 -44 22 50 9 93 5 93 -8z
m7177 -71 c-3 -10 -5 -2 -5 17 0 19 2 27 5 18 2 -10 2 -26 0 -35z m-7177 -14
l0 -51 -25 16 c-13 9 -27 16 -30 16 -3 0 -5 -22 -5 -50 0 -49 -1 -50 -30 -50
-16 0 -30 -4 -30 -10 0 -5 -4 -10 -10 -10 -5 0 -10 17 -10 38 0 21 -6 44 -12
51 -10 11 -10 13 0 7 6 -4 12 -3 12 2 0 6 9 8 20 5 18 -5 19 -2 14 26 -10 50
-1 61 56 61 l50 0 0 -51z m7187 -46 c-3 -10 -5 -4 -5 12 0 17 2 24 5 18 2 -7
2 -21 0 -30z m-7187 -45 c0 -21 -5 -28 -20 -28 -17 0 -20 7 -20 40 0 38 1 39
20 28 12 -8 20 -24 20 -40z m7197 -25 c-3 -10 -5 -2 -5 17 0 19 2 27 5 18 2
-10 2 -26 0 -35z m-7147 12 c10 -12 10 -15 -4 -15 -9 0 -16 7 -16 15 0 8 2 15
4 15 2 0 9 -7 16 -15z m7157 -72 c-3 -10 -5 -4 -5 12 0 17 2 24 5 18 2 -7 2
-21 0 -30z m-8009 20 c-43 -2 -113 -2 -155 0 -43 1 -8 3 77 3 85 0 120 -2 78
-3z m602 -140 c0 -71 3 -158 7 -195 l6 -68 -151 0 c-90 0 -152 4 -154 10 -2 6
-37 4 -97 -5 -52 -9 -95 -14 -97 -12 -6 6 -17 366 -11 381 6 14 36 16 252 16
l245 0 0 -127z m-810 62 c0 -5 -5 -3 -10 5 -5 8 -10 20 -10 25 0 6 5 3 10 -5
5 -8 10 -19 10 -25z m8227 -12 c-3 -10 -5 -4 -5 12 0 17 2 24 5 18 2 -7 2 -21
0 -30z m-8198 -58 c0 -5 -6 1 -14 15 -8 14 -14 30 -14 35 0 6 6 -1 14 -15 8
-14 14 -29 14 -35z m8208 -12 c-3 -10 -5 -2 -5 17 0 19 2 27 5 18 2 -10 2 -26
0 -35z m-8178 -58 c0 -5 -6 1 -14 15 -8 14 -14 30 -14 35 0 6 6 -1 14 -15 8
-14 14 -29 14 -35z m8188 -2 c-3 -10 -5 -4 -5 12 0 17 2 24 5 18 2 -7 2 -21 0
-30z m-8158 -68 c0 -5 -6 1 -14 15 -8 14 -14 30 -14 35 0 6 6 -1 14 -15 8 -14
14 -29 14 -35z m8168 -2 c-3 -10 -5 -2 -5 17 0 19 2 27 5 18 2 -10 2 -26 0
-35z m-8138 -68 c0 -5 -6 1 -14 15 -8 14 -14 30 -14 35 0 6 6 -1 14 -15 8 -14
14 -29 14 -35z m8148 8 c-3 -10 -5 -4 -5 12 0 17 2 24 5 18 2 -7 2 -21 0 -30z
m-8118 -78 c0 -5 -6 1 -14 15 -8 14 -14 30 -14 35 0 6 6 -1 14 -15 8 -14 14
-29 14 -35z m8128 8 c-3 -10 -5 -4 -5 12 0 17 2 24 5 18 2 -7 2 -21 0 -30z
m-7459 -105 c3 -103 2 -108 -18 -108 -11 0 -20 -1 -20 -3 0 -2 9 -43 20 -93
11 -49 20 -95 20 -101 0 -9 -22 -13 -79 -13 -68 0 -78 2 -78 18 0 43 3 42
-173 42 l-170 0 0 180 c0 138 3 180 13 180 6 -1 52 -9 101 -19 86 -18 89 -18
93 0 4 16 17 19 92 22 47 2 111 3 141 3 l55 -1 3 -107z m1492 92 c0 -11 4 -20
9 -20 9 0 128 23 178 35 l22 5 0 -215 1 -215 -845 0 c-465 0 -845 3 -845 8 0
4 7 48 15 97 18 111 18 105 0 105 -12 0 -15 19 -15 110 l0 110 740 0 c733 0
740 0 740 -20z m-2131 -65 c0 -5 -6 1 -14 15 -8 14 -14 30 -14 35 0 6 6 -1 14
-15 8 -14 14 -29 14 -35z m8108 8 c-3 -10 -5 -2 -5 17 0 19 2 27 5 18 2 -10 2
-26 0 -35z m-8078 -78 c0 -5 -6 1 -14 15 -8 14 -14 30 -14 35 0 6 6 -1 14 -15
8 -14 14 -29 14 -35z m8088 18 c-3 -10 -5 -4 -5 12 0 17 2 24 5 18 2 -7 2 -21
0 -30z m-8058 -88 c0 -5 -6 1 -14 15 -8 14 -14 30 -14 35 0 6 6 -1 14 -15 8
-14 14 -29 14 -35z m2340 0 c0 -5 -6 1 -14 15 -8 14 -14 30 -14 35 0 6 6 -1
14 -15 8 -14 14 -29 14 -35z m5728 18 c-3 -10 -5 -4 -5 12 0 17 2 24 5 18 2
-7 2 -21 0 -30z m-8038 -88 c0 -5 -6 1 -14 15 -8 14 -14 30 -14 35 0 6 6 -1
14 -15 8 -14 14 -29 14 -35z m2350 -20 c0 -5 -8 6 -19 25 -11 19 -19 40 -19
45 0 6 8 -6 19 -25 11 -19 19 -39 19 -45z m-2329 -30 c0 -5 -5 -3 -10 5 -5 8
-10 20 -10 25 0 6 5 3 10 -5 5 -8 10 -19 10 -25z m2359 -40 c0 -5 -6 1 -14 15
-8 14 -14 30 -14 35 0 6 6 -1 14 -15 8 -14 14 -29 14 -35z m5369 8 c-10 -2
-26 -2 -35 0 -10 3 -2 5 17 5 19 0 27 -2 18 -5z m70 -10 c-10 -2 -26 -2 -35 0
-10 3 -2 5 17 5 19 0 27 -2 18 -5z m80 -10 c-10 -2 -26 -2 -35 0 -10 3 -2 5
17 5 19 0 27 -2 18 -5z m70 -10 c-10 -2 -26 -2 -35 0 -10 3 -2 5 17 5 19 0 27
-2 18 -5z m-4380 -10 c-10 -2 -26 -2 -35 0 -10 3 -2 5 17 5 19 0 27 -2 18 -5z
m140 0 c-16 -2 -40 -2 -55 0 -16 2 -3 4 27 4 30 0 43 -2 28 -4z m4310 0 c-10
-2 -26 -2 -35 0 -10 3 -2 5 17 5 19 0 27 -2 18 -5z m-7990 -10 c-10 -2 -26 -2
-35 0 -10 3 -2 5 17 5 19 0 27 -2 18 -5z m125 0 c-13 -2 -35 -2 -50 0 -16 2
-5 4 22 4 28 0 40 -2 28 -4z m3716 1 c84 -17 3 -24 -284 -24 -200 0 -315 4
-315 10 0 6 94 11 248 13 136 1 263 3 283 5 20 1 51 -1 68 -4z m-3554 -13 c25
-10 -468 -21 -550 -12 -37 4 37 8 190 11 138 3 270 6 295 7 25 1 54 -2 65 -6z
m6138 -8 c-7 -2 -21 -2 -30 0 -10 3 -4 5 12 5 17 0 24 -2 18 -5z m50 -10 c-7
-2 -19 -2 -25 0 -7 3 -2 5 12 5 14 0 19 -2 13 -5z m-6415 -10 c-21 -2 -57 -2
-80 0 -24 2 -7 4 37 4 44 0 63 -2 43 -4z m6465 0 c-7 -2 -19 -2 -25 0 -7 3 -2
5 12 5 14 0 19 -2 13 -5z m-6295 -10 c-21 -2 -57 -2 -80 0 -24 2 -7 4 37 4 44
0 63 -2 43 -4z m6355 0 c-7 -2 -21 -2 -30 0 -10 3 -4 5 12 5 17 0 24 -2 18 -5z
m-6170 -10 c-13 -2 -33 -2 -45 0 -13 2 -3 4 22 4 25 0 35 -2 23 -4z m6220 0
c-7 -2 -19 -2 -25 0 -7 3 -2 5 12 5 14 0 19 -2 13 -5z m-6065 -10 c-21 -2 -55
-2 -75 0 -21 2 -4 4 37 4 41 0 58 -2 38 -4z m6115 0 c-7 -2 -19 -2 -25 0 -7 3
-2 5 12 5 14 0 19 -2 13 -5z m-5945 -10 c-21 -2 -55 -2 -75 0 -21 2 -4 4 37 4
41 0 58 -2 38 -4z m6005 0 c-7 -2 -21 -2 -30 0 -10 3 -4 5 12 5 17 0 24 -2 18
-5z m-5825 -10 c-21 -2 -57 -2 -80 0 -24 2 -7 4 37 4 44 0 63 -2 43 -4z m5875
0 c-7 -2 -19 -2 -25 0 -7 3 -2 5 12 5 14 0 19 -2 13 -5z m-5705 -10 c-21 -2
-55 -2 -75 0 -21 2 -4 4 37 4 41 0 58 -2 38 -4z m5755 0 c-7 -2 -19 -2 -25 0
-7 3 -2 5 12 5 14 0 19 -2 13 -5z m-5585 -10 c-21 -2 -55 -2 -75 0 -21 2 -4 4
37 4 41 0 58 -2 38 -4z m5645 0 c-7 -2 -21 -2 -30 0 -10 3 -4 5 12 5 17 0 24
-2 18 -5z m-5475 -10 c-21 -2 -55 -2 -75 0 -21 2 -4 4 37 4 41 0 58 -2 38 -4z
m5525 0 c-7 -2 -19 -2 -25 0 -7 3 -2 5 12 5 14 0 19 -2 13 -5z m-5355 -10
c-21 -2 -55 -2 -75 0 -21 2 -4 4 37 4 41 0 58 -2 38 -4z m5405 0 c-7 -2 -19
-2 -25 0 -7 3 -2 5 12 5 14 0 19 -2 13 -5z m-5225 -10 c-21 -2 -55 -2 -75 0
-21 2 -4 4 37 4 41 0 58 -2 38 -4z m5285 0 c-7 -2 -21 -2 -30 0 -10 3 -4 5 12
5 17 0 24 -2 18 -5z m-5115 -10 c-21 -2 -57 -2 -80 0 -24 2 -7 4 37 4 44 0 63
-2 43 -4z m5165 0 c-7 -2 -19 -2 -25 0 -7 3 -2 5 12 5 14 0 19 -2 13 -5z
m-4995 -10 c-21 -2 -55 -2 -75 0 -21 2 -4 4 37 4 41 0 58 -2 38 -4z m5045 0
c-7 -2 -19 -2 -25 0 -7 3 -2 5 12 5 14 0 19 -2 13 -5z m-4875 -10 c-21 -2 -55
-2 -75 0 -21 2 -4 4 37 4 41 0 58 -2 38 -4z m4935 0 c-7 -2 -21 -2 -30 0 -10
3 -4 5 12 5 17 0 24 -2 18 -5z m-4765 -10 c-21 -2 -55 -2 -75 0 -21 2 -4 4 37
4 41 0 58 -2 38 -4z m4815 0 c-7 -2 -19 -2 -25 0 -7 3 -2 5 12 5 14 0 19 -2
13 -5z m-4635 -10 c-21 -2 -57 -2 -80 0 -24 2 -7 4 37 4 44 0 63 -2 43 -4z
m4685 0 c-7 -2 -19 -2 -25 0 -7 3 -2 5 12 5 14 0 19 -2 13 -5z m-4515 -10
c-21 -2 -55 -2 -75 0 -21 2 -4 4 37 4 41 0 58 -2 38 -4z m4575 0 c-7 -2 -21
-2 -30 0 -10 3 -4 5 12 5 17 0 24 -2 18 -5z m-4405 -10 c-21 -2 -55 -2 -75 0
-21 2 -4 4 37 4 41 0 58 -2 38 -4z m4455 0 c-7 -2 -19 -2 -25 0 -7 3 -2 5 12
5 14 0 19 -2 13 -5z m-4285 -10 c-21 -2 -55 -2 -75 0 -21 2 -4 4 37 4 41 0 58
-2 38 -4z m4335 0 c-7 -2 -19 -2 -25 0 -7 3 -2 5 12 5 14 0 19 -2 13 -5z
m-4155 -10 c-15 -2 -42 -2 -60 0 -18 2 -6 4 27 4 33 0 48 -2 33 -4z m4215 0
c-7 -2 -21 -2 -30 0 -10 3 -4 5 12 5 17 0 24 -2 18 -5z m-4056 -10 c-20 -2
-52 -2 -70 0 -17 2 0 4 38 4 39 0 53 -2 32 -4z m181 -10 c-21 -2 -55 -2 -75 0
-21 2 -4 4 37 4 41 0 58 -2 38 -4z m3975 0 c-7 -2 -19 -2 -25 0 -7 3 -2 5 12
5 14 0 19 -2 13 -5z m-3816 -10 c-20 -2 -52 -2 -70 0 -17 2 0 4 38 4 39 0 53
-2 32 -4z m3866 0 c-7 -2 -19 -2 -25 0 -7 3 -2 5 12 5 14 0 19 -2 13 -5z
m-3686 -10 c-20 -2 -52 -2 -70 0 -17 2 0 4 38 4 39 0 53 -2 32 -4z m3746 0
c-7 -2 -21 -2 -30 0 -10 3 -4 5 12 5 17 0 24 -2 18 -5z m-3565 -10 c-21 -2
-57 -2 -80 0 -24 2 -7 4 37 4 44 0 63 -2 43 -4z m3615 0 c-7 -2 -19 -2 -25 0
-7 3 -2 5 12 5 14 0 19 -2 13 -5z m-3445 -10 c-21 -2 -57 -2 -80 0 -24 2 -7 4
37 4 44 0 63 -2 43 -4z m3537 -3 c27 -7 27 -8 5 -8 -14 0 -38 4 -55 8 -27 7
-27 8 -5 8 14 0 39 -4 55 -8z m-3367 -7 c-21 -2 -55 -2 -75 0 -21 2 -4 4 37 4
41 0 58 -2 38 -4z m170 -10 c-21 -2 -55 -2 -75 0 -21 2 -4 4 37 4 41 0 58 -2
38 -4z m170 -10 c-21 -2 -55 -2 -75 0 -21 2 -4 4 37 4 41 0 58 -2 38 -4z
m-4578 -23 c0 -6 -93 -11 -255 -12 -140 -1 -276 -2 -302 -3 -28 0 -48 5 -50
13 -4 9 61 12 301 12 197 0 306 -4 306 -10z m3275 0 c-165 -4 -307 -3 -315 1
-8 5 127 8 300 7 l315 -2 -300 -6z m-107 -17 c-16 -2 -40 -2 -55 0 -16 2 -3 4
27 4 30 0 43 -2 28 -4z m-3580 -10 c-16 -2 -40 -2 -55 0 -16 2 -3 4 27 4 30 0
43 -2 28 -4z m3700 0 c-16 -2 -40 -2 -55 0 -16 2 -3 4 27 4 30 0 43 -2 28 -4z
m-3585 -10 c-13 -2 -35 -2 -50 0 -16 2 -5 4 22 4 28 0 40 -2 28 -4z"/>
<path d="M19280 18538 c-72 -28 -140 -98 -163 -168 -37 -113 -14 -215 67 -296
91 -90 211 -110 324 -53 181 90 216 316 69 454 -88 83 -189 104 -297 63z m195
-15 c109 -37 183 -155 172 -273 -20 -221 -291 -321 -450 -166 -98 95 -104 259
-14 362 77 88 181 115 292 77z"/>
<path d="M19352 18385 c-18 -36 -32 -67 -32 -69 0 -2 19 -6 41 -10 90 -14 138
-107 84 -161 -28 -29 -61 -32 -93 -9 -12 8 -27 12 -32 9 -18 -11 -10 -35 15
-47 37 -17 96 4 134 47 61 70 33 162 -60 199 -30 12 -39 21 -35 32 3 9 6 18 6
20 0 2 24 4 53 4 48 0 55 3 65 25 l12 25 -63 0 -63 0 -32 -65z"/>
<path d="M18464 17075 l-20 -95 39 0 c38 0 39 1 34 30 -4 16 -9 59 -13 95 -4
36 -10 65 -14 65 -4 0 -16 -43 -26 -95z"/>
<path d="M19722 17048 c-19 -19 -14 -30 7 -17 43 28 74 -34 31 -64 -20 -14
-20 -14 4 -25 30 -13 41 -44 26 -72 -10 -18 -17 -21 -51 -15 -25 4 -39 3 -39
-4 0 -20 78 -13 100 9 24 24 26 67 5 90 -12 13 -13 22 -3 47 9 25 9 35 -1 47
-16 19 -62 21 -79 4z"/>
<path d="M19887 17042 c-22 -24 -21 -34 3 -65 l21 -26 -21 -21 c-40 -40 -15
-90 45 -90 25 0 39 6 50 24 15 22 15 27 1 54 -9 17 -21 32 -28 34 -8 3 -4 12
10 26 24 24 28 52 10 70 -18 18 -73 14 -91 -6z m78 -12 c6 -19 -9 -60 -22 -60
-26 0 -54 56 -36 73 14 15 52 6 58 -13z m-16 -114 c31 -33 24 -61 -14 -61 -26
0 -30 4 -33 28 -4 32 3 57 16 57 5 0 19 -11 31 -24z"/>
<path d="M20054 17039 c-12 -14 -19 -40 -22 -82 -3 -52 0 -66 18 -89 55 -71
133 5 115 112 -12 71 -71 103 -111 59z m76 -31 c11 -38 7 -108 -7 -144 -8 -20
-41 -17 -53 5 -13 25 -13 122 0 155 16 42 47 34 60 -16z"/>
<path d="M20245 17029 c-48 -43 -62 -97 -38 -147 15 -31 24 -37 55 -40 28 -2
40 2 52 20 40 57 3 128 -59 112 l-27 -7 16 31 c9 18 29 38 44 46 19 11 22 15
10 16 -10 0 -33 -14 -53 -31z m43 -81 c18 -18 15 -87 -4 -95 -37 -14 -70 39
-53 85 9 24 38 29 57 10z"/>
<path d="M16088 16916 c-29 -14 -34 -50 -13 -82 15 -23 15 -27 1 -43 -19 -21
-21 -62 -4 -79 7 -7 27 -12 44 -12 60 0 84 53 43 96 l-21 22 22 30 c18 24 20
34 11 50 -13 24 -53 33 -83 18z m62 -40 c0 -13 -6 -29 -14 -35 -12 -10 -19 -8
-35 8 -26 26 -27 47 -4 60 25 13 53 -4 53 -33z m-11 -100 c30 -32 24 -60 -13
-64 -31 -4 -46 10 -46 44 0 19 17 44 30 44 4 0 17 -11 29 -24z"/>
<path d="M16249 16901 c-25 -25 -29 -37 -29 -83 0 -84 32 -127 84 -114 51 13
72 109 38 175 -25 51 -57 58 -93 22z m70 -22 c23 -66 5 -169 -30 -169 -25 0
-39 36 -39 100 0 27 4 60 10 74 14 37 45 34 59 -5z"/>
<path d="M15752 16913 c-7 -2 -17 -14 -24 -26 -11 -22 -11 -22 10 -4 13 12 28
16 41 12 32 -10 31 -51 -1 -76 -21 -16 -21 -16 5 -23 32 -8 46 -48 26 -72 -10
-12 -23 -14 -52 -10 -29 5 -38 3 -34 -6 6 -19 74 -14 97 7 25 22 26 72 3 97
-13 14 -14 21 -5 30 15 15 15 51 0 66 -12 12 -43 15 -66 5z"/>
<path d="M15911 16894 c-58 -74 -19 -218 53 -200 39 10 59 58 54 129 -4 47 -9
64 -27 78 -32 26 -56 24 -80 -7z m70 -5 c16 -31 8 -167 -11 -179 -22 -14 -34
-7 -47 31 -14 37 -8 136 9 157 16 18 36 15 49 -9z"/>
<path d="M21201 11970 c0 -35 2 -41 10 -27 8 14 25 17 111 17 87 0 99 2 94 16
-3 9 -6 20 -6 26 0 5 -7 2 -16 -6 -24 -24 -169 -23 -183 2 -8 13 -10 7 -10
-28z"/>
<path d="M21260 11835 c0 -43 -1 -45 -30 -45 -20 0 -30 -5 -30 -15 0 -10 10
-15 30 -15 20 0 30 -5 30 -15 0 -8 5 -15 10 -15 6 0 10 7 10 15 0 12 15 15 75
15 41 0 75 4 75 8 0 10 -146 112 -160 112 -5 0 -10 -20 -10 -45z m101 -26 l24
-19 -52 0 -53 0 0 36 0 35 28 -17 c16 -9 39 -25 53 -35z"/>
<path d="M21263 11702 c-63 -19 -82 -76 -37 -111 20 -16 41 -21 86 -21 52 0
63 3 89 29 23 24 27 34 21 53 -16 44 -95 68 -159 50z m132 -38 c21 -9 19 -41
-4 -54 -11 -5 -47 -10 -81 -10 -70 0 -100 12 -100 40 0 13 9 22 28 26 15 3 32
7 37 10 12 4 99 -4 120 -12z"/>
<path d="M21241 11527 c-33 -17 -45 -39 -37 -71 13 -51 109 -72 175 -38 51 25
58 57 22 93 -25 25 -37 29 -83 29 -29 0 -64 -6 -77 -13z m143 -27 c37 -14 34
-45 -5 -59 -66 -23 -169 -5 -169 30 0 11 10 24 23 29 30 12 120 12 151 0z"/>
<path d="M16040 15538 c-72 -28 -140 -98 -163 -168 -37 -113 -14 -215 67 -296
91 -90 211 -110 324 -53 181 90 216 316 69 454 -88 83 -189 104 -297 63z m195
-15 c68 -23 137 -93 160 -162 57 -172 -68 -351 -246 -351 -157 0 -269 109
-269 263 0 72 18 122 63 173 77 88 181 115 292 77z"/>
<path d="M16140 15459 c-24 -10 -59 -46 -60 -62 0 -5 12 1 26 12 15 12 37 21
49 21 27 0 55 -29 55 -57 0 -26 -34 -70 -62 -79 -19 -6 -17 -8 18 -20 21 -7
44 -21 51 -31 18 -23 16 -64 -3 -92 -14 -19 -23 -22 -53 -17 -79 11 -86 11
-86 -4 0 -24 58 -34 106 -19 84 27 116 123 61 179 -28 28 -28 29 -10 52 50 66
-13 147 -92 117z"/>
<path d="M19841 15259 c-191 -36 -288 -230 -201 -405 50 -101 138 -156 250
-156 112 0 200 55 250 156 37 76 42 145 15 226 -41 123 -183 203 -314 179z
m130 -26 c77 -25 152 -100 173 -172 20 -68 20 -94 0 -161 -21 -72 -98 -149
-173 -173 -66 -21 -93 -21 -162 -1 -100 29 -189 149 -189 254 0 103 81 216
180 250 69 24 104 25 171 3z"/>
<path d="M19852 15155 c-20 -9 -38 -27 -46 -47 -17 -40 -11 -50 10 -19 53 76
149 23 124 -69 -12 -44 -34 -75 -109 -152 l-55 -58 106 0 106 0 11 32 c13 36
9 45 -9 23 -9 -11 -32 -15 -82 -15 l-70 0 59 63 c96 103 117 171 67 221 -15
14 -32 26 -40 26 -7 0 -18 2 -26 5 -7 2 -28 -2 -46 -10z"/>
<path d="M18630 15175 c0 -43 -1 -45 -30 -45 -20 0 -30 -5 -30 -15 0 -10 10
-15 30 -15 20 0 30 -5 30 -15 0 -8 5 -15 10 -15 6 0 10 7 10 15 0 12 15 15 75
15 41 0 75 4 75 8 0 10 -146 112 -160 112 -5 0 -10 -20 -10 -45z m101 -26 l24
-19 -52 0 -53 0 0 36 0 35 28 -17 c16 -9 39 -25 53 -35z"/>
<path d="M14987 15203 c-4 -3 -7 -26 -7 -50 0 -39 -2 -43 -25 -43 -16 0 -25
-6 -25 -15 0 -9 9 -15 25 -15 14 0 25 -4 25 -10 0 -14 27 -13 32 1 2 6 34 13
71 16 37 3 67 8 67 12 -1 5 -64 51 -131 94 -14 10 -29 14 -32 10z m79 -55 c24
-17 44 -33 44 -35 0 -2 -22 -3 -50 -3 l-50 0 0 35 c0 19 3 35 6 35 3 0 26 -14
50 -32z"/>
<path d="M18571 14970 c0 -35 2 -41 10 -27 8 14 25 17 109 17 55 0 100 3 100
8 -1 19 -16 30 -30 22 -8 -6 -50 -10 -92 -10 -63 0 -79 3 -87 18 -8 13 -10 7
-10 -28z"/>
<path d="M15116 14985 c-5 -14 -20 -16 -96 -13 -75 2 -90 0 -90 -12 0 -13 17
-15 110 -12 110 3 110 3 99 25 -16 30 -16 30 -23 12z"/>
<path d="M18630 14840 c0 -49 -1 -50 -30 -50 -20 0 -30 -5 -30 -15 0 -10 10
-15 29 -15 16 0 32 -6 34 -12 4 -10 7 -10 15 0 5 8 38 16 78 19 38 3 70 6 72
8 4 4 -150 114 -160 115 -5 0 -8 -22 -8 -50z m116 -42 c3 -5 -18 -8 -45 -8
l-51 0 0 41 0 40 46 -33 c25 -18 48 -36 50 -40z"/>
<path d="M14980 14825 c0 -41 -2 -45 -25 -45 -16 0 -25 -6 -25 -15 0 -9 9 -15
25 -15 16 0 25 -6 25 -15 0 -8 7 -15 15 -15 8 0 15 7 15 15 0 12 14 15 70 15
39 0 70 4 70 9 0 12 -141 111 -157 111 -9 0 -13 -16 -13 -45z m120 -40 c0 -3
-20 -5 -45 -5 -45 0 -45 0 -45 35 l0 36 45 -31 c25 -17 45 -33 45 -35z"/>
<path d="M18611 14697 c-33 -17 -45 -39 -37 -71 13 -51 109 -72 175 -38 51 25
58 57 22 93 -25 25 -37 29 -83 29 -29 0 -64 -6 -77 -13z m143 -27 c37 -14 34
-45 -5 -59 -66 -23 -169 -5 -169 30 0 11 10 24 23 29 30 12 120 12 151 0z"/>
<path d="M14975 14687 c-42 -19 -58 -42 -51 -72 10 -38 58 -58 127 -53 68 5
102 28 97 66 -6 54 -108 88 -173 59z m153 -39 c18 -16 15 -36 -9 -49 -31 -16
-167 -8 -179 11 -14 22 -7 34 31 47 37 14 136 8 157 -9z"/>
<path d="M15841 12171 c-105 -36 -191 -158 -191 -270 0 -107 86 -228 186 -264
185 -66 384 70 384 264 0 119 -73 226 -183 267 -70 27 -125 27 -196 3z m222
-35 c97 -56 143 -143 135 -253 -5 -80 -40 -148 -95 -187 -60 -42 -97 -54 -168
-55 -236 -2 -353 282 -186 449 60 60 115 81 203 76 49 -2 78 -10 111 -30z"/>
<path d="M15912 11973 c-45 -64 -82 -124 -82 -135 0 -16 9 -18 75 -18 l75 0 0
-45 c0 -38 3 -45 20 -45 17 0 20 7 20 45 0 42 2 45 26 45 33 0 30 33 -4 38
-21 3 -22 7 -22 118 0 87 -3 114 -13 114 -7 0 -50 -52 -95 -117z m68 -33 l0
-80 -61 0 -61 0 18 28 c30 47 94 132 99 132 3 0 5 -36 5 -80z"/>
<path d="M14971 11677 c-33 -17 -45 -39 -37 -71 13 -52 110 -72 179 -37 l38
19 -7 -21 c-5 -20 -5 -20 7 -5 23 28 63 27 79 -2 14 -26 -7 -75 -55 -129 l-37
-41 66 0 c46 0 66 4 66 13 0 8 -15 11 -52 9 l-53 -4 36 39 c20 21 42 48 48 60
34 67 -18 126 -81 92 -19 -10 -20 -9 -15 11 4 17 -2 31 -23 51 -24 25 -36 29
-82 29 -29 0 -64 -6 -77 -13z m143 -27 c37 -14 34 -45 -5 -59 -66 -23 -169 -5
-169 30 0 11 10 24 23 29 30 12 120 12 151 0z"/>
<path d="M18390 11659 c-68 -11 -111 -33 -156 -81 -66 -68 -79 -100 -79 -198
0 -74 3 -91 27 -130 59 -101 144 -151 254 -151 120 0 220 71 264 188 26 69 25
118 -1 188 -49 131 -173 205 -309 184z m166 -44 c110 -54 168 -184 134 -305
-27 -99 -106 -170 -213 -192 -47 -10 -64 -9 -116 7 -249 75 -258 418 -15 507
64 23 140 17 210 -17z"/>
<path d="M18460 11543 c-32 -15 -33 -17 -12 -20 22 -4 22 -7 22 -149 0 -141
-1 -145 -22 -154 -17 -6 -5 -9 47 -9 52 0 64 3 48 9 -23 9 -23 13 -23 175 0
181 2 177 -60 148z"/>
<path d="M15669 11591 c-25 -25 -29 -37 -29 -83 0 -84 32 -127 84 -114 51 13
72 109 38 175 -25 51 -57 58 -93 22z m70 -22 c23 -66 5 -169 -30 -169 -25 0
-39 36 -39 100 0 27 4 60 10 74 14 37 45 34 59 -5z"/>
<path d="M15331 11584 c-58 -74 -19 -218 53 -200 39 10 59 58 54 129 -4 47 -9
64 -27 78 -32 26 -56 24 -80 -7z m70 -5 c16 -31 8 -167 -11 -179 -22 -14 -34
-7 -47 31 -14 37 -8 136 9 157 16 18 36 15 49 -9z"/>
<path d="M15500 11570 c-25 -49 -25 -50 5 -50 34 0 65 -33 65 -70 0 -38 -28
-55 -64 -38 -27 12 -42 7 -31 -11 3 -6 21 -11 39 -11 72 0 106 90 52 137 -15
12 -34 23 -42 23 -32 0 -6 25 28 28 53 5 59 32 8 32 -36 0 -41 -4 -60 -40z"/>
<path d="M14971 11507 c-33 -17 -45 -39 -37 -71 13 -51 109 -72 175 -38 51 25
58 57 22 93 -25 25 -37 29 -83 29 -29 0 -64 -6 -77 -13z m150 -27 c30 -17 24
-46 -12 -59 -66 -23 -169 -5 -169 30 0 11 10 24 23 29 31 12 134 12 158 0z"/>
<path d="M3958 8723 l-38 -4 1 -47 c0 -26 3 -40 6 -32 11 30 57 70 89 76 61
11 124 -49 124 -120 0 -24 -3 -25 -62 -29 l-63 -3 63 -2 c60 -2 62 -3 62 -28
0 -98 -102 -155 -186 -103 -19 11 -34 18 -34 15 0 -19 70 -46 116 -46 91 0
155 64 156 158 0 53 -11 82 -46 120 -43 48 -77 56 -188 45z"/>
<path d="M9022 8698 c4 -26 52 -44 92 -34 41 10 76 56 42 56 -7 0 -21 -11 -30
-25 -9 -14 -25 -25 -36 -25 -12 0 -25 10 -32 25 -14 32 -41 34 -36 3z"/>
<path d="M4248 8610 c20 -9 22 -16 22 -92 0 -86 -4 -101 -30 -111 -8 -3 12 -5
45 -6 46 0 55 2 38 9 -19 8 -23 17 -23 55 0 62 21 59 60 -10 28 -48 35 -55 63
-55 27 0 29 2 15 13 -9 6 -32 35 -50 63 -33 49 -34 51 -18 80 11 19 25 29 41
29 15 0 25 7 27 18 2 12 -3 17 -17 17 -22 0 -30 -7 -64 -60 -12 -19 -30 -36
-40 -38 -14 -3 -17 4 -17 38 0 33 4 42 23 50 17 7 8 9 -38 9 -46 0 -55 -2 -37
-9z"/>
<path d="M4524 8605 c-50 -34 -57 -134 -13 -181 34 -36 89 -33 123 7 14 17 26
35 26 41 0 6 -9 -1 -21 -16 -38 -49 -95 -29 -120 42 -15 44 4 100 37 108 33 8
54 -2 54 -26 0 -13 7 -20 20 -20 26 0 27 36 1 50 -28 15 -83 12 -107 -5z"/>
<path d="M4708 8610 c20 -9 22 -16 22 -92 0 -86 -4 -101 -30 -111 -8 -3 10 -6
40 -6 42 0 51 2 38 10 -15 8 -18 25 -18 104 l0 95 50 0 50 0 0 -95 c0 -79 -3
-96 -17 -104 -14 -8 -5 -10 37 -10 30 1 47 3 38 6 -16 4 -18 18 -18 103 0 85
2 99 18 103 9 3 -39 5 -108 5 -84 1 -118 -2 -102 -8z"/>
<path d="M4993 8613 c16 -4 17 -15 15 -96 -2 -54 -7 -91 -13 -90 -5 1 -18 5
-27 8 -14 5 -18 2 -18 -14 0 -15 6 -21 24 -21 37 0 48 24 54 120 l5 90 33 0
34 0 0 -99 c0 -95 -1 -100 -22 -104 -13 -2 4 -5 37 -5 45 -1 56 1 43 9 -15 8
-18 25 -18 99 0 74 3 91 18 99 12 8 -11 10 -83 10 -55 -1 -92 -3 -82 -6z"/>
<path d="M5218 8610 c20 -9 22 -16 22 -92 0 -86 -4 -101 -30 -111 -8 -3 10 -6
40 -6 42 0 51 2 38 10 -27 15 -22 29 32 89 l49 55 1 -67 c0 -54 -4 -69 -17
-77 -14 -8 -5 -10 37 -10 30 1 47 3 38 6 -16 4 -18 18 -18 103 0 85 2 99 18
103 9 3 -8 5 -38 6 -42 0 -51 -2 -37 -10 26 -15 21 -29 -33 -89 l-49 -55 -1
67 c0 54 4 69 18 77 13 8 4 10 -38 10 -43 0 -50 -2 -32 -9z"/>
<path d="M5478 8610 c20 -9 22 -16 22 -92 0 -86 -4 -101 -30 -111 -8 -3 12 -5
45 -6 46 0 55 2 38 9 -19 8 -23 17 -23 55 0 62 21 59 60 -10 28 -48 35 -55 63
-55 27 0 29 2 15 13 -9 6 -32 35 -50 63 -33 49 -34 51 -18 80 11 19 25 29 41
29 15 0 25 7 27 18 2 12 -3 17 -17 17 -22 0 -30 -7 -64 -60 -12 -19 -30 -36
-40 -38 -14 -3 -17 4 -17 38 0 33 4 42 23 50 17 7 8 9 -38 9 -46 0 -55 -2 -37
-9z"/>
<path d="M5736 8604 c-20 -19 -21 -54 -2 -54 7 0 16 14 20 31 5 27 9 30 38 27
29 -3 33 -7 36 -33 3 -28 -1 -32 -47 -52 -60 -25 -81 -58 -63 -98 14 -29 50
-33 86 -10 21 14 24 14 29 0 9 -22 41 -18 63 7 12 14 13 18 3 10 -24 -18 -29
-5 -29 79 0 93 -11 109 -75 109 -26 0 -50 -6 -59 -16z m94 -119 c0 -39 -4 -47
-25 -57 -57 -26 -78 48 -22 82 17 11 35 20 40 20 4 0 7 -20 7 -45z"/>
<path d="M5938 8610 c20 -9 22 -16 22 -92 0 -86 -4 -101 -30 -111 -8 -3 30 -6
86 -6 100 -1 125 -8 137 -41 3 -8 6 0 6 18 1 22 -4 32 -14 32 -12 0 -15 18
-15 99 0 86 2 100 18 104 9 3 -7 5 -37 6 -47 1 -52 -1 -37 -12 14 -10 16 -26
14 -102 l-3 -90 -45 0 -45 0 -3 90 c-2 76 0 92 14 102 15 11 10 13 -37 12 -42
0 -49 -2 -31 -9z"/>
<path d="M6198 8610 c20 -9 22 -16 22 -92 0 -86 -4 -101 -30 -111 -8 -3 10 -6
40 -6 42 0 51 2 38 10 -27 15 -22 29 32 89 l49 55 1 -67 c0 -54 -4 -69 -17
-77 -14 -8 -5 -10 37 -10 30 1 47 3 38 6 -16 4 -18 18 -18 103 0 85 2 99 18
103 9 3 -8 5 -38 6 -42 0 -51 -2 -37 -10 26 -15 21 -29 -33 -89 l-49 -55 -1
67 c0 54 4 69 18 77 13 8 4 10 -38 10 -43 0 -50 -2 -32 -9z"/>
<path d="M6505 8608 c-43 -24 -45 -49 -9 -83 l27 -25 -28 -40 c-16 -23 -35
-45 -44 -50 -12 -7 -9 -9 14 -9 25 0 36 8 64 49 34 50 45 58 56 40 11 -17 -6
-79 -24 -83 -9 -3 9 -5 39 -6 42 0 51 2 38 10 -15 8 -18 25 -18 99 0 74 3 91
18 99 13 8 1 10 -48 10 -36 0 -74 -5 -85 -11z m83 -42 c4 -47 -8 -62 -37 -47
-36 20 -44 48 -21 71 32 32 54 22 58 -24z"/>
<path d="M6808 8610 c20 -9 22 -16 22 -92 0 -86 -4 -101 -30 -111 -8 -3 10 -6
40 -6 42 0 51 2 38 10 -15 8 -18 25 -18 104 l0 95 50 0 50 0 0 -95 c0 -79 -3
-96 -17 -104 -14 -8 -5 -10 37 -10 30 1 47 3 38 6 -16 4 -18 18 -18 103 0 85
2 99 18 103 9 3 -39 5 -108 5 -84 1 -118 -2 -102 -8z"/>
<path d="M7127 8609 c-43 -25 -60 -106 -32 -159 41 -79 156 -63 185 25 25 75
-21 145 -94 145 -22 0 -49 -5 -59 -11z m87 -14 c28 -29 41 -90 27 -136 -13
-44 -28 -54 -67 -45 -47 12 -72 125 -38 174 18 26 56 29 78 7z"/>
<path d="M7328 8610 c20 -9 22 -16 22 -92 0 -86 -4 -101 -30 -111 -8 -3 5 -6
30 -6 35 0 41 2 28 10 -15 8 -18 24 -17 92 0 92 -3 95 57 -42 l28 -64 39 94
40 94 3 -80 c2 -66 0 -82 -14 -92 -15 -11 -10 -13 37 -12 30 1 46 3 37 6 -16
4 -18 18 -18 103 0 85 2 99 18 103 9 3 -1 5 -22 4 -39 -2 -40 -3 -69 -72 -16
-38 -32 -73 -36 -78 -4 -4 -22 29 -40 73 l-33 80 -42 -1 c-35 0 -37 -2 -18 -9z"/>
<path d="M7673 8605 c-29 -20 -47 -83 -39 -129 14 -72 103 -102 151 -50 32 34
33 55 2 26 -13 -12 -33 -22 -45 -22 -31 0 -71 40 -78 78 l-6 32 76 0 c67 0 76
2 76 18 0 10 -9 28 -20 40 -25 26 -85 30 -117 7z m81 -17 c24 -34 20 -38 -39
-38 -30 0 -55 3 -55 8 0 20 34 52 55 52 13 0 31 -10 39 -22z"/>
<path d="M7858 8610 c20 -9 22 -16 22 -92 0 -86 -4 -101 -30 -111 -8 -3 57 -6
146 -6 169 -1 180 -4 197 -51 3 -8 6 1 6 21 1 29 -3 38 -19 42 -18 5 -20 14
-20 96 0 86 1 92 23 101 17 7 10 9 -32 9 -47 1 -52 -1 -37 -12 14 -10 16 -26
14 -102 l-3 -90 -40 0 -40 0 -3 97 c-2 86 -1 97 15 101 10 3 -7 5 -37 5 -30 0
-47 -2 -37 -5 16 -4 17 -15 15 -101 l-3 -97 -40 0 -40 0 -3 90 c-2 76 0 92 14
102 15 11 10 13 -37 12 -42 0 -49 -2 -31 -9z"/>
<path d="M8273 8605 c-29 -20 -47 -83 -39 -129 14 -72 103 -102 151 -50 32 34
33 55 2 26 -13 -12 -33 -22 -45 -22 -31 0 -71 40 -78 78 l-6 32 76 0 c67 0 76
2 76 18 0 10 -9 28 -20 40 -25 26 -85 30 -117 7z m81 -17 c24 -34 20 -38 -39
-38 -30 0 -55 3 -55 8 0 20 34 52 55 52 13 0 31 -10 39 -22z"/>
<path d="M8448 8610 c20 -9 22 -16 22 -92 0 -86 -4 -101 -30 -111 -8 -3 10 -6
40 -6 42 0 51 2 38 10 -13 7 -18 23 -18 54 l0 45 50 0 50 0 0 -45 c0 -31 -5
-47 -17 -54 -14 -8 -5 -10 37 -10 30 1 47 3 38 6 -16 4 -18 18 -18 103 0 85 2
99 18 103 9 3 -8 5 -38 6 -42 0 -51 -2 -37 -10 11 -7 17 -22 17 -49 l0 -40
-50 0 -50 0 0 40 c0 27 6 42 18 49 13 8 4 10 -38 10 -43 0 -50 -2 -32 -9z"/>
<path d="M8718 8610 c20 -9 22 -16 22 -92 0 -86 -4 -101 -30 -111 -8 -3 10 -6
40 -6 42 0 51 2 38 10 -27 15 -22 29 32 89 l49 55 1 -67 c0 -54 -4 -69 -17
-77 -14 -8 -5 -10 37 -10 30 1 47 3 38 6 -16 4 -18 18 -18 103 0 85 2 99 18
103 9 3 -8 5 -38 6 -42 0 -51 -2 -37 -10 26 -15 21 -29 -33 -89 l-49 -55 -1
67 c0 54 4 69 18 77 13 8 4 10 -38 10 -43 0 -50 -2 -32 -9z"/>
<path d="M8988 8610 c20 -9 22 -16 22 -92 0 -86 -4 -101 -30 -111 -8 -3 10 -6
40 -6 42 0 51 2 38 10 -27 15 -22 29 32 89 l49 55 1 -67 c0 -54 -4 -69 -17
-77 -14 -8 -5 -10 37 -10 30 1 47 3 38 6 -16 4 -18 18 -18 103 0 85 2 99 18
103 9 3 -8 5 -38 6 -42 0 -51 -2 -37 -10 26 -15 21 -29 -33 -89 l-49 -55 -1
67 c0 54 4 69 18 77 13 8 4 10 -38 10 -43 0 -50 -2 -32 -9z"/>
<path d="M1777 8213 c-9 -8 -9 -5873 0 -6530 l6 -503 4804 0 4803 0 0 3520 0
3520 -4803 0 c-2642 0 -4807 -3 -4810 -7z m1243 -848 c0 -661 3 -835 13 -835
9 0 12 173 12 832 l0 833 3328 3 3327 2 0 -835 c0 -661 3 -835 13 -835 9 0 12
173 12 832 l0 833 823 3 822 2 0 -2835 0 -2835 -825 0 -825 0 3 1670 c2 1331
-1 1670 -10 1670 -10 0 -13 -341 -13 -1670 l0 -1670 -3330 0 -3330 0 3 1670
c2 1331 -1 1670 -10 1670 -10 0 -13 -341 -13 -1670 l0 -1670 -615 0 -615 0 1
2828 c1 1555 4 2830 6 2835 2 4 278 7 614 7 l609 0 0 -835z m6680 -5505 l0
-660 -3955 0 -3955 0 0 660 0 660 3955 0 3955 0 0 -660z m1670 0 l0 -660 -825
0 -825 0 0 660 0 660 825 0 825 0 0 -660z"/>
<path d="M1934 7827 c15 -11 17 -27 14 -120 -3 -101 -2 -107 17 -107 18 0 20
5 17 55 l-4 55 62 0 62 0 -4 -55 c-4 -51 -3 -55 16 -55 20 0 21 4 18 114 -3
103 -1 115 15 119 10 3 -4 5 -31 6 -43 1 -47 -1 -32 -12 13 -10 17 -24 14 -57
l-3 -45 -57 -3 -58 -3 0 55 c0 44 4 55 18 59 9 3 -5 5 -32 6 -43 1 -47 -1 -32
-12z"/>
<path d="M2211 7734 c-29 -37 -27 -89 4 -119 51 -51 125 -13 125 65 0 51 -27
80 -74 80 -25 0 -40 -7 -55 -26z m89 -5 c17 -30 15 -98 -3 -116 -20 -20 -51
-9 -65 23 -15 33 -15 87 0 102 19 19 56 14 68 -9z"/>
<path d="M2391 7738 c14 -13 35 -48 48 -78 13 -30 25 -57 26 -58 4 -4 35 54
35 64 0 4 -6 0 -13 -9 -11 -15 -15 -10 -36 43 -22 55 -27 60 -54 60 l-30 0 24
-22z"/>
<path d="M2517 7725 c-21 -44 -22 -59 -1 -25 14 24 14 22 12 -38 -3 -56 -1
-62 17 -62 18 0 20 5 17 71 -3 52 0 74 10 80 9 6 5 9 -13 9 -19 0 -29 -8 -42
-35z"/>
<path d="M2631 7734 c-29 -37 -27 -89 4 -119 13 -14 32 -25 42 -25 23 0 63 27
63 43 0 8 -3 8 -12 -1 -20 -20 -55 -13 -77 14 -35 45 -28 54 39 54 33 0 60 3
60 8 0 4 -7 18 -16 30 -22 32 -76 30 -103 -4z m77 -6 c3 -15 -4 -18 -38 -18
-38 0 -40 1 -30 21 14 25 63 23 68 -3z"/>
<path d="M2780 7750 c-11 -7 -11 -10 -2 -10 10 0 13 -24 10 -110 -3 -105 -2
-110 17 -110 18 0 20 5 17 41 -4 38 -3 41 17 34 32 -10 59 3 76 35 33 64 7
134 -48 128 -17 -2 -32 -8 -34 -15 -3 -7 3 -10 15 -6 28 7 52 -23 52 -66 0
-51 -19 -76 -53 -67 -26 6 -27 9 -27 81 0 77 -6 87 -40 65z"/>
<path d="M2390 7616 c0 -9 5 -16 10 -16 6 0 10 4 10 9 0 6 -4 13 -10 16 -5 3
-10 -1 -10 -9z"/>
<path d="M10288 7580 c-30 -23 -40 -62 -26 -102 12 -33 35 -48 76 -48 37 0 62
28 69 78 5 34 1 45 -20 66 -31 31 -65 33 -99 6z m72 -5 c18 -22 25 -102 10
-120 -18 -22 -57 -19 -71 7 -16 30 -16 92 0 112 17 20 45 21 61 1z"/>
<path d="M10746 7584 c-18 -18 -20 -30 -6 -39 6 -3 14 5 20 19 10 28 31 34 47
14 6 -7 11 -37 12 -65 1 -48 -1 -53 -23 -59 -50 -12 -62 22 -20 55 32 25 25
27 -17 5 -25 -13 -30 -20 -27 -47 2 -25 8 -33 26 -35 13 -2 30 2 38 9 13 10
17 10 24 -1 5 -7 15 -10 26 -6 13 5 15 9 6 18 -7 7 -12 38 -12 70 0 46 -4 59
-19 68 -28 14 -57 12 -75 -6z"/>
<path d="M9888 7519 c3 -52 0 -74 -10 -80 -8 -6 1 -8 27 -8 22 0 34 3 28 6 -9
3 -13 29 -13 79 0 64 -2 74 -17 74 -16 0 -18 -9 -15 -71z"/>
<path d="M9990 7516 c0 -50 -4 -76 -12 -79 -7 -3 5 -5 27 -5 22 0 34 2 28 5
-9 3 -13 29 -13 79 0 59 -3 74 -15 74 -12 0 -15 -15 -15 -74z"/>
<path d="M10105 7523 c0 -65 -1 -68 -22 -66 -15 2 -23 -3 -23 -12 0 -22 37
-18 50 4 11 22 14 141 3 141 -5 0 -8 -30 -8 -67z"/>
<path d="M10178 7523 c3 -55 1 -69 -14 -80 -16 -11 -12 -13 26 -13 39 0 42 1
26 13 -16 11 -18 24 -14 80 3 56 1 67 -12 67 -12 0 -14 -12 -12 -67z"/>
<path d="M10458 7519 c3 -52 0 -74 -10 -80 -7 -5 43 -9 120 -9 125 0 132 1
117 17 -14 13 -16 30 -13 80 3 52 1 63 -12 63 -12 0 -14 -13 -12 -75 l4 -75
-37 0 -37 0 4 75 c3 66 1 75 -14 75 -16 0 -18 -10 -18 -75 l0 -75 -30 0 -30 0
0 75 c0 65 -2 75 -17 75 -16 0 -18 -9 -15 -71z"/>
<path d="M10936 7563 c10 -40 14 -41 14 -5 0 18 -5 32 -10 32 -6 0 -8 -11 -4
-27z"/>
<path d="M11000 7515 l0 -75 -41 0 c-35 0 -40 2 -34 18 4 9 9 28 11 42 3 16 0
13 -6 -8 -6 -18 -19 -38 -30 -45 -11 -6 -20 -23 -20 -37 l0 -24 16 22 c13 18
25 22 74 22 46 0 61 -4 69 -17 9 -16 10 -16 11 5 0 12 -5 22 -11 22 -7 0 -9
26 -7 75 3 66 1 75 -14 75 -16 0 -18 -10 -18 -75z"/>
<path d="M11097 7527 c4 -51 2 -66 -11 -80 -16 -16 -14 -17 34 -17 56 0 84 11
94 35 8 23 -29 55 -65 55 -30 0 -31 2 -27 35 3 28 1 35 -13 35 -14 0 -16 -9
-12 -63z m81 -46 c4 -25 -12 -41 -40 -41 -14 0 -18 8 -18 36 0 33 2 35 28 32
20 -2 28 -9 30 -27z"/>
<path d="M4948 7518 c13 -13 17 -265 4 -284 -4 -7 -16 -14 -27 -17 -11 -2 14
-5 55 -5 45 0 65 3 50 7 -23 6 -25 12 -28 79 l-3 72 76 0 c53 0 75 -4 76 -12
1 -16 1 -86 0 -111 -1 -10 -11 -22 -23 -27 -17 -6 -5 -9 47 -9 52 0 64 3 48 9
-22 9 -23 13 -23 154 0 106 3 146 13 149 6 3 -7 6 -31 6 -24 1 -41 -3 -38 -8
3 -5 6 -30 7 -57 2 -90 8 -84 -76 -84 l-75 0 0 63 c0 36 5 68 12 75 9 9 2 12
-32 12 -34 0 -41 -3 -32 -12z"/>
<path d="M5326 7429 c-32 -9 -46 -24 -46 -51 0 -30 27 -20 34 12 5 25 10 30
35 30 29 0 41 -14 41 -48 0 -11 -20 -27 -52 -42 -63 -30 -76 -48 -62 -87 11
-34 53 -43 89 -19 20 13 24 13 29 1 8 -21 40 -19 60 4 17 19 17 19 -3 14 -20
-5 -21 -2 -21 73 0 44 -4 85 -8 92 -12 19 -63 30 -96 21z m64 -134 c0 -39 -4
-47 -25 -57 -57 -26 -78 48 -22 82 17 11 35 20 40 20 4 0 7 -20 7 -45z"/>
<path d="M6142 7428 c-71 -19 -96 -136 -42 -193 33 -35 92 -35 125 1 14 15 25
34 25 42 0 9 -8 5 -21 -12 -12 -15 -30 -26 -44 -26 -33 0 -74 39 -81 78 l-6
32 76 0 c62 0 76 3 76 16 0 47 -51 77 -108 62z m52 -30 c24 -34 20 -38 -39
-38 -30 0 -55 3 -55 8 0 20 34 52 55 52 13 0 31 -10 39 -22z"/>
<path d="M6632 7428 c-61 -16 -91 -103 -57 -168 19 -37 43 -50 93 -50 32 0 45
6 66 30 35 42 42 89 21 134 -10 20 -22 39 -27 42 -23 15 -66 20 -96 12z m62
-23 c26 -27 39 -94 27 -137 -28 -92 -121 -40 -121 69 0 69 54 108 94 68z"/>
<path d="M7086 7429 c-32 -9 -46 -24 -46 -51 0 -30 27 -20 34 12 5 25 10 30
35 30 29 0 41 -14 41 -48 0 -11 -20 -27 -52 -42 -63 -30 -76 -48 -62 -87 11
-34 53 -43 89 -19 20 13 24 13 29 1 8 -21 40 -19 60 4 17 19 17 19 -3 14 -20
-5 -21 -2 -21 73 0 44 -4 85 -8 92 -12 19 -63 30 -96 21z m64 -134 c0 -39 -4
-47 -25 -57 -57 -26 -78 48 -22 82 17 11 35 20 40 20 4 0 7 -20 7 -45z"/>
<path d="M7854 7429 c-51 -14 -69 -43 -69 -109 0 -48 4 -63 24 -84 34 -36 93
-36 126 0 14 15 25 34 25 42 0 9 -8 5 -21 -12 -12 -15 -30 -26 -44 -26 -33 0
-74 39 -81 78 l-6 32 76 0 c62 0 76 3 76 16 0 46 -51 77 -106 63z m50 -31 c24
-34 20 -38 -39 -38 -30 0 -55 3 -55 8 0 20 34 52 55 52 13 0 31 -10 39 -22z"/>
<path d="M5490 7423 c25 -10 30 -25 30 -103 0 -78 -5 -93 -30 -103 -8 -3 9 -6
38 -6 49 -1 52 0 38 15 -9 8 -16 18 -16 22 0 4 23 32 50 62 l49 55 1 -67 c0
-53 -4 -69 -17 -77 -14 -8 -5 -10 37 -10 42 0 51 2 38 10 -15 8 -18 25 -18 99
0 74 3 91 18 99 13 8 4 10 -38 10 -42 0 -51 -2 -37 -10 26 -15 21 -29 -33 -89
l-49 -55 -1 67 c0 54 4 69 18 77 13 8 4 10 -38 10 -30 0 -48 -3 -40 -6z"/>
<path d="M5760 7423 c25 -10 30 -25 30 -103 0 -78 -5 -93 -30 -103 -8 -3 5 -6
29 -6 39 -1 42 1 27 12 -14 10 -16 26 -14 92 l3 80 39 -94 40 -94 18 39 c10
22 29 64 43 94 l24 55 0 -82 c1 -68 -2 -84 -16 -92 -14 -8 -5 -10 37 -10 30 1
47 3 38 6 -16 4 -18 18 -18 103 0 85 2 99 18 103 9 3 -1 5 -22 4 -39 -2 -40
-3 -69 -72 -16 -38 -32 -73 -36 -78 -4 -4 -22 29 -40 73 l-33 80 -42 -1 c-22
0 -34 -3 -26 -6z"/>
<path d="M6290 7423 c25 -10 30 -25 30 -103 0 -78 -5 -93 -30 -103 -8 -3 12
-5 45 -6 46 0 55 2 38 9 -19 8 -23 17 -23 55 l0 45 50 0 50 0 0 -45 c0 -31 -5
-47 -17 -54 -14 -8 -5 -10 37 -10 42 0 51 2 38 10 -15 8 -18 25 -18 104 0 81
2 94 18 98 9 3 -8 5 -38 6 -42 0 -51 -2 -37 -10 11 -7 17 -22 17 -49 l0 -40
-50 0 -50 0 0 40 c0 27 6 42 18 49 13 8 4 10 -38 10 -30 0 -48 -3 -40 -6z"/>
<path d="M6800 7423 c25 -10 30 -25 30 -103 0 -78 -5 -93 -30 -103 -8 -3 19
-6 60 -6 92 -1 124 13 128 56 3 26 -2 34 -24 46 -28 14 -28 14 -6 26 29 15 29
55 0 75 -16 11 -45 16 -98 15 -41 0 -68 -3 -60 -6z m114 -13 c51 -19 25 -80
-33 -80 -18 0 -21 6 -21 38 0 54 8 60 54 42z m14 -106 c29 -20 28 -50 -3 -70
-38 -25 -65 -11 -65 35 0 21 3 41 7 44 11 12 37 8 61 -9z"/>
<path d="M7250 7423 c25 -10 30 -25 30 -103 0 -78 -5 -93 -30 -103 -8 -3 12
-5 45 -6 46 0 55 2 38 9 -19 8 -23 17 -23 55 l0 45 50 0 50 0 0 -45 c0 -31 -5
-47 -17 -54 -14 -8 -5 -10 37 -10 42 0 51 2 38 10 -15 8 -18 25 -18 104 0 81
2 94 18 98 9 3 -8 5 -38 6 -42 0 -51 -2 -37 -10 11 -7 17 -22 17 -49 l0 -40
-50 0 -50 0 0 40 c0 27 6 42 18 49 13 8 4 10 -38 10 -30 0 -48 -3 -40 -6z"/>
<path d="M7510 7423 c25 -10 30 -25 30 -103 0 -78 -5 -93 -30 -103 -8 -3 9 -6
38 -6 49 -1 52 0 38 15 -9 8 -16 18 -16 22 0 4 23 32 50 62 l49 55 1 -67 c0
-53 -4 -69 -17 -77 -14 -8 -5 -10 37 -10 42 0 51 2 38 10 -15 8 -18 25 -18 99
0 74 3 91 18 99 13 8 4 10 -38 10 -42 0 -51 -2 -37 -10 26 -15 21 -29 -33 -89
l-49 -55 -1 67 c0 54 4 69 18 77 13 8 4 10 -38 10 -30 0 -48 -3 -40 -6z"/>
<path d="M2215 7340 c12 -4 27 -15 34 -23 13 -17 18 -98 6 -117 -9 -15 -51
-12 -65 5 -17 21 -24 89 -11 114 7 13 8 21 2 21 -15 0 -41 -54 -41 -83 0 -40
36 -77 75 -77 54 0 81 38 76 105 -3 27 -47 65 -74 64 -21 0 -21 0 -2 -9z"/>
<path d="M2627 7340 c12 -5 25 -20 28 -33 7 -27 35 -32 35 -6 0 22 -37 49 -65
48 -19 0 -19 -1 2 -9z"/>
<path d="M1958 7269 c3 -52 0 -74 -10 -80 -8 -6 1 -8 27 -8 22 0 34 3 28 6 -9
3 -13 29 -13 79 0 64 -2 74 -17 74 -16 0 -18 -9 -15 -71z"/>
<path d="M2060 7266 c0 -50 -4 -76 -12 -79 -7 -3 5 -5 27 -5 22 0 34 2 28 5
-9 3 -13 29 -13 79 0 59 -3 74 -15 74 -12 0 -15 -15 -15 -74z"/>
<path d="M2340 7331 c0 -5 6 -14 14 -20 8 -7 24 -36 36 -66 12 -30 26 -55 30
-55 15 0 20 32 7 45 -8 7 -21 34 -31 59 -13 33 -23 46 -37 46 -10 0 -19 -4
-19 -9z"/>
<path d="M2470 7321 c-13 -25 -13 -41 0 -21 7 11 10 -3 10 -47 0 -40 -4 -63
-12 -66 -7 -3 5 -6 27 -6 26 0 35 2 27 8 -10 6 -13 28 -10 80 3 62 1 71 -14
71 -10 0 -22 -9 -28 -19z"/>
<path d="M2577 7322 c-22 -24 -22 -90 -1 -120 22 -32 80 -27 103 7 l16 25 -28
-19 c-27 -18 -29 -18 -55 2 -33 24 -41 59 -15 66 16 4 17 5 1 6 -21 1 -24 21
-6 39 7 7 10 12 7 12 -3 0 -13 -8 -22 -18z"/>
<path d="M2628 7283 c7 -3 16 -2 19 1 4 3 -2 6 -13 5 -11 0 -14 -3 -6 -6z"/>
<path d="M2446 7265 c-9 -26 -7 -32 5 -12 6 10 9 21 6 23 -2 3 -7 -2 -11 -11z"/>
<path d="M2720 7260 c0 -5 20 -10 45 -10 25 0 45 5 45 10 0 6 -20 10 -45 10
-25 0 -45 -4 -45 -10z"/>
<path d="M10590 7240 c-11 -11 -20 -25 -20 -31 0 -6 7 -3 16 5 23 24 61 20 79
-8 14 -22 14 -28 1 -60 -8 -19 -36 -58 -62 -86 l-48 -51 75 3 c56 2 74 7 77
18 2 12 -8 14 -55 12 l-58 -4 36 39 c52 55 69 84 69 115 0 35 -32 68 -65 68
-14 0 -34 -9 -45 -20z"/>
<path d="M2332 7194 c-11 -12 -8 -14 19 -14 18 0 30 1 28 3 -2 1 -11 8 -19 14
-11 8 -18 8 -28 -3z"/>
<path d="M10350 7161 c0 -5 6 -14 14 -20 8 -7 24 -36 36 -66 12 -30 26 -55 30
-55 15 0 20 32 7 45 -8 7 -21 34 -31 59 -13 33 -23 46 -37 46 -10 0 -19 -4
-19 -9z"/>
<path d="M10480 7151 c-13 -25 -13 -41 0 -21 7 11 10 -3 10 -47 0 -40 -4 -63
-12 -66 -7 -3 5 -6 27 -6 26 0 35 2 27 8 -10 6 -13 28 -10 80 3 62 1 71 -14
71 -10 0 -22 -9 -28 -19z"/>
<path d="M10456 7095 c-9 -26 -7 -32 5 -12 6 10 9 21 6 23 -2 3 -7 -2 -11 -11z"/>
<path d="M10342 7025 c-11 -13 -8 -15 18 -15 28 0 30 2 16 15 -18 18 -18 18
-34 0z"/>
<path d="M1926 6913 c13 -14 15 -29 11 -80 l-5 -63 32 1 c17 1 23 3 14 6 -15
4 -18 16 -18 73 0 45 4 70 13 73 6 3 -5 6 -26 6 -36 1 -37 0 -21 -16z"/>
<path d="M2018 6923 c8 -3 12 -28 12 -73 0 -45 -4 -70 -12 -73 -7 -3 5 -6 27
-6 26 0 35 2 27 8 -10 6 -13 28 -10 80 l3 71 -30 -1 c-16 0 -24 -3 -17 -6z"/>
<path d="M2108 6923 c8 -3 12 -28 12 -74 0 -48 -4 -69 -12 -70 -7 0 1 -5 17
-11 17 -6 33 -16 37 -22 5 -7 8 -5 8 6 0 9 -4 20 -10 23 -15 9 -13 142 3 148
6 3 -6 5 -28 5 -22 0 -34 -2 -27 -5z"/>
<path d="M2221 6904 c-29 -37 -27 -89 4 -119 13 -14 32 -25 42 -25 23 0 63 27
63 43 0 8 -3 8 -12 -1 -20 -20 -55 -13 -77 14 -35 45 -28 54 39 54 33 0 60 3
60 8 0 4 -7 18 -16 30 -22 32 -76 30 -103 -4z m77 -6 c3 -15 -4 -18 -38 -18
-38 0 -40 1 -30 21 14 25 63 23 68 -3z"/>
<path d="M2376 6913 c13 -14 15 -29 11 -80 -4 -54 -2 -63 12 -63 13 0 16 11
14 72 -2 49 1 74 10 80 7 4 -3 8 -26 8 -36 0 -37 -1 -21 -17z"/>
<path d="M2479 6917 c6 -8 9 -42 8 -80 -3 -56 -1 -67 12 -67 13 0 15 11 13 65
-2 42 1 71 8 80 11 13 7 15 -20 15 -26 0 -30 -3 -21 -13z"/>
<path d="M2576 6913 c13 -14 15 -29 11 -80 -4 -56 -3 -63 14 -63 11 0 16 5 13
13 -3 8 14 33 36 58 l41 44 -4 -57 c-3 -48 -1 -58 12 -58 13 0 15 11 13 65 -2
42 1 71 8 80 11 13 7 15 -20 15 -26 0 -30 -3 -21 -14 9 -10 2 -23 -29 -57
l-39 -44 -1 52 c0 32 5 53 13 56 6 3 -5 6 -26 6 -36 1 -37 0 -21 -16z"/>
<path d="M2788 6919 c-24 -13 -23 -45 2 -62 19 -13 19 -14 -6 -50 -19 -29 -21
-37 -9 -37 8 0 25 16 37 35 29 44 38 44 38 0 0 -27 4 -35 18 -35 15 0 17 9 14
71 -3 52 0 74 10 80 19 13 -83 11 -104 -2z m62 -35 c0 -28 -4 -35 -16 -32 -27
5 -40 34 -25 52 23 28 41 19 41 -20z"/>
<path d="M3941 6341 c-31 -16 -32 -18 -12 -24 20 -5 21 -11 21 -121 0 -112 -1
-117 -22 -126 -17 -7 -8 -9 37 -8 33 0 52 2 43 5 -20 5 -19 2 -22 170 0 61 -3
114 -6 116 -3 3 -20 -3 -39 -12z"/>
<path d="M4098 6248 c17 -17 16 -175 0 -181 -7 -3 10 -6 37 -6 39 0 46 2 33
10 -19 11 -26 89 -9 89 6 0 22 -22 38 -50 25 -45 31 -50 63 -49 23 0 29 3 18
7 -10 4 -31 29 -48 55 -27 44 -29 51 -18 75 9 18 21 27 38 27 32 0 34 29 3 33
-17 2 -28 -5 -42 -30 -41 -68 -61 -76 -61 -23 0 22 6 38 18 44 13 8 6 10 -32
11 -39 0 -47 -3 -38 -12z"/>
<path d="M4348 6246 c-30 -22 -49 -79 -38 -116 18 -62 60 -88 116 -70 42 14
64 49 64 103 0 60 -34 97 -87 97 -21 0 -46 -7 -55 -14z m68 -4 c35 -23 48
-138 19 -162 -21 -18 -60 -5 -73 25 -34 75 4 171 54 137z"/>
<path d="M4533 6249 c14 -8 17 -24 17 -89 0 -65 -3 -81 -17 -89 -14 -8 -10
-10 22 -11 25 0 35 3 27 9 -9 5 -12 27 -10 72 l3 64 29 -72 c27 -68 45 -91 47
-60 0 6 13 39 29 72 l28 60 1 -67 c1 -55 -2 -67 -16 -71 -10 -3 7 -5 37 -6 42
0 51 2 38 10 -15 8 -18 24 -18 89 0 65 3 81 18 89 14 8 10 10 -19 11 -36 0
-37 -1 -67 -72 l-31 -73 -32 73 c-31 70 -33 72 -68 72 -29 -1 -33 -3 -18 -11z"/>
<path d="M4818 6248 c17 -17 16 -175 0 -181 -7 -3 10 -6 37 -6 39 0 46 2 33
10 -12 6 -18 22 -18 44 0 34 1 35 40 35 40 0 40 0 40 -39 0 -22 -5 -42 -12
-44 -7 -3 10 -6 37 -6 39 0 46 2 33 10 -15 8 -18 24 -18 89 0 65 3 81 18 89
13 8 6 10 -32 11 -39 0 -47 -3 -38 -12 7 -7 12 -27 12 -45 0 -32 -1 -33 -40
-33 -39 0 -40 1 -40 35 0 22 6 38 18 44 13 8 6 10 -32 11 -39 0 -47 -3 -38
-12z"/>
<path d="M5064 6234 c-13 -19 -14 -28 -5 -37 13 -13 27 -1 33 28 2 14 11 20
28 20 19 0 26 -6 28 -26 3 -22 -4 -29 -45 -50 -45 -24 -48 -28 -48 -65 0 -35
3 -39 27 -42 15 -2 37 2 50 9 16 9 23 9 26 0 5 -16 37 -14 52 5 11 12 11 15
-1 12 -11 -2 -15 13 -17 72 -2 41 -8 80 -14 87 -6 7 -30 13 -54 13 -36 0 -47
-5 -60 -26z m86 -98 c0 -37 -21 -62 -45 -52 -29 11 -30 38 -1 63 37 31 46 29
46 -11z"/>
<path d="M5237 6254 c-4 -4 -7 -19 -6 -33 0 -26 0 -26 11 -3 7 13 20 22 35 22
22 0 23 -3 23 -84 0 -72 -3 -85 -17 -89 -10 -3 9 -5 42 -5 45 -1 54 1 38 8
-21 9 -23 16 -23 90 0 78 1 80 25 80 13 0 29 -8 35 -17 9 -16 10 -15 8 7 -3
24 -6 25 -83 28 -45 1 -84 0 -88 -4z"/>
<path d="M5443 6249 c14 -8 17 -24 17 -89 0 -65 -3 -81 -17 -89 -14 -8 -7 -10
32 -10 28 0 44 3 38 6 -8 2 -13 22 -13 44 0 39 0 39 40 39 39 0 40 -1 40 -35
0 -22 -6 -38 -17 -44 -14 -8 -5 -10 37 -10 30 1 47 3 38 6 -15 4 -18 17 -18
87 0 50 5 87 12 94 9 9 1 12 -37 12 -39 -1 -46 -3 -32 -11 11 -6 17 -22 17
-44 0 -34 -1 -35 -40 -35 -39 0 -40 1 -40 33 0 18 5 38 12 45 9 9 1 12 -37 12
-39 -1 -46 -3 -32 -11z"/>
<path d="M5678 6248 c17 -17 16 -175 0 -181 -7 -3 16 -6 52 -6 75 -1 110 16
110 54 0 30 -35 55 -77 55 -31 0 -33 2 -33 35 0 28 5 38 23 45 17 7 10 9 -32
9 -43 1 -52 -2 -43 -11z m120 -131 c3 -21 -2 -29 -20 -36 -34 -13 -48 -3 -48
36 0 33 1 34 33 31 27 -2 33 -8 35 -31z"/>
<path d="M5853 6249 c14 -8 17 -25 17 -94 0 -71 -3 -84 -17 -88 -10 -3 7 -5
37 -6 42 0 51 2 38 10 -15 8 -18 24 -18 89 0 65 3 81 18 89 13 8 4 10 -38 10
-42 0 -51 -2 -37 -10z"/>
<path d="M6001 6236 c-12 -13 -25 -42 -28 -63 -14 -109 105 -164 153 -71 l17
33 -25 -22 c-13 -13 -34 -23 -46 -23 -22 0 -62 32 -62 49 0 5 -3 16 -6 25 -5
14 4 16 65 16 79 0 86 8 50 54 -28 35 -86 36 -118 2z m70 4 c36 -20 23 -40
-26 -40 -42 0 -45 2 -35 19 8 16 21 26 38 30 2 1 12 -4 23 -9z"/>
<path d="M6283 6249 c14 -8 17 -24 17 -89 0 -65 -3 -81 -17 -89 -14 -8 -5 -10
37 -10 30 1 47 3 38 6 -14 3 -18 15 -18 49 0 24 2 44 5 44 3 0 19 -22 36 -50
26 -42 35 -50 61 -50 29 0 30 0 11 18 -11 9 -31 35 -44 57 -22 35 -24 43 -12
65 9 19 19 24 39 22 20 -3 25 0 22 15 -4 22 -32 29 -48 11 -6 -7 -20 -28 -30
-45 -25 -43 -40 -42 -40 2 0 22 6 38 18 44 13 8 4 10 -38 10 -42 0 -51 -2 -37
-10z"/>
<path d="M6498 6249 c7 -8 12 -43 12 -95 0 -57 -4 -84 -12 -87 -7 -3 20 -6 60
-6 59 -1 75 2 92 19 26 26 25 45 -3 66 -22 17 -22 19 -5 36 22 22 22 28 4 53
-11 15 -30 20 -87 23 -61 3 -72 2 -61 -9z m110 -21 c7 -7 12 -15 12 -19 0 -15
-32 -39 -51 -39 -15 0 -19 7 -19 35 0 30 3 35 23 35 13 0 28 -5 35 -12z m11
-97 c16 -30 -12 -56 -56 -52 -8 1 -13 15 -13 36 0 32 2 35 30 35 18 0 33 -7
39 -19z"/>
<path d="M6715 6240 c-19 -20 -14 -55 7 -48 7 3 15 15 18 29 9 35 54 34 58 -2
3 -22 -4 -29 -45 -50 -45 -24 -48 -28 -48 -65 0 -35 3 -39 27 -42 15 -2 37 2
50 9 16 9 23 9 26 0 5 -16 37 -14 52 5 11 12 11 15 -1 12 -11 -2 -15 13 -17
72 -2 41 -8 80 -14 87 -17 21 -92 16 -113 -7z m85 -104 c0 -37 -21 -62 -45
-52 -29 11 -30 38 -1 63 37 31 46 29 46 -11z"/>
<path d="M6900 6249 c-23 -9 -23 -11 -7 -20 15 -9 17 -26 17 -124 0 -98 -2
-115 -17 -124 -14 -8 -7 -10 32 -10 39 0 46 2 33 10 -13 7 -18 22 -18 50 0 36
2 39 20 29 27 -14 63 -4 92 27 30 33 33 120 4 152 -22 25 -68 28 -90 6 -8 -8
-17 -15 -20 -15 -3 0 -6 7 -6 15 0 17 -5 18 -40 4z m124 -41 c35 -49 9 -138
-39 -138 -30 0 -45 26 -45 81 0 70 51 104 84 57z"/>
<path d="M7107 6254 c-4 -4 -7 -19 -6 -33 0 -26 0 -26 11 -3 7 13 20 22 35 22
22 0 23 -3 23 -84 0 -72 -3 -85 -17 -89 -10 -3 9 -5 42 -5 45 -1 54 1 38 8
-21 9 -23 16 -23 90 0 78 1 80 25 80 13 0 29 -8 35 -17 9 -16 10 -15 8 7 -3
24 -6 25 -83 28 -45 1 -84 0 -88 -4z"/>
<path d="M7308 6248 c17 -17 16 -175 0 -181 -7 -3 10 -6 37 -6 39 0 46 2 33
10 -26 15 -22 27 22 75 l40 44 0 -59 c0 -38 -4 -61 -12 -64 -7 -3 10 -6 37 -6
39 0 46 2 33 10 -15 8 -18 24 -18 89 0 65 3 81 18 89 13 8 7 10 -31 11 -44 0
-46 -1 -35 -19 9 -15 7 -24 -9 -47 -12 -16 -30 -38 -42 -48 l-21 -19 0 56 c0
43 4 58 18 66 13 8 6 10 -32 11 -39 0 -47 -3 -38 -12z"/>
<path d="M7540 6249 c-23 -9 -23 -11 -7 -20 15 -9 17 -26 17 -124 0 -98 -2
-115 -17 -124 -14 -8 -7 -10 32 -10 39 0 46 2 33 10 -13 7 -18 22 -18 50 0 36
2 39 20 29 27 -14 63 -4 92 27 30 33 33 120 4 152 -22 25 -68 28 -90 6 -8 -8
-17 -15 -20 -15 -3 0 -6 7 -6 15 0 17 -5 18 -40 4z m124 -41 c35 -49 9 -138
-39 -138 -30 0 -45 26 -45 81 0 70 51 104 84 57z"/>
<path d="M7758 6248 c17 -17 16 -175 0 -181 -7 -3 16 -6 52 -6 75 -1 110 16
110 54 0 30 -35 55 -77 55 -31 0 -33 2 -33 35 0 28 5 38 23 45 17 7 10 9 -32
9 -43 1 -52 -2 -43 -11z m120 -131 c3 -21 -2 -29 -20 -36 -34 -13 -48 -3 -48
36 0 33 1 34 33 31 27 -2 33 -8 35 -31z"/>
<path d="M7933 6249 c14 -8 17 -25 17 -94 0 -71 -3 -84 -17 -88 -10 -3 7 -5
37 -6 42 0 51 2 38 10 -15 8 -18 24 -18 89 0 65 3 81 18 89 13 8 4 10 -38 10
-42 0 -51 -2 -37 -10z"/>
<path d="M10244 5621 c-48 -29 -86 -85 -91 -135 -7 -58 1 -86 31 -119 34 -37
78 -36 117 2 71 71 3 196 -82 151 -25 -14 -24 -3 2 40 26 42 44 57 84 69 l30
9 -30 1 c-16 1 -44 -8 -61 -18z m30 -133 c38 -53 3 -160 -42 -132 -41 26 -58
124 -24 143 27 16 50 13 66 -11z"/>
<path d="M10495 5609 c-18 -34 -15 -48 5 -24 13 16 120 22 120 7 0 -4 -18 -62
-40 -127 -22 -65 -40 -120 -40 -122 0 -2 6 -3 13 -3 10 0 107 265 107 293 0 4
-34 7 -75 7 -73 0 -75 -1 -90 -31z"/>
<path d="M10715 5609 c-18 -34 -15 -48 5 -24 13 16 120 22 120 7 0 -4 -18 -62
-40 -127 -22 -65 -40 -120 -40 -122 0 -2 6 -3 13 -3 10 0 107 265 107 293 0 4
-34 7 -75 7 -73 0 -75 -1 -90 -31z"/>
<path d="M2411 5611 c-31 -16 -32 -18 -12 -24 20 -5 21 -11 21 -121 0 -112 -1
-117 -22 -126 -17 -7 -8 -9 37 -8 33 0 52 2 43 5 -19 5 -19 4 -22 180 0 56 -3
104 -6 106 -3 3 -20 -3 -39 -12z"/>
<path d="M3648 5610 c21 -9 22 -14 22 -135 0 -121 -1 -126 -22 -135 -17 -6 -7
-9 42 -9 49 0 59 3 43 9 -22 9 -23 14 -23 135 l0 125 70 0 70 0 0 -107 c0
-128 -5 -151 -34 -156 -11 -2 11 -5 49 -5 51 -1 64 2 48 8 -22 9 -23 14 -23
135 0 121 1 126 23 135 14 6 -31 9 -133 9 -102 0 -147 -3 -132 -9z"/>
<path d="M3960 5515 c-19 -11 -21 -14 -7 -15 15 0 17 -13 17 -124 0 -90 -3
-126 -12 -129 -7 -3 7 -5 32 -5 25 0 39 2 33 5 -8 3 -13 23 -13 49 0 42 1 43
23 33 45 -20 103 23 107 81 4 53 -1 77 -20 98 -25 26 -66 29 -92 5 -17 -15
-18 -15 -18 0 0 21 -17 21 -50 2z m118 -23 c30 -19 36 -106 9 -139 -12 -16
-49 -17 -65 -1 -16 16 -16 120 0 136 14 14 37 15 56 4z"/>
<path d="M4183 5519 c14 -8 17 -24 17 -89 0 -65 -3 -81 -17 -89 -14 -8 -7 -10
32 -10 28 0 44 3 38 6 -23 9 -14 37 27 83 l39 45 1 -57 c0 -44 -4 -59 -17 -67
-14 -8 -5 -10 37 -10 30 1 47 3 38 6 -15 4 -18 17 -18 87 0 50 5 87 12 94 9 9
3 12 -30 12 -39 0 -41 -2 -30 -19 10 -16 6 -25 -28 -64 l-39 -45 -3 50 c-2 28
2 56 9 64 10 12 4 14 -37 14 -38 -1 -45 -3 -31 -11z"/>
<path d="M4420 5517 c8 -7 28 -29 44 -50 l28 -38 -42 -50 -41 -49 32 0 c25 0
30 3 21 12 -8 8 -6 18 9 40 11 15 24 28 28 28 3 0 15 -14 25 -31 15 -26 16
-33 5 -40 -9 -6 4 -9 36 -9 28 0 45 4 38 8 -7 4 -28 30 -47 57 -38 53 -38 51
13 108 l25 27 -31 0 c-25 0 -30 -3 -26 -18 2 -10 -3 -24 -12 -32 -13 -11 -18
-10 -29 6 -10 13 -11 23 -4 31 8 10 0 13 -38 13 -40 -1 -46 -3 -34 -13z"/>
<path d="M4678 5516 c-30 -22 -49 -79 -38 -116 18 -62 60 -88 116 -70 42 14
64 49 64 103 0 60 -34 97 -87 97 -21 0 -46 -7 -55 -14z m68 -4 c35 -23 48
-138 19 -162 -21 -18 -60 -5 -73 25 -34 75 4 171 54 137z"/>
<path d="M4855 5520 c-10 -16 6 -32 26 -27 14 4 24 -3 35 -24 13 -27 13 -31
-1 -45 -8 -8 -15 -19 -15 -24 0 -5 -12 -22 -26 -39 l-26 -31 30 0 c24 0 32 7
47 40 10 22 24 45 32 51 10 9 13 4 13 -29 0 -29 -5 -44 -17 -51 -14 -8 -5 -10
37 -10 42 0 51 2 38 10 -20 11 -26 89 -8 89 5 0 21 -22 35 -50 23 -45 29 -50
58 -50 25 1 29 3 15 10 -9 6 -28 31 -43 57 -31 56 -23 93 20 93 28 0 35 27 10
37 -17 6 -55 -23 -55 -42 0 -12 -31 -45 -43 -45 -15 0 -6 63 11 76 15 12 11
13 -32 14 -39 0 -47 -3 -38 -12 16 -16 16 -81 0 -76 -7 3 -23 23 -36 46 -23
41 -53 55 -67 32z"/>
<path d="M5174 5504 c-13 -19 -14 -28 -5 -37 13 -13 27 -1 33 28 2 14 11 20
28 20 19 0 26 -6 28 -26 3 -22 -4 -29 -45 -50 -45 -24 -48 -28 -48 -65 0 -35
3 -39 27 -42 15 -2 37 2 50 9 16 9 23 9 26 0 5 -16 37 -14 52 5 11 12 11 15
-1 12 -11 -2 -15 13 -17 72 -2 41 -8 80 -14 87 -6 7 -30 13 -54 13 -36 0 -47
-5 -60 -26z m86 -98 c0 -37 -21 -62 -45 -52 -29 11 -30 38 -1 63 37 31 46 29
46 -11z"/>
<path d="M5400 5517 c-34 -17 -39 -60 -9 -80 l21 -16 -22 -33 c-13 -18 -30
-39 -38 -45 -14 -11 -12 -13 11 -13 20 0 33 11 57 45 17 25 35 45 40 45 16 0
11 -57 -6 -74 -14 -15 -11 -16 33 -16 37 1 44 3 31 11 -25 14 -26 150 -2 173
14 15 11 16 -38 16 -29 0 -64 -6 -78 -13z m70 -40 c0 -19 -3 -36 -6 -39 -12
-12 -45 6 -50 28 -8 30 2 44 32 44 21 0 24 -5 24 -33z"/>
<path d="M5678 5518 c17 -17 16 -175 0 -181 -7 -3 10 -6 37 -6 39 0 46 2 33
10 -19 11 -26 89 -9 89 6 0 22 -22 38 -50 25 -45 31 -50 63 -49 23 0 29 3 18
7 -10 4 -31 29 -48 55 -27 44 -29 51 -18 75 9 18 21 27 38 27 32 0 34 29 3 33
-17 2 -28 -5 -42 -30 -41 -68 -61 -76 -61 -23 0 22 6 38 18 44 13 8 6 10 -32
11 -39 0 -47 -3 -38 -12z"/>
<path d="M5928 5516 c-30 -22 -49 -79 -38 -116 18 -62 60 -88 116 -70 42 14
64 49 64 103 0 60 -34 97 -87 97 -21 0 -46 -7 -55 -14z m68 -4 c35 -23 48
-138 19 -162 -21 -18 -60 -5 -73 25 -34 75 4 171 54 137z"/>
<path d="M6110 5515 c-19 -11 -21 -14 -7 -15 15 0 17 -13 17 -124 0 -90 -3
-126 -12 -129 -7 -3 7 -5 32 -5 25 0 39 2 33 5 -8 3 -13 23 -13 49 0 42 1 43
23 33 45 -20 103 23 107 81 4 53 -1 77 -20 98 -25 26 -66 29 -92 5 -17 -15
-18 -15 -18 0 0 21 -17 21 -50 2z m118 -23 c18 -12 33 -71 25 -101 -8 -36 -22
-51 -47 -51 -35 0 -46 20 -46 80 0 71 26 98 68 72z"/>
<path d="M6333 5519 c14 -8 17 -24 17 -89 0 -65 -3 -81 -17 -89 -14 -8 -7 -10
32 -10 28 0 44 3 38 6 -23 9 -14 37 27 83 l39 45 1 -57 c0 -44 -4 -59 -17 -67
-14 -8 -7 -10 32 -10 28 0 44 3 38 6 -17 6 -18 164 -1 181 9 9 3 12 -30 12
-39 0 -41 -2 -30 -19 10 -16 6 -25 -28 -64 l-39 -45 -3 50 c-2 28 2 56 9 64
10 12 4 14 -37 14 -38 -1 -45 -3 -31 -11z"/>
<path d="M6593 5516 c33 -25 12 -157 -28 -172 -9 -4 -15 -18 -14 -38 0 -17 3
-24 6 -16 10 28 37 40 93 40 56 0 83 -12 93 -40 3 -8 6 -1 6 17 1 17 -4 33
-11 35 -20 7 -23 133 -4 163 l16 25 -87 0 c-75 -1 -85 -3 -70 -14z m95 -88
l-3 -83 -44 -3 c-42 -3 -43 -2 -36 20 4 13 12 51 18 86 11 59 13 62 39 62 l29
0 -3 -82z"/>
<path d="M6818 5516 c-30 -22 -49 -79 -38 -116 18 -62 60 -88 116 -70 42 14
64 49 64 103 0 60 -34 97 -87 97 -21 0 -46 -7 -55 -14z m68 -4 c35 -23 48
-138 19 -162 -21 -18 -60 -5 -73 25 -34 75 4 171 54 137z"/>
<path d="M7000 5515 c-19 -11 -21 -14 -7 -15 15 0 17 -13 17 -124 0 -90 -3
-126 -12 -129 -7 -3 7 -5 32 -5 25 0 39 2 33 5 -8 3 -13 23 -13 49 0 42 1 43
23 33 45 -20 103 23 107 81 4 53 -1 77 -20 98 -25 26 -66 29 -92 5 -17 -15
-18 -15 -18 0 0 21 -17 21 -50 2z m118 -23 c18 -12 33 -71 25 -101 -8 -36 -22
-51 -47 -51 -35 0 -46 20 -46 80 0 71 26 98 68 72z"/>
<path d="M10390 5380 c-18 -11 -4 -42 17 -38 10 2 19 10 21 19 4 19 -19 31
-38 19z"/>
<path d="M10180 4949 c-22 -12 -28 -18 -15 -17 19 3 20 -4 23 -116 2 -104 0
-120 -15 -132 -16 -12 -11 -13 37 -13 48 0 53 1 38 13 -16 11 -18 31 -18 150
0 75 -3 136 -7 136 -5 -1 -24 -10 -43 -21z"/>
<path d="M10381 4911 l-30 -59 39 -6 c39 -6 90 -52 90 -82 0 -50 -46 -80 -95
-63 -19 7 -38 10 -41 6 -14 -13 20 -37 52 -37 43 0 102 51 109 95 8 41 -25 92
-73 113 -26 12 -36 22 -34 35 3 13 14 17 52 17 44 0 60 10 60 36 0 2 -22 4
-50 4 l-50 0 -29 -59z"/>
<path d="M10685 4939 c-18 -34 -15 -48 5 -24 13 16 120 22 120 7 0 -4 -18 -62
-40 -127 -22 -65 -40 -120 -40 -122 0 -2 6 -3 13 -3 10 0 107 265 107 293 0 4
-34 7 -75 7 -73 0 -75 -1 -90 -31z"/>
<path d="M10914 4945 c-14 -14 -24 -29 -21 -32 4 -3 13 2 22 11 19 19 56 21
73 4 7 -7 12 -25 12 -40 0 -21 -8 -33 -32 -48 -23 -14 -27 -20 -15 -20 26 0
67 -45 67 -73 0 -13 -9 -32 -20 -42 -19 -17 -31 -17 -89 1 -19 6 -22 4 -19
-12 7 -40 112 -26 143 20 22 30 19 86 -5 111 -20 21 -20 23 -3 53 16 29 17 34
3 59 -23 40 -80 44 -116 8z"/>
<path d="M2417 4948 c-9 -7 -21 -26 -27 -43 l-11 -29 25 27 c28 31 52 34 84
11 46 -32 15 -119 -72 -203 -20 -19 -36 -39 -36 -43 0 -4 36 -8 80 -8 78 0 80
0 95 30 14 27 5 44 -10 20 -3 -5 -31 -10 -61 -10 l-55 0 51 62 c77 92 87 132
45 173 -27 28 -80 34 -108 13z"/>
<path d="M3700 4938 c-87 -60 -93 -182 -11 -251 54 -45 143 -34 188 23 23 29
13 28 -16 -1 -41 -40 -98 -41 -142 -1 -27 24 -33 38 -37 83 -5 70 15 122 58
144 43 22 83 11 121 -33 17 -20 29 -29 25 -19 -3 10 -6 32 -6 49 0 23 -3 28
-12 20 -8 -5 -22 -6 -33 -1 -40 16 -101 10 -135 -13z"/>
<path d="M4193 4858 c-24 -11 -36 -34 -27 -49 10 -17 33 -9 36 14 5 34 52 31
56 -5 3 -22 -2 -28 -31 -37 -46 -15 -69 -43 -65 -77 5 -41 31 -53 69 -31 29
16 32 16 44 1 9 -13 16 -14 33 -5 25 13 30 34 7 25 -13 -5 -15 6 -15 69 0 67
-3 78 -22 91 -26 18 -53 19 -85 4z m63 -154 c-7 -19 -52 -18 -60 1 -8 23 3 44
33 59 25 14 26 13 29 -16 2 -16 1 -36 -2 -44z"/>
<path d="M3933 4849 c14 -8 17 -24 17 -86 0 -60 -4 -78 -17 -89 -16 -12 -12
-13 32 -14 38 0 46 3 37 12 -7 7 -12 44 -12 95 l0 83 40 0 40 0 0 -81 c0 -66
-3 -84 -17 -95 -16 -12 -12 -13 32 -14 38 0 46 3 37 12 -17 17 -16 175 1 181
6 3 -37 6 -98 6 -79 0 -105 -2 -92 -10z"/>
<path d="M4388 4851 c9 -5 12 -29 10 -82 -3 -71 -4 -74 -28 -74 -31 0 -34 -29
-3 -33 35 -5 53 33 53 115 l0 73 30 0 30 0 0 -85 c0 -69 -3 -86 -17 -94 -14
-8 -5 -10 37 -10 48 0 53 1 38 13 -14 11 -18 29 -18 89 0 62 3 78 18 86 12 8
-7 10 -73 11 -51 0 -84 -4 -77 -9z"/>
<path d="M4578 4853 c8 -3 12 -30 12 -87 0 -52 -5 -87 -12 -95 -11 -11 -1 -13
53 -9 84 7 109 20 109 58 0 34 -23 50 -75 52 -33 1 -35 3 -35 35 0 26 5 36 23
43 17 7 10 9 -33 9 -30 -1 -49 -3 -42 -6z m116 -115 c15 -25 -3 -52 -38 -56
-24 -3 -26 -1 -26 38 0 39 2 41 26 38 15 -2 32 -11 38 -20z"/>
<path d="M4783 4849 c14 -8 17 -24 17 -86 0 -60 -4 -78 -17 -89 -16 -12 -12
-13 32 -14 38 0 46 3 37 12 -7 7 -12 29 -12 50 0 38 0 38 40 38 39 0 40 -1 40
-36 0 -23 -6 -42 -17 -50 -16 -12 -12 -13 32 -14 38 0 46 3 37 12 -17 17 -16
175 1 181 6 3 -10 6 -38 6 -39 0 -46 -2 -32 -10 11 -6 17 -22 17 -44 0 -34 -1
-35 -40 -35 -40 0 -40 0 -40 39 0 22 5 42 13 44 6 3 -10 6 -38 6 -39 0 -46 -2
-32 -10z"/>
<path d="M5036 4841 c-21 -23 -14 -56 15 -72 19 -10 18 -12 -16 -60 -34 -45
-35 -49 -16 -49 14 0 33 16 53 45 18 25 35 45 40 45 13 0 9 -65 -4 -78 -9 -9
-2 -12 32 -12 34 0 41 3 32 12 -7 7 -12 44 -12 94 0 70 3 83 18 87 9 3 -15 5
-54 6 -58 1 -74 -2 -88 -18z m84 -31 c0 -28 -4 -40 -14 -40 -16 0 -46 26 -46
40 0 14 30 40 46 40 10 0 14 -12 14 -40z"/>
<path d="M10580 4710 c-18 -11 -4 -42 17 -38 10 2 19 10 21 19 4 19 -19 31
-38 19z"/>
<path d="M10180 4279 c-22 -12 -28 -18 -15 -17 19 3 20 -4 23 -116 2 -104 0
-120 -15 -132 -16 -12 -11 -13 37 -13 48 0 53 1 38 13 -16 11 -18 31 -18 150
0 75 -3 136 -7 136 -5 -1 -24 -10 -43 -21z"/>
<path d="M10365 4275 c-14 -13 -25 -31 -25 -39 0 -11 7 -8 25 9 36 37 70 32
94 -13 19 -36 -3 -85 -70 -156 -32 -35 -59 -66 -59 -70 0 -3 38 -6 85 -6 83 0
86 1 95 26 13 34 13 41 -2 26 -7 -7 -39 -12 -72 -12 l-60 0 45 48 c64 66 79
91 79 132 0 73 -84 107 -135 55z"/>
<path d="M10725 4208 c-83 -119 -84 -128 -5 -128 l60 0 0 -41 c0 -33 3 -40 18
-37 12 2 18 14 20 40 2 26 9 37 23 41 25 7 25 27 -1 27 -19 0 -20 7 -20 95 0
77 -3 95 -15 95 -8 0 -44 -42 -80 -92z m52 -95 c-3 -2 -26 -3 -51 -1 l-46 3
47 67 48 66 3 -65 c2 -36 1 -67 -1 -70z"/>
<path d="M10915 4275 c-14 -13 -25 -31 -25 -39 0 -11 7 -8 25 9 36 37 70 32
94 -13 19 -36 -3 -85 -70 -156 -32 -35 -59 -66 -59 -70 0 -3 38 -6 85 -6 83 0
86 1 95 26 13 34 13 41 -2 26 -7 -7 -39 -12 -72 -12 l-60 0 45 48 c64 66 79
91 79 132 0 73 -84 107 -135 55z"/>
<path d="M2400 4265 c-13 -14 -21 -27 -18 -30 3 -3 11 1 18 10 20 25 69 19 82
-10 9 -19 7 -29 -7 -51 -9 -14 -26 -29 -37 -32 -16 -4 -12 -8 20 -22 42 -19
55 -48 41 -89 -11 -29 -35 -36 -75 -22 -40 15 -61 7 -42 -16 9 -11 24 -14 57
-10 87 10 131 98 75 154 -23 23 -24 27 -10 42 59 65 -44 140 -104 76z"/>
<path d="M3648 4274 c21 -14 22 -23 22 -133 0 -112 -1 -119 -22 -134 -22 -15
-20 -16 42 -16 62 0 64 1 43 16 -19 13 -23 25 -23 69 0 74 18 71 81 -16 47
-65 53 -70 87 -70 l37 1 -27 20 c-15 11 -48 47 -73 80 l-45 59 25 36 c13 19
27 44 30 54 5 15 13 18 40 13 28 -5 35 -2 35 11 0 21 -23 30 -55 22 -19 -5
-32 -21 -49 -60 -22 -50 -48 -76 -75 -76 -7 0 -11 23 -11 54 0 45 4 58 22 70
21 15 19 16 -42 16 -61 0 -63 -1 -42 -16z"/>
<path d="M3935 4173 c8 -10 31 -53 51 -95 34 -70 36 -80 24 -107 -10 -26 -18
-31 -47 -31 -27 0 -34 -4 -31 -17 5 -27 41 -27 65 -1 12 13 43 75 68 138 26
63 52 118 59 122 6 4 -5 8 -24 8 -22 0 -30 -3 -22 -8 10 -7 8 -21 -9 -65 -12
-31 -25 -57 -28 -57 -9 0 -51 87 -51 104 0 8 6 17 13 19 6 3 -9 6 -35 6 -45 1
-47 0 -33 -16z"/>
<path d="M4150 4183 c16 -7 43 -37 61 -70 11 -20 8 -28 -25 -67 -20 -24 -36
-47 -36 -50 0 -3 12 -6 26 -6 20 0 25 4 20 16 -3 9 3 29 15 46 l22 30 18 -29
c11 -15 18 -36 15 -45 -3 -15 3 -18 41 -18 l46 0 -27 26 c-14 15 -35 42 -47
60 -23 38 -17 58 27 93 l27 21 -39 0 c-24 0 -34 -3 -26 -9 10 -6 9 -13 -6 -31
l-19 -24 -12 22 c-7 12 -9 27 -6 32 4 6 -13 10 -42 9 -26 0 -41 -3 -33 -6z"/>
<path d="M4378 4183 c16 -6 17 -164 0 -181 -9 -9 -1 -12 38 -12 43 1 47 2 32
14 -12 8 -18 27 -18 50 0 35 1 36 40 36 40 0 40 0 40 -38 0 -21 -5 -43 -12
-50 -9 -9 -1 -12 38 -12 43 1 47 2 32 14 -14 11 -18 29 -18 89 0 62 3 78 18
86 13 8 6 10 -33 10 -27 0 -44 -3 -37 -6 7 -2 12 -22 12 -44 0 -39 0 -39 -40
-39 -39 0 -40 1 -40 35 0 22 6 38 18 44 13 8 6 10 -33 10 -27 0 -44 -3 -37 -6z"/>
<path d="M4638 4179 c-24 -14 -23 -48 3 -76 l22 -22 -37 -46 c-36 -44 -37 -45
-14 -45 17 0 33 13 56 45 17 25 36 45 42 45 16 0 12 -52 -7 -72 -15 -17 -14
-18 32 -18 46 0 47 1 32 18 -25 27 -24 157 1 171 13 8 1 10 -48 10 -36 0 -73
-4 -82 -10z m80 -42 c3 -31 0 -37 -15 -37 -38 0 -56 43 -31 68 23 23 43 9 46
-31z"/>
<path d="M10580 4040 c-18 -11 -4 -42 17 -38 10 2 19 10 21 19 4 19 -19 31
-38 19z"/>
<path d="M10204 3629 c-12 -6 -27 -22 -33 -35 -16 -36 -14 -41 9 -16 28 30 75
29 95 -2 28 -42 3 -98 -84 -188 l-45 -48 87 0 c85 0 88 1 97 26 14 36 13 37
-12 20 -13 -9 -43 -16 -71 -16 l-48 0 49 58 c27 31 55 67 61 79 17 33 13 88
-7 106 -24 22 -71 29 -98 16z"/>
<path d="M10526 3619 c-33 -26 -34 -45 -1 -23 37 24 75 6 75 -35 0 -30 -5 -38
-45 -66 -20 -14 -20 -14 3 -15 30 0 62 -34 62 -65 0 -32 -36 -69 -58 -60 -43
16 -72 17 -72 2 0 -36 93 -27 137 15 32 30 32 90 0 122 -23 23 -23 24 -5 46
10 12 18 30 18 40 0 22 -45 60 -70 60 -10 0 -29 -9 -44 -21z"/>
<path d="M10764 3630 c-53 -21 -73 -121 -33 -161 17 -17 30 -20 65 -16 24 2
44 2 44 -2 0 -19 -56 -84 -88 -101 -35 -19 -36 -20 -7 -14 47 10 83 35 113 78
23 33 27 50 27 103 0 60 -2 67 -33 94 -33 30 -52 34 -88 19z m72 -45 c19 -46
18 -101 -2 -109 -31 -12 -63 -6 -74 13 -14 27 -13 104 2 119 24 24 58 14 74
-23z"/>
<path d="M4009 3604 c-15 -39 -99 -286 -99 -290 0 -2 4 -4 9 -4 11 0 116 309
107 317 -3 3 -10 -7 -17 -23z"/>
<path d="M2445 3528 c-83 -119 -84 -128 -5 -128 l60 0 0 -41 c0 -33 3 -40 18
-37 12 2 18 14 20 40 2 26 9 37 23 41 25 7 25 27 -1 27 -19 0 -20 7 -20 95 0
77 -3 95 -15 95 -8 0 -44 -42 -80 -92z m52 -95 c-3 -2 -26 -3 -51 -1 l-46 3
47 67 48 66 3 -65 c2 -36 1 -67 -1 -70z"/>
<path d="M3713 3599 c-89 -44 -110 -172 -40 -247 25 -27 88 -45 128 -37 32 7
89 50 89 68 0 6 -12 -1 -27 -15 -38 -36 -72 -43 -117 -24 -80 33 -90 187 -15
240 50 34 103 17 147 -50 12 -18 12 -17 8 6 -3 14 -6 39 -6 55 0 21 -3 26 -9
16 -7 -11 -15 -11 -41 -2 -47 16 -69 14 -117 -10z"/>
<path d="M4058 3593 c11 -10 45 -63 76 -118 60 -108 60 -129 2 -123 -36 4 -50
-26 -17 -37 45 -14 70 16 131 161 23 54 51 107 62 117 20 17 19 17 -28 17 -42
0 -46 -1 -29 -13 17 -13 17 -17 -10 -86 -16 -40 -32 -74 -35 -76 -4 -2 -26 31
-49 75 -38 73 -40 79 -24 89 14 8 5 10 -41 11 -57 0 -58 -1 -38 -17z"/>
<path d="M10393 3364 c-8 -22 18 -37 36 -20 7 8 10 19 7 25 -10 16 -36 13 -43
-5z"/>
<path d="M2417 2915 c-15 -31 -27 -58 -27 -60 0 -3 10 -5 23 -5 34 0 86 -36
93 -65 16 -65 -23 -105 -81 -84 -37 14 -51 9 -42 -16 8 -19 59 -20 97 0 84 44
79 152 -10 191 -56 25 -50 47 15 54 37 4 51 9 53 23 3 14 -4 17 -45 17 l-49 0
-27 -55z"/>
<path d="M10204 2959 c-12 -6 -27 -22 -33 -35 -16 -36 -14 -41 9 -16 28 30 75
29 95 -2 28 -42 3 -98 -84 -188 l-45 -48 87 0 c85 0 88 1 97 26 14 36 13 37
-12 20 -13 -9 -43 -16 -71 -16 l-48 0 49 58 c27 31 55 67 61 79 17 33 13 88
-7 106 -24 22 -71 29 -98 16z"/>
<path d="M10543 2960 c-47 -20 -55 -74 -18 -118 l24 -29 -24 -23 c-55 -52 -18
-125 62 -123 74 2 101 83 44 137 l-28 27 28 29 c33 33 36 50 12 79 -21 24 -68
35 -100 21z m77 -30 c13 -25 6 -51 -19 -74 -17 -16 -20 -15 -45 14 -14 17 -26
37 -26 44 0 38 72 50 90 16z m10 -205 c0 -27 -18 -45 -46 -45 -49 0 -71 62
-38 109 l16 23 34 -33 c19 -18 34 -42 34 -54z"/>
<path d="M10763 2960 c-47 -20 -55 -74 -18 -118 l24 -29 -24 -23 c-55 -52 -18
-125 62 -123 74 2 101 83 44 137 l-28 27 28 29 c33 33 36 50 12 79 -21 24 -68
35 -100 21z m77 -30 c13 -25 6 -51 -19 -74 -17 -16 -20 -15 -45 14 -14 17 -26
37 -26 44 0 38 72 50 90 16z m10 -205 c0 -27 -18 -45 -46 -45 -49 0 -71 62
-38 109 l16 23 34 -33 c19 -18 34 -42 34 -54z"/>
<path d="M3648 2940 c21 -9 22 -14 22 -135 0 -121 -1 -126 -22 -135 -17 -6 2
-9 65 -9 85 -1 90 0 118 28 32 32 35 47 18 84 -14 31 -48 47 -99 47 l-40 0 0
55 0 55 49 0 c40 0 53 -4 65 -22 16 -22 16 -22 16 10 l0 32 -107 -1 c-75 0
-101 -3 -85 -9z m142 -160 c40 -40 12 -100 -46 -100 l-34 0 0 60 0 60 30 0
c17 0 39 -9 50 -20z"/>
<path d="M3915 2844 c-18 -18 -17 -45 2 -51 6 -2 13 6 15 18 4 31 32 47 52 30
25 -21 19 -47 -14 -61 -70 -29 -100 -76 -68 -108 15 -15 60 -16 75 -1 8 8 17
7 32 -3 17 -10 25 -10 41 -1 12 8 21 9 25 3 11 -17 54 -11 65 9 5 11 10 51 10
90 l0 71 30 0 30 0 0 -84 c0 -72 -3 -85 -17 -89 -10 -3 7 -5 37 -6 42 0 51 2
38 10 -15 8 -18 24 -18 89 0 65 3 81 18 89 12 8 -7 10 -72 11 -70 0 -87 -3
-78 -12 14 -14 17 -154 3 -163 -5 -3 -12 -1 -16 5 -7 11 -33 9 -52 -3 -10 -6
-13 8 -13 60 0 88 -16 113 -70 113 -22 0 -45 -7 -55 -16z m85 -109 c0 -36 -28
-62 -56 -51 -22 8 -17 53 8 70 35 25 48 20 48 -19z"/>
<path d="M4313 2849 c14 -8 17 -24 17 -89 0 -65 -3 -81 -17 -89 -14 -8 -5 -10
37 -10 30 1 47 3 38 6 -14 3 -18 15 -18 49 0 24 2 44 5 44 3 0 19 -22 36 -50
26 -42 35 -50 61 -50 29 0 30 0 11 18 -11 9 -31 35 -44 57 -22 35 -24 43 -12
65 9 19 19 24 39 22 20 -3 25 0 22 15 -4 22 -32 29 -48 11 -6 -7 -20 -28 -30
-45 -25 -43 -40 -42 -40 2 0 22 6 38 18 44 13 8 4 10 -38 10 -42 0 -51 -2 -37
-10z"/>
<path d="M4567 2849 c-23 -13 -47 -62 -47 -94 0 -40 30 -84 66 -95 60 -20 113
21 121 94 5 40 2 48 -25 76 -32 32 -79 40 -115 19z m58 -5 c40 -16 59 -110 29
-152 -22 -32 -51 -28 -74 11 -24 38 -26 94 -4 125 16 23 23 26 49 16z"/>
<path d="M4743 2849 c14 -8 17 -24 17 -89 0 -65 -3 -81 -17 -89 -14 -8 -7 -10
32 -10 28 0 44 3 38 6 -8 2 -13 22 -13 44 0 39 0 39 40 39 39 0 40 -1 40 -35
0 -22 -6 -38 -17 -44 -14 -8 -5 -10 37 -10 30 1 47 3 38 6 -15 4 -18 17 -18
87 0 50 5 87 12 94 9 9 1 12 -37 12 -39 -1 -46 -3 -32 -11 11 -6 17 -22 17
-44 0 -34 -1 -35 -40 -35 -39 0 -40 1 -40 33 0 18 5 38 12 45 9 9 1 12 -37 12
-39 -1 -46 -3 -32 -11z"/>
<path d="M10393 2694 c-8 -22 18 -37 36 -20 7 8 10 19 7 25 -10 16 -36 13 -43
-5z"/>
<path d="M1975 2270 c-11 -18 5 -29 34 -24 26 5 29 2 49 -52 l21 -58 -29 -51
c-30 -52 -53 -78 -80 -88 -8 -3 4 -6 27 -6 l42 -1 37 70 c42 81 64 91 64 28 0
-62 -9 -86 -34 -91 -11 -2 11 -5 49 -5 51 -1 64 2 48 8 -20 8 -23 16 -23 70 0
33 4 60 10 60 5 0 27 -31 47 -70 37 -68 39 -70 78 -69 l40 0 -26 14 c-37 20
-102 131 -89 153 5 9 16 34 25 55 14 36 17 38 45 32 26 -6 30 -4 30 14 0 16
-6 21 -29 21 -35 0 -51 -18 -72 -79 -11 -33 -22 -47 -37 -49 -20 -3 -22 1 -22
53 0 48 3 57 23 65 16 6 6 9 -43 9 -36 -1 -58 -3 -50 -6 24 -9 30 -25 30 -76
0 -44 -2 -48 -21 -45 -24 3 -28 9 -58 81 -17 41 -24 47 -50 47 -16 0 -33 -4
-36 -10z"/>
<path d="M2378 2178 c17 -17 16 -175 0 -181 -7 -3 10 -6 37 -6 39 0 46 2 33
10 -26 15 -22 27 22 75 l40 44 0 -59 c0 -38 -4 -61 -12 -64 -7 -3 10 -6 37 -6
39 0 46 2 33 10 -15 8 -18 24 -18 89 0 65 3 81 18 89 13 8 7 10 -31 11 -44 0
-46 -1 -35 -19 9 -15 7 -24 -9 -47 -12 -16 -30 -38 -42 -48 l-21 -19 0 56 c0
43 4 58 18 66 13 8 6 10 -32 11 -39 0 -47 -3 -38 -12z"/>
<path d="M2643 2172 c17 -19 23 -94 11 -139 -5 -18 -10 -21 -24 -13 -19 10
-30 4 -30 -17 0 -16 42 -17 58 -1 7 7 12 43 12 90 l0 78 35 0 35 0 0 -80 c0
-74 -2 -81 -22 -90 -18 -7 -11 -9 32 -9 30 1 49 3 43 6 -17 6 -18 164 -1 181
9 9 -8 12 -77 12 -85 0 -87 -1 -72 -18z"/>
<path d="M2855 2174 c-18 -18 -17 -45 2 -51 6 -2 13 6 15 18 4 31 32 47 52 30
25 -21 19 -47 -14 -61 -70 -29 -100 -76 -68 -108 15 -15 60 -16 75 -1 8 8 17
7 32 -3 23 -14 51 -4 60 23 4 12 2 12 -12 0 -16 -12 -17 -8 -17 56 0 88 -16
113 -70 113 -22 0 -45 -7 -55 -16z m85 -109 c0 -36 -28 -62 -56 -51 -22 8 -17
53 8 70 35 25 48 20 48 -19z"/>
<path d="M3070 2177 c-34 -17 -39 -60 -9 -80 l21 -16 -22 -33 c-13 -18 -30
-39 -38 -45 -14 -11 -12 -13 11 -13 20 0 33 11 57 45 17 25 35 45 40 45 16 0
11 -57 -6 -74 -14 -15 -11 -16 33 -16 37 1 44 3 31 11 -25 14 -26 150 -2 173
14 15 11 16 -38 16 -29 0 -64 -6 -78 -13z m70 -40 c0 -19 -3 -36 -6 -39 -12
-12 -45 6 -50 28 -8 30 2 44 32 44 21 0 24 -5 24 -33z"/>
<path d="M3348 2178 c17 -17 16 -175 0 -181 -7 -3 10 -6 37 -6 39 0 46 2 33
10 -15 8 -18 24 -18 89 l0 80 40 0 40 0 0 -84 c0 -58 -4 -86 -12 -89 -7 -3 10
-6 37 -6 39 0 46 2 33 10 -15 8 -18 24 -18 89 0 65 3 81 18 89 12 8 -13 10
-92 11 -86 0 -107 -3 -98 -12z"/>
<path d="M3608 2178 c13 -13 17 -149 5 -161 -3 -4 -12 -2 -20 5 -10 8 -17 8
-25 0 -15 -15 -1 -32 27 -32 34 0 45 27 45 109 l0 71 30 0 30 0 0 -84 c0 -72
-3 -85 -17 -89 -10 -3 7 -5 37 -6 42 0 51 2 38 10 -15 8 -18 24 -18 89 0 65 3
81 18 89 12 8 -7 10 -72 11 -70 0 -87 -3 -78 -12z"/>
<path d="M3838 2176 c-30 -22 -49 -79 -38 -116 18 -62 60 -88 116 -70 42 14
64 49 64 103 0 60 -34 97 -87 97 -21 0 -46 -7 -55 -14z m68 -4 c35 -23 48
-138 19 -162 -21 -18 -60 -5 -73 25 -34 75 4 171 54 137z"/>
<path d="M4023 2179 c14 -8 17 -24 17 -89 0 -65 -3 -81 -17 -89 -13 -7 30 -10
147 -10 117 0 160 3 148 10 -15 8 -18 24 -18 89 0 65 3 81 18 89 13 8 6 10
-32 11 -40 0 -47 -2 -37 -14 8 -9 11 -43 9 -93 l-3 -78 -30 0 -30 0 -3 78 c-2
50 1 84 9 93 10 12 4 14 -37 14 -41 0 -45 -2 -30 -13 14 -10 16 -26 14 -92
l-3 -80 -30 0 -30 0 -3 78 c-2 50 1 84 9 93 10 12 3 14 -37 14 -38 -1 -45 -3
-31 -11z"/>
<path d="M4374 2164 c-13 -19 -14 -28 -5 -37 13 -13 27 -1 33 28 2 14 11 20
28 20 19 0 26 -6 28 -26 3 -22 -4 -29 -45 -50 -45 -24 -48 -28 -48 -65 0 -35
3 -39 27 -42 15 -2 37 2 50 9 16 9 23 9 26 0 5 -16 37 -14 52 5 11 12 11 15
-1 12 -11 -2 -15 13 -17 72 -2 41 -8 80 -14 87 -6 7 -30 13 -54 13 -36 0 -47
-5 -60 -26z m86 -98 c0 -37 -21 -62 -45 -52 -29 11 -30 38 -1 63 37 31 46 29
46 -11z"/>
<path d="M4593 2176 c33 -25 12 -157 -28 -172 -9 -4 -15 -18 -14 -38 0 -17 3
-24 6 -16 10 28 37 40 93 40 56 0 83 -12 93 -40 3 -8 6 -1 6 17 1 17 -4 33
-11 35 -20 7 -23 133 -4 163 l16 25 -87 0 c-75 -1 -85 -3 -70 -14z m97 -85 c0
-86 -3 -91 -62 -91 -27 0 -30 2 -23 23 4 12 12 50 18 85 11 59 13 62 39 62
l28 0 0 -79z"/>
<path d="M4788 2178 c17 -17 16 -175 0 -181 -7 -3 16 -6 52 -6 75 -1 110 16
110 54 0 30 -35 55 -77 55 -31 0 -33 2 -33 35 0 28 5 38 23 45 17 7 10 9 -32
9 -43 1 -52 -2 -43 -11z m120 -131 c3 -21 -2 -29 -20 -36 -34 -13 -48 -3 -48
36 0 33 1 34 33 31 27 -2 33 -8 35 -31z"/>
<path d="M5098 2178 c17 -17 16 -175 0 -181 -7 -3 10 -6 37 -6 39 0 46 2 33
10 -19 11 -26 89 -9 89 6 0 22 -22 37 -50 25 -46 30 -50 63 -49 23 0 30 3 19
7 -10 4 -31 29 -48 55 -27 44 -29 51 -18 75 9 18 21 27 38 27 32 0 34 29 3 33
-17 2 -28 -5 -42 -30 -41 -68 -61 -76 -61 -23 0 22 6 38 18 44 13 8 6 10 -32
11 -39 0 -47 -3 -38 -12z"/>
<path d="M5308 2179 c7 -8 12 -43 12 -95 0 -57 -4 -84 -12 -87 -7 -3 20 -6 60
-6 59 -1 75 2 92 19 26 26 25 45 -3 66 -22 17 -22 19 -5 36 22 22 22 28 4 53
-11 15 -30 20 -87 23 -61 3 -72 2 -61 -9z m110 -21 c7 -7 12 -15 12 -19 0 -15
-32 -39 -51 -39 -15 0 -19 7 -19 35 0 30 3 35 23 35 13 0 28 -5 35 -12z m11
-97 c16 -30 -12 -56 -56 -52 -8 1 -13 15 -13 36 0 32 2 35 30 35 18 0 33 -7
39 -19z"/>
<path d="M5535 2174 c-18 -18 -17 -45 2 -51 6 -2 13 6 15 18 4 31 32 47 52 30
25 -21 19 -47 -14 -61 -70 -29 -100 -76 -68 -108 15 -15 60 -16 75 -1 8 8 17
7 32 -3 23 -14 51 -4 60 23 4 12 2 12 -12 0 -16 -12 -17 -8 -17 56 0 88 -16
113 -70 113 -22 0 -45 -7 -55 -16z m85 -109 c0 -36 -28 -62 -56 -51 -22 8 -17
53 8 70 35 25 48 20 48 -19z"/>
<path d="M5710 2179 c-23 -9 -23 -11 -7 -20 15 -9 17 -26 17 -124 0 -98 -2
-115 -17 -124 -14 -8 -7 -10 32 -10 39 0 46 2 33 10 -13 7 -18 22 -18 50 0 36
2 39 20 29 27 -14 63 -4 92 27 30 33 33 120 4 152 -22 25 -68 28 -90 6 -8 -8
-17 -15 -20 -15 -3 0 -6 7 -6 15 0 17 -5 18 -40 4z m124 -41 c35 -49 9 -138
-39 -138 -30 0 -45 26 -45 81 0 70 51 104 84 57z"/>
<path d="M5910 2176 c0 -8 -3 -23 -6 -33 -4 -14 -1 -13 12 5 9 12 27 22 40 22
23 0 24 -2 24 -80 0 -65 -3 -81 -17 -89 -14 -8 -5 -10 37 -10 30 0 48 3 40 6
-25 10 -30 25 -30 101 0 70 1 72 24 72 14 0 32 -10 42 -22 l16 -23 -6 25 c-3
14 -6 28 -6 33 0 4 -38 7 -85 7 -67 0 -85 -3 -85 -14z"/>
<path d="M6113 2179 c14 -8 17 -24 17 -89 0 -65 -3 -81 -17 -89 -14 -8 -7 -10
32 -10 28 0 44 3 38 6 -23 9 -14 37 27 83 l39 45 1 -57 c0 -44 -4 -59 -17 -67
-14 -8 -5 -10 37 -10 30 1 47 3 38 6 -15 4 -18 17 -18 87 0 50 5 87 12 94 9 9
3 12 -30 12 -39 0 -41 -2 -30 -19 10 -16 6 -25 -28 -64 l-39 -45 -3 50 c-2 28
2 56 9 64 10 12 4 14 -37 14 -38 -1 -45 -3 -31 -11z"/>
<path d="M6350 2179 c-23 -9 -23 -11 -7 -20 15 -9 17 -26 17 -122 0 -75 -4
-117 -12 -125 -9 -9 -2 -12 33 -12 35 1 40 3 27 11 -13 7 -18 22 -18 50 0 36
2 39 20 29 27 -14 63 -4 92 27 30 33 33 120 4 152 -22 25 -68 28 -90 6 -8 -8
-17 -15 -20 -15 -3 0 -6 7 -6 15 0 17 -5 18 -40 4z m124 -41 c35 -49 9 -138
-39 -138 -30 0 -45 26 -45 81 0 70 51 104 84 57z"/>
<path d="M6568 2178 c17 -17 16 -175 0 -181 -7 -3 16 -6 52 -6 75 -1 110 16
110 54 0 30 -35 55 -77 55 -31 0 -33 2 -33 35 0 28 5 38 23 45 17 7 10 9 -32
9 -43 1 -52 -2 -43 -11z m120 -130 c3 -22 -2 -30 -23 -38 -35 -13 -45 -6 -45
36 0 34 1 35 33 32 27 -2 33 -8 35 -30z"/>
<path d="M6743 2179 c14 -8 17 -25 17 -94 0 -71 -3 -84 -17 -88 -10 -3 7 -5
37 -6 42 0 51 2 38 10 -15 8 -18 24 -18 89 0 65 3 81 18 89 13 8 4 10 -38 10
-42 0 -51 -2 -37 -10z"/>
<path d="M2420 1649 c-75 -8 -86 -14 -110 -63 -24 -51 -27 -144 -5 -186 49
-94 175 -46 175 67 0 33 -60 93 -93 93 -14 0 -39 -11 -56 -25 l-30 -26 9 32
c14 49 36 66 92 72 29 4 59 13 67 22 20 20 15 21 -49 14z m-7 -127 c21 -23 31
-90 18 -124 -15 -41 -65 -39 -86 2 -17 33 -20 93 -5 121 13 24 52 25 73 1z"/>
<path d="M2032 1629 c-44 -28 -62 -67 -62 -131 0 -91 53 -148 138 -148 76 0
142 71 142 153 0 47 -20 87 -60 121 -40 34 -109 36 -158 5z m138 -25 c22 -22
25 -32 25 -103 0 -84 -14 -113 -62 -132 -32 -12 -81 8 -98 42 -20 37 -19 142
1 180 27 54 87 60 134 13z"/>
<path d="M2893 1548 c-24 -11 -36 -34 -27 -49 10 -17 33 -9 36 14 5 34 52 31
56 -5 3 -22 -2 -28 -31 -37 -46 -15 -69 -43 -65 -77 5 -41 31 -53 69 -31 29
16 32 16 44 1 9 -13 16 -14 33 -5 25 13 30 34 7 25 -13 -5 -15 6 -15 69 0 67
-3 78 -22 91 -26 18 -53 19 -85 4z m63 -154 c-7 -19 -52 -18 -60 1 -8 23 3 44
33 59 25 14 26 13 29 -16 2 -16 1 -36 -2 -44z"/>
<path d="M3873 1550 c-60 -25 -76 -125 -27 -174 69 -69 179 10 153 110 -15 55
-75 86 -126 64z m71 -32 c19 -27 21 -119 4 -136 -19 -19 -55 -14 -72 10 -19
27 -21 119 -4 136 19 19 55 14 72 -10z"/>
<path d="M4413 1548 c-24 -11 -36 -34 -27 -49 10 -17 33 -9 36 14 5 34 52 31
56 -5 3 -22 -2 -28 -31 -37 -46 -15 -69 -43 -65 -77 5 -41 31 -53 69 -31 29
16 32 16 44 1 9 -13 16 -14 33 -5 25 13 30 34 7 25 -13 -5 -15 6 -15 69 0 67
-3 78 -22 91 -26 18 -53 19 -85 4z m63 -154 c-7 -19 -52 -18 -60 1 -8 23 3 44
33 59 25 14 26 13 29 -16 2 -16 1 -36 -2 -44z"/>
<path d="M5573 1548 c-24 -11 -36 -34 -27 -49 10 -17 33 -9 36 14 5 34 52 31
56 -5 3 -22 -2 -28 -31 -37 -46 -15 -69 -43 -65 -77 5 -41 31 -53 69 -31 29
16 32 16 44 1 9 -13 16 -14 33 -5 25 13 30 34 7 25 -13 -5 -15 6 -15 69 0 67
-3 78 -22 91 -26 18 -53 19 -85 4z m63 -154 c-7 -19 -52 -18 -60 1 -8 23 3 44
33 59 25 14 26 13 29 -16 2 -16 1 -36 -2 -44z"/>
<path d="M5741 1546 c-15 -8 -20 -16 -12 -20 7 -5 11 -48 11 -126 0 -103 -2
-120 -17 -129 -14 -8 -5 -10 37 -10 42 0 51 2 38 10 -12 7 -18 22 -18 47 0 37
0 38 38 34 33 -3 42 1 65 28 37 44 38 120 2 155 -30 31 -52 31 -82 3 l-23 -21
0 21 c0 25 -6 26 -39 8z m132 -75 c10 -41 -7 -98 -33 -106 -11 -3 -28 -1 -40
5 -17 9 -20 21 -20 70 0 49 4 61 22 74 29 21 59 2 71 -43z"/>
<path d="M6381 1546 c-15 -8 -20 -16 -12 -20 7 -5 11 -48 11 -126 0 -103 -2
-120 -17 -129 -14 -8 -5 -10 37 -10 42 0 51 2 38 10 -12 7 -18 22 -18 47 0 37
0 38 38 34 33 -3 42 1 65 28 37 44 38 120 2 155 -30 31 -52 31 -82 3 l-23 -21
0 21 c0 25 -6 26 -39 8z m132 -75 c10 -41 -7 -98 -33 -106 -11 -3 -28 -1 -40
5 -17 9 -20 21 -20 70 0 49 4 61 22 74 29 21 59 2 71 -43z"/>
<path d="M2518 1543 c16 -6 17 -164 0 -181 -9 -9 23 -12 146 -12 l157 0 -15
22 c-22 31 -22 141 0 162 14 15 11 16 -33 16 -37 -1 -44 -3 -30 -11 14 -8 17
-24 17 -90 l0 -80 -37 3 -38 3 -3 75 c-2 62 0 77 14 87 15 11 11 13 -31 13
-42 0 -46 -2 -31 -13 14 -10 16 -25 14 -87 l-3 -75 -37 -3 -38 -3 0 80 c0 66
3 82 18 90 13 8 6 10 -33 10 -27 0 -44 -3 -37 -6z"/>
<path d="M3078 1539 c-24 -14 -23 -48 3 -76 l22 -22 -37 -46 c-36 -44 -37 -45
-14 -45 17 0 33 13 56 45 17 25 36 45 42 45 16 0 12 -52 -7 -72 -15 -17 -14
-18 32 -18 46 0 47 1 32 18 -25 27 -24 157 1 171 13 8 1 10 -48 10 -36 0 -73
-4 -82 -10z m80 -42 c3 -31 0 -37 -15 -37 -38 0 -56 43 -31 68 23 23 43 9 46
-31z"/>
<path d="M3368 1543 c16 -6 17 -164 0 -181 -9 -9 -1 -12 37 -12 44 1 48 2 33
14 -15 11 -18 29 -18 95 l0 81 40 0 40 0 0 -83 c0 -51 -5 -88 -12 -95 -9 -9
-1 -12 38 -12 43 1 47 2 32 14 -14 11 -18 29 -18 89 0 62 3 78 18 86 12 8 -14
10 -93 10 -60 0 -104 -3 -97 -6z"/>
<path d="M3628 1541 c9 -5 12 -29 10 -82 -3 -71 -4 -74 -28 -74 -31 0 -34 -29
-3 -33 35 -5 53 33 53 115 l0 73 30 0 30 0 0 -85 c0 -69 -3 -86 -17 -94 -14
-8 -5 -10 37 -10 48 0 53 1 38 13 -14 11 -18 29 -18 89 0 62 3 78 18 86 12 8
-7 10 -73 11 -51 0 -84 -4 -77 -9z"/>
<path d="M4043 1539 c14 -8 17 -24 17 -86 0 -60 -4 -78 -17 -89 -15 -11 6 -13
140 -14 98 0 157 4 157 10 0 6 -4 10 -10 10 -6 0 -10 35 -10 84 0 72 3 85 18
89 9 3 -5 5 -33 5 -27 0 -44 -2 -37 -5 8 -3 12 -31 12 -89 l0 -84 -35 0 -35 0
0 84 c0 58 4 86 13 89 6 3 -10 5 -38 5 -27 0 -42 -2 -32 -5 14 -4 17 -17 17
-89 l0 -84 -35 0 -35 0 0 84 c0 58 4 86 13 89 6 3 -10 6 -38 6 -39 0 -46 -2
-32 -10z"/>
<path d="M4613 1539 c33 -19 12 -150 -28 -165 -9 -4 -15 -18 -15 -36 l0 -30
18 21 c15 19 25 22 87 19 63 -3 71 -5 82 -28 l13 -25 0 26 c0 15 -7 40 -15 55
-20 39 -20 138 1 158 14 15 7 16 -73 16 -65 -1 -83 -3 -70 -11z m97 -84 l0
-85 -49 0 -50 0 14 27 c8 15 17 54 21 85 6 56 8 58 35 58 l29 0 0 -85z"/>
<path d="M4813 1539 c14 -8 17 -24 17 -86 0 -60 -4 -79 -17 -90 -16 -13 -9
-14 56 -9 76 5 111 23 111 56 0 26 -32 49 -73 52 -36 2 -37 3 -37 39 0 27 5
39 18 42 9 3 -8 5 -38 6 -42 0 -51 -2 -37 -10z m111 -105 c9 -8 16 -19 16 -24
0 -16 -31 -40 -51 -40 -16 0 -19 7 -19 40 0 33 3 40 19 40 11 0 27 -7 35 -16z"/>
<path d="M5118 1543 c16 -6 17 -164 0 -181 -9 -9 -1 -12 38 -12 43 1 47 2 32
14 -19 14 -26 86 -9 86 5 0 23 -22 40 -50 24 -39 37 -50 56 -50 27 0 34 14 11
23 -7 3 -25 26 -40 51 -22 38 -24 49 -15 70 7 15 22 26 36 28 33 4 34 22 2 26
-22 3 -30 -3 -45 -35 -24 -49 -54 -57 -54 -14 0 18 7 34 18 40 13 8 6 10 -33
10 -27 0 -44 -3 -37 -6z"/>
<path d="M5333 1539 c14 -8 17 -24 17 -86 0 -60 -4 -78 -17 -89 -16 -12 -11
-13 37 -13 80 0 124 18 128 51 2 17 -4 31 -18 41 -18 12 -19 16 -5 27 19 16
19 44 -1 64 -11 12 -35 16 -87 16 -54 -1 -68 -3 -54 -11z m98 -9 c28 -15 24
-49 -7 -60 -35 -14 -34 -15 -34 30 0 41 8 47 41 30z m10 -90 c37 -20 17 -70
-28 -70 -20 0 -23 5 -23 40 0 43 13 50 51 30z"/>
<path d="M5940 1541 c0 -5 -3 -18 -6 -28 -6 -15 -3 -14 15 5 12 12 31 22 41
22 18 0 20 -7 20 -77 0 -57 -4 -81 -17 -95 -15 -17 -14 -18 37 -18 51 0 52 0
31 18 -20 15 -22 25 -19 92 3 84 19 100 57 59 21 -22 27 -16 15 15 -5 13 -23
16 -90 16 -46 0 -84 -4 -84 -9z"/>
<path d="M6138 1543 c16 -6 17 -164 0 -181 -9 -9 -3 -12 30 -12 39 0 41 1 30
19 -10 17 -6 26 28 68 l39 48 3 -53 c2 -31 -2 -60 -9 -68 -10 -12 -4 -14 37
-14 43 1 47 2 32 14 -14 11 -18 29 -18 89 0 62 3 78 18 86 13 8 6 10 -33 10
-27 0 -44 -3 -37 -6 22 -9 12 -37 -28 -83 l-40 -45 0 57 c0 44 4 59 18 67 13
8 6 10 -33 10 -27 0 -44 -3 -37 -6z"/>
<path d="M6588 1543 c8 -3 12 -30 12 -87 0 -52 -5 -87 -12 -95 -11 -11 -1 -13
53 -9 84 7 109 20 109 58 0 34 -23 50 -75 52 -34 1 -35 3 -35 39 0 31 4 38 23
42 12 2 -3 5 -33 5 -30 0 -49 -2 -42 -5z m116 -115 c15 -25 -3 -52 -38 -56
-24 -3 -26 -1 -26 38 0 39 2 41 26 38 15 -2 32 -11 38 -20z"/>
<path d="M6763 1543 c14 -4 17 -17 17 -87 0 -50 -5 -87 -12 -94 -9 -9 -1 -12
38 -12 43 1 47 2 32 14 -14 11 -18 29 -18 89 0 62 3 78 18 86 13 8 4 10 -38
10 -30 -1 -47 -3 -37 -6z"/>
<path d="M10191 2286 c-17 -9 -20 -15 -10 -18 18 -6 26 -206 10 -237 -11 -19
-9 -21 16 -21 l28 0 -3 145 c-2 80 -6 145 -10 145 -4 -1 -18 -7 -31 -14z"/>
<path d="M10384 2248 c-29 -57 -30 -68 -4 -68 50 0 100 -49 100 -98 0 -39 -77
-82 -95 -52 -7 12 -45 14 -45 2 0 -32 54 -41 100 -17 40 21 60 53 60 98 0 31
-7 45 -31 68 -17 16 -36 29 -43 29 -22 0 -37 17 -30 33 5 13 19 17 55 17 37 0
49 4 49 15 0 16 1 16 -53 19 -37 2 -40 -1 -63 -46z"/>
<path d="M10694 2289 c-2 -3 -8 -19 -14 -35 -11 -27 -10 -27 8 -11 13 12 36
17 75 17 l56 0 -44 -131 c-24 -72 -39 -129 -33 -127 13 5 110 287 100 289 -31
4 -145 3 -148 -2z"/>
<path d="M10932 2293 c-7 -2 -17 -14 -23 -26 -9 -18 -9 -20 2 -9 17 15 61 16
77 0 28 -28 7 -84 -38 -101 -13 -5 -12 -6 1 -6 9 -1 28 -10 43 -22 49 -38 24
-117 -33 -106 -56 12 -64 12 -68 0 -6 -16 33 -26 74 -18 75 14 113 110 60 152
-23 18 -23 18 -5 48 23 38 23 50 -2 75 -19 19 -59 25 -88 13z"/>
<path d="M10575 2030 c-4 -7 -3 -16 3 -22 14 -14 45 -2 40 15 -6 16 -34 21
-43 7z"/>
<path d="M10220 1535 c-36 -52 -66 -101 -68 -109 -3 -13 8 -16 62 -16 l66 0 0
-35 c0 -24 5 -35 15 -35 10 0 15 11 15 35 0 28 4 35 20 35 11 0 20 7 20 15 0
8 -9 15 -20 15 -19 0 -20 7 -20 95 0 69 -3 95 -12 95 -7 0 -42 -43 -78 -95z
m60 -25 l0 -70 -50 0 c-27 0 -50 4 -50 8 0 10 88 132 95 132 3 0 5 -31 5 -70z"/>
<path d="M10437 1619 c-50 -29 -70 -170 -34 -237 49 -91 144 -51 162 69 17
114 -56 210 -128 168z m69 -20 c27 -30 28 -192 1 -232 -42 -65 -82 -10 -82
113 0 121 34 171 81 119z"/>
<path d="M10783 1615 c-36 -16 -42 -24 -15 -21 15 1 17 -11 17 -127 l0 -127
29 0 c22 0 26 3 18 13 -7 8 -13 69 -14 144 l-3 131 -32 -13z"/>
<path d="M10968 1605 c-47 -47 -44 -118 7 -151 24 -16 38 -15 77 1 16 6 16 4
7 -23 -13 -37 -58 -80 -95 -92 -25 -7 -26 -8 -6 -9 30 -1 71 21 103 56 40 42
49 66 49 128 0 49 -4 60 -29 86 -37 37 -79 38 -113 4z m88 -11 c22 -33 24
-111 4 -124 -22 -14 -56 -12 -70 5 -7 8 -15 35 -18 60 -8 75 48 115 84 59z"/>
<path d="M10622 1353 c2 -10 10 -18 18 -18 8 0 16 8 18 18 2 12 -3 17 -18 17
-15 0 -20 -5 -18 -17z"/>
</g>
</svg>
