<?xml version="1.0" standalone="no"?>
<!DOCTYPE svg PUBLIC "-//W3C//DTD SVG 20010904//EN"
 "http://www.w3.org/TR/2001/REC-SVG-20010904/DTD/svg10.dtd">
<svg version="1.0" xmlns="http://www.w3.org/2000/svg"
 width="3307.000000pt" height="2339.000000pt" viewBox="0 0 3307.000000 2339.000000"
 preserveAspectRatio="xMidYMid meet">

<g transform="translate(0.000000,2339.000000) scale(0.100000,-0.100000)"
fill="#000000" stroke="none">
<path d="M0 11695 l0 -11695 16535 0 16535 0 0 11695 0 11695 -16535 0 -16535
0 0 -11695z m33060 0 l0 -11685 -16525 0 -16525 0 0 11685 0 11685 16525 0
16525 0 0 -11685z"/>
<path d="M1170 11695 l0 -11305 15758 2 15757 3 0 11300 0 11300 -15757 3
-15758 2 0 -11305z m31490 0 l0 -11285 -15730 0 -15730 0 0 11285 0 11285
15730 0 15730 0 0 -11285z"/>
<path d="M3446 22482 c-3 -5 -42 -95 -86 -198 -56 -131 -89 -196 -108 -211
l-27 -23 70 0 c68 1 69 1 43 16 -33 18 -34 26 -5 84 l22 45 81 3 81 3 22 -50
c26 -62 26 -66 -1 -85 -21 -15 -17 -16 67 -16 85 1 89 2 63 16 -34 18 -41 32
-130 243 -71 170 -81 190 -92 173z m10 -129 c8 -21 24 -59 35 -85 l19 -48 -74
0 -74 0 36 85 c20 47 38 85 39 85 2 0 10 -17 19 -37z"/>
<path d="M5402 22474 c-25 -17 -52 -64 -52 -91 0 -14 3 -13 17 7 9 14 24 30
33 37 16 13 68 17 95 7 20 -8 45 -56 45 -86 0 -48 -50 -128 -131 -213 l-82
-86 133 3 133 3 13 38 c13 38 6 48 -16 22 -9 -11 -34 -15 -97 -15 l-84 0 70
80 c83 94 111 144 111 201 0 33 -6 47 -34 75 -29 29 -41 34 -83 34 -28 0 -58
-7 -71 -16z"/>
<path d="M5732 22474 c-25 -17 -52 -64 -52 -91 0 -14 3 -13 17 7 9 14 24 30
33 37 16 13 68 17 95 7 20 -8 45 -56 45 -86 0 -48 -50 -128 -131 -213 l-82
-86 133 3 133 3 13 38 c13 38 6 48 -16 22 -9 -11 -34 -15 -97 -15 l-84 0 70
80 c83 94 111 144 111 201 0 33 -6 47 -34 75 -29 29 -41 34 -83 34 -28 0 -58
-7 -71 -16z"/>
<path d="M1740 22471 l25 -7 3 -192 2 -193 -32 -14 c-31 -13 -27 -14 78 -15
140 0 168 6 205 42 24 25 29 38 29 79 0 39 -5 55 -24 74 -27 27 -83 45 -143
45 l-43 0 0 85 0 85 65 0 c68 0 105 -20 105 -55 0 -8 5 -15 10 -15 11 0 13 33
4 68 -6 22 -9 22 -158 21 -83 -1 -140 -4 -126 -8z m207 -229 c11 -6 23 -19 27
-28 9 -24 7 -73 -4 -95 -14 -25 -62 -49 -100 -49 l-30 0 0 94 c0 67 4 96 13
99 15 5 66 -6 94 -21z"/>
<path d="M4418 22473 c35 -7 42 -41 42 -197 0 -185 -4 -204 -44 -215 -22 -6
20 -9 141 -10 l171 -1 16 47 c22 65 20 74 -9 31 -28 -41 -67 -58 -136 -58 -79
0 -79 0 -79 106 l0 94 48 0 c70 0 93 -9 108 -44 13 -29 13 -27 13 49 0 63 -2
75 -10 55 -14 -35 -26 -40 -96 -40 l-63 0 0 85 0 85 78 0 c86 0 100 -6 118
-47 12 -28 12 -27 13 20 l1 47 -167 -1 c-93 -1 -158 -4 -145 -6z"/>
<path d="M2503 22330 c-63 -38 -88 -129 -55 -203 26 -58 62 -82 123 -82 82 0
140 63 141 153 0 90 -55 152 -137 152 -22 0 -54 -9 -72 -20z m97 -10 c60 -32
73 -199 19 -242 -29 -24 -42 -23 -78 7 -21 19 -33 41 -42 79 -25 115 27 196
101 156z"/>
<path d="M2973 22338 c-12 -6 -29 -27 -37 -48 -18 -46 -41 -70 -67 -70 -18 0
-20 6 -17 47 2 39 7 50 28 60 22 11 17 13 -50 12 -56 0 -69 -3 -52 -9 22 -9
23 -13 20 -132 -3 -119 -4 -123 -28 -135 -22 -11 -16 -13 55 -13 71 0 77 2 55
13 -22 11 -25 20 -28 76 -4 83 13 80 71 -14 42 -69 43 -70 87 -73 45 -2 45 -2
23 15 -13 10 -42 48 -66 85 l-44 67 21 38 c19 33 26 38 54 35 36 -4 52 18 32
43 -14 17 -26 18 -57 3z"/>
<path d="M2148 22330 c21 -9 22 -15 22 -118 0 -82 -4 -112 -14 -121 -10 -8
-16 -9 -21 -1 -8 12 -42 13 -49 1 -13 -20 7 -41 39 -41 57 0 69 26 74 156 l3
114 49 0 49 0 0 -104 c0 -119 -9 -153 -42 -159 -13 -2 13 -5 57 -5 64 -1 76 1
58 10 -22 11 -23 16 -23 135 0 119 1 124 23 133 15 6 -23 9 -113 9 -90 0 -128
-3 -112 -9z"/>
<path d="M3898 22330 c22 -9 23 -13 20 -132 -3 -119 -4 -123 -28 -135 -22 -11
-17 -13 49 -13 l73 0 -23 19 c-21 17 -22 21 -11 42 8 13 38 51 68 84 l54 60
-2 -90 c-3 -84 -4 -90 -28 -102 -22 -11 -16 -13 55 -13 71 0 77 2 55 13 -24
12 -25 17 -28 117 -3 126 1 147 31 153 12 2 -12 4 -53 4 -41 1 -67 -1 -58 -4
38 -10 31 -42 -21 -102 -83 -96 -81 -95 -81 -5 0 86 5 99 35 107 11 2 -14 5
-55 5 -55 1 -69 -2 -52 -8z"/>
<path d="M6018 22330 c22 -9 23 -13 20 -132 -3 -119 -4 -123 -28 -135 -21 -11
16 -13 220 -12 184 0 239 3 223 11 -22 11 -23 16 -23 135 0 119 1 124 23 133
16 6 2 9 -53 9 -55 0 -69 -3 -52 -9 21 -9 22 -14 22 -135 l0 -126 -52 3 -53 3
-3 123 c-3 119 -2 123 20 132 17 6 4 9 -52 9 -67 1 -72 -1 -50 -12 24 -12 25
-17 28 -112 4 -144 3 -147 -61 -143 l-52 3 -3 105 c-3 126 1 147 31 153 12 2
-12 5 -53 5 -55 1 -69 -2 -52 -8z"/>
<path d="M6501 22298 c0 -24 3 -36 6 -28 12 32 37 50 70 50 l33 0 0 -112 c0
-118 -3 -128 -35 -146 -16 -9 -3 -11 65 -11 47 1 76 4 65 6 -42 10 -45 21 -45
144 l0 119 35 0 c29 0 39 -6 55 -32 16 -26 20 -29 20 -13 0 11 -3 30 -6 43 -6
21 -10 22 -135 22 l-129 0 1 -42z"/>
<path d="M4970 22195 c0 -25 1 -25 80 -25 79 0 80 0 80 25 0 25 -1 25 -80 25
-79 0 -80 0 -80 -25z"/>
<path d="M6837 22104 c-15 -16 -7 -53 14 -59 30 -10 58 19 43 43 -12 18 -45
28 -57 16z"/>
<path d="M16020 18978 c-1 -937 -1 -8091 0 -8100 0 -5 25 -8 55 -8 l55 0 0
-110 0 -110 125 0 125 0 0 110 0 109 63 3 62 3 3 268 2 267 261 0 260 0 -7
-37 c-3 -21 -12 -69 -19 -107 -12 -64 -11 -69 6 -73 18 -5 19 -31 19 -764 l0
-759 -220 0 c-121 0 -220 4 -220 8 0 8 -131 -3 -180 -15 -19 -4 -9 -9 45 -19
140 -26 135 -26 135 -9 0 13 28 15 220 15 l220 0 0 -50 c0 -42 -3 -50 -19 -50
-18 0 -18 -2 0 -102 10 -57 19 -104 19 -105 0 -2 -146 -3 -324 -3 l-324 0 -8
217 c-7 170 -10 195 -12 115 l-3 -102 -78 6 c-43 4 -95 4 -115 0 l-36 -7 0
-410 0 -410 123 3 122 3 3 58 3 57 3454 0 c2158 0 3456 4 3460 9 3 6 6 2117 6
4692 1 3650 -1 4683 -11 4689 -6 4 -135 6 -286 5 l-274 -2 -2 661 -3 661
-1392 3 -1393 2 0 60 0 60 -1960 0 -1960 0 0 -732z m2770 667 l0 -55 -765 0
-765 0 0 55 0 55 765 0 765 0 0 -55z m-2150 -114 c305 -88 549 -160 542 -160
-11 -1 -1035 289 -1092 309 -14 4 -20 9 -15 9 6 1 260 -71 565 -158z m2275
139 c13 -5 14 -9 5 -9 -8 0 -24 4 -35 9 -13 5 -14 9 -5 9 8 0 24 -4 35 -9z
m100 -30 c28 -10 43 -18 35 -18 -8 0 -37 8 -65 18 -27 10 -43 18 -35 18 8 0
38 -8 65 -18z m145 -45 c19 -7 28 -13 20 -13 -8 0 -31 6 -50 13 -19 7 -28 13
-20 13 8 0 31 -6 50 -13z m-370 -70 l0 -45 -765 0 -765 0 0 45 0 45 765 0 765
0 0 -45z m515 25 c28 -10 43 -18 35 -18 -8 0 -37 8 -65 18 -27 10 -43 18 -35
18 8 0 38 -8 65 -18z m3395 -635 c0 -576 -2 -655 -15 -655 -13 0 -15 77 -15
635 l0 635 -1365 0 c-1358 0 -1365 0 -1365 20 0 20 7 20 1380 20 l1380 0 0
-655z m-3265 595 c28 -10 43 -18 35 -18 -8 0 -37 8 -65 18 -27 10 -43 18 -35
18 8 0 38 -8 65 -18z m3215 -620 c0 -623 0 -630 -20 -630 -20 0 -20 7 -20 610
l0 610 -1335 0 c-1328 0 -1335 0 -1335 20 0 20 7 20 1355 20 l1355 0 0 -630z
m-3070 575 c19 -7 28 -13 20 -13 -8 0 -31 6 -50 13 -19 7 -28 13 -20 13 8 0
31 -6 50 -13z m3020 -600 l0 -605 -235 0 -235 0 0 -100 0 -100 -25 0 -25 0 0
413 c0 226 0 427 0 445 0 30 -2 32 -35 32 -19 0 -35 -4 -35 -8 0 -4 -39 -16
-87 -26 -203 -42 -363 -128 -500 -269 -128 -132 -196 -284 -225 -499 l-12 -88
-298 0 -298 0 0 100 0 100 -325 0 -325 0 0 605 0 605 1330 0 1330 0 0 -605z
m-3810 545 l0 -50 -765 0 -765 0 0 50 0 50 765 0 765 0 0 -50z m935 10 c28
-10 43 -18 35 -18 -8 0 -37 8 -65 18 -27 10 -43 18 -35 18 8 0 38 -8 65 -18z
m121 -36 c27 -9 53 -21 59 -25 5 -5 -58 -8 -145 -7 l-155 2 135 4 135 4 -50
18 c-62 23 -46 26 21 4z m-3568 -31 c-43 -2 -113 -2 -155 0 -43 1 -8 3 77 3
85 0 120 -2 78 -3z m2715 -10 l587 -6 0 -769 0 -768 -62 -2 -63 -2 63 -3 c56
-4 62 -6 61 -26 0 -21 -1 -21 -8 -2 -5 13 -13 -7 -24 -72 -21 -111 -21 -113
-2 -113 13 0 15 -35 15 -255 0 -197 -3 -255 -12 -255 -7 0 -48 7 -91 15 -95
18 -87 18 -87 0 0 -13 -155 -15 -1335 -15 -1220 0 -1335 1 -1335 16 0 12 -6
15 -22 11 -13 -4 -56 -11 -96 -18 -40 -7 -70 -15 -66 -18 10 -10 179 -28 182
-19 5 13 2672 10 2672 -3 0 -6 8 -8 18 -5 9 2 52 8 95 12 l77 6 0 -2636 c0
-2336 -2 -2636 -15 -2636 -19 0 -19 -5 0 -110 8 -47 15 -88 15 -92 0 -5 -114
-8 -254 -8 l-255 0 -436 255 c-240 140 -442 255 -449 255 -8 0 -17 -7 -20 -15
-4 -11 6 -23 32 -38 20 -12 215 -126 432 -253 l395 -232 5 -66 5 -67 365 0
365 0 5 68 5 68 45 6 c35 4 39 6 19 10 -22 3 41 43 355 226 484 283 447 260
440 278 -4 8 -12 15 -20 15 -11 0 -362 -202 -846 -487 -5 -2 -8 1389 -8 3091
l0 3096 425 0 425 0 0 100 0 100 305 0 c284 0 305 1 305 18 0 9 7 64 14 122
20 145 60 281 108 364 84 147 268 300 438 364 72 27 209 62 241 62 5 0 9 -172
9 -435 l0 -435 24 0 c19 0 25 -6 28 -27 2 -23 8 -29 36 -31 l32 -3 0 -100 0
-99 75 0 c41 0 75 -4 75 -9 0 -5 -7 -45 -15 -88 -19 -97 -19 -103 0 -103 13 0
15 -35 15 -255 l0 -255 -1165 0 c-1029 0 -1165 2 -1165 15 0 18 9 18 -110 -4
-52 -10 -88 -21 -80 -24 29 -11 185 -24 188 -15 2 4 528 8 1168 8 l1164 0 0
-2380 0 -2379 -87 -3 -88 -3 -3 -358 -2 -357 -692 0 c-380 0 -693 -2 -697 -5
-3 -4 -4 -223 -3 -488 3 -357 6 -484 15 -489 14 -9 118 -11 139 -3 10 4 12 39
10 165 -2 88 -2 160 1 160 6 0 166 -29 195 -35 17 -4 22 -1 22 15 0 20 5 20
590 20 l590 0 0 -425 0 -425 -41 0 c-41 0 -41 0 -35 33 4 25 3 28 -5 15 -8
-15 -26 -18 -114 -18 l-105 0 12 -25 c10 -22 13 -23 20 -10 7 12 27 15 96 13
48 -1 68 -3 45 -5 l-43 -4 -1 -105 c-1 -57 -3 -108 -4 -114 -1 -5 -3 -120 -4
-255 l-1 -245 -611 0 -611 0 3 143 3 142 -69 5 -70 5 -5 70 -6 70 -4 -51 -5
-52 -239 409 c-180 309 -243 409 -257 409 -11 0 -19 -6 -19 -14 0 -8 103 -192
230 -408 126 -216 226 -394 221 -396 -5 -2 -40 1 -78 6 -38 5 -69 6 -71 1 -2
-5 -753 -9 -1733 -9 l-1729 0 0 760 c0 669 2 760 15 760 19 0 19 15 0 113 -8
43 -15 85 -15 93 0 13 70 14 505 12 413 -2 506 -1 510 10 9 24 5 141 -4 147
-6 3 -357 5 -781 5 l-772 0 3 3338 c1 1836 -1 3343 -5 3350 -4 7 -30 12 -62
12 l-54 0 0 535 0 535 443 3 c1113 6 1626 7 2170 0z m-2936 -65 c-3 -8 -6 -5
-6 6 -1 11 2 17 5 13 3 -3 4 -12 1 -19z m3560 0 c-3 -8 -6 -5 -6 6 -1 11 2 17
5 13 3 -3 4 -12 1 -19z m-3529 -98 c0 -8 -6 1 -13 20 -7 19 -13 42 -13 50 0 8
6 -1 13 -20 7 -19 13 -42 13 -50z m3560 0 c0 -8 -6 1 -13 20 -7 19 -13 42 -13
50 0 8 6 -1 13 -20 7 -19 13 -42 13 -50z m-3530 -100 c0 -8 -6 1 -13 20 -7 19
-13 42 -13 50 0 8 6 -1 13 -20 7 -19 13 -42 13 -50z m3560 0 c0 -8 -6 1 -13
20 -7 19 -13 42 -13 50 0 8 6 -1 13 -20 7 -19 13 -42 13 -50z m-3530 -100 c0
-8 -6 1 -13 20 -7 19 -13 42 -13 50 0 8 6 -1 13 -20 7 -19 13 -42 13 -50z
m3560 0 c0 -8 -6 1 -13 20 -7 19 -13 42 -13 50 0 8 6 -1 13 -20 7 -19 13 -42
13 -50z m-3530 -100 c0 -8 -6 1 -13 20 -7 19 -13 42 -13 50 0 8 6 -1 13 -20 7
-19 13 -42 13 -50z m3560 0 c0 -8 -6 1 -13 20 -7 19 -13 42 -13 50 0 8 6 -1
13 -20 7 -19 13 -42 13 -50z m2322 35 c0 -8 -7 -15 -15 -15 -8 0 -15 7 -15 15
0 8 7 15 15 15 8 0 15 -7 15 -15z m-9 -54 c5 8 9 -149 9 -367 0 -332 -2 -381
-15 -381 -13 0 -15 49 -14 381 0 210 3 375 6 367 5 -11 7 -11 14 0z m-5842
-81 c0 -9 -4 -8 -9 5 -5 11 -9 27 -9 35 0 9 4 8 9 -5 5 -11 9 -27 9 -35z
m3560 0 c0 -9 -4 -8 -9 5 -5 11 -9 27 -9 35 0 9 4 8 9 -5 5 -11 9 -27 9 -35z
m-3521 -130 c0 -8 -6 1 -13 20 -7 19 -13 42 -13 50 0 8 6 -1 13 -20 7 -19 13
-42 13 -50z m3560 0 c0 -8 -6 1 -13 20 -7 19 -13 42 -13 50 0 8 6 -1 13 -20 7
-19 13 -42 13 -50z m-3530 -100 c0 -8 -6 1 -13 20 -7 19 -13 42 -13 50 0 8 6
-1 13 -20 7 -19 13 -42 13 -50z m3560 0 c0 -8 -6 1 -13 20 -7 19 -13 42 -13
50 0 8 6 -1 13 -20 7 -19 13 -42 13 -50z m-3530 -100 c0 -8 -6 1 -13 20 -7 19
-13 42 -13 50 0 8 6 -1 13 -20 7 -19 13 -42 13 -50z m3560 0 c0 -8 -6 1 -13
20 -7 19 -13 42 -13 50 0 8 6 -1 13 -20 7 -19 13 -42 13 -50z m-3530 -100 c0
-8 -6 1 -13 20 -7 19 -13 42 -13 50 0 8 6 -1 13 -20 7 -19 13 -42 13 -50z
m3560 0 c0 -8 -6 1 -13 20 -7 19 -13 42 -13 50 0 8 6 -1 13 -20 7 -19 13 -42
13 -50z m-3551 -42 c-3 -8 -6 -5 -6 6 -1 11 2 17 5 13 3 -3 4 -12 1 -19z
m3560 0 c-3 -8 -6 -5 -6 6 -1 11 2 17 5 13 3 -3 4 -12 1 -19z m-177 -120 c50
-22 89 -43 87 -45 -2 -2 -46 17 -98 41 -52 25 -91 45 -87 45 4 1 48 -18 98
-41z m2582 -5 c65 -25 116 -48 114 -50 -2 -2 -59 19 -127 46 -68 28 -120 50
-114 51 5 0 63 -21 127 -47z m-2289 -129 c92 -42 166 -79 164 -81 -4 -4 -348
154 -356 164 -9 10 11 1 192 -83z m2447 66 c8 -5 11 -10 5 -10 -5 0 -17 5 -25
10 -8 5 -10 10 -5 10 6 0 17 -5 25 -10z m50 -20 c8 -5 11 -10 5 -10 -5 0 -17
5 -25 10 -8 5 -10 10 -5 10 6 0 17 -5 25 -10z m-460 -25 c0 -8 -7 -15 -15 -15
-8 0 -15 7 -15 15 0 8 7 15 15 15 8 0 15 -7 15 -15z m632 -42 c65 -26 116 -48
114 -50 -4 -4 -258 96 -266 104 -7 8 13 1 152 -54z m-2072 -13 c0 -21 -15 -27
-25 -10 -7 12 2 30 16 30 5 0 9 -9 9 -20z m490 0 c0 -19 -7 -20 -230 -20 -223
0 -230 1 -230 20 0 19 7 20 230 20 223 0 230 -1 230 -20z m70 0 c0 -13 -7 -20
-20 -20 -13 0 -20 7 -20 20 0 13 7 20 20 20 13 0 20 -7 20 -20z m948 3 c5 -17
-26 -29 -40 -15 -6 6 -7 15 -3 22 9 14 37 9 43 -7z m-1800 -109 c56 -26 101
-49 99 -51 -3 -2 -55 21 -118 52 -137 66 -125 66 19 -1z m2579 30 c-6 -6 -47
9 -47 17 0 5 11 3 25 -3 14 -6 24 -13 22 -14z m43 -14 c8 -5 11 -10 5 -10 -5
0 -17 5 -25 10 -8 5 -10 10 -5 10 6 0 17 -5 25 -10z m172 -67 c65 -26 116 -48
114 -50 -4 -4 -258 96 -266 104 -7 8 13 1 152 -54z m-2622 -28 c25 -13 41 -24
35 -24 -5 0 -30 11 -55 24 -25 13 -40 24 -35 24 6 0 30 -11 55 -24z m-4433
-87 c-2 -18 -4 -4 -4 32 0 36 2 50 4 33 2 -18 2 -48 0 -65z m7193 52 c0 -6
-73 -9 -202 -8 l-203 2 200 6 c110 3 201 7 203 8 1 1 2 -2 2 -8z m-447 -172
c4 -83 7 -1318 7 -2745 l0 -2593 -265 0 -265 0 0 2380 0 2380 159 0 c88 0 161
-4 163 -8 3 -9 159 4 188 15 13 5 -26 14 -157 38 -26 5 -33 2 -33 -10 0 -13
-22 -15 -160 -15 l-160 0 0 255 c0 243 1 255 19 255 18 0 18 3 5 73 -8 39 -16
84 -20 100 l-6 27 260 0 259 0 6 -152z m-6736 -5 c-2 -16 -4 -5 -4 22 0 28 2
40 4 28 2 -13 2 -35 0 -50z m3500 -4396 c-1 -798 -2 -145 -2 1453 0 1598 1
2251 2 1452 2 -798 2 -2106 0 -2905z m3280 4266 c-2 -16 -4 -5 -4 22 0 28 2
40 4 28 2 -13 2 -35 0 -50z m-6770 -40 c-2 -21 -4 -6 -4 32 0 39 2 55 4 38 2
-18 2 -50 0 -70z m6780 -75 c-2 -18 -4 -6 -4 27 0 33 2 48 4 33 2 -15 2 -42 0
-60z m-6770 -75 c-2 -21 -4 -6 -4 32 0 39 2 55 4 38 2 -18 2 -50 0 -70z m6780
-45 c-2 -18 -4 -6 -4 27 0 33 2 48 4 33 2 -15 2 -42 0 -60z m-6770 -105 c-2
-21 -4 -6 -4 32 0 39 2 55 4 38 2 -18 2 -50 0 -70z m6780 -15 c-2 -18 -4 -6
-4 27 0 33 2 48 4 33 2 -15 2 -42 0 -60z m-6770 -135 c-2 -21 -4 -6 -4 32 0
39 2 55 4 38 2 -18 2 -50 0 -70z m6780 10 c-2 -16 -4 -3 -4 27 0 30 2 43 4 28
2 -16 2 -40 0 -55z m-3280 -341 c-1 -53 -3 -7 -3 103 0 110 2 154 3 97 2 -57
2 -147 0 -200z m3290 221 c-2 -16 -4 -3 -4 27 0 30 2 43 4 28 2 -16 2 -40 0
-55z m-6780 -30 c-2 -21 -4 -6 -4 32 0 39 2 55 4 38 2 -18 2 -50 0 -70z m6790
-90 c-2 -16 -4 -3 -4 27 0 30 2 43 4 28 2 -16 2 -40 0 -55z m-6780 -60 c-2
-21 -4 -6 -4 32 0 39 2 55 4 38 2 -18 2 -50 0 -70z m6790 -65 c-2 -18 -4 -6
-4 27 0 33 2 48 4 33 2 -15 2 -42 0 -60z m-6780 -85 c-2 -21 -4 -6 -4 32 0 39
2 55 4 38 2 -18 2 -50 0 -70z m6790 -35 c-2 -18 -4 -6 -4 27 0 33 2 48 4 33 2
-15 2 -42 0 -60z m-6780 -115 c-2 -21 -4 -6 -4 32 0 39 2 55 4 38 2 -18 2 -50
0 -70z m3470 -205 c-1 -57 -3 -11 -3 102 0 113 2 159 3 103 2 -57 2 -149 0
-205z m3320 200 c-2 -18 -4 -6 -4 27 0 33 2 48 4 33 2 -15 2 -42 0 -60z
m-6780 -135 c-2 -21 -4 -6 -4 32 0 39 2 55 4 38 2 -18 2 -50 0 -70z m6790 10
c-2 -16 -4 -3 -4 27 0 30 2 43 4 28 2 -16 2 -40 0 -55z m10 -120 c-2 -16 -4
-3 -4 27 0 30 2 43 4 28 2 -16 2 -40 0 -55z m-6790 -40 c-2 -21 -4 -6 -4 32 0
39 2 55 4 38 2 -18 2 -50 0 -70z m6800 -85 c-2 -18 -4 -6 -4 27 0 33 2 48 4
33 2 -15 2 -42 0 -60z m-6790 -65 c-2 -21 -4 -6 -4 32 0 39 2 55 4 38 2 -18 2
-50 0 -70z m3450 -231 c-1 -53 -3 -7 -3 103 0 110 2 154 3 97 2 -57 2 -147 0
-200z m3350 176 c-2 -18 -4 -6 -4 27 0 33 2 48 4 33 2 -15 2 -42 0 -60z
m-6790 -95 c-2 -21 -4 -6 -4 32 0 39 2 55 4 38 2 -18 2 -50 0 -70z m6800 -25
c-2 -18 -4 -6 -4 27 0 33 2 48 4 33 2 -15 2 -42 0 -60z m-6790 -115 c-2 -21
-4 -6 -4 32 0 39 2 55 4 38 2 -18 2 -50 0 -70z m6800 -5 c-2 -18 -4 -6 -4 27
0 33 2 48 4 33 2 -15 2 -42 0 -60z m-6790 -145 c-2 -21 -4 -6 -4 32 0 39 2 55
4 38 2 -18 2 -50 0 -70z m6800 20 c-2 -16 -4 -3 -4 27 0 30 2 43 4 28 2 -16 2
-40 0 -55z m-3370 -281 c-1 -53 -3 -7 -3 103 0 110 2 154 3 97 2 -57 2 -147 0
-200z m3380 161 c-2 -16 -4 -3 -4 27 0 30 2 43 4 28 2 -16 2 -40 0 -55z
m-6800 -50 c-2 -21 -4 -6 -4 32 0 39 2 55 4 38 2 -18 2 -50 0 -70z m6810 -75
c-2 -18 -4 -6 -4 27 0 33 2 48 4 33 2 -15 2 -42 0 -60z m-6800 -75 c-2 -21 -4
-6 -4 32 0 39 2 55 4 38 2 -18 2 -50 0 -70z m6810 -45 c-2 -18 -4 -6 -4 27 0
33 2 48 4 33 2 -15 2 -42 0 -60z m-6800 -95 c-2 -21 -4 -6 -4 32 0 39 2 55 4
38 2 -18 2 -50 0 -70z m6810 -25 c-2 -18 -4 -6 -4 27 0 33 2 48 4 33 2 -15 2
-42 0 -60z m-3400 -266 c-1 -53 -3 -7 -3 103 0 110 2 154 3 97 2 -57 2 -147 0
-200z m-3400 141 c-2 -21 -4 -6 -4 32 0 39 2 55 4 38 2 -18 2 -50 0 -70z
m6810 0 c-2 -16 -4 -3 -4 27 0 30 2 43 4 28 2 -16 2 -40 0 -55z m10 -120 c-2
-16 -4 -3 -4 27 0 30 2 43 4 28 2 -16 2 -40 0 -55z m-6810 -30 c-2 -21 -4 -6
-4 32 0 39 2 55 4 38 2 -18 2 -50 0 -70z m6820 -90 c-2 -16 -4 -3 -4 27 0 30
2 43 4 28 2 -16 2 -40 0 -55z m-6810 -60 c-2 -21 -4 -6 -4 32 0 39 2 55 4 38
2 -18 2 -50 0 -70z m6820 -65 c-2 -18 -4 -6 -4 27 0 33 2 48 4 33 2 -15 2 -42
0 -60z m-3430 -240 c-1 -57 -3 -11 -3 102 0 113 2 159 3 103 2 -57 2 -149 0
-205z m-3380 160 c-2 -18 -4 -4 -4 32 0 36 2 50 4 33 2 -18 2 -48 0 -65z
m6820 -40 c-2 -18 -4 -6 -4 27 0 33 2 48 4 33 2 -15 2 -42 0 -60z m-6810 -105
c-2 -21 -4 -6 -4 32 0 39 2 55 4 38 2 -18 2 -50 0 -70z m6820 -15 c-2 -18 -4
-6 -4 27 0 33 2 48 4 33 2 -15 2 -42 0 -60z m-6810 -135 c-2 -21 -4 -6 -4 32
0 39 2 55 4 38 2 -18 2 -50 0 -70z m6820 10 c-2 -16 -4 -3 -4 27 0 30 2 43 4
28 2 -16 2 -40 0 -55z m-3450 -341 c-1 -53 -3 -7 -3 103 0 110 2 154 3 97 2
-57 2 -147 0 -200z m3460 221 c-2 -16 -4 -3 -4 27 0 30 2 43 4 28 2 -16 2 -40
0 -55z m-6820 -40 c-2 -21 -4 -6 -4 32 0 39 2 55 4 38 2 -18 2 -50 0 -70z
m6830 -80 c-2 -16 -4 -3 -4 27 0 30 2 43 4 28 2 -16 2 -40 0 -55z m-6820 -65
c-2 -18 -4 -4 -4 32 0 36 2 50 4 33 2 -18 2 -48 0 -65z m6830 -60 c-2 -18 -4
-6 -4 27 0 33 2 48 4 33 2 -15 2 -42 0 -60z m-6820 -85 c-2 -21 -4 -6 -4 32 0
39 2 55 4 38 2 -18 2 -50 0 -70z m6830 -35 c-2 -18 -4 -6 -4 27 0 33 2 48 4
33 2 -15 2 -42 0 -60z m-6820 -115 c-2 -21 -4 -6 -4 32 0 39 2 55 4 38 2 -18
2 -50 0 -70z m3340 -211 c-1 -53 -3 -7 -3 103 0 110 2 154 3 97 2 -57 2 -147
0 -200z m3490 206 c-2 -18 -4 -6 -4 27 0 33 2 48 4 33 2 -15 2 -42 0 -60z
m-6820 -145 c-2 -21 -4 -6 -4 32 0 39 2 55 4 38 2 -18 2 -50 0 -70z m6830 20
c-2 -16 -4 -3 -4 27 0 30 2 43 4 28 2 -16 2 -40 0 -55z m10 -120 c-2 -16 -4
-3 -4 27 0 30 2 43 4 28 2 -16 2 -40 0 -55z m-6830 -45 c-2 -18 -4 -4 -4 32 0
36 2 50 4 33 2 -18 2 -48 0 -65z m6840 -80 c-2 -18 -4 -6 -4 27 0 33 2 48 4
33 2 -15 2 -42 0 -60z m-6830 -65 c-2 -21 -4 -6 -4 32 0 39 2 55 4 38 2 -18 2
-50 0 -70z m3320 -241 c-1 -53 -3 -7 -3 103 0 110 2 154 3 97 2 -57 2 -147 0
-200z m3520 186 c-2 -18 -4 -6 -4 27 0 33 2 48 4 33 2 -15 2 -42 0 -60z
m-6830 -95 c-2 -21 -4 -6 -4 32 0 39 2 55 4 38 2 -18 2 -50 0 -70z m6840 -25
c-2 -18 -4 -6 -4 27 0 33 2 48 4 33 2 -15 2 -42 0 -60z m-6830 -125 c-2 -21
-4 -6 -4 32 0 39 2 55 4 38 2 -18 2 -50 0 -70z m6840 5 c-2 -18 -4 -6 -4 27 0
33 2 48 4 33 2 -15 2 -42 0 -60z m10 -125 c-2 -16 -4 -3 -4 27 0 30 2 43 4 28
2 -16 2 -40 0 -55z m-6840 -30 c-2 -21 -4 -6 -4 32 0 39 2 55 4 38 2 -18 2
-50 0 -70z m3300 -255 c-1 -57 -3 -11 -3 102 0 113 2 159 3 103 2 -57 2 -149
0 -205z m3550 165 c-2 -16 -4 -3 -4 27 0 30 2 43 4 28 2 -16 2 -40 0 -55z
m-6840 -50 c-2 -21 -4 -6 -4 32 0 39 2 55 4 38 2 -18 2 -50 0 -70z m6850 -70
c-2 -16 -4 -3 -4 27 0 30 2 43 4 28 2 -16 2 -40 0 -55z m-6840 -80 c-2 -21 -4
-6 -4 32 0 39 2 55 4 38 2 -18 2 -50 0 -70z m10 -150 c-2 -21 -4 -6 -4 32 0
39 2 55 4 38 2 -18 2 -50 0 -70z m6731 -10 c-60 -2 -156 -2 -215 0 -60 1 -11
3 107 3 118 0 167 -2 108 -3z m-957 -54 c38 -23 69 -43 69 -46 0 -4 -46 21
-125 69 -16 10 -26 18 -22 18 5 0 40 -19 78 -41z m-5764 -86 c-2 -21 -4 -6 -4
32 0 39 2 55 4 38 2 -18 2 -50 0 -70z m10 -140 c-2 -21 -4 -6 -4 32 0 39 2 55
4 38 2 -18 2 -50 0 -70z m6186 -40 c20 -13 37 -25 37 -28 0 -2 -34 16 -75 41
-41 25 -75 48 -75 51 0 4 24 -9 113 -64z m-6176 -110 c-2 -21 -4 -6 -4 32 0
39 2 55 4 38 2 -18 2 -50 0 -70z m6575 -134 c101 -62 188 -116 193 -122 15
-15 8 -11 -195 113 -194 118 -197 120 -187 120 4 0 89 -50 189 -111z m-3465
-131 c-3 -8 -6 -5 -6 6 -1 11 2 17 5 13 3 -3 4 -12 1 -19z m-434 -45 c-7 -2
-21 -2 -30 0 -10 3 -4 5 12 5 17 0 24 -2 18 -5z m1980 0 c-23 -2 -64 -2 -90 0
-26 2 -7 3 42 3 50 0 71 -1 48 -3z m-4670 -10 c-13 -2 -33 -2 -45 0 -13 2 -3
4 22 4 25 0 35 -2 23 -4z m2740 0 c-7 -2 -19 -2 -25 0 -7 3 -2 5 12 5 14 0 19
-2 13 -5z m2120 0 c-23 -2 -64 -2 -90 0 -26 2 -7 3 42 3 50 0 71 -1 48 -3z
m-4676 -10 c-20 -2 -52 -2 -70 0 -17 2 0 4 38 4 39 0 53 -2 32 -4z m2606 0
c-7 -2 -19 -2 -25 0 -7 3 -2 5 12 5 14 0 19 -2 13 -5z m2260 0 c-23 -2 -64 -2
-90 0 -26 2 -7 3 42 3 50 0 71 -1 48 -3z m-4716 -10 c-20 -2 -52 -2 -70 0 -17
2 0 4 38 4 39 0 53 -2 32 -4z m2568 -7 c33 -8 51 -14 40 -15 -11 0 -47 6 -80
13 -33 8 -51 14 -40 15 11 0 47 -6 80 -13z m2338 7 c-24 -2 -62 -2 -85 0 -24
2 -5 4 42 4 47 0 66 -2 43 -4z m-4756 -10 c-20 -2 -52 -2 -70 0 -17 2 0 4 38
4 39 0 53 -2 32 -4z m4956 0 c-23 -2 -64 -2 -90 0 -26 2 -7 3 42 3 50 0 71 -1
48 -3z m-4806 -10 c-20 -2 -52 -2 -70 0 -17 2 0 4 38 4 39 0 53 -2 32 -4z
m4996 0 c-23 -2 -64 -2 -90 0 -26 2 -7 3 42 3 50 0 71 -1 48 -3z m-4846 -10
c-20 -2 -52 -2 -70 0 -17 2 0 4 38 4 39 0 53 -2 32 -4z m2216 0 c-7 -2 -19 -2
-25 0 -7 3 -2 5 12 5 14 0 19 -2 13 -5z m2820 0 c-23 -2 -64 -2 -90 0 -26 2
-7 3 42 3 50 0 71 -1 48 -3z m-4886 -10 c-20 -2 -52 -2 -70 0 -17 2 0 4 38 4
39 0 53 -2 32 -4z m2116 0 c-7 -2 -19 -2 -25 0 -7 3 -2 5 12 5 14 0 19 -2 13
-5z m2960 0 c-24 -2 -62 -2 -85 0 -24 2 -5 4 42 4 47 0 66 -2 43 -4z m-4926
-10 c-20 -2 -52 -2 -70 0 -17 2 0 4 38 4 39 0 53 -2 32 -4z m2058 -3 c27 -7
27 -8 5 -8 -14 0 -38 4 -55 8 -27 7 -27 8 -5 8 14 0 39 -4 55 -8z m3058 3
c-24 -2 -62 -2 -85 0 -24 2 -5 4 42 4 47 0 66 -2 43 -4z m-4966 -10 c-20 -2
-52 -2 -70 0 -17 2 0 4 38 4 39 0 53 -2 32 -4z m5106 0 c-13 -2 -35 -2 -50 0
-16 2 -5 4 22 4 28 0 40 -2 28 -4z m94 1 c-3 -3 -12 -4 -19 -1 -8 3 -5 6 6 6
11 1 17 -2 13 -5z m-5080 -10 c-3 -3 -12 -4 -19 -1 -8 3 -5 6 6 6 11 1 17 -2
13 -5z m5236 -1 c-23 -2 -64 -2 -90 0 -26 2 -7 3 42 3 50 0 71 -1 48 -3z m180
-10 c-24 -2 -62 -2 -85 0 -24 2 -5 4 42 4 47 0 66 -2 43 -4z m-959 -50 c-4
-21 -12 -69 -19 -107 -12 -65 -12 -69 6 -73 17 -5 19 -16 19 -139 l0 -134
-590 0 c-518 0 -590 2 -590 15 0 19 -5 19 -110 0 -47 -8 -91 -15 -97 -15 -10
0 -13 54 -13 238 0 131 3 242 7 245 3 4 319 7 700 7 l694 0 -7 -37z m546 -208
c0 -141 -4 -245 -9 -245 -5 0 -45 7 -88 15 -97 19 -103 19 -103 0 0 -13 -25
-15 -165 -15 l-165 0 0 134 c0 86 4 136 11 138 7 2 7 28 0 88 -6 46 -11 95
-11 107 l0 23 265 0 265 0 0 -245z m-6550 -5 c95 -113 182 -215 193 -227 11
-13 18 -23 14 -23 -6 0 -389 447 -402 470 -7 13 -6 13 7 0 8 -8 93 -107 188
-220z m6679 -55 c-1 -15 -79 217 -79 235 0 8 18 -39 40 -105 22 -66 40 -124
39 -130z m-2192 188 c-3 -10 -5 -4 -5 12 0 17 2 24 5 18 2 -7 2 -21 0 -30z
m10 -60 c-3 -10 -5 -4 -5 12 0 17 2 24 5 18 2 -7 2 -21 0 -30z m10 -60 c-3
-10 -5 -4 -5 12 0 17 2 24 5 18 2 -7 2 -21 0 -30z m10 -60 c-3 -10 -5 -4 -5
12 0 17 2 24 5 18 2 -7 2 -21 0 -30z m10 -60 c-3 -10 -5 -4 -5 12 0 17 2 24 5
18 2 -7 2 -21 0 -30z m10 -60 c-3 -10 -5 -4 -5 12 0 17 2 24 5 18 2 -7 2 -21
0 -30z m10 -60 c-3 -10 -5 -4 -5 12 0 17 2 24 5 18 2 -7 2 -21 0 -30z m10 -60
c-3 -10 -5 -4 -5 12 0 17 2 24 5 18 2 -7 2 -21 0 -30z m1790 18 c4 -18 8 -18
101 -1 53 10 99 16 102 13 3 -3 6 -193 8 -424 l3 -419 -271 0 -270 0 0 425 0
425 161 0 c148 0 161 -1 166 -19z m-6342 -123 c99 -102 83 -93 -34 19 -42 40
-71 73 -66 73 6 0 51 -41 100 -92z m6763 67 c-3 -3 -9 2 -12 12 -6 14 -5 15 5
6 7 -7 10 -15 7 -18z m-2201 -22 c-3 -10 -5 -4 -5 12 0 17 2 24 5 18 2 -7 2
-21 0 -30z m10 -60 c-3 -10 -5 -4 -5 12 0 17 2 24 5 18 2 -7 2 -21 0 -30z
m2432 -648 c0 -5 -52 143 -115 330 -63 187 -114 344 -113 350 0 5 52 -143 115
-330 63 -187 114 -344 113 -350z m-101 -62 c-60 -2 -156 -2 -215 0 -60 1 -11
3 107 3 118 0 167 -2 108 -3z m-963 -48 c30 -19 55 -37 55 -40 0 -3 -26 12
-57 32 -67 41 -69 43 -59 43 4 0 31 -16 61 -35z m109 -74 c-2 -3 -12 3 -22 13
-16 17 -16 18 5 5 12 -7 20 -15 17 -18z m336 -203 l25 -20 -29 17 c-16 10 -44
26 -63 37 -18 11 -33 22 -33 25 0 7 71 -35 100 -59z m-2150 -83 c0 -18 -3 -18
94 0 44 8 80 14 81 13 1 -2 9 -14 18 -28 14 -20 17 -49 17 -152 l0 -128 -1835
0 c-1461 0 -1835 3 -1835 13 0 6 7 47 15 90 19 98 19 107 0 107 -11 0 -15 12
-15 50 l0 50 1730 0 c1531 0 1730 -2 1730 -15z m2689 -244 c41 -25 76 -52 79
-58 3 -10 -43 -13 -210 -11 l-213 2 210 6 210 5 -195 119 c-107 65 -202 125
-210 133 -13 13 113 -62 329 -196z m-2410 114 c0 -5 -8 6 -19 25 -11 19 -19
40 -19 45 0 6 8 -6 19 -25 11 -19 19 -39 19 -45z m-4515 -71 c50 -52 88 -94
85 -94 -2 0 -47 43 -99 95 -52 52 -90 94 -85 94 6 -1 50 -44 99 -95z m4575
-59 c0 -5 -13 15 -29 45 -16 30 -29 60 -29 65 0 6 13 -15 29 -45 16 -30 29
-59 29 -65z m-4489 -55 c0 -11 -59 -12 -140 0 -50 7 -47 7 43 9 59 0 97 -3 97
-9z m167 -17 c-20 -2 -52 -2 -70 0 -17 2 0 4 38 4 39 0 53 -2 32 -4z m171 -10
c-21 -2 -55 -2 -75 0 -21 2 -4 4 37 4 41 0 58 -2 38 -4z m160 -10 c-21 -2 -55
-2 -75 0 -21 2 -4 4 37 4 41 0 58 -2 38 -4z m160 -10 c-21 -2 -55 -2 -75 0
-21 2 -4 4 37 4 41 0 58 -2 38 -4z m170 -10 c-21 -2 -55 -2 -75 0 -21 2 -4 4
37 4 41 0 58 -2 38 -4z m160 -10 c-21 -2 -55 -2 -75 0 -21 2 -4 4 37 4 41 0
58 -2 38 -4z m160 -10 c-21 -2 -55 -2 -75 0 -21 2 -4 4 37 4 41 0 58 -2 38 -4z
m160 -10 c-21 -2 -55 -2 -75 0 -21 2 -4 4 37 4 41 0 58 -2 38 -4z m170 -10
c-21 -2 -55 -2 -75 0 -21 2 -4 4 37 4 41 0 58 -2 38 -4z m160 -10 c-21 -2 -55
-2 -75 0 -21 2 -4 4 37 4 41 0 58 -2 38 -4z m160 -10 c-21 -2 -55 -2 -75 0
-21 2 -4 4 37 4 41 0 58 -2 38 -4z m159 -10 c-20 -2 -52 -2 -70 0 -17 2 0 4
38 4 39 0 53 -2 32 -4z m171 -10 c-21 -2 -55 -2 -75 0 -21 2 -4 4 37 4 41 0
58 -2 38 -4z m160 -10 c-21 -2 -55 -2 -75 0 -21 2 -4 4 37 4 41 0 58 -2 38 -4z
m160 -10 c-21 -2 -55 -2 -75 0 -21 2 -4 4 37 4 41 0 58 -2 38 -4z m160 -10
c-21 -2 -55 -2 -75 0 -21 2 -4 4 37 4 41 0 58 -2 38 -4z m170 -10 c-21 -2 -55
-2 -75 0 -21 2 -4 4 37 4 41 0 58 -2 38 -4z m160 -10 c-21 -2 -55 -2 -75 0
-21 2 -4 4 37 4 41 0 58 -2 38 -4z m160 -10 c-21 -2 -55 -2 -75 0 -21 2 -4 4
37 4 41 0 58 -2 38 -4z m160 -10 c-21 -2 -55 -2 -75 0 -21 2 -4 4 37 4 41 0
58 -2 38 -4z m170 -10 c-21 -2 -55 -2 -75 0 -21 2 -4 4 37 4 41 0 58 -2 38 -4z
m160 -10 c-21 -2 -55 -2 -75 0 -21 2 -4 4 37 4 41 0 58 -2 38 -4z m160 -10
c-21 -2 -55 -2 -75 0 -21 2 -4 4 37 4 41 0 58 -2 38 -4z m160 -10 c-21 -2 -55
-2 -75 0 -21 2 -4 4 37 4 41 0 58 -2 38 -4z m170 -10 c-21 -2 -55 -2 -75 0
-21 2 -4 4 37 4 41 0 58 -2 38 -4z m160 -10 c-21 -2 -55 -2 -75 0 -21 2 -4 4
37 4 41 0 58 -2 38 -4z m160 -10 c-21 -2 -55 -2 -75 0 -21 2 -4 4 37 4 41 0
58 -2 38 -4z m160 -10 c-21 -2 -55 -2 -75 0 -21 2 -4 4 37 4 41 0 58 -2 38 -4z
m170 -10 c-21 -2 -57 -2 -80 0 -24 2 -7 4 37 4 44 0 63 -2 43 -4z m160 -10
c-21 -2 -55 -2 -75 0 -21 2 -4 4 37 4 41 0 58 -2 38 -4z m160 -10 c-21 -2 -55
-2 -75 0 -21 2 -4 4 37 4 41 0 58 -2 38 -4z m160 -10 c-21 -2 -55 -2 -75 0
-21 2 -4 4 37 4 41 0 58 -2 38 -4z m170 -10 c-21 -2 -57 -2 -80 0 -24 2 -7 4
37 4 44 0 63 -2 43 -4z m160 -10 c-21 -2 -55 -2 -75 0 -21 2 -4 4 37 4 41 0
58 -2 38 -4z m160 -10 c-21 -2 -55 -2 -75 0 -21 2 -4 4 37 4 41 0 58 -2 38 -4z
m160 -10 c-21 -2 -55 -2 -75 0 -21 2 -4 4 37 4 41 0 58 -2 38 -4z m170 -10
c-21 -2 -57 -2 -80 0 -24 2 -7 4 37 4 44 0 63 -2 43 -4z m160 -10 c-21 -2 -55
-2 -75 0 -21 2 -4 4 37 4 41 0 58 -2 38 -4z m160 -10 c-21 -2 -55 -2 -75 0
-21 2 -4 4 37 4 41 0 58 -2 38 -4z m160 -10 c-21 -2 -55 -2 -75 0 -21 2 -4 4
37 4 41 0 58 -2 38 -4z m170 -10 c-21 -2 -57 -2 -80 0 -24 2 -7 4 37 4 44 0
63 -2 43 -4z m-6765 -22 l-92 -6 84 -45 c46 -24 83 -46 81 -48 -6 -6 -176 89
-176 99 0 5 44 8 98 7 l97 -2 -92 -5z"/>
<path d="M21531 19409 c-206 -39 -295 -304 -155 -467 124 -146 378 -118 462
51 42 85 45 172 9 260 -47 110 -187 180 -316 156z m173 -40 c98 -45 165 -162
151 -263 -13 -98 -76 -184 -162 -222 -52 -23 -147 -23 -205 -1 -87 34 -168
153 -168 248 0 16 9 55 20 86 53 151 219 221 364 152z"/>
<path d="M21562 19245 c-18 -36 -32 -67 -32 -69 0 -2 18 -6 40 -10 53 -8 99
-51 107 -98 10 -66 -60 -111 -115 -72 -24 16 -42 12 -42 -11 0 -16 30 -35 56
-35 33 0 99 39 117 69 41 70 9 152 -73 185 -22 9 -40 19 -40 23 1 22 21 32 69
35 45 3 55 7 62 26 8 21 6 22 -54 22 l-63 0 -32 -65z"/>
<path d="M17735 17340 c-10 -11 -16 -22 -13 -25 3 -3 11 1 18 10 18 22 47 18
65 -9 21 -32 7 -68 -53 -128 l-46 -48 67 0 c56 0 68 3 77 20 10 18 9 19 -15
10 -15 -6 -40 -10 -56 -10 l-30 0 45 56 c48 58 60 106 34 132 -19 19 -73 14
-93 -8z"/>
<path d="M17900 17341 c-14 -26 -13 -38 2 -23 7 7 31 12 54 12 l43 0 -31 -91
c-17 -49 -27 -93 -24 -96 9 -9 10 -6 49 110 l36 107 -59 0 c-48 0 -61 -4 -70
-19z"/>
<path d="M18075 17340 c-26 -28 -25 -88 1 -107 11 -8 30 -12 47 -9 15 3 27 3
27 0 0 -16 -36 -64 -54 -73 -16 -7 -17 -10 -5 -10 23 -1 66 35 84 69 25 48 15
119 -19 142 -21 14 -63 8 -81 -12z m75 -10 c6 -12 10 -35 8 -53 -3 -28 -7 -32
-33 -32 -26 0 -31 5 -39 37 -7 27 -6 41 4 52 18 22 47 20 60 -4z"/>
<path d="M18244 17339 c-15 -16 -19 -36 -19 -89 0 -78 19 -110 66 -110 41 0
64 40 64 110 0 70 -23 110 -64 110 -16 0 -36 -9 -47 -21z m71 1 c13 -21 17
-107 6 -147 -9 -32 -17 -43 -32 -43 -25 0 -39 36 -39 100 0 64 14 100 39 100
11 0 23 -4 26 -10z"/>
<path d="M20975 17340 c-10 -11 -16 -22 -13 -25 3 -3 11 1 18 10 18 22 47 18
65 -9 21 -32 7 -68 -53 -128 l-46 -48 67 0 c56 0 68 3 77 20 10 18 9 19 -15
10 -15 -6 -40 -10 -56 -10 l-30 0 45 56 c48 58 60 106 34 132 -19 19 -73 14
-93 -8z"/>
<path d="M21140 17341 c-14 -26 -13 -38 2 -23 7 7 31 12 54 12 l43 0 -31 -91
c-17 -49 -27 -93 -24 -96 9 -9 10 -6 49 110 l36 107 -59 0 c-48 0 -61 -4 -70
-19z"/>
<path d="M21315 17340 c-26 -28 -25 -88 1 -107 11 -8 30 -12 47 -9 15 3 27 3
27 0 0 -16 -36 -64 -54 -73 -16 -7 -17 -10 -5 -10 23 -1 66 35 84 69 25 48 15
119 -19 142 -21 14 -63 8 -81 -12z m75 -10 c6 -12 10 -35 8 -53 -3 -28 -7 -32
-33 -32 -26 0 -31 5 -39 37 -7 27 -6 41 4 52 18 22 47 20 60 -4z"/>
<path d="M21484 17339 c-15 -16 -19 -36 -19 -89 0 -78 19 -110 66 -110 41 0
64 40 64 110 0 70 -23 110 -64 110 -16 0 -36 -9 -47 -21z m71 1 c13 -21 17
-107 6 -147 -9 -32 -17 -43 -32 -43 -25 0 -39 36 -39 100 0 64 14 100 39 100
11 0 23 -4 26 -10z"/>
<path d="M17677 15903 c-193 -66 -252 -318 -109 -466 62 -65 104 -82 202 -82
98 0 140 17 202 82 105 109 108 284 5 391 -75 78 -201 110 -300 75z m225 -40
c63 -35 110 -99 128 -174 25 -103 -28 -225 -124 -284 -45 -27 -57 -30 -135
-30 -76 0 -91 3 -134 28 -59 35 -102 93 -123 165 -19 66 -13 116 22 189 64
132 232 181 366 106z"/>
<path d="M17733 15805 c-17 -7 -39 -28 -48 -45 -20 -38 -11 -53 11 -21 52 74
149 19 124 -70 -13 -44 -34 -74 -103 -146 l-60 -63 105 0 106 0 11 32 c13 36
9 45 -9 23 -9 -11 -32 -15 -83 -15 l-71 0 51 53 c73 74 103 123 103 167 0 40
-26 75 -67 91 -30 11 -31 11 -70 -6z"/>
<path d="M21390 15078 c-190 -73 -241 -318 -96 -464 91 -90 211 -110 324 -53
72 35 114 83 142 157 41 108 17 209 -68 292 -90 88 -191 111 -302 68z m195
-15 c69 -25 137 -94 160 -162 57 -172 -68 -351 -246 -351 -153 0 -258 98 -267
251 -11 190 171 326 353 262z"/>
<path d="M21490 14989 c-25 -10 -59 -46 -60 -62 0 -5 12 1 26 12 15 12 37 21
49 21 27 0 55 -29 55 -57 0 -26 -34 -70 -62 -79 -19 -6 -17 -8 18 -20 45 -15
64 -37 64 -74 0 -60 -52 -87 -115 -58 -20 9 -28 9 -38 -1 -21 -22 20 -44 71
-37 56 8 79 21 102 59 29 47 26 93 -8 127 -28 28 -28 29 -10 52 51 66 -14 149
-92 117z"/>
<path d="M19320 14963 c-44 -23 -53 -68 -19 -99 30 -27 147 -28 178 0 30 27
28 71 -5 92 -38 25 -112 29 -154 7z m133 -24 c27 -7 37 -15 37 -30 0 -25 -36
-39 -100 -39 -69 0 -102 14 -98 42 5 35 85 48 161 27z"/>
<path d="M22035 14971 c-36 -15 -58 -48 -51 -75 18 -71 199 -75 221 -6 8 27
-18 68 -51 80 -30 12 -91 12 -119 1z m154 -46 c15 -15 14 -18 -8 -36 -33 -27
-139 -27 -172 0 -20 16 -21 21 -10 34 17 21 44 26 115 22 38 -2 64 -9 75 -20z"/>
<path d="M19320 14793 c-44 -23 -53 -68 -19 -99 30 -27 147 -28 178 0 30 27
28 71 -5 92 -38 25 -112 29 -154 7z m133 -24 c27 -7 37 -15 37 -30 0 -25 -36
-39 -100 -39 -69 0 -102 14 -98 42 5 35 85 48 161 27z"/>
<path d="M22035 14801 c-36 -16 -58 -48 -51 -75 19 -75 204 -74 222 0 11 42
-32 76 -98 81 -29 1 -62 -1 -73 -6z m154 -46 c15 -15 14 -18 -8 -36 -32 -26
-139 -27 -171 -1 -45 36 3 64 99 58 42 -3 69 -10 80 -21z"/>
<path d="M19375 14620 c-13 -14 -16 -28 -11 -51 l6 -31 -33 19 c-17 11 -38 30
-44 44 -9 17 -13 19 -13 7 0 -27 58 -87 96 -97 36 -10 85 -1 110 20 23 19 18
75 -8 93 -31 22 -81 20 -103 -4z m113 -33 c6 -30 -17 -47 -64 -47 -42 0 -44 1
-44 29 0 34 11 41 65 38 29 -1 41 -7 43 -20z"/>
<path d="M21981 14625 c-2 -31 34 -82 70 -101 96 -49 207 28 136 94 -26 25
-74 29 -101 9 -14 -10 -17 -23 -14 -49 3 -29 1 -34 -13 -31 -23 6 -66 53 -72
78 l-5 20 -1 -20z m213 -38 c16 -27 -18 -49 -69 -45 -43 3 -58 26 -34 54 17
21 88 15 103 -9z"/>
<path d="M19280 14430 c0 -36 4 -41 40 -60 49 -25 50 -25 50 3 0 39 27 67 65
67 41 0 62 -28 45 -60 -6 -11 -8 -25 -5 -30 11 -18 25 1 25 34 0 72 -90 106
-137 52 -12 -15 -23 -34 -23 -42 0 -32 -25 -6 -28 28 -5 53 -32 59 -32 8z"/>
<path d="M22093 14458 c-12 -6 -29 -26 -38 -45 -20 -42 -39 -38 -43 10 -4 48
-32 52 -32 4 0 -29 5 -36 45 -55 43 -21 45 -21 45 -3 0 31 39 71 70 71 38 0
54 -22 46 -65 -8 -39 10 -50 19 -12 9 34 -10 74 -44 92 -34 17 -38 17 -68 3z"/>
<path d="M18667 10833 c-27 -9 -70 -36 -96 -59 -120 -108 -126 -291 -13 -407
62 -65 104 -82 202 -82 98 0 140 17 202 82 105 108 107 285 5 391 -75 78 -201
110 -300 75z m225 -40 c63 -35 110 -99 128 -174 25 -102 -28 -225 -122 -282
-55 -34 -148 -46 -215 -28 -106 29 -188 140 -188 256 0 203 217 328 397 228z"/>
<path d="M18785 10722 c-28 -16 -29 -17 -7 -20 22 -3 22 -6 22 -148 0 -141 -1
-145 -22 -154 -17 -6 -5 -9 47 -9 52 0 64 3 48 9 -23 9 -23 13 -23 175 0 183
0 184 -65 147z"/>
<path d="M22025 10641 c-36 -16 -58 -48 -51 -75 19 -75 204 -74 222 0 11 42
-32 76 -98 81 -29 1 -62 -1 -73 -6z m154 -46 c15 -15 14 -18 -8 -36 -33 -27
-139 -27 -172 0 -20 16 -21 21 -10 34 17 21 44 26 115 22 38 -2 64 -9 75 -20z"/>
<path d="M21355 10620 c-166 -27 -271 -185 -229 -347 35 -137 136 -216 274
-215 211 1 340 205 257 405 -45 107 -178 177 -302 157z m124 -27 c66 -21 137
-83 164 -142 28 -65 28 -161 -2 -223 -45 -93 -133 -150 -236 -152 -81 -1 -143
24 -194 79 -75 81 -96 173 -62 270 28 78 89 140 162 166 67 23 103 23 168 2z"/>
<path d="M21372 10414 c-45 -63 -82 -124 -82 -135 0 -17 7 -19 73 -19 l73 0 0
-42 c-1 -37 2 -43 22 -46 20 -3 22 1 22 42 0 42 2 46 25 46 18 0 25 5 25 20 0
15 -7 20 -25 20 l-25 0 0 115 c0 89 -3 115 -13 115 -8 0 -50 -52 -95 -116z
m67 -34 l-1 -80 -60 0 -60 0 18 28 c31 48 94 132 100 132 2 0 4 -36 3 -80z"/>
<path d="M21987 10452 c-35 -38 -9 -102 40 -102 11 0 40 22 66 50 48 52 66 60
87 35 30 -36 -11 -77 -60 -58 -33 12 -41 0 -11 -17 29 -15 56 -12 74 8 21 23
22 51 1 80 -19 28 -53 28 -87 2 l-26 -21 -21 21 c-25 25 -42 25 -63 2z m70
-28 c8 -21 -30 -59 -51 -51 -20 8 -30 32 -22 52 7 20 65 20 73 -1z"/>
<path d="M22102 10285 c-29 -24 -29 -24 -47 -5 -25 28 -63 26 -76 -4 -16 -34
-3 -74 27 -88 20 -10 29 -8 52 9 27 20 28 20 51 2 31 -25 56 -24 75 3 22 31
20 64 -4 88 -26 26 -42 25 -78 -5z m-53 -19 c9 -11 10 -20 1 -36 -14 -26 -63
-24 -68 3 -8 39 42 63 67 33z m136 3 c4 -5 4 -21 1 -35 -5 -19 -13 -24 -39
-24 -48 0 -62 18 -35 47 22 24 62 31 73 12z"/>
<path d="M18248 9939 c-10 -5 -18 -15 -18 -21 0 -9 3 -9 12 0 16 16 33 15 52
-4 22 -21 20 -31 -9 -58 l-25 -24 25 -6 c30 -8 44 -49 24 -72 -10 -12 -23 -14
-52 -10 -29 5 -38 3 -35 -6 8 -22 62 -21 91 2 32 25 36 73 10 102 -13 14 -14
21 -5 30 15 15 15 51 0 66 -15 15 -47 15 -70 1z"/>
<path d="M18411 9924 c-24 -30 -27 -72 -8 -98 10 -14 23 -17 50 -14 20 2 37 2
37 0 0 -17 -40 -64 -64 -76 -17 -9 -25 -16 -18 -16 41 0 99 52 113 102 25 96
-56 171 -110 102z m66 4 c31 -40 20 -108 -17 -108 -23 0 -40 28 -40 67 0 45
35 69 57 41z"/>
<path d="M18600 9935 c-20 -11 -21 -14 -7 -15 17 0 18 -9 15 -95 -3 -89 -2
-95 17 -95 19 0 20 6 17 110 -2 60 -6 110 -10 110 -4 -1 -18 -7 -32 -15z"/>
<path d="M18762 9943 c-22 -9 -42 -60 -42 -108 0 -86 45 -134 96 -100 33 22
47 60 41 118 -6 70 -48 109 -95 90z m49 -20 c22 -26 19 -158 -4 -180 -18 -17
-19 -17 -38 6 -24 30 -27 135 -3 169 18 26 27 27 45 5z"/>
<path d="M22042 18815 c0 -16 2 -22 5 -12 2 9 2 23 0 30 -3 6 -5 -1 -5 -18z"/>
<path d="M22041 18764 c0 -11 3 -14 6 -6 3 7 2 16 -1 19 -3 4 -6 -2 -5 -13z"/>
<path d="M22042 18720 c0 -14 2 -19 5 -12 2 6 2 18 0 25 -3 6 -5 1 -5 -13z"/>
<path d="M22041 18674 c0 -11 3 -14 6 -6 3 7 2 16 -1 19 -3 4 -6 -2 -5 -13z"/>
<path d="M22041 18634 c0 -11 3 -14 6 -6 3 7 2 16 -1 19 -3 4 -6 -2 -5 -13z"/>
<path d="M22042 18590 c0 -14 2 -19 5 -12 2 6 2 18 0 25 -3 6 -5 1 -5 -13z"/>
<path d="M22042 18520 c0 -14 2 -19 5 -12 2 6 2 18 0 25 -3 6 -5 1 -5 -13z"/>
<path d="M22041 18474 c0 -11 3 -14 6 -6 3 7 2 16 -1 19 -3 4 -6 -2 -5 -13z"/>
<path d="M22041 18434 c0 -11 3 -14 6 -6 3 7 2 16 -1 19 -3 4 -6 -2 -5 -13z"/>
<path d="M22042 18385 c0 -16 2 -22 5 -12 2 9 2 23 0 30 -3 6 -5 -1 -5 -18z"/>
<path d="M22041 18334 c0 -11 3 -14 6 -6 3 7 2 16 -1 19 -3 4 -6 -2 -5 -13z"/>
<path d="M22041 18294 c0 -11 3 -14 6 -6 3 7 2 16 -1 19 -3 4 -6 -2 -5 -13z"/>
<path d="M22042 18250 c0 -14 2 -19 5 -12 2 6 2 18 0 25 -3 6 -5 1 -5 -13z"/>
<path d="M22041 18184 c0 -11 3 -14 6 -6 3 7 2 16 -1 19 -3 4 -6 -2 -5 -13z"/>
<path d="M22041 18144 c0 -11 3 -14 6 -6 3 7 2 16 -1 19 -3 4 -6 -2 -5 -13z"/>
<path d="M21520 11205 c-19 -11 -21 -14 -7 -15 15 0 17 -11 17 -88 0 -48 -5
-93 -10 -98 -7 -7 0 -10 24 -10 22 1 31 5 25 11 -5 5 -9 55 -9 112 0 57 -3
103 -7 103 -5 -1 -19 -7 -33 -15z"/>
<path d="M21653 11203 c-3 -10 -8 -22 -11 -26 -2 -5 5 -4 16 2 18 10 92 16 92
8 0 -2 -13 -43 -30 -92 -31 -92 -36 -116 -22 -99 15 15 81 211 75 218 -4 3
-30 6 -60 6 -42 0 -55 -4 -60 -17z"/>
<path d="M21823 11203 c-3 -10 -8 -22 -11 -26 -2 -5 5 -4 16 2 18 10 92 16 92
8 0 -2 -13 -43 -30 -92 -31 -92 -36 -116 -22 -99 15 15 81 211 75 218 -4 3
-30 6 -60 6 -42 0 -55 -4 -60 -17z"/>
<path d="M22001 11194 c-58 -74 -19 -218 53 -200 35 9 56 54 56 121 0 46 -4
60 -25 80 -31 32 -58 32 -84 -1z m69 -3 c17 -32 13 -157 -6 -176 -22 -22 -37
-15 -51 26 -14 36 -9 119 8 151 13 24 36 23 49 -1z"/>
<path d="M16795 10641 c-36 -16 -58 -48 -51 -75 19 -75 204 -74 222 0 11 42
-32 76 -98 81 -29 1 -62 -1 -73 -6z m154 -46 c15 -15 14 -18 -8 -36 -33 -27
-139 -27 -172 0 -20 16 -21 21 -10 34 17 21 44 26 115 22 38 -2 64 -9 75 -20z"/>
<path d="M16757 10452 c-35 -38 -9 -102 40 -102 11 0 40 22 66 50 48 52 66 60
87 35 30 -36 -11 -77 -60 -58 -33 12 -41 0 -11 -17 29 -15 56 -12 74 8 21 23
22 51 1 80 -19 28 -53 28 -87 2 l-26 -21 -21 21 c-25 25 -42 25 -63 2z m70
-28 c8 -21 -30 -59 -51 -51 -20 8 -30 32 -22 52 7 20 65 20 73 -1z"/>
<path d="M16872 10285 c-29 -24 -29 -24 -47 -5 -25 28 -63 26 -76 -4 -16 -34
-3 -74 27 -88 20 -10 29 -8 52 9 27 20 28 20 51 2 31 -25 56 -24 75 3 22 31
20 64 -4 88 -26 26 -42 25 -78 -5z m-53 -19 c9 -11 10 -20 1 -36 -14 -26 -63
-24 -68 3 -8 39 42 63 67 33z m136 3 c4 -5 4 -21 1 -35 -5 -19 -13 -24 -39
-24 -48 0 -62 18 -35 47 22 24 62 31 73 12z"/>
<path d="M16957 10105 c-5 -12 -26 -15 -111 -15 l-106 0 12 -25 c10 -21 13
-23 22 -9 10 13 29 15 98 12 86 -3 87 -3 91 22 6 29 2 38 -6 15z"/>
<path d="M3688 9043 l-38 -4 1 -47 c0 -36 2 -42 9 -26 12 31 68 74 96 74 59 0
114 -60 114 -124 0 -24 -3 -25 -62 -29 l-63 -3 63 -2 c60 -2 62 -3 62 -28 0
-98 -102 -155 -186 -103 -19 11 -34 18 -34 15 0 -18 70 -46 115 -46 95 0 155
62 155 161 0 65 -24 109 -79 146 -34 23 -60 26 -153 16z"/>
<path d="M8742 9018 c4 -26 52 -44 92 -34 41 10 76 56 42 56 -7 0 -21 -11 -30
-25 -9 -14 -25 -25 -36 -25 -12 0 -25 10 -32 25 -14 32 -41 34 -36 3z"/>
<path d="M3968 8930 c20 -9 22 -16 22 -92 0 -86 -4 -101 -30 -111 -8 -3 12 -5
45 -6 46 0 55 2 38 9 -19 8 -23 17 -23 55 0 62 21 59 60 -10 28 -48 35 -55 63
-55 27 0 29 2 15 13 -9 6 -32 35 -50 63 -33 49 -34 51 -18 80 11 19 25 29 41
29 15 0 25 7 27 18 2 12 -3 17 -17 17 -22 0 -30 -7 -64 -60 -12 -19 -30 -36
-40 -38 -14 -3 -17 4 -17 38 0 33 4 42 23 50 17 7 8 9 -38 9 -46 0 -55 -2 -37
-9z"/>
<path d="M4244 8925 c-50 -34 -57 -134 -13 -181 34 -36 89 -33 123 7 14 17 26
35 26 41 0 6 -9 -1 -21 -16 -38 -49 -95 -29 -120 42 -15 44 4 100 37 108 33 8
54 -2 54 -26 0 -13 7 -20 20 -20 26 0 27 36 1 50 -28 15 -83 12 -107 -5z"/>
<path d="M4428 8930 c20 -9 22 -16 22 -92 0 -86 -4 -101 -30 -111 -8 -3 10 -6
40 -6 42 0 51 2 38 10 -15 8 -18 25 -18 104 l0 95 50 0 50 0 0 -95 c0 -79 -3
-96 -17 -104 -14 -8 -5 -10 37 -10 30 1 47 3 38 6 -16 4 -18 18 -18 103 0 85
2 99 18 103 9 3 -39 5 -108 5 -84 1 -118 -2 -102 -8z"/>
<path d="M4713 8933 c16 -4 17 -15 15 -96 -2 -54 -7 -91 -13 -90 -5 1 -18 5
-27 8 -14 5 -18 2 -18 -14 0 -15 6 -21 24 -21 37 0 48 24 54 120 l5 90 33 0
34 0 0 -99 c0 -95 -1 -100 -22 -104 -13 -2 4 -5 37 -5 45 -1 56 1 43 9 -15 8
-18 25 -18 99 0 74 3 91 18 99 12 8 -11 10 -83 10 -55 -1 -92 -3 -82 -6z"/>
<path d="M4938 8930 c20 -9 22 -16 22 -92 0 -86 -4 -101 -30 -111 -8 -3 10 -6
40 -6 42 0 51 2 38 10 -27 15 -22 29 32 89 l49 55 1 -67 c0 -54 -4 -69 -17
-77 -14 -8 -5 -10 37 -10 30 1 47 3 38 6 -16 4 -18 18 -18 103 0 85 2 99 18
103 9 3 -8 5 -38 6 -42 0 -51 -2 -37 -10 26 -15 21 -29 -33 -89 l-49 -55 -1
67 c0 54 4 69 18 77 13 8 4 10 -38 10 -43 0 -50 -2 -32 -9z"/>
<path d="M5208 8930 c20 -9 22 -16 22 -92 0 -86 -4 -101 -30 -111 -8 -3 12 -5
45 -6 46 0 55 2 38 9 -19 8 -23 17 -23 55 0 62 21 59 60 -10 28 -48 35 -55 63
-55 27 0 29 2 15 13 -9 6 -32 35 -50 63 -33 49 -34 51 -18 80 11 19 25 29 41
29 15 0 25 7 27 18 2 12 -3 17 -17 17 -22 0 -30 -7 -64 -60 -12 -19 -30 -36
-40 -38 -14 -3 -17 4 -17 38 0 33 4 42 23 50 17 7 8 9 -38 9 -46 0 -55 -2 -37
-9z"/>
<path d="M5455 8920 c-9 -10 -15 -26 -12 -35 10 -24 24 -17 31 16 5 27 9 30
38 27 29 -3 33 -7 36 -33 3 -28 -1 -32 -47 -52 -60 -25 -81 -58 -63 -98 14
-29 50 -33 86 -10 21 14 24 14 29 0 9 -22 41 -18 63 7 12 14 13 18 3 10 -24
-18 -29 -5 -29 79 0 93 -11 109 -74 109 -30 0 -48 -6 -61 -20z m95 -115 c0
-39 -4 -47 -25 -57 -57 -26 -78 48 -22 82 17 11 35 20 40 20 4 0 7 -20 7 -45z"/>
<path d="M5658 8930 c20 -9 22 -16 22 -92 0 -86 -4 -101 -30 -111 -8 -3 30 -6
86 -6 100 -1 125 -8 137 -41 3 -8 6 0 6 18 1 22 -4 32 -14 32 -12 0 -15 18
-15 99 0 86 2 100 18 104 9 3 -8 5 -38 5 -30 0 -47 -2 -37 -5 16 -4 17 -15 15
-101 l-3 -97 -45 0 -45 0 -3 90 c-2 76 0 92 14 102 15 11 10 13 -37 12 -42 0
-49 -2 -31 -9z"/>
<path d="M5928 8930 c20 -9 22 -16 22 -92 0 -86 -4 -101 -30 -111 -8 -3 10 -6
40 -6 42 0 51 2 38 10 -27 15 -22 29 32 89 l49 55 1 -67 c0 -54 -4 -69 -17
-77 -14 -8 -5 -10 37 -10 30 1 47 3 38 6 -16 4 -18 18 -18 103 0 85 2 99 18
103 9 3 -8 5 -38 6 -42 0 -51 -2 -37 -10 26 -15 21 -29 -33 -89 l-49 -55 -1
67 c0 54 4 69 18 77 13 8 4 10 -38 10 -43 0 -50 -2 -32 -9z"/>
<path d="M6223 8928 c-43 -20 -38 -79 8 -93 20 -7 19 -7 -7 -43 -15 -21 -36
-45 -46 -54 -20 -18 -20 -18 8 -18 23 0 36 10 63 50 32 48 61 65 61 36 0 -37
-14 -75 -29 -79 -9 -3 9 -5 39 -6 42 0 51 2 38 10 -15 8 -18 25 -18 99 0 74 3
91 18 99 24 15 -105 13 -135 -1z m85 -42 c4 -47 -8 -62 -37 -47 -36 20 -44 48
-21 71 32 32 54 22 58 -24z"/>
<path d="M6538 8930 c20 -9 22 -16 22 -92 0 -86 -4 -101 -30 -111 -8 -3 10 -6
40 -6 42 0 51 2 38 10 -15 8 -18 25 -18 104 l0 95 50 0 50 0 0 -95 c0 -79 -3
-96 -17 -104 -14 -8 -5 -10 37 -10 30 1 47 3 38 6 -16 4 -18 18 -18 103 0 85
2 99 18 103 9 3 -39 5 -108 5 -84 1 -118 -2 -102 -8z"/>
<path d="M6847 8929 c-43 -25 -60 -106 -32 -159 41 -79 156 -63 185 26 24 72
-23 144 -94 144 -23 0 -49 -5 -59 -11z m87 -14 c25 -26 40 -88 30 -130 -25
-104 -124 -53 -124 62 0 69 54 108 94 68z"/>
<path d="M7048 8930 c20 -9 22 -16 22 -92 0 -86 -4 -101 -30 -111 -8 -3 5 -6
30 -6 35 0 41 2 28 10 -15 8 -18 24 -17 92 0 92 -3 95 57 -42 l28 -64 39 94
40 94 3 -80 c2 -66 0 -82 -14 -92 -15 -11 -10 -13 37 -12 30 1 46 3 37 6 -16
4 -18 18 -18 103 0 85 2 99 18 103 9 3 -1 5 -22 4 -39 -2 -40 -3 -69 -72 -16
-38 -32 -73 -36 -78 -4 -4 -22 29 -40 73 l-33 80 -42 -1 c-35 0 -37 -2 -18 -9z"/>
<path d="M7393 8925 c-51 -36 -54 -147 -6 -185 46 -36 105 -25 130 24 l16 31
-25 -22 c-13 -13 -34 -23 -46 -23 -31 0 -71 40 -78 78 l-6 32 76 0 c67 0 76 2
76 18 0 10 -9 28 -20 40 -25 26 -85 30 -117 7z m81 -17 c24 -34 20 -38 -39
-38 -30 0 -55 3 -55 8 0 20 34 52 55 52 13 0 31 -10 39 -22z"/>
<path d="M7578 8930 c20 -9 22 -16 22 -92 0 -86 -4 -101 -30 -111 -8 -3 57 -6
146 -6 169 -1 180 -4 197 -51 3 -8 6 1 6 21 1 29 -3 38 -19 42 -18 5 -20 14
-20 96 0 86 1 92 23 101 17 7 10 9 -32 9 -47 1 -52 -1 -37 -12 14 -10 16 -26
14 -102 l-3 -90 -40 0 -40 0 -3 97 c-2 86 -1 97 15 101 10 3 -7 5 -37 5 -30 0
-47 -2 -37 -5 16 -4 17 -15 15 -101 l-3 -97 -40 0 -40 0 -3 90 c-2 76 0 92 14
102 15 11 10 13 -37 12 -42 0 -49 -2 -31 -9z"/>
<path d="M7993 8925 c-51 -36 -54 -147 -6 -185 46 -36 105 -25 130 24 l16 31
-25 -22 c-13 -13 -34 -23 -46 -23 -31 0 -71 40 -78 78 l-6 32 76 0 c67 0 76 2
76 18 0 10 -9 28 -20 40 -25 26 -85 30 -117 7z m81 -17 c24 -34 20 -38 -39
-38 -30 0 -55 3 -55 8 0 20 34 52 55 52 13 0 31 -10 39 -22z"/>
<path d="M8178 8930 c20 -9 22 -16 22 -92 0 -86 -4 -101 -30 -111 -8 -3 10 -6
40 -6 42 0 51 2 38 10 -13 7 -18 23 -18 54 l0 45 50 0 50 0 0 -45 c0 -31 -5
-47 -17 -54 -14 -8 -5 -10 37 -10 30 1 47 3 38 6 -16 4 -18 18 -18 103 0 85 2
99 18 103 9 3 -8 5 -38 6 -42 0 -51 -2 -37 -10 11 -7 17 -22 17 -49 l0 -40
-50 0 -50 0 0 40 c0 27 6 42 18 49 13 8 4 10 -38 10 -43 0 -50 -2 -32 -9z"/>
<path d="M8438 8930 c20 -9 22 -16 22 -92 0 -86 -4 -101 -30 -111 -8 -3 10 -6
40 -6 42 0 51 2 38 10 -27 15 -22 29 32 89 l49 55 1 -67 c0 -54 -4 -69 -17
-77 -14 -8 -5 -10 37 -10 30 1 47 3 38 6 -16 4 -18 18 -18 103 0 85 2 99 18
103 9 3 -8 5 -38 6 -42 0 -51 -2 -37 -10 26 -15 21 -29 -33 -89 l-49 -55 -1
67 c0 54 4 69 18 77 13 8 4 10 -38 10 -43 0 -50 -2 -32 -9z"/>
<path d="M8708 8930 c20 -9 22 -16 22 -92 0 -86 -4 -101 -30 -111 -8 -3 10 -6
40 -6 42 0 51 2 38 10 -27 15 -22 29 32 89 l49 55 1 -67 c0 -54 -4 -69 -17
-77 -14 -8 -5 -10 37 -10 30 1 47 3 38 6 -16 4 -18 18 -18 103 0 85 2 99 18
103 9 3 -8 5 -38 6 -42 0 -51 -2 -37 -10 26 -15 21 -29 -33 -89 l-49 -55 -1
67 c0 54 4 69 18 77 13 8 4 10 -38 10 -43 0 -50 -2 -32 -9z"/>
<path d="M1497 8383 c-4 -3 -7 -1585 -7 -3515 l0 -3508 3973 -2 c2184 -2 4349
-2 4810 0 l837 2 0 3515 0 3515 -4803 0 c-2642 0 -4807 -3 -4810 -7z m1248
-851 c0 -548 3 -832 10 -832 7 0 9 283 7 835 l-2 835 3332 -2 3333 -3 0 -833
c0 -548 3 -832 10 -832 7 0 9 283 7 835 l-2 835 826 -2 826 -3 0 -3495 0
-3495 -826 -3 -826 -2 0 1667 c0 2896 0 3016 -6 3010 -3 -3 -7 -1056 -8 -2339
l-1 -2333 -3957 -3 -3958 -2 0 3500 0 3500 618 -2 617 -3 0 -833z"/>
<path d="M1668 7903 c3 -93 1 -109 -14 -120 -16 -11 -12 -13 27 -12 24 0 38 3
32 6 -8 3 -13 25 -13 59 l0 54 60 0 60 0 0 -50 c0 -36 -5 -52 -17 -59 -14 -8
-8 -10 27 -11 28 0 40 3 32 9 -10 6 -13 35 -10 120 3 107 2 111 -18 111 -19 0
-20 -4 -16 -55 l4 -55 -62 0 -62 0 4 55 c3 50 1 55 -17 55 -19 0 -20 -6 -17
-107z"/>
<path d="M1985 7930 c34 -13 48 -39 48 -84 0 -53 -7 -66 -38 -66 -45 0 -72 79
-45 130 8 15 7 18 -3 14 -18 -6 -37 -48 -37 -78 0 -66 83 -101 128 -53 33 35
30 99 -4 126 -15 12 -36 21 -48 20 -21 0 -21 0 -1 -9z"/>
<path d="M2397 7930 c12 -5 24 -18 28 -29 6 -21 35 -30 35 -11 0 19 -40 50
-62 49 l-23 0 22 -9z"/>
<path d="M2513 7932 c-8 -5 -11 -37 -9 -97 1 -50 -1 -102 -5 -117 -7 -26 -6
-28 24 -27 18 0 26 3 20 6 -7 2 -13 22 -13 44 0 32 3 37 18 32 16 -7 16 -6 0
11 -26 26 -25 112 1 126 27 14 47 4 61 -30 14 -35 5 -86 -18 -100 -10 -5 -12
-10 -4 -10 27 0 52 39 52 85 0 32 -6 51 -20 65 -24 24 -38 25 -67 5 -19 -13
-22 -13 -25 0 -2 8 -8 11 -15 7z"/>
<path d="M2110 7921 c0 -5 6 -14 14 -20 8 -7 24 -36 36 -66 24 -59 34 -67 43
-35 3 11 2 20 -3 20 -4 0 -18 25 -30 55 -16 39 -28 55 -41 55 -11 0 -19 -4
-19 -9z"/>
<path d="M2249 7923 c-1 -5 0 -37 1 -72 1 -44 -2 -66 -12 -72 -8 -6 1 -9 27
-9 26 0 35 3 27 9 -10 6 -13 28 -10 80 3 62 1 71 -14 71 -10 0 -19 -3 -19 -7z"/>
<path d="M2347 7912 c-25 -27 -22 -97 4 -123 28 -28 76 -22 98 11 15 25 15 25
-5 8 -28 -24 -46 -23 -72 5 -24 26 -30 85 -10 105 7 7 10 12 7 12 -3 0 -13 -8
-22 -18z"/>
<path d="M2216 7855 c-9 -26 -7 -32 5 -12 6 10 9 21 6 23 -2 3 -7 -2 -11 -11z"/>
<path d="M2105 7780 c-3 -5 3 -10 15 -10 12 0 18 5 15 10 -3 6 -10 10 -15 10
-5 0 -12 -4 -15 -10z"/>
<path d="M10045 7760 c34 -13 48 -39 48 -84 0 -53 -7 -66 -38 -66 -45 0 -72
79 -45 130 8 15 7 18 -3 14 -18 -6 -37 -48 -37 -78 0 -66 83 -101 128 -53 33
35 30 99 -4 126 -15 12 -36 21 -48 20 -21 0 -21 0 -1 -9z"/>
<path d="M10468 7759 c-10 -5 -18 -19 -18 -29 0 -28 18 -25 22 3 2 16 10 22
28 22 31 0 40 -33 14 -53 -18 -14 -18 -14 -1 -8 16 5 18 1 16 -34 -4 -45 11
-66 38 -55 12 5 14 9 6 12 -9 3 -13 26 -13 63 0 40 -5 64 -16 74 -18 18 -51
20 -76 5z"/>
<path d="M9608 7695 c3 -43 0 -70 -8 -80 -11 -13 -8 -15 21 -14 19 0 28 3 22
6 -9 3 -13 29 -13 79 0 54 -4 74 -13 74 -10 0 -12 -16 -9 -65z"/>
<path d="M9708 7695 c2 -42 -1 -71 -8 -80 -11 -13 -7 -15 20 -15 27 0 31 2 20
15 -7 9 -10 38 -8 80 2 53 0 65 -12 65 -12 0 -14 -12 -12 -65z"/>
<path d="M9820 7749 c0 -5 5 -7 10 -4 6 3 10 8 10 11 0 2 -4 4 -10 4 -5 0 -10
-5 -10 -11z"/>
<path d="M9888 7680 l-3 -80 30 0 c20 0 26 3 17 9 -10 6 -13 28 -10 80 3 61 1
71 -14 71 -14 0 -17 -13 -20 -80z"/>
<path d="M10178 7697 c3 -50 1 -67 -13 -80 -15 -16 -8 -17 117 -17 77 0 127 4
120 9 -10 6 -13 28 -10 80 3 62 1 71 -14 71 -16 0 -18 -10 -18 -75 l0 -75 -29
0 c-35 0 -38 8 -36 88 1 50 -2 62 -14 62 -13 0 -15 -12 -13 -76 l4 -75 -34 3
-33 3 0 73 c0 58 -3 72 -15 72 -13 0 -15 -11 -12 -63z"/>
<path d="M10649 7713 c4 -52 7 -49 13 10 2 22 0 37 -7 37 -6 0 -9 -18 -6 -47z"/>
<path d="M10715 7688 l0 -73 -43 -3 c-31 -2 -42 0 -37 8 4 7 -1 6 -14 -2 -12
-7 -21 -19 -21 -27 0 -12 3 -12 12 -3 7 7 38 12 69 12 48 0 60 -4 73 -22 16
-22 16 -22 16 -1 0 11 -7 26 -16 34 -12 10 -15 28 -12 81 2 55 0 68 -12 68
-12 0 -15 -15 -15 -72z"/>
<path d="M10808 7689 c3 -52 0 -74 -10 -80 -8 -6 6 -9 37 -9 56 0 95 20 95 50
0 23 -28 40 -64 40 -23 0 -26 4 -26 35 0 27 -4 35 -17 35 -16 0 -18 -9 -15
-71z m85 -31 c13 -20 -6 -48 -34 -48 -15 0 -19 7 -19 36 0 31 3 35 21 32 12
-2 27 -10 32 -20z"/>
<path d="M4658 7688 c13 -13 17 -265 4 -284 -4 -7 -16 -14 -27 -17 -11 -2 14
-5 55 -5 45 0 65 3 50 7 -23 6 -25 12 -28 79 l-3 73 78 -3 78 -3 3 -34 c6 -57
-7 -101 -31 -111 -16 -6 -2 -9 48 -9 53 0 64 3 47 9 -23 10 -23 11 -20 160 l3
150 -33 0 c-30 0 -32 -2 -22 -20 6 -11 10 -44 8 -73 l-3 -52 -77 -3 -78 -3 0
70 c0 46 4 71 13 74 6 3 -8 6 -32 6 -35 1 -42 -2 -33 -11z"/>
<path d="M10462 7674 c-40 -28 -11 -88 34 -70 18 8 18 9 -3 17 -25 9 -30 38
-11 57 17 17 7 15 -20 -4z"/>
<path d="M9821 7641 c-1 -18 -5 -22 -21 -18 -25 6 -38 -11 -15 -19 22 -9 48
18 42 42 -4 15 -5 14 -6 -5z"/>
<path d="M5015 7584 c-17 -18 -17 -45 1 -51 6 -2 14 10 18 27 5 28 9 31 38 28
28 -3 33 -7 36 -33 2 -27 -2 -32 -50 -55 -63 -30 -76 -48 -62 -87 12 -34 51
-42 88 -18 24 16 26 16 32 1 9 -23 38 -20 60 6 12 14 13 18 3 10 -24 -18 -29
-5 -29 79 0 57 -4 82 -16 93 -21 21 -97 21 -119 0z m95 -119 c0 -39 -4 -47
-25 -57 -57 -26 -78 48 -22 82 17 11 35 20 40 20 4 0 7 -20 7 -45z"/>
<path d="M5218 7590 c20 -9 22 -16 22 -92 0 -86 -4 -101 -30 -111 -8 -3 10 -6
40 -6 42 0 51 2 38 10 -27 15 -22 29 32 89 l49 55 1 -67 c0 -54 -4 -69 -17
-77 -14 -8 -5 -10 37 -10 30 1 47 3 38 6 -16 4 -18 18 -18 103 0 85 2 99 18
103 9 3 -8 5 -38 6 -42 0 -51 -2 -37 -10 26 -15 21 -29 -33 -89 l-49 -55 -1
67 c0 54 4 69 18 77 13 8 4 10 -38 10 -43 0 -50 -2 -32 -9z"/>
<path d="M5488 7590 c20 -9 22 -16 22 -92 0 -86 -4 -101 -30 -111 -8 -3 5 -6
30 -6 35 0 41 2 28 10 -15 8 -18 24 -17 92 0 92 -3 95 57 -42 l28 -64 39 94
40 94 3 -80 c2 -66 0 -82 -14 -92 -15 -11 -10 -13 37 -12 30 1 46 3 37 6 -16
4 -18 18 -18 103 0 85 2 99 18 103 9 3 -1 5 -22 4 -39 -2 -40 -3 -69 -72 -16
-38 -32 -73 -36 -78 -4 -4 -22 29 -40 73 l-33 80 -42 -1 c-35 0 -37 -2 -18 -9z"/>
<path d="M5834 7585 c-52 -36 -57 -141 -9 -182 37 -32 89 -31 120 3 32 34 33
55 2 26 -13 -12 -33 -22 -45 -22 -31 0 -71 40 -78 78 l-6 32 76 0 c67 0 76 2
76 18 0 10 -9 28 -20 40 -25 26 -84 30 -116 7z m80 -17 c24 -34 20 -38 -39
-38 -30 0 -55 3 -55 8 0 20 34 52 55 52 13 0 31 -10 39 -22z"/>
<path d="M6018 7590 c20 -9 22 -16 22 -92 0 -86 -4 -101 -30 -111 -8 -3 10 -6
40 -6 42 0 51 2 38 10 -13 7 -18 23 -18 54 l0 45 50 0 50 0 0 -45 c0 -31 -5
-47 -17 -54 -14 -8 -5 -10 37 -10 42 0 51 2 38 10 -15 8 -18 25 -18 104 0 81
2 94 18 98 9 3 -8 5 -38 6 -42 0 -51 -2 -37 -10 11 -7 17 -22 17 -49 l0 -40
-50 0 -50 0 0 40 c0 27 6 42 18 49 13 8 4 10 -38 10 -43 0 -50 -2 -32 -9z"/>
<path d="M6327 7589 c-43 -25 -60 -106 -32 -159 41 -79 156 -63 185 25 25 75
-21 145 -94 145 -22 0 -49 -5 -59 -11z m87 -14 c28 -29 41 -90 27 -136 -13
-44 -28 -54 -65 -45 -48 12 -74 126 -40 174 18 26 56 29 78 7z"/>
<path d="M6533 7589 c14 -8 17 -24 17 -92 0 -85 -4 -99 -30 -110 -8 -4 24 -5
72 -4 96 4 118 14 118 58 0 21 -7 32 -27 42 l-27 14 22 12 c29 15 29 55 0 75
-15 11 -45 16 -93 16 -52 -1 -66 -3 -52 -11z m108 -9 c42 -23 14 -80 -40 -80
-18 0 -21 6 -21 45 0 39 3 45 21 45 11 0 29 -5 40 -10z m7 -106 c12 -8 22 -24
22 -34 0 -26 -43 -54 -70 -45 -16 5 -20 15 -20 51 0 39 3 44 23 44 12 0 33 -7
45 -16z"/>
<path d="M6775 7584 c-17 -18 -17 -45 1 -51 6 -2 14 10 18 27 5 28 9 31 38 28
28 -3 33 -7 36 -33 2 -27 -2 -32 -50 -55 -63 -30 -76 -48 -62 -87 12 -34 51
-42 88 -18 24 16 26 16 32 1 9 -23 38 -20 60 6 12 14 13 18 3 10 -24 -18 -29
-5 -29 79 0 57 -4 82 -16 93 -21 21 -97 21 -119 0z m95 -119 c0 -39 -4 -47
-25 -57 -57 -26 -78 48 -22 82 17 11 35 20 40 20 4 0 7 -20 7 -45z"/>
<path d="M6978 7590 c20 -9 22 -16 22 -92 0 -86 -4 -101 -30 -111 -8 -3 10 -6
40 -6 42 0 51 2 38 10 -13 7 -18 23 -18 54 l0 45 50 0 50 0 0 -45 c0 -31 -5
-47 -17 -54 -14 -8 -5 -10 37 -10 42 0 51 2 38 10 -15 8 -18 25 -18 104 0 81
2 94 18 98 9 3 -8 5 -38 6 -42 0 -51 -2 -37 -10 11 -7 17 -22 17 -49 l0 -40
-50 0 -50 0 0 40 c0 27 6 42 18 49 13 8 4 10 -38 10 -43 0 -50 -2 -32 -9z"/>
<path d="M7238 7590 c20 -9 22 -16 22 -92 0 -86 -4 -101 -30 -111 -8 -3 10 -6
40 -6 42 0 51 2 38 10 -27 15 -22 29 32 89 l49 55 1 -67 c0 -54 -4 -69 -17
-77 -14 -8 -5 -10 37 -10 30 1 47 3 38 6 -16 4 -18 18 -18 103 0 85 2 99 18
103 9 3 -8 5 -38 6 -42 0 -51 -2 -37 -10 26 -15 21 -29 -33 -89 l-49 -55 -1
67 c0 54 4 69 18 77 13 8 4 10 -38 10 -43 0 -50 -2 -32 -9z"/>
<path d="M7534 7585 c-52 -36 -57 -141 -9 -182 37 -32 89 -31 120 3 32 34 33
55 2 26 -13 -12 -33 -22 -45 -22 -31 0 -71 40 -78 78 l-6 32 76 0 c67 0 76 2
76 18 0 10 -9 28 -20 40 -25 26 -84 30 -116 7z m80 -17 c24 -34 20 -38 -39
-38 -30 0 -55 3 -55 8 0 20 34 52 55 52 13 0 31 -10 39 -22z"/>
<path d="M1885 7495 c-51 -50 -23 -145 43 -145 61 0 97 61 71 122 -21 51 -76
62 -114 23z m75 0 c18 -22 25 -102 10 -120 -18 -22 -57 -19 -71 7 -16 30 -16
92 0 112 17 20 45 21 61 1z"/>
<path d="M2347 7510 c12 -5 24 -18 28 -29 6 -21 35 -30 35 -11 0 19 -40 50
-62 49 l-23 0 22 -9z"/>
<path d="M1678 7445 c3 -43 0 -70 -8 -80 -11 -13 -8 -15 21 -15 23 0 29 3 21
9 -10 6 -13 28 -10 80 2 59 0 71 -12 71 -13 0 -15 -11 -12 -65z"/>
<path d="M1778 7443 c3 -55 1 -69 -14 -80 -16 -12 -14 -13 20 -13 33 0 37 2
26 15 -7 9 -10 38 -8 80 2 53 0 65 -12 65 -12 0 -14 -13 -12 -67z"/>
<path d="M2058 7439 c3 -52 0 -74 -10 -80 -9 -6 -3 -8 17 -8 17 0 24 3 18 6
-9 3 -13 26 -12 66 l1 62 32 -70 33 -69 11 32 c7 19 7 30 1 27 -5 -4 -21 19
-34 49 -17 37 -31 56 -42 56 -16 0 -18 -9 -15 -71z"/>
<path d="M2186 7494 c-8 -22 -8 -26 4 -19 15 9 13 -98 -2 -113 -9 -9 -5 -12
21 -12 28 0 32 2 21 15 -7 9 -10 38 -8 80 2 55 0 65 -13 65 -9 0 -20 -7 -23
-16z"/>
<path d="M2297 7492 c-25 -27 -22 -97 4 -123 28 -28 76 -22 98 11 15 25 15 25
-5 8 -28 -24 -46 -23 -72 5 -24 26 -30 85 -10 105 7 7 10 12 7 12 -3 0 -13 -8
-22 -18z"/>
<path d="M2166 7445 c-9 -26 -7 -32 5 -12 6 10 9 21 6 23 -2 3 -7 -2 -11 -11z"/>
<path d="M2440 7430 c0 -5 20 -10 45 -10 25 0 45 5 45 10 0 6 -20 10 -45 10
-25 0 -45 -4 -45 -10z"/>
<path d="M10313 7418 c-23 -30 -26 -43 -6 -25 28 24 60 21 79 -8 23 -35 5 -80
-56 -144 l-50 -52 72 3 c39 2 73 8 75 13 2 6 -19 9 -54 6 l-56 -3 34 42 c74
90 86 131 51 163 -22 20 -75 22 -89 5z"/>
<path d="M10058 7341 c10 -6 13 -28 10 -80 -2 -43 1 -71 7 -71 6 0 9 28 8 67
l-3 68 21 -45 c12 -25 25 -56 31 -70 l10 -25 13 25 c16 28 20 54 5 30 -7 -12
-11 -10 -19 10 -36 93 -41 100 -69 100 -18 0 -23 -3 -14 -9z"/>
<path d="M10195 7320 c-19 -37 -19 -53 1 -20 14 24 14 21 12 -43 -2 -54 0 -67
12 -67 12 0 14 12 12 65 -2 42 1 71 8 80 10 12 9 15 -9 15 -13 0 -26 -11 -36
-30z"/>
<path d="M1638 7091 c10 -6 13 -28 10 -80 -3 -66 -1 -71 17 -71 18 0 20 7 20
80 l0 80 -30 0 c-20 0 -26 -3 -17 -9z"/>
<path d="M1739 7078 c8 -24 6 -100 -3 -124 -4 -9 2 -14 17 -14 21 0 22 3 19
71 -3 52 0 74 10 80 9 6 2 9 -19 9 -29 0 -32 -2 -24 -22z"/>
<path d="M1828 7091 c10 -6 13 -28 10 -80 -1 -39 0 -71 5 -71 4 0 16 -9 27
-20 16 -16 20 -17 20 -4 0 8 -7 22 -15 30 -18 19 -21 124 -3 142 9 9 4 12 -22
12 -23 0 -30 -3 -22 -9z"/>
<path d="M1975 7093 c55 -14 58 -43 4 -43 -37 0 -40 2 -34 23 6 21 6 21 -9 3
-9 -11 -16 -39 -16 -62 0 -34 5 -47 26 -63 15 -12 32 -21 39 -21 17 0 65 39
65 53 0 7 -5 4 -11 -5 -24 -42 -99 -8 -99 44 0 15 9 18 55 18 39 0 55 4 55 13
0 23 -35 47 -66 46 -21 -1 -23 -3 -9 -6z"/>
<path d="M2100 7085 c8 -10 11 -37 8 -80 -3 -54 -1 -65 12 -65 12 0 15 13 13
72 -2 49 1 74 10 80 7 5 -1 8 -22 8 -29 0 -32 -2 -21 -15z"/>
<path d="M2198 7087 c6 -7 10 -43 9 -80 -2 -54 1 -67 13 -67 12 0 14 13 12 71
-3 52 0 74 10 80 8 6 2 9 -21 9 -26 0 -31 -3 -23 -13z"/>
<path d="M2288 7091 c10 -6 13 -28 10 -80 -3 -62 -1 -71 15 -71 9 0 17 8 17
18 1 9 17 35 36 57 l35 40 -3 -58 c-3 -48 0 -57 14 -57 14 0 17 13 20 80 l3
80 -30 -1 c-16 0 -24 -3 -17 -6 20 -8 14 -25 -24 -68 l-35 -40 3 58 3 57 -30
0 c-20 0 -26 -3 -17 -9z"/>
<path d="M2508 7089 c-23 -13 -23 -48 -1 -65 17 -12 17 -14 -5 -43 -25 -35
-27 -41 -9 -41 6 0 22 16 35 35 29 45 45 45 40 0 -3 -27 0 -35 12 -35 13 0 15
10 12 65 -3 43 0 70 8 80 11 13 6 15 -31 15 -24 0 -52 -5 -61 -11z m62 -34 c0
-39 -17 -46 -44 -19 -20 20 -5 54 24 54 16 0 20 -7 20 -35z"/>
<path d="M3501 6511 c-31 -16 -32 -18 -12 -24 20 -5 21 -11 21 -121 0 -112 -1
-117 -22 -126 -17 -7 -8 -9 37 -8 33 0 52 2 43 5 -21 5 -20 1 -23 160 -1 68
-3 125 -6 127 -2 2 -19 -4 -38 -13z"/>
<path d="M3803 6419 c14 -8 17 -24 17 -89 0 -65 -3 -81 -17 -89 -14 -8 -5 -10
37 -10 30 1 47 3 38 6 -14 3 -18 15 -18 49 0 24 2 44 5 44 3 0 19 -22 36 -50
26 -42 35 -50 61 -50 29 0 30 0 11 18 -11 9 -31 35 -44 57 -22 35 -24 43 -12
65 9 19 19 24 39 22 20 -3 25 0 22 15 -4 22 -32 29 -48 11 -6 -7 -20 -28 -30
-45 -25 -43 -40 -42 -40 2 0 22 6 38 18 44 13 8 4 10 -38 10 -42 0 -51 -2 -37
-10z"/>
<path d="M4052 6408 c-57 -61 -43 -153 27 -179 32 -13 85 5 105 36 25 38 21
107 -9 139 -32 34 -92 36 -123 4z m74 4 c35 -23 48 -138 19 -162 -21 -18 -60
-5 -73 25 -34 75 4 171 54 137z"/>
<path d="M4243 6419 c14 -8 17 -24 17 -89 0 -65 -3 -81 -17 -89 -14 -8 -10
-10 22 -11 25 0 35 3 27 9 -9 5 -12 27 -10 72 l3 64 29 -72 c27 -68 45 -91 47
-60 0 6 13 39 29 72 l28 60 1 -67 c1 -55 -2 -67 -16 -71 -10 -3 7 -5 37 -6 42
0 51 2 38 10 -15 8 -18 24 -18 89 0 65 3 81 18 89 14 8 10 10 -19 11 -36 0
-37 -1 -67 -72 l-31 -73 -32 73 c-31 70 -33 72 -68 72 -29 -1 -33 -3 -18 -11z"/>
<path d="M4518 6418 c17 -17 16 -175 0 -181 -7 -3 10 -6 37 -6 39 0 46 2 33
10 -12 6 -18 22 -18 44 0 34 1 35 40 35 40 0 40 0 40 -39 0 -22 -5 -42 -12
-44 -7 -3 10 -6 37 -6 39 0 46 2 33 10 -15 8 -18 24 -18 89 0 65 3 81 18 89
13 8 6 10 -32 11 -39 0 -47 -3 -38 -12 7 -7 12 -27 12 -45 0 -32 -1 -33 -40
-33 -39 0 -40 1 -40 35 0 22 6 38 18 44 13 8 6 10 -32 11 -39 0 -47 -3 -38
-12z"/>
<path d="M4775 6414 c-18 -18 -17 -45 2 -51 6 -2 13 6 15 18 4 31 32 47 52 30
25 -21 19 -47 -14 -61 -70 -29 -100 -76 -68 -108 15 -15 60 -16 75 -1 8 8 17
7 32 -3 23 -14 51 -4 60 23 4 12 2 12 -12 0 -16 -12 -17 -8 -17 56 0 88 -16
113 -70 113 -22 0 -45 -7 -55 -16z m85 -109 c0 -36 -28 -62 -56 -51 -22 8 -17
53 8 70 35 25 48 20 48 -19z"/>
<path d="M4940 6416 c0 -8 -3 -23 -6 -33 -4 -14 -1 -13 12 5 9 12 27 22 40 22
23 0 24 -2 24 -80 0 -65 -3 -81 -17 -89 -14 -8 -5 -10 37 -10 30 0 48 3 40 6
-25 10 -30 25 -30 101 0 70 1 72 24 72 14 0 32 -10 42 -22 l16 -23 -6 25 c-3
14 -6 28 -6 33 0 4 -38 7 -85 7 -67 0 -85 -3 -85 -14z"/>
<path d="M5148 6418 c17 -17 16 -175 0 -181 -7 -3 10 -6 37 -6 39 0 46 2 33
10 -12 6 -18 22 -18 44 0 34 1 35 40 35 40 0 40 0 40 -39 0 -22 -5 -42 -12
-44 -7 -3 10 -6 37 -6 39 0 46 2 33 10 -15 8 -18 24 -18 89 0 65 3 81 18 89
13 8 6 10 -32 11 -39 0 -47 -3 -38 -12 7 -7 12 -27 12 -45 0 -32 -1 -33 -40
-33 -39 0 -40 1 -40 35 0 22 6 38 18 44 13 8 6 10 -32 11 -39 0 -47 -3 -38
-12z"/>
<path d="M5383 6419 c14 -8 17 -24 17 -89 0 -64 -3 -81 -17 -90 -14 -8 1 -10
60 -8 64 3 82 7 93 23 29 39 6 74 -54 82 -40 5 -42 7 -42 39 0 21 6 37 18 43
13 8 4 10 -38 10 -42 0 -51 -2 -37 -10z m117 -119 c8 -16 6 -24 -10 -40 -29
-29 -44 -21 -48 23 -3 34 -1 37 22 37 15 0 30 -8 36 -20z"/>
<path d="M5563 6419 c14 -8 17 -24 17 -89 0 -65 -3 -81 -17 -89 -14 -8 -5 -10
37 -10 30 1 47 3 38 6 -15 4 -18 17 -18 87 0 50 5 87 12 94 9 9 1 12 -37 12
-39 -1 -46 -3 -32 -11z"/>
<path d="M5701 6406 c-12 -13 -25 -42 -28 -63 -14 -109 105 -164 153 -71 l17
33 -25 -22 c-13 -13 -34 -23 -46 -23 -22 0 -62 32 -62 49 0 5 -3 16 -6 25 -5
14 4 16 65 16 79 0 86 8 50 54 -28 35 -86 36 -118 2z m70 4 c36 -20 23 -40
-26 -40 -42 0 -45 2 -35 19 8 16 21 26 38 30 2 1 12 -4 23 -9z"/>
<path d="M5988 6418 c17 -17 16 -175 0 -181 -7 -3 10 -6 37 -6 39 0 46 2 33
10 -19 11 -26 89 -9 89 6 0 22 -22 38 -50 25 -45 31 -50 63 -49 23 0 29 3 18
7 -10 4 -31 29 -48 55 -27 44 -29 51 -18 75 9 18 21 27 38 27 32 0 34 29 3 33
-17 2 -28 -5 -42 -30 -41 -68 -61 -76 -61 -23 0 22 6 38 18 44 13 8 6 10 -32
11 -39 0 -47 -3 -38 -12z"/>
<path d="M6203 6419 c14 -8 17 -24 17 -89 0 -65 -3 -81 -17 -89 -14 -8 0 -10
52 -11 80 0 115 17 115 55 0 14 -9 30 -20 37 -17 11 -18 14 -4 29 21 23 14 51
-16 66 -31 16 -154 18 -127 2z m114 -25 c8 -22 -9 -48 -36 -52 -18 -3 -21 1
-21 32 0 32 3 36 25 36 15 0 28 -7 32 -16z m1 -86 c20 -20 14 -48 -14 -58 -34
-13 -44 -6 -44 36 0 29 3 34 23 34 13 0 28 -5 35 -12z"/>
<path d="M6424 6404 c-13 -19 -14 -28 -5 -37 13 -13 27 -1 33 28 2 14 11 20
28 20 19 0 26 -6 28 -26 3 -22 -4 -29 -45 -50 -45 -24 -48 -28 -48 -65 0 -35
3 -39 27 -42 15 -2 37 2 50 9 16 9 23 9 26 0 5 -16 37 -14 52 5 11 12 11 15
-1 12 -11 -2 -15 13 -17 72 -2 41 -8 80 -14 87 -6 7 -30 13 -54 13 -36 0 -47
-5 -60 -26z m86 -98 c0 -37 -21 -62 -45 -52 -29 11 -30 38 -1 63 37 31 46 29
46 -11z"/>
<path d="M6600 6415 c-19 -11 -21 -14 -7 -15 15 0 17 -13 17 -124 0 -90 -3
-126 -12 -129 -7 -3 7 -5 32 -5 25 0 39 2 33 5 -8 3 -13 23 -13 49 0 42 1 43
23 33 45 -20 103 23 107 81 4 53 -1 77 -20 98 -25 26 -66 29 -92 5 -17 -15
-18 -15 -18 0 0 21 -17 21 -50 2z m117 -23 c32 -20 38 -105 11 -139 -13 -16
-50 -17 -66 -1 -7 7 -12 37 -12 68 0 70 26 98 67 72z"/>
<path d="M6807 6424 c-4 -4 -7 -19 -6 -33 0 -26 0 -26 11 -3 7 13 20 22 35 22
22 0 23 -3 23 -84 0 -72 -3 -85 -17 -89 -10 -3 9 -5 42 -5 45 -1 54 1 38 8
-21 9 -23 16 -23 90 0 78 1 80 25 80 13 0 29 -8 35 -17 9 -16 10 -15 8 7 -3
24 -6 25 -83 28 -45 1 -84 0 -88 -4z"/>
<path d="M7008 6418 c17 -17 16 -175 0 -181 -7 -3 10 -6 37 -6 39 0 46 2 33
10 -26 15 -22 27 22 75 l40 44 0 -59 c0 -38 -4 -61 -12 -64 -7 -3 10 -6 37 -6
39 0 46 2 33 10 -15 8 -18 24 -18 89 0 65 3 81 18 89 13 8 7 10 -31 11 -44 0
-46 -1 -35 -19 9 -15 7 -24 -9 -47 -12 -16 -30 -38 -42 -48 l-21 -19 0 56 c0
43 4 58 18 66 13 8 6 10 -32 11 -39 0 -47 -3 -38 -12z"/>
<path d="M7240 6415 c-19 -11 -21 -14 -7 -15 15 0 17 -13 17 -124 0 -90 -3
-126 -12 -129 -7 -3 7 -5 32 -5 25 0 39 2 33 5 -8 3 -13 23 -13 49 0 42 1 43
23 33 45 -20 103 23 107 81 4 53 -1 77 -20 98 -25 26 -66 29 -92 5 -17 -15
-18 -15 -18 0 0 21 -17 21 -50 2z m117 -23 c32 -20 38 -105 11 -139 -13 -16
-50 -17 -66 -1 -7 7 -12 37 -12 68 0 70 26 98 67 72z"/>
<path d="M7458 6418 c17 -17 16 -175 0 -181 -7 -3 16 -6 52 -6 75 -1 110 16
110 54 0 30 -35 55 -77 55 -31 0 -33 2 -33 35 0 28 5 38 23 45 17 7 10 9 -32
9 -43 1 -52 -2 -43 -11z m120 -130 c3 -22 -2 -30 -23 -38 -35 -13 -45 -6 -45
36 0 34 1 35 33 32 27 -2 33 -8 35 -30z"/>
<path d="M7634 6417 c14 -10 18 -27 18 -63 0 -103 -2 -112 -19 -117 -10 -3 7
-5 37 -6 42 0 51 2 38 10 -15 8 -18 24 -18 89 0 65 3 81 18 89 13 8 4 10 -37
11 -48 0 -53 -2 -37 -13z"/>
<path d="M3657 6343 c-4 -3 -7 -12 -7 -20 0 -9 16 -13 55 -13 48 0 55 2 55 20
0 17 -7 20 -48 20 -27 0 -52 -3 -55 -7z"/>
<path d="M2749 6044 c-4 -70 1 -3347 5 -3351 3 -4 6 146 6 333 1 1947 -1 3018
-5 3022 -3 3 -5 1 -6 -4z"/>
<path d="M9885 5779 c-18 -34 -15 -48 5 -24 13 16 120 22 120 7 0 -4 -18 -62
-40 -127 -22 -65 -40 -120 -40 -122 0 -2 6 -3 13 -3 10 0 107 265 107 293 0 4
-34 7 -75 7 -73 0 -75 -1 -90 -31z"/>
<path d="M10224 5785 c-14 -14 -24 -29 -21 -32 4 -3 13 2 22 11 19 19 56 21
73 4 7 -7 12 -25 12 -40 0 -21 -8 -33 -32 -48 -23 -14 -27 -20 -15 -20 26 0
67 -45 67 -73 0 -13 -9 -32 -20 -42 -19 -17 -31 -17 -89 1 -19 6 -22 4 -19
-12 7 -40 112 -26 143 20 22 30 19 86 -5 111 -20 21 -20 23 -3 53 16 29 17 34
3 59 -23 40 -80 44 -116 8z"/>
<path d="M10463 5788 c-35 -38 -43 -64 -43 -131 0 -50 5 -71 23 -97 31 -46 50
-56 84 -44 46 16 73 67 73 140 0 72 -10 104 -41 133 -30 27 -70 27 -96 -1z
m71 -3 c21 -21 29 -72 24 -155 -3 -56 -8 -75 -26 -92 l-22 -22 -22 22 c-21 20
-23 32 -23 121 0 83 3 102 19 120 23 25 30 26 50 6z"/>
<path d="M2128 5784 c-32 -17 -35 -22 -10 -20 15 1 17 -12 20 -118 2 -104 0
-120 -15 -132 -16 -12 -11 -13 36 -14 50 0 53 1 36 14 -18 13 -20 29 -21 143
-1 70 -3 131 -3 136 -1 10 -12 8 -43 -9z"/>
<path d="M3363 5789 c15 -9 17 -27 17 -136 0 -108 -2 -128 -17 -139 -16 -12
-10 -13 42 -13 52 0 58 1 43 13 -16 11 -18 31 -18 140 l0 126 65 0 65 0 0
-128 c0 -124 -1 -129 -22 -140 -19 -9 -12 -11 41 -11 l65 -1 -22 20 c-20 19
-22 30 -22 135 0 106 1 115 22 129 21 15 11 16 -127 16 -107 -1 -145 -4 -132
-11z"/>
<path d="M3691 5696 c-15 -8 -20 -16 -12 -20 7 -5 11 -48 11 -126 0 -103 -2
-120 -17 -129 -14 -8 -5 -10 37 -10 42 0 51 2 38 10 -12 7 -18 22 -18 47 0 37
0 38 38 34 33 -3 42 1 65 28 37 44 38 120 2 155 -30 31 -52 31 -82 3 l-23 -21
0 21 c0 25 -6 26 -39 8z m132 -75 c10 -41 -7 -98 -33 -106 -11 -3 -28 -1 -40
5 -17 9 -20 21 -20 70 0 49 4 61 22 74 29 21 59 2 71 -43z"/>
<path d="M4383 5675 c-33 -33 -35 -39 -30 -82 11 -101 127 -130 172 -43 29 55
12 121 -36 146 -43 22 -68 17 -106 -21z m92 -5 c22 -24 31 -100 16 -129 -8
-14 -21 -21 -42 -21 -25 0 -33 6 -45 35 -17 40 -18 88 -4 116 14 25 52 24 75
-1z"/>
<path d="M4913 5698 c-24 -11 -36 -34 -27 -49 10 -17 33 -9 36 14 5 34 52 31
56 -5 3 -22 -2 -28 -31 -37 -46 -15 -69 -43 -65 -77 5 -41 31 -53 69 -31 29
16 32 16 44 1 9 -13 16 -14 33 -5 25 13 30 34 7 25 -13 -5 -15 6 -15 69 0 67
-3 78 -22 91 -26 18 -53 19 -85 4z m63 -154 c-7 -19 -52 -18 -60 1 -8 23 3 44
33 59 25 14 26 13 29 -16 2 -16 1 -36 -2 -44z"/>
<path d="M5633 5675 c-33 -33 -35 -39 -30 -82 11 -101 127 -130 172 -43 29 55
12 121 -36 146 -43 22 -68 17 -106 -21z m92 -5 c22 -24 31 -100 16 -129 -8
-14 -21 -21 -42 -21 -25 0 -33 6 -45 35 -17 40 -18 88 -4 116 14 25 52 24 75
-1z"/>
<path d="M5836 5695 c-22 -9 -25 -13 -12 -18 13 -5 16 -25 16 -127 0 -116 -1
-121 -22 -130 -18 -7 -9 -9 37 -9 33 1 53 3 45 6 -22 9 -30 24 -30 61 0 30 2
32 25 26 100 -25 160 128 76 193 -23 18 -45 16 -74 -7 -24 -19 -26 -20 -29 -2
-3 17 -6 17 -32 7z m100 -23 c37 -25 46 -110 14 -142 -11 -11 -26 -20 -34 -20
-25 0 -46 42 -46 92 0 37 5 50 22 62 25 18 29 19 44 8z"/>
<path d="M6553 5700 c-60 -25 -75 -121 -27 -171 69 -72 180 5 153 107 -15 55
-75 86 -126 64z m72 -34 c24 -37 17 -124 -12 -143 -20 -14 -24 -13 -48 11 -20
21 -25 35 -25 79 0 29 5 58 12 65 20 20 56 14 73 -12z"/>
<path d="M6731 5696 c-15 -8 -20 -16 -12 -20 7 -5 11 -48 11 -126 0 -103 -2
-120 -17 -129 -14 -8 -5 -10 37 -10 42 0 51 2 38 10 -12 7 -18 22 -18 47 0 37
0 38 38 34 33 -3 42 1 65 28 37 44 38 120 2 155 -30 31 -52 31 -82 3 l-23 -21
0 21 c0 25 -6 26 -39 8z m132 -75 c10 -41 -7 -98 -33 -106 -11 -3 -28 -1 -40
5 -17 9 -20 21 -20 70 0 49 4 61 22 74 29 21 59 2 71 -43z"/>
<path d="M3903 5689 c14 -8 17 -24 17 -86 0 -60 -4 -78 -17 -89 -16 -12 -12
-13 32 -14 38 0 46 3 37 12 -20 20 -13 41 28 87 l40 44 0 -58 c0 -43 -4 -61
-17 -71 -16 -12 -12 -13 32 -14 38 0 46 3 37 12 -17 17 -16 175 1 181 6 3 -8
6 -32 6 -37 1 -42 -1 -31 -14 10 -12 6 -23 -26 -62 l-39 -48 -3 54 c-2 37 1
57 10 62 8 5 -7 9 -37 9 -39 -1 -46 -3 -32 -11z"/>
<path d="M4130 5693 c16 -7 43 -37 61 -70 11 -20 8 -28 -25 -67 -20 -24 -36
-47 -36 -50 0 -3 12 -6 26 -6 20 0 25 4 20 16 -3 9 3 29 15 46 l22 30 18 -29
c11 -15 18 -36 15 -45 -3 -15 3 -18 41 -18 l46 0 -27 26 c-14 15 -35 42 -47
60 -23 38 -17 58 27 93 l27 21 -39 0 c-24 0 -34 -3 -26 -9 10 -6 9 -13 -6 -31
l-19 -24 -12 22 c-7 12 -9 27 -6 32 4 6 -13 10 -42 9 -26 0 -41 -3 -33 -6z"/>
<path d="M4572 5683 c2 -11 11 -17 23 -15 13 1 26 -8 37 -28 9 -16 14 -30 10
-30 -4 0 -16 -15 -26 -32 -11 -18 -28 -43 -39 -55 l-20 -23 29 0 c24 0 33 8
54 47 14 26 31 49 38 51 18 6 15 -58 -5 -80 -15 -17 -14 -18 30 -18 26 0 47 5
47 10 0 6 -4 10 -10 10 -5 0 -10 18 -10 40 0 22 3 40 8 40 4 0 20 -23 35 -50
22 -39 34 -50 53 -50 28 0 29 4 8 28 -8 9 -26 34 -39 54 -20 32 -22 41 -12 62
9 19 20 26 40 26 33 0 32 23 -1 28 -15 2 -28 -7 -47 -37 -14 -23 -30 -41 -35
-41 -15 0 -12 67 3 73 6 3 -10 6 -38 6 -39 0 -46 -2 -32 -10 10 -6 17 -22 17
-40 0 -43 -30 -35 -53 14 -13 29 -23 37 -43 37 -19 0 -25 -4 -22 -17z"/>
<path d="M5096 5681 c-21 -23 -14 -56 15 -72 19 -10 18 -12 -16 -60 -34 -45
-35 -49 -16 -49 14 0 33 16 53 45 18 25 35 45 40 45 13 0 9 -65 -4 -78 -9 -9
-2 -12 32 -12 34 0 41 3 32 12 -7 7 -12 44 -12 94 0 70 3 83 18 87 9 3 -15 5
-54 6 -58 1 -74 -2 -88 -18z m84 -31 c0 -28 -4 -40 -14 -40 -16 0 -46 26 -46
40 0 14 30 40 46 40 10 0 14 -12 14 -40z"/>
<path d="M5393 5689 c14 -8 17 -24 17 -86 0 -60 -4 -78 -17 -89 -16 -12 -12
-13 32 -14 38 0 46 3 37 12 -13 13 -17 88 -4 88 4 0 21 -22 37 -48 24 -37 36
-48 60 -50 26 -2 28 -1 15 10 -9 7 -30 34 -47 59 -28 42 -29 48 -16 72 9 18
22 27 38 27 16 0 25 6 25 16 0 11 -8 14 -27 12 -21 -2 -32 -12 -46 -40 -22
-49 -47 -50 -47 -4 0 24 5 36 18 39 9 3 -8 5 -38 6 -42 0 -51 -2 -37 -10z"/>
<path d="M6048 5693 c16 -6 17 -164 0 -181 -9 -9 -3 -12 30 -12 39 0 41 1 30
19 -10 17 -6 26 28 68 l39 48 3 -53 c2 -31 -2 -60 -9 -68 -10 -12 -4 -14 37
-14 43 1 47 2 32 14 -14 11 -18 29 -18 89 0 62 3 78 18 86 13 8 6 10 -33 10
-27 0 -44 -3 -37 -6 22 -9 12 -37 -28 -83 l-40 -45 0 57 c0 44 4 59 18 67 13
8 6 10 -33 10 -27 0 -44 -3 -37 -6z"/>
<path d="M6313 5689 c33 -19 15 -133 -26 -168 -10 -7 -17 -28 -17 -45 l0 -31
13 25 c12 23 18 25 87 25 69 0 75 -2 87 -25 l13 -25 0 26 c0 15 -7 40 -15 55
-20 39 -20 138 1 158 14 15 7 16 -73 16 -65 -1 -83 -3 -70 -11z m97 -84 l0
-85 -49 0 -50 0 14 27 c8 15 17 54 21 85 6 56 8 58 35 58 l29 0 0 -85z"/>
<path d="M10110 5550 c-18 -11 -4 -42 17 -38 10 2 19 10 21 19 4 19 -19 31
-38 19z"/>
<path d="M9898 5124 c-32 -17 -35 -22 -10 -20 15 1 17 -12 20 -118 2 -104 0
-120 -15 -132 -16 -12 -11 -13 36 -14 50 0 53 1 36 14 -18 13 -20 29 -21 143
-1 70 -3 131 -3 136 -1 10 -12 8 -43 -9z"/>
<path d="M10085 5116 c-32 -32 -41 -85 -21 -125 19 -36 53 -47 96 -33 l30 11
-19 -37 c-23 -45 -50 -70 -87 -82 -27 -8 -27 -8 -5 -9 38 -1 104 43 128 86 28
51 35 91 23 132 -22 78 -95 107 -145 57z m85 -6 c15 -15 20 -33 20 -74 0 -49
-2 -54 -24 -60 -33 -8 -51 0 -65 30 -15 35 -14 76 5 102 19 27 38 28 64 2z"/>
<path d="M10482 5123 c-43 -21 -77 -66 -91 -120 -31 -115 69 -210 142 -137 35
34 43 83 23 122 -18 35 -44 46 -86 37 -34 -7 -35 -5 -16 33 19 36 48 61 82 72
28 8 28 8 4 9 -14 0 -40 -7 -58 -16z m14 -121 c19 -12 34 -49 34 -81 0 -30
-29 -71 -50 -71 -5 0 -19 9 -30 20 -15 15 -20 33 -20 74 0 34 5 56 13 59 18 8
41 8 53 -1z"/>
<path d="M10632 5117 c-27 -29 -29 -47 -3 -23 29 26 73 17 85 -16 8 -23 6 -32
-14 -53 -13 -14 -31 -25 -39 -26 -9 0 0 -6 19 -13 44 -16 67 -57 51 -92 -15
-33 -37 -40 -77 -25 -40 15 -61 7 -42 -16 9 -11 24 -14 57 -10 87 10 131 98
75 154 -23 23 -24 27 -10 42 9 10 16 29 16 43 0 56 -77 79 -118 35z"/>
<path d="M2137 5118 c-9 -7 -21 -26 -27 -43 l-11 -29 25 27 c28 31 52 34 84
11 46 -32 15 -119 -72 -203 -20 -19 -36 -39 -36 -43 0 -4 36 -8 80 -8 68 0 81
3 90 19 15 28 14 49 -2 33 -7 -7 -36 -12 -65 -12 l-54 0 51 62 c77 92 87 132
45 173 -27 28 -80 34 -108 13z"/>
<path d="M3435 5120 c-11 -4 -33 -22 -49 -39 -24 -25 -31 -42 -34 -89 -5 -70
13 -113 61 -143 44 -28 127 -22 162 11 36 34 31 47 -6 16 -41 -34 -97 -35
-136 -2 -25 21 -28 32 -31 98 -4 68 -2 77 22 105 48 57 119 52 156 -9 l20 -33
0 48 c0 43 -13 64 -22 36 -3 -9 -9 -9 -25 0 -25 13 -89 14 -118 1z"/>
<path d="M3913 5028 c-24 -11 -36 -34 -27 -49 10 -17 33 -9 36 14 5 34 52 31
56 -5 3 -22 -2 -28 -31 -37 -46 -15 -69 -43 -65 -77 5 -41 31 -53 69 -31 29
16 32 16 44 1 9 -13 16 -14 33 -5 25 13 30 34 7 25 -13 -5 -15 6 -15 69 0 67
-3 78 -22 91 -26 18 -53 19 -85 4z m63 -154 c-7 -19 -52 -18 -60 1 -8 23 3 44
33 59 25 14 26 13 29 -16 2 -16 1 -36 -2 -44z"/>
<path d="M3648 5023 c16 -6 17 -164 0 -181 -9 -9 -1 -12 37 -12 44 1 48 2 33
14 -15 11 -18 29 -18 95 l0 81 40 0 40 0 0 -83 c0 -51 -5 -88 -12 -95 -9 -9
-1 -12 38 -12 43 1 47 2 32 14 -14 11 -18 29 -18 89 0 62 3 78 18 86 12 8 -14
10 -93 10 -60 0 -104 -3 -97 -6z"/>
<path d="M4103 5019 c13 -8 17 -23 17 -69 0 -78 -6 -91 -37 -84 -21 6 -24 3
-21 -12 4 -22 26 -28 48 -14 11 6 16 34 20 92 l5 83 33 3 32 3 0 -82 c0 -66
-3 -84 -17 -95 -16 -12 -12 -13 32 -14 38 0 46 3 37 12 -17 17 -16 175 1 181
6 3 -28 6 -78 6 -66 0 -85 -2 -72 -10z"/>
<path d="M4293 5019 c14 -8 17 -24 17 -86 0 -60 -4 -78 -17 -89 -16 -12 -12
-13 32 -12 78 1 108 10 124 40 14 24 14 28 -3 47 -13 14 -31 21 -58 21 -38 0
-38 0 -38 39 0 29 5 41 18 44 9 3 -8 5 -38 6 -42 0 -51 -2 -37 -10z m111 -105
c9 -8 16 -19 16 -24 0 -16 -31 -40 -51 -40 -16 0 -19 7 -19 40 0 33 3 40 19
40 11 0 27 -7 35 -16z"/>
<path d="M4503 5019 c14 -8 17 -24 17 -86 0 -60 -4 -78 -17 -89 -16 -12 -12
-13 32 -14 38 0 46 3 37 12 -7 7 -12 29 -12 50 0 38 0 38 40 38 39 0 40 -1 40
-36 0 -23 -6 -42 -17 -50 -16 -12 -12 -13 32 -14 38 0 46 3 37 12 -17 17 -16
175 1 181 6 3 -10 5 -38 5 -27 0 -42 -2 -32 -5 12 -3 17 -15 17 -44 0 -39 0
-39 -40 -39 -40 0 -40 0 -40 39 0 22 5 42 13 44 6 3 -10 6 -38 6 -39 0 -46 -2
-32 -10z"/>
<path d="M4758 5019 c-24 -14 -23 -48 3 -76 l22 -22 -37 -46 c-36 -44 -37 -45
-14 -45 17 0 33 13 56 45 17 25 36 45 42 45 16 0 12 -52 -7 -72 -15 -17 -14
-18 32 -18 46 0 47 1 32 18 -25 27 -24 157 1 171 13 8 1 10 -48 10 -36 0 -73
-4 -82 -10z m80 -42 c3 -31 0 -37 -15 -37 -38 0 -56 43 -31 68 23 23 43 9 46
-31z"/>
<path d="M10297 4884 c-16 -16 -7 -44 14 -44 15 0 20 5 17 22 -3 22 -19 33
-31 22z"/>
<path d="M9898 4454 c-32 -17 -35 -22 -10 -20 15 1 17 -12 20 -118 2 -104 0
-120 -15 -132 -16 -12 -11 -13 36 -14 50 0 53 1 36 14 -18 13 -20 28 -21 143
-1 70 -3 131 -3 136 -1 10 -12 8 -43 -9z"/>
<path d="M10097 4415 c-15 -31 -27 -58 -27 -60 0 -3 10 -5 23 -5 34 0 86 -36
93 -65 16 -65 -23 -105 -81 -84 -37 14 -51 9 -42 -16 9 -23 69 -19 108 8 72
48 60 147 -21 183 -56 25 -50 47 15 54 37 4 51 9 53 23 3 14 -4 17 -45 17
l-49 0 -27 -55z"/>
<path d="M10482 4453 c-43 -21 -77 -66 -91 -120 -31 -115 69 -210 142 -137 35
34 43 83 23 122 -18 35 -44 46 -86 37 -34 -7 -35 -5 -16 33 19 36 48 61 82 72
28 8 28 8 4 9 -14 0 -40 -7 -58 -16z m14 -121 c19 -12 34 -49 34 -81 0 -30
-29 -71 -50 -71 -5 0 -19 9 -30 20 -15 15 -20 33 -20 74 0 34 5 56 13 59 18 8
41 8 53 -1z"/>
<path d="M10637 4458 c-9 -7 -21 -26 -27 -43 l-11 -29 25 27 c28 31 52 34 84
11 46 -32 15 -119 -72 -203 -20 -19 -36 -39 -36 -43 0 -4 36 -8 80 -8 68 0 81
3 90 19 15 28 14 49 -2 33 -7 -7 -36 -12 -65 -12 l-54 0 51 62 c77 92 87 132
45 173 -27 28 -80 34 -108 13z"/>
<path d="M2122 4437 c-27 -29 -29 -47 -3 -23 29 26 73 17 85 -16 8 -23 6 -32
-14 -53 -13 -14 -31 -25 -39 -26 -9 0 0 -6 19 -13 44 -16 67 -57 51 -92 -15
-33 -37 -40 -77 -25 -40 15 -61 7 -42 -16 9 -11 24 -14 57 -10 87 10 131 98
75 154 -23 23 -24 27 -10 42 9 10 16 29 16 43 0 56 -77 79 -118 35z"/>
<path d="M3363 4449 c15 -9 17 -27 17 -136 0 -108 -2 -128 -17 -139 -16 -12
-10 -13 42 -13 52 0 58 1 43 13 -14 10 -18 28 -18 70 0 81 19 74 91 -36 28
-43 35 -48 68 -48 l36 0 -27 23 c-43 36 -118 136 -108 142 6 4 22 28 35 55 24
47 27 49 56 43 27 -5 31 -3 27 13 -4 23 -43 31 -64 13 -8 -7 -22 -28 -30 -48
-17 -42 -52 -81 -71 -81 -9 0 -13 17 -13 58 0 51 3 60 23 70 18 9 11 11 -43
11 -49 0 -61 -2 -47 -10z"/>
<path d="M3643 4348 c9 -7 34 -49 56 -94 36 -75 38 -83 25 -112 -10 -25 -19
-32 -42 -32 -16 0 -31 -3 -35 -6 -10 -11 5 -34 22 -34 37 0 60 33 106 147 25
65 54 124 63 131 14 10 11 12 -17 12 -20 0 -30 -4 -26 -11 4 -5 -3 -38 -16
-71 l-23 -61 -30 62 c-26 53 -29 63 -16 71 11 7 0 10 -34 10 -42 0 -47 -2 -33
-12z"/>
<path d="M3873 4348 c9 -7 28 -28 41 -47 l25 -34 -31 -43 c-17 -24 -35 -44
-40 -44 -4 0 -8 -4 -8 -10 0 -5 14 -10 31 -10 25 0 29 3 20 13 -8 10 -5 21 13
46 l24 32 21 -30 c12 -16 18 -36 15 -45 -5 -13 1 -16 35 -16 l41 0 -46 59 -46
60 27 35 c14 19 32 37 38 40 7 2 -3 5 -21 5 -19 1 -31 -3 -27 -9 7 -11 -12
-50 -24 -50 -4 0 -13 11 -19 24 -8 19 -8 26 1 30 7 2 -10 5 -37 5 -42 1 -47
-1 -33 -11z"/>
<path d="M4093 4349 c14 -8 17 -24 17 -86 0 -60 -4 -78 -17 -89 -16 -12 -12
-13 32 -14 38 0 46 3 37 12 -7 7 -12 29 -12 50 0 38 0 38 40 38 39 0 40 -1 40
-36 0 -23 -6 -42 -17 -50 -16 -12 -12 -13 32 -14 38 0 46 3 37 12 -17 17 -16
175 1 181 6 3 -10 6 -38 6 -39 0 -46 -2 -32 -10 11 -6 17 -22 17 -44 0 -34 -1
-35 -40 -35 -40 0 -40 0 -40 39 0 22 5 42 13 44 6 3 -10 6 -38 6 -39 0 -46 -2
-32 -10z"/>
<path d="M4346 4341 c-21 -23 -14 -56 15 -72 19 -10 18 -12 -16 -60 -34 -45
-35 -49 -16 -49 14 0 33 16 53 45 18 25 35 45 40 45 13 0 9 -65 -4 -78 -9 -9
-2 -12 32 -12 34 0 41 3 32 12 -7 7 -12 44 -12 94 0 70 3 83 18 87 9 3 -15 5
-54 6 -58 1 -74 -2 -88 -18z m84 -31 c0 -28 -4 -40 -14 -40 -16 0 -46 26 -46
40 0 14 30 40 46 40 10 0 14 -12 14 -40z"/>
<path d="M10297 4214 c-16 -16 -7 -44 14 -44 15 0 20 5 17 22 -3 22 -19 33
-31 22z"/>
<path d="M9906 3789 c-33 -26 -34 -45 -1 -23 37 24 75 6 75 -35 0 -30 -5 -38
-45 -66 -20 -14 -20 -14 3 -15 30 0 62 -34 62 -65 0 -32 -36 -69 -58 -60 -43
16 -72 17 -72 2 0 -39 105 -24 140 20 28 36 26 88 -4 116 -24 22 -24 23 -5 46
10 13 19 31 19 41 0 22 -45 60 -70 60 -10 0 -29 -9 -44 -21z"/>
<path d="M10236 3789 c-33 -26 -34 -45 -1 -23 37 24 75 6 75 -35 0 -30 -5 -38
-45 -66 -20 -14 -20 -14 3 -15 30 0 62 -34 62 -65 0 -32 -36 -69 -58 -60 -43
16 -72 17 -72 2 0 -39 105 -24 140 20 28 36 26 88 -4 116 -24 22 -24 23 -5 46
10 13 19 31 19 41 0 22 -45 60 -70 60 -10 0 -29 -9 -44 -21z"/>
<path d="M10456 3789 c-33 -26 -34 -45 -1 -23 37 24 75 6 75 -35 0 -30 -5 -38
-45 -66 -20 -14 -20 -14 3 -15 30 0 62 -34 62 -65 0 -32 -36 -69 -58 -60 -43
16 -72 17 -72 2 0 -39 105 -24 140 20 28 36 26 88 -4 116 -24 22 -24 23 -5 46
10 13 19 31 19 41 0 22 -45 60 -70 60 -10 0 -29 -9 -44 -21z"/>
<path d="M3680 3644 c-29 -85 -49 -158 -46 -161 6 -7 2 -17 64 165 27 79 45
145 41 148 -4 2 -31 -66 -59 -152z"/>
<path d="M2157 3693 c-37 -54 -67 -104 -67 -110 0 -9 19 -13 59 -13 l60 0 3
-37 c2 -27 8 -39 21 -41 14 -3 17 4 17 37 0 34 3 41 20 41 11 0 20 7 20 15 0
8 -9 15 -20 15 -19 0 -20 7 -20 95 0 72 -3 95 -13 95 -8 0 -44 -44 -80 -97z
m53 -28 l0 -65 -45 0 c-25 0 -45 3 -45 6 0 7 81 124 86 124 2 0 4 -29 4 -65z"/>
<path d="M3430 3773 c-19 -10 -45 -34 -58 -53 -33 -49 -28 -146 8 -186 60 -64
143 -68 201 -8 18 19 28 34 22 34 -6 0 -13 -7 -16 -14 -3 -8 -20 -22 -38 -31
-43 -23 -91 -12 -123 26 -46 54 -31 190 23 219 47 25 101 7 131 -43 l20 -32 0
46 c0 44 -2 46 -27 46 -16 1 -46 4 -68 7 -29 5 -49 2 -75 -11z"/>
<path d="M3778 3763 c11 -10 45 -63 76 -118 60 -108 60 -129 2 -123 -36 4 -50
-26 -17 -37 45 -14 70 16 131 161 23 54 51 107 62 117 20 17 19 17 -28 17 -42
0 -46 -1 -29 -13 17 -13 17 -17 -10 -86 -16 -40 -32 -74 -35 -76 -4 -2 -26 31
-49 75 -38 73 -40 79 -24 89 14 8 5 10 -41 11 -57 0 -58 -1 -38 -17z"/>
<path d="M10104 3539 c-3 -6 0 -17 8 -25 13 -13 16 -13 27 0 7 8 10 20 6 26
-8 13 -32 13 -41 -1z"/>
<path d="M9894 3115 c-14 -14 -24 -29 -21 -32 4 -3 13 2 22 11 19 19 56 21 73
4 7 -7 12 -25 12 -40 0 -21 -8 -33 -32 -48 -23 -14 -27 -20 -15 -20 26 0 67
-45 67 -73 0 -13 -9 -32 -20 -42 -19 -17 -31 -17 -89 1 -19 6 -22 4 -19 -12 7
-40 112 -26 143 20 22 30 19 86 -5 111 -20 21 -20 23 -3 53 16 29 17 34 3 59
-23 40 -80 44 -116 8z"/>
<path d="M10243 3118 c-35 -38 -43 -64 -43 -131 0 -50 5 -71 23 -97 31 -46 50
-56 84 -44 46 16 73 67 73 140 0 72 -10 104 -41 133 -30 27 -70 27 -96 -1z
m71 -3 c21 -21 29 -72 24 -155 -3 -56 -8 -75 -26 -92 l-22 -22 -22 22 c-21 20
-23 32 -23 121 0 83 3 102 19 120 23 25 30 26 50 6z"/>
<path d="M10463 3118 c-35 -38 -43 -64 -43 -131 0 -50 5 -71 23 -97 31 -46 50
-56 84 -44 46 16 73 67 73 140 0 72 -10 104 -41 133 -30 27 -70 27 -96 -1z
m71 -3 c21 -21 29 -72 24 -155 -3 -56 -8 -75 -26 -92 l-22 -22 -22 22 c-21 20
-23 32 -23 121 0 83 3 102 19 120 23 25 30 26 50 6z"/>
<path d="M2134 3069 c-27 -54 -23 -68 18 -69 9 0 30 -12 47 -26 54 -45 34
-124 -32 -124 -14 0 -29 5 -32 10 -10 16 -35 12 -35 -5 0 -25 46 -37 84 -21
99 41 100 162 0 198 -50 18 -42 42 16 46 40 3 59 14 60 35 0 4 -22 7 -50 7
l-50 0 -26 -51z"/>
<path d="M3368 3110 c21 -9 22 -14 22 -135 0 -121 -1 -126 -22 -135 -17 -6 2
-9 65 -9 85 -1 90 0 118 28 32 32 35 47 18 84 -14 31 -48 47 -99 47 l-40 0 0
55 0 55 49 0 c40 0 53 -4 65 -22 16 -22 16 -22 16 10 l0 32 -107 -1 c-75 0
-101 -3 -85 -9z m142 -160 c40 -40 12 -100 -46 -100 l-34 0 0 60 0 60 30 0
c17 0 39 -9 50 -20z"/>
<path d="M3635 3014 c-18 -18 -17 -45 2 -51 6 -2 13 6 15 18 4 31 32 47 52 30
25 -21 19 -47 -14 -61 -70 -29 -100 -76 -68 -108 15 -15 60 -16 75 -1 8 8 17
7 32 -3 17 -10 25 -10 41 -1 12 8 21 9 25 3 11 -17 54 -11 65 9 5 11 10 51 10
90 l0 71 30 0 30 0 0 -84 c0 -72 -3 -85 -17 -89 -10 -3 7 -5 37 -6 42 0 51 2
38 10 -15 8 -18 24 -18 89 0 65 3 81 18 89 12 8 -7 10 -72 11 -70 0 -87 -3
-78 -12 14 -14 17 -154 3 -163 -5 -3 -12 -1 -16 5 -7 11 -33 9 -52 -3 -10 -6
-13 8 -13 60 0 88 -16 113 -70 113 -22 0 -45 -7 -55 -16z m85 -109 c0 -36 -28
-62 -56 -51 -22 8 -17 53 8 70 35 25 48 20 48 -19z"/>
<path d="M4033 3019 c14 -8 17 -24 17 -89 0 -65 -3 -81 -17 -89 -14 -8 -5 -10
37 -10 30 1 47 3 38 6 -14 3 -18 15 -18 49 0 24 2 44 5 44 3 0 19 -22 36 -50
26 -42 35 -50 61 -50 29 0 30 0 11 18 -11 9 -31 35 -44 57 -22 35 -24 43 -12
65 9 19 19 24 39 22 20 -3 25 0 22 15 -4 22 -32 29 -48 11 -6 -7 -20 -28 -30
-45 -25 -43 -40 -42 -40 2 0 22 6 38 18 44 13 8 4 10 -38 10 -42 0 -51 -2 -37
-10z"/>
<path d="M4287 3019 c-23 -13 -47 -62 -47 -94 0 -64 67 -117 121 -96 44 16 64
49 64 103 0 42 -4 53 -28 74 -30 25 -78 31 -110 13z m63 -9 c20 -11 40 -60 40
-99 0 -35 -26 -71 -51 -71 -46 0 -76 111 -43 158 17 24 27 27 54 12z"/>
<path d="M4463 3019 c14 -8 17 -24 17 -89 0 -65 -3 -81 -17 -89 -14 -8 -7 -10
32 -10 28 0 44 3 38 6 -8 2 -13 22 -13 44 0 39 0 39 40 39 39 0 40 -1 40 -35
0 -22 -6 -38 -17 -44 -14 -8 -7 -10 32 -10 28 0 44 3 38 6 -17 6 -18 164 -1
181 9 9 1 12 -37 12 -39 -1 -46 -3 -32 -11 11 -6 17 -22 17 -44 0 -34 -1 -35
-40 -35 -39 0 -40 1 -40 33 0 18 5 38 12 45 9 9 1 12 -37 12 -39 -1 -46 -3
-32 -11z"/>
<path d="M10110 2880 c-18 -11 -4 -42 17 -38 10 2 19 10 21 19 4 19 -19 31
-38 19z"/>
<path d="M9903 2455 c-36 -16 -42 -24 -15 -21 15 1 17 -11 17 -127 l0 -127 29
0 c22 0 26 3 18 13 -7 8 -13 69 -14 144 l-3 131 -32 -13z"/>
<path d="M10085 2444 c-45 -49 -41 -116 10 -150 24 -15 38 -15 77 1 13 5 15 2
11 -13 -9 -34 -63 -91 -96 -101 -26 -7 -28 -9 -9 -10 30 -1 71 21 103 56 40
42 49 66 49 128 0 49 -4 60 -29 86 -38 38 -83 39 -116 3z m91 -10 c22 -33 24
-111 4 -124 -29 -19 -59 -11 -75 20 -43 82 23 179 71 104z"/>
<path d="M10479 2449 c-56 -33 -89 -92 -89 -160 0 -49 4 -61 29 -88 37 -39 71
-40 113 -2 27 24 33 36 33 71 0 34 -6 47 -29 67 -28 24 -47 26 -89 8 -16 -6
-16 -4 -7 21 15 38 48 73 85 90 23 10 25 13 10 13 -11 0 -36 -9 -56 -20z m36
-139 c19 -37 19 -80 -1 -108 -35 -50 -86 -7 -88 74 -1 48 12 64 51 64 15 0 28
-10 38 -30z"/>
<path d="M10648 2459 c-10 -5 -23 -20 -29 -32 -12 -22 -12 -22 9 -4 24 22 70
19 85 -4 15 -24 0 -68 -28 -81 l-24 -11 31 -16 c41 -21 56 -63 34 -96 -18 -27
-53 -33 -87 -15 -25 14 -44 3 -28 -16 17 -20 69 -17 107 6 56 34 65 97 21 139
-20 18 -20 21 -5 42 43 62 -20 127 -86 88z"/>
<path d="M1690 2445 c-15 -18 2 -27 39 -23 19 3 26 -4 37 -37 8 -22 18 -47 23
-56 11 -19 -51 -124 -90 -151 l-24 -17 37 0 c36 -1 39 1 75 69 51 93 63 96 63
16 0 -55 -3 -64 -22 -74 -19 -9 -12 -11 41 -11 l65 -1 -23 21 c-18 17 -21 30
-19 70 2 27 7 50 13 52 5 1 27 -31 49 -70 37 -68 41 -73 73 -73 35 0 45 14 15
22 -21 6 -105 135 -92 143 5 3 16 27 25 54 16 49 17 49 52 44 31 -5 35 -4 31
13 -4 25 -45 30 -68 9 -11 -10 -26 -39 -35 -65 -26 -79 -65 -79 -65 0 0 39 4
52 22 64 21 15 19 16 -42 15 -54 0 -61 -2 -42 -11 19 -10 22 -19 22 -70 0 -44
-3 -58 -15 -58 -18 0 -38 32 -55 83 -16 52 -63 74 -90 42z"/>
<path d="M2583 2358 c-24 -11 -36 -34 -27 -49 10 -17 33 -9 36 14 5 34 52 31
56 -5 3 -22 -2 -28 -31 -37 -46 -15 -69 -43 -65 -77 5 -41 31 -53 69 -31 29
16 32 16 44 1 9 -13 16 -14 33 -5 25 13 30 34 7 25 -13 -5 -15 6 -15 69 0 67
-3 78 -22 91 -26 18 -53 19 -85 4z m63 -154 c-7 -19 -52 -18 -60 1 -8 23 3 44
33 59 25 14 26 13 29 -16 2 -16 1 -36 -2 -44z"/>
<path d="M3573 2360 c-60 -25 -75 -121 -27 -171 38 -40 85 -40 125 0 76 76 -2
212 -98 171z m72 -34 c24 -37 17 -124 -12 -143 -20 -14 -24 -13 -48 11 -20 21
-25 35 -25 79 0 29 5 58 12 65 20 20 56 14 73 -12z"/>
<path d="M4102 2354 c-24 -17 -30 -54 -8 -54 8 0 17 11 20 25 11 44 66 29 66
-18 0 -7 -20 -20 -45 -31 -51 -20 -70 -46 -61 -82 8 -31 48 -41 80 -20 21 13
25 13 30 1 8 -21 30 -19 51 5 15 17 16 20 3 15 -13 -5 -16 6 -20 70 -3 61 -7
80 -23 91 -25 18 -65 18 -93 -2z m78 -114 c0 -34 -4 -41 -24 -46 -51 -12 -64
31 -20 65 37 29 44 27 44 -19z"/>
<path d="M5263 2358 c-24 -11 -36 -34 -27 -49 10 -17 33 -9 36 14 5 34 52 31
56 -5 3 -22 -2 -28 -31 -37 -46 -15 -69 -43 -65 -77 5 -41 31 -53 69 -31 29
16 32 16 44 1 9 -13 16 -14 33 -5 25 13 30 34 7 25 -13 -5 -15 6 -15 69 0 67
-3 78 -22 91 -26 18 -53 19 -85 4z m63 -154 c-7 -19 -52 -18 -60 1 -8 23 3 44
33 59 25 14 26 13 29 -16 2 -16 1 -36 -2 -44z"/>
<path d="M5436 2355 c-22 -9 -25 -13 -12 -18 13 -5 16 -25 16 -127 0 -116 -1
-121 -22 -130 -18 -7 -9 -9 37 -9 33 1 53 3 45 6 -22 9 -30 24 -30 61 0 30 2
32 25 26 100 -25 160 128 76 193 -23 18 -45 16 -74 -7 -24 -19 -26 -20 -29 -2
-3 17 -6 17 -32 7z m100 -23 c37 -25 46 -110 14 -142 -11 -11 -26 -20 -34 -20
-25 0 -46 42 -46 92 0 37 5 50 22 62 25 18 29 19 44 8z"/>
<path d="M6071 2356 c-15 -8 -20 -16 -12 -20 7 -5 11 -48 11 -126 0 -103 -2
-120 -17 -129 -14 -8 -5 -10 37 -10 42 0 51 2 38 10 -12 7 -18 22 -18 47 0 37
0 38 38 34 33 -3 42 1 65 28 37 44 38 120 2 155 -30 31 -52 31 -82 3 l-23 -21
0 21 c0 25 -6 26 -39 8z m132 -75 c10 -41 -7 -98 -33 -106 -11 -3 -28 -1 -40
5 -17 9 -20 21 -20 70 0 49 4 61 22 74 29 21 59 2 71 -43z"/>
<path d="M2098 2353 c16 -6 17 -164 0 -181 -9 -9 -3 -12 30 -12 23 0 42 5 42
10 0 6 -4 10 -10 10 -20 0 -9 26 30 70 l39 45 1 -55 c0 -31 -5 -61 -12 -68 -9
-9 -1 -12 38 -12 43 1 47 2 32 14 -14 11 -18 29 -18 89 0 62 3 78 18 86 13 8
6 10 -33 10 -27 0 -44 -3 -37 -6 22 -9 12 -37 -28 -83 l-40 -45 0 57 c0 44 4
59 18 67 13 8 6 10 -33 10 -27 0 -44 -3 -37 -6z"/>
<path d="M2358 2351 c9 -5 12 -29 10 -82 -3 -71 -4 -74 -28 -74 -31 0 -34 -29
-3 -33 35 -5 53 33 53 115 l0 73 30 0 30 0 0 -85 c0 -69 -3 -86 -17 -94 -14
-8 -5 -10 37 -10 48 0 53 1 38 13 -14 11 -18 29 -18 89 0 62 3 78 18 86 12 8
-7 10 -73 11 -51 0 -84 -4 -77 -9z"/>
<path d="M2778 2349 c-24 -14 -23 -48 3 -76 l22 -22 -37 -46 c-36 -44 -37 -45
-14 -45 17 0 33 13 56 45 17 25 36 45 42 45 16 0 12 -52 -7 -72 -15 -17 -14
-18 32 -18 46 0 47 1 32 18 -25 27 -24 157 1 171 13 8 1 10 -48 10 -36 0 -73
-4 -82 -10z m80 -42 c3 -31 0 -37 -15 -37 -38 0 -56 43 -31 68 23 23 43 9 46
-31z"/>
<path d="M3063 2349 c14 -8 17 -24 17 -86 0 -60 -4 -78 -17 -89 -16 -12 -12
-13 32 -14 38 0 46 3 37 12 -7 7 -12 44 -12 95 l0 83 40 0 40 0 0 -81 c0 -66
-3 -84 -17 -95 -16 -12 -12 -13 32 -14 38 0 46 3 37 12 -17 17 -16 175 1 181
6 3 -37 6 -98 6 -79 0 -105 -2 -92 -10z"/>
<path d="M3328 2351 c9 -5 12 -29 10 -82 -3 -71 -4 -74 -28 -74 -31 0 -34 -29
-3 -33 35 -5 53 33 53 115 l0 73 30 0 30 0 0 -85 c0 -69 -3 -86 -17 -94 -14
-8 -5 -10 37 -10 48 0 53 1 38 13 -14 11 -18 29 -18 89 0 62 3 78 18 86 12 8
-7 10 -73 11 -51 0 -84 -4 -77 -9z"/>
<path d="M3743 2349 c14 -8 17 -24 17 -86 0 -60 -4 -78 -17 -89 -15 -11 6 -13
140 -14 98 0 157 4 157 10 0 6 -4 10 -10 10 -6 0 -10 35 -10 84 0 72 3 85 18
89 9 3 -5 5 -33 5 -27 0 -44 -2 -37 -5 8 -3 12 -31 12 -89 l0 -84 -35 0 -35 0
0 84 c0 58 4 86 13 89 6 3 -10 5 -38 5 -27 0 -42 -2 -32 -5 14 -4 17 -17 17
-89 l0 -84 -35 0 -35 0 0 84 c0 58 4 86 13 89 6 3 -10 6 -38 6 -39 0 -46 -2
-32 -10z"/>
<path d="M4314 2344 c29 -28 11 -121 -30 -159 -15 -14 -24 -33 -24 -51 l1 -29
15 28 c14 26 18 27 89 27 71 0 75 -1 89 -27 l15 -28 1 33 c0 20 -6 35 -15 38
-12 5 -15 25 -15 89 0 71 3 84 18 88 9 3 -23 5 -71 6 -80 1 -87 0 -73 -15z
m86 -79 l0 -85 -45 0 -44 0 14 41 c8 23 15 58 15 79 0 43 5 50 37 50 22 0 23
-3 23 -85z"/>
<path d="M4503 2349 c14 -8 17 -24 17 -86 0 -60 -4 -78 -17 -89 -16 -12 -12
-13 32 -12 78 1 108 10 124 40 14 24 14 28 -3 47 -13 14 -31 21 -58 21 -38 0
-38 0 -38 39 0 29 5 41 18 44 9 3 -8 5 -38 6 -42 0 -51 -2 -37 -10z m111 -105
c9 -8 16 -19 16 -24 0 -16 -31 -40 -51 -40 -16 0 -19 7 -19 40 0 33 3 40 19
40 11 0 27 -7 35 -16z"/>
<path d="M4813 2349 c14 -8 17 -24 17 -86 0 -60 -4 -78 -17 -89 -16 -12 -12
-13 32 -14 38 0 46 3 37 12 -13 13 -17 88 -4 88 4 0 21 -22 37 -48 24 -37 36
-48 60 -50 26 -2 28 -1 15 10 -9 7 -30 34 -47 59 -28 42 -29 48 -16 72 9 18
22 27 38 27 16 0 25 6 25 16 0 11 -8 14 -27 12 -21 -2 -32 -12 -46 -40 -22
-49 -47 -50 -47 -4 0 24 5 36 18 39 9 3 -8 5 -38 6 -42 0 -51 -2 -37 -10z"/>
<path d="M5028 2353 c8 -3 12 -30 12 -87 0 -52 -5 -87 -12 -95 -11 -11 0 -13
61 -8 102 8 137 41 91 87 -19 19 -19 22 -5 36 19 19 19 24 -1 52 -13 19 -24
22 -87 21 -40 0 -66 -3 -59 -6z m106 -19 c26 -25 16 -44 -31 -58 -21 -7 -23
-4 -23 33 0 34 3 41 19 41 11 0 27 -7 35 -16z m8 -91 c10 -9 18 -20 18 -24 0
-16 -32 -39 -56 -39 -21 0 -24 4 -24 40 0 34 3 40 22 40 12 0 30 -7 40 -17z"/>
<path d="M5630 2351 c0 -5 -3 -18 -6 -28 -6 -15 -3 -14 15 5 12 12 31 22 41
22 18 0 20 -7 20 -77 0 -57 -4 -81 -17 -95 -15 -17 -14 -18 37 -18 51 0 52 0
31 18 -20 15 -22 25 -19 92 3 64 6 75 22 78 12 3 27 -5 37 -19 18 -24 25 -16
13 15 -5 13 -23 16 -90 16 -46 0 -84 -4 -84 -9z"/>
<path d="M5833 2349 c14 -8 17 -24 17 -86 0 -60 -4 -78 -17 -89 -16 -12 -12
-13 32 -14 38 0 46 3 37 12 -20 20 -13 41 28 87 l40 44 0 -58 c0 -43 -4 -61
-17 -71 -16 -12 -12 -13 32 -14 38 0 46 3 37 12 -17 17 -16 175 1 181 6 3 -8
6 -32 6 -37 1 -42 -1 -31 -14 10 -12 6 -23 -26 -62 l-39 -48 -3 54 c-2 37 1
57 10 62 8 5 -7 9 -37 9 -39 -1 -46 -3 -32 -11z"/>
<path d="M6283 2349 c14 -8 17 -24 17 -86 0 -60 -4 -78 -17 -89 -16 -12 -12
-13 32 -12 78 1 108 10 124 40 14 24 14 28 -3 47 -13 14 -31 21 -58 21 -38 0
-38 0 -38 39 0 29 5 41 18 44 9 3 -8 5 -38 6 -42 0 -51 -2 -37 -10z m111 -105
c9 -8 16 -19 16 -24 0 -16 -31 -40 -51 -40 -16 0 -19 7 -19 40 0 33 3 40 19
40 11 0 27 -7 35 -16z"/>
<path d="M6463 2353 c14 -4 17 -17 17 -85 0 -65 -3 -83 -17 -94 -16 -12 -12
-13 32 -14 38 0 46 3 37 12 -17 17 -16 175 1 181 6 3 -10 5 -38 5 -27 0 -42
-2 -32 -5z"/>
<path d="M10292 2193 c2 -10 10 -18 18 -18 8 0 16 8 18 18 2 12 -3 17 -18 17
-15 0 -20 -5 -18 -17z"/>
<path d="M2140 1819 c-75 -8 -86 -14 -110 -63 -37 -78 -22 -198 29 -226 71
-37 152 32 136 117 -7 37 -56 83 -90 83 -13 0 -37 -11 -54 -25 l-30 -26 9 32
c14 49 36 66 92 72 29 4 59 13 67 22 20 20 15 21 -49 14z m-5 -129 c26 -29 27
-126 2 -145 -25 -18 -55 -8 -72 26 -17 33 -20 92 -5 120 14 25 52 24 75 -1z"/>
<path d="M1749 1797 c-117 -78 -76 -262 60 -275 89 -8 155 54 155 148 0 120
-120 191 -215 127z m105 3 c37 -14 60 -65 59 -136 -1 -74 -14 -101 -59 -120
-29 -12 -40 -12 -62 -2 -80 38 -81 216 -2 255 30 15 32 15 64 3z"/>
<path d="M9936 1706 c-36 -52 -66 -102 -66 -110 0 -13 12 -16 60 -16 l60 0 0
-35 c0 -24 5 -35 15 -35 10 0 15 11 15 35 0 28 4 35 20 35 11 0 20 6 20 14 0
7 -9 16 -20 19 -18 5 -20 14 -20 96 0 50 -4 91 -9 91 -5 0 -39 -42 -75 -94z
m51 -93 c-3 -2 -26 -3 -51 -1 l-47 3 48 69 48 68 3 -67 c2 -37 1 -69 -1 -72z"/>
<path d="M10136 1779 c-33 -26 -33 -59 -1 -98 l26 -30 -26 -25 c-34 -34 -33
-78 1 -105 54 -42 134 -11 134 53 0 23 -9 41 -31 62 -29 28 -30 29 -11 44 32
26 44 57 32 80 -23 43 -81 52 -124 19z m96 -14 c13 -29 -1 -72 -28 -82 -20 -7
-64 38 -64 66 0 46 72 59 92 16z m-20 -152 c34 -38 39 -57 22 -82 -45 -64
-123 22 -82 89 17 27 29 25 60 -7z"/>
<path d="M10466 1779 c-33 -26 -33 -59 -1 -98 l26 -30 -26 -25 c-34 -34 -33
-78 1 -105 54 -42 134 -11 134 53 0 23 -9 41 -31 62 -29 28 -30 29 -11 44 32
26 44 57 32 80 -23 43 -81 52 -124 19z m96 -14 c13 -29 -1 -72 -28 -82 -20 -7
-64 38 -64 66 0 46 72 59 92 16z m-20 -152 c34 -38 39 -57 22 -82 -45 -64
-123 22 -82 89 17 27 29 25 60 -7z"/>
<path d="M10686 1779 c-33 -26 -33 -59 -1 -97 l25 -30 -25 -28 c-33 -36 -33
-76 1 -103 54 -42 134 -11 134 53 0 23 -9 41 -31 62 -29 28 -30 29 -11 44 32
26 44 57 32 80 -23 43 -81 52 -124 19z m96 -14 c13 -29 -1 -72 -28 -82 -20 -7
-64 38 -64 66 0 46 72 59 92 16z m-20 -152 c34 -38 39 -57 22 -82 -45 -64
-123 22 -82 89 17 27 29 25 60 -7z"/>
<path d="M2602 1714 c-24 -17 -30 -54 -8 -54 8 0 17 11 20 25 11 44 66 29 66
-18 0 -7 -20 -20 -45 -31 -51 -20 -70 -46 -61 -82 8 -31 48 -41 80 -20 21 13
25 13 30 1 8 -21 30 -19 51 5 15 17 16 20 3 15 -13 -5 -16 6 -20 70 -3 61 -7
80 -23 91 -25 18 -65 18 -93 -2z m78 -114 c0 -34 -4 -41 -24 -46 -51 -12 -64
31 -20 65 37 29 44 27 44 -19z"/>
<path d="M3593 1720 c-60 -25 -75 -121 -27 -171 38 -40 85 -40 125 0 76 76 -2
212 -98 171z m72 -34 c24 -37 17 -124 -12 -143 -20 -14 -24 -13 -48 11 -20 21
-25 35 -25 79 0 29 5 58 12 65 20 20 56 14 73 -12z"/>
<path d="M4133 1718 c-24 -11 -36 -34 -27 -49 10 -17 33 -9 36 14 5 34 52 31
56 -5 3 -22 -2 -28 -31 -37 -46 -15 -69 -43 -65 -77 5 -41 31 -53 69 -31 29
16 32 16 44 1 9 -13 16 -14 33 -5 25 13 30 34 7 25 -13 -5 -15 6 -15 69 0 67
-3 78 -22 91 -26 18 -53 19 -85 4z m63 -154 c-7 -19 -52 -18 -60 1 -8 23 3 44
33 59 25 14 26 13 29 -16 2 -16 1 -36 -2 -44z"/>
<path d="M5282 1714 c-24 -17 -30 -54 -8 -54 8 0 17 11 20 25 11 44 66 29 66
-18 0 -7 -20 -20 -45 -31 -51 -20 -70 -46 -61 -82 8 -31 48 -41 80 -20 21 13
25 13 30 1 8 -21 30 -19 51 5 15 17 16 20 3 15 -13 -5 -16 6 -20 70 -3 61 -7
80 -23 91 -25 18 -65 18 -93 -2z m78 -114 c0 -34 -4 -41 -24 -46 -51 -12 -64
31 -20 65 37 29 44 27 44 -19z"/>
<path d="M5461 1716 c-15 -8 -20 -16 -12 -20 7 -5 11 -48 11 -126 0 -103 -2
-120 -17 -129 -14 -8 -5 -10 37 -10 42 0 51 2 38 10 -12 7 -18 22 -18 47 0 37
0 38 38 34 33 -3 42 1 65 28 37 44 38 120 2 155 -30 31 -52 31 -82 3 l-23 -21
0 21 c0 25 -6 26 -39 8z m132 -75 c10 -41 -7 -98 -33 -106 -11 -3 -28 -1 -40
5 -17 9 -20 21 -20 70 0 49 4 61 22 74 29 21 59 2 71 -43z"/>
<path d="M6096 1715 c-22 -9 -25 -13 -12 -18 13 -5 16 -25 16 -127 0 -116 -1
-121 -22 -130 -18 -7 -9 -9 37 -9 33 1 53 3 45 6 -22 9 -30 24 -30 61 0 30 2
32 25 26 100 -25 160 128 76 193 -23 18 -45 16 -74 -7 -24 -19 -26 -20 -29 -2
-3 17 -6 17 -32 7z m100 -23 c37 -25 46 -110 14 -142 -11 -11 -26 -20 -34 -20
-25 0 -46 42 -46 92 0 37 5 50 22 62 25 18 29 19 44 8z"/>
<path d="M2233 1709 c14 -8 17 -24 17 -86 0 -60 -4 -78 -17 -89 -15 -11 6 -13
140 -14 98 0 157 4 157 10 0 6 -4 10 -10 10 -6 0 -10 35 -10 84 0 72 3 85 18
89 9 3 -5 5 -33 5 -27 0 -44 -2 -37 -5 8 -3 12 -31 12 -89 l0 -84 -35 0 -35 0
0 84 c0 58 4 86 13 89 6 3 -10 5 -38 5 -27 0 -42 -2 -32 -5 14 -4 17 -17 17
-89 l0 -84 -35 0 -35 0 0 84 c0 58 4 86 13 89 6 3 -10 6 -38 6 -39 0 -46 -2
-32 -10z"/>
<path d="M2798 1709 c-24 -14 -23 -48 3 -76 l22 -22 -37 -46 c-36 -44 -37 -45
-14 -45 17 0 33 13 56 45 17 25 36 45 42 45 16 0 12 -52 -7 -72 -15 -17 -14
-18 32 -18 46 0 47 1 32 18 -25 27 -24 157 1 171 13 8 1 10 -48 10 -36 0 -73
-4 -82 -10z m80 -42 c3 -31 0 -37 -15 -37 -38 0 -56 43 -31 68 23 23 43 9 46
-31z"/>
<path d="M3083 1709 c14 -8 17 -24 17 -86 0 -60 -4 -78 -17 -89 -16 -12 -12
-13 32 -14 38 0 46 3 37 12 -7 7 -12 44 -12 95 l0 83 40 0 40 0 0 -81 c0 -66
-3 -84 -17 -95 -16 -12 -12 -13 32 -14 38 0 46 3 37 12 -17 17 -16 175 1 181
6 3 -37 6 -98 6 -79 0 -105 -2 -92 -10z"/>
<path d="M3348 1711 c9 -5 12 -29 10 -82 -3 -71 -4 -74 -28 -74 -31 0 -34 -29
-3 -33 35 -5 53 33 53 115 l0 73 30 0 30 0 0 -85 c0 -69 -3 -86 -17 -94 -14
-8 -5 -10 37 -10 48 0 53 1 38 13 -14 11 -18 29 -18 89 0 62 3 78 18 86 12 8
-7 10 -73 11 -51 0 -84 -4 -77 -9z"/>
<path d="M3763 1709 c14 -8 17 -24 17 -86 0 -60 -4 -78 -17 -89 -15 -11 6 -13
140 -14 98 0 157 4 157 10 0 6 -4 10 -10 10 -6 0 -10 35 -10 84 0 72 3 85 18
89 9 3 -5 5 -33 5 -27 0 -44 -2 -37 -5 8 -3 12 -31 12 -89 l0 -84 -35 0 -35 0
0 84 c0 58 4 86 13 89 6 3 -10 5 -38 5 -27 0 -42 -2 -32 -5 14 -4 17 -17 17
-89 l0 -84 -35 0 -35 0 0 84 c0 58 4 86 13 89 6 3 -10 6 -38 6 -39 0 -46 -2
-32 -10z"/>
<path d="M4334 1704 c29 -28 11 -121 -30 -159 -15 -14 -24 -33 -24 -51 l1 -29
15 28 c14 26 18 27 89 27 71 0 75 -1 89 -27 l15 -28 1 33 c0 20 -6 35 -15 38
-12 5 -15 25 -15 89 0 71 3 84 18 88 9 3 -23 5 -71 6 -80 1 -87 0 -73 -15z
m86 -79 l0 -85 -45 0 -44 0 14 41 c8 23 15 58 15 79 0 43 5 50 37 50 22 0 23
-3 23 -85z"/>
<path d="M4528 1713 c8 -3 12 -30 12 -87 0 -52 -5 -87 -12 -95 -11 -11 -1 -13
53 -9 84 7 109 20 109 58 0 35 -23 50 -74 50 -34 0 -36 1 -36 35 0 28 5 38 23
45 17 7 10 9 -33 9 -30 -1 -49 -3 -42 -6z m116 -115 c15 -25 -3 -52 -38 -56
-24 -3 -26 -1 -26 38 0 39 2 41 26 38 15 -2 32 -11 38 -20z"/>
<path d="M4838 1713 c16 -6 17 -164 0 -181 -9 -9 -1 -12 38 -12 43 1 47 2 32
14 -19 14 -26 86 -9 86 5 0 23 -22 40 -50 24 -39 37 -50 56 -50 27 0 34 14 11
23 -7 3 -25 26 -40 51 -22 38 -24 49 -15 70 7 15 22 26 36 28 33 4 34 22 2 26
-22 3 -30 -3 -45 -35 -24 -49 -54 -57 -54 -14 0 18 7 34 18 40 13 8 6 10 -33
10 -27 0 -44 -3 -37 -6z"/>
<path d="M5053 1709 c14 -8 17 -24 17 -86 0 -60 -4 -78 -17 -89 -16 -12 -11
-13 37 -13 80 0 124 18 128 51 2 17 -4 31 -18 41 -18 12 -19 16 -5 27 19 16
19 44 -1 64 -11 12 -35 16 -87 16 -54 -1 -68 -3 -54 -11z m98 -9 c28 -15 24
-49 -7 -60 -35 -14 -34 -15 -34 30 0 41 8 47 41 30z m10 -90 c37 -20 17 -70
-28 -70 -20 0 -23 5 -23 40 0 43 13 50 51 30z"/>
<path d="M5650 1693 l0 -27 16 22 c8 12 24 22 35 22 17 0 19 -7 19 -85 0 -69
-3 -86 -17 -94 -14 -8 -5 -10 37 -10 48 0 53 1 38 13 -15 11 -18 29 -18 95 0
74 2 81 19 81 11 0 27 -10 35 -22 l16 -22 0 27 0 27 -90 0 -90 0 0 -27z"/>
<path d="M5858 1713 c16 -6 17 -164 0 -181 -9 -9 -3 -12 30 -12 23 0 42 5 42
10 0 6 -4 10 -10 10 -20 0 -9 26 30 70 l39 45 1 -55 c0 -31 -5 -61 -12 -68 -9
-9 -1 -12 38 -12 43 1 47 2 32 14 -14 11 -18 29 -18 89 0 62 3 78 18 86 13 8
6 10 -33 10 -27 0 -44 -3 -37 -6 22 -9 12 -37 -28 -83 l-40 -45 0 57 c0 44 4
59 18 67 13 8 6 10 -33 10 -27 0 -44 -3 -37 -6z"/>
<path d="M6303 1709 c14 -8 17 -24 17 -86 0 -60 -4 -78 -17 -89 -16 -12 -12
-13 32 -12 78 1 108 10 124 40 14 24 14 28 -3 47 -13 14 -31 21 -58 21 -38 0
-38 0 -38 39 0 29 5 41 18 44 9 3 -8 5 -38 6 -42 0 -51 -2 -37 -10z m111 -105
c9 -8 16 -19 16 -24 0 -16 -31 -40 -51 -40 -16 0 -19 7 -19 40 0 33 3 40 19
40 11 0 27 -7 35 -16z"/>
<path d="M6483 1713 c14 -4 17 -17 17 -85 0 -65 -3 -83 -17 -94 -16 -12 -12
-13 32 -14 38 0 46 3 37 12 -17 17 -16 175 1 181 6 3 -10 5 -38 5 -27 0 -42
-2 -32 -5z"/>
<path d="M10341 1536 c-14 -17 -7 -36 14 -36 22 0 29 20 13 36 -13 13 -16 13
-27 0z"/>
</g>
</svg>
